<?xml version="1.0" encoding="utf-8"?>
<!-- Generator: Adobe Illustrator 24.2.3, SVG Export Plug-In . SVG Version: 6.00 Build 0)  -->
<svg version="1.1" id="Orange_Outline" xmlns="http://www.w3.org/2000/svg" xmlns:xlink="http://www.w3.org/1999/xlink" x="0px"
	 y="0px" viewBox="0 0 278 278" style="enable-background:new 0 0 278 278;" xml:space="preserve">
<style type="text/css">
	.st0{fill:none;stroke:#F05325;stroke-width:5;stroke-miterlimit:10;}
	.st1{fill:none;stroke:#F05325;stroke-width:4;stroke-miterlimit:10;}
	.st2{fill:none;stroke:#F05325;stroke-width:4;stroke-linecap:round;stroke-linejoin:round;stroke-miterlimit:10;}
	.st3{fill:#F05325;}
	.st4{fill:none;stroke:#FFFFFF;stroke-width:4;stroke-linecap:round;stroke-linejoin:round;stroke-miterlimit:10;}
</style>
<circle class="st0" cx="139" cy="138.5" r="135.3"/>
<circle class="st1" cx="122.6" cy="52.1" r="8.2"/>
<circle class="st1" cx="81.4" cy="76.8" r="8.2"/>
<circle class="st1" cx="52.7" cy="109.7" r="8.2"/>
<line class="st2" x1="163.7" y1="233" x2="170" y2="212.5"/>
<path class="st3" d="M143.1,167.2c0,13.1,5.6,25.5,15.4,34.2l7.8,7c8.9,7.9,20.4,12.3,32.3,12.3c6,0,11.1-4.3,12.1-10.1l6.4-35.1
	l11.1-2.8c3.1-0.8,5.3-3.6,5.3-6.8c0-1.8-0.5-3.5-1.3-5.1L219,137.6c-1.2-2-1.2-4.5-0.2-6.7c1.6-3.2,2.3-6.7,2-10.2l-3.7-43.9
	L176,117.9l-28.8,12.3l-15.8-4.5c-3.1-0.9-6.4-0.3-8.9,1.7c-9,6.8-1,22.3,3.2,32C128.6,166.1,136.1,169.6,143.1,167.2z"/>
<polyline class="st1" points="130.8,52.1 163.7,52.1 163.7,76.8 217.1,76.8 "/>
<polyline class="st1" points="89.7,76.8 143.1,76.8 143.1,93.2 207.2,93.2 "/>
<circle class="st1" cx="69.1" cy="153.9" r="8.2"/>
<polyline class="st1" points="77.3,153.9 97.9,153.9 97.9,129.2 124.7,129.2 "/>
<circle class="st1" cx="93.8" cy="179.6" r="8.2"/>
<polyline class="st1" points="102,179.6 122.6,179.6 122.6,140.3 "/>
<line class="st1" x1="196.6" y1="109.7" x2="60.9" y2="109.7"/>
<line class="st2" x1="126.7" y1="93.2" x2="114.3" y2="93.2"/>
<line class="st2" x1="85.6" y1="126.1" x2="73.2" y2="126.1"/>
<line class="st2" x1="106.1" y1="93.2" x2="97.9" y2="93.2"/>
<line class="st2" x1="110.2" y1="200.1" x2="134.9" y2="200.1"/>
<line class="st2" x1="69.1" y1="200.1" x2="77.3" y2="200.1"/>
<line class="st2" x1="69.1" y1="175.5" x2="56.8" y2="175.5"/>
<polyline class="st4" points="188.3,138.5 204.8,134.3 204.8,142.6 "/>
</svg>
