<?xml version="1.0" encoding="utf-8"?>
<!-- Generator: Adobe Illustrator 24.2.3, SVG Export Plug-In . SVG Version: 6.00 Build 0)  -->
<svg version="1.1" xmlns="http://www.w3.org/2000/svg" xmlns:xlink="http://www.w3.org/1999/xlink" x="0px" y="0px"
	 viewBox="0 0 600 550" style="enable-background:new 0 0 600 550;" xml:space="preserve">
<style type="text/css">
	.st0{fill:#4C5966;stroke:#FFFFFF;stroke-width:2;stroke-miterlimit:10;}
	.st1{fill:#B2E1F5;}
	.st2{fill:#F24C33;}
	.st3{fill:#FAC30F;}
	.st4{opacity:0.7;fill:#95979A;}
	.st5{fill:#4EC3DE;}
	.st6{fill:#FFFFFF;}
	.st7{fill:#474E4F;}
	.st8{fill:#39424D;}
	.st9{fill:#FEFFFF;}
	.st10{fill:#4C5966;}
	.st11{fill:#BDC3C9;}
	.st12{fill:#C2E6F5;}
	.st13{opacity:0.4;}
	.st14{fill:#3DFFE9;}
</style>
<g id="_x2014_ÎÓÈ_x5F_2">
</g>
<g id="_x2014_ÎÓÈ_x5F_1">
	<path class="st0" d="M453.3,483.7L453,308.9c0.1-8.4-8-15.3-17.9-15.2L155.1,294c-9.7,0-18,6.9-17.9,15.2l0.2,174.5v4
		c0,8.4,8.2,15.1,18,15.1l280-0.3c9.9,0,18-6.8,18-15.2L453.3,483.7z"/>
	<g>
		<g>
			<rect x="201.6" y="65.5" class="st1" width="8.5" height="4.1"/>
			<rect x="215.4" y="65.6" class="st1" width="27.3" height="4.1"/>
		</g>
		<g>
			<rect x="568.5" y="173.4" class="st1" width="18.7" height="4.1"/>
			<rect x="592.3" y="173.4" class="st1" width="6.1" height="4.1"/>
		</g>
		<g>
			<rect x="34.7" y="277.7" class="st1" width="29.8" height="4.1"/>
			<rect x="90.5" y="380.2" class="st1" width="29.2" height="4.1"/>
			<rect x="485.6" y="426" class="st1" width="11.1" height="4.1"/>
			<rect x="70.6" y="277.7" class="st1" width="7.4" height="4.1"/>
		</g>
		<g>
			<rect x="293.1" y="210.7" class="st1" width="12.9" height="4.1"/>
			<rect x="310.5" y="210.7" class="st1" width="21.9" height="4.1"/>
		</g>
		<g>
			<g>
				<rect x="389.8" y="141.6" class="st1" width="18.9" height="4.1"/>
				<rect x="389.9" y="141.6" class="st1" width="36.8" height="4.1"/>
				<rect x="431.2" y="141.6" class="st1" width="8.2" height="4.1"/>
			</g>
			<g>
				<rect x="413.2" y="128.3" class="st1" width="12.7" height="4.1"/>
				<rect x="281.5" y="98.4" class="st1" width="17.4" height="4.1"/>
				<rect x="270.5" y="98.4" class="st1" width="6.3" height="4.1"/>
				<rect x="430.5" y="128.4" class="st1" width="24.4" height="4.1"/>
			</g>
		</g>
	</g>
	<g>
		<rect x="138.4" y="249.1" class="st1" width="27.2" height="4.1"/>
		<rect x="170.8" y="249.2" class="st1" width="27.3" height="4.1"/>
	</g>
	<g>
		<rect x="433.1" y="347.4" class="st1" width="39.3" height="4.1"/>
		<rect x="477.5" y="347.4" class="st1" width="27.3" height="4.1"/>
	</g>
	<g>
		<rect x="77.1" y="407.2" class="st1" width="29.8" height="4.1"/>
		<rect x="112.9" y="407.2" class="st1" width="44.8" height="4.1"/>
	</g>
	<g>
		<rect x="224.6" y="394.3" class="st1" width="18.9" height="4.1"/>
		<rect x="248.6" y="394.3" class="st1" width="12.9" height="4.1"/>
		<rect x="266" y="394.3" class="st1" width="21.9" height="4.1"/>
	</g>
	<g>
		<g>
			<rect x="381.6" y="271.1" class="st1" width="18.9" height="4.1"/>
			<rect x="381.6" y="271.1" class="st1" width="36.8" height="4.1"/>
			<rect x="422.9" y="271.2" class="st1" width="21.9" height="4.1"/>
		</g>
		<g>
			<rect x="342.6" y="257.9" class="st1" width="18.9" height="4.1"/>
			<rect x="331.9" y="257.9" class="st1" width="54.3" height="4.1"/>
			<rect x="218.3" y="282.1" class="st1" width="17.4" height="4.1"/>
			<rect x="207.2" y="282.1" class="st1" width="6.3" height="4.1"/>
			<rect x="391.1" y="257.9" class="st1" width="36.9" height="4.1"/>
		</g>
	</g>
	<g>
		<path class="st2" d="M185.9,83.6c1.8,8,0.4,16-3.5,22.4c-1.6,2.7,1.1,7.2-1.3,9.2c-2,1.7-6.1,2.3-10,2.8c-0.2,0-0.4,0.1-0.7,0
			c-2.1,0.3-4.1,0.5-5.5,0.8c-6.8,1.5-20.4,4-29.9,2.6c-1.7-0.2-3.2-0.6-4.5-1.1c-0.5-0.2-0.9-0.4-1.4-0.6c0.6-0.4,1.1-0.9,1.7-1.3
			c0.4-0.4,0.8-0.7,1.2-1c0.6-0.5,1.1-1,1.6-1.6c0.5-0.5,1-1.1,1.5-1.6c6.4-7.4,9.4-16.3,7.5-25.1c-0.7-3.2-2-6.1-3.9-8.7
			c0,0,0,0,0,0c-2.6-3.7-6.2-6.9-10.5-9.2c-0.3-0.2-0.6-0.3-0.9-0.4c-0.4-0.7-0.7-1.2-0.7-1.2s2.2-0.9,5.3-2.1
			c5.9-2.3,15.2-5.7,19.8-6.8C167,57.2,182.3,67.5,185.9,83.6z"/>
		<g>
			<g>
				<path class="st2" d="M88.5,101.3c0.6,2.8-1.1,5.6-4,6.3c-2.8,0.6-5.6-1.1-6.3-4c-0.6-2.8,1.1-5.7,4-6.3
					C85,96.6,87.8,98.4,88.5,101.3z"/>
				<path class="st2" d="M107.5,97c0.6,2.8-1.1,5.6-4,6.3c-2.9,0.6-5.6-1.1-6.3-4c-0.6-2.8,1.1-5.7,3.9-6.3
					C104,92.3,106.9,94.1,107.5,97z"/>
				<path class="st2" d="M126.6,92.7c0.6,2.8-1.1,5.6-4,6.3c-2.8,0.6-5.6-1.2-6.2-4c-0.6-2.8,1.1-5.7,3.9-6.3
					C123.1,88,125.9,89.9,126.6,92.7z"/>
			</g>
			<g>
				<path class="st2" d="M151.6,90.7c0.5,2.3-0.9,4.6-3.3,5.2c-2.3,0.5-4.6-0.9-5.2-3.3c-0.5-2.3,1-4.6,3.3-5.1
					C148.8,86.9,151.1,88.3,151.6,90.7z"/>
				<path class="st2" d="M166.2,87.4c0.5,2.3-0.9,4.6-3.2,5.1c-2.3,0.5-4.7-0.9-5.2-3.3c-0.5-2.3,1-4.6,3.3-5.1
					C163.4,83.6,165.7,85.1,166.2,87.4z"/>
			</g>
			<g>
				<g>
					<path class="st2" d="M182.3,107.8l6.3,13.9l-5.6-1.2c-0.1,0-4.9-1.1-11.9-2.6c-0.1-0.1-0.3-0.1-0.4-0.1
						c-0.1,0.1-0.2,0.1-0.3,0.1c-4.5,2.7-9.4,4.7-14.7,5.9c-8,1.8-16,1.7-23.2-0.3c-1.4-0.4-2.6-0.8-3.9-1.2
						c-0.7-0.3-1.3-0.6-1.9-0.8c0.9-0.5,1.8-1.2,2.6-1.8c0.6-0.4,1.1-0.9,1.7-1.3c0.4-0.4,0.8-0.7,1.2-1c0.3,0.1,0.6,0.2,0.8,0.3
						c1.6,0.5,3.2,0.8,4.9,1.1c5.4,0.9,11.1,0.7,16.7-0.5c5.2-1.2,10-3.1,14.2-5.8l1-0.6l9,1.9l-3.1-6.8l1.3-1.3
						c5.8-6.6,8.1-14.3,6.4-21.6c-3.3-14.6-21.5-23-40.7-18.7c-3.2,0.7-6.3,1.8-9.1,3.1c-1.8,0.8-3.5,1.8-5.1,2.8
						c-0.3-0.2-0.6-0.3-0.9-0.4c-1.1-0.7-2.4-1.2-3.7-1.7l-1.2-0.9l0.1-0.1l1.5-1.1c1-0.6,2-1.3,3-1.9c4.3-2.4,9-4.3,14-5.4
						c22.3-5,43.6,5.4,47.5,23C190.7,91.1,188.3,100.2,182.3,107.8z"/>
				</g>
				<g>
					<path class="st2" d="M147.4,87.3c-1.8-7.1-6.1-13.2-12.1-17.6c-0.1-0.1-0.3-0.2-0.5-0.4c-0.5-0.4-1-0.7-1.4-1
						c-0.5-0.3-0.9-0.6-1.3-0.9c-0.4-0.2-0.9-0.5-1.4-0.7c-0.2-0.1-0.4-0.3-0.7-0.4c-0.8-0.5-1.8-0.9-2.7-1.3
						c-9.4-4.1-21-5.3-32.9-2.7c-24.9,5.6-41.5,26.2-37.1,45.9c2.1,9.5,9,17.6,18.9,22.3c0,5.8-0.1,9.7-0.1,11.2l0,0.7l0,0l-0.2,5.6
						l4.3-3.6c0.2-0.2,4.4-3.6,11.9-9.5c6,0.6,12.2,0.3,18.3-1.1c8.4-1.9,15.9-5.5,22-10.2c0.9-0.7,1.8-1.4,2.6-2.2
						c0.3-0.2,0.6-0.4,0.8-0.7c0.7-0.7,1.3-1.3,1.9-2c0,0,0.1-0.1,0.1-0.1c0.8-0.8,1.6-1.7,2.3-2.7c4.9-6.1,7.8-13.1,8.1-20.2
						c0.1-2.6-0.1-5.3-0.7-7.9C147.5,87.7,147.4,87.5,147.4,87.3z M135.1,114.2c-0.5,0.6-1,1.1-1.5,1.6c-0.5,0.5-1.1,1.1-1.6,1.6
						c-0.4,0.4-0.8,0.7-1.2,1c-0.5,0.5-1.1,0.9-1.7,1.3c-0.8,0.7-1.7,1.3-2.6,1.8c-4.9,3.4-10.8,5.9-17.2,7.3
						c-6,1.3-11.9,1.6-17.7,0.9l-1-0.1l-0.9,0.7c-3.4,2.7-6.4,5.1-8.5,6.8c0-2.4,0-5.1,0.1-8.3l0-1.6l-1.5-0.7
						c-9.4-4-15.6-11-17.5-19.5c-3.8-17,11.1-34.8,33.2-39.8c10.1-2.3,20-1.5,28.2,1.7c1.2,0.5,2.5,1.1,3.7,1.7
						c0.3,0.1,0.6,0.3,0.9,0.4c4.3,2.3,7.9,5.4,10.5,9.2c0,0,0,0,0,0c1.8,2.6,3.2,5.5,3.9,8.7C144.6,97.8,141.5,106.8,135.1,114.2z"
						/>
				</g>
			</g>
		</g>
	</g>
	<g>
		<path class="st3" d="M3.4,170.3l24.1-15.7l12.1,18.5L59,213.3L44.1,223l-28.7-34.2L3.4,170.3z M46.3,229.6l16.9-11l9.7,14.9
			l-16.9,11L46.3,229.6z"/>
	</g>
	<path class="st4" d="M512.2,522.7c0-8-97.7-14.5-218.3-14.5c-120.6,0-218.3,6.5-218.3,14.5c0,8,97.7,14.5,218.3,14.5
		C414.5,537.2,512.2,530.7,512.2,522.7z"/>
	<path class="st5" d="M473.8,52.7c-0.3-4.7-2.8-9.5-7.1-12.8c-3.9-3-8.6-4.3-13-3.7c-4.7-6.1-12-10-20.2-10
		c-11.1,0-20.6,7.4-24.2,17.7c-10.3,1.6-18.2,9.9-18.2,19.8c0,11,9.8,20.1,21.8,20l57.7-0.1l0-0.2c0.9,0.1,1.8,0.2,2.7,0.2
		c8.9,0,16.2-6.9,16.2-15.4C489.3,59.8,482.4,53.1,473.8,52.7z"/>
	<g>
		<g>
			<g>
				<path class="st5" d="M594.4,230.8c-2.3,10.6-8.7,19.7-17.8,25.6c-9.2,5.9-20.1,7.9-30.8,5.5c-10.6-2.3-19.7-8.7-25.6-17.9
					c-5.9-9.2-7.8-20.1-5.5-30.7c2.3-10.7,8.7-19.8,17.9-25.7c9.2-5.8,20.1-7.8,30.7-5.5c10.7,2.3,19.7,8.7,25.6,17.8
					C594.8,209.1,596.8,220.1,594.4,230.8z M517.6,213.9c-2.2,9.9-0.3,20,5.1,28.6c5.4,8.5,13.8,14.4,23.7,16.6
					c9.9,2.2,20,0.4,28.5-5.1c8.5-5.5,14.4-13.9,16.6-23.8c2.2-9.9,0.4-20-5.1-28.6c-5.4-8.5-13.9-14.4-23.8-16.6
					c-9.9-2.2-20-0.4-28.5,5.1C525.7,195.5,519.8,204,517.6,213.9z"/>
			</g>
			<g>
				<path class="st5" d="M594.4,230.8c-1,4.6-6.3,8-14.8,9.4c-8,1.3-18.2,0.7-28.7-1.6c-16.2-3.6-29.8-10.6-34.5-18.1
					c-1.6-2.5-2.2-4.9-1.7-7.2c1-4.7,6.3-8,14.8-9.4c8-1.3,18.2-0.7,28.6,1.5c16.3,3.6,29.8,10.7,34.6,18.1
					C594.4,226,595,228.4,594.4,230.8L594.4,230.8z M517.6,213.9c-0.3,1.5,0.1,3.2,1.3,5c4.3,6.7,17.4,13.4,32.7,16.8
					c10.1,2.2,19.9,2.8,27.6,1.5c7.2-1.1,11.7-3.7,12.4-7.1c0.3-1.6-0.1-3.2-1.2-5.1c-4.3-6.7-17.4-13.4-32.7-16.8
					c-10-2.2-19.8-2.8-27.6-1.5C522.9,207.9,518.4,210.5,517.6,213.9l-0.3-0.1L517.6,213.9z"/>
			</g>
			<g>
				<path class="st5" d="M571.2,225.7c-2.3,10.4-6.1,19.9-10.6,26.7c-4.8,7.2-10.1,10.6-14.7,9.6c-2.3-0.5-4.3-2-5.8-4.5
					c-4.7-7.4-5.5-22.8-1.9-39c2.3-10.5,6.1-19.9,10.6-26.7c4.8-7.2,10-10.6,14.7-9.5c2.3,0.5,4.3,2,5.9,4.5
					C574,194.1,574.8,209.4,571.2,225.7L571.2,225.7z M540.9,219c-3.4,15.3-2.7,30.1,1.5,36.8c1.2,1.8,2.5,2.9,4,3.2
					c3.4,0.7,7.6-2.3,11.7-8.2c4.4-6.5,8-15.6,10.2-25.7c3.4-15.3,2.8-30.1-1.5-36.8c-1.2-1.8-2.5-2.9-4.1-3.3
					c-3.3-0.7-7.6,2.3-11.6,8.3C546.7,199.8,543.1,208.9,540.9,219l-0.3-0.1L540.9,219z"/>
			</g>
			<g>
				
					<rect x="553.1" y="181.4" transform="matrix(0.2147 -0.9767 0.9767 0.2147 218.7079 716.0168)" class="st5" width="3.1" height="81.1"/>
			</g>
			<g>
				
					<rect x="514" y="220.5" transform="matrix(0.2144 -0.9767 0.9767 0.2144 218.8605 716.1261)" class="st5" width="81.2" height="3.1"/>
			</g>
		</g>
	</g>
	<g>
		<g>
			<g>
				<g>
					<path class="st6" d="M261.4,270.9c0-0.8,0-1.4,0-1.7c0.4-0.1,0.7-0.2,1-0.4c0.5-0.2,0.5-0.4,1,0c0.2,0.2,0.4,0.4,0.6,0.5
						c0.4,0.4,0.9,0.8,1.4,1.2c0,0,1.9,1.7,1.9,1.6c1.1-0.9,2.2-1.8,3.3-2.7c0.3-0.2,0.7-0.5,1.1-0.8c0,0,0.1-0.1,0.1-0.1
						c0,0,0-0.1,0-0.2c-0.2-0.5-1-2.1-1-2.1c-0.4-0.8-0.8-1.6-1.2-2.4c-0.3-0.5-0.1-0.4,0.2-0.9c0.2-0.3,0.4-0.6,0.6-0.9
						c1.4,0.2,2.8,0.5,4.1,0.8c0.2,0,0.3,0,0.5,0.1h0.1c0.5,0.1,0.8,0.3,1-0.2c0.1-0.4,0.3-0.8,0.5-1.2c0.1-0.3,0.3-0.7,0.4-1.1
						c0,0,0-0.1,0.1-0.1c0.3-0.7,0.5-1.3,0.8-2.1c0.3-0.7,0.3-0.6-0.3-1c-1.1-0.8-2.3-1.5-3.3-2.2c-0.4-0.2-0.8-0.3-0.7-0.7
						c0.1-0.3,0.1-0.7,0.2-1c0-0.7,0.3-0.5,0.8-0.7c0.5-0.2,1-0.4,1.5-0.5c0.9-0.3,1.9-0.7,2.8-1.1c0.3-0.1,0-0.8,0-1.2
						c-0.1-1.3-0.3-2.6-0.5-4c0-0.1,0-0.3-0.1-0.5c0-0.2-1.1-0.2-1.2-0.2c-0.9-0.1-1.7-0.1-2.6-0.2c-0.4,0-0.9,0-1.3-0.1
						c-0.6,0-0.6-0.5-0.8-1c-0.2-0.5-0.4-0.5,0-1c0.3-0.3,0.6-0.7,0.9-1c0.6-0.7,1.2-1.3,1.7-2.1c0.2-0.2,1-0.8,0.7-1.1
						c-0.9-1.2-1.8-2.4-2.8-3.6c-0.1-0.2-0.5-0.8-0.7-0.7c-1.1,0.5-2.1,1-3.2,1.5c-0.6,0.3-1.5,1.1-1.9,0.7
						c-0.3-0.2-0.6-0.5-0.9-0.7c-0.4-0.3-0.2-0.5-0.1-1c0.3-1.4,0.5-2.8,0.7-4.2c0.1-0.6,0.1-0.5-0.5-0.8c-0.8-0.3-1.6-0.6-2.4-0.9
						c-0.7-0.3-1.3-0.6-2-0.9c-0.6-0.2-0.6,0.3-1,0.8c-0.9,1.2-1.6,2.5-2.5,3.8c-0.7-0.1-1.7,0-1.9-0.7c-0.3-1-0.7-1.9-1.1-2.9
						c0-0.1-0.7-2-0.7-2c-0.5,0.1-1.1,0.2-1.6,0.2c-0.8,0.1-1.7,0.2-2.4,0.4c-0.3,0.1-1.4,0-1.5,0.3c-0.3,0.2-0.2,2.2-0.2,2.6
						c-0.1,0.9-0.1,1.8-0.2,2.6c0,0.6-0.1,0.5-0.7,0.7c-0.5,0.2-0.8,0.6-1.3,0.2c-1-1-2-1.8-3.1-2.7c-0.4-0.4-0.7-0.9-1.1-0.5
						c-1.3,1-2.5,2-3.7,3c-0.6,0.4-0.6,0.3-0.3,0.9c0.5,1.3,1.2,2.5,1.8,3.8c0.3,0.4,0.5,0.6,0.2,1.1c-0.2,0.3-0.5,0.5-0.6,0.9
						c-0.4,0.5-1.7,0-2.2-0.1c-1.1-0.3-2.2-0.4-3.3-0.6c-0.5-0.1-1.4,3-1.6,3.4c-0.2,0.6-0.4,1.2-0.7,1.8c-0.1,0.4,0.8,0.7,1,0.9
						c0.7,0.5,1.3,0.9,1.9,1.3c0.6,0.4,1.8,0.8,1.7,1.5c-0.1,0.4-0.2,0.7-0.1,1.1c-0.1,0.5-0.3,0.5-0.8,0.6
						c-0.9,0.3-1.7,0.6-2.6,0.9c-0.2,0-1.9,0.7-1.9,0.8c0.1,0.5,0.1,1.1,0.2,1.6c0.1,0.8,0.3,1.7,0.4,2.6c0,0.2,0,1.3,0.2,1.5
						c0.3,0.3,2.2,0.1,2.5,0.1c0.9,0.1,1.7,0.2,2.7,0.2c0.5,0,0.4,0.1,0.7,0.7c0.2,0.5,0.5,0.8,0.2,1.3c-1,1.1-1.9,2.1-2.8,3.2
						c-0.3,0.4-0.8,0.7-0.5,1.2c1,1.2,2,2.5,2.9,3.7c0.4,0.5,0.2,0.5,0.8,0.3c1.1-0.6,2.3-1.1,3.4-1.7c0.4-0.2,0.8-0.4,1.2-0.6
						c0.3,0.3,0.6,0.5,0.8,0.7c0.5,0.4,0.7,0.3,0.6,0.9c-0.1,0.4-0.2,0.8-0.3,1.2c-0.2,1.2-0.4,2.4-0.6,3.6
						c-0.1,0.5,0.2,0.5,0.6,0.6c0.8,0.3,1.5,0.6,2.2,0.9c0.7,0.2,1.4,0.5,2,0.8c0.5,0.2,0.7-0.3,1-0.8c0.8-1.2,1.5-2.3,2.2-3.5
						c0.4-0.5,1.3-0.2,2-0.1c0.3,0.8,0.5,1.6,0.8,2.3c0.3,1,0.6,2,1.1,2.9c0.1,0.3,0.7,0.1,1,0c0.6-0.1,1.2-0.2,1.8-0.3
						c0.9-0.1,1.7-0.3,2.5-0.4C261.2,274.9,261.4,272.6,261.4,270.9z M249,262.3c-3.6-2-6-5.9-6.2-10.1c-0.5-8.9,8.7-15.4,16.8-12.2
						c4.2,1.7,7.1,5.8,7.5,10.4c0.4,3.8-1.2,7.3-3.7,10.1c0,0,0,0.1-0.1,0c-0.1,0.1,0,0.1,0,0c0.1,0.1,0.1,0.1,0.1,0
						C259.5,264.2,253.6,264.9,249,262.3z"/>
					<path class="st6" d="M263.4,250.8c-0.3-3.2-2.3-6.1-5.2-7.3c-5.6-2.3-12.1,2.3-11.7,8.5c0.1,3,1.8,5.7,4.3,7.1
						c3.2,1.8,7.3,1.3,10-1.3c0,0,0,0,0,0c0,0,0.1,0,0.1,0C262.6,255.8,263.6,253.4,263.4,250.8z M258.6,255.3
						C258.6,255.3,258.5,255.3,258.6,255.3C258.5,255.3,258.5,255.3,258.6,255.3c-1.6,1.6-4.2,1.9-6.1,0.8c-1.5-0.8-2.6-2.5-2.6-4.3
						c-0.2-3.8,3.7-6.6,7.2-5.2c1.8,0.7,3,2.4,3.2,4.4C260.3,252.7,259.7,254.2,258.6,255.3z"/>
					<g>
						<path class="st6" d="M247.5,260.9c-0.1-0.1-0.1-0.1-0.1-0.2C247.4,260.8,247.5,260.9,247.5,260.9z"/>
					</g>
				</g>
			</g>
		</g>
	</g>
	<g>
		<g>
			<g>
				<g>
					<path class="st6" d="M230.2,117c0-0.6,0-1,0-1.2c0.2-0.1,0.5-0.1,0.7-0.2c0.3-0.2,0.3-0.3,0.7,0c0.2,0.1,0.3,0.2,0.4,0.4
						c0.3,0.3,0.6,0.5,0.9,0.8c0,0,1.3,1.2,1.3,1.1c0.8-0.7,1.5-1.3,2.3-1.8c0.2-0.2,0.5-0.4,0.7-0.6c0,0,0.1-0.1,0.1-0.1
						c0,0,0,0,0-0.1c-0.1-0.4-0.7-1.5-0.7-1.5c-0.3-0.6-0.5-1.1-0.8-1.7c-0.2-0.3-0.1-0.3,0.2-0.6c0.1-0.2,0.3-0.4,0.4-0.6
						c0.9,0.2,1.9,0.4,2.8,0.5c0.1,0,0.2,0,0.3,0.1h0c0.3,0.1,0.6,0.2,0.7-0.2c0.1-0.3,0.2-0.5,0.3-0.8c0.1-0.2,0.2-0.5,0.3-0.7
						c0,0,0-0.1,0-0.1c0.2-0.5,0.4-0.9,0.5-1.5c0.2-0.5,0.2-0.4-0.2-0.7c-0.8-0.5-1.6-1.1-2.3-1.5c-0.3-0.2-0.6-0.2-0.5-0.5
						c0-0.2,0.1-0.5,0.1-0.7c0-0.5,0.2-0.4,0.5-0.5c0.4-0.1,0.7-0.3,1.1-0.4c0.6-0.2,1.3-0.5,2-0.8c0.2-0.1,0-0.6,0-0.8
						c-0.1-0.9-0.2-1.8-0.4-2.7c0-0.1,0-0.2-0.1-0.4c0-0.2-0.7-0.1-0.9-0.1c-0.6-0.1-1.2-0.1-1.8-0.2c-0.3,0-0.6,0-0.9,0
						c-0.4,0-0.4-0.3-0.6-0.7c-0.1-0.4-0.3-0.4,0-0.7c0.2-0.2,0.4-0.5,0.6-0.7c0.4-0.5,0.8-0.9,1.2-1.4c0.1-0.1,0.7-0.6,0.5-0.8
						c-0.6-0.9-1.2-1.7-1.9-2.5c-0.1-0.1-0.3-0.6-0.5-0.5c-0.7,0.3-1.5,0.7-2.2,1.1c-0.4,0.2-1,0.7-1.3,0.5
						c-0.2-0.1-0.4-0.3-0.6-0.5c-0.3-0.2-0.1-0.4-0.1-0.7c0.2-1,0.4-1.9,0.5-2.9c0-0.4,0.1-0.4-0.3-0.5c-0.6-0.2-1.1-0.4-1.6-0.6
						c-0.5-0.2-0.9-0.4-1.4-0.6c-0.4-0.1-0.4,0.2-0.7,0.6c-0.6,0.9-1.1,1.7-1.7,2.6c-0.5-0.1-1.2,0-1.3-0.5c-0.2-0.7-0.5-1.3-0.7-2
						c0-0.1-0.5-1.4-0.5-1.4c-0.3,0.1-0.8,0.1-1.1,0.2c-0.5,0.1-1.2,0.2-1.7,0.3c-0.2,0-0.9,0-1.1,0.2c-0.2,0.2-0.1,1.5-0.1,1.8
						c-0.1,0.6-0.1,1.2-0.1,1.8c0,0.4-0.1,0.3-0.4,0.5c-0.4,0.2-0.6,0.4-0.9,0.1c-0.7-0.7-1.4-1.3-2.1-1.9c-0.3-0.2-0.5-0.6-0.8-0.4
						c-0.9,0.7-1.7,1.4-2.5,2.1c-0.4,0.3-0.4,0.2-0.2,0.6c0.4,0.9,0.8,1.7,1.2,2.6c0.2,0.3,0.4,0.4,0.1,0.7
						c-0.1,0.2-0.3,0.4-0.4,0.6c-0.3,0.4-1.1,0-1.5-0.1c-0.8-0.2-1.5-0.3-2.3-0.4c-0.4,0-1,2-1.1,2.3c-0.1,0.4-0.3,0.9-0.5,1.3
						c-0.1,0.2,0.5,0.5,0.7,0.6c0.5,0.3,0.9,0.6,1.3,0.9c0.4,0.2,1.2,0.6,1.2,1c-0.1,0.3-0.1,0.5-0.1,0.8c-0.1,0.4-0.2,0.3-0.6,0.4
						c-0.6,0.2-1.2,0.4-1.8,0.7c-0.1,0-1.3,0.4-1.3,0.5c0,0.4,0.1,0.8,0.1,1.1c0.1,0.6,0.2,1.1,0.3,1.8c0,0.1,0,0.9,0.1,1
						c0.2,0.2,1.5,0.1,1.7,0.1c0.6,0,1.2,0.1,1.8,0.1c0.3,0,0.3,0.1,0.5,0.4c0.1,0.3,0.4,0.6,0.2,0.9c-0.7,0.7-1.3,1.4-1.9,2.2
						c-0.2,0.3-0.6,0.5-0.3,0.8c0.7,0.8,1.3,1.7,2,2.6c0.3,0.3,0.2,0.4,0.6,0.2c0.8-0.4,1.6-0.7,2.4-1.2c0.3-0.1,0.5-0.3,0.8-0.4
						c0.2,0.2,0.4,0.3,0.5,0.5c0.3,0.2,0.5,0.2,0.4,0.6c-0.1,0.3-0.2,0.5-0.2,0.8c-0.2,0.8-0.3,1.7-0.4,2.4
						c-0.1,0.4,0.1,0.3,0.4,0.5c0.5,0.2,1,0.4,1.5,0.6c0.5,0.2,0.9,0.4,1.4,0.6c0.4,0.2,0.5-0.2,0.7-0.5c0.5-0.8,1.1-1.6,1.5-2.4
						c0.2-0.4,0.9-0.1,1.4-0.1c0.2,0.5,0.4,1.1,0.6,1.6c0.2,0.7,0.4,1.3,0.7,2c0.1,0.2,0.5,0,0.7,0c0.4-0.1,0.8-0.1,1.3-0.2
						c0.6-0.1,1.2-0.2,1.8-0.3C230.2,119.8,230.2,118.2,230.2,117z M221.7,111.1c-2.5-1.4-4.1-4.1-4.3-7c-0.4-6.1,6-10.6,11.6-8.4
						c2.9,1.2,4.9,4,5.1,7.2c0.2,2.6-0.8,5-2.5,6.9c0,0,0,0-0.1,0c0,0.1,0,0.1,0,0c0.1,0,0.1,0,0.1,0
						C229,112.3,224.9,112.9,221.7,111.1z"/>
					<path class="st6" d="M231.6,103.1c-0.2-2.2-1.6-4.2-3.6-5c-3.9-1.5-8.3,1.6-8.1,5.9c0.1,2,1.2,3.9,2.9,4.9
						c2.2,1.3,5,0.9,6.9-0.9c0,0,0,0,0,0c0,0,0,0,0,0C231.1,106.6,231.8,104.9,231.6,103.1z M228.3,106.3
						C228.3,106.3,228.3,106.3,228.3,106.3C228.3,106.3,228.3,106.3,228.3,106.3c-1.1,1.1-2.9,1.3-4.2,0.5c-1.1-0.6-1.8-1.7-1.8-3
						c-0.1-2.6,2.6-4.5,4.9-3.6c1.2,0.5,2.1,1.7,2.2,3C229.5,104.5,229.1,105.5,228.3,106.3z"/>
					<g>
						<path class="st6" d="M220.7,110.1c-0.1-0.1-0.1-0.1-0.1-0.1C220.6,110,220.7,110.1,220.7,110.1z"/>
					</g>
				</g>
			</g>
		</g>
	</g>
	<g>
		<g>
			<g>
				<g>
					<path class="st6" d="M462.7,162.7c0-0.3,0-0.6,0-0.7c0.1,0,0.3-0.1,0.4-0.2c0.2-0.1,0.2-0.2,0.4,0c0.1,0.1,0.2,0.1,0.3,0.2
						c0.2,0.2,0.4,0.3,0.6,0.4c0,0,0.8,0.6,0.8,0.6c0.4-0.4,0.8-0.8,1.2-1.1c0.1-0.1,0.2-0.2,0.4-0.3c0,0,0,0,0,0c0,0,0,0,0-0.1
						c-0.1-0.2-0.4-0.8-0.4-0.8c-0.2-0.3-0.3-0.6-0.5-0.9c-0.1-0.2-0.1-0.2,0.1-0.3c0.1-0.1,0.1-0.3,0.2-0.4
						c0.5,0.1,1.1,0.1,1.6,0.2c0.1,0,0.1,0,0.2,0l0,0c0.2,0,0.3,0.1,0.4-0.1c0-0.1,0.1-0.3,0.1-0.5c0.1-0.1,0.1-0.3,0.1-0.4
						c0,0,0,0,0,0c0.1-0.3,0.2-0.5,0.2-0.8c0.1-0.3,0.1-0.2-0.1-0.4c-0.4-0.3-0.9-0.5-1.3-0.8c-0.2-0.1-0.3-0.1-0.3-0.3
						c0-0.1,0-0.3,0.1-0.4c0-0.2,0.1-0.2,0.3-0.3c0.2-0.1,0.4-0.2,0.6-0.2c0.3-0.2,0.7-0.3,1.1-0.5c0.1,0,0-0.3,0-0.5
						c-0.1-0.5-0.2-1-0.3-1.5c0-0.1,0-0.1,0-0.2c0-0.1-0.4,0-0.5,0c-0.3,0-0.7,0-1,0c-0.2,0-0.3,0-0.5,0c-0.2,0-0.2-0.2-0.3-0.4
						c-0.1-0.2-0.2-0.2,0-0.4c0.1-0.2,0.2-0.3,0.3-0.4c0.2-0.3,0.4-0.5,0.6-0.8c0.1-0.1,0.3-0.4,0.2-0.5c-0.4-0.5-0.8-0.9-1.2-1.3
						c-0.1-0.1-0.2-0.3-0.3-0.2c-0.4,0.2-0.8,0.4-1.2,0.7c-0.2,0.1-0.6,0.5-0.7,0.3c-0.1-0.1-0.2-0.2-0.4-0.2
						c-0.2-0.1-0.1-0.2-0.1-0.4c0.1-0.5,0.1-1.1,0.2-1.6c0-0.2,0-0.2-0.2-0.3c-0.3-0.1-0.6-0.2-0.9-0.3c-0.3-0.1-0.5-0.2-0.8-0.3
						c-0.2-0.1-0.2,0.2-0.3,0.3c-0.3,0.5-0.6,1-0.9,1.5c-0.3,0-0.7,0-0.7-0.2c-0.2-0.4-0.3-0.7-0.5-1.1c0,0-0.3-0.8-0.3-0.8
						c-0.2,0.1-0.4,0.1-0.6,0.1c-0.3,0.1-0.7,0.1-0.9,0.2c-0.1,0-0.5,0-0.6,0.1c-0.1,0.1,0,0.8,0,1c0,0.3,0,0.7,0,1
						c0,0.2,0,0.2-0.2,0.3c-0.2,0.1-0.3,0.2-0.5,0.1c-0.4-0.3-0.8-0.7-1.3-1c-0.2-0.1-0.3-0.3-0.4-0.2c-0.5,0.4-0.9,0.8-1.4,1.3
						c-0.2,0.2-0.2,0.1-0.1,0.3c0.2,0.5,0.5,1,0.8,1.4c0.1,0.2,0.2,0.2,0.1,0.4c-0.1,0.1-0.2,0.2-0.2,0.4c-0.1,0.2-0.6,0-0.9,0
						c-0.4-0.1-0.9-0.1-1.3-0.2c-0.2,0-0.5,1.2-0.5,1.3c-0.1,0.2-0.1,0.5-0.2,0.7c0,0.1,0.3,0.2,0.4,0.3c0.3,0.2,0.5,0.3,0.8,0.4
						c0.2,0.1,0.7,0.3,0.7,0.5c0,0.2,0,0.3,0,0.4c0,0.2-0.1,0.2-0.3,0.3c-0.3,0.2-0.6,0.3-1,0.4c-0.1,0-0.7,0.3-0.7,0.3
						c0,0.2,0.1,0.4,0.1,0.6c0.1,0.3,0.1,0.6,0.2,1c0,0.1,0,0.5,0.1,0.6c0.1,0.1,0.8,0,1,0c0.3,0,0.7,0,1,0c0.2,0,0.2,0,0.3,0.2
						c0.1,0.2,0.2,0.3,0.1,0.5c-0.3,0.4-0.7,0.9-1,1.3c-0.1,0.2-0.3,0.3-0.2,0.5c0.4,0.5,0.8,0.9,1.2,1.4c0.2,0.2,0.1,0.2,0.3,0.1
						c0.4-0.2,0.9-0.5,1.3-0.7c0.2-0.1,0.3-0.2,0.4-0.3c0.1,0.1,0.2,0.2,0.3,0.2c0.2,0.1,0.3,0.1,0.2,0.3c0,0.2-0.1,0.3-0.1,0.5
						c-0.1,0.5-0.1,0.9-0.2,1.4c0,0.2,0.1,0.2,0.3,0.2c0.3,0.1,0.6,0.2,0.9,0.3c0.3,0.1,0.5,0.2,0.8,0.3c0.2,0.1,0.3-0.1,0.4-0.3
						c0.3-0.5,0.5-0.9,0.8-1.4c0.1-0.2,0.5-0.1,0.7-0.1c0.1,0.3,0.2,0.6,0.4,0.9c0.2,0.4,0.3,0.7,0.5,1.1c0,0.1,0.3,0,0.4,0
						c0.2-0.1,0.5-0.1,0.7-0.2c0.3-0.1,0.7-0.1,1-0.2C462.8,164.3,462.8,163.4,462.7,162.7z M457.8,159.7c-1.4-0.7-2.5-2.1-2.6-3.7
						c-0.4-3.4,3-6.2,6.2-5.1c1.6,0.5,2.9,2.1,3.1,3.8c0.2,1.5-0.3,2.8-1.2,4c0,0,0,0,0,0c0,0,0,0,0,0c0,0,0,0,0,0
						C461.9,160.1,459.6,160.6,457.8,159.7z"/>
					<path class="st6" d="M463,154.9c-0.2-1.2-1-2.3-2.2-2.7c-2.2-0.7-4.6,1.2-4.3,3.6c0.1,1.1,0.8,2.1,1.8,2.6
						c1.3,0.6,2.9,0.3,3.8-0.7c0,0,0,0,0,0c0,0,0,0,0,0C462.8,156.8,463.2,155.9,463,154.9z M461.3,156.8
						C461.3,156.8,461.2,156.8,461.3,156.8C461.2,156.8,461.2,156.8,461.3,156.8c-0.6,0.7-1.6,0.8-2.3,0.5c-0.6-0.3-1.1-0.9-1.1-1.6
						c-0.2-1.4,1.3-2.6,2.6-2.2c0.7,0.2,1.2,0.9,1.3,1.6C461.9,155.7,461.7,156.3,461.3,156.8z"/>
					<g>
						<path class="st6" d="M457.1,159.2C457.1,159.2,457.1,159.2,457.1,159.2C457.1,159.1,457.1,159.2,457.1,159.2z"/>
					</g>
				</g>
			</g>
		</g>
	</g>
	<g>
		<g>
			<g>
				<g>
					<path class="st6" d="M370.6,272.9c0-0.3,0-0.5,0-0.6c0.1,0,0.3-0.1,0.4-0.1c0.2-0.1,0.2-0.2,0.4,0c0.1,0.1,0.1,0.1,0.2,0.2
						c0.2,0.2,0.3,0.3,0.5,0.4c0,0,0.7,0.6,0.7,0.6c0.4-0.3,0.8-0.7,1.2-1c0.1-0.1,0.2-0.2,0.4-0.3c0,0,0,0,0,0c0,0,0,0,0-0.1
						c-0.1-0.2-0.4-0.8-0.4-0.8c-0.1-0.3-0.3-0.6-0.4-0.9c-0.1-0.2,0-0.2,0.1-0.3c0.1-0.1,0.2-0.2,0.2-0.3c0.5,0.1,1,0.2,1.5,0.3
						c0.1,0,0.1,0,0.2,0h0c0.2,0,0.3,0.1,0.4-0.1c0-0.1,0.1-0.3,0.2-0.4c0.1-0.1,0.1-0.3,0.2-0.4c0,0,0,0,0,0
						c0.1-0.2,0.2-0.5,0.3-0.8c0.1-0.2,0.1-0.2-0.1-0.3c-0.4-0.3-0.8-0.6-1.2-0.8c-0.1-0.1-0.3-0.1-0.3-0.3c0-0.1,0.1-0.3,0.1-0.4
						c0-0.2,0.1-0.2,0.3-0.3c0.2-0.1,0.4-0.2,0.6-0.2c0.3-0.1,0.7-0.2,1-0.4c0.1,0,0-0.3,0-0.4c-0.1-0.5-0.1-0.9-0.2-1.4
						c0,0,0-0.1,0-0.2c0-0.1-0.4-0.1-0.5-0.1c-0.3,0-0.6,0-0.9-0.1c-0.2,0-0.3,0-0.5,0c-0.2,0-0.2-0.2-0.3-0.4
						c-0.1-0.2-0.2-0.2,0-0.4c0.1-0.1,0.2-0.2,0.3-0.4c0.2-0.2,0.4-0.5,0.6-0.7c0.1-0.1,0.3-0.3,0.3-0.4c-0.3-0.5-0.7-0.9-1-1.3
						c-0.1-0.1-0.2-0.3-0.3-0.2c-0.4,0.2-0.8,0.4-1.2,0.6c-0.2,0.1-0.5,0.4-0.7,0.3c-0.1-0.1-0.2-0.2-0.3-0.2
						c-0.2-0.1-0.1-0.2,0-0.4c0.1-0.5,0.2-1,0.3-1.5c0-0.2,0-0.2-0.2-0.3c-0.3-0.1-0.6-0.2-0.9-0.3c-0.2-0.1-0.5-0.2-0.7-0.3
						c-0.2-0.1-0.2,0.1-0.3,0.3c-0.3,0.5-0.6,0.9-0.9,1.4c-0.3-0.1-0.6,0-0.7-0.2c-0.1-0.3-0.3-0.7-0.4-1.1c0,0-0.2-0.7-0.3-0.7
						c-0.2,0-0.4,0.1-0.6,0.1c-0.3,0-0.6,0.1-0.9,0.1c-0.1,0-0.5,0-0.6,0.1c-0.1,0.1-0.1,0.8-0.1,0.9c0,0.3,0,0.6-0.1,1
						c0,0.2-0.1,0.2-0.2,0.2c-0.2,0.1-0.3,0.2-0.5,0.1c-0.4-0.3-0.7-0.7-1.1-1c-0.2-0.1-0.3-0.3-0.4-0.2c-0.5,0.4-0.9,0.8-1.3,1.1
						c-0.2,0.1-0.2,0.1-0.1,0.3c0.2,0.5,0.4,0.9,0.7,1.4c0.1,0.1,0.2,0.2,0.1,0.4c-0.1,0.1-0.2,0.2-0.2,0.3c-0.1,0.2-0.6,0-0.8,0
						c-0.4-0.1-0.8-0.2-1.2-0.2c-0.2,0-0.5,1.1-0.6,1.2c-0.1,0.2-0.2,0.4-0.3,0.7c0,0.1,0.3,0.3,0.4,0.3c0.2,0.2,0.5,0.3,0.7,0.5
						c0.2,0.1,0.6,0.3,0.6,0.5c0,0.2-0.1,0.3-0.1,0.4c0,0.2-0.1,0.2-0.3,0.2c-0.3,0.1-0.6,0.2-0.9,0.3c-0.1,0-0.7,0.2-0.7,0.3
						c0,0.2,0,0.4,0.1,0.6c0.1,0.3,0.1,0.6,0.1,1c0,0.1,0,0.5,0.1,0.5c0.1,0.1,0.8,0.1,0.9,0.1c0.3,0,0.6,0.1,1,0.1
						c0.2,0,0.2,0,0.2,0.2c0.1,0.2,0.2,0.3,0.1,0.5c-0.4,0.4-0.7,0.8-1,1.2c-0.1,0.2-0.3,0.2-0.2,0.4c0.4,0.4,0.7,0.9,1.1,1.4
						c0.1,0.2,0.1,0.2,0.3,0.1c0.4-0.2,0.9-0.4,1.2-0.6c0.2-0.1,0.3-0.2,0.4-0.2c0.1,0.1,0.2,0.2,0.3,0.2c0.2,0.1,0.3,0.1,0.2,0.3
						c0,0.1-0.1,0.3-0.1,0.4c-0.1,0.4-0.2,0.9-0.2,1.3c0,0.2,0.1,0.2,0.2,0.2c0.3,0.1,0.5,0.2,0.8,0.3c0.2,0.1,0.5,0.2,0.7,0.3
						c0.2,0.1,0.2-0.1,0.4-0.3c0.3-0.4,0.6-0.8,0.8-1.3c0.1-0.2,0.5-0.1,0.7,0c0.1,0.3,0.2,0.6,0.3,0.8c0.1,0.4,0.2,0.7,0.4,1.1
						c0,0.1,0.2,0,0.4,0c0.2,0,0.4-0.1,0.7-0.1c0.3,0,0.6-0.1,0.9-0.1C370.6,274.3,370.6,273.5,370.6,272.9z M366.1,269.7
						c-1.3-0.7-2.2-2.1-2.3-3.7c-0.2-3.3,3.2-5.6,6.1-4.4c1.5,0.6,2.6,2.1,2.7,3.8c0.1,1.4-0.4,2.6-1.3,3.7c0,0,0,0,0,0c0,0,0,0,0,0
						c0,0,0,0,0,0C370,270.4,367.8,270.7,366.1,269.7z"/>
					<path class="st6" d="M371.4,265.5c-0.1-1.2-0.8-2.2-1.9-2.7c-2.1-0.8-4.4,0.8-4.3,3.1c0,1.1,0.7,2.1,1.6,2.6
						c1.2,0.7,2.7,0.5,3.6-0.5c0,0,0,0,0,0c0,0,0,0,0,0C371.1,267.3,371.4,266.5,371.4,265.5z M369.6,267.2
						C369.6,267.2,369.6,267.2,369.6,267.2C369.6,267.2,369.6,267.2,369.6,267.2c-0.6,0.6-1.5,0.7-2.2,0.3c-0.6-0.3-0.9-0.9-1-1.6
						c-0.1-1.4,1.4-2.4,2.6-1.9c0.6,0.3,1.1,0.9,1.2,1.6C370.2,266.2,370,266.7,369.6,267.2z"/>
					<g>
						<path class="st6" d="M365.6,269.2C365.6,269.2,365.6,269.2,365.6,269.2C365.5,269.2,365.6,269.2,365.6,269.2z"/>
					</g>
				</g>
			</g>
		</g>
	</g>
	<g>
		<path class="st2" d="M541.5,99.4c5.4-1.7,10.7-3.5,16-5.3c5.8-2,9.7-6,11.8-12c1.4-4,0.7-8-1.9-12.1c-2.5-3.8-5.8-6.4-9.8-7.8
			c-11-3.8-18.7,0.6-23.1,13.2l-12.4-4.3c3.3-9.4,8.4-16.1,15.4-20c7.2-4,15.4-4.4,24.4-1.3c7.6,2.6,13.6,7.5,17.9,14.7
			c4.6,7.5,5.7,15,3.1,22.5c-2.6,7.5-7.1,13-13.5,16.3c-5.6,2.1-11.3,4.2-16.9,6.2c-6.2,2.7-10.3,7.1-12.5,13.2l-0.9,2.5l-12.6-4.4
			l0.9-2.5C530.5,109,535.3,102.7,541.5,99.4z M518.4,140.8l4.8-13.9l14.6,5.1l-4.8,13.9L518.4,140.8z"/>
	</g>
	<g>
		<g>
			<g>
				<path class="st2" d="M298.2,223.7c-5.5,0-10.5-3.2-12.8-8.1c-0.2-0.4-0.3-0.8-0.5-1.3c-0.9,0.1-1.7,0.2-2.6,0.2
					c-5.8,0-11.3-3.1-14.2-8.1c-1.4-2.4-2.2-5.1-2.3-7.9c0-0.7,0-1.2,0-1.5c-1.9-0.4-3.5-1.1-5-2c-4.7-3.1-7.5-8.3-7.5-13.8
					c0-3.5,1.1-6.9,3.2-9.7c-4.3-2.8-7-7.7-7-12.8c0-1.5,0.2-3,0.7-4.5c1.2-3.9,3.8-7.1,7.4-9c-0.1-0.4-0.3-0.8-0.4-1.3
					c-0.2-0.8-0.3-1.6-0.4-2.4c-0.3-4.1,1.1-8,3.7-11c2.7-3.1,6.3-4.9,10.4-5.2l0.3,0c-0.1-3.6,1-6.7,3.2-9.2
					c2.3-2.6,5.5-4.2,8.9-4.4c0.3,0,0.6,0,0.9,0l0.3,0c1.6-6.2,7.3-10.6,13.6-10.6c7.8,0,14.1,6.3,14.1,14.1v96.6l-0.2,0
					C311.1,218.6,305.2,223.7,298.2,223.7z M287.7,211.8c0.4,1.5,0.6,1.9,0.8,2.4c1.8,3.7,5.6,6.1,9.7,6.1c5.9,0,10.7-4.8,10.7-10.7
					v-2.2l0,0v-92.2c0-5.9-4.8-10.7-10.7-10.7c-5.3,0-9.9,4-10.6,9.2l-0.2,1.7l-1.7-0.3c-0.5-0.1-1-0.1-1.5-0.1l-0.6,0
					c-5.3,0.4-9.3,5-9,10.3c0,0.4,0.1,0.9,0.2,1.4l0.5,2.3l-2.3-0.2c-0.3,0-0.7,0-1,0c-0.3,0-0.5,0-0.8,0c-3.1,0.2-6,1.6-8.1,4
					c-2.1,2.4-3.1,5.4-2.9,8.5c0,0.6,0.1,1.2,0.3,1.8c0.2,0.9,0.4,1.4,0.8,2.3l0.4,0.8l-1.4,1.4c-3.4,1.4-5.9,4.2-6.9,7.6
					c-0.3,1.1-0.5,2.3-0.5,3.5c0,4.6,2.7,8.8,6.9,10.8l2.2,1l-1.6,1.7c-2.3,2.4-3.6,5.7-3.6,9c0,4.4,2.2,8.5,5.9,10.9
					c1.3,0.7,2.7,1.3,4.2,1.6c0.3,0.1,0.7,0.1,1.1,0.2l1.7,0.2l-0.2,1.7c-0.1,0.8-0.2,1.2-0.2,2.7c0.1,2.2,0.7,4.3,1.8,6.2
					c2.3,4,6.7,6.5,11.3,6.5c1.1,0,2.3-0.1,3.3-0.4l1.6-0.4L287.7,211.8z"/>
			</g>
			<g>
				<path class="st2" d="M285.6,139.3c-4.3,0-8.4-1.9-11.2-5.1c-1.7-2-2.9-4.4-3.3-6.9l-0.1-0.5l0.5-0.1c0.6-0.1,1.1-0.1,1.5-0.1
					c0.2,0,0.4,0,0.6,0c-0.5-3,0.2-6.2,2-8.7l0.8,0.5c-1,1.6-1.6,3.4-1.8,5.3c-0.2,2.9,0.7,5.7,2.7,7.9c2.1,2.4,5.1,3.8,8.3,3.8
					c2.6,0,5.2-0.9,7.2-2.7c0.3-0.3,0.8-0.5,1.2-0.5c0.6,0,1.1,0.2,1.4,0.7c0.7,0.8,0.6,2-0.2,2.7
					C292.6,138.1,289.2,139.3,285.6,139.3z"/>
			</g>
			<g>
				<path class="st2" d="M303.1,151.9c-0.5,0-1-0.2-1.4-0.6c-0.4-0.4-0.6-0.8-0.6-1.3c0-1.1,0.9-1.9,1.9-1.9c3.5,0,6.6-2.6,7.1-6.1
					l0.9,0.1v6.2C308.9,150.7,306.1,151.9,303.1,151.9L303.1,151.9z"/>
			</g>
			<g>
				<path class="st2" d="M305.7,125.7c-0.8,0-1.6-0.6-1.8-1.4c-0.1-0.5-0.1-1,0.1-1.4c0.2-0.4,0.7-0.8,1.2-0.9
					c2.6-0.7,4.5-2.9,5-5.5l0.9,0.1v5.9c-1.5,1.7-3.1,2.7-4.9,3.2L305.7,125.7z"/>
			</g>
			<g>
				<path class="st2" d="M302.9,154.5c-0.5,0-1-0.3-1.3-0.7c-0.3-0.4-0.5-0.9-0.5-1.4c0.1-1.7-1.2-3.2-2.9-3.3c-1-0.1-1.9-1-1.8-2
					c0.1-1,0.9-1.8,1.9-1.8c3.9,0.3,6.8,3.5,6.5,7.3c-0.1,1-0.9,1.8-1.9,1.8H302.9z"/>
			</g>
			<g>
				<path class="st2" d="M291.6,160c-0.7,0-1.3-0.3-1.6-0.9c-1-1.5-2.5-2.6-4.3-3.1c-0.5-0.1-1-0.2-1.6-0.2c-1.3,0-2.6,0.4-3.7,1.1
					c-0.3,0.2-0.7,0.3-1,0.3c-0.7,0-1.3-0.3-1.6-0.9c-0.6-0.9-0.3-2.1,0.6-2.6c1.7-1.1,3.7-1.6,5.7-1.6c0.8,0,1.6,0.1,2.4,0.3
					c2.8,0.6,5.2,2.3,6.7,4.7c0.3,0.4,0.4,0.9,0.3,1.4c-0.1,0.5-0.4,0.9-0.8,1.2C292.3,159.9,291.9,160,291.6,160z"/>
			</g>
			<g>
				<path class="st2" d="M275,196.7c-1.8-0.4-3.3-1.4-4.3-3c-1-1.5-1.3-3.4-0.9-5.1c0.2-0.9,1-1.5,1.9-1.5c1.4,0.3,2.1,1.3,1.9,2.3
					c-0.2,0.8,0,1.6,0.4,2.3c0.4,0.7,1.1,1.1,1.9,1.3c0.5,0.1,0.9,0.4,1.2,0.8c0.3,0.4,0.4,0.9,0.3,1.4c-0.2,0.9-1,1.5-1.9,1.5
					L275,196.7z"/>
			</g>
			<g>
				<path class="st2" d="M276.7,177.1c-1.1-0.1-1.9-0.9-1.8-2c0.1-1.4-0.4-2.8-1.4-3.9c-1-1.1-2.3-1.7-3.7-1.7c-1.1-0.1-1.9-1-1.8-2
					c0.1-1,0.9-1.8,1.9-1.8c2.5,0.1,4.8,1.2,6.4,3c1.7,1.8,2.5,4.1,2.4,6.6C278.6,176.2,277.8,177.1,276.7,177.1L276.7,177.1z"/>
			</g>
			<g>
				<path class="st2" d="M301.3,202.7c-1.7-0.2-3.2-1-4.3-2.3c-0.3-0.4-0.5-0.9-0.4-1.4c0-0.5,0.3-1,0.7-1.3
					c0.3-0.3,0.8-0.4,1.2-0.4c0.6,0,1.1,0.2,1.5,0.7c0.4,0.5,1.1,0.8,1.7,0.9c0,0,0,0,0.1,0c0.8,0,1.4-0.2,1.8-0.6
					c0.4-0.3,0.8-0.4,1.2-0.4c0.6,0,1.1,0.2,1.4,0.7c0.3,0.4,0.5,0.9,0.5,1.4c0,0.5-0.3,1-0.7,1.3c-1.2,1-2.6,1.5-4.1,1.5
					C301.7,202.7,301.5,202.7,301.3,202.7z"/>
			</g>
			<path class="st2" d="M276,171.8c-0.5,0-0.9-0.2-1.3-0.5c-0.6-0.5-0.8-1.3-0.6-2c0.1-0.3,0.2-0.5,0.4-0.7c2.3-2.8,3.4-6,3.2-9.4
				c-0.1-1.6-0.5-3.2-1.2-4.7c-0.8-1.6-1.8-3-3.2-4.2c-2.4-2.1-5.4-3.3-8.6-3.3c-0.3,0-0.6,0-0.8,0c-1.2,0.1-2.6,0.2-3.9,0.7
				l-0.1,0.1h-0.2l-0.3,0.1l-0.1-0.1h-0.2l0-0.4c-0.4-0.8-0.7-1.7-0.9-2.6l-0.1-0.4l0.4-0.1c1.6-0.6,3.3-1,5-1.1c0.4,0,0.7,0,1.1,0
				c4.1,0,8,1.5,11.1,4.2c1.7,1.5,3.1,3.3,4.1,5.4c0.9,1.9,1.5,4,1.6,6.2c0.3,4.1-1,8.2-3.5,11.4l-0.7,0.8
				C277.1,171.6,276.6,171.8,276,171.8z"/>
			<path class="st2" d="M267.6,196.3c-2.2-0.3-4.3-1.1-6.2-2.4l0.5-0.8c1.4,0.8,3,1.4,4.6,1.8c0.4,0.1,0.8,0.2,1.2,0.2l0.5,0.1
				l-0.1,0.9L267.6,196.3z"/>
			<path class="st2" d="M270.1,197.9c-0.8,0-1.7-0.1-2.5-0.2l-0.4-0.1l0-0.4c0-1.2,0-2,0.2-2.7l0.1-0.5l0.5-0.2
				c0.7,0.1,1.4,0.1,2.2,0.1c2.5,0,5-0.6,7.3-1.8c0.4-0.2,0.9-0.5,1.3-0.8c1.7-1.1,3.2-2.5,4.4-4.2c0.4-0.5,0.9-0.8,1.6-0.8
				c0.4,0,0.8,0.1,1.1,0.4c0.9,0.6,1.1,1.8,0.5,2.7c-1.5,2.1-3.3,3.8-5.4,5.2C277.6,196.8,273.9,197.9,270.1,197.9z"/>
			<path class="st2" d="M286.3,213.9c-0.4-0.9-0.7-1.8-0.9-2.7l-0.1-0.5l0.4-0.1c4.3-1.1,7.8-4.2,9.6-8.4c0.8-1.8,1.2-3.8,1.2-5.8
				c0-0.3,0.1-0.5,0.2-0.8c0.3-0.7,1-1.1,1.7-1.1c0.8,0,1.5,0.5,1.8,1.3c0.1,0.2,0.1,0.4,0.1,0.7c0,8.2-5.5,15.5-13.5,17.6l-0.4,0.1
				L286.3,213.9z"/>
			<g>
				<g>
					<path class="st2" d="M293.6,178.9c-0.3,0-0.5-0.1-0.8-0.2c-2-0.9-3.6-2.6-4.3-4.6c-0.8-2.1-0.7-4.3,0.2-6.4
						c0.3-0.7,1-1.1,1.7-1.1c0.3,0,0.6,0.1,0.8,0.2c1,0.4,1.4,1.5,1,2.5c-1,2.3,0,4.9,2.2,5.9c1,0.4,1.4,1.6,1,2.5
						C295,178.5,294.3,178.9,293.6,178.9L293.6,178.9z"/>
				</g>
				<g>
					<path class="st2" d="M290.4,182.7c-0.4,0-0.7-0.1-1-0.3c-0.9-0.5-1.2-1.7-0.7-2.6c0.9-1.6,2.2-2.9,3.6-4
						c2.5-1.9,5.4-2.9,8.5-2.9c0.7,0,1.3,0,2,0.1c3.1,0.4,5.9,1.8,8.1,4l0.1,5.2l-0.9,0.2c-0.3-0.6-0.6-1.1-1-1.6
						c-1.7-2.2-4.1-3.6-6.9-4c-0.5-0.1-1-0.1-1.5-0.1c-2.3,0-4.4,0.7-6.2,2.1c-1.1,0.8-2,1.8-2.6,2.9
						C291.7,182.4,291.1,182.7,290.4,182.7z"/>
				</g>
			</g>
			<g>
				<path class="st2" d="M298.4,137.8c-2.2,0-4.3-0.9-5.8-2.5c-1.5-1.6-2.4-3.7-2.3-5.9c0-1,0.9-1.9,1.9-1.9c0.5,0,1,0.2,1.4,0.6
					c0.4,0.4,0.5,0.8,0.5,1.4c0,1.2,0.4,2.3,1.3,3.2c0.8,0.9,1.9,1.4,3.1,1.4c0.5,0,1,0.2,1.3,0.6c0.4,0.4,0.5,0.9,0.5,1.4
					C300.3,137,299.5,137.8,298.4,137.8L298.4,137.8z"/>
			</g>
		</g>
		<g>
			<g>
				<path class="st2" d="M330.9,223.7c-7,0-13-5.1-14-12l-0.1,0l-0.1-0.6v-96c0-7.8,6.3-14.1,14.1-14.1c6.4,0,12.1,4.4,13.7,10.6
					l0.3,0c0.3,0,0.6,0,0.9,0c3.5,0.2,6.7,1.8,8.9,4.4c2.2,2.6,3.4,5.8,3.2,9.2l0.3,0c4,0.3,7.7,2.1,10.4,5.2c2.7,3,4,6.9,3.7,11
					c0,0.8-0.2,1.6-0.3,2.4c-0.1,0.5-0.2,0.9-0.4,1.3c3.6,1.9,6.2,5.1,7.4,9c0.4,1.4,0.7,3,0.7,4.5c0,5.1-2.6,10-6.9,12.8
					c2.1,2.8,3.2,6.2,3.2,9.7c0,5.6-2.8,10.7-7.4,13.8c-1.6,0.9-3.3,1.6-5.1,2c0,0.4,0,0.8,0.1,1.4c-0.1,2.9-0.9,5.6-2.3,8
					c-2.9,5-8.4,8.1-14.2,8.1c-0.9,0-1.7-0.1-2.6-0.2c-0.2,0.5-0.3,0.9-0.5,1.2C341.3,220.6,336.3,223.7,330.9,223.7z M320.1,208
					v1.6c0,5.9,4.8,10.7,10.8,10.7c4.1,0,7.9-2.4,9.7-6.1c0.2-0.4,0.4-0.9,0.8-2.4l0.5-1.6l1.6,0.4c1.1,0.3,2.2,0.4,3.3,0.4
					c4.6,0,8.9-2.5,11.3-6.5c1.1-1.9,1.7-4,1.8-6.2c0-1.4-0.1-1.8-0.2-2.6l-0.2-1.7l1.7-0.2c0.4-0.1,0.8-0.1,1.1-0.2
					c1.5-0.3,2.9-0.9,4.2-1.6c3.6-2.4,5.8-6.5,5.8-10.9c0-3.4-1.3-6.6-3.6-9l-1.6-1.7l2.1-1c4.2-2,6.9-6.2,6.9-10.8
					c0-1.2-0.2-2.4-0.5-3.5c-1-3.3-3.5-6.1-6.7-7.5l-1.5-1.5l0.4-0.9c0.4-0.9,0.5-1.4,0.8-2.3c0.2-0.6,0.2-1.2,0.3-1.8
					c0.2-3.1-0.8-6.2-2.9-8.5c-2.1-2.4-5-3.8-8.1-4c-0.3,0-0.6,0-0.8,0c-0.3,0-0.7,0-1,0l-2.3,0.2l0.5-2.3c0.1-0.5,0.2-0.9,0.2-1.4
					c0.2-2.6-0.7-5-2.3-7c-1.7-2-4.1-3.1-6.6-3.3l-0.6,0c-0.5,0-1,0-1.5,0.1l-1.7,0.3l-0.2-1.7c-0.7-5.3-5.3-9.2-10.6-9.2
					c-5.9,0-10.7,4.8-10.7,10.7v92.2L320.1,208z"/>
			</g>
			<g>
				<path class="st2" d="M343.4,139.3c-3.6,0-7-1.3-9.7-3.6c-0.8-0.7-0.9-1.9-0.2-2.7c0.4-0.4,0.9-0.7,1.4-0.7
					c0.5,0,0.9,0.2,1.3,0.5c2,1.7,4.5,2.7,7.2,2.7c3.2,0,6.2-1.4,8.3-3.8c1.9-2.2,2.8-5,2.6-8c-0.1-1.9-0.8-3.7-1.8-5.3l0.8-0.5
					c1.8,2.5,2.5,5.7,2,8.7c0.2,0,0.4,0,0.6,0c0.4,0,0.9,0,1.5,0.1l0.5,0.1l-0.1,0.5c-0.5,2.6-1.7,5-3.4,6.9
					C351.8,137.5,347.7,139.3,343.4,139.3z"/>
			</g>
			<g>
				<path class="st2" d="M325.9,151.9c-3,0-5.8-1.2-7.9-3.3l-0.1-6.5l0.9-0.1c0.5,3.5,3.6,6.1,7.1,6.1c1.1,0,1.9,0.9,1.9,1.9
					C327.8,151,327,151.9,325.9,151.9L325.9,151.9z"/>
			</g>
			<g>
				<path class="st2" d="M322.8,125.6c-1.8-0.5-3.4-1.5-4.8-2.9l-0.1-6.2l0.9-0.1c0.5,2.6,2.5,4.8,5,5.5c1,0.3,1.6,1.4,1.3,2.4
					c-0.3,0.8-1,1.4-1.8,1.4L322.8,125.6z"/>
			</g>
			<g>
				<path class="st2" d="M326,154.5c-1,0-1.8-0.8-1.9-1.8c-0.1-1.8,0.5-3.6,1.7-5c1.2-1.4,2.9-2.2,4.7-2.4h0c1.1,0,2,0.8,2,1.8
					c0,0.5-0.1,1-0.5,1.4c-0.3,0.4-0.8,0.6-1.3,0.7c-1.7,0.1-3,1.6-2.9,3.3c0.1,1-0.7,2-1.8,2H326z"/>
			</g>
			<g>
				<path class="st2" d="M337.5,160c-0.4,0-0.7-0.1-1-0.3c-0.4-0.3-0.7-0.7-0.8-1.2c-0.1-0.5,0-1,0.2-1.4c1.5-2.4,3.9-4.1,6.7-4.7
					c0.8-0.2,1.6-0.3,2.4-0.3c2,0,4,0.6,5.7,1.6c0.4,0.3,0.7,0.7,0.8,1.2c0.1,0.5,0,1-0.3,1.4c-0.3,0.5-1,0.9-1.6,0.9
					c-0.4,0-0.7-0.1-1-0.3c-1.1-0.7-2.4-1.1-3.7-1.1c-0.5,0-1,0.1-1.6,0.2c-1.8,0.4-3.3,1.5-4.3,3.1
					C338.7,159.7,338.1,160,337.5,160z"/>
			</g>
			<g>
				<path class="st2" d="M353.7,196.7c-0.9,0-1.7-0.6-1.9-1.5c-0.2-1,0.4-2,1.5-2.3c0.8-0.2,1.4-0.6,1.9-1.3
					c0.4-0.7,0.6-1.5,0.4-2.3c-0.2-1,0.4-2,1.5-2.3c0,0,0.1,0,0.1,0c1.2,0,2,0.6,2.1,1.5c0.4,1.8,0.1,3.6-0.9,5.1
					c-1,1.5-2.5,2.6-4.3,3L353.7,196.7z"/>
			</g>
			<g>
				<path class="st2" d="M352.3,177.1c-1,0-1.9-0.8-1.9-1.8c-0.1-2.5,0.8-4.8,2.4-6.6c1.7-1.8,3.9-2.9,6.3-3c1.1,0,2,0.8,2,1.8
					c0,1-0.8,1.9-1.8,2c-1.4,0.1-2.8,0.7-3.7,1.7c-1,1.1-1.5,2.4-1.4,3.9C354.2,176.1,353.4,177,352.3,177.1L352.3,177.1z"/>
			</g>
			<g>
				<path class="st2" d="M327.1,202.7c-1.5,0-2.9-0.5-4.1-1.5c-0.8-0.7-0.9-1.9-0.2-2.7c0.4-0.4,0.9-0.7,1.5-0.7
					c0.4,0,0.9,0.2,1.2,0.4c0.5,0.4,1.1,0.6,1.7,0.6c0.9-0.1,1.5-0.4,2-0.9c0.3-0.4,0.9-0.7,1.5-0.7c0.5,0,0.9,0.2,1.2,0.4
					c0.8,0.7,0.9,1.9,0.2,2.7c-1.1,1.3-2.6,2.1-4.3,2.3C327.5,202.7,327.3,202.7,327.1,202.7z"/>
			</g>
			<path class="st2" d="M353,171.8c-0.6,0-1.1-0.2-1.4-0.7l-0.4-0.5c-2.8-3.6-4-7.6-3.8-11.7c0.1-2.2,0.7-4.3,1.6-6.2
				c1-2,2.3-3.8,4.1-5.4c3.1-2.7,7-4.2,11.1-4.2c0.4,0,0.7,0,1.1,0c1.7,0.1,3.4,0.5,5,1.1l0.4,0.1l-0.1,0.4
				c-0.2,0.8-0.5,1.6-0.8,2.4l0,0l-0.3,0.5l-1.1,0l0.1-0.2c-1.2-0.4-2.4-0.5-3.5-0.6c-0.3,0-0.6,0-0.9,0c-3.1,0-6.2,1.2-8.6,3.3
				c-1.4,1.2-2.4,2.6-3.2,4.2c-0.7,1.4-1.1,3-1.2,4.7c-0.2,3.4,0.8,6.6,3,9.2c0.3,0.4,0.5,0.6,0.6,0.9c0.2,0.8,0,1.5-0.6,2
				C353.9,171.6,353.5,171.8,353,171.8z"/>
			<path class="st2" d="M360.9,195.8l-0.3-0.6l0.6-0.1c0.4-0.1,0.8-0.1,1.2-0.2c1.6-0.4,3.2-0.9,4.6-1.8l0.5,0.8
				c-1.9,1.2-3.9,2-6.1,2.4l-0.4,0.1L360.9,195.8z"/>
			<path class="st2" d="M358.9,197.9c-3.8,0-7.4-1.1-10.6-3.2c-2.1-1.4-4-3.1-5.4-5.2c-0.3-0.4-0.4-0.9-0.3-1.4
				c0.1-0.5,0.4-0.9,0.8-1.2c0.3-0.2,0.7-0.4,1.1-0.4c0.6,0,1.2,0.3,1.6,0.8c1.2,1.7,2.6,3.1,4.4,4.2c0.4,0.3,0.9,0.5,1.3,0.8
				c2.2,1.1,4.8,1.8,7.3,1.8c0.7,0,1.4,0,2.2-0.1l0.4-0.1l0.1,0.4c0.2,1,0.2,1.8,0.2,2.5v0.4l-0.4,0.5
				C360.6,197.9,359.7,197.9,358.9,197.9L358.9,197.9z"/>
			<path class="st2" d="M342.2,214.1c-7.9-2.2-13.5-9.4-13.5-17.6c0-0.3,0.1-0.5,0.1-0.7c0.3-0.8,1-1.3,1.8-1.3
				c0.8,0,1.4,0.4,1.7,1.1c0.1,0.2,0.2,0.5,0.2,0.8c0,2,0.4,3.9,1.2,5.8c1.7,4.1,5.3,7.2,9.6,8.4l0.4,0.1l-0.1,0.4
				c-0.2,0.9-0.5,1.8-0.9,2.7l-0.2,0.4L342.2,214.1z"/>
			<g>
				<g>
					<path class="st2" d="M335.4,178.9c-0.8,0-1.4-0.4-1.7-1.1c-0.4-1,0-2.1,0.9-2.5c2.3-1,3.2-3.7,2.2-5.9c-0.2-0.5-0.2-1-0.1-1.5
						c0.2-0.5,0.5-0.9,1-1.1c0.2-0.1,0.5-0.2,0.8-0.2c0.8,0,1.4,0.5,1.7,1.1c0.9,2,1,4.3,0.2,6.3c-0.8,2.1-2.3,3.7-4.3,4.6
						C336,178.8,335.7,178.9,335.4,178.9z"/>
				</g>
				<g>
					<path class="st2" d="M338.6,182.7c-0.7,0-1.3-0.3-1.6-0.9c-0.7-1.1-1.6-2.1-2.6-2.9c-1.8-1.4-4-2.1-6.2-2.1c-0.5,0-1,0-1.5,0.1
						c-2.7,0.4-5.2,1.8-6.9,4c-0.4,0.5-0.7,1.1-1,1.6l-0.9-0.2v-4.9c2.3-2.5,5.1-3.9,8.2-4.4c0.7-0.1,1.3-0.1,2-0.1
						c3.1,0,6,1,8.5,2.9c1.5,1.1,2.7,2.4,3.6,4c0.3,0.4,0.3,1,0.2,1.5c-0.1,0.5-0.4,0.9-0.9,1.2
						C339.3,182.6,338.9,182.7,338.6,182.7z"/>
				</g>
			</g>
			<g>
				<path class="st2" d="M330.6,137.8c-1,0-1.9-0.8-1.9-1.9c0-1.1,0.8-1.9,1.9-2c1.2,0,2.3-0.5,3.1-1.4c0.8-0.9,1.3-2,1.2-3.2
					c0-0.5,0.2-1,0.5-1.4c0.4-0.4,0.8-0.6,1.3-0.6c1.1,0,1.9,0.8,1.9,1.9c0.1,2.2-0.8,4.3-2.3,5.9
					C334.9,136.9,332.8,137.8,330.6,137.8L330.6,137.8L330.6,137.8z"/>
			</g>
		</g>
	</g>
	<g>
		<g>
			<g>
				<path class="st3" d="M264.2,70.4c-0.2-0.3-2.3-0.7-2.5-0.9c-1.1-4.1-2.5-6.3-4.2-9.4c-2.5-4.4-3.1-8.3-6.5-13.1
					c-4.4-6.2-5.3-14.4-2.3-20.9c2.7-6,8.7-9.8,16.7-10.6c8.1-0.8,14.7,1.7,18.6,7c4.2,5.8,5,14,1.9,21c-2.4,5.5-3.4,9.5-4.9,14.3
					c-1,3.3-1,6.2-1.3,10.4c-0.2,0.2-1.9,0.7-2,1L264.2,70.4z"/>
				<g>
					<g>
						<path class="st7" d="M280.4,68l-2.2,0.2c-0.2-1.7,0.2-2.4,0.8-3.1c0.3-0.3,0.4-0.5,0.5-1.3c0.2-3.3,0.8-5.4,1.6-7.9
							c1.2-3.7,2.5-7,4.5-11.4c2.9-6.7,2.2-14.6-1.9-20.2c-3.9-5.3-10.3-7.8-18.1-7l-0.2-2.2c8.6-0.9,15.7,2,20,7.9
							c4.5,6.2,5.4,15,2.1,22.4c-1.9,4.3-3.2,7.6-4.4,11.2c-0.8,2.4-1.3,4.4-1.5,7.4c-0.1,1.5-0.6,2.1-0.9,2.5
							C280.5,66.8,280.3,67,280.4,68z"/>
					</g>
				</g>
				<g>
					<g>
						<path class="st7" d="M263.3,69.5l-2.2,0.2c-0.1-1-0.2-1.1-0.5-1.3c-0.5-0.4-1-0.9-1.4-2.2c-0.7-2.9-1.7-4.7-2.9-6.9
							c-1.9-3.3-3.8-6.2-6.5-10.1c-4.6-6.6-5.6-15.4-2.4-22.4c3.1-6.7,9.5-10.9,18-11.8l0.2,2.2c-7.8,0.8-13.5,4.5-16.3,10.5
							c-2.9,6.3-2,14.2,2.2,20.2c2.8,3.9,4.7,6.9,6.6,10.2c1.3,2.4,2.3,4.3,3.1,7.5c0.2,0.7,0.3,0.8,0.6,1.1
							C262.6,67.3,263.2,67.8,263.3,69.5z"/>
					</g>
				</g>
				<g>
					<g>
						<polygon class="st7" points="265.9,69.5 259.4,43.3 261,42.9 267.5,69.1 						"/>
					</g>
					<g>
						
							<rect x="262" y="54.2" transform="matrix(4.456197e-02 -0.999 0.999 4.456197e-02 208.2684 327.7695)" class="st7" width="27" height="1.6"/>
					</g>
					<g>
						<path class="st7" d="M261.7,44.5c-0.4,0-0.8,0-1.1-0.2l-3.2-1.3c-0.4-0.2-0.6-0.7-0.4-1.1c0.2-0.4,0.7-0.6,1.1-0.4l3.1,1.3
							c0.2,0.1,0.6,0,0.8-0.1l1.4-1.2c0.7-0.6,1.8-0.7,2.5-0.4l2.1,1c0.2,0.1,0.6,0,0.8-0.1l1.4-1.2c0.7-0.6,1.8-0.7,2.5-0.2
							l1.6,0.9c0.2,0.1,0.6,0.1,0.8,0l2.7-2c0.4-0.3,0.9-0.2,1.1,0.2c0.3,0.4,0.2,0.9-0.2,1.1l-2.7,2c-0.7,0.5-1.8,0.6-2.5,0.2
							l-1.6-0.9c-0.2-0.1-0.5-0.1-0.7,0.1l-1.4,1.2c-0.7,0.6-1.8,0.7-2.5,0.4l-2-1c-0.2-0.1-0.6,0-0.7,0.1l-1.4,1.2
							C262.7,44.3,262.2,44.4,261.7,44.5z"/>
					</g>
				</g>
				<g>
					<polygon class="st7" points="280.6,69 261.2,71 260.9,68.8 280.4,66.8 					"/>
				</g>
			</g>
			<g>
				<g>
					<polygon class="st7" points="279.3,72.3 263,74 262.8,71.9 279.2,70.3 					"/>
				</g>
				<g>
					<polygon class="st7" points="279.5,75.5 263.2,77.1 263,75.1 279.3,73.5 					"/>
				</g>
				<g>
					<path class="st7" d="M273.6,83l-2.7,0.3c-2.1,0.2-3.9-0.9-4.1-2.6l-0.2-1.9l2.2-0.2l0.2,1.9c0,0.3,0.7,0.7,1.7,0.6l2.7-0.3
						c1.1-0.1,1.5-0.7,1.5-0.8l-0.2-1.7l2.2-0.2l0.2,1.7C277.3,81.3,275.7,82.7,273.6,83z"/>
				</g>
				<path class="st7" d="M278.2,67.3l0.6,7c0.1,1-0.7,2-1.7,2.1l-11,1.1c-1,0.1-2-0.7-2.1-1.8l-0.9-7l-2.2,0.3l0.9,7
					c0.3,2.2,2.2,3.8,4.4,3.7l11.2-1.1c2.1-0.3,3.8-2.3,3.6-4.5l-0.6-7.1L278.2,67.3z"/>
			</g>
		</g>
		<g>
			<g>
				<path class="st7" d="M265.2,13.3c-0.6,0.1-1.1-0.4-1.2-1l-0.6-6.1c-0.1-0.6,0.4-1.1,1-1.2c0.6-0.1,1.1,0.4,1.2,1l0.6,6.1
					C266.2,12.7,265.8,13.2,265.2,13.3z"/>
			</g>
			<g>
				<path class="st7" d="M276.6,13.9c-0.2,0-0.3,0-0.5-0.1c-0.6-0.2-0.8-0.8-0.6-1.4l2.2-5.7c0.2-0.6,0.8-0.8,1.4-0.6
					c0.6,0.2,0.8,0.8,0.6,1.4l-2.2,5.7C277.4,13.6,277,13.9,276.6,13.9z"/>
			</g>
			<g>
				<path class="st7" d="M286.7,20.2c-0.3,0-0.7-0.1-0.9-0.4c-0.4-0.4-0.4-1.1,0.1-1.5l4.6-4.1c0.5-0.4,1.1-0.3,1.5,0.1
					c0.4,0.5,0.4,1.1-0.1,1.5l-4.6,4.1C287.1,20.1,286.9,20.2,286.7,20.2z"/>
			</g>
			<g>
				<path class="st7" d="M292,30.9c-0.5,0.1-1-0.3-1.2-0.8c-0.1-0.6,0.2-1.2,0.8-1.3l6-1.5c0.6-0.2,1.2,0.2,1.3,0.8
					c0.2,0.6-0.2,1.2-0.8,1.3l-5.9,1.5C292.1,30.9,292.1,30.9,292,30.9z"/>
			</g>
			<g>
				<path class="st7" d="M298.3,44.1c-0.1,0-0.2,0-0.3,0l-6-1.3c-0.6-0.1-0.9-0.7-0.8-1.3c0.1-0.6,0.7-0.9,1.3-0.8l6,1.3
					c0.6,0.1,0.9,0.7,0.8,1.3C299.2,43.7,298.8,44.1,298.3,44.1z"/>
			</g>
			<g>
				<path class="st7" d="M254.2,16.2c-0.4,0-0.8-0.1-1-0.5l-3.3-5.2c-0.3-0.5-0.2-1.2,0.3-1.5c0.5-0.3,1.2-0.2,1.5,0.3l3.3,5.2
					c0.3,0.5,0.2,1.2-0.3,1.5C254.5,16.1,254.3,16.2,254.2,16.2z"/>
			</g>
			<g>
				<path class="st7" d="M245.6,24.4c-0.2,0-0.4,0-0.7-0.1l-5.3-3.1c-0.5-0.3-0.7-1-0.4-1.5c0.3-0.5,1-0.7,1.5-0.4l5.3,3.1
					c0.5,0.3,0.7,1,0.4,1.5C246.2,24.1,245.9,24.3,245.6,24.4z"/>
			</g>
			<g>
				<path class="st7" d="M242.5,35.9c-0.1,0-0.1,0-0.2,0l-6.1-0.3c-0.6,0-1.1-0.5-1-1.1c0-0.6,0.5-1.1,1.1-1l6.1,0.3
					c0.6,0,1,0.5,1,1.1C243.4,35.4,243,35.8,242.5,35.9z"/>
			</g>
			<g>
				<path class="st7" d="M239,50.1c-0.5,0.1-0.9-0.2-1.1-0.6c-0.2-0.5,0-1.2,0.5-1.4l5.6-2.5c0.5-0.2,1.2,0,1.4,0.6
					c0.2,0.5,0,1.2-0.6,1.4l-5.6,2.5C239.2,50.1,239.1,50.1,239,50.1z"/>
			</g>
		</g>
	</g>
	<path class="st1" d="M40.9,321.6c0.2-2.4,1.4-4.8,3.5-6.4c1.9-1.5,4.3-2.1,6.5-1.9c2.4-3.1,6-5,10.1-5c5.6,0,10.3,3.7,12.2,8.8
		c5.2,0.8,9.1,4.9,9.1,9.8c0,5.5-4.8,10.1-10.8,10.1l-28.8,0.1v-0.1c-0.4,0.1-0.9,0.1-1.3,0.1c-4.5,0-8.1-3.4-8.1-7.7
		C33.2,325.2,36.7,321.9,40.9,321.6z"/>
	<g>
		<g>
			<path class="st6" d="M331.6,380.3C331.6,380.3,331.6,380.3,331.6,380.3c-1.2,0-2.1-1-2-2.1c0-0.2,0-0.5,0-0.7
				c0.1-1.1,1-2,2.1-1.9c1.1,0.1,2,1,1.9,2.1l0,0.6C333.6,379.4,332.7,380.3,331.6,380.3z"/>
		</g>
		<g>
			<path class="st6" d="M332.6,373c-0.2,0-0.3,0-0.5-0.1c-1.1-0.3-1.8-1.3-1.5-2.4c0.1-0.5,0.2-0.9,0.3-1.4c0.3-1.1,1.4-1.7,2.5-1.4
				c1.1,0.3,1.7,1.4,1.4,2.5c-0.1,0.4-0.2,0.8-0.3,1.2C334.4,372.3,333.5,373,332.6,373z M335.2,365.4c-0.3,0-0.6-0.1-0.8-0.2
				c-1-0.5-1.5-1.7-1-2.7c0.2-0.4,0.4-0.8,0.6-1.3c0.5-1,1.7-1.4,2.7-0.9c1,0.5,1.4,1.7,0.9,2.7c-0.2,0.4-0.4,0.8-0.5,1.2
				C336.7,364.9,336,365.4,335.2,365.4z M339.1,358.4c-0.4,0-0.8-0.1-1.1-0.3c-0.9-0.6-1.2-1.9-0.6-2.8c0.3-0.4,0.5-0.8,0.8-1.1
				c0.6-0.9,1.9-1.2,2.8-0.5c0.9,0.6,1.1,1.9,0.5,2.8c-0.2,0.4-0.5,0.7-0.7,1.1C340.4,358.1,339.8,358.4,339.1,358.4z M344,352
				c-0.5,0-0.9-0.2-1.3-0.5c-0.8-0.7-0.9-2-0.2-2.9c0.3-0.4,0.6-0.7,0.9-1c0.7-0.8,2-0.9,2.9-0.2c0.8,0.7,0.9,2,0.2,2.9
				c-0.3,0.3-0.6,0.7-0.9,1C345.1,351.7,344.6,352,344,352z M349.5,346.2c-0.5,0-1.1-0.2-1.5-0.6c-0.8-0.8-0.7-2.1,0.1-2.9
				c0.3-0.3,0.7-0.6,1-0.9c0.8-0.8,2.1-0.7,2.9,0.1c0.8,0.8,0.7,2.1-0.1,2.9c-0.3,0.3-0.6,0.6-1,0.9
				C350.6,346,350,346.2,349.5,346.2z M355.6,340.9c-0.6,0-1.2-0.3-1.6-0.8c-0.7-0.9-0.6-2.1,0.3-2.8c0.4-0.3,0.7-0.6,1.1-0.9
				c0.9-0.7,2.2-0.5,2.8,0.3c0.7,0.9,0.5,2.2-0.3,2.8c-0.3,0.3-0.7,0.5-1,0.8C356.5,340.7,356.1,340.9,355.6,340.9z M362,336
				c-0.6,0-1.3-0.3-1.7-0.9c-0.6-0.9-0.4-2.2,0.5-2.8l1.1-0.8c0.9-0.6,2.2-0.4,2.8,0.5c0.6,0.9,0.4,2.2-0.5,2.8l-1.1,0.8
				C362.8,335.9,362.4,336,362,336z M368.8,331.6c-0.7,0-1.3-0.3-1.7-1c-0.6-1-0.3-2.2,0.7-2.8l1.2-0.7c1-0.6,2.2-0.3,2.8,0.7
				c0.6,1,0.3,2.2-0.7,2.8l-1.1,0.7C369.5,331.5,369.1,331.6,368.8,331.6z M375.7,327.6c-0.7,0-1.4-0.4-1.8-1.1
				c-0.5-1-0.2-2.2,0.8-2.8l1.2-0.6c1-0.5,2.2-0.2,2.7,0.8c0.5,1,0.2,2.2-0.8,2.7l-1.2,0.6C376.4,327.5,376.1,327.6,375.7,327.6z
				 M382.9,323.9c-0.8,0-1.5-0.4-1.8-1.1c-0.5-1-0.1-2.2,0.9-2.7l1.2-0.6c1-0.5,2.2-0.1,2.7,0.9c0.5,1,0.1,2.2-1,2.7l-1.2,0.6
				C383.5,323.8,383.2,323.9,382.9,323.9z M390.2,320.6c-0.8,0-1.5-0.5-1.9-1.2c-0.4-1,0-2.2,1.1-2.7l1.2-0.5c1-0.4,2.2,0.1,2.7,1.1
				c0.4,1-0.1,2.2-1.1,2.7l-1.2,0.5C390.7,320.5,390.5,320.6,390.2,320.6z M397.7,317.6c-0.8,0-1.6-0.5-1.9-1.3
				c-0.4-1,0.1-2.2,1.2-2.6l1.3-0.5c1.1-0.4,2.2,0.2,2.6,1.2c0.4,1.1-0.2,2.2-1.2,2.6l-1.2,0.5C398.2,317.5,397.9,317.6,397.7,317.6
				z M405.3,315.1c-0.9,0-1.7-0.6-2-1.5c-0.3-1.1,0.4-2.2,1.4-2.5c0.4-0.1,0.9-0.2,1.3-0.3c1.1-0.3,2.2,0.4,2.5,1.5
				c0.3,1.1-0.4,2.2-1.5,2.5c-0.4,0.1-0.8,0.2-1.3,0.3C405.7,315.1,405.5,315.1,405.3,315.1z M413.2,313.4c-1,0-1.8-0.7-2-1.7
				c-0.2-1.1,0.5-2.2,1.7-2.3c0.4-0.1,0.9-0.2,1.4-0.2c1.1-0.2,2.1,0.6,2.3,1.7c0.2,1.1-0.6,2.1-1.7,2.3c-0.4,0.1-0.9,0.1-1.3,0.2
				C413.4,313.4,413.3,313.4,413.2,313.4z M421.1,312.3c-1,0-1.9-0.8-2-1.8c-0.1-1.1,0.7-2.1,1.8-2.2l1.3-0.1
				c1.1-0.1,2.1,0.7,2.2,1.8c0.1,1.1-0.7,2.1-1.8,2.2l-1.3,0.1C421.3,312.3,421.2,312.3,421.1,312.3z M429.2,311.6
				c-1.1,0-1.9-0.8-2-1.9c-0.1-1.1,0.8-2.1,1.9-2.2l1.3-0.1c1.1-0.1,2.1,0.8,2.2,1.9c0.1,1.1-0.8,2.1-1.9,2.2l-1.3,0.1
				C429.3,311.6,429.2,311.6,429.2,311.6z M437.2,311.1c-1.1,0-2-0.8-2-1.9c-0.1-1.1,0.8-2.1,1.9-2.1l1.3-0.1
				c1.1-0.1,2.1,0.8,2.2,1.9c0.1,1.1-0.8,2.1-1.9,2.1l-1.3,0.1C437.3,311.1,437.2,311.1,437.2,311.1z M445.2,310.5
				c-1,0-1.9-0.8-2-1.9c-0.1-1.1,0.7-2.1,1.9-2.2l1.3-0.1c1.1-0.1,2.1,0.7,2.2,1.8c0.1,1.1-0.7,2.1-1.8,2.2l-1.4,0.1
				C445.3,310.5,445.3,310.5,445.2,310.5z M453.2,309.7c-1,0-1.9-0.7-2-1.8c-0.1-1.1,0.6-2.1,1.7-2.3l1.3-0.2
				c1.1-0.2,2.1,0.6,2.3,1.7c0.2,1.1-0.6,2.1-1.7,2.3l-1.3,0.2C453.4,309.7,453.3,309.7,453.2,309.7z M461.2,308.4
				c-0.9,0-1.8-0.7-2-1.6c-0.2-1.1,0.5-2.2,1.6-2.4c0.4-0.1,0.9-0.2,1.3-0.3c1.1-0.3,2.2,0.4,2.4,1.5c0.2,1.1-0.4,2.2-1.5,2.4
				c-0.4,0.1-0.9,0.2-1.3,0.3C461.4,308.4,461.3,308.4,461.2,308.4z M468.9,306.3c-0.9,0-1.6-0.5-1.9-1.4c-0.4-1.1,0.2-2.2,1.3-2.6
				c0.4-0.1,0.8-0.3,1.2-0.4c1.1-0.4,2.2,0.2,2.6,1.2c0.4,1.1-0.2,2.2-1.2,2.6c-0.4,0.2-0.9,0.3-1.3,0.4
				C469.4,306.3,469.1,306.3,468.9,306.3z M476.4,303.4c-0.8,0-1.5-0.4-1.8-1.2c-0.5-1,0-2.2,1-2.7c0.4-0.2,0.8-0.4,1.2-0.6
				c1-0.5,2.2-0.1,2.7,1c0.5,1,0.1,2.2-1,2.7c-0.4,0.2-0.8,0.4-1.2,0.6C477,303.3,476.7,303.4,476.4,303.4z M483.5,299.7
				c-0.7,0-1.4-0.4-1.8-1c-0.6-1-0.2-2.2,0.8-2.8c0.4-0.2,0.8-0.4,1.1-0.7c1-0.6,2.2-0.2,2.8,0.7c0.6,1,0.2,2.2-0.7,2.8
				c-0.4,0.2-0.8,0.5-1.2,0.7C484.2,299.6,483.9,299.7,483.5,299.7z M490.4,295.4c-0.7,0-1.3-0.3-1.7-0.9c-0.6-0.9-0.4-2.2,0.6-2.8
				c0.4-0.2,0.7-0.5,1.1-0.7c0.9-0.6,2.2-0.4,2.8,0.5c0.6,0.9,0.4,2.2-0.5,2.8c-0.4,0.3-0.7,0.5-1.1,0.8
				C491.2,295.3,490.8,295.4,490.4,295.4z M496.9,290.8c-0.6,0-1.2-0.3-1.6-0.8c-0.7-0.9-0.5-2.2,0.4-2.8l1.1-0.8
				c0.9-0.7,2.2-0.5,2.8,0.4c0.7,0.9,0.5,2.2-0.4,2.8l-1.1,0.8C497.8,290.6,497.4,290.8,496.9,290.8z M503.2,285.7
				c-0.6,0-1.1-0.2-1.5-0.7c-0.7-0.9-0.6-2.1,0.2-2.9c0.3-0.3,0.7-0.6,1-0.9c0.8-0.7,2.1-0.6,2.9,0.2c0.7,0.8,0.6,2.1-0.2,2.9
				c-0.3,0.3-0.7,0.6-1,0.9C504.1,285.5,503.7,285.7,503.2,285.7z M509.2,280.3c-0.5,0-1.1-0.2-1.5-0.6c-0.8-0.8-0.7-2.1,0.1-2.9
				c0.3-0.3,0.6-0.6,1-0.9c0.8-0.8,2.1-0.8,2.9,0.1c0.8,0.8,0.7,2.1-0.1,2.9c-0.3,0.3-0.7,0.6-1,0.9
				C510.2,280.2,509.7,280.3,509.2,280.3z M514.9,274.7c-0.5,0-1-0.2-1.4-0.6c-0.8-0.8-0.8-2.1-0.1-2.9c0.3-0.3,0.6-0.6,0.9-0.9
				c0.8-0.8,2-0.9,2.9-0.1c0.8,0.8,0.9,2.1,0.1,2.9c-0.3,0.3-0.6,0.7-0.9,1C516,274.5,515.5,274.7,514.9,274.7z"/>
		</g>
		<g>
			<path class="st6" d="M520.3,268.7c-0.5,0-0.9-0.2-1.3-0.5c-0.8-0.7-0.9-2-0.2-2.9l0.4-0.5c0.7-0.8,2-0.9,2.9-0.2
				c0.9,0.7,0.9,2,0.2,2.9l-0.4,0.5C521.5,268.5,520.9,268.7,520.3,268.7z"/>
		</g>
	</g>
	<g>
		<path class="st6" d="M316.5,398c-1.1,0-2-0.9-2-2l0-1.4c0-1.1,0.9-2,2-2.1c0,0,0,0,0,0c1.1,0,2,0.9,2,2l0,1.4
			C318.6,397.1,317.7,398,316.5,398C316.6,398,316.6,398,316.5,398z M316.4,389.9c-1.1,0-2-0.9-2-2l0-1.4c0-1.1,0.9-2,2-2.1
			c1.2-0.1,2,0.9,2.1,2l0,1.4C318.4,389,317.6,389.9,316.4,389.9C316.4,389.9,316.4,389.9,316.4,389.9z M316.3,381.8
			c-1.1,0-2-0.9-2-2l0-1.4c0-1.1,0.9-2,2-2.1c0,0,0,0,0,0c1.1,0,2,0.9,2,2l0,1.4C318.3,380.9,317.4,381.8,316.3,381.8
			C316.3,381.8,316.3,381.8,316.3,381.8z M316.1,373.7c-1.1,0-2-0.9-2-2l0-1.4c0-1.1,0.9-2,2-2.1c0,0,0,0,0,0c1.1,0,2,0.9,2,2l0,1.4
			C318.2,372.8,317.3,373.7,316.1,373.7C316.1,373.7,316.1,373.7,316.1,373.7z M316,365.6c-1.1,0-2-0.9-2-2l0-1.4c0-1.1,0.9-2,2-2.1
			c1.1-0.1,2,0.9,2.1,2l0,1.4C318,364.7,317.1,365.6,316,365.6C316,365.6,316,365.6,316,365.6z M315.8,357.5c-1.1,0-2-0.9-2-2l0-1.4
			c0-1.1,0.9-2,2-2.1c0,0,0,0,0,0c1.1,0,2,0.9,2,2l0,1.4C317.9,356.6,317,357.5,315.8,357.5C315.9,357.5,315.8,357.5,315.8,357.5z
			 M315.7,349.4c-1.1,0-2-0.9-2-2l0-1.4c0-1.1,0.9-2,2-2.1c0,0,0,0,0,0c1.1,0,2,0.9,2,2l0,1.3C317.7,348.4,316.8,349.4,315.7,349.4
			C315.7,349.4,315.7,349.4,315.7,349.4z M315.5,341.3c-1.1,0-2-0.9-2-2l0-1.4c0-1.1,0.9-2,2-2.1c1.1,0,2,0.9,2.1,2l0,1.4
			C317.6,340.3,316.7,341.3,315.5,341.3C315.6,341.3,315.6,341.3,315.5,341.3z M315.4,333.2c-1.1,0-2-0.9-2-2l0-1.4
			c0-1.1,0.9-2,2-2.1c0,0,0,0,0,0c1.1,0,2,0.9,2,2l0,1.4C317.5,332.2,316.6,333.2,315.4,333.2C315.4,333.2,315.4,333.2,315.4,333.2z
			 M315.3,325.1c-1.1,0-2-0.9-2-2l0-1.4c0-1.1,0.9-2,2-2.1c0,0,0,0,0,0c1.1,0,2,0.9,2,2l0,1.4C317.3,324.1,316.4,325,315.3,325.1
			C315.3,325.1,315.3,325.1,315.3,325.1z M315.1,317c-1.1,0-2-0.9-2-2l0-1.4c0-1.1,0.9-2,2-2.1c0,0,0,0,0,0c1.1,0,2,0.9,2,2l0,1.4
			C317.2,316,316.3,316.9,315.1,317C315.1,317,315.1,317,315.1,317z M315,308.9c-1.1,0-2-0.9-2-2l0-1.4c0-1.1,0.9-2,2-2.1
			c1.1-0.1,2,0.9,2.1,2l0,1.4C317,307.9,316.1,308.8,315,308.9C315,308.9,315,308.9,315,308.9z M314.8,300.7c-1.1,0-2-0.9-2-2l0-1.4
			c0-1.1,0.9-2,2-2.1c0,0,0,0,0,0c1.1,0,2,0.9,2,2l0,1.4C316.9,299.8,316,300.7,314.8,300.7C314.9,300.7,314.8,300.7,314.8,300.7z
			 M314.7,292.6c-1.1,0-2-0.9-2-2l0-1.4c0-1.1,0.9-2,2-2.1c0,0,0,0,0,0c1.1,0,2,0.9,2,2l0,1.4C316.7,291.7,315.8,292.6,314.7,292.6
			C314.7,292.6,314.7,292.6,314.7,292.6z M314.5,284.5c-1.1,0-2-0.9-2-2l0-1.4c0-1.1,0.9-2,2-2.1c1.1-0.1,2,0.9,2.1,2l0,1.4
			C316.6,283.6,315.7,284.5,314.5,284.5C314.6,284.5,314.6,284.5,314.5,284.5z M314.4,276.4c-1.1,0-2-0.9-2-2l0-1.4
			c0-1.1,0.9-2,2-2.1c0,0,0,0,0,0c1.1,0,2,0.9,2,2l0,1.4C316.5,275.5,315.6,276.4,314.4,276.4C314.4,276.4,314.4,276.4,314.4,276.4z
			 M314.3,268.3c-1.1,0-2-0.9-2-2l0-1.4c0-1.1,0.9-2,2-2.1c0,0,0,0,0,0c1.1,0,2,0.9,2,2l0,1.4C316.3,267.4,315.4,268.3,314.3,268.3
			C314.3,268.3,314.3,268.3,314.3,268.3z M314.1,260.2c-1.1,0-2-0.9-2-2l0-1.3c0-1.1,0.9-2,2-2.1c1.1,0,2,0.9,2.1,2l0,1.4
			C316.2,259.3,315.3,260.2,314.1,260.2C314.1,260.2,314.1,260.2,314.1,260.2z M314,252.1c-1.1,0-2-0.9-2-2l0-1.4c0-1.1,0.9-2,2-2.1
			c1.1-0.1,2,0.9,2.1,2l0,1.4C316,251.2,315.1,252.1,314,252.1C314,252.1,314,252.1,314,252.1z M313.8,244c-1.1,0-2-0.9-2-2l0-1.4
			c0-1.1,0.9-2,2-2.1c0,0,0,0,0,0c1.1,0,2,0.9,2,2l0,1.4C315.9,243,315,244,313.8,244C313.9,244,313.8,244,313.8,244z M313.7,235.9
			c-1.1,0-2-0.9-2-2l0-1.4c0-1.1,0.9-2,2-2.1c1.1,0,2,0.9,2.1,2l0,1.4C315.7,234.9,314.8,235.9,313.7,235.9
			C313.7,235.9,313.7,235.9,313.7,235.9z"/>
	</g>
	<g>
		<path class="st6" d="M213.2,388.2c-0.8,0-1.5-0.4-1.8-1.2c-0.2-0.4-0.4-0.8-0.6-1.3c-0.5-1,0-2.2,1-2.7c1-0.5,2.2,0,2.7,1
			c0.2,0.4,0.4,0.8,0.5,1.2c0.5,1,0,2.2-1,2.7C213.8,388.1,213.5,388.2,213.2,388.2z M210.3,380.6c-0.9,0-1.7-0.6-1.9-1.4
			c-0.1-0.5-0.3-0.9-0.4-1.3c-0.3-1.1,0.3-2.2,1.4-2.5c1.1-0.3,2.2,0.3,2.5,1.4c0.1,0.4,0.2,0.8,0.4,1.3c0.3,1.1-0.3,2.2-1.4,2.5
			C210.7,380.6,210.5,380.6,210.3,380.6z M208.5,372.7c-1,0-1.8-0.7-2-1.7c-0.1-0.5-0.1-0.9-0.2-1.4c-0.2-1.1,0.6-2.1,1.7-2.3
			c1.1-0.1,2.1,0.6,2.3,1.7c0.1,0.4,0.1,0.9,0.2,1.3c0.2,1.1-0.6,2.1-1.7,2.3C208.7,372.7,208.6,372.7,208.5,372.7z M207.7,364.7
			c-1.1,0-2-0.8-2-1.9c0-0.5-0.1-0.9-0.1-1.4c-0.1-1.1,0.8-2.1,1.9-2.1c1.1,0,2.1,0.8,2.1,1.9c0,0.4,0,0.9,0.1,1.3
			c0.1,1.1-0.8,2.1-1.9,2.1C207.7,364.7,207.7,364.7,207.7,364.7z M207.4,356.6c-1.1,0-2-0.9-2-2l0-1.4c0-1.1,0.9-2,2-2c0,0,0,0,0,0
			c1.1,0,2,0.9,2,2l0,1.3C209.4,355.6,208.5,356.5,207.4,356.6C207.4,356.6,207.4,356.6,207.4,356.6z M207.4,348.5c-1.1,0-2-0.9-2-2
			l0-1.3c0-1.1,0.9-2,2-2.1c0,0,0,0,0,0c1.1,0,2,0.9,2,2l0,1.4C209.4,347.5,208.5,348.4,207.4,348.5
			C207.4,348.5,207.4,348.5,207.4,348.5z M207.2,340.4c-1.1,0-2-0.9-2-1.9l-0.1-1.3c-0.1-1.1,0.8-2.1,1.9-2.1
			c1.1-0.1,2.1,0.8,2.1,1.9c0,0.5,0,0.9,0.1,1.4C209.2,339.4,208.4,340.3,207.2,340.4C207.2,340.3,207.2,340.4,207.2,340.4z
			 M206.6,332.3c-1,0-1.9-0.8-2-1.8c0-0.4-0.1-0.9-0.1-1.3c-0.1-1.1,0.7-2.1,1.8-2.3c1.1-0.1,2.1,0.7,2.2,1.8
			c0.1,0.5,0.1,0.9,0.2,1.4c0.1,1.1-0.7,2.1-1.8,2.2C206.7,332.3,206.6,332.3,206.6,332.3z M205.4,324.3c-0.9,0-1.8-0.7-2-1.6
			c-0.1-0.4-0.2-0.8-0.3-1.3c-0.2-1.1,0.4-2.2,1.5-2.4c1.1-0.2,2.2,0.4,2.4,1.5c0.1,0.5,0.2,0.9,0.3,1.4c0.2,1.1-0.5,2.2-1.6,2.4
			C205.7,324.2,205.5,324.3,205.4,324.3z M203.1,316.5c-0.8,0-1.6-0.5-1.9-1.3c-0.2-0.4-0.3-0.8-0.5-1.2c-0.5-1,0-2.2,1-2.7
			c1-0.5,2.2,0,2.7,1c0.2,0.4,0.4,0.9,0.5,1.3c0.4,1-0.1,2.2-1.1,2.6C203.6,316.5,203.4,316.5,203.1,316.5z M199.4,309.3
			c-0.7,0-1.3-0.3-1.7-0.9c-0.2-0.4-0.5-0.7-0.7-1.1c-0.7-0.9-0.4-2.2,0.5-2.8c0.9-0.7,2.2-0.4,2.8,0.5c0.3,0.4,0.5,0.8,0.8,1.2
			c0.6,0.9,0.4,2.2-0.6,2.8C200.1,309.2,199.7,309.3,199.4,309.3z M194.3,303c-0.5,0-1.1-0.2-1.5-0.6c-0.3-0.3-0.6-0.6-0.9-0.9
			c-0.8-0.8-0.8-2.1,0-2.9c0.8-0.8,2.1-0.8,2.9,0c0.3,0.3,0.7,0.7,1,1c0.8,0.8,0.7,2.1-0.1,2.9C195.3,302.9,194.8,303,194.3,303z
			 M188.3,297.6c-0.5,0-0.9-0.2-1.3-0.5c-0.3-0.3-0.7-0.6-1-0.8c-0.9-0.7-1-2-0.3-2.8c0.7-0.9,2-1,2.8-0.3c0.4,0.3,0.7,0.6,1.1,0.9
			c0.9,0.7,1,2,0.3,2.8C189.5,297.3,188.9,297.6,188.3,297.6z M181.9,292.6c-0.4,0-0.8-0.1-1.2-0.4l-1.1-0.8
			c-0.9-0.7-1.1-1.9-0.4-2.8c0.7-0.9,1.9-1.1,2.8-0.4l1.1,0.8c0.9,0.7,1.1,1.9,0.4,2.8C183.1,292.3,182.5,292.6,181.9,292.6z
			 M175.3,287.8c-0.4,0-0.8-0.1-1.2-0.4l-1.1-0.8c-0.9-0.7-1.1-1.9-0.4-2.8c0.7-0.9,1.9-1.1,2.8-0.4l1.1,0.8
			c0.9,0.7,1.1,1.9,0.4,2.8C176.6,287.6,176,287.8,175.3,287.8z M168.9,282.9c-0.5,0-0.9-0.2-1.3-0.5c-0.4-0.3-0.7-0.6-1.1-0.9
			c-0.9-0.7-0.9-2-0.2-2.9c0.7-0.8,2-0.9,2.9-0.2c0.3,0.3,0.7,0.6,1,0.9c0.9,0.7,1,2,0.3,2.9C170.1,282.6,169.5,282.9,168.9,282.9z
			 M163,277.4c-0.5,0-1.1-0.2-1.5-0.6c-0.3-0.3-0.6-0.7-1-1c-0.8-0.8-0.7-2.1,0.1-2.9c0.8-0.8,2.1-0.7,2.9,0.1
			c0.3,0.3,0.6,0.6,0.9,1c0.8,0.8,0.7,2.1-0.1,2.9C164,277.2,163.5,277.4,163,277.4z M157.8,271.1c-0.6,0-1.3-0.3-1.7-0.9
			c-0.3-0.4-0.5-0.8-0.8-1.2c-0.6-0.9-0.4-2.2,0.6-2.8c0.9-0.6,2.2-0.4,2.8,0.6c0.2,0.4,0.5,0.7,0.7,1.1c0.6,0.9,0.4,2.2-0.5,2.8
			C158.6,271,158.2,271.1,157.8,271.1z M153.7,264.2c-0.8,0-1.5-0.4-1.8-1.2l-0.6-1.3c-0.5-1,0-2.2,1-2.7c1-0.5,2.2,0,2.7,1l0.5,1.2
			c0.5,1,0.1,2.2-1,2.7C154.3,264.1,154,264.2,153.7,264.2z M150.6,256.7c-0.8,0-1.6-0.5-1.9-1.3c-0.2-0.4-0.3-0.9-0.5-1.3
			c-0.4-1.1,0.1-2.2,1.2-2.6c1-0.4,2.2,0.1,2.6,1.2c0.2,0.4,0.3,0.8,0.5,1.2c0.4,1.1-0.1,2.2-1.2,2.6
			C151,256.7,150.8,256.7,150.6,256.7z M147.9,249c-0.9,0-1.7-0.6-1.9-1.4c-0.1-0.4-0.3-0.9-0.4-1.3c-0.3-1.1,0.3-2.2,1.4-2.5
			c1.1-0.3,2.2,0.3,2.5,1.4c0.1,0.4,0.2,0.8,0.4,1.3c0.3,1.1-0.3,2.2-1.3,2.5C148.3,249,148.1,249,147.9,249z M145.8,241.2
			c-0.9,0-1.8-0.6-2-1.6c-0.1-0.5-0.2-0.9-0.3-1.4c-0.2-1.1,0.5-2.2,1.6-2.4c1.1-0.2,2.2,0.5,2.4,1.6c0.1,0.4,0.2,0.9,0.3,1.3
			c0.2,1.1-0.4,2.2-1.5,2.4C146.1,241.2,146,241.2,145.8,241.2z M144.5,233.2c-1,0-1.9-0.8-2-1.8c-0.1-0.5-0.1-0.9-0.1-1.4
			c-0.1-1.1,0.7-2.1,1.8-2.2c1.1-0.1,2.1,0.7,2.2,1.8c0,0.4,0.1,0.9,0.1,1.3c0.1,1.1-0.7,2.1-1.8,2.2
			C144.7,233.2,144.6,233.2,144.5,233.2z M165.2,226.6c0,0-0.1,0-0.1,0c-0.5,0-0.9-0.1-1.4-0.1c-1.1-0.1-1.9-1.1-1.8-2.2
			c0.1-1.1,1.1-1.9,2.2-1.8c0.4,0,0.9,0.1,1.3,0.1c1.1,0.1,2,1,1.9,2.2C167.1,225.8,166.2,226.6,165.2,226.6z M171.9,226.5
			c-1,0-1.9-0.8-2-1.8c-0.1-1.1,0.7-2.1,1.8-2.3c0.4-0.1,0.8-0.1,1.2-0.2c1.1-0.2,2.2,0.5,2.4,1.6c0.2,1.1-0.5,2.2-1.6,2.4
			c-0.5,0.1-1,0.2-1.4,0.2C172.1,226.5,172,226.5,171.9,226.5z M157.2,225.3c-0.2,0-0.3,0-0.5-0.1c-0.5-0.1-0.9-0.2-1.4-0.4
			c-1.1-0.3-1.7-1.4-1.4-2.5c0.3-1.1,1.4-1.7,2.5-1.4c0.4,0.1,0.8,0.2,1.3,0.3c1.1,0.3,1.8,1.4,1.5,2.5
			C158.9,224.7,158.1,225.3,157.2,225.3z M144.2,225.1C144.2,225.1,144.2,225.1,144.2,225.1c-1.2-0.1-2.1-1-2-2.1
			c0-0.5,0.1-0.9,0.1-1.4c0.1-1.1,1.1-1.9,2.2-1.9c1.1,0.1,2,1.1,1.9,2.2c0,0.4-0.1,0.8-0.1,1.3
			C146.2,224.2,145.3,225.1,144.2,225.1z M179.6,224c-0.7,0-1.3-0.3-1.7-1c-0.6-0.9-0.3-2.2,0.7-2.8c0.3-0.2,0.6-0.4,0.9-0.6
			c0.9-0.7,2.2-0.5,2.8,0.3c0.7,0.9,0.5,2.2-0.3,2.8c-0.4,0.3-0.8,0.6-1.3,0.9C180.3,223.9,180,224,179.6,224z M149.5,222.7
			c-0.3,0-0.6-0.1-0.9-0.2c-0.5-0.2-0.9-0.4-1.3-0.6c-1-0.5-1.4-1.8-0.8-2.7c0.5-1,1.7-1.4,2.7-0.8c0.4,0.2,0.7,0.4,1.1,0.6
			c1,0.5,1.5,1.7,1,2.7C151,222.3,150.3,222.7,149.5,222.7z M142.9,218.1c-0.5,0-1-0.2-1.4-0.5c-0.4-0.3-0.7-0.7-1-1
			c-0.8-0.8-0.8-2.1,0-2.9c0.8-0.8,2.1-0.8,2.9,0c0.1,0.1,0.2,0.2,0.3,0.3c0.1-0.3,0.2-0.7,0.3-1c0.4-1.1,1.5-1.6,2.6-1.2
			c1.1,0.4,1.6,1.5,1.2,2.6c-0.1,0.4-0.3,0.8-0.4,1.2c-0.3,1.1-1.5,1.7-2.5,1.4c-0.1,0-0.1,0-0.2-0.1c-0.1,0.2-0.2,0.4-0.4,0.5
			C144,217.9,143.4,218.1,142.9,218.1z M184.3,217.7c-0.2,0-0.3,0-0.5-0.1c-1.1-0.3-1.7-1.4-1.4-2.5c0.1-0.4,0.2-0.7,0.2-1.1
			c0.2-1.1,1.2-1.9,2.3-1.7c1.1,0.2,1.9,1.2,1.7,2.3c-0.1,0.5-0.2,1-0.3,1.5C186,217.1,185.2,217.7,184.3,217.7z M137.5,212.1
			c-0.6,0-1.2-0.3-1.6-0.8c-0.3-0.4-0.5-0.8-0.8-1.2c-0.6-0.9-0.4-2.2,0.5-2.8c0.9-0.6,2.2-0.4,2.8,0.5c0.2,0.4,0.5,0.7,0.7,1.1
			c0.7,0.9,0.5,2.2-0.4,2.8C138.3,212,137.9,212.1,137.5,212.1z M149.3,210c-0.5,0-1-0.2-1.3-0.5c-0.8-0.7-0.9-2-0.2-2.9
			c0.3-0.4,0.7-0.7,1-1.1c0.8-0.8,2.1-0.8,2.9,0c0.8,0.8,0.8,2.1,0,2.9c-0.3,0.3-0.6,0.6-0.8,0.9C150.4,209.8,149.9,210,149.3,210z
			 M184.2,209.7c-0.9,0-1.7-0.6-2-1.5c-0.1-0.4-0.2-0.8-0.3-1.1c-0.4-1.1,0.2-2.2,1.2-2.6c1.1-0.4,2.2,0.2,2.6,1.2
			c0.2,0.5,0.3,1,0.5,1.5c0.3,1.1-0.4,2.2-1.4,2.5C184.5,209.6,184.3,209.7,184.2,209.7z M133.3,205.2c-0.7,0-1.4-0.4-1.8-1.1
			c-0.2-0.4-0.4-0.8-0.6-1.2c-0.5-1-0.1-2.2,0.9-2.7c1-0.5,2.2-0.1,2.7,0.9c0.2,0.4,0.4,0.8,0.6,1.2c0.5,1,0.1,2.2-0.9,2.7
			C133.9,205.1,133.6,205.2,133.3,205.2z M155.6,205c-0.7,0-1.4-0.4-1.7-1c-0.6-1-0.3-2.2,0.7-2.8c0.4-0.2,0.8-0.5,1.2-0.7
			c1-0.5,2.2-0.2,2.8,0.8c0.5,1,0.2,2.2-0.8,2.8c-0.4,0.2-0.7,0.4-1.1,0.6C156.3,204.9,156,205,155.6,205z M179.9,203
			c-0.4,0-0.9-0.1-1.2-0.4c-0.3-0.2-0.6-0.4-0.9-0.6c-1-0.6-1.3-1.8-0.7-2.8c0.6-1,1.8-1.3,2.8-0.7c0.5,0.3,0.9,0.6,1.3,0.9
			c0.9,0.7,1.1,1.9,0.4,2.8C181.1,202.7,180.5,203,179.9,203z M163,201.7c-0.9,0-1.7-0.6-1.9-1.4c-0.3-1.1,0.3-2.2,1.3-2.5
			c0.5-0.1,0.9-0.3,1.4-0.4c1.1-0.3,2.2,0.4,2.5,1.4c0.3,1.1-0.4,2.2-1.4,2.5c-0.4,0.1-0.8,0.2-1.2,0.4
			C163.4,201.6,163.2,201.7,163,201.7z M172.3,200.4c0,0-0.1,0-0.1,0c-0.4,0-0.8,0-1.2,0c-1.1,0-2-0.9-2-2c0-1.1,0.9-2,2-2
			c0.5,0,1,0,1.5,0c1.1,0.1,2,1,1.9,2.2C174.3,199.6,173.4,200.4,172.3,200.4z M130,197.8c-0.8,0-1.6-0.5-1.9-1.3
			c-0.2-0.4-0.3-0.9-0.5-1.3c-0.4-1.1,0.2-2.2,1.2-2.6c1.1-0.4,2.2,0.2,2.6,1.2c0.1,0.4,0.3,0.8,0.5,1.2c0.4,1.1-0.1,2.2-1.2,2.6
			C130.5,197.7,130.3,197.8,130,197.8z M127.5,190c-0.9,0-1.7-0.6-2-1.5c-0.1-0.4-0.2-0.9-0.4-1.3c-0.3-1.1,0.4-2.2,1.5-2.5
			c1.1-0.3,2.2,0.4,2.5,1.5c0.1,0.4,0.2,0.9,0.3,1.3c0.3,1.1-0.3,2.2-1.4,2.5C127.9,190,127.7,190,127.5,190z M125.7,182.1
			c-1,0-1.8-0.7-2-1.6c-0.1-0.4-0.2-0.9-0.3-1.4c-0.2-1.1,0.5-2.2,1.6-2.4c1.1-0.2,2.2,0.5,2.4,1.6c0.1,0.4,0.2,0.9,0.2,1.3
			c0.2,1.1-0.5,2.2-1.6,2.4C125.9,182.1,125.8,182.1,125.7,182.1z M124.4,174.1c-1,0-1.9-0.7-2-1.8c-0.1-0.5-0.1-0.9-0.2-1.4
			c-0.1-1.1,0.7-2.1,1.8-2.3c1.1-0.1,2.1,0.7,2.3,1.8c0.1,0.4,0.1,0.9,0.2,1.3c0.2,1.1-0.6,2.1-1.7,2.3
			C124.5,174.1,124.4,174.1,124.4,174.1z M123.5,166.1c-1,0-1.9-0.8-2-1.9l-0.1-1.4c-0.1-1.1,0.8-2.1,1.9-2.2
			c1.1-0.1,2.1,0.8,2.2,1.9l0.1,1.3c0.1,1.1-0.7,2.1-1.9,2.2C123.6,166.1,123.6,166.1,123.5,166.1z M123.1,158c-1.1,0-2-0.9-2-2
			c0-0.5,0-0.9,0-1.4c0-1.1,0.9-2,2-2.1c0,0,0,0,0,0c1.1,0,2,0.9,2,2l0,1.3C125.1,157,124.3,157.9,123.1,158
			C123.1,158,123.1,158,123.1,158z M123.1,149.9C123.1,149.9,123,149.9,123.1,149.9c-1.2,0-2.1-1-2-2.1c0-0.5,0-0.9,0-1.4
			c0-1.1,1-2,2.1-2c1.1,0,2,1,2,2.1c0,0.4,0,0.9,0,1.3C125.1,149,124.2,149.9,123.1,149.9z"/>
	</g>
	<g>
		<path class="st6" d="M197.3,355.5c-0.5,0-1-0.2-1.4-0.5l-1-0.9c-0.8-0.8-0.9-2-0.1-2.9c0.8-0.8,2-0.9,2.9-0.1l1,0.9
			c0.8,0.8,0.9,2,0.1,2.9C198.4,355.2,197.8,355.5,197.3,355.5z M191.2,350.1c-0.5,0-0.9-0.2-1.3-0.5c-0.3-0.3-0.7-0.6-1-0.8
			c-0.9-0.7-1-2-0.3-2.8c0.7-0.9,2-1,2.9-0.3c0.4,0.3,0.7,0.6,1.1,0.9c0.9,0.7,1,2,0.3,2.8C192.3,349.9,191.8,350.1,191.2,350.1z
			 M184.8,345.1c-0.4,0-0.8-0.1-1.2-0.4l-1.1-0.8c-0.9-0.7-1.1-1.9-0.4-2.8c0.7-0.9,1.9-1.1,2.8-0.4l1.1,0.8
			c0.9,0.7,1.1,1.9,0.4,2.8C186,344.8,185.4,345.1,184.8,345.1z M178.2,340.4c-0.4,0-0.8-0.1-1.1-0.4l-1.1-0.8
			c-0.9-0.6-1.2-1.9-0.5-2.8c0.6-0.9,1.9-1.2,2.8-0.5l1.1,0.8c0.9,0.6,1.2,1.9,0.5,2.8C179.5,340.1,178.9,340.4,178.2,340.4z
			 M171.4,336c-0.4,0-0.7-0.1-1.1-0.3l-1.1-0.7c-0.9-0.6-1.2-1.8-0.7-2.8c0.6-0.9,1.8-1.2,2.8-0.7l1.2,0.7c0.9,0.6,1.2,1.8,0.6,2.8
			C172.8,335.6,172.1,336,171.4,336z M164.5,331.7c-0.4,0-0.7-0.1-1-0.3l-1.2-0.7c-1-0.6-1.3-1.8-0.7-2.8c0.6-1,1.8-1.3,2.8-0.7
			l1.2,0.7c1,0.6,1.3,1.8,0.7,2.8C165.9,331.4,165.2,331.7,164.5,331.7z M157.5,327.7c-0.3,0-0.7-0.1-1-0.3l-1.2-0.7
			c-1-0.5-1.3-1.8-0.8-2.8c0.5-1,1.8-1.3,2.8-0.8l1.2,0.7c1,0.6,1.3,1.8,0.8,2.8C158.9,327.3,158.2,327.7,157.5,327.7z M150.4,323.7
			c-0.3,0-0.7-0.1-1-0.3l-1.2-0.7c-1-0.5-1.3-1.8-0.8-2.8c0.5-1,1.8-1.3,2.8-0.8l1.2,0.7c1,0.5,1.3,1.8,0.8,2.8
			C151.8,323.3,151.1,323.7,150.4,323.7z M143.3,319.8c-0.3,0-0.7-0.1-1-0.2l-1.2-0.7c-1-0.5-1.3-1.8-0.8-2.8c0.5-1,1.8-1.3,2.8-0.8
			l1.2,0.6c1,0.5,1.3,1.8,0.8,2.8C144.7,319.4,144,319.8,143.3,319.8z M136.2,315.9c-0.3,0-0.7-0.1-1-0.3L134,315
			c-1-0.6-1.3-1.8-0.8-2.8c0.5-1,1.8-1.3,2.8-0.8l1.2,0.7c1,0.5,1.3,1.8,0.8,2.8C137.6,315.5,136.9,315.9,136.2,315.9z M129.2,311.9
			c-0.4,0-0.7-0.1-1-0.3l-1.2-0.7c-1-0.6-1.3-1.8-0.7-2.8c0.6-1,1.8-1.3,2.8-0.7l1.2,0.7c1,0.6,1.3,1.8,0.7,2.8
			C130.6,311.5,129.9,311.9,129.2,311.9z M122.2,307.7c-0.4,0-0.7-0.1-1.1-0.3l-1.2-0.7c-0.9-0.6-1.2-1.9-0.6-2.8
			c0.6-0.9,1.9-1.2,2.8-0.6l1.1,0.7c0.9,0.6,1.2,1.8,0.7,2.8C123.6,307.3,122.9,307.7,122.2,307.7z M115.5,303.2
			c-0.4,0-0.8-0.1-1.1-0.4l-1.1-0.8c-0.9-0.6-1.1-1.9-0.5-2.8c0.6-0.9,1.9-1.1,2.8-0.5l1.1,0.8c0.9,0.6,1.2,1.9,0.5,2.8
			C116.7,302.9,116.1,303.2,115.5,303.2z M108.9,298.5c-0.4,0-0.9-0.1-1.2-0.4c-0.4-0.3-0.7-0.6-1.1-0.8c-0.9-0.7-1-2-0.3-2.8
			c0.7-0.9,2-1,2.8-0.4c0.3,0.3,0.7,0.5,1,0.8c0.9,0.7,1.1,2,0.4,2.8C110.1,298.2,109.5,298.5,108.9,298.5z M102.6,293.4
			c-0.5,0-0.9-0.2-1.3-0.5c-0.3-0.3-0.7-0.6-1-0.9c-0.8-0.7-0.9-2-0.2-2.9c0.7-0.8,2-0.9,2.9-0.2c0.3,0.3,0.7,0.6,1,0.9
			c0.8,0.7,0.9,2,0.2,2.9C103.7,293.2,103.2,293.4,102.6,293.4z M96.7,287.8c-0.5,0-1-0.2-1.4-0.6c-0.3-0.3-0.6-0.7-1-1
			c-0.8-0.8-0.7-2.1,0.1-2.9c0.8-0.8,2.1-0.8,2.9,0.1c0.3,0.3,0.6,0.6,0.9,0.9c0.8,0.8,0.8,2.1,0,2.9
			C97.7,287.6,97.2,287.8,96.7,287.8z M91.3,281.8c-0.6,0-1.2-0.2-1.6-0.7c-0.3-0.4-0.6-0.7-0.9-1.1c-0.7-0.9-0.6-2.1,0.3-2.8
			c0.9-0.7,2.1-0.6,2.9,0.3c0.3,0.3,0.6,0.7,0.8,1c0.7,0.9,0.6,2.1-0.3,2.9C92.2,281.7,91.7,281.8,91.3,281.8z M86.4,275.4
			c-0.6,0-1.3-0.3-1.7-0.9c-0.3-0.4-0.5-0.8-0.8-1.1c-0.6-0.9-0.4-2.2,0.5-2.8c0.9-0.6,2.2-0.4,2.8,0.6c0.2,0.4,0.5,0.7,0.7,1.1
			c0.6,0.9,0.4,2.2-0.5,2.8C87.2,275.3,86.8,275.4,86.4,275.4z M82.1,268.6c-0.7,0-1.4-0.4-1.8-1c-0.2-0.4-0.5-0.8-0.7-1.2
			c-0.5-1-0.2-2.2,0.8-2.8c1-0.5,2.2-0.2,2.8,0.8c0.2,0.4,0.4,0.8,0.6,1.2c0.6,1,0.2,2.2-0.8,2.8C82.7,268.5,82.4,268.6,82.1,268.6z
			 M78.4,261.4c-0.8,0-1.5-0.4-1.8-1.2c-0.2-0.4-0.4-0.8-0.6-1.3c-0.5-1,0-2.2,1-2.7c1-0.5,2.2,0,2.7,1c0.2,0.4,0.4,0.8,0.5,1.2
			c0.5,1,0,2.2-1,2.7C78.9,261.3,78.6,261.4,78.4,261.4z"/>
	</g>
	<g>
		<path class="st6" d="M237,218.7c-0.6,0-1.1-0.2-1.5-0.7c-0.3-0.3-0.6-0.7-0.9-1.1c-0.7-0.9-0.6-2.1,0.2-2.9
			c0.9-0.7,2.1-0.6,2.9,0.2c0.3,0.3,0.6,0.7,0.9,1c0.7,0.8,0.7,2.1-0.2,2.9C237.9,218.5,237.5,218.7,237,218.7z M232,212.3
			c-0.6,0-1.3-0.3-1.7-0.9c-0.3-0.4-0.5-0.8-0.8-1.1c-0.6-0.9-0.4-2.2,0.6-2.8c0.9-0.6,2.2-0.4,2.8,0.5c0.2,0.4,0.5,0.7,0.7,1.1
			c0.6,0.9,0.4,2.2-0.5,2.8C232.8,212.2,232.4,212.3,232,212.3z M227.7,205.4c-0.7,0-1.4-0.4-1.8-1.1c-0.2-0.4-0.4-0.8-0.7-1.2
			c-0.5-1-0.1-2.2,0.9-2.7c1-0.5,2.2-0.1,2.7,0.9c0.2,0.4,0.4,0.8,0.6,1.2c0.5,1,0.2,2.2-0.8,2.8C228.3,205.3,228,205.4,227.7,205.4
			z M224.2,198.1c-0.8,0-1.6-0.5-1.9-1.3c-0.2-0.4-0.3-0.9-0.5-1.3c-0.4-1,0.1-2.2,1.2-2.6c1-0.4,2.2,0.1,2.6,1.2
			c0.2,0.4,0.3,0.8,0.5,1.2c0.4,1-0.1,2.2-1.1,2.6C224.7,198,224.5,198.1,224.2,198.1z M221.7,190.4c-0.9,0-1.7-0.6-2-1.5
			c-0.1-0.4-0.2-0.9-0.3-1.4c-0.3-1.1,0.4-2.2,1.5-2.4c1.1-0.3,2.2,0.4,2.4,1.5c0.1,0.4,0.2,0.8,0.3,1.3c0.3,1.1-0.4,2.2-1.4,2.5
			C222,190.4,221.8,190.4,221.7,190.4z M220.2,182.4c-1,0-1.9-0.8-2-1.8c-0.1-0.5-0.1-0.9-0.1-1.4c-0.1-1.1,0.7-2.1,1.8-2.2
			c1.1-0.1,2.1,0.7,2.2,1.8c0,0.4,0.1,0.9,0.1,1.3c0.1,1.1-0.7,2.1-1.8,2.2C220.3,182.4,220.2,182.4,220.2,182.4z M219.9,174.3
			C219.8,174.3,219.8,174.3,219.9,174.3c-1.2-0.1-2.1-1-2-2.1c0-0.5,0-0.9,0.1-1.4c0.1-1.1,1.1-2,2.2-1.9c1.1,0.1,2,1.1,1.9,2.2
			c0,0.4-0.1,0.9-0.1,1.3C221.8,173.5,220.9,174.3,219.9,174.3z M220.9,166.3c-0.1,0-0.3,0-0.4-0.1c-1.1-0.2-1.8-1.3-1.5-2.4
			c0.1-0.5,0.2-0.9,0.3-1.4c0.3-1.1,1.4-1.7,2.5-1.5c1.1,0.3,1.7,1.4,1.5,2.5c-0.1,0.4-0.2,0.8-0.3,1.2
			C222.7,165.7,221.8,166.3,220.9,166.3z M223.4,158.6c-0.3,0-0.5-0.1-0.8-0.2c-1-0.4-1.5-1.6-1.1-2.7c0.2-0.4,0.4-0.9,0.6-1.3
			c0.5-1,1.7-1.5,2.7-1c1,0.5,1.5,1.7,1,2.7c-0.2,0.4-0.4,0.8-0.5,1.2C224.9,158.1,224.2,158.6,223.4,158.6z M227.1,151.4
			c-0.4,0-0.8-0.1-1.1-0.3c-0.9-0.6-1.2-1.9-0.6-2.8c0.3-0.4,0.5-0.8,0.8-1.2c0.6-0.9,1.9-1.2,2.8-0.5c0.9,0.6,1.2,1.9,0.5,2.8
			c-0.2,0.4-0.5,0.7-0.7,1.1C228.5,151.1,227.8,151.4,227.1,151.4z M232,145c-0.5,0-1-0.2-1.4-0.5c-0.8-0.7-0.9-2-0.2-2.9
			c0.2-0.3,0.5-0.6,0.8-0.8l0.2-0.2c0.8-0.8,2-0.9,2.9-0.1c0.8,0.8,0.9,2,0.1,2.9l-0.2,0.2c-0.2,0.3-0.5,0.5-0.7,0.8
			C233.2,144.8,232.6,145,232,145z M237.6,139.1c-0.5,0-1-0.2-1.4-0.6c-0.8-0.8-0.8-2.1,0-2.9c0.3-0.3,0.7-0.7,1-1
			c0.8-0.8,2.1-0.8,2.9,0c0.8,0.8,0.8,2.1,0,2.9c-0.3,0.3-0.6,0.6-0.9,0.9C238.7,138.9,238.2,139.1,237.6,139.1z M243.5,133.5
			c-0.6,0-1.1-0.2-1.5-0.7c-0.7-0.8-0.7-2.1,0.2-2.9c0.3-0.3,0.7-0.6,1-0.9c0.8-0.7,2.1-0.6,2.9,0.2c0.7,0.8,0.6,2.1-0.2,2.9
			c-0.3,0.3-0.7,0.6-1,0.9C244.5,133.4,244,133.5,243.5,133.5z M249.8,128.4c-0.6,0-1.2-0.3-1.6-0.8c-0.7-0.9-0.5-2.2,0.4-2.8
			l1.1-0.8c0.9-0.7,2.2-0.5,2.8,0.4c0.7,0.9,0.5,2.2-0.4,2.8L251,128C250.6,128.3,250.2,128.4,249.8,128.4z M256.1,123.4
			c-0.6,0-1.1-0.2-1.5-0.7c-0.7-0.8-0.7-2.1,0.2-2.9c0.3-0.3,0.7-0.6,1-0.9c0.8-0.8,2.1-0.7,2.9,0.1c0.8,0.8,0.7,2.1-0.1,2.9
			c-0.3,0.3-0.7,0.6-1,0.9C257.1,123.2,256.6,123.4,256.1,123.4z M261.9,117.7c-0.5,0-1-0.2-1.3-0.5c-0.8-0.7-0.9-2-0.2-2.9
			c0.3-0.3,0.6-0.7,0.8-1c0.7-0.9,2-1,2.9-0.3c0.9,0.7,1,2,0.3,2.9c-0.3,0.4-0.6,0.7-0.9,1.1C263,117.4,262.4,117.7,261.9,117.7z
			 M266.7,111.1c-0.4,0-0.7-0.1-1.1-0.3c-1-0.6-1.3-1.8-0.7-2.8c0.2-0.4,0.4-0.7,0.7-1.1c0.6-1,1.8-1.3,2.8-0.8
			c1,0.6,1.3,1.8,0.8,2.8c-0.2,0.4-0.5,0.8-0.7,1.2C268,110.8,267.4,111.1,266.7,111.1z M270.2,103.9c-0.2,0-0.5,0-0.7-0.1
			c-1.1-0.4-1.6-1.5-1.2-2.6c0.1-0.4,0.3-0.8,0.4-1.2c0.3-1.1,1.5-1.7,2.5-1.3c1.1,0.3,1.7,1.5,1.3,2.5c-0.1,0.5-0.3,0.9-0.5,1.4
			C271.8,103.3,271,103.9,270.2,103.9z M272,96c-0.1,0-0.1,0-0.2,0c-1.1-0.1-1.9-1.1-1.8-2.2c0-0.4,0.1-0.8,0.1-1.3
			c0.1-1.1,1-2,2.1-1.9c1.1,0.1,2,1,1.9,2.1c0,0.5-0.1,1-0.1,1.4C273.9,95.2,273,96,272,96z"/>
	</g>
	<g>
		<path class="st6" d="M465.5,317c-0.3,0-0.5-0.1-0.8-0.2l-0.5-0.2c-1-0.4-1.5-1.6-1.1-2.7c0.4-1,1.6-1.5,2.7-1.1l0.5,0.2
			c1,0.4,1.5,1.6,1.1,2.7C467,316.5,466.3,317,465.5,317z M458.7,314.1c-0.3,0-0.5-0.1-0.8-0.2l-1.2-0.5c-1-0.5-1.5-1.7-1-2.7
			c0.5-1,1.7-1.5,2.7-1l1.2,0.5c1,0.4,1.5,1.6,1,2.7C460.3,313.6,459.5,314.1,458.7,314.1z M451.4,310.7c-0.3,0-0.6-0.1-0.9-0.2
			l-1.2-0.6c-1-0.5-1.4-1.7-0.9-2.7c0.5-1,1.7-1.4,2.7-0.9l1.2,0.6c1,0.5,1.4,1.7,0.9,2.7C452.8,310.3,452.1,310.7,451.4,310.7z
			 M444.1,307c-0.3,0-0.7-0.1-1-0.2l-1.2-0.7c-1-0.5-1.3-1.8-0.8-2.8c0.6-1,1.8-1.3,2.8-0.8l1.2,0.7c1,0.5,1.3,1.8,0.8,2.8
			C445.6,306.6,444.9,307,444.1,307z M437.2,302.9c-0.4,0-0.8-0.1-1.1-0.3c-0.4-0.3-0.8-0.5-1.2-0.8c-0.9-0.6-1.2-1.9-0.6-2.8
			c0.6-0.9,1.9-1.2,2.8-0.5c0.4,0.2,0.7,0.5,1.1,0.7c0.9,0.6,1.2,1.9,0.6,2.8C438.5,302.5,437.8,302.9,437.2,302.9z M430.6,298.1
			c-0.4,0-0.9-0.1-1.3-0.5c-0.4-0.3-0.7-0.6-1.1-0.9c-0.9-0.7-1-2-0.2-2.9c0.7-0.8,2-0.9,2.9-0.2c0.3,0.3,0.7,0.6,1,0.8
			c0.9,0.7,1,2,0.3,2.8C431.8,297.8,431.2,298.1,430.6,298.1z M424.7,292.5c-0.6,0-1.1-0.2-1.5-0.7c-0.3-0.4-0.6-0.7-0.9-1.1
			c-0.7-0.9-0.6-2.1,0.3-2.9c0.9-0.7,2.1-0.6,2.9,0.3c0.3,0.3,0.6,0.7,0.8,1c0.7,0.8,0.7,2.1-0.2,2.9
			C425.7,292.4,425.2,292.5,424.7,292.5z M420.1,285.9c-0.7,0-1.4-0.4-1.8-1.1c-0.2-0.4-0.4-0.9-0.6-1.3c-0.5-1,0-2.2,1-2.7
			c1-0.5,2.2,0,2.7,1c0.2,0.4,0.4,0.8,0.6,1.1c0.5,1,0.2,2.2-0.8,2.7C420.7,285.9,420.4,285.9,420.1,285.9z M417.4,278.3
			c-1,0-1.8-0.7-2-1.7c-0.1-0.5-0.1-1-0.2-1.5c-0.1-1.1,0.7-2.1,1.8-2.2c1.1-0.1,2.1,0.7,2.2,1.8c0,0.4,0.1,0.8,0.2,1.2
			c0.2,1.1-0.6,2.1-1.7,2.3C417.6,278.3,417.5,278.3,417.4,278.3z M465.5,271c-1.1,0-2.1-0.9-2.1-2c0-1.1,0.9-2,2-2h0.1
			c0.3,0,0.6,0,0.9-0.1c1.1-0.2,2.2,0.5,2.4,1.6c0.2,1.1-0.5,2.2-1.6,2.4C466.7,270.9,466.1,271,465.5,271z M417.5,270.3
			c-0.1,0-0.2,0-0.4,0c-1.1-0.2-1.8-1.3-1.6-2.4c0.1-0.4,0.1-0.8,0.2-1.1l0.1-0.3c0.3-1.1,1.4-1.8,2.5-1.5c1.1,0.3,1.8,1.4,1.5,2.4
			l-0.1,0.2c-0.1,0.3-0.1,0.7-0.2,1C419.3,269.6,418.5,270.3,417.5,270.3z M459.1,269c-0.3,0-0.7-0.1-1-0.3
			c-0.4-0.2-0.9-0.5-1.3-0.8c-0.9-0.6-1.2-1.9-0.6-2.8c0.6-0.9,1.9-1.2,2.8-0.6c0.3,0.2,0.7,0.4,1,0.6c1,0.6,1.3,1.8,0.8,2.8
			C460.5,268.6,459.8,269,459.1,269z M471.1,266.2c-0.1,0-0.3,0-0.4,0c-1.1-0.2-1.8-1.3-1.6-2.4c0.1-0.3,0.1-0.7,0.1-1.1
			c0.1-1.1,1.1-2,2.2-1.9c1.1,0.1,2,1.1,1.9,2.2c0,0.5-0.1,1.1-0.2,1.6C472.9,265.5,472,266.2,471.1,266.2z M453.1,263.6
			c-0.7,0-1.3-0.3-1.7-0.9c-0.3-0.4-0.5-0.8-0.8-1.3c-0.6-1-0.2-2.2,0.7-2.8c1-0.6,2.2-0.2,2.8,0.7c0.2,0.3,0.4,0.7,0.6,1
			c0.6,0.9,0.4,2.2-0.5,2.8C453.9,263.5,453.5,263.6,453.1,263.6z M420.6,262.8c-0.4,0-0.8-0.1-1.1-0.3c-0.9-0.6-1.2-1.9-0.6-2.8
			c0.3-0.4,0.5-0.8,0.8-1.2c0.7-0.9,1.9-1.1,2.8-0.5c0.9,0.7,1.1,1.9,0.5,2.8c-0.2,0.3-0.5,0.7-0.7,1
			C421.9,262.5,421.2,262.8,420.6,262.8z M469.7,258.4c-0.7,0-1.4-0.4-1.7-1c-0.2-0.3-0.4-0.7-0.6-1c-0.7-0.9-0.5-2.2,0.4-2.8
			c0.9-0.7,2.2-0.5,2.8,0.4c0.3,0.4,0.6,0.8,0.9,1.3c0.6,1,0.3,2.2-0.7,2.8C470.4,258.3,470,258.4,469.7,258.4z M425.8,256.6
			c-0.5,0-1.1-0.2-1.5-0.6c-0.8-0.8-0.7-2.1,0.1-2.9c0.3-0.3,0.7-0.6,1.1-1c0.8-0.7,2.1-0.7,2.9,0.2c0.7,0.8,0.6,2.1-0.2,2.9
			c-0.3,0.3-0.6,0.6-1,0.9C426.8,256.4,426.3,256.6,425.8,256.6z M450.2,256.1c-1,0-1.8-0.7-2-1.7c-0.1-0.5-0.1-1-0.2-1.5
			c-0.1-1.1,0.7-2.1,1.8-2.2s2.1,0.7,2.2,1.8c0,0.4,0.1,0.8,0.2,1.2c0.2,1.1-0.5,2.1-1.7,2.3C450.4,256.1,450.3,256.1,450.2,256.1z
			 M464,252.7c-0.4,0-0.8-0.1-1.1-0.4c-0.3-0.2-0.7-0.5-1.1-0.7c-1-0.6-1.3-1.8-0.7-2.8c0.6-1,1.8-1.3,2.8-0.7
			c0.4,0.3,0.8,0.5,1.2,0.8c0.9,0.6,1.2,1.9,0.5,2.8C465.2,252.4,464.6,252.7,464,252.7z M432.2,251.7c-0.7,0-1.4-0.4-1.7-1
			c-0.6-1-0.3-2.2,0.7-2.8c0.4-0.2,0.8-0.5,1.2-0.7c1-0.6,2.2-0.2,2.8,0.8c0.6,1,0.2,2.2-0.8,2.8c-0.4,0.2-0.7,0.4-1.1,0.7
			C433,251.6,432.6,251.7,432.2,251.7z M456.7,249.1c-0.2,0-0.5,0-0.7-0.1c-0.4-0.1-0.8-0.3-1.2-0.4c-1.1-0.4-1.6-1.5-1.3-2.6
			c0.4-1.1,1.5-1.6,2.6-1.3c0.4,0.1,0.9,0.3,1.3,0.5c1,0.4,1.6,1.5,1.2,2.6C458.3,248.6,457.6,249.1,456.7,249.1z M439.6,248.3
			c-0.8,0-1.6-0.5-1.9-1.4c-0.4-1.1,0.2-2.2,1.3-2.6c0.5-0.2,0.9-0.3,1.4-0.4c1.1-0.3,2.2,0.3,2.5,1.4c0.3,1.1-0.3,2.2-1.4,2.5
			c-0.4,0.1-0.8,0.2-1.2,0.4C440,248.2,439.8,248.3,439.6,248.3z M450.2,248c-0.1,0-0.2,0-0.3,0c-0.6-0.1-1.1-0.4-1.4-0.9
			c-0.4,0-0.7-0.1-1.1-0.1c-1.1-0.1-2-1-1.9-2.1c0.1-1.1,1-2,2.1-1.9c0.5,0,1,0.1,1.5,0.1c0,0,0.1,0,0.1,0c0.5-0.4,1.1-0.5,1.7-0.4
			c1.1,0.2,1.8,1.3,1.5,2.4c-0.1,0.4-0.2,0.8-0.2,1.2C452,247.3,451.2,248,450.2,248z M452.7,240.4c-0.3,0-0.6-0.1-0.9-0.2
			c-1-0.5-1.4-1.7-0.9-2.7c0.2-0.4,0.4-0.9,0.7-1.3c0.5-1,1.8-1.3,2.8-0.8c1,0.5,1.3,1.8,0.8,2.8c-0.2,0.4-0.4,0.7-0.6,1.1
			C454.2,239.9,453.4,240.4,452.7,240.4z M457.3,233.7c-0.5,0-1-0.2-1.4-0.5c-0.8-0.8-0.9-2-0.1-2.9c0.3-0.4,0.7-0.7,1-1
			c0.8-0.8,2.1-0.8,2.9,0c0.8,0.8,0.8,2.1,0,2.9c-0.3,0.3-0.6,0.6-0.9,0.9C458.4,233.5,457.8,233.7,457.3,233.7z M463.4,228.4
			c-0.6,0-1.2-0.3-1.6-0.8c-0.7-0.9-0.5-2.2,0.4-2.8c0.4-0.3,0.8-0.5,1.1-0.8c0.9-0.6,2.2-0.4,2.8,0.5c0.6,0.9,0.4,2.2-0.5,2.8
			c-0.4,0.2-0.7,0.5-1.1,0.8C464.2,228.2,463.8,228.4,463.4,228.4z M470.1,223.9c-0.7,0-1.3-0.3-1.7-1c-0.6-1-0.3-2.2,0.7-2.8
			l1.2-0.7c1-0.6,2.2-0.3,2.8,0.7c0.6,1,0.3,2.2-0.7,2.8l-1.1,0.7C470.9,223.8,470.5,223.9,470.1,223.9z M477.1,219.7
			c-0.7,0-1.3-0.3-1.7-0.9c-0.6-0.9-0.3-2.2,0.6-2.8c0.4-0.2,0.7-0.5,1.1-0.7c0.9-0.6,2.2-0.4,2.8,0.6c0.6,0.9,0.4,2.2-0.6,2.8
			c-0.4,0.3-0.8,0.5-1.2,0.7C477.8,219.6,477.4,219.7,477.1,219.7z M483.6,215c-0.6,0-1.2-0.2-1.6-0.7c-0.7-0.9-0.6-2.1,0.3-2.9
			c0.3-0.3,0.7-0.5,1-0.8c0.8-0.7,2.1-0.7,2.9,0.2c0.7,0.8,0.7,2.1-0.2,2.9c-0.4,0.3-0.7,0.6-1.1,0.9
			C484.6,214.8,484.1,215,483.6,215z M489.3,209.2c-0.5,0-0.9-0.2-1.3-0.5c-0.9-0.7-1-2-0.3-2.9c0.3-0.3,0.5-0.7,0.8-1
			c0.7-0.9,1.9-1.1,2.8-0.4c0.9,0.7,1.1,1.9,0.4,2.8c-0.3,0.4-0.6,0.8-0.9,1.1C490.5,209,489.9,209.2,489.3,209.2z M493.7,202.4
			c-0.3,0-0.6-0.1-0.9-0.2c-1-0.5-1.4-1.7-0.9-2.7c0.2-0.4,0.4-0.8,0.5-1.1c0.4-1,1.6-1.5,2.7-1.1c1,0.4,1.5,1.6,1.1,2.7
			c-0.2,0.4-0.4,0.9-0.6,1.3C495.2,202,494.5,202.4,493.7,202.4z M496.2,194.8c-0.1,0-0.2,0-0.3,0c-0.8-0.1-1.5-0.8-1.7-1.6
			c-0.4,0.1-0.8,0.1-1.3,0.2c-1.1,0.1-2.1-0.7-2.2-1.9c-0.1-1.1,0.7-2.1,1.9-2.2c0.4,0,0.8-0.1,1.1-0.1c0.6-0.1,1.2,0.1,1.7,0.5
			c0.3-0.2,0.7-0.3,1.1-0.2c1.1,0.1,1.9,1.1,1.8,2.2c-0.1,0.5-0.1,1-0.2,1.4C498.1,194.1,497.2,194.8,496.2,194.8z M486.2,192.1
			c-0.3,0-0.6-0.1-0.8-0.2c-0.4-0.2-0.9-0.4-1.3-0.6c-1-0.5-1.4-1.7-0.9-2.7c0.5-1,1.7-1.4,2.7-0.9c0.4,0.2,0.7,0.4,1.1,0.5
			c1,0.5,1.5,1.7,1,2.7C487.8,191.7,487,192.1,486.2,192.1z M500.4,190.7c-0.7,0-1.4-0.4-1.7-1c-0.6-1-0.3-2.2,0.7-2.8
			c0.3-0.2,0.7-0.4,1-0.7c0.9-0.6,2.2-0.4,2.8,0.5c0.6,0.9,0.4,2.2-0.5,2.8c-0.4,0.3-0.8,0.6-1.2,0.8
			C501.1,190.6,500.8,190.7,500.4,190.7z M479.5,187.6c-0.5,0-1-0.2-1.4-0.6c-0.4-0.3-0.7-0.7-1-1c-0.8-0.8-0.7-2.1,0.1-2.9
			c0.8-0.8,2.1-0.7,2.9,0.1c0.3,0.3,0.6,0.6,0.9,0.9c0.8,0.8,0.9,2,0.1,2.9C480.6,187.4,480.1,187.6,479.5,187.6z M496.3,186.7
			c-1,0-1.8-0.7-2-1.7c-0.1-0.4-0.1-0.8-0.2-1.2c-0.2-1.1,0.5-2.2,1.6-2.4c1.1-0.2,2.2,0.5,2.4,1.6c0.1,0.5,0.2,1,0.3,1.4
			c0.2,1.1-0.6,2.1-1.7,2.3C496.5,186.7,496.4,186.7,496.3,186.7z M506.6,185.5c-0.5,0-1-0.2-1.4-0.6c-0.8-0.8-0.8-2.1-0.1-2.9
			c0.3-0.3,0.6-0.6,0.9-0.9c0.7-0.8,2-0.9,2.9-0.2c0.8,0.7,0.9,2,0.2,2.9c-0.3,0.4-0.6,0.7-1,1.1
			C507.7,185.3,507.2,185.5,506.6,185.5z M474.8,181.1c-0.8,0-1.5-0.5-1.9-1.2c-0.2-0.5-0.4-1-0.5-1.5c-0.3-1.1,0.3-2.2,1.4-2.5
			c1.1-0.3,2.2,0.3,2.5,1.4c0.1,0.4,0.2,0.7,0.4,1.1c0.4,1-0.1,2.2-1.1,2.7C475.3,181,475.1,181.1,474.8,181.1z M511.6,179.2
			c-0.4,0-0.8-0.1-1.1-0.3c-0.9-0.6-1.2-1.9-0.6-2.8c0.2-0.4,0.5-0.7,0.7-1.1c0.6-0.9,1.9-1.2,2.8-0.6c0.9,0.6,1.2,1.8,0.6,2.8
			c-0.3,0.4-0.5,0.8-0.8,1.2C512.9,178.8,512.3,179.2,511.6,179.2z M494,178.9c-0.8,0-1.5-0.5-1.9-1.2c-0.2-0.4-0.4-0.8-0.5-1.1
			c-0.5-1-0.1-2.2,0.9-2.7c1-0.5,2.2-0.1,2.7,0.9c0.2,0.4,0.4,0.9,0.6,1.3c0.5,1,0,2.2-1,2.7C494.5,178.9,494.3,178.9,494,178.9z
			 M474.6,173.2c-0.3,0-0.5-0.1-0.8-0.2c-1-0.4-1.5-1.6-1.1-2.7c0.1-0.1,0.1-0.3,0.2-0.4c0.2-0.4,0.4-0.7,0.6-1.1
			c0.6-0.9,1.8-1.2,2.8-0.7c1,0.6,1.2,1.8,0.7,2.8c-0.1,0.2-0.3,0.4-0.4,0.7l-0.1,0.2C476.2,172.7,475.4,173.2,474.6,173.2z
			 M489.5,172.2c-0.5,0-1-0.2-1.4-0.6c-0.3-0.3-0.6-0.5-0.9-0.8c-0.9-0.7-1-2-0.3-2.8c0.7-0.9,2-1,2.9-0.3c0.4,0.3,0.8,0.7,1.2,1
			c0.8,0.8,0.8,2.1,0,2.9C490.6,172,490.1,172.2,489.5,172.2z M515.7,172.1c-0.3,0-0.6-0.1-0.9-0.2c-1-0.5-1.4-1.7-0.9-2.7
			c0.2-0.4,0.4-0.8,0.6-1.2c0.5-1,1.7-1.5,2.7-1c1,0.5,1.5,1.7,1,2.7c-0.2,0.4-0.4,0.8-0.6,1.3C517.2,171.7,516.4,172.1,515.7,172.1
			z M481,169c-1,0-1.9-0.8-2-1.8c-0.1-1.1,0.7-2.1,1.8-2.2c0.2,0,0.3,0,0.5,0c0.3,0,0.6,0,0.9,0l0.2,0c1.1,0,2,1,2,2.1
			c0,1.1-0.9,2-2,2c0,0-0.1,0-0.1,0c-0.3,0-0.5,0-0.7,0l-0.4,0C481.1,169,481.1,169,481,169z M518.8,164.6c-0.2,0-0.4,0-0.7-0.1
			c-1.1-0.4-1.6-1.5-1.3-2.6c0.1-0.4,0.3-0.8,0.4-1.2c0.3-1.1,1.5-1.7,2.5-1.3c1.1,0.3,1.7,1.5,1.3,2.5c-0.1,0.4-0.3,0.9-0.4,1.3
			C520.4,164.1,519.6,164.6,518.8,164.6z M520.8,156.8c-0.1,0-0.3,0-0.4,0c-1.1-0.2-1.8-1.3-1.6-2.4c0.1-0.4,0.2-0.9,0.2-1.3
			c0.2-1.1,1.2-1.9,2.3-1.7c1.1,0.2,1.8,1.2,1.7,2.3c-0.1,0.5-0.2,0.9-0.2,1.4C522.6,156.1,521.8,156.8,520.8,156.8z"/>
	</g>
	<g>
		<g>
			<g>
				<g>
					<g>
						<g>
							<rect x="149.7" y="308.4" class="st8" width="293.7" height="168.5"/>
							<rect x="156.7" y="312.7" class="st9" width="276.2" height="167.6"/>
							<g>
								<path class="st10" d="M453,308.9c0.1-8.4-8-15.3-17.9-15.2L155.1,294c-9.7,0-18,6.9-17.9,15.2l0.2,174.5h316L453,308.9z
									 M154.7,476.1l-0.4-165.3l281.1-0.4l0.2,165.4L154.7,476.1z"/>
								<path class="st10" d="M137.4,483.7v4c0,8.4,8.2,15.1,18,15.1l280-0.3c9.9,0,18-6.8,18-15.2l0-3.6l-162.6-2.5L137.4,483.7z"
									/>
							</g>
						</g>
					</g>
				</g>
			</g>
			<g>
				<g>
					<path class="st11" d="M465.9,500.2c-38.8,0-87.5,0-169.8-0.1c-82.3,0-131,0.1-169.8,0.1c-3.1,0-12.3,3.4-7.1,13.1
						c3.7,7,7.1,11.5,15.6,11.5h161.3h161.3c8.5,0,11.9-4.6,15.6-11.5C478.2,503.6,469,500.2,465.9,500.2z"/>
				</g>
				<path class="st10" d="M119.2,513.3C119.2,513.3,119.2,513.3,119.2,513.3c3.7,7,7.1,11.6,15.6,11.6h322.6
					c8.5,0,11.9-4.6,15.6-11.5c0,0,0,0,0,0H119.2z"/>
			</g>
		</g>
		<g>
			<rect x="156.7" y="312.7" class="st5" width="276.2" height="11.4"/>
		</g>
		<g>
			<g>
				<rect x="167.8" y="333.9" class="st12" width="252.1" height="28.8"/>
			</g>
			<g>
				<rect x="167.8" y="372.4" class="st12" width="137.2" height="35.9"/>
			</g>
			<g>
				<g>
					<g>
						<g>
							<g>
								<rect x="362.9" y="372.3" class="st12" width="57" height="3.5"/>
								<rect x="362.9" y="383.2" class="st12" width="16.1" height="3.5"/>
								<rect x="381.4" y="383.2" class="st12" width="38.5" height="3.5"/>
								<rect x="362.9" y="399.4" class="st12" width="30.3" height="3.5"/>
								<rect x="362.9" y="392.2" class="st12" width="57" height="14.3"/>
							</g>
						</g>
					</g>
					<g>
						<rect x="316.2" y="372.4" class="st12" width="38.8" height="35.9"/>
					</g>
				</g>
				<g>
					<g>
						<g>
							<g>
								<rect x="167.8" y="422.6" class="st12" width="137.2" height="14.3"/>
								<rect x="167.8" y="444.2" class="st12" width="68.6" height="3.5"/>
								<rect x="167.8" y="444.2" class="st12" width="137.2" height="3.5"/>
								<rect x="167.8" y="455" class="st12" width="38.4" height="3.5"/>
							</g>
						</g>
					</g>
				</g>
				<g>
					<g>
						<g>
							<rect x="362.9" y="428.8" class="st12" width="33.4" height="3.5"/>
							<rect x="362.9" y="423.4" class="st12" width="57" height="14.3"/>
							<rect x="362.9" y="443.7" class="st12" width="57" height="3.5"/>
							<rect x="362.9" y="454.4" class="st12" width="40.9" height="3.5"/>
							<rect x="406.6" y="454.4" class="st12" width="14.4" height="3.5"/>
						</g>
					</g>
				</g>
				<g>
					<rect x="316.2" y="423.4" class="st12" width="38.8" height="35.9"/>
				</g>
			</g>
		</g>
	</g>
	<g>
		<path class="st6" d="M397.9,205.3C397.9,205.3,397.8,205.3,397.9,205.3c-1.2-0.1-2.1-1-2-2.1l0.1-1.4c0.1-1.1,1-2,2.1-1.9
			c1.1,0.1,2,1,1.9,2.1l-0.1,1.3C399.9,204.5,399,205.3,397.9,205.3z M398.4,197.3c-0.1,0-0.1,0-0.2,0c-1.1-0.1-1.9-1.1-1.8-2.2
			c0-0.5,0.1-0.9,0.1-1.4c0.1-1.1,1.1-1.9,2.2-1.8c1.1,0.1,1.9,1.1,1.8,2.2c0,0.4-0.1,0.9-0.1,1.3
			C400.3,196.5,399.4,197.3,398.4,197.3z M399.3,189.2c-0.1,0-0.2,0-0.3,0c-1.1-0.2-1.9-1.2-1.7-2.3c0.1-0.5,0.1-0.9,0.2-1.4
			c0.2-1.1,1.2-1.8,2.3-1.7c1.1,0.2,1.8,1.2,1.7,2.3c-0.1,0.4-0.1,0.9-0.2,1.3C401.2,188.5,400.3,189.2,399.3,189.2z M400.9,181.3
			c-0.2,0-0.3,0-0.5-0.1c-1.1-0.3-1.8-1.4-1.5-2.4c0.1-0.5,0.2-0.9,0.3-1.3c0.3-1.1,1.4-1.7,2.5-1.4c1.1,0.3,1.7,1.4,1.4,2.5
			c-0.1,0.4-0.2,0.9-0.3,1.3C402.7,180.6,401.8,181.3,400.9,181.3z M403.3,173.5c-0.2,0-0.5,0-0.7-0.1c-1.1-0.4-1.6-1.5-1.2-2.6
			c0.2-0.4,0.3-0.9,0.5-1.3c0.4-1.1,1.6-1.6,2.6-1.2c1,0.4,1.6,1.6,1.2,2.6c-0.2,0.4-0.3,0.8-0.5,1.2
			C404.9,173,404.1,173.5,403.3,173.5z M406.4,166.1c-0.3,0-0.6-0.1-0.9-0.2c-1-0.5-1.4-1.7-0.9-2.7c0.2-0.4,0.4-0.8,0.6-1.2
			c0.5-1,1.7-1.4,2.7-0.9c1,0.5,1.4,1.7,0.9,2.7c-0.2,0.4-0.4,0.8-0.6,1.2C407.9,165.6,407.2,166.1,406.4,166.1z M410.4,159
			c-0.4,0-0.8-0.1-1.1-0.3c-0.9-0.6-1.2-1.9-0.6-2.8c0.2-0.4,0.5-0.8,0.8-1.2c0.6-0.9,1.9-1.2,2.8-0.6c0.9,0.6,1.2,1.9,0.6,2.8
			c-0.2,0.4-0.5,0.7-0.7,1.1C411.7,158.7,411.1,159,410.4,159z M415.1,152.4c-0.4,0-0.9-0.1-1.2-0.4c-0.9-0.7-1-2-0.4-2.8
			c0.3-0.4,0.6-0.7,0.9-1.1c0.7-0.9,2-1,2.8-0.3c0.9,0.7,1,2,0.3,2.8c-0.3,0.4-0.6,0.7-0.8,1C416.3,152.1,415.7,152.4,415.1,152.4z
			 M420.2,146.1c-0.4,0-0.9-0.1-1.3-0.5c-0.9-0.7-1-2-0.3-2.8l0.8-1c0.7-0.9,2-1,2.8-0.3c0.9,0.7,1,2,0.3,2.8l-0.9,1.1
			C421.4,145.8,420.8,146.1,420.2,146.1z M425.2,139.7c-0.4,0-0.8-0.1-1.2-0.4c-0.9-0.7-1.1-1.9-0.4-2.8c0.3-0.4,0.5-0.7,0.8-1.1
			c0.7-0.9,1.9-1.1,2.8-0.5c0.9,0.7,1.1,1.9,0.5,2.8c-0.3,0.4-0.5,0.7-0.8,1.1C426.4,139.4,425.8,139.7,425.2,139.7z M429.7,133
			c-0.4,0-0.7-0.1-1-0.3c-1-0.6-1.3-1.8-0.7-2.8c0.2-0.4,0.4-0.8,0.7-1.1c0.6-1,1.8-1.3,2.8-0.7c1,0.6,1.3,1.8,0.7,2.8
			c-0.2,0.4-0.5,0.8-0.7,1.2C431.1,132.6,430.4,133,429.7,133z M433.4,125.8c-0.3,0-0.5-0.1-0.8-0.2c-1-0.4-1.5-1.6-1.1-2.7
			c0.2-0.4,0.3-0.8,0.5-1.2c0.4-1,1.6-1.5,2.6-1.1c1,0.4,1.5,1.6,1.1,2.6c-0.2,0.4-0.4,0.9-0.5,1.3
			C435,125.3,434.2,125.8,433.4,125.8z M436,118.1c-0.2,0-0.3,0-0.5-0.1c-1.1-0.3-1.7-1.4-1.5-2.5c0.1-0.4,0.2-0.8,0.3-1.3
			c0.2-1.1,1.3-1.8,2.4-1.5c1.1,0.2,1.8,1.3,1.5,2.4c-0.1,0.5-0.2,0.9-0.3,1.4C437.7,117.5,436.9,118.1,436,118.1z M437.4,110.2
			c-0.1,0-0.2,0-0.2,0c-1.1-0.1-1.9-1.1-1.8-2.3c0.1-0.4,0.1-0.9,0.1-1.3c0.1-1.1,1.1-1.9,2.2-1.8c1.1,0.1,1.9,1.1,1.8,2.2
			c0,0.5-0.1,0.9-0.1,1.4C439.3,109.4,438.5,110.2,437.4,110.2z M438,102.1C438,102.1,437.9,102.1,438,102.1c-1.2,0-2-1-2-2.1
			c0-0.4,0-0.9,0-1.3c0-1.1,0.9-2,2-2c1.1,0,2,0.9,2,2.1c0,0.5,0,0.9,0,1.3C440,101.2,439.1,102.1,438,102.1z"/>
	</g>
	<g>
		<g>
			<g>
				<g>
					<path class="st3" d="M412.5,209.5C412.5,209.5,412.5,209.5,412.5,209.5L412.5,209.5L412.5,209.5z"/>
				</g>
				<g>
					<path class="st3" d="M412,207.1c-0.1,0.8-0.1,1.4,0.2,2c2.3-1.3,20.1-12.3,20.1-12.3L414,180.9L412,207.1z"/>
					<path class="st3" d="M464.9,185.2L444,197.7c0,0,16.5,13.8,18.1,15.1c0.5-0.5,0.7-1.1,0.8-2L464.9,185.2z"/>
					<g>
						<path class="st3" d="M442.4,198.8l-1.5,0.9c0,0-0.1,0.1-0.2,0.1c-0.9,0.4-1.9,0.7-2.9,0.6c-1.1-0.1-2-0.5-2.8-1
							c0,0-0.1-0.1-0.2-0.1l-1.2-1c0,0-16.7,9.5-20.8,11.8c0.6,0.5,1.2,0.7,2.1,0.8l21.9,1.8l22,1.5c0.8,0.1,1.6-0.1,2.3-0.5
							C458.4,211.2,442.4,198.8,442.4,198.8z"/>
						<path class="st3" d="M435.5,196.8c0.7,0.6,1.7,0.9,2.7,1.1c1,0.1,2-0.1,2.8-0.6c0,0,24-13.7,24-13.7s0,0-0.1-0.1c0,0,0,0,0,0
							c-0.7-0.7-1.5-1.2-2.5-1.3l-45.6-3.7c-1-0.1-1.9,0.2-2.6,0.8c-0.1,0-0.1,0.1-0.1,0.1C414.1,179.4,435.5,196.8,435.5,196.8z"/>
					</g>
				</g>
			</g>
		</g>
	</g>
	<path class="st6" d="M401.3,202.9c0,1.9-1.5,3.4-3.4,3.4s-3.4-1.5-3.4-3.4c0-1.9,1.5-3.4,3.4-3.4S401.3,201.1,401.3,202.9z"/>
	<circle class="st6" cx="438" cy="98.7" r="3.4"/>
	<path class="st6" d="M524.5,153.4c0,1.9-1.5,3.4-3.4,3.4c-1.9,0-3.4-1.5-3.4-3.4c0-1.9,1.5-3.4,3.4-3.4
		C523,150,524.5,151.6,524.5,153.4z"/>
	<path class="st6" d="M524.5,265.8c0,1.9-1.5,3.4-3.4,3.4c-1.9,0-3.4-1.5-3.4-3.4c0-1.9,1.5-3.4,3.4-3.4
		C523,262.4,524.5,263.9,524.5,265.8z"/>
	<path class="st6" d="M275.5,92.5c0,1.9-1.5,3.4-3.4,3.4c-1.9,0-3.4-1.5-3.4-3.4c0-1.9,1.5-3.4,3.4-3.4
		C274,89.1,275.5,90.6,275.5,92.5z"/>
	<path class="st6" d="M240.2,216.6c0,1.9-1.5,3.4-3.4,3.4s-3.4-1.5-3.4-3.4s1.5-3.4,3.4-3.4S240.2,214.8,240.2,216.6z"/>
	<path class="st6" d="M126.6,146.5c0,1.9-1.5,3.4-3.4,3.4s-3.4-1.5-3.4-3.4c0-1.9,1.5-3.4,3.4-3.4S126.6,144.6,126.6,146.5z"/>
	<path class="st6" d="M81.2,257.6c0.3,1.9-1,3.6-2.9,3.9c-1.9,0.3-3.6-1-3.9-2.9c-0.3-1.9,1-3.6,2.9-3.9
		C79.1,254.5,80.9,255.7,81.2,257.6z"/>
	<g>
		<g>
			
				<rect x="170.5" y="181.6" transform="matrix(0.9814 -0.1918 0.1918 0.9814 -31.708 36.4903)" class="st5" width="4.4" height="0.8"/>
			<polygon class="st5" points="195.5,177.2 191.2,178 191.3,178.9 195.6,178 			"/>
			<g>
				<g>
					<path class="st5" d="M202.1,147.7l-35.9,7c-0.8,0.3-3.6,0.8-6.2,1.2l-6.3,1.2c-2.2,0.9-1.6,4.4,0.9,4.5c0.5,0,0.7,0.8,0.9,1.3
						c0.5,1.1,5.5,12.8,7.7,17.4c0.8,1.9,2.9,3,5,2.6l26.9-5.2c1.7-0.3,3.7-0.4,5-1.7c1.7-1.6,1.4-4.2,1.5-6.3
						c0.2-4.5,0.7-15.9,0.8-17.1c0-0.2,0.2-0.1,0.4-0.2c0.8-0.2,1.4-0.8,1.6-1.6C204.6,149.2,203.5,147.8,202.1,147.7z M171.2,177.6
						c0.4,2-2.7,2.4-3,0.5l-2.9-14.8c-0.4-2,2.7-2.3,3.1-0.4L171.2,177.6z M177,176.2c0.1,0.3,0.1,0.6,0.1,1
						c-0.3,1.4-2.4,1.5-2.9,0.3c-0.3-0.7-2.7-13.6-2.9-14.8c0-0.2-0.1-0.5-0.1-0.7c0-1.2,1.5-1.9,2.5-1.2c0.3,0.2,0.5,0.5,0.5,0.8
						L177,176.2z M183.4,176c-0.3,1.4-2.4,1.6-2.9,0.3c-0.3-0.7-2.7-13.6-2.9-14.8c0-0.2-0.1-0.5-0.1-0.8c0-1.2,1.5-1.9,2.5-1.2
						c0.3,0.2,0.5,0.5,0.5,0.8l2.8,14.6C183.4,175.3,183.5,175.6,183.4,176z M189.6,173.8c0.1,0.3,0.1,0.6,0.1,1
						c-0.3,1.4-2.4,1.6-2.9,0.3c-0.3-0.7-2.7-13.6-2.9-14.8c0-0.2-0.1-0.5-0.1-0.8c0-1.2,1.5-1.9,2.5-1.2c0.3,0.2,0.5,0.5,0.5,0.8
						L189.6,173.8z M195.6,174.1c-0.2,0.3-0.6,0.5-1,0.6c-1.6,0.3-1.8-1.2-2-2.2l-2.5-12.6c-0.2-0.9-0.6-2.1,0.5-2.7
						c1.5-0.9,2.2,0.6,2.4,1.7l2.4,12.5C195.7,172.2,196.1,173.3,195.6,174.1z"/>
				</g>
			</g>
			<g>
				<path class="st5" d="M155.3,162.6l47-9.1c0-0.4,0-0.7,0-0.9c0-0.3,0.2-0.2,0.4-0.3c0.3-0.1,0.6-0.4,0.9-0.7l-49.8,9.7
					c0.3,0.2,0.6,0.3,0.9,0.3C155,161.7,155.2,162.1,155.3,162.6z"/>
			</g>
			<g>
				<path class="st5" d="M169.3,153.9c0.8-2.2,3.5-9.3,4-10.7c0.1-0.3,0.3-0.7,0.4-1c0,0,0-0.1,0.1-0.1c0.7-0.2,1.2-0.8,1.4-1.5
					c0.6-2.8-3.9-3.6-4.2-0.7c0,0.5,0.1,1.1,0.4,1.5c0,0,0,0.1,0,0.1c-0.1,0.4-0.3,0.7-0.4,1.1c-1.1,2.9-4,10.7-4.4,11.7
					c0,0.1-0.2,0.4-0.3,0.4L169.3,153.9z"/>
				<path class="st5" d="M189,150c-1.8-2-7.4-8-8.4-9.1c-0.3-0.3-0.5-0.6-0.8-0.9c-0.3-0.4-0.1-0.8-0.3-1.3
					c-0.5-1.4-2.3-1.9-3.4-0.9c-1.2,1.1-0.7,3.1,0.8,3.6c0.8,0.3,0.8,0,1.3,0.6c0.5,0.6,5.9,6.4,8.1,8.8l3-0.6
					C189.1,150.1,189,150,189,150z"/>
			</g>
		</g>
		<g>
			<g>
				<path class="st5" d="M201.5,147.7c0,0-42.2,8.2-45.2,8.8c-0.8,0.2-1.6,0.2-2.4,0.5c-2.5,0.8-1.9,4.6,0.7,4.6
					c0.2,0,47.9-9.2,48-9.3c0.8-0.2,1.4-0.8,1.6-1.6C204.6,149,203.2,147.4,201.5,147.7z"/>
			</g>
		</g>
	</g>
	<g>
		<path class="st2" d="M455.6,446.5c1,1.1,3.1,0.4,4.9-1.2c1-0.8,2.9-2.8,3.7-3.8c1.3-1.8,2-3.9,0.9-5l-20.9-20
			c-1.1-1-3-0.9-4.7,0.9c-1,1-3.1,3.2-4.3,4.5c-1.6,1.7-1.6,3.5-0.6,4.6L455.6,446.5z"/>
		<g>
			<path class="st2" d="M444.2,426.3c-24.3,25.3-64.8,26.2-90.1,1.8c-10.6-10.1-17.3-23.7-19.1-38.3c-2.3-19.1,4-38,17.3-51.8
				c11.8-12.3,27.6-19.2,44.6-19.6c17-0.4,33.2,6,45.4,17.7c10.6,10.2,17.4,23.8,19.2,38.4C463.7,393.6,457.4,412.5,444.2,426.3z
				 M362.1,419.8c20.8,19.8,53.7,19.2,73.6-1.5c10.8-11.3,16-26.8,14.1-42.3c-1.4-11.9-7-23-15.7-31.3
				c-20.7-19.8-53.7-19.2-73.6,1.5c-10.9,11.3-16.1,26.7-14.1,42.3C347.9,400.3,353.4,411.4,362.1,419.8z"/>
		</g>
		<g class="st13">
			<path class="st14" d="M362.1,419.8c20.8,19.8,53.7,19.2,73.6-1.5c10.8-11.3,16-26.8,14.1-42.3c-1.4-11.9-7-23-15.7-31.3
				c-20.7-19.8-53.7-19.2-73.6,1.5c-10.9,11.3-16.1,26.7-14.1,42.3C347.9,400.3,353.4,411.4,362.1,419.8z"/>
		</g>
		<g>
			<g>
				<path class="st2" d="M449.8,440.5c2.4-2.6,6.8-7.3,8.9-9.4c3.7-3.9,8-3.8,10.8-1.2c0,0,42,40.1,41.9,40.1
					c-2.7-2.5-23.2,18.2-20.3,21l-41.8-40C446.5,448.4,446.4,444.1,449.8,440.5z"/>
			</g>
			<path class="st2" d="M514.6,473.2c1.9,1.9,2,4.7,1,7.5c-0.3,0.8-0.7,1.6-1.1,2.4c-0.3,0.5-0.6,1-0.9,1.5
				c-1.6,2.3-5.7,6.4-7.9,8.2c-3.7,3.1-8.4,4.3-11.2,1.6C491.5,491.4,512,470.7,514.6,473.2z"/>
		</g>
	</g>
</g>
</svg>
