<?xml version="1.0" encoding="utf-8"?>
<!-- Generator: Adobe Illustrator 24.2.3, SVG Export Plug-In . SVG Version: 6.00 Build 0)  -->
<svg version="1.1" id="_x2014_ÎÓÈ_x5F_1" xmlns="http://www.w3.org/2000/svg" xmlns:xlink="http://www.w3.org/1999/xlink"
	 x="0px" y="0px" viewBox="0 0 600 650" style="enable-background:new 0 0 600 650;" xml:space="preserve">
<style type="text/css">
	.st0{fill:#004D71;}
	.st1{fill:#FF5C35;}
	.st2{fill:#FFFFFF;}
	.st3{fill:#5B6670;}
	.st4{fill:#93D500;}
	.st5{fill:#323E48;}
	.st6{fill:#8F4899;}
	.st7{fill:#F15A24;}
	.st8{fill:#00A0DF;}
	.st9{fill:#F5A800;}
</style>
<g>
	<g>
		<g>
			
				<rect x="110.6" y="89" transform="matrix(0.7988 -0.6016 0.6016 0.7988 -22.4309 112.4293)" class="st0" width="92.5" height="1.5"/>
		</g>
		<g>
			
				<rect x="45.7" y="176.7" transform="matrix(0.213 -0.9771 0.9771 0.213 -89.2441 244.1091)" class="st0" width="122.5" height="1.5"/>
		</g>
		<g>
			
				<rect x="137.4" y="198.5" transform="matrix(0.1285 -0.9917 0.9917 0.1285 -120.6656 348.7468)" class="st0" width="1.5" height="89.1"/>
		</g>
		<g>
			
				<rect x="141.4" y="287.6" transform="matrix(3.112178e-02 -0.9995 0.9995 3.112178e-02 -112.8185 460.3728)" class="st0" width="79.3" height="1.5"/>
		</g>
		<g>
			
				<rect x="110.4" y="338" transform="matrix(0.9531 -0.3027 0.3027 0.9531 -95.6939 60.0638)" class="st0" width="71.2" height="1.5"/>
		</g>
		<g>
			<polygon class="st0" points="185.6,440.1 111.5,350 112.6,349.1 186.7,439.2 			"/>
		</g>
		<g>
			
				<rect x="172.3" y="411.1" transform="matrix(0.6015 -0.7988 0.7988 0.6015 -246.4367 329.5841)" class="st0" width="69.7" height="1.5"/>
		</g>
		<g>
			
				<rect x="277.8" y="345.6" transform="matrix(0.2663 -0.9639 0.9639 0.2663 -179.147 560.4496)" class="st0" width="1.5" height="104.6"/>
		</g>
		<g>
			
				<rect x="277" y="446.5" transform="matrix(0.3673 -0.9301 0.9301 0.3673 -216.6095 575.9669)" class="st0" width="76" height="1.5"/>
		</g>
		<g>
			
				<rect x="241.3" y="500.2" transform="matrix(0.8273 -0.5618 0.5618 0.8273 -234.1185 240.4991)" class="st0" width="65.5" height="1.5"/>
		</g>
		<g>
			
				<rect x="301.2" y="466.3" transform="matrix(3.440545e-02 -0.9994 0.9994 3.440545e-02 -229.3983 805.1334)" class="st0" width="1.5" height="110"/>
		</g>
		<g>
			<polygon class="st0" points="357.5,523.7 356.4,522.7 427,447 428,448 			"/>
		</g>
		<g>
			
				<rect x="377.5" y="377.2" transform="matrix(0.34 -0.9404 0.9404 0.34 -154.4157 639.236)" class="st0" width="1.5" height="104.8"/>
		</g>
		<g>
			
				<rect x="300.9" y="275.7" transform="matrix(0.9992 -4.105134e-02 4.105134e-02 0.9992 -11.0403 15.16)" class="st0" width="125.4" height="1.5"/>
		</g>
		<g>
			
				<rect x="240.9" y="202.6" transform="matrix(0.2465 -0.9691 0.9691 0.2465 -73.6342 432.9875)" class="st0" width="1.5" height="122.5"/>
		</g>
		<g>
			
				<rect x="159.8" y="211" transform="matrix(0.4612 -0.8873 0.8873 0.4612 -79.3454 292.8684)" class="st0" width="83.4" height="1.5"/>
		</g>
		<g>
			<polygon class="st0" points="300.4,279.4 220.1,175.2 221.3,174.3 301.6,278.5 			"/>
		</g>
		<g>
			
				<rect x="232.7" y="195" transform="matrix(0.1936 -0.9811 0.9811 0.1936 63.9395 469.3228)" class="st0" width="169.6" height="1.5"/>
		</g>
		<g>
			
				<rect x="369.9" y="98.9" transform="matrix(0.7549 -0.6558 0.6558 0.7549 -10.7078 281.0406)" class="st0" width="1.5" height="112"/>
		</g>
		<g>
			
				<rect x="405.5" y="182.4" transform="matrix(0.964 -0.2659 0.2659 0.964 -32.1932 128.3678)" class="st0" width="105.1" height="1.5"/>
		</g>
		<g>
			<polygon class="st0" points="508.1,169.5 448.5,98.1 449.6,97.2 509.2,168.6 			"/>
		</g>
		<g>
			<rect x="508" y="169.1" class="st0" width="1.5" height="98.8"/>
		</g>
		<g>
			<polygon class="st0" points="426.3,274.6 426.2,273.1 508.6,267.1 508.7,268.6 			"/>
		</g>
		<g>
			
				<rect x="200.7" y="330.7" transform="matrix(0.57 -0.8216 0.8216 0.57 -158.5772 359.9006)" class="st0" width="127.8" height="1.5"/>
		</g>
		<g>
			
				<rect x="197.4" y="140.6" transform="matrix(0.3454 -0.9385 0.9385 0.3454 19.8358 311.1894)" class="st0" width="71.2" height="1.5"/>
		</g>
		<g>
			
				<rect x="209.6" y="63.8" transform="matrix(0.1934 -0.9811 0.9811 0.1934 141.3903 301.091)" class="st0" width="88.5" height="1.5"/>
		</g>
		<g>
			
				<rect x="188.2" y="40.8" transform="matrix(0.8592 -0.5116 0.5116 0.8592 10.8705 122.5367)" class="st0" width="79.8" height="1.5"/>
		</g>
		<g>
			
				<rect x="299.5" y="-14.2" transform="matrix(6.795275e-02 -0.9977 0.9977 6.795275e-02 256.1466 321.6154)" class="st0" width="1.5" height="75.8"/>
		</g>
		<g>
			<rect x="372" y="0" transform="matrix(0.2705 -0.9627 0.9627 0.2705 237.1944 385.0851)" class="st0" width="1.5" height="72"/>
		</g>
		<g>
			<polygon class="st0" points="448.5,98.1 406.8,46.2 407.9,45.3 449.6,97.2 			"/>
		</g>
		<g>
			
				<rect x="169.6" y="88.2" transform="matrix(0.4935 -0.8698 0.8698 0.4935 -40.8913 222.1751)" class="st0" width="1.5" height="115.9"/>
		</g>
		<g>
			
				<rect x="289.3" y="65.9" transform="matrix(6.223089e-02 -0.9981 0.9981 6.223089e-02 161.4229 393.311)" class="st0" width="1.5" height="89.7"/>
		</g>
		<g>
			<polygon class="st0" points="335.3,114.1 334.3,113 406.9,45.2 407.9,46.3 			"/>
		</g>
		<g>
			<polygon class="st0" points="247.4,519.2 185.6,440.1 186.8,439.2 248.5,518.3 			"/>
		</g>
		<g>
			
				<rect x="102.2" y="236.6" transform="matrix(0.9872 -0.1594 0.1594 0.9872 -45.4543 20.1649)" class="st0" width="1.5" height="113.7"/>
		</g>
		<g>
			
				<rect x="383.5" y="306.9" transform="matrix(0.2305 -0.9731 0.9731 0.2305 22.4651 643.6251)" class="st0" width="69.4" height="1.5"/>
		</g>
		<g>
			<polygon class="st0" points="329.4,412.4 328.5,411.3 409.7,340.8 410.6,341.9 			"/>
		</g>
		<g>
			
				<rect x="400.6" y="397.8" transform="matrix(0.5356 -0.8445 0.8445 0.5356 -123.5599 572.3235)" class="st0" width="115.9" height="1.5"/>
		</g>
		<g>
			
				<rect x="457.2" y="308" transform="matrix(0.2268 -0.9739 0.9739 0.2268 85.3185 724.8386)" class="st0" width="83.9" height="1.5"/>
		</g>
		<g>
			<polygon class="st0" points="489.5,350.3 410.1,342.1 410.2,340.6 489.7,348.8 			"/>
		</g>
		<g>
			
				<rect x="287.1" y="237.3" transform="matrix(0.7929 -0.6094 0.6094 0.7929 -71.6897 265.1238)" class="st0" width="134.2" height="1.5"/>
		</g>
		<g>
			<polygon class="st0" points="508.3,268.4 406.9,197.7 407.8,196.5 509.1,267.2 			"/>
		</g>
	</g>
	<g>
		<g>
			<path class="st0" d="M362.1,584H245.8c-5.7,0-10.3-4.6-10.3-10.3v-5c0-5.7,4.6-10.3,10.3-10.3h116.4c5.7,0,10.3,4.6,10.3,10.3v5
				C372.4,579.3,367.8,584,362.1,584z"/>
		</g>
		<g>
			<path class="st0" d="M350.6,614.8h-93.4c-5.7,0-10.3-4.6-10.3-10.3v-5c0-5.7,4.6-10.3,10.3-10.3h93.4c5.7,0,10.3,4.6,10.3,10.3v5
				C360.9,610.2,356.3,614.8,350.6,614.8z"/>
		</g>
		<g>
			<path class="st0" d="M318.5,645.6h-29.1c-5.7,0-10.3-4.6-10.3-10.3v-5c0-5.7,4.6-10.3,10.3-10.3h29.1c5.7,0,10.3,4.6,10.3,10.3v5
				C328.8,641,324.1,645.6,318.5,645.6z"/>
		</g>
	</g>
	<g>
		<g>
			<circle class="st1" cx="247" cy="519.4" r="31.8"/>
		</g>
		<g>
			<path class="st2" d="M247,498.6c-11.5,0-20.8,9.3-20.8,20.8c0,11.5,9.3,20.8,20.8,20.8c11.5,0,20.8-9.3,20.8-20.8
				C267.8,507.9,258.5,498.6,247,498.6z M247.9,528.1v-7.8h9.1c-0.1,2.9-0.5,5.8-1.2,8.6C253.3,528.4,250.6,528.1,247.9,528.1z
				 M238.2,529.4c-0.8-3-1.2-6-1.3-9.1h9.1v7.9C243.4,528.3,240.8,528.7,238.2,529.4z M245.8,510.7c0.1,0,0.2,0,0.3,0v7.8h-9.1
				c0.1-2.9,0.5-5.8,1.2-8.6C240.6,510.4,243.2,510.7,245.8,510.7z M247.9,518.4v-7.9c2.6-0.1,5.3-0.5,7.8-1.2c0.8,3,1.2,6,1.3,9.1
				H247.9z M257.1,507.1c-0.5-1.6-1.1-3.2-1.9-4.7c1.9,0.9,3.6,2.1,5,3.6C259.2,506.4,258.1,506.7,257.1,507.1z M255.2,507.6
				c-2.4,0.6-4.8,1-7.3,1.1v-8.2c1.6,0.1,3.1,0.3,4.6,0.8C253.6,503.3,254.5,505.4,255.2,507.6z M246,508.8c-2.5,0-5-0.2-7.4-0.7
				c0.7-2.4,1.7-4.6,2.9-6.7c1.5-0.4,3-0.7,4.6-0.8V508.8z M235,518.4h-6.9c0.2-3.9,1.5-7.4,3.7-10.4c1.4,0.5,2.9,1,4.4,1.3
				C235.5,512.4,235.1,515.4,235,518.4z M235,520.3c0.1,3.2,0.5,6.4,1.4,9.6c-1.3,0.4-2.7,0.9-4,1.5c-2.5-3-4-6.9-4.2-11H235z
				 M236.9,531.7c0.5,1.6,1.1,3.2,1.9,4.7c-1.9-0.9-3.6-2.1-5-3.6C234.8,532.4,235.8,532,236.9,531.7z M238.7,531.2
				c2.4-0.6,4.8-1,7.3-1.1v8.2c-1.6-0.1-3.1-0.3-4.6-0.8C240.4,535.5,239.4,533.4,238.7,531.2z M247.9,530c2.5,0,5,0.2,7.4,0.7
				c-0.7,2.4-1.7,4.6-2.9,6.7c-1.5,0.4-3,0.7-4.6,0.8V530z M259,520.3h6.9c-0.2,3.9-1.5,7.4-3.7,10.4c-1.4-0.5-2.9-1-4.4-1.3
				C258.5,526.4,258.9,523.4,259,520.3z M259,518.4c-0.1-3.2-0.5-6.4-1.4-9.6c1.3-0.4,2.7-0.9,4-1.5c2.5,3,4,6.9,4.2,11H259z
				 M238.8,502.4c-0.8,1.7-1.5,3.4-2,5.2c-1.2-0.3-2.4-0.7-3.6-1.1C234.7,504.8,236.6,503.4,238.8,502.4z M255.2,536.4
				c0.8-1.7,1.5-3.4,2-5.2c1.2,0.3,2.4,0.7,3.6,1.1C259.2,533.9,257.3,535.4,255.2,536.4z"/>
		</g>
	</g>
	<g>
		<g>
			<path class="st3" d="M306.9,140.5c-14.9-14.9-14.9-39.1,0-54c14.9-14.9,39.1-14.9,54,0c14.9,14.9,14.9,39.1,0,54
				C346,155.4,321.8,155.4,306.9,140.5z"/>
		</g>
		<g>
			<g>
				<polygon class="st2" points="358,99.5 333.9,112.6 309.9,99.5 				"/>
			</g>
			<g>
				<polygon class="st2" points="333,113.5 308.9,126.6 308.9,100.5 				"/>
			</g>
			<g>
				<polygon class="st2" points="358,127.6 309.9,127.6 333.9,114.5 				"/>
			</g>
			<g>
				<polygon class="st2" points="358.9,100.5 358.9,126.6 334.9,113.5 				"/>
			</g>
		</g>
	</g>
	<g>
		<g>
			<circle class="st4" cx="410.2" cy="341.4" r="38.6"/>
		</g>
		<g>
			<path class="st2" d="M434.1,360.7l-17-17c1.9-2.8,3-6.2,3-9.9c0-9.7-7.8-17.6-17.4-17.6c-9.6,0-17.4,7.9-17.4,17.6
				c0,9.7,7.8,17.6,17.4,17.6c3.5,0,6.8-1.1,9.6-2.9l17,17c0.7,0.7,1.5,1,2.4,1c0.9,0,1.7-0.3,2.4-1
				C435.4,364.2,435.4,362,434.1,360.7z M390.3,333.8c0-6.9,5.5-12.5,12.3-12.5c6.8,0,12.3,5.6,12.3,12.5c0,6.9-5.5,12.5-12.3,12.5
				C395.9,346.3,390.3,340.7,390.3,333.8z"/>
		</g>
	</g>
	<g>
		<g>
			<circle class="st5" cx="179.2" cy="327.2" r="34.3"/>
		</g>
		<g>
			<g>
				<g>
					<path class="st2" d="M196,349.5h-33.5V305H196V349.5z M164.1,347.9h30.2v-41.3h-30.2V347.9z"/>
				</g>
			</g>
			<g>
				<g>
					<rect x="167" y="309.9" class="st2" width="24.5" height="5.8"/>
				</g>
			</g>
			<g>
				<g>
					<g>
						<rect x="171.6" y="319.7" class="st2" width="15.3" height="0.8"/>
					</g>
				</g>
			</g>
			<g>
				<g>
					<g>
						<rect x="167" y="328" class="st2" width="24.5" height="0.8"/>
					</g>
				</g>
			</g>
			<g>
				<g>
					<g>
						<rect x="167" y="323.8" class="st2" width="24.5" height="0.8"/>
					</g>
				</g>
			</g>
			<g>
				<g>
					<g>
						<rect x="167" y="344.7" class="st2" width="24.5" height="0.8"/>
					</g>
				</g>
			</g>
			<g>
				<g>
					<g>
						<rect x="167" y="332.2" class="st2" width="15.3" height="0.8"/>
					</g>
				</g>
			</g>
			<g>
				<g>
					<g>
						<rect x="167" y="340.5" class="st2" width="15.3" height="0.8"/>
					</g>
				</g>
			</g>
			<g>
				<g>
					<g>
						<rect x="167" y="336.3" class="st2" width="15.3" height="0.8"/>
					</g>
				</g>
			</g>
			<g>
				<g>
					<rect x="184.6" y="332.2" class="st2" width="6.8" height="9.2"/>
				</g>
			</g>
		</g>
	</g>
	<g>
		<g>
			<circle class="st6" cx="328.4" cy="411.4" r="38.2"/>
		</g>
		<g>
			<g>
				<rect x="303.5" y="411.4" class="st2" width="4.3" height="19.4"/>
			</g>
			<g>
				<rect x="311.1" y="401.3" class="st2" width="4.3" height="29.6"/>
			</g>
			<g>
				<rect x="318.7" y="391.9" class="st2" width="4.3" height="38.9"/>
			</g>
			<g>
				<rect x="326.2" y="407.9" class="st2" width="4.3" height="23"/>
			</g>
			<g>
				<rect x="333.8" y="397.3" class="st2" width="4.3" height="33.5"/>
			</g>
			<g>
				<rect x="341.4" y="404.8" class="st2" width="4.3" height="26.1"/>
			</g>
			<g>
				<rect x="348.9" y="391.9" class="st2" width="4.3" height="38.9"/>
			</g>
		</g>
	</g>
	<g>
		<g>
			<circle class="st0" cx="407.4" cy="197.1" r="43.1"/>
		</g>
		<g>
			<path class="st2" d="M407.4,169.1c-15.5,0-28,12.6-28,28c0,15.5,12.5,28,28,28c15.5,0,28-12.5,28-28
				C435.4,181.6,422.8,169.1,407.4,169.1z M395.6,212.1v-30l30.8,15L395.6,212.1z"/>
		</g>
	</g>
	<g>
		<g>
			
				<ellipse transform="matrix(0.7071 -0.7071 0.7071 0.7071 -108.0152 297.1182)" class="st1" cx="304.6" cy="278.9" rx="64.9" ry="64.9"/>
		</g>
		<g>
			<g>
				<polygon class="st2" points="326.9,248.7 326.9,261.3 292.6,261.3 292.6,289.2 291.5,289.2 272.8,305.2 272.8,289.2 
					262.4,289.2 262.4,248.7 				"/>
			</g>
			<g>
				<polygon class="st2" points="346.9,265.3 346.9,296.1 338.4,296.1 338.4,309.1 323.3,296.1 296.6,296.1 296.6,265.3 				"/>
			</g>
		</g>
	</g>
	<g>
		<g>
			<circle class="st7" cx="220.7" cy="174.8" r="36.2"/>
		</g>
		<g>
			<path class="st2" d="M243.2,171.7h-13.8c-0.6,0-1-0.4-1.1-1l-1.2-13.7c0-0.2-0.1-0.4-0.2-0.5l-2.5-3.6c-0.5-0.7-1.4-0.6-1.8,0.1
				l-10.3,17.9c-0.2,0.3-0.6,0.5-0.9,0.5h-2.9v-0.1c0-1.2-1-2.2-2.2-2.2h-8c-0.6,0-1.1,0.5-1.1,1.1V196c0,0.6,0.5,1.1,1.1,1.1h8
				c1.2,0,2.2-1,2.2-2.2v-0.1h28.3c0.5,0,0.9-0.3,1-0.8l6.5-20.9C244.5,172.4,243.9,171.7,243.2,171.7z"/>
		</g>
	</g>
	<g>
		<g>
			<circle class="st0" cx="93.9" cy="236.9" r="28.4"/>
		</g>
		<g>
			<g>
				<path class="st2" d="M93.9,218.3c-6.4,0-11.6,5.3-11.6,11.8c0,6.5,11.6,25.4,11.6,25.4s11.7-18.9,11.7-25.4
					C105.6,223.6,100.3,218.3,93.9,218.3z M93.9,237.3c-3.9,0-7.1-3.2-7.1-7.2c0-4,3.2-7.2,7.1-7.2s7.1,3.2,7.1,7.2
					C101,234.1,97.8,237.3,93.9,237.3z"/>
			</g>
		</g>
	</g>
	<g>
		<g>
			
				<ellipse transform="matrix(1 -9.439983e-03 9.439983e-03 1 -0.5756 1.8323)" class="st5" cx="193.8" cy="61.9" rx="26.9" ry="26.9"/>
		</g>
		<g>
			<path class="st2" d="M183.5,44.3v35.2h20.5V44.3H183.5z M188.9,45.7h9.9v0.9h-9.9V45.7z M193.8,78.6c-0.7,0-1.3-0.6-1.3-1.3
				s0.6-1.3,1.3-1.3c0.7,0,1.3,0.6,1.3,1.3S194.5,78.6,193.8,78.6z M203,75.2h-18.4V48.6H203V75.2z M202.3,46.8
				c-0.4,0-0.7-0.3-0.7-0.7c0-0.4,0.3-0.7,0.7-0.7c0.4,0,0.7,0.3,0.7,0.7C203,46.5,202.7,46.8,202.3,46.8z"/>
		</g>
	</g>
	<g>
		<g>
			<circle class="st4" cx="356.9" cy="523.2" r="28"/>
		</g>
		<g>
			<g>
				<path class="st2" d="M363.8,513.7v-8.9h-13.8v8.9c-2.8,2.2-4.6,5.6-4.6,9.4c0,3.9,1.8,7.3,4.6,9.4v8.9h13.8v-8.9
					c2.8-2.2,4.6-5.6,4.6-9.4C368.4,519.3,366.6,515.9,363.8,513.7z M362.2,531.4c-1.5,1-3.3,1.6-5.3,1.6c-2,0-3.8-0.6-5.3-1.6
					c-2.6-1.8-4.3-4.8-4.3-8.2c0-3.4,1.7-6.4,4.3-8.2c1.5-1,3.3-1.7,5.3-1.7c2,0,3.8,0.6,5.3,1.7c2.6,1.8,4.3,4.8,4.3,8.2
					C366.5,526.6,364.8,529.6,362.2,531.4z"/>
			</g>
			<g>
				<path class="st2" d="M356.9,521.2c-1.1,0-2,0.9-2,2c0,1.1,0.9,2,2,2c1.1,0,2-0.9,2-2C358.9,522.1,358,521.2,356.9,521.2z"/>
			</g>
			<g>
				<path class="st2" d="M356.9,516.1c-1.1,0-2,0.9-2,2c0,1.1,0.9,2,2,2s2-0.9,2-2C358.9,517,358,516.1,356.9,516.1z"/>
			</g>
			<g>
				<path class="st2" d="M352,521.2c-1.1,0-2,0.9-2,2c0,1.1,0.9,2,2,2s2-0.9,2-2C353.9,522.1,353.1,521.2,352,521.2z"/>
			</g>
			<g>
				<path class="st2" d="M356.9,526.3c-1.1,0-2,0.9-2,2c0,1.1,0.9,2,2,2c1.1,0,2-0.9,2-2C358.9,527.2,358,526.3,356.9,526.3z"/>
			</g>
			<g>
				<path class="st2" d="M361.9,521.2c-1.1,0-2,0.9-2,2s0.9,2,2,2c1.1,0,2-0.9,2-2S363,521.2,361.9,521.2z"/>
			</g>
		</g>
	</g>
	<g>
		<g>
			<circle class="st8" cx="186.2" cy="438.2" r="30"/>
		</g>
		<g>
			<g>
				<circle class="st2" cx="186.2" cy="432.7" r="6.3"/>
			</g>
			<g>
				<path class="st2" d="M178.4,434.2c0-2.6-2.1-4.7-4.7-4.7c-2.6,0-4.7,2.1-4.7,4.7c0,2.6,2.1,4.7,4.7,4.7
					C176.3,438.9,178.4,436.8,178.4,434.2z"/>
			</g>
			<g>
				<path class="st2" d="M178.2,439.3c-1.4,0.9-2.4,2.6-2.4,4.4v3.7h-9.3v-3.9c0-2.6,2.1-4.7,4.7-4.7h5.1
					C176.9,438.9,177.6,439.1,178.2,439.3z"/>
			</g>
			<g>
				<path class="st2" d="M203.3,434.2c0-2.6-2.1-4.7-4.7-4.7s-4.7,2.1-4.7,4.7c0,2.6,2.1,4.7,4.7,4.7S203.3,436.8,203.3,434.2z"/>
			</g>
			<g>
				<path class="st2" d="M205.8,443.6v3.9h-9.3v-3.7c0-1.8-0.9-3.5-2.4-4.4c0.6-0.3,1.2-0.4,1.9-0.4h5.1
					C203.7,438.9,205.8,441,205.8,443.6z"/>
			</g>
			<g>
				<path class="st2" d="M195.3,443.7v6.3H177v-6.3c0-1.6,1-3,2.3-3.7c0.5-0.3,1.1-0.4,1.7-0.4h10.2c0.6,0,1.2,0.1,1.7,0.4
					C194.4,440.7,195.3,442.1,195.3,443.7z"/>
			</g>
		</g>
	</g>
	<g>
		<g>
			<ellipse transform="matrix(0.1607 -0.987 0.987 0.1607 281.0012 525.8799)" class="st8" cx="449.7" cy="97.7" rx="28" ry="28"/>
		</g>
		<g>
			<g>
				<g>
					<path class="st2" d="M450,112.7c-8.3,0-15-6.7-15-15s6.7-15,15-15c8.3,0,15,6.7,15,15S458.3,112.7,450,112.7z M450,84.5
						c-7.3,0-13.2,5.9-13.2,13.2c0,7.3,5.9,13.2,13.2,13.2c7.3,0,13.2-5.9,13.2-13.2C463.2,90.4,457.3,84.5,450,84.5z"/>
				</g>
			</g>
			<g>
				<g>
					<path class="st2" d="M450,108c-5.7,0-10.3-4.6-10.3-10.3c0-5.7,4.6-10.3,10.3-10.3c5.7,0,10.3,4.6,10.3,10.3
						C460.4,103.3,455.7,108,450,108z M450,89.2c-4.7,0-8.5,3.8-8.5,8.5c0,4.7,3.8,8.5,8.5,8.5c4.7,0,8.5-3.8,8.5-8.5
						C458.5,93,454.7,89.2,450,89.2z"/>
				</g>
			</g>
			<g>
				<g>
					<path class="st2" d="M450,103.3c-3.1,0-5.6-2.5-5.6-5.6c0-3.1,2.5-5.6,5.6-5.6c3.1,0,5.6,2.5,5.6,5.6
						C455.7,100.7,453.1,103.3,450,103.3z M450,93.9c-2.1,0-3.8,1.7-3.8,3.8c0,2.1,1.7,3.8,3.8,3.8c2.1,0,3.8-1.7,3.8-3.8
						C453.8,95.6,452.1,93.9,450,93.9z"/>
				</g>
			</g>
			<g>
				<path class="st2" d="M468.7,84.5v-1.4h-2.9l1.9-1.9l-1.3-1.3l-1.9,1.9v-2.9h-1.4v4.3l-1.1,1.1v-2.9h-1.4v4.3L449.4,97
					c-0.2,0.2-0.3,0.4-0.3,0.7c0,0.5,0.4,0.9,0.9,0.9c0.3,0,0.5-0.1,0.7-0.3L462,87h4.3v-1.4h-2.9l1.1-1.1H468.7z"/>
			</g>
		</g>
	</g>
	<g>
		<g>
			
				<ellipse transform="matrix(0.9383 -0.3458 0.3458 0.9383 11.7586 118.497)" class="st4" cx="338" cy="26.3" rx="20.3" ry="20.3"/>
		</g>
		<g>
			<g>
				<g>
					<path class="st2" d="M340.9,39.6l-0.5-0.6c-0.1-0.3-0.2-0.6-0.3-1c-0.4-0.9-1.2-1.4-2.1-1.4c-0.9,0-1.7,0.6-2.1,1.4
						c-0.1,0.4-0.1,0.7-0.3,1l-0.1,0.2l-0.3,0.3l-0.8,0l-0.1-0.1c-2-0.6-3.9-1.7-5.4-3.2h-0.2l-0.5-1l0.3-0.4
						c0.2-0.3,0.4-0.5,0.7-0.7c0.5-0.8,0.6-1.8,0.1-2.7c-0.5-0.8-1.3-1.3-2.2-1.2c-0.3,0.1-0.6,0.2-1,0.3l-1,0.1v-0.9
						c-0.3-1.1-0.4-2.3-0.4-3.4c0-1.1,0.1-2.1,0.3-3.1l-0.2-0.3l0.9-0.9l0.4,0.1c0.3,0,0.7,0.1,1,0.3c0.9,0.1,1.8-0.4,2.2-1.2
						c0.5-0.8,0.4-1.9-0.1-2.7c-0.3-0.2-0.5-0.5-0.7-0.7l-0.4-0.6l0.8-0.8c1.5-1.5,3.4-2.6,5.4-3.2l0.1-0.1l0.8,0l0.4,0.6
						c0.1,0.3,0.2,0.7,0.3,1c0.4,0.9,1.2,1.4,2.1,1.4c0.9,0,1.7-0.5,2.1-1.4c0-0.3,0.1-0.7,0.3-1l0.2-0.3l0.3-0.3l0.8,0l0.1,0.1
						c2.1,0.6,4.1,1.8,5.7,3.4l0.6,0.6l-0.5,0.6c-0.1,0.2-0.3,0.4-0.5,0.5v0.5l-0.4,0c-0.4,0.7-0.4,1.6,0.1,2.4
						c0.5,0.8,1.3,1.3,2.2,1.2c0.3-0.1,0.6-0.2,1-0.3l0.4-0.1l0.9,0.9l-0.2,0.3c0.2,1,0.3,2,0.3,3.1c0,1.2-0.1,2.3-0.4,3.4v0.9
						l-1-0.1c-0.3,0-0.7-0.1-1-0.3c-0.9-0.1-1.7,0.4-2.2,1.2c-0.5,0.8-0.4,1.9,0.1,2.7c0.3,0.2,0.5,0.5,0.7,0.7l0.3,0.4l-0.5,1
						l-0.2,0c-1.5,1.5-3.4,2.6-5.4,3.2l-0.1,0.1L340.9,39.6z M338,34.9c1.7,0,3.2,1,3.8,2.6l0,0.1c1.4-0.5,2.6-1.3,3.7-2.2l0,0
						c-1.1-1.5-1.2-3.3-0.4-4.7c0.8-1.5,2.4-2.3,4.1-2.1l0.1,0c0.1-0.7,0.2-1.5,0.2-2.2c0-0.8-0.1-1.5-0.2-2.2l-0.1,0
						c-1.7,0.2-3.2-0.6-4.1-2.1c-0.8-1.4-0.7-3.1,0.1-4.4v-0.2l0.2-0.2c-1.1-1-2.3-1.7-3.7-2.2l0,0.1c-0.7,1.6-2.1,2.6-3.8,2.6
						c-1.7,0-3.1-1-3.8-2.6l0-0.1c-1.2,0.5-2.4,1.1-3.4,2l0,0.6c0.8,1.3,0.9,3,0.1,4.4c-0.8,1.5-2.4,2.3-4.1,2.1l-0.1,0
						c-0.1,0.7-0.2,1.5-0.2,2.2c0,0.8,0.1,1.5,0.2,2.2l0,0h0.2c1.5-0.2,3.1,0.6,4,2.1c0.8,1.5,0.7,3.3-0.3,4.6l-0.1,0.1
						c1.1,1,2.3,1.7,3.7,2.2l0.1-0.1C334.9,35.9,336.4,34.9,338,34.9z"/>
				</g>
			</g>
			<g>
				<g>
					<path class="st2" d="M338,33.2c-3.7,0-6.7-3.1-6.7-6.9c0-3.8,3-6.9,6.7-6.9c3.7,0,6.7,3.1,6.7,6.9
						C344.7,30.1,341.7,33.2,338,33.2z M338,21.1c-2.7,0-5,2.3-5,5.1s2.2,5.1,5,5.1c2.7,0,5-2.3,5-5.1S340.8,21.1,338,21.1z"/>
				</g>
			</g>
		</g>
	</g>
	<g>
		<g>
			
				<ellipse transform="matrix(2.349131e-02 -0.9997 0.9997 2.349131e-02 231.5359 767.5859)" class="st7" cx="508.7" cy="265.3" rx="25.8" ry="25.8"/>
		</g>
		<g>
			<path class="st2" d="M509.4,248.4L509.4,248.4l-1.4,0v0c-6.2,0.4-10.8,5.7-10.8,12.4c0,2.8,1.5,6.4,4.3,10.7l0.3,0.5
				c0.8,1.2,1.5,2.3,2.3,3.1c-0.4,0.2-0.7,0.7-0.7,1.2c0,0.5,0.3,0.9,0.7,1.2c0,0.1-0.1,0.2-0.1,0.4c0,0.5,0.3,0.9,0.7,1.1
				c0,0.1-0.1,0.2-0.1,0.4c0,0.7,0.6,1.3,1.4,1.3h0.5c0.1,0.4,0.4,0.7,0.6,0.9c0.2,0.2,0.7,0.6,1.2,0.6h0.7c0.5,0,0.9-0.3,1.2-0.6
				c0.2-0.2,0.5-0.6,0.6-0.9h0.5c0.7,0,1.4-0.6,1.4-1.3c0-0.1,0-0.2-0.1-0.4c0.4-0.2,0.7-0.7,0.7-1.1c0-0.1,0-0.2-0.1-0.4
				c0.4-0.2,0.7-0.7,0.7-1.1c0-0.5-0.3-0.9-0.7-1.2c0.8-0.9,1.5-1.9,2.3-3.1l0.3-0.5c2.9-4.2,4.3-7.8,4.3-10.7
				C520.2,254.1,515.6,248.8,509.4,248.4z M509.9,275.1h-2.3l-3.6-13.3c0.2-0.1,0.3-0.4,0.3-0.6c0,0,0,0,0-0.1l0.9-0.5l0.8,1.8
				l0.7-1.5l0.7,1.5l0.7-1.5l0.5,1.2l0,0.1h0.2l0.6-1.3l0.7,1.5l0.7-1.5l0.7,1.5l0.8-1.8l0.9,0.5c0,0,0,0.1,0,0.1
				c0,0.2,0.1,0.5,0.3,0.6L509.9,275.1z M514.9,270.8l-0.3,0.5c-1,1.6-2,2.9-3,3.7l-0.1,0.1h-1l3.5-13.2c0.4,0,0.7-0.4,0.7-0.7
				c0-0.4-0.3-0.7-0.8-0.7c-0.2,0-0.3,0.1-0.5,0.1l-1.5-0.9l-0.5,1.2l-0.7-1.5l-0.7,1.5l-0.7-1.5l-0.7,1.5l-0.7-1.5l-0.7,1.5
				l-0.7-1.5l-0.7,1.5l-0.5-1.2l-1.5,0.9c-0.1-0.1-0.3-0.1-0.4-0.1c-0.4,0-0.8,0.3-0.8,0.7c0,0.4,0.3,0.7,0.7,0.7l3.5,13.2h-1
				l-0.1-0.1c-1.1-0.8-2-2.2-3-3.7l-0.3-0.5c-2.7-4-4.1-7.4-4.1-10c0-6.4,4.4-11.2,10.2-11.3h0.3c5.8,0.1,10.2,4.9,10.2,11.3
				C519,263.4,517.6,266.9,514.9,270.8z"/>
		</g>
	</g>
	<g>
		<path class="st4" d="M182.3,263.1c-7.9,0-14.3-6.4-14.3-14.3c0-7.9,6.4-14.3,14.3-14.3s14.3,6.4,14.3,14.3
			C196.6,256.7,190.2,263.1,182.3,263.1z"/>
	</g>
	<g>
		<path class="st6" d="M119.9,131.9c-7.9,0-14.3-6.4-14.3-14.3s6.4-14.3,14.3-14.3c7.9,0,14.3,6.4,14.3,14.3
			S127.8,131.9,119.9,131.9z"/>
	</g>
	<g>
		<path class="st9" d="M112,363.9c-7.9,0-14.3-6.4-14.3-14.3c0-7.9,6.4-14.3,14.3-14.3c7.9,0,14.3,6.4,14.3,14.3
			C126.4,357.5,120,363.9,112,363.9z"/>
	</g>
	<g>
		<circle class="st0" cx="228.1" cy="384" r="14.3"/>
	</g>
	<g>
		<path class="st9" d="M301.1,496.9c-7.9,0-14.3-6.4-14.3-14.3c0-7.9,6.4-14.3,14.3-14.3s14.3,6.4,14.3,14.3
			C315.4,490.5,309,496.9,301.1,496.9z"/>
	</g>
	<g>
		<path class="st8" d="M427.5,461.8c-7.9,0-14.3-6.4-14.3-14.3c0-7.9,6.4-14.3,14.3-14.3c7.9,0,14.3,6.4,14.3,14.3
			C441.8,455.4,435.4,461.8,427.5,461.8z"/>
	</g>
	<g>
		<path class="st6" d="M489.6,363.9c-7.9,0-14.3-6.4-14.3-14.3c0-7.9,6.4-14.3,14.3-14.3s14.3,6.4,14.3,14.3
			C504,357.5,497.5,363.9,489.6,363.9z"/>
	</g>
	<g>
		<path class="st5" d="M508.7,183.4c-7.9,0-14.3-6.4-14.3-14.3c0-7.9,6.4-14.3,14.3-14.3c7.9,0,14.3,6.4,14.3,14.3
			C523,177,516.6,183.4,508.7,183.4z"/>
	</g>
	<g>
		<path class="st8" d="M426.2,288.2c-7.9,0-14.3-6.4-14.3-14.3c0-7.9,6.4-14.3,14.3-14.3c7.9,0,14.3,6.4,14.3,14.3
			C440.6,281.8,434.2,288.2,426.2,288.2z"/>
	</g>
	<g>
		<path class="st8" d="M245.3,122.3c-7.9,0-14.3-6.4-14.3-14.3s6.4-14.3,14.3-14.3c7.9,0,14.3,6.4,14.3,14.3
			S253.2,122.3,245.3,122.3z"/>
	</g>
	<g>
		<path class="st9" d="M407.4,60.1c-7.9,0-14.3-6.4-14.3-14.3c0-7.9,6.4-14.3,14.3-14.3c7.9,0,14.3,6.4,14.3,14.3
			C421.7,53.7,415.3,60.1,407.4,60.1z"/>
	</g>
	<g>
		<path class="st6" d="M262.4,35.5c-7.9,0-14.3-6.4-14.3-14.3s6.4-14.3,14.3-14.3c7.9,0,14.3,6.4,14.3,14.3S270.3,35.5,262.4,35.5z"
			/>
	</g>
</g>
</svg>
