<?xml version="1.0" encoding="utf-8"?>
<!-- Generator: Adobe Illustrator 24.2.3, SVG Export Plug-In . SVG Version: 6.00 Build 0)  -->
<svg version="1.1" id="Orange_Outline" xmlns="http://www.w3.org/2000/svg" xmlns:xlink="http://www.w3.org/1999/xlink" x="0px"
	 y="0px" viewBox="0 0 278 278" style="enable-background:new 0 0 278 278;" xml:space="preserve">
<style type="text/css">
	.st0{fill:none;stroke:#F05325;stroke-width:5;stroke-miterlimit:10;}
	.st1{fill:#F05325;}
</style>
<circle class="st0" cx="139" cy="138.5" r="135.3"/>
<g>
	<path class="st1" d="M99.8,232.2c0,0,10.5,14,12.6,17.9c1.1,2.1,3,5.2,4.5,7.8c1.2-11.6,2.4-28.4,1.7-33.2c0.1-1.3,0.3-2.3,0.4-3.1
		c-2.6-0.9-5.9-1.8-10-2.4c-16.6-0.9-48.9-17.7-52.2-20.4c-1.6-1.3-3.8-2.9-5.7-4.2c-2.9,5.7-4.8,13-4.2,19.6
		c0.6,6.5,3.1,16.3,7,27.2c18.2,14.7,40.3,24.8,64.5,28.5c-2-6-4.8-12.3-8.3-19C107.7,246.5,99.8,232.2,99.8,232.2z"/>
	<path class="st1" d="M153.9,176.6c-4.3-0.1-8.2-2-8.2-2s9.8-1.7,14.1-3.4c2.5-0.9,4.6-2.8,5.9-4.2c1.8-2.2,3.5-4.3,4.9-6
		c2.8-3.5,10.3-9.3,13.1-13.1c0-0.1,1.1-2.1,2.1-3.2c0.9-1.1,6.1-3.6,9-4.3c2.8-0.7,2.8-0.7,2.8-0.7s-5,2.9-7.4,4.6
		c-1.2,0.9-2.5,3.1-3.3,5.1c1.7,1.1,3.6,1.8,4.5,1.9c1.7,9.4,8.8,21.2,12.3,24.8c3.5,3.6,9.4,11.4,12.4,17.9c3,6.6,7.5,9.3,11.5,9.2
		c4-0.1,5.1-2.6,5.5-5.5c4-2.6,6.7-8.9,6.1-14.3c1.8-6.8,2.2-15.2,1.3-21.4c-0.9-6.3-3.9-19.2-4.6-22.2c-0.7-2.9-2.4-32.8-2.4-34.8
		c0-2,3.8-11.1,5-14.2c1.2-3.2,1.9-18.9-1.2-25.4c-3.1-6.6-4.3-1.5-5.7,0.6c-1.4,2.2-3.3,11.7-4.3,11.7c-1,0-3.2,0.2-3.4,4.6
		c-0.2,4.3-3.7,9.3-4.2,12.4c-0.5,3.1-0.4,8.1,2.2,16.4c0.3,9.2-0.2,24-0.5,27.7c-0.3,3.7-1,4.9-1.8,13.9c-1.7,8.5-2.1,13-1.4,24
		c0,0-1.6-7.3-2-12c-0.2-3.3,1.1-11.4,1.8-16c-2.2-4.6-5.5-8.7-9.4-11.1c-0.3-4.6-0.5-7.1-2.7-13.6c-1.8-5.3-7.1-10.3-12.2-12.2
		c-0.9,3.1-2.4,8.2-4.3,12.4c-2.9,6.6-6.8,11.2-9,13.4c-2.2,2.2-2.5,3.4-4.1,5.2c-1.6,1.8-10.5,9.4-12.9,10.1
		c-2.4,0.7-4.7-0.4-7.8-2.6c-3-2.2-4.6-5.1-5-7.8c-0.4-2.6-2.5-17.4-2.3-16.5c0.2,0.9,3.2,14.9,4.1,17.6c0.9,2.7,6.5,6.3,8.1,6.6
		c1.6,0.2,4.1-0.7,4.1-0.7s-2.6-1.5-3.9-2.5c-1.3-0.9-2.6-4.3-2.6-4.3s1.5,1,2.8,2.4c1.3,1.4,5.5,2.9,6.1,2.8
		c0.7-0.2,2.3-4.4,2.8-5.6c0.5-1.2,0.5-3.4,0.5-3.4s-2.4-1.3-6.3-2.9c-3.9-1.6-7.7-6.8-7.7-6.8s4.1,3.1,6.7,4.3
		c2.6,1.2,12.5,1.8,16.2,0.6c3.7-1.2,5.9-5.9,7.8-10.7c1.9-4.9,3.5-12.4,3.5-12.4c2-11.3-2.9-25.7-16.3-28.9
		c-13.4-3.2-25.5,7-26.6,20.5c-5.9-5.4-19.2-5.2-22.4-3.6c-3.2-4.3-5.7-7-12.1-9.6c-0.2-9.6-9.4-21.6-14-23.7
		C98,58.2,88.1,49.3,86.5,48.7c-1.6-0.6-7.4,0.7-10.5,2.2c-3,1.5-19.6,9.4-21.9,10.4c-2.3,1-8.5,1.1-9.8,1.7
		c-1.3,0.6-6.4,3.5-8.1,7.1c-0.1,2.6-0.2,2.8-0.2,7.9c0,5.1,2.7,8,6.5,9.4c3.8,1.5,13.5-4.3,14.2-10.7c6.1,0,10-0.2,17.7-3.1
		c0.1-2.5,0.3-5.9,0.5-7.3c0.4-2.4,1.5-7.6,1.5-7.6s-0.2,4.7-0.3,8C75.6,79.4,78.8,91.1,87.2,99c1.4,8.6,7.6,24.6,13.8,31.2
		c2.2,2.3,5.1,5.9,5.1,5.9s-1.7,9.3,0,15.5c1.7,6.3,8.8,14.8,8.8,14.8s-8.7-5.2-10.8-11.4c-2.1-6.2-1.8-17.8-1.8-17.8
		s-3.9-2.6-5.7-5.6c-0.7-1.1-1.6-2.5-2.4-3.7c-0.7,1.5-1.4,3.3-1.9,5.9c-1,4.6-1.4,13.2-1.7,16.2c-0.3,3-5.2,12.5-8.8,16.7
		c-2.2,2.6-6.2,4.7-10.4,6.9l6.8,4.3c1.9,1.2,3.8,2.1,5.8,2.8l36.9,12.5l17,4.8c4.4-4,13.3-14.8,20-22.2
		C156.6,176.3,155.1,176.7,153.9,176.6z"/>
	<path class="st1" d="M237.9,228.4c-9.5-1.6-18.8-4.3-27.8-8.3c-12.5-5.4-24.3-13-34.8-22.6c-5.9-5.4-10.9-10.2-18.4-12.2
		l-11.2,13.1c3.4,0.1,6.9,0.6,10.3,1.4c7.6,1.9,12.6,6.4,18.6,11.9c10.7,9.8,22.7,17.5,35.4,23c5,2.2,10.2,4,15.4,5.5
		C229.7,236.7,233.9,232.7,237.9,228.4z"/>
	<path class="st1" d="M37.9,146.1c2,0.7,4.5,1.8,6.5,3.3c-2.8,6.7-2.4,16-1.5,22.7c1.7,11.5,14.6,16.3,22.3,21.1
		c10,6.2,20,12.1,31.2,14.9c11.9,3,19.1,5.2,26.9,7.8c0.4,0.1,1.5-4.5,9.4-11.3l2.5-1.9c-9.7-0.9-21.9-4.3-31.2-7.3
		c-8.8-2.9-17.4-4.8-25.8-9.3c-8.2-4.4-16.1-9.6-23.9-14.6c-3.4-2.2-7.1-4.5-9.2-8.5c0-0.1-0.1-0.2-0.1-0.3
		c2.6-4.9,4.4-1.7,3.7-19.5c-0.2-5.3-2.7-8-6.7-10.3c-4.8-2.6-10.3-3.6-15.5-5c-6.1-1.6-12.2-2.9-18.4-3.7c-1.3-0.2-2.5-0.4-3.8-0.5
		c-0.4,4.1-0.6,8.2-0.6,12.3c0,0.8,0,1.7,0,2.5c6.5,0.9,12.9,1.8,19.3,3.3C28,143.2,33.1,144.3,37.9,146.1z"/>
</g>
</svg>
