<?xml version="1.0" encoding="utf-8"?>
<!-- Generator: Adobe Illustrator 24.3.0, SVG Export Plug-In . SVG Version: 6.00 Build 0)  -->
<svg version="1.1" id="gray" xmlns="http://www.w3.org/2000/svg" xmlns:xlink="http://www.w3.org/1999/xlink" x="0px" y="0px"
	 viewBox="0 0 440 305.4" style="enable-background:new 0 0 440 305.4;" xml:space="preserve">
<style type="text/css">
	.st0{fill:#5B6670;}
</style>
<g>
	<path class="st0" d="M111.1,209.9c0-1.1,0.6-1.7,1.7-1.7h2.8c1.1,0,1.7,0.6,1.7,1.7v26.7c0,1.7,0.7,2.8,2.8,2.8s2.8-1.1,2.8-2.8
		v-26.7c0-1.1,0.6-1.7,1.7-1.7h2.8c1.1,0,1.7,0.6,1.7,1.7v26.7c0,5.1-2.9,7.7-9.1,7.7c-6.2,0-9.1-2.5-9.1-7.7V209.9z"/>
	<path class="st0" d="M148.4,242.4c0,1-0.6,1.7-1.7,1.7h-2.2c-1.1,0-1.7-0.6-1.7-1.7v-19.7c0-1.5-0.6-2.2-1.9-2.2
		c-1.3,0-2,0.7-2,2.3v19.6c0,1-0.6,1.7-1.7,1.7H135c-1.1,0-1.7-0.6-1.7-1.7v-24.7c0-1.1,0.6-1.7,1.7-1.7h2.2c1.1,0,1.7,0.6,1.7,1.7
		v0.2c1.4-1.4,3.3-2.2,5-2.2c2.4,0,4.5,1.5,4.5,5.2V242.4z"/>
	<path class="st0" d="M167.5,227.3c0,1-0.6,1.7-1.7,1.7h-2.2c-1.1,0-1.7-0.6-1.7-1.7v-4.6c0-1.5-0.6-2.2-1.9-2.2c-1.3,0-2,0.7-2,2.3
		v19.6c0,1-0.6,1.7-1.7,1.7h-2.2c-1.1,0-1.7-0.6-1.7-1.7v-24.7c0-1.1,0.6-1.7,1.7-1.7h2.2c1.1,0,1.7,0.6,1.7,1.7v0.2
		c1.4-1.4,3.3-2.2,5-2.2c2.4,0,4.5,1.5,4.5,5.2V227.3z"/>
	<path class="st0" d="M185.6,230.2c0,1.2-0.7,2-2,2h-7.5v5.6c0,1.5,0.6,2.2,1.9,2.2c1.3,0,2-0.6,2-2.2v-1c0-1.1,0.6-1.7,1.7-1.7h2.2
		c1.1,0,1.7,0.6,1.7,1.7v1.2c0,4.4-2.4,6.4-7.6,6.4c-5.1,0-7.6-2.1-7.6-6.4v-15.7c0-4.3,2.4-6.4,7.6-6.4c5.1,0,7.6,2.1,7.6,6.4
		V230.2z M176.1,227.9h3.9v-5.6c0-1.6-0.6-2.2-2-2.2c-1.3,0-1.9,0.6-1.9,2.2V227.9z"/>
	<path class="st0" d="M196.8,244.3c-5.2,0-7.6-2-7.6-6.4v-2.3c0-1.1,0.6-1.7,1.7-1.7h2.2c1.1,0,1.7,0.6,1.7,1.7v2.1
		c0,1.5,0.6,2.2,2,2.2c1.3,0,1.9-0.6,1.9-2.2c0-2-0.3-2.5-2-4.1l-4.1-3.8c-2.5-2.3-3.4-3.8-3.4-7.8c0-4.3,2.4-6.4,7.6-6.4
		c5.1,0,7.6,2.1,7.6,6.4v2.3c0,1.1-0.6,1.7-1.7,1.7h-2.2c-1.1,0-1.7-0.6-1.7-1.7v-2.1c0-1.6-0.6-2.2-1.9-2.2c-1.3,0-2,0.6-2,2.2
		c0,2,0.3,2.4,2,4.1l4.1,3.8c2.5,2.3,3.4,3.8,3.4,7.8C204.4,242.2,201.9,244.3,196.8,244.3z"/>
	<path class="st0" d="M209.4,216.1v-6.1c0-1.1,0.6-1.7,1.7-1.7h2.2c1.1,0,1.7,0.6,1.7,1.7v6.1h2.5c1.1,0,1.7,0.6,1.7,1.7v0.9
		c0,1.1-0.6,1.7-1.7,1.7H215v16.9c0,1.6,0.5,2.4,2.1,2.4h1.3c1.1,0,1.7,0.6,1.7,1.7v0.9c0,1.1-0.6,1.7-1.7,1.7h-1.3
		c-5.3,0-7.8-2.1-7.8-6.6v-17.1h-1.5c-1.1,0-1.7-0.6-1.7-1.7v-0.9c0-1.1,0.6-1.7,1.7-1.7H209.4z"/>
	<path class="st0" d="M237.6,227.3c0,1-0.6,1.7-1.7,1.7h-2.2c-1.1,0-1.7-0.6-1.7-1.7v-4.6c0-1.5-0.6-2.2-1.9-2.2c-1.3,0-2,0.7-2,2.3
		v19.6c0,1-0.6,1.7-1.7,1.7h-2.2c-1.1,0-1.7-0.6-1.7-1.7v-24.7c0-1.1,0.6-1.7,1.7-1.7h2.2c1.1,0,1.7,0.6,1.7,1.7v0.2
		c1.4-1.4,3.3-2.2,5-2.2c2.4,0,4.5,1.5,4.5,5.2V227.3z"/>
	<path class="st0" d="M243.4,206.2c1.9,0,3.3,1.4,3.3,3.3c0,2-1.4,3.3-3.3,3.3c-2,0-3.3-1.3-3.3-3.3
		C240.1,207.6,241.4,206.2,243.4,206.2z M246.2,242.3c0,1.1-0.6,1.7-1.7,1.7h-2.2c-1.1,0-1.7-0.6-1.7-1.7v-24.6
		c0-1.1,0.6-1.7,1.7-1.7h2.2c1.1,0,1.7,0.6,1.7,1.7V242.3z"/>
	<path class="st0" d="M265.3,225.7c0,1.1-0.6,1.7-1.7,1.7h-2.2c-1.1,0-1.7-0.6-1.7-1.7v-3.4c0-1.6-0.6-2.2-2-2.2
		c-1.3,0-1.9,0.6-1.9,2.2v15.4c0,1.5,0.6,2.2,1.9,2.2c1.3,0,2-0.6,2-2.2v-3.4c0-1.1,0.6-1.7,1.7-1.7h2.2c1.1,0,1.7,0.6,1.7,1.7v3.5
		c0,4.4-2.4,6.4-7.6,6.4c-5.1,0-7.6-2.1-7.6-6.4v-15.7c0-4.3,2.4-6.4,7.6-6.4c5.1,0,7.6,2.1,7.6,6.4V225.7z"/>
	<path class="st0" d="M270.8,216.1v-6.1c0-1.1,0.6-1.7,1.7-1.7h2.2c1.1,0,1.7,0.6,1.7,1.7v6.1h2.5c1.1,0,1.7,0.6,1.7,1.7v0.9
		c0,1.1-0.6,1.7-1.7,1.7h-2.5v16.9c0,1.6,0.5,2.4,2.1,2.4h1.3c1.1,0,1.7,0.6,1.7,1.7v0.9c0,1.1-0.6,1.7-1.7,1.7h-1.3
		c-5.3,0-7.8-2.1-7.8-6.6v-17.1h-1.5c-1.1,0-1.7-0.6-1.7-1.7v-0.9c0-1.1,0.6-1.7,1.7-1.7H270.8z"/>
	<path class="st0" d="M299,230.2c0,1.2-0.7,2-2,2h-7.5v5.6c0,1.5,0.6,2.2,1.9,2.2c1.3,0,2-0.6,2-2.2v-1c0-1.1,0.6-1.7,1.7-1.7h2.2
		c1.1,0,1.7,0.6,1.7,1.7v1.2c0,4.4-2.4,6.4-7.6,6.4c-5.1,0-7.6-2.1-7.6-6.4v-15.7c0-4.3,2.4-6.4,7.6-6.4c5.1,0,7.6,2.1,7.6,6.4
		V230.2z M289.5,227.9h3.9v-5.6c0-1.6-0.6-2.2-2-2.2c-1.3,0-1.9,0.6-1.9,2.2V227.9z"/>
	<path class="st0" d="M318.1,242.4c0,1-0.6,1.7-1.7,1.7h-2.2c-1.1,0-1.7-0.6-1.7-1.7v-0.2c-1.4,1.4-3.4,2.2-5.1,2.2
		c-2.4,0-4.5-1.5-4.5-5.2V221c0-3.7,2-5.2,4.5-5.2c1.7,0,3.7,0.8,5.1,2.2v-11.8c0-1.1,0.6-1.7,1.7-1.7h2.2c1.1,0,1.7,0.6,1.7,1.7
		V242.4z M308.6,237.4c0,1.6,0.5,2.2,1.9,2.2s2-0.6,2-2.2v-14.6c0-1.6-0.7-2.3-2-2.3s-1.9,0.6-1.9,2.2V237.4z"/>
	<path class="st0" d="M55.7,295.5c-1.1,0-1.7-0.6-1.7-1.7v-32.4c0-1.1,0.6-1.7,1.7-1.7h6.6c6.4,0,9.3,2.6,9.3,7.9v2.6
		c0,3.7-1.4,6.1-4.5,7.2v0.4c3.1,1.1,4.5,3.5,4.5,7.2v2.7c0,5.3-2.9,7.9-9.3,7.9H55.7z M62.3,275c2.2,0,3-1.2,3-3v-4.5
		c0-1.8-0.8-3-3-3h-2.1V275H62.3z M62.3,290.6c2.2,0,3-1.2,3-3.1v-4.6c0-1.8-0.8-3.1-3-3.1h-2.1v10.7H62.3z"/>
	<path class="st0" d="M90.5,281.6c0,1.2-0.7,2-2,2H81v5.6c0,1.5,0.6,2.2,1.9,2.2c1.3,0,2-0.6,2-2.2v-1c0-1.1,0.6-1.7,1.7-1.7h2.2
		c1.1,0,1.7,0.6,1.7,1.7v1.2c0,4.4-2.4,6.4-7.6,6.4c-5.1,0-7.6-2.1-7.6-6.4v-15.7c0-4.3,2.4-6.4,7.6-6.4c5.1,0,7.6,2.1,7.6,6.4
		V281.6z M81,279.3h3.9v-5.6c0-1.6-0.6-2.2-2-2.2c-1.3,0-1.9,0.6-1.9,2.2V279.3z"/>
	<path class="st0" d="M109.6,293.8c0,1-0.6,1.7-1.7,1.7h-2.2c-1.1,0-1.7-0.6-1.7-1.7v-19.7c0-1.5-0.6-2.2-1.9-2.2
		c-1.3,0-2,0.7-2,2.3v19.6c0,1-0.6,1.7-1.7,1.7h-2.2c-1.1,0-1.7-0.6-1.7-1.7v-36.2c0-1.1,0.6-1.7,1.7-1.7h2.2c1.1,0,1.7,0.6,1.7,1.7
		v11.8c1.4-1.4,3.3-2.2,5-2.2c2.4,0,4.5,1.5,4.5,5.2V293.8z"/>
	<path class="st0" d="M123.1,279.1v-5.3c0-1.6-0.6-2.2-2-2.2c-1.3,0-1.9,0.6-1.9,2.2v1.1c0,1.1-0.6,1.7-1.7,1.7h-2.2
		c-1.1,0-1.7-0.6-1.7-1.7v-1.3c0-4.3,2.4-6.4,7.6-6.4c5.1,0,7.6,2.1,7.6,6.4v20.2c0,1-0.6,1.7-1.7,1.7h-2.2c-1.1,0-1.7-0.6-1.7-1.7
		v-0.2c-1.4,1.4-3.4,2.2-5.1,2.2c-2.4,0-4.5-1.5-4.5-5.2v-5c0-4.3,2.4-6.4,7.6-6.4H123.1z M121.2,283.3c-1.3,0-1.9,0.6-1.9,2.2v3.3
		c0,1.6,0.5,2.2,1.9,2.2s2-0.6,2-2.2v-5.4H121.2z"/>
	<path class="st0" d="M136.5,268.9l1.5,12.9l0.7,9.2h0.4l0.7-9.2l1.5-12.9c0.1-0.9,0.6-1.5,1.7-1.5h2.1c0.9,0,1.9,0.5,1.7,2.1
		l-3.7,24.4c-0.1,1-0.6,1.6-1.8,1.6h-4.9c-1.1,0-1.6-0.6-1.7-1.6l-3.7-24.4c-0.2-1.5,0.7-2.1,1.6-2.1h2.1
		C135.8,267.4,136.4,268,136.5,268.9z"/>
	<path class="st0" d="M151.9,257.6c1.9,0,3.3,1.4,3.3,3.3c0,2-1.4,3.3-3.3,3.3c-2,0-3.3-1.3-3.3-3.3
		C148.6,259,150,257.6,151.9,257.6z M154.8,293.7c0,1.1-0.6,1.7-1.7,1.7h-2.2c-1.1,0-1.7-0.6-1.7-1.7v-24.6c0-1.1,0.6-1.7,1.7-1.7
		h2.2c1.1,0,1.7,0.6,1.7,1.7V293.7z"/>
	<path class="st0" d="M173.9,273.6v15.7c0,4.3-2.4,6.4-7.6,6.4c-5.1,0-7.6-2.1-7.6-6.4v-15.7c0-4.3,2.4-6.4,7.6-6.4
		C171.4,267.2,173.9,269.3,173.9,273.6z M164.4,273.7v15.4c0,1.5,0.6,2.2,1.9,2.2c1.3,0,2-0.6,2-2.2v-15.4c0-1.6-0.6-2.2-2-2.2
		C165,271.6,164.4,272.1,164.4,273.7z"/>
	<path class="st0" d="M193,278.7c0,1-0.6,1.7-1.7,1.7h-2.2c-1.1,0-1.7-0.6-1.7-1.7v-4.6c0-1.5-0.6-2.2-1.9-2.2c-1.3,0-2,0.7-2,2.3
		v19.6c0,1-0.6,1.7-1.7,1.7h-2.2c-1.1,0-1.7-0.6-1.7-1.7v-24.7c0-1.1,0.6-1.7,1.7-1.7h2.2c1.1,0,1.7,0.6,1.7,1.7v0.2
		c1.4-1.4,3.3-2.2,5-2.2c2.4,0,4.5,1.5,4.5,5.2V278.7z"/>
	<path class="st0" d="M205.5,279.1v-5.3c0-1.6-0.6-2.2-2-2.2c-1.3,0-1.9,0.6-1.9,2.2v1.1c0,1.1-0.6,1.7-1.7,1.7h-2.2
		c-1.1,0-1.7-0.6-1.7-1.7v-1.3c0-4.3,2.4-6.4,7.6-6.4c5.1,0,7.6,2.1,7.6,6.4v20.2c0,1-0.6,1.7-1.7,1.7h-2.2c-1.1,0-1.7-0.6-1.7-1.7
		v-0.2c-1.4,1.4-3.4,2.2-5.1,2.2c-2.4,0-4.5-1.5-4.5-5.2v-5c0-4.3,2.4-6.4,7.6-6.4H205.5z M203.5,283.3c-1.3,0-1.9,0.6-1.9,2.2v3.3
		c0,1.6,0.5,2.2,1.9,2.2s2-0.6,2-2.2v-5.4H203.5z"/>
	<path class="st0" d="M220.7,293.7c0,1.1-0.6,1.7-1.7,1.7h-2.2c-1.1,0-1.7-0.6-1.7-1.7v-36.2c0-1.1,0.6-1.7,1.7-1.7h2.2
		c1.1,0,1.7,0.6,1.7,1.7V293.7z"/>
	<path class="st0" d="M246.5,264.5v29.3c0,1.1-0.6,1.7-1.7,1.7h-2.8c-1.1,0-1.7-0.6-1.7-1.7v-29.3h-5c-1.1,0-1.7-0.6-1.7-1.7v-1.4
		c0-1.1,0.6-1.7,1.7-1.7h16.3c1.1,0,1.7,0.6,1.7,1.7v1.4c0,1.1-0.6,1.7-1.7,1.7H246.5z"/>
	<path class="st0" d="M261.8,279.1v-5.3c0-1.6-0.6-2.2-2-2.2c-1.3,0-1.9,0.6-1.9,2.2v1.1c0,1.1-0.6,1.7-1.7,1.7h-2.2
		c-1.1,0-1.7-0.6-1.7-1.7v-1.3c0-4.3,2.4-6.4,7.6-6.4c5.1,0,7.6,2.1,7.6,6.4v20.2c0,1-0.6,1.7-1.7,1.7h-2.2c-1.1,0-1.7-0.6-1.7-1.7
		v-0.2c-1.4,1.4-3.4,2.2-5.1,2.2c-2.4,0-4.5-1.5-4.5-5.2v-5c0-4.3,2.4-6.4,7.6-6.4H261.8z M259.8,283.3c-1.3,0-1.9,0.6-1.9,2.2v3.3
		c0,1.6,0.5,2.2,1.9,2.2s2-0.6,2-2.2v-5.4H259.8z"/>
	<path class="st0" d="M286.5,278.7c0,1-0.6,1.7-1.7,1.7h-2.2c-1.1,0-1.7-0.6-1.7-1.7v-4.6c0-1.5-0.6-2.2-1.9-2.2c-1.3,0-2,0.7-2,2.3
		v19.6c0,1-0.6,1.7-1.7,1.7h-2.2c-1.1,0-1.7-0.6-1.7-1.7v-24.7c0-1.1,0.6-1.7,1.7-1.7h2.2c1.1,0,1.7,0.6,1.7,1.7v0.2
		c1.4-1.4,3.3-2.2,5-2.2c2.4,0,4.5,1.5,4.5,5.2V278.7z"/>
	<path class="st0" d="M304.6,298.8c0,4.4-2.4,6.5-7.7,6.5h-3.1c-1.1,0-1.7-0.6-1.7-1.7v-0.9c0-1.1,0.6-1.7,1.7-1.7h3.1
		c1.5,0,2.1-0.8,2.1-2.3v-5.1c-1.4,1.4-3.4,2.2-5.1,2.2c-2.4,0-4.5-1.5-4.5-5.2v-18.1c0-3.7,2-5.2,4.5-5.2c1.7,0,3.7,0.8,5.1,2.2
		v-0.2c0-1.1,0.6-1.7,1.7-1.7h2.2c1.1,0,1.7,0.6,1.7,1.7V298.8z M295.1,288.8c0,1.6,0.5,2.2,1.9,2.2s2-0.6,2-2.2v-14.6
		c0-1.6-0.7-2.3-2-2.3s-1.9,0.6-1.9,2.2V288.8z"/>
	<path class="st0" d="M323.7,281.6c0,1.2-0.7,2-2,2h-7.5v5.6c0,1.5,0.6,2.2,1.9,2.2c1.3,0,2-0.6,2-2.2v-1c0-1.1,0.6-1.7,1.7-1.7h2.2
		c1.1,0,1.7,0.6,1.7,1.7v1.2c0,4.4-2.4,6.4-7.6,6.4c-5.1,0-7.6-2.1-7.6-6.4v-15.7c0-4.3,2.4-6.4,7.6-6.4c5.1,0,7.6,2.1,7.6,6.4
		V281.6z M314.2,279.3h3.9v-5.6c0-1.6-0.6-2.2-2-2.2c-1.3,0-1.9,0.6-1.9,2.2V279.3z"/>
	<path class="st0" d="M329.1,267.4v-6.1c0-1.1,0.6-1.7,1.7-1.7h2.2c1.1,0,1.7,0.6,1.7,1.7v6.1h2.5c1.1,0,1.7,0.6,1.7,1.7v0.9
		c0,1.1-0.6,1.7-1.7,1.7h-2.5v16.9c0,1.6,0.5,2.4,2.1,2.4h1.3c1.1,0,1.7,0.6,1.7,1.7v0.9c0,1.1-0.6,1.7-1.7,1.7h-1.3
		c-5.3,0-7.8-2.1-7.8-6.6v-17.1h-1.5c-1.1,0-1.7-0.6-1.7-1.7v-0.9c0-1.1,0.6-1.7,1.7-1.7H329.1z"/>
	<path class="st0" d="M345,257.6c1.9,0,3.3,1.4,3.3,3.3c0,2-1.4,3.3-3.3,3.3c-2,0-3.3-1.3-3.3-3.3C341.7,259,343,257.6,345,257.6z
		 M347.8,293.7c0,1.1-0.6,1.7-1.7,1.7h-2.2c-1.1,0-1.7-0.6-1.7-1.7v-24.6c0-1.1,0.6-1.7,1.7-1.7h2.2c1.1,0,1.7,0.6,1.7,1.7V293.7z"
		/>
	<path class="st0" d="M366.9,293.8c0,1-0.6,1.7-1.7,1.7H363c-1.1,0-1.7-0.6-1.7-1.7v-19.7c0-1.5-0.6-2.2-1.9-2.2c-1.3,0-2,0.7-2,2.3
		v19.6c0,1-0.6,1.7-1.7,1.7h-2.2c-1.1,0-1.7-0.6-1.7-1.7v-24.7c0-1.1,0.6-1.7,1.7-1.7h2.2c1.1,0,1.7,0.6,1.7,1.7v0.2
		c1.4-1.4,3.3-2.2,5-2.2c2.4,0,4.5,1.5,4.5,5.2V293.8z"/>
	<path class="st0" d="M386.1,298.8c0,4.4-2.4,6.5-7.7,6.5h-3.1c-1.1,0-1.7-0.6-1.7-1.7v-0.9c0-1.1,0.6-1.7,1.7-1.7h3.1
		c1.5,0,2.1-0.8,2.1-2.3v-5.1c-1.4,1.4-3.4,2.2-5.1,2.2c-2.4,0-4.5-1.5-4.5-5.2v-18.1c0-3.7,2-5.2,4.5-5.2c1.7,0,3.7,0.8,5.1,2.2
		v-0.2c0-1.1,0.6-1.7,1.7-1.7h2.2c1.1,0,1.7,0.6,1.7,1.7V298.8z M376.5,288.8c0,1.6,0.5,2.2,1.9,2.2s2-0.6,2-2.2v-14.6
		c0-1.6-0.7-2.3-2-2.3s-1.9,0.6-1.9,2.2V288.8z"/>
</g>
<g>
	<path class="st0" d="M106.2,35.7c1.6,0,2.8-1.3,2.8-2.8s-1.3-2.8-2.8-2.8c-1.6,0-2.8,1.3-2.8,2.8C103.4,34.4,104.7,35.7,106.2,35.7
		z"/>
	<path class="st0" d="M197.1,153.9c1.6,0,2.8-1.3,2.8-2.8s-1.3-2.8-2.8-2.8c-1.6,0-2.8,1.3-2.8,2.8
		C194.3,152.6,195.6,153.9,197.1,153.9z"/>
	<path class="st0" d="M185.8,153.9c1.6,0,2.8-1.3,2.8-2.8s-1.3-2.8-2.8-2.8c-1.6,0-2.8,1.3-2.8,2.8
		C183,152.6,184.3,153.9,185.8,153.9z"/>
	<path class="st0" d="M174.5,153.9c1.6,0,2.8-1.3,2.8-2.8s-1.3-2.8-2.8-2.8c-1.6,0-2.8,1.3-2.8,2.8
		C171.7,152.6,173,153.9,174.5,153.9z"/>
	<path class="st0" d="M196.6,104.2V33.6c0-6.2-5.1-11.3-11.3-11.3h-9.8H171H27.2c-6.2,0-11.3,5.1-11.3,11.3v106.8H0v11.3
		c0,6.2-0.9,11.3,5.3,11.3h189.8c6.2,0,17.2-5.1,17.2-11.3v-11.3h-15.8v-15.8V104.2z M27.2,26.8h158.1c3.7,0,6.8,3,6.8,6.8v5H20.4
		v-5C20.4,29.8,23.4,26.8,27.2,26.8z M207.9,151.6c0,3.7-3,6.8-6.8,6.8H11.3c-3.7,0-6.8-3-6.8-6.8v-6.8h88.1v6.8h27.1v-6.8h88.1
		V151.6z M94.9,144.8h22.6v4.5H94.9V144.8z M20.4,140.3V40.8h171.7v99.5H20.4z"/>
	<g>
		<path class="st0" d="M274.2,162.3c-11.4,0-20.6-7.9-20.6-17.6c0-0.2,0-0.4,0-0.7c-9.7-3.9-15.9-12.1-15.9-21.3
			c0-2.1,0.3-4.1,1-6.1c-9-5.6-14.3-14.4-14.3-23.9c0-9.8,5.6-18.8,15.1-24.4c-0.3-1.3-0.4-2.6-0.4-3.8c0-8.6,5.7-16.6,14.6-20.7
			c0-0.4-0.1-0.8-0.1-1.3c0-9.7,9.3-17.6,20.6-17.6s20.6,7.9,20.6,17.6v11.7c0,1.2-0.9,2.1-2.1,2.1c-1.2,0-2.1-0.9-2.1-2.1V42.5
			c0-7.4-7.4-13.4-16.4-13.4c-9.1,0-16.4,6-16.4,13.4c0,0.7,0.1,1.4,0.2,2.1c0.2,1-0.3,2-1.3,2.4c-8.2,3.2-13.4,10.1-13.4,17.5
			c0,1.4,0.2,2.9,0.6,4.3c0.3,1-0.2,2-1,2.4c-9,4.7-14.3,12.8-14.3,21.5c0,8.5,5.1,16.4,13.7,21.2c0.9,0.5,1.3,1.7,0.9,2.6
			c-0.9,2-1.3,4.1-1.3,6.2c0,7.9,5.7,14.9,14.6,17.9c1,0.3,1.6,1.3,1.4,2.3c-0.1,0.6-0.2,1.1-0.2,1.7c0,7.4,7.4,13.4,16.4,13.4
			c9.1,0,16.4-6,16.4-13.4v-33.2c0-1.2,0.9-2.1,2.1-2.1c1.2,0,2.1,0.9,2.1,2.1v33.2C294.8,154.4,285.5,162.3,274.2,162.3z"/>
		<path class="st0" d="M240,96.1c-0.6,0-1.1-0.2-1.5-0.6c-0.8-0.8-0.8-2.2,0.1-3c2.5-2.4,8.6-5.5,14.5-0.6c0.9,0.7,1,2.1,0.3,3
			c-0.7,0.9-2.1,1-3,0.3c-4.4-3.6-8.5,0-8.9,0.4C241,95.9,240.5,96.1,240,96.1z"/>
		<path class="st0" d="M240.8,118.1c-0.7,0-1.4-0.4-1.8-1.1c-0.6-1-0.2-2.3,0.8-2.9l1.9-1.1c3.4-1.9,8-4.6,12.1-2.4
			c1,0.5,1.4,1.8,0.9,2.8c-0.5,1-1.8,1.4-2.8,0.9c-2-1.1-5.5,0.9-8,2.4l-1.9,1.1C241.5,118,241.2,118.1,240.8,118.1z"/>
		<path class="st0" d="M255.1,78.3c-1.1,0-2-0.9-2.1-2c-0.4-6.2,4.8-9.8,7.7-10.7c1.1-0.4,2.3,0.2,2.7,1.3c0.4,1.1-0.2,2.3-1.3,2.7
			c-0.2,0.1-5.2,1.9-4.9,6.5c0.1,1.2-0.8,2.2-2,2.2C255.1,78.3,255.1,78.3,255.1,78.3z"/>
		<path class="st0" d="M275.3,140.6c-0.6,0-1.2-0.2-1.6-0.7c-1.4-1.6-2.8-2.4-4.3-2.5c-2.3-0.1-4.2,1.6-4.2,1.6
			c-0.8,0.8-2.2,0.8-3-0.1c-0.8-0.8-0.8-2.2,0.1-3c0.1-0.1,3.1-3,7.3-2.8c2.7,0.1,5.1,1.4,7.3,3.9c0.8,0.9,0.7,2.2-0.2,3
			C276.2,140.4,275.7,140.6,275.3,140.6z"/>
		<path class="st0" d="M271.6,57.9c-1.7,0-3.3-0.6-4.6-1.6c-1.5-1.2-2.5-3-2.7-4.9c-0.1-1.2,0.7-2.2,1.9-2.3
			c1.1-0.1,2.2,0.7,2.3,1.9c0.1,0.8,0.5,1.6,1.2,2.1c0.7,0.5,1.5,0.8,2.3,0.7c0.8-0.1,1.6-0.5,2.1-1.2c0.5-0.7,0.8-1.5,0.7-2.3
			c-0.1-1.2,0.7-2.2,1.9-2.3c1.2-0.1,2.2,0.7,2.3,1.9c0.2,1.9-0.3,3.9-1.6,5.4c-1.2,1.5-3,2.5-4.9,2.7
			C272.2,57.9,271.9,57.9,271.6,57.9z"/>
		<path class="st0" d="M270.6,101.2c-0.3,0-0.7-0.1-1-0.2l-5.1-2.7c-1-0.5-1.4-1.8-0.9-2.8c0.5-1,1.8-1.4,2.8-0.9l5.1,2.7
			c1,0.5,1.4,1.8,0.9,2.8C272.1,100.7,271.3,101.2,270.6,101.2z"/>
		<path class="st0" d="M322.7,162.3c-11.4,0-20.6-7.9-20.6-17.6c0-1.2,0.9-2.1,2.1-2.1c1.2,0,2.1,0.9,2.1,2.1
			c0,7.4,7.4,13.4,16.4,13.4c9.1,0,16.4-6,16.4-13.4c0-0.6-0.1-1.2-0.2-1.7c-0.2-1,0.4-2,1.4-2.3c8.9-3,14.6-10.1,14.6-17.9
			c0-2.1-0.4-4.2-1.3-6.2c-0.4-1,0-2.1,0.9-2.6c8.6-4.8,13.7-12.7,13.7-21.2c0-8.7-5.3-16.7-14.3-21.5c-0.9-0.5-1.3-1.5-1-2.4
			c0.4-1.5,0.6-2.9,0.6-4.3c0-7.4-5.3-14.2-13.4-17.5c-0.9-0.4-1.5-1.4-1.3-2.4c0.2-0.8,0.2-1.5,0.2-2.1c0-7.4-7.4-13.4-16.4-13.4
			c-9.1,0-16.4,6-16.4,13.4v45.3c0,1.2-0.9,2.1-2.1,2.1c-1.2,0-2.1-0.9-2.1-2.1V42.5c0-9.7,9.3-17.6,20.6-17.6s20.6,7.9,20.6,17.6
			c0,0.4,0,0.8-0.1,1.3c8.9,4.1,14.6,12.1,14.6,20.7c0,1.3-0.1,2.5-0.4,3.8c9.5,5.6,15.1,14.6,15.1,24.4c0,9.5-5.3,18.3-14.3,23.9
			c0.6,2,1,4.1,1,6.1c0,9.2-6.2,17.4-15.9,21.3c0,0.2,0,0.4,0,0.7C343.3,154.4,334.1,162.3,322.7,162.3z"/>
		<path class="st0" d="M346.9,97.2c-1,0-1.9-0.8-2.1-1.8c-1-7.6,5-11.1,8.3-12c1.1-0.3,2.3,0.4,2.5,1.5c0.3,1.1-0.4,2.3-1.5,2.5
			c-0.6,0.2-5.9,1.7-5.1,7.3c0.2,1.2-0.7,2.2-1.8,2.4C347.1,97.2,347,97.2,346.9,97.2z"/>
		<path class="st0" d="M356,118.1c-0.4,0-0.7-0.1-1-0.3l-2.2-1.2c-2.1-1.2-4.6-1.2-6.7-0.1c-1,0.5-2.3,0.2-2.8-0.9
			c-0.5-1-0.2-2.3,0.9-2.8c3.4-1.8,7.4-1.7,10.8,0.2l2.2,1.2c1,0.6,1.4,1.9,0.8,2.9C357.5,117.7,356.8,118.1,356,118.1z"/>
		<path class="st0" d="M338.1,75.7c-2,0-4.1-0.6-6.1-2.1c-0.9-0.7-1.1-2-0.4-3c0.7-0.9,2-1.1,3-0.4c3.7,2.9,8.1-0.3,8.1-0.3
			c0.9-0.7,2.3-0.5,2.9,0.5c0.7,0.9,0.5,2.3-0.5,2.9C343.8,74.5,341.1,75.7,338.1,75.7z"/>
		<path class="st0" d="M321.6,140.6c-0.5,0-1-0.2-1.4-0.5c-0.9-0.8-1-2.1-0.2-3c2.2-2.5,4.6-3.8,7.3-3.9c4.2-0.2,7.1,2.7,7.3,2.8
			c0.8,0.8,0.9,2.1,0.1,3c-0.8,0.8-2.1,0.9-3,0.1c-0.1-0.1-2-1.7-4.2-1.6c-1.5,0.1-2.9,0.9-4.3,2.5
			C322.8,140.3,322.2,140.6,321.6,140.6z"/>
		<path class="st0" d="M326.6,58.3c-0.1,0-0.1,0-0.2,0c-2-0.1-3.8-0.9-5.1-2.3c-1.3-1.4-2.1-3.3-2-5.3c0.1-2,0.9-3.8,2.3-5.1
			c0.8-0.8,2.2-0.8,3,0.1c0.8,0.8,0.8,2.2-0.1,3c-0.6,0.6-1,1.4-1,2.2c0,0.8,0.3,1.6,0.9,2.2c0.6,0.6,1.4,1,2.2,1
			c0.9,0.1,1.6-0.3,2.2-0.9c0.8-0.8,2.2-0.8,3,0.1c0.8,0.8,0.8,2.2-0.1,3C330.3,57.5,328.5,58.3,326.6,58.3z"/>
		<path class="st0" d="M329.1,107.4c-0.7,0-1.4-0.4-1.8-1c-0.6-1-0.3-2.3,0.7-2.9c0.7-0.4,1.2-1.1,1.4-1.9c0.2-0.8,0.1-1.7-0.3-2.4
			c-0.6-1-0.3-2.3,0.7-2.9c1-0.6,2.3-0.3,2.9,0.7c1,1.7,1.3,3.7,0.8,5.6c-0.5,1.9-1.7,3.5-3.4,4.5
			C329.8,107.3,329.4,107.4,329.1,107.4z"/>
		<path class="st0" d="M315.3,70.9c-0.6,0-1.2-0.3-1.6-0.8l-1.1-1.3c-1.3-1.5-3.1-2.4-5.1-2.5l-3.1-0.1c-1.2,0-2.1-1-2-2.2
			c0-1.2,1-2,2.2-2l3.1,0.1c3.1,0.1,6.1,1.6,8.1,4l1.1,1.3c0.7,0.9,0.6,2.2-0.3,3C316.2,70.7,315.7,70.9,315.3,70.9z"/>
		<g>
			<g>
				<g>
					<path class="st0" d="M210.9,95.1h-92.5c-1.2,0-2.1-0.9-2.1-2.1s0.9-2.1,2.1-2.1h92.5c1.2,0,2.1,0.9,2.1,2.1
						S212.1,95.1,210.9,95.1z"/>
					<path class="st0" d="M105.9,106.2c-3.5,0-7-1.3-9.7-4c-5.3-5.3-5.3-14,0-19.3c5.3-5.3,14-5.3,19.3,0c5.3,5.3,5.3,14,0,19.3
						C112.9,104.9,109.4,106.2,105.9,106.2z M105.9,83.1c-2.4,0-4.8,0.9-6.7,2.8c-1.8,1.8-2.8,4.2-2.8,6.7c0,2.5,1,4.9,2.8,6.7
						c3.7,3.7,9.7,3.7,13.4,0c3.7-3.7,3.7-9.7,0-13.4C110.7,84.1,108.3,83.1,105.9,83.1z"/>
				</g>
				<g>
					<path class="st0" d="M414.5,95.1h-29.1c-1.2,0-2.1-0.9-2.1-2.1s0.9-2.1,2.1-2.1h29.1c1.2,0,2.1,0.9,2.1,2.1
						S415.6,95.1,414.5,95.1z"/>
					<path class="st0" d="M426.3,106.9c-7.5,0-13.7-6.1-13.7-13.7c0-7.5,6.1-13.7,13.7-13.7c7.5,0,13.7,6.1,13.7,13.7
						C440,100.8,433.9,106.9,426.3,106.9z M426.3,83.8c-5.2,0-9.4,4.2-9.4,9.4c0,5.2,4.2,9.4,9.4,9.4c5.2,0,9.4-4.2,9.4-9.4
						C435.8,88,431.5,83.8,426.3,83.8z"/>
				</g>
				<g>
					<path class="st0" d="M365.8,42.9c-0.5,0-1.1-0.2-1.5-0.6c-0.8-0.8-0.8-2.2,0-3l18.9-19c0.8-0.8,2.2-0.8,3,0
						c0.8,0.8,0.8,2.2,0,3l-18.9,19C366.9,42.7,366.4,42.9,365.8,42.9z"/>
					<path class="st0" d="M393.3,27.3c-3.5,0-7-1.3-9.7-4c-5.3-5.3-5.3-14,0-19.3c5.3-5.3,14-5.3,19.3,0c5.3,5.3,5.3,14,0,19.3
						C400.3,26,396.8,27.3,393.3,27.3z M393.3,4.2c-2.5,0-4.9,1-6.7,2.8c-1.8,1.8-2.8,4.2-2.8,6.7s1,4.9,2.8,6.7
						c3.6,3.6,9.8,3.6,13.4,0c1.8-1.8,2.8-4.2,2.8-6.7s-1-4.9-2.8-6.7C398.2,5.2,395.9,4.2,393.3,4.2z"/>
				</g>
			</g>
			<g>
				<g>
					<path class="st0" d="M384.2,159.9c-0.5,0-1.1-0.2-1.5-0.6l-18.9-19c-0.8-0.8-0.8-2.2,0-3c0.8-0.8,2.2-0.8,3,0l18.9,19
						c0.8,0.8,0.8,2.2,0,3C385.3,159.7,384.7,159.9,384.2,159.9z"/>
					<path class="st0" d="M392.8,179.7c-3.5,0-7-1.3-9.7-4c-5.3-5.3-5.3-14,0-19.3c5.3-5.3,14-5.3,19.3,0c5.3,5.3,5.3,14,0,19.3
						C399.8,178.3,396.3,179.7,392.8,179.7z M392.8,156.6c-2.5,0-4.9,1-6.7,2.8c-3.7,3.7-3.7,9.7,0,13.4s9.7,3.7,13.4,0
						c3.7-3.7,3.7-9.7,0-13.4C397.7,157.6,395.3,156.6,392.8,156.6z"/>
				</g>
			</g>
		</g>
	</g>
</g>
</svg>
