<?xml version="1.0" encoding="utf-8"?>
<!-- Generator: Adobe Illustrator 24.2.3, SVG Export Plug-In . SVG Version: 6.00 Build 0)  -->
<svg version="1.1" id="Layer_1" xmlns="http://www.w3.org/2000/svg" xmlns:xlink="http://www.w3.org/1999/xlink" x="0px" y="0px"
	 viewBox="0 0 200 90" style="enable-background:new 0 0 200 90;" xml:space="preserve">
<style type="text/css">
	.st0{fill:#F05526;stroke:#F05526;stroke-width:2.7573;stroke-linecap:round;stroke-linejoin:round;stroke-miterlimit:10;}
	.st1{fill:none;stroke:#F05526;stroke-width:2.7573;stroke-linecap:round;stroke-linejoin:round;stroke-miterlimit:10;}
	.st2{fill:#F05526;}
</style>
<polygon class="st0" points="155.2,51.8 159.8,44.9 155.2,38 "/>
<polyline class="st1" points="158.9,34.2 166.6,44.9 158.8,55.9 "/>
<path class="st2" d="M158.2,46.4L2.3,47.3c-1,0-1.8-1.3-1.8-2.3s0.8-2.3,1.8-2.3l155.9,0.9c1,0,0.9,0.4,0.9,1.4
	S159.2,46.4,158.2,46.4z"/>
<g>
	<path class="st2" d="M58.9,72.1C66.3,72,73.1,69,78,64c3.7-3.8,6.4-8.8,7.3-14.4h-2.2c-0.9,4.6-3,8.7-5.9,12l-4.7-4.6
		c1.9-2.1,3.2-4.7,3.9-7.5h-2.2c-1.6,5.3-5.8,9.6-11.4,11.1c-0.6,0.2-0.9,0.7-0.8,1.3c0.2,0.6,0.7,0.9,1.3,0.8
		c2.9-0.8,5.5-2.2,7.6-4.1l4.7,4.6c-4.4,4.1-10.3,6.6-16.8,6.7C46.7,70,36.4,61.5,34.2,49.6H32c0,0.1,0,0.1,0,0.2
		c0.9,5.4,3.4,10.1,6.9,13.8l-4.5,4.6c-4.8-5-8-11.5-9-18.6h-2.2c2.1,16.1,14.9,29,31.3,30.9c0.3,0,0.7-0.1,0.9-0.3
		c0.2-0.2,0.3-0.4,0.3-0.6c0.1-0.6-0.4-1.1-1-1.2c-7.3-0.8-13.8-4-18.9-8.6l4.5-4.6C45.3,69.5,51.8,72.2,58.9,72.1z"/>
	<path class="st2" d="M16.6,40.4c1-9.4,5-17.8,11-24.2l4.7,4.6c-4.9,5.3-8.2,12.1-9.2,19.6h2.2c2-14.7,13.7-26.7,28.7-28.7
		c0.6-0.1,1-0.6,0.9-1.2c-0.1-0.6-0.6-1-1.2-0.9c-7.7,1-14.6,4.5-19.9,9.6l-4.7-4.6c7.5-7.3,17.7-11.8,29-11.9
		C80,2.5,98.3,18.7,100.6,40.3c0,0,0,0,0,0h2.1c0-0.1,0-0.2,0-0.3C100.3,17.3,81.1,0.4,58.2,0.6C35.4,0.8,16.8,17.9,14.5,40.4H16.6z
		"/>
	<path class="st2" d="M54.2,62.9c0.4,0.1,0.8,0,1-0.3c0.1-0.1,0.2-0.3,0.3-0.5c0.1-0.6-0.2-1.2-0.8-1.3c-2.5-0.6-4.8-1.8-6.7-3.4
		l4.6-4.7c1.7,1.3,3.8,2.1,6.1,2.1c2.6,0,5-1.1,6.8-2.9c0.6-0.6,1.1-1.3,1.5-2.1c0-0.1,0.1-0.1,0.1-0.2h-2.6c-1.4,1.9-3.6,2.9-5.9,3
		c-2.4,0-4.6-1.1-6.1-3h-2.5c0,0.1,0.1,0.2,0.1,0.4c0.3,0.4,0.5,0.8,0.8,1.2l-4.6,4.7c-1.6-1.8-2.8-3.9-3.5-6.2h-2.2
		C42.5,56.1,47.5,61.2,54.2,62.9z"/>
	<path class="st2" d="M62.7,9.5c-0.6-0.1-1.1,0.4-1.2,1c-0.1,0.6,0.4,1.1,1,1.2c15.3,1.7,27.3,13.8,29.4,28.8h2.2
		C92,24.3,79.2,11.3,62.7,9.5z"/>
	<path class="st2" d="M63,27.1c-0.6-0.1-1.2,0.2-1.3,0.8c-0.1,0.6,0.2,1.2,0.8,1.3c5.7,1.4,10.1,5.7,11.7,11.1h2.2
		C74.8,33.9,69.7,28.8,63,27.1z"/>
	<path class="st2" d="M100.6,49.6c-1,9.4-5,17.8-11,24.2l-4.7-4.6c4.9-5.3,8.2-12.1,9.2-19.6h-2.2c-2,14.7-13.7,26.7-28.7,28.7
		c-0.6,0.1-1,0.6-0.9,1.2c0.1,0.6,0.6,1,1.2,0.9c7.7-1,14.6-4.5,19.9-9.7l4.7,4.6c-7.5,7.3-17.7,11.8-29,11.9
		C37.2,87.5,19,71.3,16.6,49.7c0,0,0,0,0,0h-2.1c0,0.1,0,0.2,0,0.3C17,72.7,36.1,89.6,59.1,89.4c12.3-0.1,23.3-5.2,31.3-13.3
		c6.8-6.9,11.3-16.2,12.4-26.5H100.6z"/>
	<path class="st2" d="M50.1,40.2c0,0.1-0.1,0.1-0.1,0.2h2.6c1.4-1.9,3.6-2.9,5.9-3c2.4,0,4.6,1.1,6.1,3h2.6
		c-0.1-0.1-0.1-0.2-0.2-0.4c-1.8-3-5-4.8-8.5-4.8C55,35.3,51.9,37.1,50.1,40.2z"/>
	<path class="st2" d="M58.4,17.9C45.2,18.1,34.2,27.5,32,40.4h2.2c0.9-4.6,3-8.7,5.9-12l4.6,4.6c-1.9,2.1-3.2,4.7-3.9,7.5H43
		c1.6-5.3,5.8-9.6,11.4-11.1c0.6-0.2,0.9-0.7,0.8-1.3c-0.2-0.6-0.7-0.9-1.3-0.8c-2.9,0.8-5.5,2.2-7.6,4.1l-4.7-4.6
		c4.4-4.1,10.3-6.6,16.8-6.7c12.2-0.1,22.5,8.4,24.7,20.3h2.2c0-0.1,0-0.1,0-0.2C83,27.2,71.6,17.8,58.4,17.9z"/>
</g>
<path class="st2" d="M194.4,62.2v-5.5v-7.1V25.2c0-2.2-1.8-3.9-3.9-3.9h-3.4h-1.6h-49.9c-2.2,0-3.9,1.8-3.9,3.9v37.1h-5.5v3.9
	c0,2.2,1.8,3.9,3.9,3.9h65.9c2.2,0,3.9-1.8,3.9-3.9v-3.9H194.4z M133.2,25.2c0-1.3,1.1-2.3,2.4-2.3h54.9c1.3,0,2.4,1.1,2.4,2.3v1.7
	h-59.6V25.2z M133.2,27.7h59.6v34.5h-59.6V27.7z M166.9,63.8v1.6h-7.8v-1.6H166.9z M198.3,66.2c0,1.3-1.1,2.4-2.4,2.4h-65.9
	c-1.3,0-2.4-1.1-2.4-2.4v-2.4h30.6v2.4h9.4v-2.4h30.6V66.2z"/>
</svg>
