<?xml version="1.0" encoding="utf-8"?>
<!-- Generator: Adobe Illustrator 24.2.3, SVG Export Plug-In . SVG Version: 6.00 Build 0)  -->
<svg version="1.1" id="Layer_1" xmlns="http://www.w3.org/2000/svg" xmlns:xlink="http://www.w3.org/1999/xlink" x="0px" y="0px"
	 viewBox="0 0 200 90" style="enable-background:new 0 0 200 90;" xml:space="preserve">
<style type="text/css">
	.st0{fill:#F05727;stroke:#F05727;stroke-width:0.5226;stroke-miterlimit:10;}
	.st1{fill:none;stroke:#F05727;stroke-width:1.0453;stroke-miterlimit:10;}
	.st2{fill:#F05727;}
	.st3{fill:none;stroke:#F05727;stroke-width:1.5679;stroke-miterlimit:10;}
	.st4{fill:none;stroke:#F05727;stroke-width:0.9011;stroke-miterlimit:10;}
	.st5{fill:none;stroke:#F05727;stroke-width:0.9846;stroke-miterlimit:10;}
	.st6{fill:#F05727;stroke:#F05727;stroke-miterlimit:10;}
	.st7{fill:none;stroke:#F05727;stroke-miterlimit:10;}
	.st8{fill:none;stroke:#F05727;stroke-width:1.0175;stroke-miterlimit:10;}
</style>
<g>
	<g>
		<path class="st0" d="M101.8,87.6c0.6,0.5,1.2,0.8,1.8,0.6c2.9-0.7,6.6-1.5,9.8-0.5c0.6,0.2,1.2,0.4,1.7,0.7c1.2,0.5,2.4,1,3.7,1
			h0.1c1.6,0,3.2-0.8,4.5-2.2c0.5-0.5,0.9-1.2,1.3-1.8c0.6-1,1.2-2,2.1-2.4c0.8-0.3,1.7-0.3,2.7-0.3c1.2,0,2.5,0,3.8-0.7
			c3.4-1.9,5.4-6.1,4.8-10c3.9-0.9,7.3-3.6,9.2-7.2c0.3-0.5,0.5-1.1,0.7-1.7c0.1-0.4,0.3-0.9,0.4-1.3c0.4-1.5,0.5-3.1,0.3-4.7v0
			c0-0.4-0.1-0.8-0.2-1.1c-0.2-1-0.5-2-0.9-2.9c0.8-1,1.5-2,2-3.1c0.2-0.4,0.4-0.9,0.6-1.3c0.8-2.1,1.2-4.4,1.1-6.8
			c0-0.3,0-0.6-0.1-0.9c0-0.2,0-0.3-0.1-0.5c-0.2-1.4-0.5-2.8-1.1-4.1c-0.2-0.6-0.5-1.2-0.8-1.8c-1-1.8-2.4-3.5-4-4.8
			c1-3.9,0.3-8.1-2-11.4c-2.3-3.3-6-5.5-9.9-5.9c-1.1-3.5-3.7-6.6-7-8.1c-2-0.9-4.2-1.4-6.5-1.2c-0.6,0-1.2,0.2-1.9,0.4
			c-0.9,0.2-1.9,0.5-2.8,0.3c-0.8-0.2-1.5-0.7-2.3-1.3c-0.7-0.5-1.4-1.1-2.3-1.3c-1.5-0.5-3.2-0.6-5-0.3c-1.7,0.3-3,0.9-3.8,1.9
			c-1.3,1.6-1.2,3.8-1,5.9c0.1,1.3,0.3,2.8,0.9,4c0.1,0.3,0.3,0.5,0.5,0.8c0,0,0.1,0.1,0.1,0.1c0.6,0.8,1.5,1.5,2.7,1.6l0.1,0l0.1,0
			c2.1-1.1,3.2-3.6,2.5-5.9l-0.5,0.1c0.6,2-0.4,4.3-2.2,5.3c-1.3-0.1-2.3-1.2-2.8-2.2c-0.6-1.2-0.7-2.6-0.8-3.9
			c-0.2-2-0.3-4.1,0.9-5.5c0.7-0.9,1.9-1.4,3.5-1.7c1.7-0.3,3.4-0.2,4.8,0.3c0.8,0.2,1.4,0.8,2.1,1.3c0.8,0.6,1.5,1.2,2.4,1.4
			c1,0.2,2-0.1,3-0.3c0.6-0.2,1.2-0.3,1.8-0.3c2.2-0.1,4.4,0.3,6.3,1.2c3.3,1.5,5.8,4.5,6.8,8l0,0.2v0l0.1,0l0,0
			c3.9,0.4,7.5,2.5,9.7,5.7c2.2,3.2,2.9,7.4,1.8,11.1l0,0.2l0.1,0.1c1.7,1.4,3.1,3.1,4.1,5c0.2,0.3,0.3,0.6,0.5,1
			c0.7,1.6,1.1,3.2,1.3,4.9c0,0.2,0,0.5,0.1,0.7c0.1,2.4-0.3,4.8-1.2,7c-0.2,0.5-0.4,0.9-0.6,1.3c-0.5,1-1.2,2-1.9,2.8l-0.1,0.1
			l0.1,0.1c0,0,0,0,0,0c0.1,0.2,0.2,0.4,0.2,0.6c1,2.6,1.1,5.5,0.4,8.1c-0.1,0.4-0.2,0.9-0.4,1.3c-0.2,0.5-0.4,1-0.6,1.4
			c-1.8,3.5-5.2,6.1-9.1,7l-0.2,0.1l0,0.2c0.7,3.8-1.1,7.9-4.5,9.7c-1.1,0.6-2.3,0.6-3.5,0.6c-1,0-2,0-2.9,0.4
			c-1.1,0.5-1.7,1.5-2.3,2.6c-0.4,0.6-0.7,1.3-1.2,1.7c-1.2,1.3-2.7,2-4.1,2c-1.2,0-2.4-0.5-3.6-1c-0.6-0.2-1.2-0.5-1.8-0.7
			c-3.4-1.1-7.1-0.2-10.1,0.5c-0.6,0.1-1.1-0.3-1.4-0.5c-0.6-0.6-1-1.6-0.9-2.3c0.2-1.3,1.1-2.2,2.3-3.3c1-0.9,3-1.4,4.9-1.1
			c1.4,0.2,2.4,0.7,2.9,1.5l0.4-0.3c-0.6-0.9-1.7-1.5-3.3-1.7c-2-0.3-4.2,0.3-5.3,1.3c-0.4,0.3-0.8,0.7-1.2,1.2
			c-0.1,0.1-0.2,0.3-0.3,0.4c-0.4,0.6-0.8,1.2-0.9,2C100.6,85.7,101,86.9,101.8,87.6z"/>
		<path class="st0" d="M104.7,24.9c1.3,0,2.7-0.7,4.1-2.1c2.9-2.8,4.7-6.7,4.9-10.7l-0.5,0c-0.2,3.9-2,7.7-4.7,10.4
			c-1.3,1.3-2.6,2-3.9,1.9c-1.7-0.1-3.6-1.8-3.8-4.5c-0.1-2.3,0.9-4.4,1.8-6.4l-0.5-0.2c-0.9,2-2,4.2-1.8,6.6
			c0.1,2.3,1.8,4.8,4.3,4.9C104.6,24.9,104.7,24.9,104.7,24.9z"/>
		<path class="st0" d="M101.8,83.1l0.4-0.3c-1-1-1.6-2.5-1.7-4.2c-0.1-1.6,0.1-3.1,0.4-4.7c0.3-1.7,0.6-3.7,1.5-5.2
			c1.4-2.4,1.5-2.6,0.5-4.6c-0.2-0.3-0.3-0.7-0.5-1.2c-0.8-1.9-1.7-4.3-1.4-6.9c0.1-1.1,0.6-2.1,1.1-3c0.5-0.9,0.9-1.9,1.1-2.9
			c0.2-1.7-0.2-3.8-0.6-5.8c-0.2-0.9-0.4-1.8-0.5-2.6c-0.3-1.9-0.4-3.8,0.5-5.3c0.3-0.4,0.6-0.8,0.9-1.1c0.5-0.6,1.1-1.1,1.3-1.9
			c0.5-1.5-0.3-3.1-0.9-3.8c-0.3-0.4-0.6-0.8-0.9-1.2c-0.5-0.6-1-1.2-1.4-1.9c-0.5-1-0.7-2.5,0.1-3.3l-0.4-0.3
			c-1,1.1-0.8,2.7-0.2,3.9c0.4,0.7,0.9,1.4,1.4,2c0.3,0.4,0.6,0.7,0.9,1.1c0.5,0.7,1.3,2.1,0.8,3.4c-0.2,0.7-0.7,1.2-1.2,1.7
			c-0.3,0.4-0.7,0.8-1,1.2c-1,1.6-0.8,3.6-0.6,5.6c0.1,0.8,0.3,1.7,0.5,2.7c0.4,1.9,0.8,4,0.6,5.6c-0.1,1-0.5,1.8-1,2.8
			c-0.5,1-1,2-1.1,3.2c-0.3,2.7,0.6,5.2,1.4,7.1c0.2,0.5,0.4,0.9,0.5,1.2c0.9,1.9,0.9,1.9-0.5,4.1c-1,1.7-1.3,3.6-1.6,5.4
			c-0.2,1.6-0.5,3.2-0.4,4.8C100.1,79.9,100.5,81.7,101.8,83.1z"/>
		<path class="st0" d="M110.9,79.6c0.2,0,0.4,0,0.6,0c1.8-0.2,3.4-1.3,4.3-2.8c0.9-1.5,1-3.4,1.1-5c0.1-1.5,0-3.2-0.7-4.7
			c-1.1-2-3.5-3.2-6.2-3.1c-2.4,0.1-4.8,1.1-6.8,1.9l0.2,0.5c2-0.9,4.3-1.8,6.6-1.9c2.5-0.1,4.8,1,5.8,2.8c0.7,1.3,0.7,2.9,0.7,4.4
			c-0.1,1.5-0.2,3.3-1,4.7c-0.8,1.4-2.3,2.4-3.9,2.6c-1.6,0.2-3.2-0.4-4.3-1.5c0.4-2.4,1.1-4.6,2.1-6.8l-0.5-0.2
			c-1.1,2.2-1.8,4.6-2.2,7.1l0,0.1l0.1,0.1C107.8,79,109.4,79.6,110.9,79.6z"/>
		<path class="st0" d="M120.3,80.6c0.5,0,1-0.1,1.4-0.3c0.9-0.4,1.6-1.4,1.9-2.6c0.2-0.6,0.3-1.2,0.4-1.8c0.1-0.4,0.1-0.9,0.3-1.3
			c0.4-1.8,1.5-3.6,3-4.8c1.7-1.4,2-1.2,3-0.4c0.3,0.3,0.7,0.6,1.3,0.9l0.3-0.4c-0.5-0.3-0.9-0.6-1.2-0.9c-1.2-0.9-1.7-1.3-3.6,0.4
			c-1.5,1.3-2.6,3.1-3.1,5.1c-0.1,0.4-0.2,0.9-0.3,1.3c-0.1,0.6-0.2,1.2-0.4,1.7c-0.2,0.6-0.7,1.8-1.7,2.3c-0.8,0.4-1.9,0.3-2.9-0.2
			c-0.9-0.5-1.7-1.3-2.4-2l-0.4,0.3c0.8,0.8,1.6,1.6,2.6,2.1C119,80.4,119.6,80.6,120.3,80.6z"/>
		<path class="st0" d="M126.6,25.9c3,0,5.9-1.8,7.3-4.4c1.4-2.7,1.1-6.1-0.7-8.6l-0.4,0.3c1.7,2.3,1.9,5.5,0.6,8
			c-1.3,2.5-4,4.2-6.8,4.2c0,0,0,0,0,0c-2.8,0-5.6-1.7-6.8-4.3c-0.4-0.8-0.6-1.5-0.5-2.1c0.2-1.6,1.8-2.6,3.5-3.5
			c0.1-0.1,0.2-0.2,0.4-0.4c0,0,0.1-0.1,0.1-0.1l-0.4-0.4c0,0-0.1,0.1-0.1,0.1c-0.1,0.1-0.2,0.2-0.3,0.3c-1.7,0.9-3.5,2-3.7,3.9
			c-0.1,0.7,0.1,1.5,0.5,2.4C120.6,24.1,123.5,25.9,126.6,25.9C126.5,25.9,126.6,25.9,126.6,25.9z"/>
		<path class="st0" d="M137.8,32.8c0.1-1.7-1.6-3-2.3-3.4c-0.3-0.2-0.6-0.4-0.9-0.5c-0.9-0.5-1.7-0.9-2.3-1.7
			c-0.5-0.6-0.7-1.4-0.5-2.1c0.1-0.3,0.2-0.8,0.7-1l-0.2-0.4c-0.5,0.3-0.8,0.8-1,1.4c-0.2,0.8,0.1,1.8,0.7,2.5
			c0.7,0.8,1.6,1.3,2.5,1.8c0.3,0.2,0.6,0.3,0.9,0.5c0.7,0.4,2.2,1.5,2.1,2.9L137.8,32.8z"/>
		<path class="st0" d="M120.2,50.6c1.7-0.6,2.3-2.8,2-4.5c-0.2-0.8-0.4-1.6-0.7-2.4c-0.3-0.8-0.6-1.6-0.7-2.4
			c-0.6-3.4,1.8-6.7,4.3-8.4c2.8-1.9,6.4-2.7,9.5-3.4l-0.1-0.5c-3.2,0.7-6.8,1.5-9.7,3.5c-3.3,2.2-5,5.7-4.5,8.9
			c0.1,0.9,0.5,1.7,0.8,2.5c0.3,0.7,0.6,1.5,0.7,2.3c0.3,1.5-0.2,3.5-1.6,4L120.2,50.6z"/>
		<path class="st0" d="M115.3,29c0.5,0,1.1-0.1,1.6-0.4c0.9-0.5,1.6-1.3,2.2-2.1c0.8-1,1.5-2,2.7-2.1l-0.1-0.5
			c-1.4,0.2-2.2,1.2-3,2.3c-0.6,0.8-1.2,1.6-2.1,2c-1.6,0.8-3.4,0-4.5-1.1c-1.2-1.2-1.9-3-2.4-4.5l-0.5,0.2c0.6,1.6,1.3,3.4,2.5,4.7
			C112.6,28.3,113.9,29,115.3,29z"/>
		<path class="st0" d="M131.3,60.6c1.2-2.2,2.5-4.6,4.6-6.1c3.2-2.1,7.5-1.6,11.7-0.8l0.1-0.5c-4.2-0.8-8.6-1.4-12,0.9
			c-2.3,1.5-3.6,4-4.8,6.3L131.3,60.6z"/>
		<path class="st0" d="M132,67.2c1.1,0,2.2-0.2,3.2-0.7c2.3-1.2,3.9-3.9,3.8-6.5l-0.5,0c0.1,2.5-1.3,4.9-3.5,6.1
			c-2.2,1.1-5.1,0.9-7-0.7c-1-0.8-1.8-2-2.6-3.1c-0.4-0.5-0.7-1.1-1.1-1.6c-0.8-1-2.8-3.2-5.3-2.7c-1.4,0.2-2.7,1.3-3.5,2.9
			c-0.7,1.4-0.9,2.9-1,4.4l0.5,0.1c0.2-1.5,0.4-3,1-4.3c0.7-1.4,1.9-2.4,3.1-2.6c2.3-0.4,4.1,1.7,4.8,2.6c0.4,0.5,0.8,1,1.1,1.5
			c0.8,1.1,1.6,2.3,2.7,3.2C128.9,66.7,130.5,67.2,132,67.2z"/>
		<path class="st0" d="M133.2,56.7l0.3-0.4c-3.8-3.4-5-9.5-2.7-14.1l-0.4-0.2C128,46.8,129.2,53.2,133.2,56.7z"/>
		<path class="st0" d="M108.2,63.9l0.4-0.3c-1.9-2.5-0.3-6.2,0.9-8.2c0.2-0.3,0.3-0.5,0.5-0.8c1.5-2.4,3-4.9,2.5-7.7
			c-0.2-1-0.6-1.9-1-2.7c-0.3-0.6-0.5-1.2-0.7-1.8c-0.8-2.6-0.1-5.2,0.6-7c0.9-2.2,2.4-4.3,3.7-6.2l-0.4-0.3c-1.4,2-2.9,4-3.8,6.3
			c-0.7,1.8-1.5,4.6-0.6,7.3c0.2,0.6,0.5,1.3,0.8,1.9c0.4,0.9,0.8,1.7,0.9,2.6c0.4,2.6-1,5-2.4,7.4c-0.2,0.3-0.3,0.6-0.5,0.8
			C107.8,57.2,106.1,61.1,108.2,63.9z"/>
	</g>
	<g>
		<path class="st1" d="M47.2,45.6c0-42.3,44.3-43.2,44.3-43.2C93.9,2.3,96,4.2,96,6.6V8v74v2.5c0,2.6-2.2,4.6-4.7,4.4
			C91.3,88.9,47.2,87.9,47.2,45.6z"/>
		<path class="st2" d="M87.8,4.9c0,0,0.1,0,0.1,0"/>
	</g>
	<g>
		<line class="st3" x1="79.8" y1="87.2" x2="79.8" y2="63.9"/>
		<circle class="st3" cx="79.8" cy="60.9" r="3"/>
	</g>
	<g>
		<line class="st3" x1="88.6" y1="89" x2="88.6" y2="74.4"/>
		<circle class="st3" cx="88.6" cy="71.4" r="3"/>
	</g>
	<g>
		<line class="st3" x1="87.2" y1="38.9" x2="87.2" y2="29.5"/>
		<circle class="st3" cx="87.2" cy="27" r="3"/>
		<circle class="st3" cx="87.2" cy="41.9" r="3"/>
	</g>
	<g>
		<line class="st3" x1="96.2" y1="49.9" x2="80.3" y2="49.9"/>
		<circle class="st3" cx="77.8" cy="49.9" r="3"/>
	</g>
	<g>
		<polyline class="st3" points="95.8,13.5 88.2,13.5 82.1,12 		"/>
		<circle class="st3" cx="79.2" cy="11.4" r="3"/>
	</g>
	<g>
		<line class="st3" x1="48.2" y1="35.7" x2="57.9" y2="35.7"/>
		<circle class="st3" cx="60.4" cy="35.7" r="3"/>
	</g>
	<g>
		<line class="st3" x1="53.1" y1="22.9" x2="63" y2="22.9"/>
		<circle class="st3" cx="65.5" cy="22.9" r="3"/>
	</g>
	<line class="st3" x1="60.6" y1="77.4" x2="60.6" y2="65.9"/>
	<circle class="st3" cx="60.6" cy="63.4" r="3"/>
	<circle class="st3" cx="56.2" cy="49.2" r="3"/>
	<polyline class="st3" points="71.5,84.1 71.5,55.2 65.8,49.2 58.6,49.2 	"/>
	<g>
		<circle class="st3" cx="74.7" cy="36.3" r="3"/>
		<polyline class="st3" points="95.9,19.2 79.4,19.2 74.7,25.6 74.7,33.8 		"/>
	</g>
</g>
<circle class="st2" cx="10.2" cy="18.1" r="7.1"/>
<circle class="st2" cx="37.1" cy="30.5" r="4.4"/>
<circle class="st2" cx="30.1" cy="73.7" r="4.4"/>
<circle class="st2" cx="4.5" cy="45.2" r="2.2"/>
<circle class="st2" cx="35.3" cy="58.3" r="2.5"/>
<circle class="st4" cx="20.7" cy="43.8" r="9.6"/>
<circle class="st4" cx="7.9" cy="64" r="4.8"/>
<circle class="st4" cx="3.4" cy="35.2" r="2.9"/>
<circle class="st5" cx="43.1" cy="68.9" r="3.6"/>
<line class="st6" x1="9.5" y1="17.2" x2="17.1" y2="35"/>
<line class="st6" x1="10.5" y1="60" x2="17" y2="52.6"/>
<line class="st6" x1="28.3" y1="49.2" x2="35.3" y2="58.3"/>
<polyline class="st7" points="28.6,38.4 37,30.1 47.6,39.4 "/>
<line class="st7" x1="4.1" y1="32.3" x2="9.9" y2="18.8"/>
<line class="st7" x1="4.5" y1="45.2" x2="3.4" y2="38.1"/>
<line class="st7" x1="34.3" y1="60.6" x2="30.6" y2="71.9"/>
<line class="st6" x1="30.1" y1="73.7" x2="39.4" y2="70.6"/>
<circle class="st2" cx="165.3" cy="56.9" r="10.3"/>
<circle class="st2" cx="184.1" cy="26.1" r="4.4"/>
<circle class="st2" cx="197.4" cy="52.7" r="2.2"/>
<circle class="st2" cx="195.9" cy="37.7" r="2.2"/>
<circle class="st2" cx="167.4" cy="17.6" r="2.5"/>
<circle class="st4" cx="187.6" cy="47.8" r="4.8"/>
<circle class="st5" cx="158.3" cy="76.1" r="3.6"/>
<circle class="st5" cx="156.7" cy="18.7" r="3.6"/>
<circle class="st8" cx="165.2" cy="31.9" r="6"/>
<line class="st7" x1="149" y1="34.6" x2="159" y2="33.4"/>
<line class="st7" x1="165.2" y1="37.9" x2="165.2" y2="50.4"/>
<line class="st7" x1="164.9" y1="57.5" x2="159.5" y2="72.7"/>
<line class="st7" x1="162" y1="26.5" x2="158.4" y2="21.6"/>
<line class="st7" x1="165.2" y1="25.8" x2="167.4" y2="17.6"/>
<polyline class="st7" points="191.3,44.7 195.9,37.7 184.1,26.1 165.3,56.9 "/>
<line class="st7" x1="197.4" y1="52.7" x2="191.6" y2="50.7"/>
</svg>
