<?xml version="1.0" encoding="utf-8"?>
<!-- Generator: Adobe Illustrator 24.2.3, SVG Export Plug-In . SVG Version: 6.00 Build 0)  -->
<svg version="1.1" id="Layer_1" xmlns="http://www.w3.org/2000/svg" xmlns:xlink="http://www.w3.org/1999/xlink" x="0px" y="0px"
	 viewBox="0 0 200 90" style="enable-background:new 0 0 200 90;" xml:space="preserve">
<style type="text/css">
	.st0{fill:#F05526;}
	.st1{fill:none;stroke:#F05526;stroke-miterlimit:10;}
	.st2{fill:#F05526;stroke:#F05526;stroke-width:0.2675;stroke-miterlimit:10;}
	.st3{fill:#F05526;stroke:#F05526;stroke-width:0.2724;stroke-miterlimit:10;}
	.st4{fill:#F05526;stroke:#F05526;stroke-width:0.2667;stroke-miterlimit:10;}
	.st5{fill:none;stroke:#F05526;stroke-width:3;stroke-miterlimit:10;}
</style>
<g>
	<g>
		<path class="st0" d="M4.4,2.6v9.6H2.1V4.4H0.2V2.6H4.4z"/>
		<path class="st0" d="M13.3,9.2c0,1.7-1.2,3.2-4,3.2c-1.3,0-2.7-0.4-3.7-1l0.9-1.7c0.7,0.5,1.7,0.9,2.7,0.9c1.1,0,1.8-0.5,1.8-1.2
			C11,8.5,10.5,8,8.8,8H6.4l0.5-5.4h5.9v1.8h-4L8.5,6.2h0.8C12.2,6.2,13.3,7.5,13.3,9.2z"/>
		<path class="st0" d="M13.9,5.2c0-1.6,1-2.6,2.4-2.6c1.4,0,2.4,1,2.4,2.6c0,1.6-1,2.6-2.4,2.6C14.9,7.8,13.9,6.8,13.9,5.2z
			 M17.3,5.2c0-1-0.4-1.5-1-1.5c-0.6,0-1,0.5-1,1.5c0,1,0.4,1.5,1,1.5C16.9,6.7,17.3,6.2,17.3,5.2z M22,2.6h1.6l-6.6,9.6h-1.6
			L22,2.6z M20.4,9.7c0-1.6,1-2.6,2.4-2.6c1.4,0,2.4,1,2.4,2.6c0,1.6-1,2.6-2.4,2.6C21.4,12.3,20.4,11.3,20.4,9.7z M23.8,9.7
			c0-1-0.4-1.5-1-1.5c-0.6,0-1,0.5-1,1.5c0,1,0.4,1.5,1,1.5C23.4,11.2,23.8,10.7,23.8,9.7z"/>
	</g>
	<path class="st1" d="M116.3,10.4h-9.2c-0.7,0-1.3-1.1-1.3-2.4l0,0c0-1.3,0.6-2.4,1.3-2.4h9.2c0.7,0,1.3,1.1,1.3,2.4l0,0
		C117.6,9.3,117,10.4,116.3,10.4z"/>
	<path class="st2" d="M94.8,10.4H37.2c-1.3,0-2.3-1.1-2.3-2.4l0,0c0-1.3,1-2.4,2.3-2.4h57.6c1.3,0,2.3,1.1,2.3,2.4l0,0
		C97.1,9.3,96.1,10.4,94.8,10.4z"/>
	<path class="st0" d="M101.2,1.3c-3.6,0-6.6,3-6.6,6.6c0,3.6,3,6.6,6.6,6.6c3.6,0,6.6-3,6.6-6.6C107.8,4.3,104.9,1.3,101.2,1.3z
		 M101.2,11.4c-1.9,0-3.4-1.5-3.4-3.4c0-1.9,1.5-3.4,3.4-3.4c1.9,0,3.4,1.5,3.4,3.4C104.7,9.8,103.1,11.4,101.2,11.4z"/>
</g>
<g>
	<g>
		<path class="st0" d="M7.8,46.7v1.8H0.6v-1.4l3.7-3.5c0.8-0.8,1-1.3,1-1.8c0-0.8-0.5-1.2-1.5-1.2c-0.8,0-1.5,0.3-2,1l-1.6-1
			c0.7-1.1,2.1-1.8,3.8-1.8c2.1,0,3.6,1.1,3.6,2.8c0,0.9-0.3,1.8-1.6,3l-2.2,2.1H7.8z"/>
		<path class="st0" d="M15.8,45.6c0,1.6-1.2,3.1-4,3.1c-1.3,0-2.7-0.4-3.7-1L9.1,46c0.7,0.5,1.7,0.9,2.7,0.9c1.1,0,1.8-0.5,1.8-1.2
			c0-0.7-0.5-1.2-1.8-1.2h-1V43l2-2.2H8.7V39h6.7v1.4l-2.2,2.5C15,43.1,15.8,44.2,15.8,45.6z"/>
		<path class="st0" d="M16.6,41.5c0-1.6,1-2.6,2.4-2.6c1.4,0,2.4,1,2.4,2.6c0,1.6-1,2.6-2.4,2.6C17.6,44.1,16.6,43.1,16.6,41.5z
			 M20,41.5c0-1-0.4-1.5-1-1.5c-0.6,0-1,0.5-1,1.5c0,1,0.4,1.5,1,1.5C19.6,43,20,42.5,20,41.5z M24.7,39h1.6l-6.6,9.6h-1.6L24.7,39z
			 M23.1,46c0-1.6,1-2.6,2.4-2.6c1.4,0,2.4,1,2.4,2.6c0,1.6-1,2.6-2.4,2.6C24.1,48.7,23.1,47.6,23.1,46z M26.5,46c0-1-0.4-1.5-1-1.5
			c-0.6,0-1,0.5-1,1.5c0,1,0.4,1.5,1,1.5C26.1,47.5,26.5,47,26.5,46z"/>
	</g>
	<path class="st1" d="M116.7,46.9H98.4c-0.5,0-0.9-1.1-0.9-2.4l0,0c0-1.3,0.4-2.4,0.9-2.4h18.3c0.5,0,0.9,1.1,0.9,2.4l0,0
		C117.6,45.8,117.2,46.9,116.7,46.9z"/>
	<path class="st3" d="M87.1,46.9H37.3c-1.3,0-2.4-1.1-2.4-2.4l0,0c0-1.3,1.1-2.4,2.4-2.4h49.7c1.3,0,2.4,1.1,2.4,2.4l0,0
		C89.5,45.8,88.4,46.9,87.1,46.9z"/>
	<path class="st0" d="M92.9,37.9c-3.6,0-6.6,3-6.6,6.6c0,3.6,3,6.6,6.6,6.6c3.6,0,6.6-3,6.6-6.6C99.5,40.8,96.6,37.9,92.9,37.9z
		 M92.9,47.9c-1.9,0-3.4-1.5-3.4-3.4c0-1.9,1.5-3.4,3.4-3.4c1.9,0,3.4,1.5,3.4,3.4C96.4,46.3,94.8,47.9,92.9,47.9z"/>
</g>
<g>
	<g>
		<path class="st0" d="M7.9,81.1c0,1.7-1.2,3.2-4,3.2c-1.3,0-2.7-0.4-3.7-1l0.9-1.7c0.7,0.5,1.7,0.9,2.7,0.9c1.1,0,1.8-0.5,1.8-1.2
			c0-0.8-0.5-1.2-2.2-1.2H1l0.5-5.4h5.9v1.8h-4l-0.2,1.8H4C6.8,78.1,7.9,79.4,7.9,81.1z"/>
		<path class="st0" d="M17.6,82.1H16v2h-2.2v-2H8.7v-1.5l4.5-6.1h2.3l-4.2,5.8h2.6v-1.8H16v1.8h1.6V82.1z"/>
		<path class="st0" d="M17.7,77c0-1.6,1-2.6,2.4-2.6c1.4,0,2.4,1,2.4,2.6c0,1.6-1,2.6-2.4,2.6C18.7,79.7,17.7,78.6,17.7,77z
			 M21.1,77c0-1-0.4-1.5-1-1.5c-0.6,0-1,0.5-1,1.5c0,1,0.4,1.5,1,1.5C20.7,78.5,21.1,78,21.1,77z M25.8,74.5h1.6l-6.6,9.6h-1.6
			L25.8,74.5z M24.2,81.5c0-1.6,1-2.6,2.4-2.6c1.4,0,2.4,1,2.4,2.6c0,1.6-1,2.6-2.4,2.6C25.2,84.2,24.2,83.2,24.2,81.5z M27.6,81.5
			c0-1-0.4-1.5-1-1.5c-0.6,0-1,0.5-1,1.5c0,1,0.4,1.5,1,1.5C27.2,83.1,27.6,82.6,27.6,81.5z"/>
	</g>
	<path class="st1" d="M115.8,84.4H82.7c-1,0-1.8-1.1-1.8-2.4l0,0c0-1.3,0.8-2.4,1.8-2.4h33.1c1,0,1.8,1.1,1.8,2.4l0,0
		C117.6,83.3,116.8,84.4,115.8,84.4z"/>
	<path class="st4" d="M70,84.4H37c-1.2,0-2.1-1.1-2.1-2.4l0,0c0-1.3,1-2.4,2.1-2.4h33c1.2,0,2.1,1.1,2.1,2.4l0,0
		C72.1,83.3,71.2,84.4,70,84.4z"/>
	<path class="st0" d="M76.3,75.3c-3.6,0-6.6,3-6.6,6.6c0,3.6,3,6.6,6.6,6.6c3.6,0,6.6-3,6.6-6.6C82.9,78.3,79.9,75.3,76.3,75.3z
		 M76.3,85.4c-1.9,0-3.4-1.5-3.4-3.4c0-1.9,1.5-3.4,3.4-3.4c1.9,0,3.4,1.5,3.4,3.4C79.7,83.8,78.2,85.4,76.3,85.4z"/>
</g>
<g>
	<g>
		<path class="st1" d="M160.9,84.7c-2.5,0-4.6-2.1-4.6-4.6c0-2.5,2.1-4.6,4.6-4.6c6.8,0,13.5-2.4,18.7-6.7c2-1.6,4.9-1.3,6.5,0.6
			c1.6,2,1.3,4.9-0.6,6.5C178.6,81.6,169.9,84.7,160.9,84.7z"/>
	</g>
	<path class="st0" d="M199.6,46c0-21.3-17.4-38.7-38.7-38.7c-21.3,0-38.7,17.4-38.7,38.7c0,2.5,2.1,4.6,4.6,4.6
		c2.5,0,4.6-2.1,4.6-4.6c0-16.3,13.2-29.5,29.5-29.5s29.5,13.2,29.5,29.5c0,4.5-1,8.8-2.9,12.8c0,0,0,0,0,0c-1.8,3.8-4.5,7.3-7.8,10
		c-2,1.6-2.2,4.5-0.6,6.5c0.9,1.1,2.2,1.7,3.6,1.7c1,0,2.1-0.3,2.9-1.1c4.3-3.6,7.9-8.1,10.3-13.1c0,0,0,0,0,0
		C198.3,57.5,199.6,51.9,199.6,46z"/>
	<path class="st5" d="M180.4,74.3c8.8-6.2,14.6-16.5,14.6-28.1c0-19-15.4-34.3-34.3-34.3s-34.3,15.4-34.3,34.3
		c0,17.5,13.1,31.9,29.9,34.1"/>
	<g>
		<path class="st0" d="M142.4,46.4c0-3.5,1.9-7.6,6.1-7.6c1.6,0,2.6,0.6,2.6,0.6l-0.6,1.6c0,0-0.9-0.4-1.9-0.4
			c-2.5,0-3.8,2.3-4.1,4.6h0c0.6-0.8,1.8-1.3,3-1.3c2.6,0,4.3,2,4.3,4.5c0,2.7-1.8,4.5-4.4,4.5C144.5,52.7,142.4,50.2,142.4,46.4z
			 M149.9,48.2c0-1.7-1.1-2.9-2.8-2.9c-1.5,0-2.8,0.9-2.8,1.9c0,1.8,1.3,3.7,3.1,3.7C149,51,149.9,49.8,149.9,48.2z"/>
		<path class="st0" d="M153.3,47.7l6.3-8.7h2.2v8.3h1.8v1.6h-1.8v3.6h-1.9v-3.6h-6.6V47.7z M159.9,47.3v-4.9c0-0.6,0.1-1.3,0.1-1.3
			h0c0,0-0.3,0.6-0.7,1.1l-3.8,5.1v0H159.9z"/>
		<path class="st0" d="M165.3,41.6c0-1.6,1.3-2.8,2.9-2.8c1.6,0,2.9,1.3,2.9,2.8c0,1.6-1.3,2.8-2.9,2.8
			C166.6,44.4,165.3,43.1,165.3,41.6z M176,39h1.8l-10.4,13.6h-1.8L176,39z M169.6,41.6c0-0.8-0.6-1.4-1.4-1.4
			c-0.8,0-1.4,0.7-1.4,1.4c0,0.8,0.6,1.4,1.4,1.4C169,43,169.6,42.4,169.6,41.6z M175.2,47.1c1.6,0,2.9,1.3,2.9,2.8
			c0,1.6-1.3,2.8-2.9,2.8c-1.6,0-2.9-1.3-2.9-2.8C172.3,48.3,173.5,47.1,175.2,47.1z M175.2,51.3c0.8,0,1.4-0.6,1.4-1.4
			c0-0.8-0.6-1.4-1.4-1.4c-0.8,0-1.4,0.7-1.4,1.4C173.8,50.7,174.4,51.3,175.2,51.3z"/>
	</g>
</g>
</svg>
