<?xml version="1.0" encoding="utf-8"?>
<!-- Generator: Adobe Illustrator 24.2.3, SVG Export Plug-In . SVG Version: 6.00 Build 0)  -->
<svg version="1.1" id="Layer_1" xmlns="http://www.w3.org/2000/svg" xmlns:xlink="http://www.w3.org/1999/xlink" x="0px" y="0px"
	 viewBox="0 0 200 90" style="enable-background:new 0 0 200 90;" xml:space="preserve">
<style type="text/css">
	.st0{fill:#F05526;}
</style>
<path class="st0" d="M48.9,20.6c0.7,0,1.3-0.6,1.3-1.3S49.6,18,48.9,18c-0.7,0-1.3,0.6-1.3,1.3C47.6,20,48.2,20.6,48.9,20.6z"/>
<path class="st0" d="M89.9,73.9c0.7,0,1.3-0.6,1.3-1.3c0-0.7-0.6-1.3-1.3-1.3c-0.7,0-1.3,0.6-1.3,1.3C88.6,73.3,89.2,73.9,89.9,73.9
	z"/>
<path class="st0" d="M84.8,73.9c0.7,0,1.3-0.6,1.3-1.3c0-0.7-0.6-1.3-1.3-1.3c-0.7,0-1.3,0.6-1.3,1.3C83.6,73.3,84.1,73.9,84.8,73.9
	z"/>
<path class="st0" d="M79.7,73.9c0.7,0,1.3-0.6,1.3-1.3c0-0.7-0.6-1.3-1.3-1.3c-0.7,0-1.3,0.6-1.3,1.3C78.5,73.3,79,73.9,79.7,73.9z"
	/>
<path class="st0" d="M88.9,51.5V19.6c0-2.8-2.3-5.1-5.1-5.1h-4.4h-2H12.5c-2.8,0-5.1,2.3-5.1,5.1v48.2H0.3v5.1
	c0,2.8-0.4,5.1,2.4,5.1h85.6c2.8,0,7.8-2.3,7.8-5.1v-5.1h-7.1v-7.1V51.5z M12.5,16.6h71.3c1.7,0,3.1,1.4,3.1,3.1v2.3H9.5v-2.3
	C9.5,17.9,10.8,16.6,12.5,16.6z M94,72.9c0,1.7-1.4,3.1-3.1,3.1H5.4c-1.7,0-3.1-1.4-3.1-3.1v-3.1h39.7v3.1h12.2v-3.1H94V72.9z
	 M43.1,69.8h10.2v2H43.1V69.8z M9.5,67.8V22.9h77.4v44.9H9.5z"/>
<g>
	<path class="st0" d="M121.3,80.6c-5.6,0-10.1-3.9-10.1-8.6c0-0.1,0-0.2,0-0.3c-4.8-1.9-7.8-5.9-7.8-10.4c0-1,0.2-2,0.5-3
		c-4.4-2.7-7-7.1-7-11.7c0-4.8,2.8-9.2,7.4-12c-0.1-0.6-0.2-1.3-0.2-1.9c0-4.2,2.8-8.1,7.1-10.2c0-0.2,0-0.4,0-0.6
		c0-4.7,4.5-8.6,10.1-8.6c5.6,0,10.1,3.9,10.1,8.6v5.8c0,0.6-0.5,1-1,1c-0.6,0-1-0.5-1-1v-5.8c0-3.6-3.6-6.5-8.1-6.5
		c-4.4,0-8.1,2.9-8.1,6.5c0,0.3,0,0.7,0.1,1c0.1,0.5-0.2,1-0.6,1.2c-4,1.6-6.6,4.9-6.6,8.6c0,0.7,0.1,1.4,0.3,2.1
		c0.1,0.5-0.1,1-0.5,1.2c-4.4,2.3-7,6.3-7,10.5c0,4.2,2.5,8,6.7,10.4c0.5,0.3,0.7,0.8,0.5,1.3c-0.4,1-0.6,2-0.6,3.1
		c0,3.9,2.8,7.3,7.2,8.8c0.5,0.2,0.8,0.6,0.7,1.1c0,0.3-0.1,0.6-0.1,0.8c0,3.6,3.6,6.5,8.1,6.5c4.4,0,8.1-2.9,8.1-6.5V55.7
		c0-0.6,0.5-1,1-1c0.6,0,1,0.5,1,1V72C131.4,76.8,126.9,80.6,121.3,80.6z"/>
	<path class="st0" d="M104.5,48.2c-0.3,0-0.5-0.1-0.7-0.3c-0.4-0.4-0.4-1.1,0-1.5c1.2-1.2,4.2-2.7,7.1-0.3c0.4,0.4,0.5,1,0.1,1.5
		c-0.4,0.4-1,0.5-1.5,0.1c-2.1-1.8-4.2,0-4.4,0.2C105,48.1,104.8,48.2,104.5,48.2z"/>
	<path class="st0" d="M104.9,58.9c-0.4,0-0.7-0.2-0.9-0.5c-0.3-0.5-0.1-1.1,0.4-1.4l0.9-0.5c1.7-0.9,3.9-2.2,5.9-1.2
		c0.5,0.3,0.7,0.9,0.4,1.4c-0.3,0.5-0.9,0.7-1.4,0.4c-1-0.5-2.7,0.5-3.9,1.2l-0.9,0.5C105.3,58.9,105.1,58.9,104.9,58.9z"/>
	<path class="st0" d="M111.9,39.4c-0.5,0-1-0.4-1-1c-0.2-3.1,2.4-4.8,3.8-5.3c0.5-0.2,1.1,0.1,1.3,0.6c0.2,0.5-0.1,1.1-0.6,1.3
		c-0.1,0-2.5,0.9-2.4,3.2C113,38.9,112.5,39.4,111.9,39.4C112,39.4,111.9,39.4,111.9,39.4z"/>
	<path class="st0" d="M121.8,70c-0.3,0-0.6-0.1-0.8-0.4c-0.7-0.8-1.4-1.2-2.1-1.2c-1.1-0.1-2.1,0.8-2.1,0.8c-0.4,0.4-1.1,0.4-1.5,0
		c-0.4-0.4-0.4-1.1,0-1.4c0.1-0.1,1.5-1.5,3.6-1.4c1.3,0.1,2.5,0.7,3.6,1.9c0.4,0.4,0.3,1.1-0.1,1.5C122.3,69.9,122.1,70,121.8,70z"
		/>
	<path class="st0" d="M120,29.4c-0.8,0-1.6-0.3-2.2-0.8c-0.8-0.6-1.2-1.5-1.3-2.4c-0.1-0.6,0.3-1.1,0.9-1.1c0.6-0.1,1.1,0.3,1.1,0.9
		c0,0.4,0.2,0.8,0.6,1c0.3,0.3,0.7,0.4,1.1,0.3c0.4,0,0.8-0.2,1-0.6c0.3-0.3,0.4-0.7,0.3-1.1c-0.1-0.6,0.3-1.1,0.9-1.1
		c0.6-0.1,1.1,0.3,1.1,0.9c0.1,1-0.2,1.9-0.8,2.6c-0.6,0.8-1.5,1.2-2.4,1.3C120.3,29.4,120.2,29.4,120,29.4z"/>
	<path class="st0" d="M119.5,50.7c-0.2,0-0.3,0-0.5-0.1l-2.5-1.3c-0.5-0.3-0.7-0.9-0.4-1.4c0.3-0.5,0.9-0.7,1.4-0.4l2.5,1.3
		c0.5,0.3,0.7,0.9,0.4,1.4C120.3,50.5,119.9,50.7,119.5,50.7z"/>
	<path class="st0" d="M145.1,80.6c-5.6,0-10.1-3.9-10.1-8.6c0-0.6,0.5-1,1-1c0.6,0,1,0.5,1,1c0,3.6,3.6,6.5,8.1,6.5
		c4.4,0,8.1-2.9,8.1-6.5c0-0.3,0-0.6-0.1-0.8c-0.1-0.5,0.2-1,0.7-1.1c4.4-1.5,7.2-4.9,7.2-8.8c0-1-0.2-2.1-0.6-3.1
		c-0.2-0.5,0-1,0.5-1.3c4.2-2.3,6.7-6.2,6.7-10.4c0-4.3-2.6-8.2-7-10.5c-0.4-0.2-0.6-0.7-0.5-1.2c0.2-0.7,0.3-1.4,0.3-2.1
		c0-3.6-2.6-7-6.6-8.6c-0.5-0.2-0.7-0.7-0.6-1.2c0.1-0.4,0.1-0.7,0.1-1c0-3.6-3.6-6.5-8.1-6.5c-4.4,0-8.1,2.9-8.1,6.5v22.2
		c0,0.6-0.5,1-1,1c-0.6,0-1-0.5-1-1V21.9c0-4.7,4.5-8.6,10.1-8.6c5.6,0,10.1,3.9,10.1,8.6c0,0.2,0,0.4,0,0.6c4.4,2,7.1,5.9,7.1,10.2
		c0,0.6-0.1,1.2-0.2,1.9c4.7,2.7,7.4,7.1,7.4,12c0,4.7-2.6,9-7,11.7c0.3,1,0.5,2,0.5,3c0,4.5-3,8.5-7.8,10.4c0,0.1,0,0.2,0,0.3
		C155.2,76.8,150.7,80.6,145.1,80.6z"/>
	<path class="st0" d="M156.9,48.7c-0.5,0-1-0.4-1-0.9c-0.5-3.7,2.4-5.5,4.1-5.9c0.6-0.1,1.1,0.2,1.2,0.8c0.1,0.6-0.2,1.1-0.8,1.2
		c-0.3,0.1-2.9,0.8-2.5,3.6c0.1,0.6-0.3,1.1-0.9,1.2C157,48.7,157,48.7,156.9,48.7z"/>
	<path class="st0" d="M161.4,58.9c-0.2,0-0.3,0-0.5-0.1l-1.1-0.6c-1-0.6-2.3-0.6-3.3,0c-0.5,0.3-1.1,0.1-1.4-0.4
		c-0.3-0.5-0.1-1.1,0.4-1.4c1.7-0.9,3.6-0.9,5.3,0.1l1.1,0.6c0.5,0.3,0.7,0.9,0.4,1.4C162.1,58.8,161.8,58.9,161.4,58.9z"/>
	<path class="st0" d="M152.6,38.2c-1,0-2-0.3-3-1c-0.4-0.4-0.5-1-0.2-1.4c0.4-0.4,1-0.5,1.4-0.2c1.8,1.4,4-0.1,4-0.1
		c0.5-0.3,1.1-0.2,1.4,0.2c0.3,0.5,0.2,1.1-0.2,1.4C155.4,37.6,154.1,38.2,152.6,38.2z"/>
	<path class="st0" d="M144.5,70c-0.2,0-0.5-0.1-0.7-0.3c-0.4-0.4-0.5-1-0.1-1.5c1.1-1.2,2.3-1.9,3.6-1.9c2-0.1,3.5,1.3,3.6,1.4
		c0.4,0.4,0.4,1,0,1.5c-0.4,0.4-1,0.4-1.5,0c0,0-1-0.9-2.1-0.8c-0.7,0-1.4,0.4-2.1,1.2C145.1,69.8,144.8,70,144.5,70z"/>
	<path class="st0" d="M147,29.6c0,0-0.1,0-0.1,0c-1,0-1.9-0.4-2.5-1.1c-0.7-0.7-1-1.6-1-2.6c0-1,0.4-1.9,1.1-2.5
		c0.4-0.4,1.1-0.4,1.5,0c0.4,0.4,0.4,1.1,0,1.5c-0.3,0.3-0.5,0.7-0.5,1.1c0,0.4,0.1,0.8,0.4,1.1c0.3,0.3,0.7,0.5,1.1,0.5
		c0.4,0,0.8-0.1,1.1-0.4c0.4-0.4,1.1-0.4,1.5,0c0.4,0.4,0.4,1.1,0,1.5C148.8,29.3,147.9,29.6,147,29.6z"/>
	<path class="st0" d="M148.2,53.7c-0.4,0-0.7-0.2-0.9-0.5c-0.3-0.5-0.1-1.1,0.4-1.4c0.4-0.2,0.6-0.5,0.7-0.9c0.1-0.4,0-0.8-0.2-1.2
		c-0.3-0.5-0.1-1.1,0.4-1.4c0.5-0.3,1.1-0.1,1.4,0.4c0.5,0.8,0.6,1.8,0.4,2.7c-0.2,0.9-0.8,1.7-1.6,2.2
		C148.5,53.7,148.4,53.7,148.2,53.7z"/>
	<path class="st0" d="M141.4,35.8c-0.3,0-0.6-0.1-0.8-0.4l-0.5-0.6c-0.6-0.7-1.5-1.2-2.5-1.2l-1.5-0.1c-0.6,0-1-0.5-1-1.1
		c0-0.6,0.5-1,1.1-1l1.5,0.1c1.5,0.1,3,0.8,4,2l0.5,0.6c0.4,0.4,0.3,1.1-0.1,1.5C141.9,35.7,141.7,35.8,141.4,35.8z"/>
</g>
<g>
	<path class="st0" d="M92.5,47.7H54.7c-0.6,0-1-0.5-1-1c0-0.6,0.5-1,1-1h37.8c0.6,0,1,0.5,1,1C93.6,47.2,93.1,47.7,92.5,47.7z"/>
	<path class="st0" d="M48.6,53.1c-1.7,0-3.4-0.7-4.7-2c-2.6-2.6-2.6-6.9,0-9.5c2.6-2.6,6.9-2.6,9.5,0c2.6,2.6,2.6,6.9,0,9.5
		C52,52.5,50.3,53.1,48.6,53.1z M48.6,41.8c-1.2,0-2.4,0.5-3.3,1.4c-0.9,0.9-1.4,2-1.4,3.3c0,1.2,0.5,2.4,1.4,3.3
		c1.8,1.8,4.7,1.8,6.5,0c1.8-1.8,1.8-4.7,0-6.5C50.9,42.3,49.7,41.8,48.6,41.8z"/>
</g>
<g>
	<path class="st0" d="M187.4,47.7h-12.7c-0.6,0-1-0.5-1-1c0-0.6,0.5-1,1-1h12.7c0.6,0,1,0.5,1,1C188.4,47.2,187.9,47.7,187.4,47.7z"
		/>
	<path class="st0" d="M193.2,53.5c-3.7,0-6.7-3-6.7-6.7c0-3.7,3-6.7,6.7-6.7c3.7,0,6.7,3,6.7,6.7C199.9,50.5,196.9,53.5,193.2,53.5z
		 M193.2,42.2c-2.6,0-4.6,2.1-4.6,4.6c0,2.6,2.1,4.6,4.6,4.6s4.6-2.1,4.6-4.6C197.8,44.2,195.8,42.2,193.2,42.2z"/>
</g>
<g>
	<path class="st0" d="M163.5,22.1c-0.3,0-0.5-0.1-0.7-0.3c-0.4-0.4-0.4-1.1,0-1.5l9.3-9.3c0.4-0.4,1.1-0.4,1.5,0
		c0.4,0.4,0.4,1.1,0,1.5l-9.3,9.3C164.1,22,163.8,22.1,163.5,22.1z"/>
	<path class="st0" d="M177,14.4c-1.7,0-3.4-0.7-4.7-2c-2.6-2.6-2.6-6.9,0-9.5c2.6-2.6,6.9-2.6,9.5,0c2.6,2.6,2.6,6.9,0,9.5
		C180.4,13.8,178.7,14.4,177,14.4z M177,3.1c-1.2,0-2.4,0.5-3.3,1.4c-0.9,0.9-1.4,2-1.4,3.3s0.5,2.4,1.4,3.3c1.7,1.7,4.8,1.7,6.5,0
		c0.9-0.9,1.4-2,1.4-3.3s-0.5-2.4-1.4-3.3C179.4,3.6,178.3,3.1,177,3.1z"/>
</g>
<g>
	<g>
		<path class="st0" d="M172.6,79.5c-0.3,0-0.5-0.1-0.7-0.3l-8.4-8.4c-0.4-0.4-0.4-1.1,0-1.5c0.4-0.4,1.1-0.4,1.5,0l8.4,8.4
			c0.4,0.4,0.4,1.1,0,1.5C173.1,79.4,172.8,79.5,172.6,79.5z"/>
		<path class="st0" d="M176.8,89.1c-1.7,0-3.4-0.7-4.7-2c-2.6-2.6-2.6-6.9,0-9.5c2.6-2.6,6.9-2.6,9.5,0c2.6,2.6,2.6,6.9,0,9.5
			C180.2,88.5,178.5,89.1,176.8,89.1z M176.8,77.8c-1.2,0-2.4,0.5-3.3,1.4c-1.8,1.8-1.8,4.7,0,6.5c1.8,1.8,4.7,1.8,6.5,0
			c1.8-1.8,1.8-4.7,0-6.5C179.2,78.3,178,77.8,176.8,77.8z"/>
	</g>
</g>
</svg>
