<?xml version="1.0" encoding="utf-8"?>
<!-- Generator: Adobe Illustrator 24.2.3, SVG Export Plug-In . SVG Version: 6.00 Build 0)  -->
<svg version="1.1" xmlns="http://www.w3.org/2000/svg" xmlns:xlink="http://www.w3.org/1999/xlink" x="0px" y="0px"
	 viewBox="0 0 278 278" style="enable-background:new 0 0 278 278;" xml:space="preserve">
<style type="text/css">
	.st0{display:none;}
	.st1{display:inline;fill:#4D4D4F;}
	.st2{display:none;fill:#FFFFFF;}
	.st3{fill:none;stroke:#F05325;stroke-width:5;stroke-linecap:round;stroke-linejoin:round;stroke-miterlimit:10;}
	.st4{enable-background:new    ;}
	.st5{fill:#F05325;}
	.st6{fill:none;stroke:#004D71;stroke-width:5;stroke-linecap:round;stroke-linejoin:round;stroke-miterlimit:10;}
	.st7{fill:#004D71;}
</style>
<g id="bkd_fpo" class="st0">
</g>
<g id="old_gm_blue">
</g>
<g id="Orange_Outline">
	<g>
		<path class="st3" d="M143,275.1c71.6-4.1,128.3-63.5,128.3-136.1C271.4,63.7,210.3,2.7,135,2.7C75.9,2.7,25.6,40.3,6.7,92.9"/>
		<g class="st4">
			<g>
				<path class="st5" d="M10.6,125.5c-0.2,1.5-0.6,3.4-1.2,3.4c-2.6-1.4-3.9-4-3.9-7.4c0.4-3,0.8-5.6,1.4-8.9c0,3.2,1.3,5.5,3.6,6.8
					C11.3,120.4,10.7,125.5,10.6,125.5"/>
				<path class="st5" d="M74.9,101.3c-3.3,1.8-5.7-3-5-5.8c0.2-0.8,0.6-1.2,1-1.6c5.7-4.3,11.5-8.9,17.1-13.7
					c1.4,2.6,3.1,4.5,5.5,6.2C87.3,91.7,81.1,96.7,74.9,101.3"/>
				<path class="st5" d="M22.2,125.6c-0.1,1.3-0.4,3.6-1.6,4.1c-3.1,0.5-5.7,0.6-7.8,0.2c-1.9-1.2-0.2-9.5,0.8-9.6
					c2,0.3,4.3,0.3,7.2-0.2C22.5,120.5,22.2,125.6,22.2,125.6"/>
				<path class="st5" d="M30,122.9c0,0.4,0,4.1-1.7,4.9c-0.9,0.3-1.8,0.6-2.6,0.8c-2.2,0.3-2.5-6.6-0.8-8.9c0.3-0.4,0.5-0.5,0.7-0.6
					c0.8-0.2,1.6-0.5,2.4-0.7C29.3,118.1,29.9,121,30,122.9"/>
				<path class="st5" d="M67.4,102.6c0.3,0.9,0.8,3.2-1,4.8c-11.2,7.7-22.1,13.9-31.6,17.9c-2.8,0.5-3.2-6.2-1.6-8.5
					c0.2-0.2,0.5-0.5,0.7-0.7c8.7-3.7,18.7-9.4,29.1-16.5C65.9,98.2,67.4,102.5,67.4,102.6"/>
				<path class="st5" d="M6.1,115.4c-0.1,0.8-0.2,1.6-0.3,2.4c0.5-3,1.1-7,1.7-10C7.1,109.8,6.6,112.7,6.1,115.4"/>
				<path class="st5" d="M101.1,74.5c1.2,1.2,2.6,3.8,0.6,5.9c-3.6,2.9-8.7-1.5-8.5-5C93.5,72,98.1,71.5,101.1,74.5 M106.3,70.7
					c-4.6-4.1-13.8-6.9-18.5-2c-5.9,7.7,4.7,21.9,15.1,20.2C111,87.5,114.2,77.7,106.3,70.7"/>
				<path class="st5" d="M34.4,159.9c0.3,1.6,0.3,3.6-1.2,4.4c-2.3,0.7-4.4,1.2-6.5,1.6c-2.5,0.5-4.8,0.8-6.8,0.8
					c-0.4-3.2-1-6.1-1.9-9.4c1.9,0,4.1-0.3,6.5-0.8c2-0.4,4-0.9,6.2-1.6C33.5,154.8,34.4,159.9,34.4,159.9"/>
				<path class="st5" d="M126.3,98c0.6,0.8,1.8,3-0.2,5.4c-9.1,8.4-18.6,16.5-28.2,23.8c-1.2-3.1-2.9-5.5-5.4-7.7
					c9.1-7,18.2-14.7,26.9-22.8C123.2,94,126.3,98,126.3,98"/>
				<path class="st5" d="M150.3,73c0.7,0.7,2.3,2.6,0.6,5c-0.3,0.4-0.7,0.8-1,1.2c-4.4,5-9.1,9.9-13.9,14.7c-3.9,3.1-8.2-1.2-8-4.2
					c0.1-1,0.6-1.6,0.9-2c4.6-4.6,9.1-9.3,13.3-14.1c0.3-0.4,0.7-0.7,1-1.1C146.5,69.6,150.2,72.9,150.3,73"/>
				<path class="st5" d="M54.3,151.2c0.4,1.6,0.5,3.7-1.3,5c-3.9,2-7.6,3.7-11.1,5.1c-3.6,0.8-5.4-6-3.8-8.4
					c0.2-0.3,0.6-0.6,0.9-0.7c3.4-1.4,7-3,10.7-4.9C52.4,146.3,54,149.8,54.3,151.2"/>
				<path class="st5" d="M74.3,133.2c1.3,4.4,3.6,6.9,4.4,7.7c-4.9,3.3-9.8,6.3-14.5,9.1c-3.9,1.6-6.2-4.2-5.1-7
					c0.3-0.9,0.8-1.3,1.3-1.7c4.5-2.6,9.1-5.5,13.8-8.7C74.2,132.8,74.3,133.1,74.3,133.2"/>
				<path class="st5" d="M159.2,61.1c1.2,0.9,3,2.9,1.6,4.9c-1,1.2-2,2.5-3,3.8c-2.7,3-8.6-0.2-8.6-3.6c0-0.8,0.4-1.3,0.6-1.6
					c1-1.2,1.9-2.4,2.9-3.6C154.4,59.1,157.5,59.9,159.2,61.1"/>
				<path class="st5" d="M16,162.6c0.3,1.9,0.5,5-0.7,5c-2.6-1-4-10.9-2.5-11.7C13.9,155.2,15.5,159,16,162.6 M19.3,162.7
					c-0.8-4.2-4-16.4-7.4-16.5c-5,1.8-0.4,27.4,5.5,30.4C20.2,178.1,21.1,171.8,19.3,162.7"/>
				<path class="st5" d="M89.9,128.1c0.9,1.7,1.7,5.1-1,7.3c-4.1,2.6-8.8-2.6-7.9-7.2c0.8-4.4,5.9-4.7,8.5-0.6
					C89.7,127.7,89.8,127.9,89.9,128.1 M96.1,123.4c-3.5-5.4-11.9-10.8-18.7-5.4c-8.9,8.7-1.3,27.6,10.9,27.3
					C98.1,145.1,102.4,133.1,96.1,123.4"/>
				<path class="st5" d="M78.4,180.5c0.4,1,1.2,3.4-1,5.1c-9.9,5.4-19.1,9.6-27.3,12.3c-1.2-3.1-2.6-5.7-4.8-8.6
					c8-2.6,17.1-6.8,26.8-12.1C76,175.8,78.3,180.5,78.4,180.5"/>
				<path class="st5" d="M108.2,161.1c0.5,1,1.4,3.5-1,5.6c-6.4,4.5-12.7,8.7-18.8,12.4c-4.2,1.9-7.9-3.1-6.9-6.4
					c0.3-1,0.9-1.4,1.4-1.8c6-3.7,12.2-7.8,18.5-12.2C105.6,156.4,108.2,161.1,108.2,161.1"/>
				<path class="st5" d="M153.3,123.7c0.6,0.9,1.7,3.3-0.5,6c-6.1,5.7-12.3,11.2-18.6,16.4c-4.4,2.9-8.6-1.7-7.7-5.4
					c0.3-1.1,0.9-1.7,1.4-2.2c6.2-5.2,12.3-10.6,18.3-16.1C150.2,119.2,153.2,123.6,153.3,123.7"/>
				<path class="st5" d="M162.7,120c-4.3,3.4-8.6-1.4-8.1-4.8c0.2-1.1,0.7-1.8,1.2-2.3c5.3-5.3,10.4-10.7,15.2-16.1
					c4-4.5,7.7-8.9,11-13.1c2.1,2.9,4.4,4.9,7.4,6.6c-3.4,4.3-7.1,8.8-11.2,13.4C173.3,109.1,168.1,114.6,162.7,120"/>
				<path class="st5" d="M21.4,195.4c1.1,2.4,1,2.6,1,2.7c0,0-0.1-0.1-0.1-0.1c-0.8-0.7-1.5-1.6-2-2.6c-1.4-2.8-3.3-6.5-4.6-9.3
					c0.6,1.3,1.4,2.4,2.4,3.3C19.3,190.8,21.4,195.3,21.4,195.4"/>
				<path class="st5" d="M26.9,200.5c-2.1-1.1-5.5-7.5-4.6-8.6c0.1,0,0.2,0,0.2,0c2.2,0.7,5,0.9,8.2,0.7c1,3.1,2.4,5.8,4.5,8.7
					C31.9,201.4,29.1,201.1,26.9,200.5"/>
				<path class="st5" d="M122.7,149.6c0.9,1.3,1.7,4.1-0.7,6.2c-1.6,1.2-3.2,2.5-4.8,3.7c-3.7,2.5-8.2-1.4-7.6-5.3
					c0.3-1.5,1.1-2.2,1.5-2.5c1.6-1.2,3.1-2.4,4.7-3.6C118.6,146.1,121.5,147.8,122.7,149.6"/>
				<path class="st5" d="M43.1,195.6c0.8,1.7,1.7,4.9-0.3,5.5c-4.2,0.5-8.6-8.1-6.6-10.3C37.7,189.3,41.2,191.7,43.1,195.6
					 M48.3,194.1c-3.3-6.2-10.4-14.1-15.9-12.5c-8.2,4,3.3,24.9,12.7,27.6C51.9,211.2,53.5,203.7,48.3,194.1"/>
				<path class="st5" d="M195.5,74.7c1.3,1.3,3.4,4.4,1.8,7.2c-3,3.6-9.6-0.7-10-5.3c-0.4-4.1,4-5.4,7.8-2.3
					C195.2,74.4,195.4,74.6,195.5,74.7 M199.8,70c-6.4-6-16.1-7.9-20.3-1.2c-5.7,11.8,11.1,26.9,21.3,22.8
					C208.3,88.6,207.8,77.5,199.8,70"/>
				<path class="st5" d="M223.5,100.1c0.5,0.9,1.7,3.4,0.4,5.8c-4.1,6.1-9.1,12.6-14.9,19.4c-1.4-3.3-3.3-5.6-6-7.5
					c5.8-6.9,10.8-13.4,14.9-19.5C220.2,95.8,222.9,99,223.5,100.1"/>
				<path class="st5" d="M181.8,148.9c0.5,0.9,1.4,3.4-0.8,6.1c-10.1,9.7-20.8,18.9-31.6,27.4c-1.4-3-3.4-5.3-6.3-7.3
					c10.8-8.6,21.6-17.9,31.8-27.6C178.5,144.7,181.3,147.9,181.8,148.9"/>
				<path class="st5" d="M92.8,209.5c2.1,3.8,5.3,5.9,6.3,6.6c-8,4.3-15.6,7.8-22.6,10.3c-4.1,0.9-8.7-4.3-7.6-6.4
					c0.2-0.3,0.6-0.5,0.8-0.7c7-2.5,14.6-6,22.7-10.4C92.6,209.1,92.7,209.4,92.8,209.5"/>
				<path class="st5" d="M233.9,80.8c0.6,0.9,1.9,3.3,1.3,5.3c-1.4,3.2-3.1,6.6-5.2,10.2c-2.2,2.8-6-2.4-6.3-5.6
					c-0.1-1.1,0-1.4,0.3-2.1c2.1-3.6,3.9-7,5.3-10.2C230.6,76.5,233.1,79.6,233.9,80.8"/>
				<path class="st5" d="M236.6,69.7c0.8,1.2,2.4,3.9,2.2,5.4c-0.2,0.9-0.4,1.8-0.6,2.7c-0.6,1.7-3.7-1.5-5.2-4.8
					c-0.9-1.9-0.7-2.7-0.7-3c0.2-0.9,0.5-1.8,0.6-2.7C233.4,66,235.4,68,236.6,69.7"/>
				<path class="st5" d="M67.3,225.8c0.2,0.3,2.1,2.7,0.2,3.4c-0.1,0-7.8,2.1-14,1.5c-4.5-0.4-5.9-1.5-8.5-3.3
					c-2.2-2.3-5.3-5.2-7.5-7.6c3.5,3.8,10,5.1,19.9,3.1c1.1-0.2,2.2-0.5,3.3-0.7C63.6,221.9,66.6,225,67.3,225.8"/>
				<path class="st5" d="M201.3,128c1.1,1.6,2.2,5.2-0.4,8.3c-3.9,3.8-9.1,0.1-9.1-5c-0.1-5.2,5.3-7.8,8.8-4.2
					C200.8,127.3,201.1,127.7,201.3,128 M206.9,121.5c-4.2-5.7-13.8-9.8-21.2-0.9c-8.2,12.4,2.2,28.8,13.6,26.9
					C209.9,145.9,214.1,131.3,206.9,121.5"/>
				<path class="st5" d="M140.1,184.3c1.1,1.5,2.2,4.8-0.9,7.3c-4.7,3.1-10.6-1.2-9.9-5.9C130.1,180.9,136.9,180,140.1,184.3
					 M147.2,178.8c-4.4-5.4-14.9-10.1-23.5-2.9c-10,10.4,0.7,25.8,13.7,25.2C149.2,200.5,154.7,188,147.2,178.8"/>
				<path class="st5" d="M110.7,204.6c1.1,1.5,2.3,4.5-0.6,6.4c-4.8,2.5-10.9-2.5-9.8-6.7C101.3,200.5,107.6,200.7,110.7,204.6
					 M118.2,201c-4.6-6-15.3-11.3-23.5-5.9c-9.9,8.2,0.6,23,13.6,24.1C119.8,220.2,125.3,210.2,118.2,201"/>
				<path class="st5" d="M74.9,248.2c0.7,0.4,1.4,0.7,2.2,1.1l-2.8-1.4l-5.6-3l0.2,0.1C69.9,245.6,72.6,247,74.9,248.2"/>
				<path class="st5" d="M181.5,188.5c1.5,3.5,4,5,4.8,5.5c-7.9,6.9-16,13.4-24.1,19.4c-4.2,2.5-8-0.6-7.1-3.5
					c0.3-0.9,0.9-1.4,1.4-1.9c8.3-6.2,16.7-12.9,24.8-20C181.4,188.2,181.5,188.4,181.5,188.5"/>
				<path class="st5" d="M90.6,248.4c0.6,0.4,2.4,1.7,0.9,2.1c-4,0.7-7.4,0.8-10.1,0.3c-2.2-0.5-7.8-3.3-8.4-4.2c0,0,0-0.1,0.1-0.1
					c0.1,0,0.2,0,0.2,0c2.8,0.5,6.3,0.4,10.4-0.3C86.7,246,90.6,248.4,90.6,248.4"/>
				<path class="st5" d="M100.8,245.1c1.1,0.7,2.5,2.1,0.8,2.8c-1.2,0.4-2.3,0.7-3.4,1c-3.3,0.7-9.1-2.4-8.3-3.9
					c0.1-0.3,0.4-0.4,0.7-0.5c1.1-0.3,2.3-0.7,3.5-1.1C96.2,242.9,99.3,244.1,100.8,245.1"/>
				<path class="st5" d="M152.1,217c0.5,0.7,1.4,2.4-0.8,4.2c-14.6,10-28.7,18.1-41.1,23.4c-4.1,1.2-9.1-2.1-8.1-3.8
					c0.2-0.3,0.5-0.5,0.8-0.6c12.7-5.4,27.3-13.7,42.3-24C149.4,213.8,152.1,217,152.1,217"/>
				<path class="st5" d="M198.1,178.9c0.8,1.4,1.4,4.4-1.3,7.1c-4,3.4-8.4,0.4-7.9-4c0.6-4.8,6.3-7.1,8.9-3.5
					C197.9,178.6,198,178.8,198.1,178.9 M204.6,173.6c-3.4-6.5-12.5-8.6-19.9-1.2c-9.1,10.5-2.6,23.7,8.1,23
					C203.6,194.8,209,181.9,204.6,173.6"/>
				<path class="st5" d="M128.7,257.4c1.6,0.4,1.6,0.8,1.6,1c-0.1,0.1-0.3,0.2-0.5,0.3c-2,0.6-3.9,1.1-5.7,1.4
					c-2.2,0.4-4.2,0.7-6,0.7c-2.7-0.4-5.2-0.9-8.7-1.5c1.9,0,4-0.3,6.3-0.7c1.9-0.4,3.9-0.9,6-1.5
					C124.7,256.4,128.7,257.4,128.7,257.4"/>
				<path class="st5" d="M212.4,201c0.2,0.6,0.5,2.3-1.4,4.3c-7.9,7.4-16.3,14.4-24.6,20.8c-1-1.7-2.4-2.8-4.6-3.6
					c8.9-6.8,17.7-14.2,26.1-22.1C210.8,198.2,212.1,200.2,212.4,201"/>
				<path class="st5" d="M234.2,178.2c0.1,0.8,0.1,2.8-1.6,5c-0.3,0.3-0.6,0.7-0.9,1c-3.9,4.3-7.9,8.7-12.2,12.9
					c-2.7,2.3-4.3,0.1-4.1-2c0.1-1.7,1.1-2.9,1.6-3.4c4.5-4.5,8.8-9.1,12.9-13.7c0.3-0.4,0.6-0.7,1-1.1
					C233.3,174.7,234.1,177.2,234.2,178.2"/>
				<path class="st5" d="M146.8,249.5c0.9,0.4,1.7,1.1,0.3,2c-3.4,1.7-6.6,3.2-9.7,4.5c-3.6,1.1-8.7-0.3-8.2-1.4
					c0.1-0.2,0.4-0.3,0.6-0.5c3.3-1.3,6.8-2.9,10.3-4.7C143.5,248,146.8,249.4,146.8,249.5"/>
				<path class="st5" d="M156.9,246.2c-3.5,1.7-7.7,0.3-7.3-1.3c0.1-0.5,0.6-0.8,1-1.1c4.4-2.5,8.9-5.4,13.4-8.4
					c1.3,1.5,3.1,2.4,5.6,2.9C165.3,241.1,161,243.8,156.9,246.2"/>
				<path class="st5" d="M242.7,167.3c0.1,1.1,0,3.6-1.4,5.5c-0.8,1.1-1.7,2.2-2.6,3.3c-1.7,1.9-2.8,0.2-2.9-1.8
					c0-0.6,0-2.9,1.4-4.8c1-1.2,1.9-2.3,2.8-3.5C241.6,164.1,242.5,165.6,242.7,167.3"/>
				<path class="st5" d="M111.7,260.1c1,0.2,1.9,0.3,2.9,0.5l-0.8-0.1c-3-0.5-6.9-1.2-9.9-1.8C104.5,258.8,108.2,259.5,111.7,260.1
					 M114.6,260.2c-5.6-1-9.2-1.7-19.8-4c-0.1,0-0.1,0-0.2,0c12.2,3.3,12.4,3.3,19.2,4.3c3,0.3,6.9,0.8,9.9,1l0,0
					C121.5,261.3,118.4,260.9,114.6,260.2"/>
				<path class="st5" d="M179.2,228.6c0.8,0.7,1.6,2.5-0.7,4.3c-3.7,2.5-8.4,0.8-7.9-1.9C171.2,227.9,176.8,226.4,179.2,228.6
					 M184.9,224.3c-3.9-3.4-12.2-3.9-18.8,1.2c-6.8,6.1-2.7,12.3,5.3,13c10.9,0.9,19.6-7.3,14.3-13.4
					C185.4,224.8,185.1,224.5,184.9,224.3"/>
			</g>
		</g>
	</g>
</g>
<g id="Outlined">
	<g>
		<path class="st6" d="M143,275.1c71.6-4.1,128.3-63.5,128.3-136.1C271.4,63.7,210.3,2.7,135,2.7C75.9,2.7,25.6,40.3,6.7,92.9"/>
		<g class="st4">
			<g>
				<path class="st7" d="M10.6,125.5c-0.2,1.5-0.6,3.4-1.2,3.4c-2.6-1.4-3.9-4-3.9-7.4c0.4-3,0.8-5.6,1.4-8.9c0,3.2,1.3,5.5,3.6,6.8
					C11.3,120.4,10.7,125.5,10.6,125.5"/>
				<path class="st7" d="M74.9,101.3c-3.3,1.8-5.7-3-5-5.8c0.2-0.8,0.6-1.2,1-1.6c5.7-4.3,11.5-8.9,17.1-13.7
					c1.4,2.6,3.1,4.5,5.5,6.2C87.3,91.7,81.1,96.7,74.9,101.3"/>
				<path class="st7" d="M22.2,125.6c-0.1,1.3-0.4,3.6-1.6,4.1c-3.1,0.5-5.7,0.6-7.8,0.2c-1.9-1.2-0.2-9.5,0.8-9.6
					c2,0.3,4.3,0.3,7.2-0.2C22.5,120.5,22.2,125.6,22.2,125.6"/>
				<path class="st7" d="M30,122.9c0,0.4,0,4.1-1.7,4.9c-0.9,0.3-1.8,0.6-2.6,0.8c-2.2,0.3-2.5-6.6-0.8-8.9c0.3-0.4,0.5-0.5,0.7-0.6
					c0.8-0.2,1.6-0.5,2.4-0.7C29.3,118.1,29.9,121,30,122.9"/>
				<path class="st7" d="M67.4,102.6c0.3,0.9,0.8,3.2-1,4.8c-11.2,7.7-22.1,13.9-31.6,17.9c-2.8,0.5-3.2-6.2-1.6-8.5
					c0.2-0.2,0.5-0.5,0.7-0.7c8.7-3.7,18.7-9.4,29.1-16.5C65.9,98.2,67.4,102.5,67.4,102.6"/>
				<path class="st7" d="M6.1,115.4c-0.1,0.8-0.2,1.6-0.3,2.4c0.5-3,1.1-7,1.7-10C7.1,109.8,6.6,112.7,6.1,115.4"/>
				<path class="st7" d="M101.1,74.5c1.2,1.2,2.6,3.8,0.6,5.9c-3.6,2.9-8.7-1.5-8.5-5C93.5,72,98.1,71.5,101.1,74.5 M106.3,70.7
					c-4.6-4.1-13.8-6.9-18.5-2c-5.9,7.7,4.7,21.9,15.1,20.2C111,87.5,114.2,77.7,106.3,70.7"/>
				<path class="st7" d="M34.4,159.9c0.3,1.6,0.3,3.6-1.2,4.4c-2.3,0.7-4.4,1.2-6.5,1.6c-2.5,0.5-4.8,0.8-6.8,0.8
					c-0.4-3.2-1-6.1-1.9-9.4c1.9,0,4.1-0.3,6.5-0.8c2-0.4,4-0.9,6.2-1.6C33.5,154.8,34.4,159.9,34.4,159.9"/>
				<path class="st7" d="M126.3,98c0.6,0.8,1.8,3-0.2,5.4c-9.1,8.4-18.6,16.5-28.2,23.8c-1.2-3.1-2.9-5.5-5.4-7.7
					c9.1-7,18.2-14.7,26.9-22.8C123.2,94,126.3,98,126.3,98"/>
				<path class="st7" d="M150.3,73c0.7,0.7,2.3,2.6,0.6,5c-0.3,0.4-0.7,0.8-1,1.2c-4.4,5-9.1,9.9-13.9,14.7c-3.9,3.1-8.2-1.2-8-4.2
					c0.1-1,0.6-1.6,0.9-2c4.6-4.6,9.1-9.3,13.3-14.1c0.3-0.4,0.7-0.7,1-1.1C146.5,69.6,150.2,72.9,150.3,73"/>
				<path class="st7" d="M54.3,151.2c0.4,1.6,0.5,3.7-1.3,5c-3.9,2-7.6,3.7-11.1,5.1c-3.6,0.8-5.4-6-3.8-8.4
					c0.2-0.3,0.6-0.6,0.9-0.7c3.4-1.4,7-3,10.7-4.9C52.4,146.3,54,149.8,54.3,151.2"/>
				<path class="st7" d="M74.3,133.2c1.3,4.4,3.6,6.9,4.4,7.7c-4.9,3.3-9.8,6.3-14.5,9.1c-3.9,1.6-6.2-4.2-5.1-7
					c0.3-0.9,0.8-1.3,1.3-1.7c4.5-2.6,9.1-5.5,13.8-8.7C74.2,132.8,74.3,133.1,74.3,133.2"/>
				<path class="st7" d="M159.2,61.1c1.2,0.9,3,2.9,1.6,4.9c-1,1.2-2,2.5-3,3.8c-2.7,3-8.6-0.2-8.6-3.6c0-0.8,0.4-1.3,0.6-1.6
					c1-1.2,1.9-2.4,2.9-3.6C154.4,59.1,157.5,59.9,159.2,61.1"/>
				<path class="st7" d="M16,162.6c0.3,1.9,0.5,5-0.7,5c-2.6-1-4-10.9-2.5-11.7C13.9,155.2,15.5,159,16,162.6 M19.3,162.7
					c-0.8-4.2-4-16.4-7.4-16.5c-5,1.8-0.4,27.4,5.5,30.4C20.2,178.1,21.1,171.8,19.3,162.7"/>
				<path class="st7" d="M89.9,128.1c0.9,1.7,1.7,5.1-1,7.3c-4.1,2.6-8.8-2.6-7.9-7.2c0.8-4.4,5.9-4.7,8.5-0.6
					C89.7,127.7,89.8,127.9,89.9,128.1 M96.1,123.4c-3.5-5.4-11.9-10.8-18.7-5.4c-8.9,8.7-1.3,27.6,10.9,27.3
					C98.1,145.1,102.4,133.1,96.1,123.4"/>
				<path class="st7" d="M78.4,180.5c0.4,1,1.2,3.4-1,5.1c-9.9,5.4-19.1,9.6-27.3,12.3c-1.2-3.1-2.6-5.7-4.8-8.6
					c8-2.6,17.1-6.8,26.8-12.1C76,175.8,78.3,180.5,78.4,180.5"/>
				<path class="st7" d="M108.2,161.1c0.5,1,1.4,3.5-1,5.6c-6.4,4.5-12.7,8.7-18.8,12.4c-4.2,1.9-7.9-3.1-6.9-6.4
					c0.3-1,0.9-1.4,1.4-1.8c6-3.7,12.2-7.8,18.5-12.2C105.6,156.4,108.2,161.1,108.2,161.1"/>
				<path class="st7" d="M153.3,123.7c0.6,0.9,1.7,3.3-0.5,6c-6.1,5.7-12.3,11.2-18.6,16.4c-4.4,2.9-8.6-1.7-7.7-5.4
					c0.3-1.1,0.9-1.7,1.4-2.2c6.2-5.2,12.3-10.6,18.3-16.1C150.2,119.2,153.2,123.6,153.3,123.7"/>
				<path class="st7" d="M162.7,120c-4.3,3.4-8.6-1.4-8.1-4.8c0.2-1.1,0.7-1.8,1.2-2.3c5.3-5.3,10.4-10.7,15.2-16.1
					c4-4.5,7.7-8.9,11-13.1c2.1,2.9,4.4,4.9,7.4,6.6c-3.4,4.3-7.1,8.8-11.2,13.4C173.3,109.1,168.1,114.6,162.7,120"/>
				<path class="st7" d="M21.4,195.4c1.1,2.4,1,2.6,1,2.7c0,0-0.1-0.1-0.1-0.1c-0.8-0.7-1.5-1.6-2-2.6c-1.4-2.8-3.3-6.5-4.6-9.3
					c0.6,1.3,1.4,2.4,2.4,3.3C19.3,190.8,21.4,195.3,21.4,195.4"/>
				<path class="st7" d="M26.9,200.5c-2.1-1.1-5.5-7.5-4.6-8.6c0.1,0,0.2,0,0.2,0c2.2,0.7,5,0.9,8.2,0.7c1,3.1,2.4,5.8,4.5,8.7
					C31.9,201.4,29.1,201.1,26.9,200.5"/>
				<path class="st7" d="M122.7,149.6c0.9,1.3,1.7,4.1-0.7,6.2c-1.6,1.2-3.2,2.5-4.8,3.7c-3.7,2.5-8.2-1.4-7.6-5.3
					c0.3-1.5,1.1-2.2,1.5-2.5c1.6-1.2,3.1-2.4,4.7-3.6C118.6,146.1,121.5,147.8,122.7,149.6"/>
				<path class="st7" d="M43.1,195.6c0.8,1.7,1.7,4.9-0.3,5.5c-4.2,0.5-8.6-8.1-6.6-10.3C37.7,189.3,41.2,191.7,43.1,195.6
					 M48.3,194.1c-3.3-6.2-10.4-14.1-15.9-12.5c-8.2,4,3.3,24.9,12.7,27.6C51.9,211.2,53.5,203.7,48.3,194.1"/>
				<path class="st7" d="M195.5,74.7c1.3,1.3,3.4,4.4,1.8,7.2c-3,3.6-9.6-0.7-10-5.3c-0.4-4.1,4-5.4,7.8-2.3
					C195.2,74.4,195.4,74.6,195.5,74.7 M199.8,70c-6.4-6-16.1-7.9-20.3-1.2c-5.7,11.8,11.1,26.9,21.3,22.8
					C208.3,88.6,207.8,77.5,199.8,70"/>
				<path class="st7" d="M223.5,100.1c0.5,0.9,1.7,3.4,0.4,5.8c-4.1,6.1-9.1,12.6-14.9,19.4c-1.4-3.3-3.3-5.6-6-7.5
					c5.8-6.9,10.8-13.4,14.9-19.5C220.2,95.8,222.9,99,223.5,100.1"/>
				<path class="st7" d="M181.8,148.9c0.5,0.9,1.4,3.4-0.8,6.1c-10.1,9.7-20.8,18.9-31.6,27.4c-1.4-3-3.4-5.3-6.3-7.3
					c10.8-8.6,21.6-17.9,31.8-27.6C178.5,144.7,181.3,147.9,181.8,148.9"/>
				<path class="st7" d="M92.8,209.5c2.1,3.8,5.3,5.9,6.3,6.6c-8,4.3-15.6,7.8-22.6,10.3c-4.1,0.9-8.7-4.3-7.6-6.4
					c0.2-0.3,0.6-0.5,0.8-0.7c7-2.5,14.6-6,22.7-10.4C92.6,209.1,92.7,209.4,92.8,209.5"/>
				<path class="st7" d="M233.9,80.8c0.6,0.9,1.9,3.3,1.3,5.3c-1.4,3.2-3.1,6.6-5.2,10.2c-2.2,2.8-6-2.4-6.3-5.6
					c-0.1-1.1,0-1.4,0.3-2.1c2.1-3.6,3.9-7,5.3-10.2C230.6,76.5,233.1,79.6,233.9,80.8"/>
				<path class="st7" d="M236.6,69.7c0.8,1.2,2.4,3.9,2.2,5.4c-0.2,0.9-0.4,1.8-0.6,2.7c-0.6,1.7-3.7-1.5-5.2-4.8
					c-0.9-1.9-0.7-2.7-0.7-3c0.2-0.9,0.5-1.8,0.6-2.7C233.4,66,235.4,68,236.6,69.7"/>
				<path class="st7" d="M67.3,225.8c0.2,0.3,2.1,2.7,0.2,3.4c-0.1,0-7.8,2.1-14,1.5c-4.5-0.4-5.9-1.5-8.5-3.3
					c-2.2-2.3-5.3-5.2-7.5-7.6c3.5,3.8,10,5.1,19.9,3.1c1.1-0.2,2.2-0.5,3.3-0.7C63.6,221.9,66.6,225,67.3,225.8"/>
				<path class="st7" d="M201.3,128c1.1,1.6,2.2,5.2-0.4,8.3c-3.9,3.8-9.1,0.1-9.1-5c-0.1-5.2,5.3-7.8,8.8-4.2
					C200.8,127.3,201.1,127.7,201.3,128 M206.9,121.5c-4.2-5.7-13.8-9.8-21.2-0.9c-8.2,12.4,2.2,28.8,13.6,26.9
					C209.9,145.9,214.1,131.3,206.9,121.5"/>
				<path class="st7" d="M140.1,184.3c1.1,1.5,2.2,4.8-0.9,7.3c-4.7,3.1-10.6-1.2-9.9-5.9C130.1,180.9,136.9,180,140.1,184.3
					 M147.2,178.8c-4.4-5.4-14.9-10.1-23.5-2.9c-10,10.4,0.7,25.8,13.7,25.2C149.2,200.5,154.7,188,147.2,178.8"/>
				<path class="st7" d="M110.7,204.6c1.1,1.5,2.3,4.5-0.6,6.4c-4.8,2.5-10.9-2.5-9.8-6.7C101.3,200.5,107.6,200.7,110.7,204.6
					 M118.2,201c-4.6-6-15.3-11.3-23.5-5.9c-9.9,8.2,0.6,23,13.6,24.1C119.8,220.2,125.3,210.2,118.2,201"/>
				<path class="st7" d="M74.9,248.2c0.7,0.4,1.4,0.7,2.2,1.1l-2.8-1.4l-5.6-3l0.2,0.1C69.9,245.6,72.6,247,74.9,248.2"/>
				<path class="st7" d="M181.5,188.5c1.5,3.5,4,5,4.8,5.5c-7.9,6.9-16,13.4-24.1,19.4c-4.2,2.5-8-0.6-7.1-3.5
					c0.3-0.9,0.9-1.4,1.4-1.9c8.3-6.2,16.7-12.9,24.8-20C181.4,188.2,181.5,188.4,181.5,188.5"/>
				<path class="st7" d="M90.6,248.4c0.6,0.4,2.4,1.7,0.9,2.1c-4,0.7-7.4,0.8-10.1,0.3c-2.2-0.5-7.8-3.3-8.4-4.2c0,0,0-0.1,0.1-0.1
					c0.1,0,0.2,0,0.2,0c2.8,0.5,6.3,0.4,10.4-0.3C86.7,246,90.6,248.4,90.6,248.4"/>
				<path class="st7" d="M100.8,245.1c1.1,0.7,2.5,2.1,0.8,2.8c-1.2,0.4-2.3,0.7-3.4,1c-3.3,0.7-9.1-2.4-8.3-3.9
					c0.1-0.3,0.4-0.4,0.7-0.5c1.1-0.3,2.3-0.7,3.5-1.1C96.2,242.9,99.3,244.1,100.8,245.1"/>
				<path class="st7" d="M152.1,217c0.5,0.7,1.4,2.4-0.8,4.2c-14.6,10-28.7,18.1-41.1,23.4c-4.1,1.2-9.1-2.1-8.1-3.8
					c0.2-0.3,0.5-0.5,0.8-0.6c12.7-5.4,27.3-13.7,42.3-24C149.4,213.8,152.1,217,152.1,217"/>
				<path class="st7" d="M198.1,178.9c0.8,1.4,1.4,4.4-1.3,7.1c-4,3.4-8.4,0.4-7.9-4c0.6-4.8,6.3-7.1,8.9-3.5
					C197.9,178.6,198,178.8,198.1,178.9 M204.6,173.6c-3.4-6.5-12.5-8.6-19.9-1.2c-9.1,10.5-2.6,23.7,8.1,23
					C203.6,194.8,209,181.9,204.6,173.6"/>
				<path class="st7" d="M128.7,257.4c1.6,0.4,1.6,0.8,1.6,1c-0.1,0.1-0.3,0.2-0.5,0.3c-2,0.6-3.9,1.1-5.7,1.4
					c-2.2,0.4-4.2,0.7-6,0.7c-2.7-0.4-5.2-0.9-8.7-1.5c1.9,0,4-0.3,6.3-0.7c1.9-0.4,3.9-0.9,6-1.5
					C124.7,256.4,128.7,257.4,128.7,257.4"/>
				<path class="st7" d="M212.4,201c0.2,0.6,0.5,2.3-1.4,4.3c-7.9,7.4-16.3,14.4-24.6,20.8c-1-1.7-2.4-2.8-4.6-3.6
					c8.9-6.8,17.7-14.2,26.1-22.1C210.8,198.2,212.1,200.2,212.4,201"/>
				<path class="st7" d="M234.2,178.2c0.1,0.8,0.1,2.8-1.6,5c-0.3,0.3-0.6,0.7-0.9,1c-3.9,4.3-7.9,8.7-12.2,12.9
					c-2.7,2.3-4.3,0.1-4.1-2c0.1-1.7,1.1-2.9,1.6-3.4c4.5-4.5,8.8-9.1,12.9-13.7c0.3-0.4,0.6-0.7,1-1.1
					C233.3,174.7,234.1,177.2,234.2,178.2"/>
				<path class="st7" d="M146.8,249.5c0.9,0.4,1.7,1.1,0.3,2c-3.4,1.7-6.6,3.2-9.7,4.5c-3.6,1.1-8.7-0.3-8.2-1.4
					c0.1-0.2,0.4-0.3,0.6-0.5c3.3-1.3,6.8-2.9,10.3-4.7C143.5,248,146.8,249.4,146.8,249.5"/>
				<path class="st7" d="M156.9,246.2c-3.5,1.7-7.7,0.3-7.3-1.3c0.1-0.5,0.6-0.8,1-1.1c4.4-2.5,8.9-5.4,13.4-8.4
					c1.3,1.5,3.1,2.4,5.6,2.9C165.3,241.1,161,243.8,156.9,246.2"/>
				<path class="st7" d="M242.7,167.3c0.1,1.1,0,3.6-1.4,5.5c-0.8,1.1-1.7,2.2-2.6,3.3c-1.7,1.9-2.8,0.2-2.9-1.8
					c0-0.6,0-2.9,1.4-4.8c1-1.2,1.9-2.3,2.8-3.5C241.6,164.1,242.5,165.6,242.7,167.3"/>
				<path class="st7" d="M111.7,260.1c1,0.2,1.9,0.3,2.9,0.5l-0.8-0.1c-3-0.5-6.9-1.2-9.9-1.8C104.5,258.8,108.2,259.5,111.7,260.1
					 M114.6,260.2c-5.6-1-9.2-1.7-19.8-4c-0.1,0-0.1,0-0.2,0c12.2,3.3,12.4,3.3,19.2,4.3c3,0.3,6.9,0.8,9.9,1l0,0
					C121.5,261.3,118.4,260.9,114.6,260.2"/>
				<path class="st7" d="M179.2,228.6c0.8,0.7,1.6,2.5-0.7,4.3c-3.7,2.5-8.4,0.8-7.9-1.9C171.2,227.9,176.8,226.4,179.2,228.6
					 M184.9,224.3c-3.9-3.4-12.2-3.9-18.8,1.2c-6.8,6.1-2.7,12.3,5.3,13c10.9,0.9,19.6-7.3,14.3-13.4
					C185.4,224.8,185.1,224.5,184.9,224.3"/>
			</g>
		</g>
	</g>
</g>
</svg>
