<?xml version="1.0" encoding="utf-8"?>
<!-- Generator: Adobe Illustrator 24.2.3, SVG Export Plug-In . SVG Version: 6.00 Build 0)  -->
<svg version="1.1" id="Blue_Outline" xmlns="http://www.w3.org/2000/svg" xmlns:xlink="http://www.w3.org/1999/xlink" x="0px"
	 y="0px" viewBox="0 0 278 278" style="enable-background:new 0 0 278 278;" xml:space="preserve">
<style type="text/css">
	.st0{fill:#004D71;}
	.st1{fill-rule:evenodd;clip-rule:evenodd;fill:#004D71;}
	.st2{fill:#FFFFFF;}
</style>
<g>
	<path class="st0" d="M218.2,248.9c-22,16.7-49.5,26.6-79.2,26.6c-72.4,0-131.4-58.9-131.4-131.4C7.6,71.7,66.6,12.8,139,12.8
		s131.4,58.9,131.4,131.4c0,18.9-4,36.9-11.3,53.2c0.7,0.6,1.3,1.3,1.9,1.9c7.6-16.8,11.9-35.5,11.9-55.1
		c0-73.8-60.1-133.9-133.9-133.9C65.2,10.3,5.1,70.3,5.1,144.2C5.1,218,65.2,278.1,139,278.1c30.6,0,58.8-10.3,81.3-27.6
		C219.6,250,218.9,249.5,218.2,248.9z"/>
	<path class="st1" d="M205.5,222.3c0-11.9,6-22.4,15.1-28.3c-23.2-13.1-62-3.9-63.1-41c16.4-10.6,28.4-27.4,34.4-46
		c27.7-37.2,7-104.4-52.5-107C42,0.1,38.4,122.8,120.5,153c-1.8,54.4-83.9,9.3-80.1,80.6l26.9,21.6l26.3,13.7l31.5,7.2
		c0,0,22.1,3.3,41-2c18.8-5.4,22.5-3.8,41.1-16c4.4-2.9,8.4-5.8,11.9-8.5C210.8,243.5,205.5,233.6,205.5,222.3z M85.1,77.9
		c-6.5-33.2,20-65.2,53.9-64.8c33.9-0.4,60.3,31.6,53.9,64.8C183,19.3,95,19.3,85.1,77.9z M100.7,131.7c5.3,3.8,11.6,7.1,18.8,10.1
		c-21.2-15.3-29.3-40.4-25.8-64c20.6,0.9,38-6.9,44.8-14.1c-7.1,10.5-18.5,17.5-31,19.9c19.8,3.2,40.7-5.5,50.7-22.8
		c-4.2,9.3-11.5,17-20.6,22.3c15.2-3,28.6-11.5,36.3-23.7c13.7,9.9,17.5,29.6,8.3,50.3c4.7-4.1,8.1-9,10.2-13.9
		c-4.5,25.1-20,48-42.2,59.6C133.5,167.9,110.8,144.7,100.7,131.7z M72.5,190.3c22.6-4.7,48-5.2,50.1-35.3c13.1,7.6,19.7,7.6,32.8,0
		c2.2,30.1,27.5,30.6,50.1,35.3C179.4,227.8,98.6,227.8,72.5,190.3z"/>
	<circle class="st0" cx="237.7" cy="222.3" r="28.7"/>
	<path class="st2" d="M231.9,228.6c0,0-6.5-10.2-9.7-7.7c-3.2,2.5-0.7,5.1,3.5,10.1c2.7,3.2,4.4,5.2,5.4,6.3c0.5,0.6,1.5,1,2.1,0.5
		c0.6-0.6,1.3-1.9,1.9-3.6c2-5.3,11.1-19.5,17.4-24.7c4.5-3.1,1.7-3.6-1.1-1.9C248.1,209,239.8,216.5,231.9,228.6z"/>
</g>
</svg>
