<?xml version="1.0" encoding="utf-8"?>
<!-- Generator: Adobe Illustrator 24.2.3, SVG Export Plug-In . SVG Version: 6.00 Build 0)  -->
<svg version="1.1" xmlns="http://www.w3.org/2000/svg" xmlns:xlink="http://www.w3.org/1999/xlink" x="0px" y="0px"
	 viewBox="0 0 278 278" style="enable-background:new 0 0 278 278;" xml:space="preserve">
<style type="text/css">
	.st0{display:none;}
	.st1{display:inline;fill:#4D4D4F;}
	.st2{display:inline;fill:#4096BF;}
	.st3{display:inline;fill:none;stroke:#4096BF;stroke-width:2.4529;stroke-miterlimit:10;}
	.st4{display:inline;fill:none;}
	.st5{display:inline;fill:none;stroke:#4096BF;stroke-width:2.5406;stroke-miterlimit:10;}
	.st6{display:inline;}
	.st7{fill:#4096BF;}
	.st8{fill:none;stroke:#4096BF;stroke-width:15.2435;stroke-linecap:round;stroke-miterlimit:10;}
	.st9{display:inline;fill:#EE302D;}
	.st10{display:inline;fill:#E6E6E5;}
	.st11{display:inline;fill:#FFD160;}
	.st12{fill:#FFFFFF;}
	.st13{clip-path:url(#SVGID_2_);fill:#4096BF;}
	.st14{clip-path:url(#SVGID_4_);fill:none;stroke:#4096BF;stroke-width:1.2703;stroke-miterlimit:10;}
	.st15{fill:none;stroke:#004D71;stroke-width:2.5406;stroke-miterlimit:10;}
	.st16{fill:none;stroke:#F05325;stroke-width:2.5406;stroke-miterlimit:10;}
	.st17{fill:#F05325;}
	.st18{fill:#004D71;}
</style>
<g id="bkd_fpo" class="st0">
</g>
<g id="old_gm_blue" class="st0">
</g>
<g id="Original">
</g>
<g id="Orange_Outline">
	<path class="st16" d="M240.8,47.2C215.7,19.3,179.4,1.8,139,1.8S62.3,19.3,37.2,47.2"/>
	<path class="st16" d="M30.4,223.6c25.1,31.8,64,52.2,107.6,52.2c44.8,0,84.6-21.5,109.6-54.8"/>
	<path class="st17" d="M260.9,52H17.1c-6.8,0-12.4,4.2-12.4,9.4v144.2c0,5.2,5.5,9.4,12.4,9.4h243.8c6.8,0,12.4-4.2,12.4-9.4V61.4
		C273.3,56.2,267.7,52,260.9,52z"/>
	<rect x="11.3" y="59.4" class="st12" width="255.4" height="141.2"/>
	<path class="st17" d="M190.1,228.8h-30.5v-9.4h-41.4v9.4H87.9c-4.8,0-8.6,3.9-8.6,8.6c0,1.3,0.6,2.3,1.4,2.3h116.7
		c0.8,0,1.4-1,1.4-2.3C198.8,232.6,194.9,228.8,190.1,228.8z"/>
	<g>
		<path class="st17" d="M63,156.5c-8-23.4,2.6-30.5,2.6-30.5l6.4,12.7c0,0,15.9-29.7,21.8-34.3c0,0,11.4,7.8,15.6,8
			c0,0,10.7,2.9,20.7-25.2c0,0,3.6,9.2,10.3,10.4c6.6,1.2,9.6-2.6,9.6-2.6s4.5,9.1,4.4,13.5c0,0,10-5.1,20.5-3.2
			c0,0-1.4,10.3,7.4,12.7c8.8,2.4,11.1-0.6,11.1-0.6s-6,7.5-2.2,12.8c3.8,5.3,11.7,3.8,11.7,3.8s6.4-1.4,12.2-0.4
			c0,0-9,14.1-0.7,26.6c0,0-2.2,8.7,3.9,10.1c5.6,1.3,7.4-3.8,7.4-3.8s10.1,4.1,9,14.5c-1,10.4-8.6,13.2-8.6,13.2s-4.5,1.5-5.2-2.2
			c-0.6-3-2.5-5.3-6.9-3.5c-3.5,1.5-1.3,8.5-1.3,8.5c1.7,5.6,9.5,5.2,9.5,5.2c24-2.6,18.9-28.6,18.9-28.6
			c-2.3-11.4-11.3-15.3-16.1-16.6c-8.1-13.9,4.2-28.9,4.2-28.9c-4.6-4.6-12.3-5.2-16.4-5.1c-3.3,0.1-6.5,1.2-9.8,1
			c-0.6,0-1.2-0.1-1.7-0.5c-2.9-1.8,0.5-6.1,1.4-7.9c1.8-3.8,2.7-8,2.4-12.2c-0.5-5.7-3.1-11.3-7.3-15c0.2,3.1,0.3,6.3-0.4,9.3
			c-0.7,3-2.3,6-4.9,7.4c-8.4,4.8-9.2-7.8-5.1-12.3c-8.4-2.6-19.1-2.7-27,2.8c-0.8-6.6,0.3-14.4-11.1-18.9c1.8,5.5-4.5,12.1-10,7.4
			c-3-2.6-2.6-11.6-1.8-15.4c-5.9-1.2-13.5,4.9-15.2,10.3c-0.7,2.2-1.1,4.6-2,6.6c-1,2.1-6.2,13.2-10.3,13.1
			c-6.8-0.3-13-7.3-12.9-13.3c0,0-6.2-1-13.8,12.4c-10.6,18.9-11.2,20.7-11.2,20.7c-1.1-4.6-2.2-9.3-3.3-13.9c0,0-30,18.4-14.8,52.5
			c-5.1,1-17,4.9-17.5,20.1c0,0-3.1,20.9,18.1,24.2c0,0,6.8,0.4,7.8-3c1-3.4,0.9-5.6,0.9-5.6s-0.7-4.5-5.5-3.5
			c-4.8,1-4.4,6.4-4.4,6.4c-8.9-3.1-10.3-11.1-10.3-11.1s-0.5-3.9,1.2-12.4c1.7-8.4,11-6.7,11-6.7s5.9,6.8,10.2,1.5
			S63,156.5,63,156.5z"/>
		<path class="st17" d="M154.4,199.8c-0.4,0-0.8-0.1-1.2-0.4c-1.4-1.3-4.9-4-6.3-4.7c-1.4-0.7-3.9-0.9-5.1-0.4
			c-0.3,0.1-0.6,0.3-0.9,0.5c-0.6,0.4-1.3,0.8-2.2,1c-1.1,0.2-2.9,0.1-3.3,0l-0.4-0.1c-0.7-0.2-1.3-0.6-1.8-0.9
			c-0.3-0.2-0.7-0.4-1-0.5c-1.2-0.5-3.7-0.3-5.1,0.4c-1.5,0.7-5,3.5-6.3,4.7c-0.7,0.6-1.8,0.6-2.4-0.1c-0.6-0.7-0.6-1.8,0.1-2.4
			c1.3-1.1,5.1-4.3,7.1-5.3c2-1,5.5-1.5,7.9-0.5c0.5,0.2,1,0.5,1.5,0.8c0.4,0.2,0.7,0.4,1.1,0.6c0.7,0.1,1.6,0.1,2,0
			c0.3-0.1,0.7-0.3,1.1-0.6c0.4-0.3,0.9-0.5,1.4-0.8c2.3-1,5.8-0.5,7.9,0.5c2,1,5.9,4.1,7.1,5.3c0.7,0.6,0.8,1.7,0.1,2.4
			C155.4,199.6,154.9,199.8,154.4,199.8z"/>
		<path class="st17" d="M59.1,175.1c0,0-5.8-3.7-6.4,2.9c-0.6,6.6,7.1,7.1,6.9,4.6C59.2,180.2,59.1,175.1,59.1,175.1z"/>
		<path class="st17" d="M226.3,176.5c0,0,5.8-3.7,6.4,2.9c0.6,6.6-7.1,7.1-6.9,4.6C226.2,181.6,226.3,176.5,226.3,176.5z"/>
		<path class="st17" d="M190.6,143.6c-0.1,0-0.1-0.1-0.2-0.1c-14.6-8.5-33.8-13.4-52.5-13.4c-19.2,0-37.7,4.7-52,13.1
			c0,0-0.1,0.1-0.1,0.1c0,0-0.1,0.1-0.1,0.1c0,0,0,0.1-0.1,0.1c0,0.1-0.1,0.1-0.1,0.2c0,0,0,0.1,0,0.1c0,0.1,0,0.2,0,0.2
			c0,0,0,0,0,0.1c0,0.1,0,0.2,0.1,0.2c0,0,0,0,0,0c0,0,0,0,0,0c0,0,0,0,0.1,0.1c0.1,0.1,0.1,0.1,0.2,0.2c0,0,0.1,0,0.1,0
			c0.1,0,0.2,0.1,0.2,0.1c0,0,0.1,0,0.1,0c0.1,0,0.2,0,0.2,0c0,0,0.1,0,0.1,0c0.1,0,0.1,0,0.2-0.1c14.3-7.9,32.6-11.9,51.4-11.4
			c18.7,0.5,36.5,5.6,50.2,14.1c0.2,0.1,0.3,0.1,0.5,0.1c0,0,0,0,0,0c0.8,0.1,1.8-0.3,2.3-1.2C191.8,145.3,191.5,144.1,190.6,143.6z
			 M152.1,132.8c-0.2,0-0.5-0.1-0.7-0.1C151.6,132.7,151.8,132.8,152.1,132.8L152.1,132.8z"/>
		<path class="st17" d="M137.1,158.3c1.5,0,6.7-1.8,7.8-2.1c0.2-0.1,17.1-5.6,29.5-1c0.6,0.2,1.2-0.1,1.4-0.6
			c0.2-0.6-0.1-1.2-0.6-1.4c-13.1-4.9-30.2,0.7-30.9,1c-2.9,1-6.4,2-7.1,2c-0.7,0-4.2-1-7.1-2c-0.7-0.2-17.8-5.8-30.9-1
			c-0.6,0.2-0.9,0.8-0.6,1.4c0.2,0.6,0.8,0.9,1.4,0.6c12.4-4.6,29.3,0.9,29.5,1C130.3,156.6,135.6,158.3,137.1,158.3z"/>
		<g>
			<path class="st17" d="M121.5,176.8c0-0.5,0-1-0.1-1.5c-0.6-5.8-5.2-10-10.3-9.4c-5,0.6-8.6,5.7-8,11.4c0.1,1.2,0.5,2.3,0.9,3.4
				C107.9,178.7,115.5,175.5,121.5,176.8z"/>
			<path class="st17" d="M100.4,185.6c0.2,0,0.5-0.1,0.6-0.3c10.3-12,26.9-6.2,27.1-6.1c0.5,0.2,1-0.1,1.2-0.6
				c0.2-0.5-0.1-1-0.6-1.2c-0.2-0.1-18-6.3-29.1,6.6c-0.3,0.4-0.3,1,0.1,1.3C99.9,185.6,100.2,185.6,100.4,185.6z"/>
		</g>
		<g>
			<path class="st17" d="M152.6,176.8c0-0.5,0-1,0.1-1.5c0.6-5.8,5.2-10,10.3-9.4c5,0.6,8.6,5.7,8,11.4c-0.1,1.2-0.5,2.3-0.9,3.4
				C166.2,178.7,158.7,175.5,152.6,176.8z"/>
			<path class="st17" d="M173.7,185.6c-0.2,0-0.5-0.1-0.6-0.3c-10.3-12-26.9-6.2-27.1-6.1c-0.5,0.2-1-0.1-1.2-0.6
				c-0.2-0.5,0.1-1,0.6-1.2c0.2-0.1,18-6.3,29.1,6.6c0.3,0.4,0.3,1-0.1,1.3C174.2,185.6,173.9,185.6,173.7,185.6z"/>
		</g>
	</g>
</g>
<g id="Blue_Outline">
	<g>
		<g>
			<path class="st15" d="M240.8,47.2C215.7,19.3,179.4,1.8,139,1.8S62.3,19.3,37.2,47.2"/>
			<path class="st15" d="M30.4,223.6c25.1,31.8,64,52.2,107.6,52.2c44.8,0,84.6-21.5,109.6-54.8"/>
			<g>
				<path class="st18" d="M260.9,52H17.1c-6.8,0-12.4,4.2-12.4,9.4v144.2c0,5.2,5.5,9.4,12.4,9.4h243.8c6.8,0,12.4-4.2,12.4-9.4
					V61.4C273.3,56.2,267.7,52,260.9,52z"/>
				<rect x="11.3" y="59.4" class="st12" width="255.4" height="141.2"/>
				<path class="st18" d="M190.1,228.8h-30.5v-9.4h-41.4v9.4H87.9c-4.8,0-8.6,3.9-8.6,8.6c0,1.3,0.6,2.3,1.4,2.3h116.7
					c0.8,0,1.4-1,1.4-2.3C198.8,232.6,194.9,228.8,190.1,228.8z"/>
			</g>
			<g>
				<path class="st18" d="M63,156.5c-8-23.4,2.6-30.5,2.6-30.5l6.4,12.7c0,0,15.9-29.7,21.8-34.3c0,0,11.4,7.8,15.6,8
					c0,0,10.7,2.9,20.7-25.2c0,0,3.6,9.2,10.3,10.4c6.6,1.2,9.6-2.6,9.6-2.6s4.5,9.1,4.4,13.5c0,0,10-5.1,20.5-3.2
					c0,0-1.4,10.3,7.4,12.7c8.8,2.4,11.1-0.6,11.1-0.6s-6,7.5-2.2,12.8c3.8,5.3,11.7,3.8,11.7,3.8s6.4-1.4,12.2-0.4
					c0,0-9,14.1-0.7,26.6c0,0-2.2,8.7,3.9,10.1c5.6,1.3,7.4-3.8,7.4-3.8s10.1,4.1,9,14.5c-1,10.4-8.6,13.2-8.6,13.2
					s-4.5,1.5-5.2-2.2c-0.6-3-2.5-5.3-6.9-3.5c-3.5,1.5-1.3,8.5-1.3,8.5c1.7,5.6,9.5,5.2,9.5,5.2c24-2.6,18.9-28.6,18.9-28.6
					c-2.3-11.4-11.3-15.3-16.1-16.6c-8.1-13.9,4.2-28.9,4.2-28.9c-4.6-4.6-12.3-5.2-16.4-5.1c-3.3,0.1-6.5,1.2-9.8,1
					c-0.6,0-1.2-0.1-1.7-0.5c-2.9-1.8,0.5-6.1,1.4-7.9c1.8-3.8,2.7-8,2.4-12.2c-0.5-5.7-3.1-11.3-7.3-15c0.2,3.1,0.3,6.3-0.4,9.3
					c-0.7,3-2.3,6-4.9,7.4c-8.4,4.8-9.2-7.8-5.1-12.3c-8.4-2.6-19.1-2.7-27,2.8c-0.8-6.6,0.3-14.4-11.1-18.9
					c1.8,5.5-4.5,12.1-10,7.4c-3-2.6-2.6-11.6-1.8-15.4c-5.9-1.2-13.5,4.9-15.2,10.3c-0.7,2.2-1.1,4.6-2,6.6
					c-1,2.1-6.2,13.2-10.3,13.1c-6.8-0.3-13-7.3-12.9-13.3c0,0-6.2-1-13.8,12.4c-10.6,18.9-11.2,20.7-11.2,20.7
					c-1.1-4.6-2.2-9.3-3.3-13.9c0,0-30,18.4-14.8,52.5c-5.1,1-17,4.9-17.5,20.1c0,0-3.1,20.9,18.1,24.2c0,0,6.8,0.4,7.8-3
					c1-3.4,0.9-5.6,0.9-5.6s-0.7-4.5-5.5-3.5c-4.8,1-4.4,6.4-4.4,6.4c-8.9-3.1-10.3-11.1-10.3-11.1s-0.5-3.9,1.2-12.4
					c1.7-8.4,11-6.7,11-6.7s5.9,6.8,10.2,1.5S63,156.5,63,156.5z"/>
				<path class="st18" d="M154.4,199.8c-0.4,0-0.8-0.1-1.2-0.4c-1.4-1.3-4.9-4-6.3-4.7c-1.4-0.7-3.9-0.9-5.1-0.4
					c-0.3,0.1-0.6,0.3-0.9,0.5c-0.6,0.4-1.3,0.8-2.2,1c-1.1,0.2-2.9,0.1-3.3,0l-0.4-0.1c-0.7-0.2-1.3-0.6-1.8-0.9
					c-0.3-0.2-0.7-0.4-1-0.5c-1.2-0.5-3.7-0.3-5.1,0.4c-1.5,0.7-5,3.5-6.3,4.7c-0.7,0.6-1.8,0.6-2.4-0.1c-0.6-0.7-0.6-1.8,0.1-2.4
					c1.3-1.1,5.1-4.3,7.1-5.3c2-1,5.5-1.5,7.9-0.5c0.5,0.2,1,0.5,1.5,0.8c0.4,0.2,0.7,0.4,1.1,0.6c0.7,0.1,1.6,0.1,2,0
					c0.3-0.1,0.7-0.3,1.1-0.6c0.4-0.3,0.9-0.5,1.4-0.8c2.3-1,5.8-0.5,7.9,0.5c2,1,5.9,4.1,7.1,5.3c0.7,0.6,0.8,1.7,0.1,2.4
					C155.4,199.6,154.9,199.8,154.4,199.8z"/>
				<path class="st18" d="M59.1,175.1c0,0-5.8-3.7-6.4,2.9c-0.6,6.6,7.1,7.1,6.9,4.6C59.2,180.2,59.1,175.1,59.1,175.1z"/>
				<path class="st18" d="M226.3,176.5c0,0,5.8-3.7,6.4,2.9c0.6,6.6-7.1,7.1-6.9,4.6C226.2,181.6,226.3,176.5,226.3,176.5z"/>
				<path class="st18" d="M190.6,143.6c-0.1,0-0.1-0.1-0.2-0.1c-14.6-8.5-33.8-13.4-52.5-13.4c-19.2,0-37.7,4.7-52,13.1
					c0,0-0.1,0.1-0.1,0.1c0,0-0.1,0.1-0.1,0.1c0,0,0,0.1-0.1,0.1c0,0.1-0.1,0.1-0.1,0.2c0,0,0,0.1,0,0.1c0,0.1,0,0.2,0,0.2
					c0,0,0,0,0,0.1c0,0.1,0,0.2,0.1,0.2c0,0,0,0,0,0c0,0,0,0,0,0c0,0,0,0,0.1,0.1c0.1,0.1,0.1,0.1,0.2,0.2c0,0,0.1,0,0.1,0
					c0.1,0,0.2,0.1,0.2,0.1c0,0,0.1,0,0.1,0c0.1,0,0.2,0,0.2,0c0,0,0.1,0,0.1,0c0.1,0,0.1,0,0.2-0.1c14.3-7.9,32.6-11.9,51.4-11.4
					c18.7,0.5,36.5,5.6,50.2,14.1c0.2,0.1,0.3,0.1,0.5,0.1c0,0,0,0,0,0c0.8,0.1,1.8-0.3,2.3-1.2
					C191.8,145.3,191.5,144.1,190.6,143.6z M152.1,132.8c-0.2,0-0.5-0.1-0.7-0.1C151.6,132.7,151.8,132.8,152.1,132.8L152.1,132.8z"
					/>
				<path class="st18" d="M137.1,158.3c1.5,0,6.7-1.8,7.8-2.1c0.2-0.1,17.1-5.6,29.5-1c0.6,0.2,1.2-0.1,1.4-0.6
					c0.2-0.6-0.1-1.2-0.6-1.4c-13.1-4.9-30.2,0.7-30.9,1c-2.9,1-6.4,2-7.1,2c-0.7,0-4.2-1-7.1-2c-0.7-0.2-17.8-5.8-30.9-1
					c-0.6,0.2-0.9,0.8-0.6,1.4c0.2,0.6,0.8,0.9,1.4,0.6c12.4-4.6,29.3,0.9,29.5,1C130.3,156.6,135.6,158.3,137.1,158.3z"/>
				<g>
					<path class="st18" d="M121.5,176.8c0-0.5,0-1-0.1-1.5c-0.6-5.8-5.2-10-10.3-9.4c-5,0.6-8.6,5.7-8,11.4c0.1,1.2,0.5,2.3,0.9,3.4
						C107.9,178.7,115.5,175.5,121.5,176.8z"/>
					<path class="st18" d="M100.4,185.6c0.2,0,0.5-0.1,0.6-0.3c10.3-12,26.9-6.2,27.1-6.1c0.5,0.2,1-0.1,1.2-0.6
						c0.2-0.5-0.1-1-0.6-1.2c-0.2-0.1-18-6.3-29.1,6.6c-0.3,0.4-0.3,1,0.1,1.3C99.9,185.6,100.2,185.6,100.4,185.6z"/>
				</g>
				<g>
					<path class="st18" d="M152.6,176.8c0-0.5,0-1,0.1-1.5c0.6-5.8,5.2-10,10.3-9.4c5,0.6,8.6,5.7,8,11.4c-0.1,1.2-0.5,2.3-0.9,3.4
						C166.2,178.7,158.7,175.5,152.6,176.8z"/>
					<path class="st18" d="M173.7,185.6c-0.2,0-0.5-0.1-0.6-0.3c-10.3-12-26.9-6.2-27.1-6.1c-0.5,0.2-1-0.1-1.2-0.6
						c-0.2-0.5,0.1-1,0.6-1.2c0.2-0.1,18-6.3,29.1,6.6c0.3,0.4,0.3,1-0.1,1.3C174.2,185.6,173.9,185.6,173.7,185.6z"/>
				</g>
			</g>
		</g>
	</g>
</g>
</svg>
