<?xml version="1.0" encoding="utf-8"?>
<!-- Generator: Adobe Illustrator 24.2.3, SVG Export Plug-In . SVG Version: 6.00 Build 0)  -->
<svg version="1.1" id="Blue_Outline" xmlns="http://www.w3.org/2000/svg" xmlns:xlink="http://www.w3.org/1999/xlink" x="0px"
	 y="0px" viewBox="0 0 278 278" style="enable-background:new 0 0 278 278;" xml:space="preserve">
<style type="text/css">
	.st0{fill:none;stroke:#004D71;stroke-width:2.5406;stroke-miterlimit:10;}
	.st1{fill:none;}
	.st2{clip-path:url(#SVGID_2_);}
	.st3{fill:#004D71;}
	.st4{fill:#FFFFFF;}
</style>
<g>
	<path class="st0" d="M199.3,27.9c-12-5.2-24.9-8.7-38.6-10.1c-59.9-6.1-114.5,29.8-134.4,83.8"/>
	<path class="st0" d="M60.2,241.6c19.8,18.2,45.5,30.5,74.4,33.4c71,7.2,134.5-44.5,141.7-115.5c4.9-48.2-17.3-92.9-54.3-118.9"/>
	<path class="st0" d="M20,167c3.1,19.4,10.6,37.6,21.5,53.3"/>
	<path class="st1" d="M201.5,28.5c-12.3-5.6-25.8-9.2-40-10.7c-71-7.2-134.5,44.5-141.7,115.5c-3.3,32.5,5.7,63.5,23.4,88.2"/>
	<g>
		<defs>
			<circle id="SVGID_1_" cx="148.1" cy="146.5" r="129.3"/>
		</defs>
		<clipPath id="SVGID_2_">
			<use xlink:href="#SVGID_1_"  style="overflow:visible;"/>
		</clipPath>
		<g class="st2">
			<rect x="82.5" y="220.6" class="st3" width="49.6" height="58"/>
			<rect x="141.1" y="160.1" class="st3" width="49.6" height="118.5"/>
			<rect x="199.8" y="84" class="st3" width="49.6" height="194.6"/>
		</g>
	</g>
	<g>
		<path class="st3" d="M127.9,71.7l17,2.2l14.3,5.3l3.4,1.9l1.2,0.7l1.3-0.5l0.8-0.3l-62.3,91.8L38,178.9l-9.3-20.1l-0.3-0.6
			l-0.5-0.4L11,144l-7-22l28.4-12.6l48.7-12.2l0.4-0.1l0.3-0.2L127.9,71.7 M127.3,68.6L80.4,94.3l-48.9,12.3L0.3,120.3l8.1,25.4
			L26,160.1l10.2,22l69.2-6.5l67.2-99l-1.9-0.6l-6.5,2.5l-3.6-2l-14.8-5.5L127.3,68.6L127.3,68.6z"/>
	</g>
	<g>
		<path class="st3" d="M72.8,126.5l2.2-1.9l-2.3,3.2c-0.2,0.4-0.2,0.8,0.1,1.1c0.3,0.3,0.7,0.5,1.1,0.4l2.4-2.6l-2.3,3
			c-0.3,0.4-0.2,0.9,0.2,1.2c0.3,0.3,0.9,0.3,1.2,0l2.6-2.6l-1.7,2.5c-0.7,1.1-0.2,1.7,0.1,1.9c0.3,0.2,0.7,0.1,1-0.2l4.4-5
			l-1.2,2.8l1.5,1.4l2.7-4.6l0.7-3.9l-5.5-5.5c-2.8,2.1-4.1,3-6.5,5.7l-1.4,1.7c-0.2,0.3-0.2,0.7,0,1
			C72.1,126.5,72.4,126.6,72.8,126.5z"/>
		<path class="st3" d="M226.4,17.3c2.2-2.8,3.4-4.8,3.6-6.5c0.1-1.2-1.6-3.3-3.1-4.3c-1.5-1.1-4.5-2.7-5.7-2.5
			c-0.6,0.1-1.1,1.6-1.3,2.7c-1.4,0-2.7,0.1-2.9,0.3c-0.3,0.3-2,3.2-2.3,4c-0.2,0.6,2.1,3.6,2.1,5.7l-0.7-0.4l-1.4,2.6l-0.8-0.5
			l-30.5,40.9c-0.3-1.6-0.7-3.7-1.3-5.8l-0.3-0.8l0,0l0-0.1c2.3-0.9,2.9-2.4,1-3.8c-1.2-0.9-4.4-2.9-4.5-5.1c0-1.4-1-2.9-2-4.1
			c2.6-2.4,2.2-4.2,2.2-4.2c-11.7-4-17.2-0.7-21.5,1.9c-5.1,3.1-8.6,9.3-4.9,17.1c1.1,2.3,2.9,5.3,4,6.8c1.1,1.5,1.9,2.8,2.5,3.8
			l-0.6,1.3l-0.4,0.4l-2.8,0.1l-1.4,1.5l-0.3,0.3l0.1-0.1l-27.4,0.4l-23.1,20.4l-23.1,24.3l6.8,6.5l-6.1-5.7l-2.2,2.1l8.4,8.5
			l2.3-2.5l0.4,0.4l20.5-21.7l15.9-12.7c-15.2,20.2-20,28.2-39,47.9l15,7.4L90,161.1l-9.8,13.6L51,174l-0.2,0.9
			c-1.3-0.7-3-1.5-3.5-1.7c0-0.1,0.1-0.2,0.1-0.3l-2.5-0.9l-1,2.7l-2.3,6.2l1.3,0.4c-2.1,3.3-5.5,10.9-6.9,17.3l1.2,0.3
			c0-0.1,0-0.1,0-0.2c0.6,0.3,1.7,0.6,2.9-0.2c2.1-1.5,5-6.9,5-6.9c0.7-1,1.4-2,2.2-2.8l-0.1,0.3l22.3,0.4l-21.4,29.8l0.8,0.7
			l-2.2,0l0,0.4l-0.2,6.2l-0.1,2.6l1.3,0c-0.9,3.7-1.7,11.8-0.9,18.1l1.2-0.1c0-0.1,0-0.1,0-0.2c0.6,0.1,1.8,0,2.6-1.1
			c1.5-2,2.5-7.9,2.5-7.9c0.6-2.4,1.5-4.6,3.1-6.2c0.3-0.3,1.6-2.6,2.4-3.9l1.5,1.2l34.5-39l12.3,0.2l33.1-48.8l-15.2-10.8l0.4,0.2
			l14.8,10.6l22.4-32.6l-18.6,27l18.5-17.4l61.5-94.2l-6.3-3.7l5.5,3.3l1.5-2.5l-6.1-3.6l4.9,2.9C223.5,20.5,225.2,18.9,226.4,17.3z
			 M49.4,220.2C49.4,220.2,49.4,220.2,49.4,220.2L49.4,220.2C49.4,220.2,49.4,220.2,49.4,220.2z M172,72.4L172,72.4l3.6-6.2
			c1.1-0.1,2.1-0.3,3.1-0.6l-5.6,7.5L172,72.4z"/>
	</g>
	<polygon class="st4" points="172,72.4 163.2,77 153.3,68.3 127.3,68.6 156.9,78.6 158.3,83.7 157.3,85.5 134.8,123.2 134.6,132.5 
		143.8,128.7 161.4,87.4 161.9,85.6 165.4,82.7 172.5,76.6 173.1,73.2 	"/>
</g>
</svg>
