<?xml version="1.0" encoding="utf-8"?>
<!-- Generator: Adobe Illustrator 24.3.0, SVG Export Plug-In . SVG Version: 6.00 Build 0)  -->
<svg version="1.1" id="white" xmlns="http://www.w3.org/2000/svg" xmlns:xlink="http://www.w3.org/1999/xlink" x="0px" y="0px"
	 viewBox="0 0 440 330" style="enable-background:new 0 0 440 330;" xml:space="preserve">
<style type="text/css">
	.st0{fill:#FFFFFF;}
	.st1{fill:#FFFFFF;stroke:#FFFFFF;stroke-width:0.3307;stroke-miterlimit:10;}
	.st2{fill:#FFFFFF;stroke:#FFFFFF;stroke-width:7.224693e-02;stroke-miterlimit:10;}
	.st3{fill:#FFFFFF;stroke:#FFFFFF;stroke-width:0.115;stroke-miterlimit:10;}
	.st4{fill:#FFFFFF;stroke:#FFFFFF;stroke-width:8.177064e-02;stroke-miterlimit:10;}
	.st5{fill:#FFFFFF;stroke:#FFFFFF;stroke-width:0.1302;stroke-miterlimit:10;}
	.st6{clip-path:url(#SVGID_2_);}
	
		.st7{fill:none;stroke:#FFFFFF;stroke-width:4.0643;stroke-linecap:round;stroke-miterlimit:10;stroke-dasharray:0,10.0635,0,10.0635,0,10.0635;}
</style>
<g>
	<path class="st0" d="M145.4,259.2c-1,0-1.6-0.5-1.7-1.3l-2.9-17.7h-0.4l0.4,7v17.1c0,1.1-0.6,1.7-1.7,1.7H137
		c-1.1,0-1.7-0.6-1.7-1.7v-32.4c0-1.1,0.6-1.7,1.7-1.7h4.9c1.1,0,1.6,0.5,1.8,1.6l2,10.6l1.2,8.5h0.4l1.1-8.5l2.1-10.6
		c0.1-1.1,0.7-1.6,1.8-1.6h4.9c1,0,1.7,0.6,1.7,1.7v32.4c0,1.1-0.6,1.7-1.7,1.7h-2.1c-1.1,0-1.7-0.6-1.7-1.7v-17.1l0.4-7h-0.4
		l-3,17.7c-0.1,0.8-0.6,1.3-1.7,1.3H145.4z"/>
	<path class="st0" d="M178,252.1c0,1.2-0.7,2-2,2h-7.5v5.6c0,1.5,0.6,2.2,1.9,2.2c1.3,0,2-0.6,2-2.2v-1c0-1.1,0.6-1.7,1.7-1.7h2.2
		c1.1,0,1.7,0.6,1.7,1.7v1.2c0,4.4-2.4,6.4-7.6,6.4c-5.1,0-7.6-2.1-7.6-6.4v-15.7c0-4.3,2.4-6.4,7.6-6.4c5.1,0,7.6,2.1,7.6,6.4
		V252.1z M168.5,249.9h3.9v-5.6c0-1.6-0.6-2.2-2-2.2c-1.3,0-1.9,0.6-1.9,2.2V249.9z"/>
	<path class="st0" d="M197.1,264.3c0,1-0.6,1.7-1.7,1.7h-2.2c-1.1,0-1.7-0.6-1.7-1.7v-0.2c-1.4,1.4-3.4,2.2-5.1,2.2
		c-2.4,0-4.5-1.5-4.5-5.2v-18.1c0-3.7,2-5.2,4.5-5.2c1.7,0,3.7,0.8,5.1,2.2v-11.8c0-1.1,0.6-1.7,1.7-1.7h2.2c1.1,0,1.7,0.6,1.7,1.7
		V264.3z M187.6,259.3c0,1.6,0.5,2.2,1.9,2.2s2-0.6,2-2.2v-14.6c0-1.6-0.7-2.3-2-2.3s-1.9,0.6-1.9,2.2V259.3z"/>
	<path class="st0" d="M203.9,228.1c1.9,0,3.3,1.4,3.3,3.3c0,2-1.4,3.3-3.3,3.3c-2,0-3.3-1.3-3.3-3.3
		C200.6,229.5,201.9,228.1,203.9,228.1z M206.7,264.3c0,1.1-0.6,1.7-1.7,1.7h-2.2c-1.1,0-1.7-0.6-1.7-1.7v-24.6
		c0-1.1,0.6-1.7,1.7-1.7h2.2c1.1,0,1.7,0.6,1.7,1.7V264.3z"/>
	<path class="st0" d="M220.2,249.6v-5.3c0-1.6-0.6-2.2-2-2.2c-1.3,0-1.9,0.6-1.9,2.2v1.1c0,1.1-0.6,1.7-1.7,1.7h-2.2
		c-1.1,0-1.7-0.6-1.7-1.7v-1.3c0-4.3,2.4-6.4,7.6-6.4c5.1,0,7.6,2.1,7.6,6.4v20.2c0,1-0.6,1.7-1.7,1.7h-2.2c-1.1,0-1.7-0.6-1.7-1.7
		v-0.2c-1.4,1.4-3.4,2.2-5.1,2.2c-2.4,0-4.5-1.5-4.5-5.2v-5c0-4.3,2.4-6.4,7.6-6.4H220.2z M218.2,253.8c-1.3,0-1.9,0.6-1.9,2.2v3.3
		c0,1.6,0.5,2.2,1.9,2.2s2-0.6,2-2.2v-5.4H218.2z"/>
	<path class="st0" d="M250.1,249.6v-5.3c0-1.6-0.6-2.2-2-2.2c-1.3,0-1.9,0.6-1.9,2.2v1.1c0,1.1-0.6,1.7-1.7,1.7h-2.2
		c-1.1,0-1.7-0.6-1.7-1.7v-1.3c0-4.3,2.4-6.4,7.6-6.4c5.1,0,7.6,2.1,7.6,6.4v20.2c0,1-0.6,1.7-1.7,1.7h-2.2c-1.1,0-1.7-0.6-1.7-1.7
		v-0.2c-1.4,1.4-3.4,2.2-5.1,2.2c-2.4,0-4.5-1.5-4.5-5.2v-5c0-4.3,2.4-6.4,7.6-6.4H250.1z M248.1,253.8c-1.3,0-1.9,0.6-1.9,2.2v3.3
		c0,1.6,0.5,2.2,1.9,2.2s2-0.6,2-2.2v-5.4H248.1z"/>
	<path class="st0" d="M274.8,264.3c0,1-0.6,1.7-1.7,1.7h-2.2c-1.1,0-1.7-0.6-1.7-1.7v-19.7c0-1.5-0.6-2.2-1.9-2.2
		c-1.3,0-2,0.7-2,2.3v19.6c0,1-0.6,1.7-1.7,1.7h-2.2c-1.1,0-1.7-0.6-1.7-1.7v-24.7c0-1.1,0.6-1.7,1.7-1.7h2.2c1.1,0,1.7,0.6,1.7,1.7
		v0.2c1.4-1.4,3.3-2.2,5-2.2c2.4,0,4.5,1.5,4.5,5.2V264.3z"/>
	<path class="st0" d="M293.9,264.3c0,1-0.6,1.7-1.7,1.7H290c-1.1,0-1.7-0.6-1.7-1.7v-0.2c-1.4,1.4-3.4,2.2-5.1,2.2
		c-2.4,0-4.5-1.5-4.5-5.2v-18.1c0-3.7,2-5.2,4.5-5.2c1.7,0,3.7,0.8,5.1,2.2v-11.8c0-1.1,0.6-1.7,1.7-1.7h2.2c1.1,0,1.7,0.6,1.7,1.7
		V264.3z M284.4,259.3c0,1.6,0.5,2.2,1.9,2.2s2-0.6,2-2.2v-14.6c0-1.6-0.7-2.3-2-2.3s-1.9,0.6-1.9,2.2V259.3z"/>
	<path class="st0" d="M95.8,317.4c-1.1,0-1.7-0.6-1.7-1.7v-32.4c0-1.1,0.6-1.7,1.7-1.7h7c6.4,0,9.3,2.6,9.3,7.9v20
		c0,5.3-2.9,7.9-9.3,7.9H95.8z M102.8,312.5c2.2,0,3-1.2,3-3.1v-20c0-1.8-0.8-3-3-3h-2.5v26.1H102.8z"/>
	<path class="st0" d="M131.2,303.5c0,1.2-0.7,2-2,2h-7.5v5.6c0,1.5,0.6,2.2,1.9,2.2c1.3,0,2-0.6,2-2.2v-1c0-1.1,0.6-1.7,1.7-1.7h2.2
		c1.1,0,1.7,0.6,1.7,1.7v1.2c0,4.4-2.4,6.4-7.6,6.4c-5.1,0-7.6-2.1-7.6-6.4v-15.7c0-4.3,2.4-6.4,7.6-6.4c5.1,0,7.6,2.1,7.6,6.4
		V303.5z M121.7,301.3h3.9v-5.6c0-1.6-0.6-2.2-2-2.2c-1.3,0-1.9,0.6-1.9,2.2V301.3z"/>
	<path class="st0" d="M138.9,290.9l1.5,12.9l0.7,9.2h0.4l0.7-9.2l1.5-12.9c0.1-0.9,0.6-1.5,1.7-1.5h2.1c0.9,0,1.9,0.5,1.7,2.1
		l-3.7,24.4c-0.1,1-0.6,1.6-1.8,1.6h-4.9c-1.1,0-1.6-0.6-1.7-1.6l-3.7-24.4c-0.2-1.5,0.7-2.1,1.6-2.1h2.1
		C138.2,289.4,138.8,289.9,138.9,290.9z"/>
	<path class="st0" d="M154.4,279.5c1.9,0,3.3,1.4,3.3,3.3c0,2-1.4,3.3-3.3,3.3c-2,0-3.3-1.3-3.3-3.3
		C151.1,280.9,152.4,279.5,154.4,279.5z M157.2,315.7c0,1.1-0.6,1.7-1.7,1.7h-2.2c-1.1,0-1.7-0.6-1.7-1.7v-24.6
		c0-1.1,0.6-1.7,1.7-1.7h2.2c1.1,0,1.7,0.6,1.7,1.7V315.7z"/>
	<path class="st0" d="M176.3,299c0,1.1-0.6,1.7-1.7,1.7h-2.2c-1.1,0-1.7-0.6-1.7-1.7v-3.4c0-1.6-0.6-2.2-2-2.2
		c-1.3,0-1.9,0.6-1.9,2.2v15.4c0,1.5,0.6,2.2,1.9,2.2c1.3,0,2-0.6,2-2.2v-3.4c0-1.1,0.6-1.7,1.7-1.7h2.2c1.1,0,1.7,0.6,1.7,1.7v3.5
		c0,4.4-2.4,6.4-7.6,6.4c-5.1,0-7.6-2.1-7.6-6.4v-15.7c0-4.3,2.4-6.4,7.6-6.4c5.1,0,7.6,2.1,7.6,6.4V299z"/>
	<path class="st0" d="M195.4,303.5c0,1.2-0.7,2-2,2h-7.5v5.6c0,1.5,0.6,2.2,1.9,2.2c1.3,0,2-0.6,2-2.2v-1c0-1.1,0.6-1.7,1.7-1.7h2.2
		c1.1,0,1.7,0.6,1.7,1.7v1.2c0,4.4-2.4,6.4-7.6,6.4c-5.1,0-7.6-2.1-7.6-6.4v-15.7c0-4.3,2.4-6.4,7.6-6.4c5.1,0,7.6,2.1,7.6,6.4
		V303.5z M185.9,301.3h3.9v-5.6c0-1.6-0.6-2.2-2-2.2c-1.3,0-1.9,0.6-1.9,2.2V301.3z"/>
	<path class="st0" d="M222.5,315.9l-0.7-5.5h-6.3l-0.7,5.5c-0.1,1.1-0.9,1.5-1.7,1.5h-2.7c-1.2,0-1.8-0.9-1.6-2.1l4.9-32.1
		c0.1-1.2,0.8-1.6,1.8-1.6h6.4c1,0,1.6,0.4,1.7,1.6l4.9,32.1c0.2,1.2-0.4,2.1-1.6,2.1h-2.7C223.4,317.4,222.6,317,222.5,315.9z
		 M216,305.5h5l-1-7.6l-1.3-12h-0.4l-1.3,12L216,305.5z"/>
	<path class="st0" d="M246.1,320.8c0,4.4-2.4,6.5-7.7,6.5h-3.1c-1.1,0-1.7-0.6-1.7-1.7v-0.9c0-1.1,0.6-1.7,1.7-1.7h3.1
		c1.5,0,2.1-0.8,2.1-2.3v-5.1c-1.4,1.4-3.4,2.2-5.1,2.2c-2.4,0-4.5-1.5-4.5-5.2v-18.1c0-3.7,2-5.2,4.5-5.2c1.7,0,3.7,0.8,5.1,2.2
		v-0.2c0-1.1,0.6-1.7,1.7-1.7h2.2c1.1,0,1.7,0.6,1.7,1.7V320.8z M236.6,310.7c0,1.6,0.5,2.2,1.9,2.2s2-0.6,2-2.2v-14.6
		c0-1.6-0.7-2.3-2-2.3s-1.9,0.6-1.9,2.2V310.7z"/>
	<path class="st0" d="M265.2,315.7c0,1-0.6,1.7-1.7,1.7h-2.2c-1.1,0-1.7-0.6-1.7-1.7V296c0-1.5-0.6-2.2-1.9-2.2c-1.3,0-2,0.7-2,2.3
		v19.6c0,1-0.6,1.7-1.7,1.7h-2.2c-1.1,0-1.7-0.6-1.7-1.7v-24.7c0-1.1,0.6-1.7,1.7-1.7h2.2c1.1,0,1.7,0.6,1.7,1.7v0.2
		c1.4-1.4,3.3-2.2,5-2.2c2.4,0,4.5,1.5,4.5,5.2V315.7z"/>
	<path class="st0" d="M284.3,295.5v15.7c0,4.3-2.4,6.4-7.6,6.4c-5.1,0-7.6-2.1-7.6-6.4v-15.7c0-4.3,2.4-6.4,7.6-6.4
		C281.9,289.1,284.3,291.2,284.3,295.5z M274.8,295.7v15.4c0,1.5,0.6,2.2,1.9,2.2c1.3,0,2-0.6,2-2.2v-15.4c0-1.6-0.6-2.2-2-2.2
		C275.5,293.5,274.8,294.1,274.8,295.7z"/>
	<path class="st0" d="M295.5,317.6c-5.2,0-7.6-2-7.6-6.4V309c0-1.1,0.6-1.7,1.7-1.7h2.2c1.1,0,1.7,0.6,1.7,1.7v2.1
		c0,1.5,0.6,2.2,2,2.2c1.3,0,1.9-0.6,1.9-2.2c0-2-0.3-2.5-2-4.1l-4.1-3.8c-2.5-2.3-3.4-3.8-3.4-7.8c0-4.3,2.4-6.4,7.6-6.4
		c5.1,0,7.6,2.1,7.6,6.4v2.3c0,1.1-0.6,1.7-1.7,1.7h-2.2c-1.1,0-1.7-0.6-1.7-1.7v-2.1c0-1.6-0.6-2.2-1.9-2.2c-1.3,0-2,0.6-2,2.2
		c0,2,0.3,2.4,2,4.1l4.1,3.8c2.5,2.3,3.4,3.8,3.4,7.8C303.1,315.6,300.7,317.6,295.5,317.6z"/>
	<path class="st0" d="M308.2,289.4v-6.1c0-1.1,0.6-1.7,1.7-1.7h2.2c1.1,0,1.7,0.6,1.7,1.7v6.1h2.5c1.1,0,1.7,0.6,1.7,1.7v0.9
		c0,1.1-0.6,1.7-1.7,1.7h-2.5v16.9c0,1.6,0.5,2.4,2.1,2.4h1.3c1.1,0,1.7,0.6,1.7,1.7v0.9c0,1.1-0.6,1.7-1.7,1.7h-1.3
		c-5.3,0-7.8-2.1-7.8-6.6v-17.1h-1.5c-1.1,0-1.7-0.6-1.7-1.7v-0.9c0-1.1,0.6-1.7,1.7-1.7H308.2z"/>
	<path class="st0" d="M324,279.5c1.9,0,3.3,1.4,3.3,3.3c0,2-1.4,3.3-3.3,3.3c-2,0-3.3-1.3-3.3-3.3
		C320.7,280.9,322.1,279.5,324,279.5z M326.9,315.7c0,1.1-0.6,1.7-1.7,1.7H323c-1.1,0-1.7-0.6-1.7-1.7v-24.6c0-1.1,0.6-1.7,1.7-1.7
		h2.2c1.1,0,1.7,0.6,1.7,1.7V315.7z"/>
	<path class="st0" d="M346,299c0,1.1-0.6,1.7-1.7,1.7h-2.2c-1.1,0-1.7-0.6-1.7-1.7v-3.4c0-1.6-0.6-2.2-2-2.2c-1.3,0-1.9,0.6-1.9,2.2
		v15.4c0,1.5,0.6,2.2,1.9,2.2c1.3,0,2-0.6,2-2.2v-3.4c0-1.1,0.6-1.7,1.7-1.7h2.2c1.1,0,1.7,0.6,1.7,1.7v3.5c0,4.4-2.4,6.4-7.6,6.4
		c-5.1,0-7.6-2.1-7.6-6.4v-15.7c0-4.3,2.4-6.4,7.6-6.4c5.1,0,7.6,2.1,7.6,6.4V299z"/>
</g>
<g>
	<path class="st0" d="M432.3,1.1H269.6c-4.2,0-7.6,3.4-7.6,7.7v86c0,4.2,3.4,7.7,7.6,7.7h25.5l-9.4,4.4c-1.2,0.6-1.7,2-1.2,3.2
		c0.4,0.9,1.3,1.4,2.2,1.4c0.3,0,0.7-0.1,1-0.2l18.8-8.8h90l19.4,8.8c0.3,0.1,0.7,0.2,1,0.2c0.9,0,1.8-0.5,2.2-1.4
		c0.6-1.2,0-2.7-1.2-3.2l-9.7-4.4h23.9c4.2,0,7.6-3.4,7.6-7.7v-86C439.9,4.5,436.5,1.1,432.3,1.1z M435.4,98.2H266.3V5.5h169.1V98.2
		z"/>
	<path class="st0" d="M375.4,37.2c-0.2-2-2-3.7-4-4c-7-0.9-13.7-1.4-20.4-1.4c-6.8,0-13.5,0.5-20.5,1.4c-2,0.3-3.8,2-4,4
		c-1.1,9-1.1,18.1,0,27c0.2,2,2,3.7,4,4c7,0.9,13.7,1.4,20.4,1.4c6.8,0,13.5-0.5,20.5-1.4c2-0.3,3.8-2,4-4
		C376.5,55.2,376.5,46.1,375.4,37.2z M361.1,52.3L345,61.7c-0.3,0.2-0.6,0.3-0.9,0.3c-1,0-1.9-0.8-1.9-1.9v-19
		c0-1.1,0.9-1.9,1.9-1.9c0.3,0,0.6,0.1,0.9,0.3l16.1,9.5C362.3,49.8,362.3,51.5,361.1,52.3z"/>
</g>
<g id="XMLID_9_">
	<path id="XMLID_12_" class="st0" d="M269,168.2c-2,0-3.7,1.6-3.7,3.7v44c0,2,1.6,3.7,3.7,3.7s3.7-1.6,3.7-3.7v-44
		C272.7,169.9,271.1,168.2,269,168.2z"/>
	<path id="XMLID_11_" class="st0" d="M341.5,168.2c-2,0-3.7,1.6-3.7,3.7v44c0,2,1.6,3.7,3.7,3.7s3.7-1.6,3.7-3.7v-44
		C345.2,169.9,343.5,168.2,341.5,168.2z"/>
	<path id="XMLID_10_" class="st0" d="M363.8,182.2l-3.6-1.7v-0.4c0-3.9-2.5-7.3-6.1-8.5v-5.4c0-26.9-21.9-48.9-48.9-48.9
		c-26.9,0-48.9,21.9-48.9,48.9v5.4c-3.5,1.2-6.1,4.6-6.1,8.5v0.4l-3.6,1.7c-0.9,0.4-1.5,1.3-1.5,2.3v18.8c0,1,0.6,1.9,1.5,2.3
		l3.6,1.7v0.4c0,5,4,9,9,9h3.6v-0.8l-0.1-49.7c0-23.4,19-42.4,42.4-42.4c23.4,0,42.4,19,42.4,42.4l-0.1,49.7v0.8h3.6c5,0,9-4,9-9
		v-0.4l3.6-1.7c0.9-0.4,1.5-1.3,1.5-2.3v-18.8C365.3,183.5,364.7,182.6,363.8,182.2z"/>
</g>
<g>
	<g>
		<path class="st1" d="M221.8,0.2h-39.2c-6.5,0-11.8,5.3-11.8,11.8v87.5c0,0.4,0,0.9,0.1,1.4c0.5,1.9,1.2,4.1,1.5,4.5l0.1,0.1
			c2.2,3.6,5.9,5.7,10.1,5.7h39.2c6.5,0,11.8-5.3,11.8-11.8V12C233.6,5.5,228.3,0.2,221.8,0.2z M229.8,99.5c0,4.4-3.6,7.9-8,7.9
			h-39.2c-4.4,0-8-3.6-8-7.9V92h55.1V99.5z M229.8,12.2v78.3h-55.1V12.2V12c0-4.4,3.6-7.9,8-7.9h39.2c4.4,0,8,3.6,8,7.9V12.2z"/>
		<path class="st0" d="M202.2,94.2c-2.9,0-5.3,2.4-5.3,5.3c0,2.9,2.4,5.3,5.3,5.3c2.9,0,5.3-2.4,5.3-5.3
			C207.5,96.6,205.1,94.2,202.2,94.2z M202.2,102.4c-1.6,0-2.8-1.3-2.8-2.8c0-1.6,1.3-2.8,2.8-2.8c1.6,0,2.8,1.3,2.8,2.8
			C205,101.1,203.7,102.4,202.2,102.4z"/>
		<rect x="195.9" y="7.2" class="st0" width="12.6" height="2.5"/>
	</g>
	<g>
		<rect x="212.1" y="72.7" class="st2" width="11.2" height="9.2"/>
		<rect x="180.8" y="72.7" class="st3" width="28.3" height="9.2"/>
		<path class="st0" d="M180.9,18.2v50.9h42.4V18.2H180.9z M220.2,59.9h-36V22.4h36V59.9z"/>
	</g>
</g>
<g>
	<g>
		<rect x="121.2" y="167.2" class="st4" width="14.3" height="9.2"/>
		<rect x="81.2" y="167.2" class="st5" width="36.1" height="9.2"/>
		<path class="st0" d="M81.3,112.6v51h54.2v-51H81.3z M131.5,154.4H85.4v-37.6h46.1V154.4z"/>
	</g>
	<path class="st0" d="M152.5,192.1v-12.2v-15.7v-54.6c0-4.8-3.9-8.7-8.7-8.7h-7.6h-3.5H21.4c-4.8,0-8.7,3.9-8.7,8.7v82.6H0.5v8.7
		c0,4.8,3.9,8.7,8.7,8.7H156c4.8,0,8.7-3.9,8.7-8.7v-8.7H152.5z M16.1,110.7h0.1v-1.2c0-2.9,2.4-5.2,5.2-5.2h122.3
		c2.9,0,5.2,2.3,5.2,5.2v3.9h0v1.7h0v76.9H16.2v-75.3h-0.1V110.7z M161.2,200.8c0,2.9-2.4,5.2-5.2,5.2H9.2c-2.9,0-5.2-2.4-5.2-5.2
		v-5.2h68.1h21h68.1V200.8z"/>
</g>
<g>
	<defs>
		<path id="SVGID_1_" d="M171.9,102.9H36.8V17.7h135.1V102.9z M230.6,37.1h33.2V9.4h-33.2V37.1z M270.4,99.1v101.3H390V99.1H270.4z
			 M149.7,212h99.1v-49.8h-99.1V212z"/>
	</defs>
	<clipPath id="SVGID_2_">
		<use xlink:href="#SVGID_1_"  style="overflow:visible;"/>
	</clipPath>
	<g class="st6">
		<ellipse class="st7" cx="221.6" cy="101.6" rx="153.1" ry="81.7"/>
	</g>
</g>
</svg>
