<?xml version="1.0" encoding="utf-8"?>
<!-- Generator: Adobe Illustrator 24.2.3, SVG Export Plug-In . SVG Version: 6.00 Build 0)  -->
<svg version="1.1" id="Layer_1" xmlns="http://www.w3.org/2000/svg" xmlns:xlink="http://www.w3.org/1999/xlink" x="0px" y="0px"
	 viewBox="0 0 663 679.8" style="enable-background:new 0 0 663 679.8;" xml:space="preserve">
<style type="text/css">
	.st0{fill:none;stroke:#262E35;stroke-width:4.3856;stroke-miterlimit:10;}
	.st1{fill-rule:evenodd;clip-rule:evenodd;fill:#262E35;}
</style>
<g>
	<path class="st0" d="M659.3,298.7c-5.4-41.9-37.5-48.5-37.4-66.2V75.3c0-3.2,0-6.4,0-9.3C631,59.7,637,49.2,637,37.2
		c0-19.3-15.6-34.9-34.9-34.9c-19.3,0-34.9,15.6-34.9,34.9c0,12.8,6.9,24,17.1,30.1l-2.1,152.8c-10.7-11.7-17.6-26-26.6-38.6
		C505.7,111.1,419.9,68.7,331.5,68.7c-88.4,0.1-174.2,42.5-224.1,112.7C98.5,194,91.5,208.3,80.8,220L78.6,67.2
		c10.3-6.1,17.2-17.3,17.2-30.1c0-19.3-15.6-34.9-34.9-34.9S26,17.8,26,37.1c0,11.9,6,22.5,15.1,28.8c0,3,0,6.1,0,9.3v157.2
		c0,17.7-32,24.3-37.4,66.2C1.4,316.8,1.6,384,5.1,399.8c6.7,30.5,25.5,45.2,53.1,53.4c6.4,1.9,13.1,8.8,20.9,18.8
		c-6.5,11.7-11.9,21.6-17.4,31.6c-10.5,19.1-7.6,41.9,7.4,57.8c90.8,96.4,176.5,113.4,257.4,116c84.5,2.7,165.2-15.6,265.1-119.9
		c15.2-15.9,18.2-38.9,7.6-58.2l-15.1-27.4c7.8-10,14.5-16.9,20.9-18.8c27.6-8.2,46.4-22.9,53.1-53.4
		C661.4,384.1,661.6,316.9,659.3,298.7z M302.8,110.7c9.7-1.3,19.2-2,28.6-2.2c9.4,0.1,18.9,0.8,28.6,2.2
		c123,16.9,227,124.5,208,268.5c-14.7,111.4-111.9,206.2-236.6,205.9c-124.7,0.3-221.9-94.6-236.6-205.9
		C75.8,235.2,179.8,127.6,302.8,110.7z"/>
	<path class="st1" d="M491.5,260.9L491.5,260.9c-8.2-21.1-20.9-39.4-37.1-54.4c-30.5-28.3-73.3-44.4-120.7-44.4
		c-47.8,0-91.6,16-122.9,44.2c-16.6,15-29.7,33.4-38,54.6c-34.8,0.8-63,31.9-63,70c0,38.6,28.9,70,64.3,70c3.1,0,6.2-0.3,9.2-0.7
		c5.2,10.1,11.2,19.8,18,28.9c-0.2,2-0.3,3.9-0.3,5.9c0,48.1,59.6,87.3,132.7,87.3s132.7-39.2,132.7-87.3c0-2.5-0.2-4.9-0.5-7.4
		c6.2-8.7,11.6-17.9,16.4-27.5c3,0.5,6.1,0.7,9.3,0.7c35.4,0,64.3-31.5,64.3-70C555.8,292.4,526.9,260.9,491.5,260.9z M174.1,383.3
		c-26.5,0-48-23.5-48-52.3c0-26.2,17.8-48,40.9-51.8c-1.1,4.3-1.9,8.8-2.6,13.3c0,0.2-0.1,0.5-0.1,0.7c-0.2,1.2-0.3,2.4-0.5,3.6
		c0,0.4-0.1,0.8-0.1,1.2c-0.1,1.1-0.2,2.1-0.3,3.2c0,0.5-0.1,1-0.1,1.4c-0.1,1-0.2,2-0.2,3.1c0,0.5-0.1,1-0.1,1.5
		c-0.1,1.1-0.1,2.1-0.1,3.2c0,0.5,0,0.9-0.1,1.4c0,1.5-0.1,3.1-0.1,4.6c0,1.4,0,2.7,0.1,4.1c0,0.4,0,0.9,0,1.3
		c0,0.9,0.1,1.8,0.1,2.7c0,0.5,0.1,1,0.1,1.6c0,0.8,0.1,1.7,0.2,2.5c0,0.5,0.1,1.1,0.1,1.6c0.1,0.8,0.1,1.6,0.2,2.5
		c0.1,0.5,0.1,1.1,0.2,1.6c0.1,0.8,0.2,1.7,0.3,2.5c0.1,0.5,0.1,1,0.2,1.5c0.1,0.9,0.2,1.8,0.4,2.6c0.1,0.5,0.1,0.9,0.2,1.4
		c0.2,1,0.3,2.1,0.5,3.1c0,0.3,0.1,0.6,0.1,0.9c0.2,1.4,0.5,2.7,0.8,4.1c0,0,0,0,0,0.1c0.3,1.3,0.5,2.6,0.8,3.9
		c0.1,0.3,0.2,0.7,0.2,1c0.2,1,0.5,2,0.7,2.9c0.1,0.4,0.2,0.8,0.3,1.3c0.2,0.9,0.5,1.8,0.7,2.7c0.1,0.4,0.2,0.9,0.4,1.3
		c0.2,0.9,0.5,1.8,0.8,2.7c0.1,0.4,0.2,0.9,0.4,1.3c0.3,0.9,0.6,1.8,0.8,2.7c0.1,0.4,0.2,0.8,0.4,1.2c0.3,1,0.7,2,1,3
		c0.1,0.3,0.2,0.6,0.3,0.9c0.9,2.6,1.9,5.2,2.9,7.8l0,0C175.1,383.2,174.6,383.3,174.1,383.3z M461.6,426.7
		c-4.9,46.2-60.3,82.6-127.9,82.6s-123-36.4-127.9-82.6c1.9-17.4,10.9-33.5,25.1-46.7c-9.3-13.9-25.2-43-23.8-80
		c1.9-52.2,43.5-85.7,81.4-65.2s63.2,10.9,79.3-0.9c16.2-11.8,81.3-17.4,94,60c5.9,36.1-8.5,65.1-25.6,85.8
		C450.5,392.9,459.7,409.1,461.6,426.7z M491.5,383.3c-0.6,0-1.3,0-1.9-0.1l0,0c1.5-3.8,2.8-7.7,4-11.7c0.1-0.2,0.1-0.3,0.2-0.5
		c0.3-1.1,0.7-2.2,1-3.3c0.1-0.3,0.2-0.6,0.2-0.8c0.3-1,0.6-2,0.8-3c0.1-0.3,0.2-0.6,0.2-0.9c0.3-1,0.5-2,0.7-3
		c0.1-0.3,0.2-0.6,0.2-0.9c0.2-1,0.5-2.1,0.7-3.1c0.1-0.3,0.1-0.5,0.2-0.8c0.3-1.2,0.5-2.5,0.8-3.8c0-0.1,0-0.1,0-0.2
		c0.3-1.4,0.5-2.7,0.7-4.1l0,0c0.2-1.3,0.4-2.6,0.6-3.9c0.1-0.4,0.1-0.7,0.1-1.1c0.1-0.9,0.3-1.9,0.4-2.8c0.1-0.5,0.1-0.9,0.2-1.4
		c0.1-0.9,0.2-1.7,0.3-2.6c0-0.5,0.1-1,0.1-1.5c0.1-0.8,0.1-1.6,0.2-2.5c0-0.5,0.1-1,0.1-1.5c0.1-0.8,0.1-1.7,0.1-2.5
		c0-0.5,0.1-1,0.1-1.5c0-0.9,0.1-1.8,0.1-2.7c0-0.4,0-0.8,0-1.3c0-1.3,0-2.6,0-4c0-1.6,0-3.2-0.1-4.7c0-0.5,0-0.9-0.1-1.4
		c0-1.1-0.1-2.3-0.2-3.4c0-0.5-0.1-1-0.1-1.4c-0.1-1.1-0.2-2.3-0.3-3.4c0-0.4-0.1-0.8-0.1-1.2c-0.1-1.3-0.3-2.7-0.4-4
		c0-0.2,0-0.4-0.1-0.5c-0.8-6.4-1.9-12.7-3.4-18.8c23.8,3.1,42.4,25.2,42.4,52C539.5,359.8,518,383.3,491.5,383.3z"/>
</g>
</svg>
