<?xml version="1.0" encoding="utf-8"?>
<!-- Generator: Adobe Illustrator 24.2.3, SVG Export Plug-In . SVG Version: 6.00 Build 0)  -->
<svg version="1.1" id="Layer_1" xmlns="http://www.w3.org/2000/svg" xmlns:xlink="http://www.w3.org/1999/xlink" x="0px" y="0px"
	 viewBox="0 0 1162.8 1162.8" style="enable-background:new 0 0 1162.8 1162.8;" xml:space="preserve">
<style type="text/css">
	.st0{fill:#FFFFFF;}
</style>
<path class="st0" d="M992.5,170.3C939.1,116.9,876.9,75,807.7,45.7C736,15.4,659.9,0,581.4,0c-78.5,0-154.6,15.4-226.3,45.7
	C285.9,75,223.7,116.9,170.3,170.3C116.9,223.7,75,285.9,45.7,355.1C15.4,426.8,0,502.9,0,581.4S15.4,736,45.7,807.7
	c29.3,69.2,71.2,131.4,124.6,184.8s115.6,95.3,184.8,124.6c71.7,30.3,147.8,45.7,226.3,45.7s154.6-15.4,226.3-45.7
	c69.2-29.3,131.4-71.2,184.8-124.6s95.3-115.6,124.6-184.8c30.3-71.7,45.7-147.8,45.7-226.3s-15.4-154.6-45.7-226.3
	C1087.8,285.8,1045.9,223.7,992.5,170.3z M1049.9,779.3c-25.6,60.5-62.3,114.9-109,161.6s-101.1,83.4-161.6,109
	c-62.7,26.5-129.2,39.9-197.9,39.9c-68.6,0-135.2-13.4-197.9-39.9c-60.5-25.6-114.9-62.3-161.6-109c-46.7-46.7-83.4-101.1-109-161.6
	C86.4,716.6,73,650.1,73,581.4c0-68.6,13.4-135.2,39.9-197.9c25.6-60.5,62.3-114.9,109-161.6c46.7-46.7,101.1-83.4,161.6-109
	C446.2,86.4,512.7,73,581.4,73s135.2,13.4,197.9,39.9c60.5,25.6,114.9,62.3,161.6,109s83.4,101.1,109,161.6
	c26.5,62.7,39.9,129.2,39.9,197.9C1089.8,650.1,1076.4,716.6,1049.9,779.3z"/>
<path class="st0" d="M884,544.9L581.4,370.2l-129.2-74.6c-34.8-20.1-63.2-3.6-63.2,36.5v498.6c0,40.2,28.5,56.6,63.2,36.5
	l129.2-74.6L884,617.9C918.7,597.8,918.7,565,884,544.9z"/>
</svg>
