<?xml version="1.0" encoding="utf-8"?>
<!-- Generator: Adobe Illustrator 24.2.3, SVG Export Plug-In . SVG Version: 6.00 Build 0)  -->
<svg version="1.1" id="white" xmlns="http://www.w3.org/2000/svg" xmlns:xlink="http://www.w3.org/1999/xlink" x="0px" y="0px"
	 viewBox="0 0 443 306.6" style="enable-background:new 0 0 443 306.6;" xml:space="preserve">
<style type="text/css">
	.st0{fill:#FFFFFF;}
	.st1{fill:#FFFFFF;stroke:#FFFFFF;stroke-miterlimit:10;}
	.st2{fill:none;stroke:#FFFFFF;stroke-width:2;stroke-miterlimit:10;}
	.st3{fill:none;stroke:#FFFFFF;stroke-width:3;stroke-miterlimit:10;}
	.st4{fill:none;stroke:#FFFFFF;stroke-width:2.1854;stroke-miterlimit:10;}
	.st5{fill:none;stroke:#FFFFFF;stroke-miterlimit:10;}
	.st6{fill:none;stroke:#FFFFFF;stroke-width:2.2584;stroke-miterlimit:10;}
</style>
<g>
	<path class="st0" d="M146.7,216.9v21c0,2-0.4,3.6-1.3,4.8l3,5.1c0.5,1,0.3,1.8-0.6,2.4l-2.5,1.4c-0.9,0.5-1.8,0.3-2.3-0.6l-3.2-5.5
		c-0.6,0.1-1.4,0.1-2.2,0.1c-6.2,0-9.1-2.5-9.1-7.7v-21c0-5.1,2.8-7.7,9.1-7.7C143.8,209.2,146.7,211.7,146.7,216.9z M134.8,216.9
		v21c0,1.7,0.7,2.8,2.8,2.8s2.8-1.1,2.8-2.8v-21c0-1.7-0.8-2.8-2.8-2.8S134.8,215.2,134.8,216.9z"/>
	<path class="st0" d="M150.6,218.9c0-1.1,0.6-1.7,1.7-1.7h2.2c1.1,0,1.7,0.6,1.7,1.7v19.7c0,1.6,0.5,2.2,1.9,2.2s2-0.6,2-2.2v-19.6
		c0-1.1,0.6-1.7,1.7-1.7h2.2c1.1,0,1.7,0.6,1.7,1.7v24.7c0,1-0.6,1.7-1.7,1.7h-2.2c-1.1,0-1.7-0.6-1.7-1.7v-0.2
		c-1.4,1.4-3.4,2.2-5.1,2.2c-2.4,0-4.5-1.5-4.5-5.2V218.9z"/>
	<path class="st0" d="M179.3,228.9v-5.3c0-1.6-0.6-2.2-2-2.2c-1.3,0-1.9,0.6-1.9,2.2v1.1c0,1.1-0.6,1.7-1.7,1.7h-2.2
		c-1.1,0-1.7-0.6-1.7-1.7v-1.3c0-4.3,2.4-6.4,7.6-6.4c5.1,0,7.6,2.1,7.6,6.4v20.2c0,1-0.6,1.7-1.7,1.7H181c-1.1,0-1.7-0.6-1.7-1.7
		v-0.2c-1.4,1.4-3.4,2.2-5.1,2.2c-2.4,0-4.5-1.5-4.5-5.2v-5c0-4.3,2.4-6.4,7.6-6.4H179.3z M177.3,233.1c-1.3,0-1.9,0.6-1.9,2.2v3.3
		c0,1.6,0.5,2.2,1.9,2.2s2-0.6,2-2.2v-5.4H177.3z"/>
	<path class="st0" d="M204,243.6c0,1-0.6,1.7-1.7,1.7h-2.2c-1.1,0-1.7-0.6-1.7-1.7v-19.7c0-1.5-0.6-2.2-1.9-2.2c-1.3,0-2,0.7-2,2.3
		v19.6c0,1-0.6,1.7-1.7,1.7h-2.2c-1.1,0-1.7-0.6-1.7-1.7v-24.7c0-1.1,0.6-1.7,1.7-1.7h2.2c1.1,0,1.7,0.6,1.7,1.7v0.2
		c1.4-1.4,3.3-2.2,5-2.2c2.4,0,4.5,1.5,4.5,5.2V243.6z"/>
	<path class="st0" d="M209.4,217.3v-6.1c0-1.1,0.6-1.7,1.7-1.7h2.2c1.1,0,1.7,0.6,1.7,1.7v6.1h2.5c1.1,0,1.7,0.6,1.7,1.7v0.9
		c0,1.1-0.6,1.7-1.7,1.7h-2.5v16.9c0,1.6,0.5,2.4,2.1,2.4h1.3c1.1,0,1.7,0.6,1.7,1.7v0.9c0,1.1-0.6,1.7-1.7,1.7h-1.3
		c-5.3,0-7.8-2.1-7.8-6.6v-17.1h-1.5c-1.1,0-1.7-0.6-1.7-1.7v-0.9c0-1.1,0.6-1.7,1.7-1.7H209.4z"/>
	<path class="st0" d="M229.7,245.5c-5.2,0-7.6-2-7.6-6.4v-2.3c0-1.1,0.6-1.7,1.7-1.7h2.2c1.1,0,1.7,0.6,1.7,1.7v2.1
		c0,1.5,0.6,2.2,2,2.2c1.3,0,1.9-0.6,1.9-2.2c0-2-0.3-2.5-2-4.1l-4.1-3.8c-2.5-2.3-3.4-3.8-3.4-7.8c0-4.3,2.4-6.4,7.6-6.4
		c5.1,0,7.6,2.1,7.6,6.4v2.3c0,1.1-0.6,1.7-1.7,1.7h-2.2c-1.1,0-1.7-0.6-1.7-1.7v-2.1c0-1.6-0.6-2.2-1.9-2.2c-1.3,0-2,0.6-2,2.2
		c0,2,0.3,2.4,2,4.1l4.1,3.8c2.5,2.3,3.4,3.8,3.4,7.8C237.3,243.4,234.9,245.5,229.7,245.5z"/>
	<path class="st0" d="M265.9,218.7l1.2,13.7l0.5,8.4h0.4l0.5-8.4l1.2-13.7c0.1-0.9,0.7-1.5,1.8-1.5h2.1c0.9,0,1.9,0.5,1.6,2.1
		l-3.2,24.4c-0.1,1-0.6,1.6-1.7,1.6h-4.1c-1.1,0-1.6-0.6-1.8-1.6l-1.2-11.3l-0.4-8.4h-0.4l-0.4,8.4l-1.2,11.3
		c-0.1,1-0.6,1.6-1.8,1.6h-4.1c-1.1,0-1.6-0.6-1.7-1.6l-3.2-24.4c-0.2-1.5,0.7-2.1,1.6-2.1h2.1c1.1,0,1.7,0.5,1.8,1.5l1.2,13.7
		l0.5,8.4h0.4l0.5-8.4l1.2-13.7c0.1-0.9,0.6-1.5,1.7-1.5h3.1C265.3,217.3,265.8,217.8,265.9,218.7z"/>
	<path class="st0" d="M280.4,207.4c1.9,0,3.3,1.4,3.3,3.3c0,2-1.4,3.3-3.3,3.3c-2,0-3.3-1.3-3.3-3.3
		C277,208.8,278.4,207.4,280.4,207.4z M283.2,243.5c0,1.1-0.6,1.7-1.7,1.7h-2.2c-1.1,0-1.7-0.6-1.7-1.7v-24.6c0-1.1,0.6-1.7,1.7-1.7
		h2.2c1.1,0,1.7,0.6,1.7,1.7V243.5z"/>
	<path class="st0" d="M288.6,217.3v-6.1c0-1.1,0.6-1.7,1.7-1.7h2.2c1.1,0,1.7,0.6,1.7,1.7v6.1h2.5c1.1,0,1.7,0.6,1.7,1.7v0.9
		c0,1.1-0.6,1.7-1.7,1.7h-2.5v16.9c0,1.6,0.5,2.4,2.1,2.4h1.3c1.1,0,1.7,0.6,1.7,1.7v0.9c0,1.1-0.6,1.7-1.7,1.7h-1.3
		c-5.3,0-7.8-2.1-7.8-6.6v-17.1h-1.5c-1.1,0-1.7-0.6-1.7-1.7v-0.9c0-1.1,0.6-1.7,1.7-1.7H288.6z"/>
	<path class="st0" d="M316.8,243.6c0,1-0.6,1.7-1.7,1.7h-2.2c-1.1,0-1.7-0.6-1.7-1.7v-19.7c0-1.5-0.6-2.2-1.9-2.2
		c-1.3,0-2,0.7-2,2.3v19.6c0,1-0.6,1.7-1.7,1.7h-2.2c-1.1,0-1.7-0.6-1.7-1.7v-36.2c0-1.1,0.6-1.7,1.7-1.7h2.2c1.1,0,1.7,0.6,1.7,1.7
		v11.8c1.4-1.4,3.3-2.2,5-2.2c2.4,0,4.5,1.5,4.5,5.2V243.6z"/>
	<path class="st0" d="M93.2,276.3h5.6v-13.8c0-1.1,0.6-1.7,1.7-1.7h2.8c1.1,0,1.7,0.6,1.7,1.7v32.4c0,1.1-0.6,1.7-1.7,1.7h-2.8
		c-1.1,0-1.7-0.6-1.7-1.7v-13.8h-5.6v13.8c0,1.1-0.6,1.7-1.7,1.7h-2.8c-1.1,0-1.7-0.6-1.7-1.7v-32.4c0-1.1,0.6-1.7,1.7-1.7h2.8
		c1.1,0,1.7,0.6,1.7,1.7V276.3z"/>
	<path class="st0" d="M109.1,270.3c0-1.1,0.6-1.7,1.7-1.7h2.2c1.1,0,1.7,0.6,1.7,1.7V290c0,1.6,0.5,2.2,1.9,2.2s2-0.6,2-2.2v-19.6
		c0-1.1,0.6-1.7,1.7-1.7h2.2c1.1,0,1.7,0.6,1.7,1.7V295c0,1-0.6,1.7-1.7,1.7h-2.2c-1.1,0-1.7-0.6-1.7-1.7v-0.2
		c-1.4,1.4-3.4,2.2-5.1,2.2c-2.4,0-4.5-1.5-4.5-5.2V270.3z"/>
	<path class="st0" d="M142.7,270.6c1.6-1.4,3.6-2.2,5.7-2.2c2.4,0,4.5,1.5,4.5,5.2V295c0,1-0.6,1.7-1.7,1.7H149
		c-1.1,0-1.7-0.6-1.7-1.7v-19.7c0-1.5-0.6-2.2-1.9-2.2c-1.3,0-2,0.7-2,2.3V295c0,1-0.6,1.7-1.7,1.7h-2.2c-1.1,0-1.7-0.6-1.7-1.7
		v-19.7c0-1.5-0.6-2.2-1.9-2.2c-1.3,0-2,0.7-2,2.3V295c0,1-0.6,1.7-1.7,1.7h-2.2c-1.1,0-1.7-0.6-1.7-1.7v-24.7
		c0-1.1,0.6-1.7,1.7-1.7h2.2c1.1,0,1.7,0.6,1.7,1.7v0.2c1.4-1.4,3.3-2.2,5-2.2C140.5,268.4,141.9,269.1,142.7,270.6z"/>
	<path class="st0" d="M166.4,280.3v-5.3c0-1.6-0.6-2.2-2-2.2c-1.3,0-1.9,0.6-1.9,2.2v1.1c0,1.1-0.6,1.7-1.7,1.7h-2.2
		c-1.1,0-1.7-0.6-1.7-1.7v-1.3c0-4.3,2.4-6.4,7.6-6.4c5.1,0,7.6,2.1,7.6,6.4V295c0,1-0.6,1.7-1.7,1.7h-2.2c-1.1,0-1.7-0.6-1.7-1.7
		v-0.2c-1.4,1.4-3.4,2.2-5.1,2.2c-2.4,0-4.5-1.5-4.5-5.2v-5c0-4.3,2.4-6.4,7.6-6.4H166.4z M164.4,284.5c-1.3,0-1.9,0.6-1.9,2.2v3.3
		c0,1.6,0.5,2.2,1.9,2.2s2-0.6,2-2.2v-5.4H164.4z"/>
	<path class="st0" d="M191.1,295c0,1-0.6,1.7-1.7,1.7h-2.2c-1.1,0-1.7-0.6-1.7-1.7v-19.7c0-1.5-0.6-2.2-1.9-2.2c-1.3,0-2,0.7-2,2.3
		V295c0,1-0.6,1.7-1.7,1.7h-2.2c-1.1,0-1.7-0.6-1.7-1.7v-24.7c0-1.1,0.6-1.7,1.7-1.7h2.2c1.1,0,1.7,0.6,1.7,1.7v0.2
		c1.4-1.4,3.3-2.2,5-2.2c2.4,0,4.5,1.5,4.5,5.2V295z"/>
	<path class="st0" d="M224,268.3v21c0,5.1-2.9,7.7-9.1,7.7c-6.2,0-9.1-2.5-9.1-7.7v-21c0-5.1,2.8-7.7,9.1-7.7
		C221.1,260.6,224,263.1,224,268.3z M212.1,268.3v21c0,1.7,0.7,2.8,2.8,2.8c2,0,2.8-1.1,2.8-2.8v-21c0-1.7-0.8-2.8-2.8-2.8
		C212.9,265.4,212.1,266.6,212.1,268.3z"/>
	<path class="st0" d="M231.8,270.1l1.5,12.9l0.7,9.2h0.4l0.7-9.2l1.5-12.9c0.1-0.9,0.6-1.5,1.7-1.5h2.1c0.9,0,1.9,0.5,1.7,2.1
		l-3.7,24.4c-0.1,1-0.6,1.6-1.8,1.6h-4.9c-1.1,0-1.6-0.6-1.7-1.6l-3.7-24.4c-0.2-1.5,0.7-2.1,1.6-2.1h2.1
		C231.1,268.7,231.7,269.2,231.8,270.1z"/>
	<path class="st0" d="M259.5,282.8c0,1.2-0.7,2-2,2H250v5.6c0,1.5,0.6,2.2,1.9,2.2c1.3,0,2-0.6,2-2.2v-1c0-1.1,0.6-1.7,1.7-1.7h2.2
		c1.1,0,1.7,0.6,1.7,1.7v1.2c0,4.4-2.4,6.4-7.6,6.4c-5.1,0-7.6-2.1-7.6-6.4v-15.7c0-4.3,2.4-6.4,7.6-6.4c5.1,0,7.6,2.1,7.6,6.4
		V282.8z M250,280.5h3.9v-5.6c0-1.6-0.6-2.2-2-2.2c-1.3,0-1.9,0.6-1.9,2.2V280.5z"/>
	<path class="st0" d="M278.7,279.9c0,1-0.6,1.7-1.7,1.7h-2.2c-1.1,0-1.7-0.6-1.7-1.7v-4.6c0-1.5-0.6-2.2-1.9-2.2c-1.3,0-2,0.7-2,2.3
		V295c0,1-0.6,1.7-1.7,1.7h-2.2c-1.1,0-1.7-0.6-1.7-1.7v-24.7c0-1.1,0.6-1.7,1.7-1.7h2.2c1.1,0,1.7,0.6,1.7,1.7v0.2
		c1.4-1.4,3.3-2.2,5-2.2c2.4,0,4.5,1.5,4.5,5.2V279.9z"/>
	<path class="st0" d="M288.8,296.9c-5.2,0-7.6-2-7.6-6.4v-2.3c0-1.1,0.6-1.7,1.7-1.7h2.2c1.1,0,1.7,0.6,1.7,1.7v2.1
		c0,1.5,0.6,2.2,2,2.2c1.3,0,1.9-0.6,1.9-2.2c0-2-0.3-2.5-2-4.1l-4.1-3.8c-2.5-2.3-3.4-3.8-3.4-7.8c0-4.3,2.4-6.4,7.6-6.4
		c5.1,0,7.6,2.1,7.6,6.4v2.3c0,1.1-0.6,1.7-1.7,1.7h-2.2c-1.1,0-1.7-0.6-1.7-1.7v-2.1c0-1.6-0.6-2.2-1.9-2.2c-1.3,0-2,0.6-2,2.2
		c0,2,0.3,2.4,2,4.1l4.1,3.8c2.5,2.3,3.4,3.8,3.4,7.8C296.4,294.8,294,296.9,288.8,296.9z"/>
	<path class="st0" d="M302.8,258.8c1.9,0,3.3,1.4,3.3,3.3c0,2-1.4,3.3-3.3,3.3c-2,0-3.3-1.3-3.3-3.3
		C299.5,260.2,300.8,258.8,302.8,258.8z M305.6,294.9c0,1.1-0.6,1.7-1.7,1.7h-2.2c-1.1,0-1.7-0.6-1.7-1.7v-24.6
		c0-1.1,0.6-1.7,1.7-1.7h2.2c1.1,0,1.7,0.6,1.7,1.7V294.9z"/>
	<path class="st0" d="M324.7,300c0,4.4-2.4,6.5-7.7,6.5h-3.1c-1.1,0-1.7-0.6-1.7-1.7v-0.9c0-1.1,0.6-1.7,1.7-1.7h3.1
		c1.5,0,2.1-0.8,2.1-2.3v-5.1c-1.4,1.4-3.4,2.2-5.1,2.2c-2.4,0-4.5-1.5-4.5-5.2v-18.1c0-3.7,2-5.2,4.5-5.2c1.7,0,3.7,0.8,5.1,2.2
		v-0.2c0-1.1,0.6-1.7,1.7-1.7h2.2c1.1,0,1.7,0.6,1.7,1.7V300z M315.2,290c0,1.6,0.5,2.2,1.9,2.2s2-0.6,2-2.2v-14.6
		c0-1.6-0.7-2.3-2-2.3s-1.9,0.6-1.9,2.2V290z"/>
	<path class="st0" d="M343.8,295c0,1-0.6,1.7-1.7,1.7h-2.2c-1.1,0-1.7-0.6-1.7-1.7v-19.7c0-1.5-0.6-2.2-1.9-2.2c-1.3,0-2,0.7-2,2.3
		V295c0,1-0.6,1.7-1.7,1.7h-2.2c-1.1,0-1.7-0.6-1.7-1.7v-36.2c0-1.1,0.6-1.7,1.7-1.7h2.2c1.1,0,1.7,0.6,1.7,1.7v11.8
		c1.4-1.4,3.3-2.2,5-2.2c2.4,0,4.5,1.5,4.5,5.2V295z"/>
	<path class="st0" d="M349.3,268.7v-6.1c0-1.1,0.6-1.7,1.7-1.7h2.2c1.1,0,1.7,0.6,1.7,1.7v6.1h2.5c1.1,0,1.7,0.6,1.7,1.7v0.9
		c0,1.1-0.6,1.7-1.7,1.7h-2.5v16.9c0,1.6,0.5,2.4,2.1,2.4h1.3c1.1,0,1.7,0.6,1.7,1.7v0.9c0,1.1-0.6,1.7-1.7,1.7H357
		c-5.3,0-7.8-2.1-7.8-6.6V273h-1.5c-1.1,0-1.7-0.6-1.7-1.7v-0.9c0-1.1,0.6-1.7,1.7-1.7H349.3z"/>
</g>
<g>
	<g>
		<path class="st1" d="M225.1,166.7c1.1,1,2.3,1.5,3.5,1.2c5.6-1.3,12.6-2.9,18.8-1c1.1,0.3,2.2,0.8,3.3,1.3
			c2.2,0.9,4.6,1.9,7.1,1.9h0.1c3,0,6-1.5,8.6-4.2c1-1,1.7-2.3,2.4-3.5c1.1-2,2.2-3.8,4-4.6c1.5-0.6,3.3-0.6,5.1-0.6
			c2.4,0,4.9,0,7.2-1.3c6.6-3.7,10.4-11.7,9.1-19.2c7.5-1.8,14-6.9,17.5-13.8c0.5-1,1-2.1,1.4-3.2c0.3-0.8,0.5-1.6,0.7-2.5
			c0.7-2.9,0.9-6,0.7-9v0c-0.1-0.7-0.2-1.5-0.3-2.2c-0.3-1.9-0.9-3.8-1.6-5.6c1.5-1.8,2.8-3.8,3.9-5.9c0.4-0.8,0.8-1.7,1.1-2.6
			c1.6-4.1,2.4-8.5,2.2-12.9c0-0.6-0.1-1.1-0.1-1.7c0-0.3-0.1-0.6-0.1-0.9c-0.3-2.7-1-5.3-2.1-7.8c-0.5-1.2-1-2.3-1.6-3.4
			c-1.9-3.5-4.5-6.6-7.6-9.2c2-7.4,0.6-15.5-3.7-21.8c-4.3-6.3-11.4-10.5-19-11.3c-2-6.7-7-12.6-13.4-15.6
			c-3.8-1.8-8.1-2.6-12.5-2.4c-1.1,0.1-2.4,0.4-3.6,0.7c-1.8,0.5-3.7,0.9-5.3,0.6c-1.5-0.3-2.9-1.4-4.3-2.4c-1.3-1-2.7-2-4.3-2.5
			c-2.9-0.9-6.2-1.1-9.6-0.5c-3.3,0.6-5.7,1.8-7.2,3.6c-2.5,3-2.3,7.2-1.9,11.2c0.2,2.5,0.5,5.3,1.7,7.7c0.2,0.5,0.6,1,0.9,1.5
			c0.1,0.1,0.1,0.2,0.2,0.2c1.2,1.5,3,2.9,5.1,3l0.1,0l0.1-0.1c4-2,6.1-7,4.8-11.3l-0.9,0.3c1.1,3.7-0.8,8.2-4.2,10.1
			c-2.5-0.3-4.4-2.4-5.3-4.3c-1.1-2.3-1.4-4.9-1.6-7.4c-0.4-3.8-0.6-7.8,1.7-10.5c1.4-1.7,3.6-2.8,6.6-3.3c3.3-0.6,6.4-0.4,9.2,0.5
			c1.4,0.5,2.8,1.4,4,2.4c1.5,1.1,3,2.2,4.7,2.6c1.8,0.4,3.8-0.1,5.7-0.6c1.2-0.3,2.3-0.6,3.4-0.7c4.2-0.3,8.3,0.5,12,2.3
			c6.2,3,11.1,8.7,12.9,15.3l0.1,0.3v0l0.3,0l0.1,0c7.4,0.7,14.4,4.8,18.6,10.9c4.2,6.2,5.5,14.1,3.5,21.3l-0.1,0.3l0.2,0.2
			c3.2,2.6,5.9,5.9,7.9,9.6c0.3,0.6,0.6,1.2,0.9,1.8c1.3,3,2.2,6.2,2.5,9.4c0,0.4,0.1,0.9,0.1,1.3c0.2,4.5-0.6,9.1-2.3,13.3
			c-0.4,0.9-0.8,1.7-1.2,2.6c-1,1.9-2.2,3.8-3.6,5.4l-0.2,0.2l0.1,0.3c0,0,0,0.1,0,0.1c0.2,0.3,0.3,0.7,0.4,1.1
			c1.9,5,2.1,10.4,0.8,15.5c-0.2,0.8-0.5,1.7-0.8,2.5c-0.3,0.9-0.7,1.8-1.2,2.7c-3.5,6.7-9.9,11.7-17.3,13.4l-0.5,0.1l0.1,0.5
			c1.4,7.2-2.2,15-8.6,18.6c-2.1,1.2-4.5,1.2-6.7,1.2c-2,0-3.8,0-5.5,0.7c-2.1,0.9-3.3,3-4.5,4.9c-0.7,1.2-1.4,2.4-2.3,3.3
			c-2.3,2.5-5.2,3.9-7.9,3.9c-2.4,0-4.5-0.9-6.8-1.9c-1.1-0.5-2.3-0.9-3.4-1.3c-6.4-2-13.6-0.4-19.3,0.9c-1.1,0.3-2.1-0.5-2.6-1
			c-1.2-1.2-2-3-1.8-4.3c0.4-2.4,2.2-4.3,4.3-6.3c1.9-1.8,5.7-2.7,9.3-2.2c2.6,0.3,4.7,1.4,5.6,2.9l0.8-0.5
			c-1.1-1.7-3.3-2.9-6.3-3.3c-3.9-0.5-8,0.5-10.1,2.5c-0.7,0.7-1.5,1.4-2.3,2.3c-0.2,0.2-0.4,0.5-0.6,0.8c-0.8,1.1-1.5,2.4-1.7,3.8
			C222.8,163.2,223.6,165.3,225.1,166.7z"/>
		<path class="st1" d="M230.7,46.8c2.5,0,5.1-1.3,7.8-3.9c5.5-5.4,8.9-12.8,9.4-20.5l-1-0.1c-0.5,7.4-3.8,14.7-9.1,19.9
			c-2.6,2.5-5.1,3.8-7.4,3.7c-3.3-0.1-7-3.4-7.3-8.5c-0.3-4.3,1.7-8.5,3.4-12.2l-0.9-0.4c-1.8,3.8-3.7,8.1-3.5,12.6
			c0.3,4.4,3.5,9.3,8.2,9.4C230.5,46.7,230.6,46.8,230.7,46.8z"/>
		<path class="st1" d="M225.1,158.1l0.7-0.7c-1.8-1.9-3-4.7-3.2-8c-0.2-3,0.2-6,0.7-8.9c0.5-3.3,1.1-7,2.9-10c2.7-4.6,2.8-4.9,1-8.8
			c-0.3-0.6-0.6-1.4-1-2.3c-1.5-3.5-3.2-8.3-2.7-13.2c0.2-2.1,1.2-3.9,2.1-5.7c0.9-1.8,1.8-3.6,2-5.6c0.4-3.3-0.4-7.2-1.2-11
			c-0.4-1.8-0.7-3.5-0.9-5c-0.5-3.7-0.8-7.3,1-10.1c0.5-0.8,1.1-1.5,1.8-2.2c1-1.1,2-2.2,2.5-3.7c1-2.9-0.7-5.9-1.7-7.4
			c-0.5-0.8-1.1-1.5-1.7-2.2c-1-1.2-1.9-2.4-2.6-3.7c-1-2-1.3-4.7,0.2-6.4l-0.7-0.6c-1.9,2-1.5,5.2-0.4,7.5c0.7,1.4,1.7,2.7,2.7,3.9
			c0.6,0.7,1.2,1.4,1.7,2.1c1,1.4,2.4,4,1.6,6.5c-0.4,1.3-1.3,2.3-2.3,3.3c-0.7,0.7-1.3,1.5-1.9,2.3c-1.9,3-1.6,6.8-1.1,10.7
			c0.2,1.6,0.6,3.3,0.9,5.1c0.8,3.7,1.6,7.6,1.2,10.7c-0.2,1.9-1,3.5-1.9,5.3c-0.9,1.9-1.9,3.8-2.1,6.1c-0.6,5.2,1.2,10,2.7,13.7
			c0.4,0.9,0.7,1.7,1,2.3c1.7,3.6,1.7,3.6-0.9,7.9c-1.9,3.2-2.5,7-3,10.3c-0.5,3-0.9,6.1-0.7,9.2C221.8,152,222.6,155.5,225.1,158.1
			z"/>
		<path class="st1" d="M242.5,151.5c0.4,0,0.8,0,1.2-0.1c3.4-0.4,6.5-2.5,8.2-5.4c1.7-2.9,1.9-6.4,2-9.5c0.1-2.9,0.1-6.2-1.4-9
			c-2-3.8-6.7-6.1-11.9-5.9c-4.6,0.1-9.1,2-13,3.7l0.4,0.9c3.9-1.6,8.2-3.5,12.7-3.6c4.8-0.2,9.2,2,11,5.4c1.4,2.5,1.4,5.6,1.3,8.5
			c-0.1,3-0.3,6.3-1.9,9.1c-1.6,2.7-4.4,4.6-7.5,4.9c-3,0.4-6.1-0.7-8.3-2.9c0.7-4.5,2.1-8.9,4.1-13l-0.9-0.4
			c-2,4.3-3.5,8.8-4.2,13.5l0,0.2l0.2,0.2C236.5,150.2,239.5,151.5,242.5,151.5z"/>
		<path class="st1" d="M260.5,153.3c0.9,0,1.9-0.2,2.7-0.6c1.7-0.8,3-2.6,3.7-5c0.3-1.1,0.5-2.3,0.7-3.4c0.1-0.8,0.3-1.7,0.5-2.5
			c0.9-3.5,2.9-6.9,5.7-9.2c3.2-2.7,3.8-2.3,5.7-0.7c0.6,0.5,1.4,1.1,2.4,1.8l0.5-0.8c-1-0.6-1.7-1.2-2.3-1.7
			c-2.2-1.8-3.3-2.4-7,0.7c-2.9,2.5-5.1,5.9-6,9.7c-0.2,0.9-0.4,1.7-0.5,2.6c-0.2,1.1-0.4,2.2-0.7,3.3c-0.4,1.2-1.3,3.4-3.2,4.4
			c-1.6,0.8-3.6,0.6-5.6-0.4c-1.8-0.9-3.3-2.4-4.7-3.9l-0.7,0.7c1.5,1.5,3,3.1,4.9,4.1C257.9,153,259.2,153.3,260.5,153.3z"/>
		<path class="st1" d="M272.5,48.7c5.7,0,11.3-3.4,14-8.5c2.6-5.1,2.1-11.7-1.3-16.4l-0.8,0.6c3.2,4.4,3.6,10.6,1.2,15.4
			c-2.5,4.8-7.7,8-13.1,8c0,0-0.1,0-0.1,0c-5.4,0-10.7-3.3-13.1-8.1c-0.8-1.5-1.1-2.8-0.9-4c0.3-3.1,3.4-5,6.6-6.7
			c0.2-0.1,0.4-0.4,0.8-0.7c0.1-0.1,0.1-0.2,0.2-0.2l-0.7-0.7c-0.1,0.1-0.1,0.1-0.2,0.3c-0.1,0.2-0.4,0.5-0.5,0.5
			c-3.3,1.7-6.7,3.9-7.1,7.4c-0.2,1.4,0.2,2.9,1,4.6C261,45.2,266.6,48.6,272.5,48.7C272.4,48.7,272.5,48.7,272.5,48.7z"/>
		<path class="st1" d="M293.9,61.8c0.2-3.3-3-5.7-4.4-6.5c-0.6-0.4-1.2-0.7-1.8-1c-1.7-0.9-3.3-1.8-4.4-3.2c-0.9-1.1-1.3-2.7-1.1-4
			c0.1-0.6,0.5-1.5,1.4-2l-0.5-0.8c-1,0.5-1.6,1.5-1.9,2.6c-0.3,1.6,0.2,3.5,1.3,4.8c1.3,1.5,3,2.5,4.7,3.4c0.6,0.3,1.2,0.6,1.8,1
			c1.2,0.8,4.1,2.8,3.9,5.6L293.9,61.8z"/>
		<path class="st1" d="M260.4,96c3.3-1.2,4.4-5.3,3.7-8.7c-0.3-1.6-0.8-3.1-1.4-4.5c-0.6-1.5-1.1-3.1-1.4-4.7
			c-1.1-6.5,3.4-12.8,8.2-16.1c5.4-3.7,12.2-5.2,18.2-6.5l-0.2-0.9c-6.1,1.3-12.9,2.9-18.5,6.6c-6.2,4.2-9.6,10.9-8.6,17
			c0.3,1.7,0.9,3.3,1.4,4.9c0.5,1.4,1.1,2.9,1.3,4.4c0.6,3-0.3,6.6-3.1,7.6L260.4,96z"/>
		<path class="st1" d="M250.9,54.6c1,0,2-0.2,3-0.7c1.8-0.9,3.1-2.5,4.3-4.1c1.5-1.9,3-3.8,5.2-4l-0.1-1c-2.6,0.3-4.2,2.4-5.8,4.4
			c-1.2,1.5-2.4,3-4,3.8c-3,1.5-6.6-0.1-8.6-2.2c-2.3-2.4-3.6-5.7-4.7-8.7l-0.9,0.3c1.1,3,2.4,6.5,4.9,9
			C245.7,53.3,248.3,54.6,250.9,54.6z"/>
		<path class="st1" d="M281.6,115c2.2-4.2,4.7-8.9,8.9-11.6c6.2-4.1,14.4-3,22.3-1.5l0.2-0.9c-8.1-1.5-16.5-2.7-23,1.6
			c-4.4,2.9-6.9,7.7-9.2,12L281.6,115z"/>
		<path class="st1" d="M282.9,127.7c2.1,0,4.2-0.5,6-1.4c4.5-2.3,7.5-7.5,7.2-12.5l-1,0c0.2,4.7-2.6,9.5-6.7,11.6
			c-4.2,2.2-9.7,1.6-13.4-1.3c-2-1.6-3.5-3.7-4.9-5.8c-0.7-1-1.4-2-2.2-3c-1.5-1.8-5.4-6-10.2-5.2c-2.7,0.5-5.2,2.5-6.7,5.6
			c-1.3,2.7-1.6,5.6-2,8.5l1,0.1c0.3-2.8,0.7-5.6,1.9-8.2c1.3-2.8,3.5-4.7,6-5.1c4.3-0.7,7.9,3.2,9.3,4.9c0.7,0.9,1.4,2,2.1,3
			c1.5,2.2,3,4.4,5.1,6.1C276.9,126.7,279.9,127.7,282.9,127.7z"/>
		<path class="st1" d="M285.1,107.7l0.6-0.7c-7.3-6.6-9.5-18.2-5.1-27l-0.9-0.4C275.2,88.8,277.5,100.8,285.1,107.7z"/>
		<path class="st1" d="M237.3,121.4l0.8-0.6c-3.7-4.9-0.5-11.9,1.7-15.7c0.3-0.5,0.6-1,0.9-1.6c2.8-4.6,5.7-9.5,4.8-14.7
			c-0.3-1.9-1.1-3.6-1.8-5.2c-0.5-1.1-1-2.3-1.4-3.5c-1.5-5-0.2-10,1.1-13.4c1.8-4.3,4.5-8.1,7.2-11.9l-0.8-0.6
			c-2.7,3.8-5.5,7.7-7.3,12.1c-1.4,3.5-2.8,8.7-1.2,14c0.4,1.2,0.9,2.4,1.4,3.6c0.8,1.7,1.5,3.3,1.8,5c0.8,4.9-2,9.6-4.7,14.1
			c-0.3,0.5-0.6,1.1-0.9,1.6C236.6,108.7,233.2,116.1,237.3,121.4z"/>
	</g>
	<g>
		<path class="st2" d="M120.6,86.5c0-80.9,84.7-82.7,84.7-82.7c4.7-0.3,8.6,3.4,8.6,8.1v2.6V156v4.8c0,4.9-4.1,8.8-9,8.4
			C204.9,169.3,120.6,167.4,120.6,86.5z"/>
		<path class="st0" d="M198.2,8.4c0.1,0,0.1,0,0.2,0"/>
	</g>
	<g>
		<line class="st3" x1="183" y1="165.9" x2="183" y2="121.4"/>
		<circle class="st3" cx="183" cy="115.6" r="5.7"/>
	</g>
	<g>
		<line class="st3" x1="199.7" y1="169.3" x2="199.7" y2="141.5"/>
		<circle class="st3" cx="199.7" cy="135.7" r="5.7"/>
	</g>
	<g>
		<line class="st3" x1="197.1" y1="73.5" x2="197.1" y2="55.5"/>
		<circle class="st3" cx="197.1" cy="50.7" r="5.7"/>
		<circle class="st3" cx="197.1" cy="79.2" r="5.7"/>
	</g>
	<g>
		<line class="st3" x1="214.4" y1="94.6" x2="184" y2="94.6"/>
		<circle class="st3" cx="179.2" cy="94.6" r="5.7"/>
	</g>
	<g>
		<polyline class="st3" points="213.6,25.1 199,25.1 187.4,22.1 		"/>
		<circle class="st3" cx="181.8" cy="21" r="5.7"/>
	</g>
	<g>
		<line class="st3" x1="122.6" y1="67.5" x2="141.1" y2="67.5"/>
		<circle class="st3" cx="145.9" cy="67.5" r="5.7"/>
	</g>
	<g>
		<line class="st3" x1="131.9" y1="42.9" x2="150.8" y2="42.9"/>
		<circle class="st3" cx="155.6" cy="42.9" r="5.7"/>
	</g>
	<line class="st3" x1="146.2" y1="147.2" x2="146.2" y2="125.3"/>
	<circle class="st3" cx="146.2" cy="120.5" r="5.7"/>
	<circle class="st3" cx="137.8" cy="93.2" r="5.7"/>
	<polyline class="st3" points="167.1,160 167.1,104.8 156.3,93.3 142.4,93.3 	"/>
	<g>
		<circle class="st3" cx="173.2" cy="68.6" r="5.7"/>
		<polyline class="st3" points="213.9,35.9 182.1,35.9 173.2,48.1 173.2,63.8 		"/>
	</g>
</g>
<circle class="st0" cx="22.6" cy="29.2" r="15.7"/>
<circle class="st0" cx="92.1" cy="62" r="9.8"/>
<circle class="st0" cx="87.5" cy="148.1" r="9.8"/>
<circle class="st0" cx="9.8" cy="89.3" r="4.9"/>
<circle class="st0" cx="84.4" cy="112" r="5.6"/>
<circle class="st2" cx="45.8" cy="86.3" r="21.2"/>
<circle class="st2" cx="17.5" cy="131" r="10.6"/>
<circle class="st2" cx="7.5" cy="67.1" r="6.5"/>
<circle class="st4" cx="109.6" cy="126.9" r="8"/>
<line class="st1" x1="20.9" y1="27" x2="37.9" y2="66.6"/>
<line class="st1" x1="23.2" y1="122.1" x2="37.5" y2="105.8"/>
<line class="st1" x1="62.1" y1="99.8" x2="84.4" y2="112"/>
<polyline class="st5" points="63.4,74.2 89.7,62.9 121.4,77.7 "/>
<line class="st5" x1="9" y1="60.6" x2="21.9" y2="30.7"/>
<line class="st5" x1="9.8" y1="89.3" x2="7.5" y2="73.6"/>
<line class="st5" x1="84.4" y1="117.6" x2="86.9" y2="143.8"/>
<line class="st1" x1="87.5" y1="148.1" x2="103.3" y2="133.9"/>
<g>
	<circle class="st0" cx="366.8" cy="115.2" r="23"/>
	<circle class="st0" cx="408.6" cy="46.9" r="9.8"/>
	<circle class="st0" cx="438.1" cy="105.9" r="4.9"/>
	<circle class="st0" cx="434.7" cy="72.5" r="4.9"/>
	<circle class="st0" cx="361.4" cy="34.3" r="5.6"/>
	<circle class="st2" cx="416.3" cy="95.1" r="10.6"/>
	<circle class="st4" cx="327.6" cy="133.4" r="8"/>
	<circle class="st4" cx="337.5" cy="36.7" r="8"/>
	<circle class="st6" cx="356.5" cy="66" r="13.4"/>
	<line class="st5" x1="318.5" y1="72.4" x2="342" y2="69.5"/>
	<line class="st5" x1="359.5" y1="79" x2="367.4" y2="118.4"/>
	<line class="st5" x1="360.5" y1="123.4" x2="335.5" y2="129.4"/>
	<line class="st5" x1="349.5" y1="54.1" x2="341.5" y2="43.1"/>
	<line class="st5" x1="356.5" y1="52.6" x2="361.4" y2="34.3"/>
	<polyline class="st5" points="424.5,88.2 434.7,72.5 408.6,46.9 366.8,115.2 	"/>
	<line class="st5" x1="438.1" y1="105.9" x2="425.3" y2="101.4"/>
</g>
</svg>
