<?xml version="1.0" encoding="utf-8"?>
<!-- Generator: Adobe Illustrator 24.2.3, SVG Export Plug-In . SVG Version: 6.00 Build 0)  -->
<svg version="1.1" id="Layer_1" xmlns="http://www.w3.org/2000/svg" xmlns:xlink="http://www.w3.org/1999/xlink" x="0px" y="0px"
	 viewBox="0 0 655 712.9" style="enable-background:new 0 0 655 712.9;" xml:space="preserve">
<style type="text/css">
	.st0{fill:#F9A061;}
	.st1{fill:#414042;}
	.st2{fill:#F1F2F2;}
	.st3{fill:#FFFFFF;}
	.st4{fill:#F05526;}
	.st5{fill:#A93C24;}
	.st6{fill:#FED5B3;}
	.st7{fill:#E6E7E8;}
	.st8{fill:#A93A15;}
</style>
<g>
	<g>
		<g>
			<g>
				<g>
					<path class="st0" d="M304.1,435.1c-6.1-7.3-16.9-8.2-24.2-2.1c0,0-44.7,45-59.7,57.6l-10.8,34.1l92.5-65.4
						C309.3,453.2,310.2,442.4,304.1,435.1L304.1,435.1z"/>
					<g>
						<path class="st1" d="M303.8,531.4c6.7,11.6,21.6,15.6,33.2,8.9c11.6-6.7,15.6-21.6,8.9-33.2l-54.1-93.6l-42.2,24.3
							L303.8,531.4z"/>
						<g>
							<path class="st2" d="M416.2,288.5c6.9-7.8,8.4-19.4,2.9-28.9l-14.7,8.5L416.2,288.5z"/>
							<path class="st3" d="M392.6,247.6l11.8,20.4l14.7-8.5C413.6,250,402.8,245.5,392.6,247.6z"/>
							<polygon class="st4" points="404.4,268 392.6,247.6 334.3,146.6 317.5,173.5 380.1,282 							"/>
							<polygon class="st5" points="380.1,282 442.8,390.6 474.5,389.5 416.2,288.5 404.4,268 							"/>
							<path class="st2" d="M110.7,437.6l6.4,11c3.6,6.3,11.7,8.5,18,4.8l3.1-1.8c-6.8-5.3-12.7-12-17.3-19.9L110.7,437.6z"/>
							<path class="st3" d="M120.9,431.7c-4.6-7.9-7.4-16.4-8.6-25l-3.1,1.8c-6.3,3.6-8.5,11.7-4.8,18l6.4,11L120.9,431.7
								L120.9,431.7z"/>
							<path class="st4" d="M120.9,431.7l83.2-48l-34.5-59.8l-23.4,13.5c-25.1,14.5-37.6,42.3-33.9,69.3
								C113.5,415.3,116.3,423.8,120.9,431.7L120.9,431.7z"/>
							<path class="st5" d="M120.9,431.7c4.6,7.9,10.5,14.6,17.3,19.9c21.5,16.8,51.9,19.8,76.9,5.3l23.4-13.5L204,383.6
								L120.9,431.7z"/>
							<path class="st2" d="M204.1,383.7l34.5,59.8l0,0l91.4-31.9c36.3-12.7,74.4-19.8,112.8-21l0,0l-62.7-108.5L204.1,383.7z"/>
							<path class="st3" d="M380.1,282l-62.7-108.5l-2.8,4.4c-18.5,29.7-41.4,56.5-67.9,79.4l-77.1,66.6l34.5,59.8L380.1,282z"/>
						</g>
					</g>
				</g>
				<path class="st6" d="M367.9,525.8l-0.3-0.4l1.4-0.8c8.4-4.8,11.1-15.6,6-23.9c-4.9-8-15.4-10.4-23.5-5.7l-1.1,0.7l-0.2-0.4
					l1.1-0.7c8.1-4.7,11.3-15,6.8-23.2c-4.6-8.5-15.3-11.5-23.7-6.7l-1.4,0.8l-0.2-0.4l1.4-0.8c8.4-4.8,11.1-15.6,6-23.9
					c-4.9-8-15.4-10.4-23.5-5.7l-1.1,0.7l0,0l-95.5,55.1l-10.7,34.2L0,645.7v67.2h112.5L385,555.5c7.6-4.9,10.1-15,5.5-23
					C386,524.6,376,521.7,367.9,525.8z"/>
			</g>
		</g>
		<g>
			<rect x="187.5" y="529.2" transform="matrix(0.866 -0.5 0.5 0.866 -254.0688 174.3073)" class="st2" width="21.4" height="64"/>
			<rect x="219.6" y="584.6" transform="matrix(0.866 -0.5 0.5 0.866 -277.4535 197.7573)" class="st7" width="21.4" height="64"/>
			<g>
				<polygon class="st8" points="240.2,655.3 237,649.7 205,594.2 0,712.6 0,712.9 140.5,712.9 				"/>
				<polygon class="st4" points="205,594.2 173,538.8 169.7,533.2 0,631.2 0,712.6 				"/>
			</g>
		</g>
	</g>
	<g>
		<path class="st3" d="M643.3,274.5l-108.5,2.8c-6.3,0.2-11.3,5.4-11.1,11.7s5.4,11.3,11.7,11.1l108.5-2.8c2-0.1,3.8-0.6,5.4-1.5
			c3.5-2,5.8-5.9,5.7-10.2C654.9,279.3,649.6,274.3,643.3,274.5z"/>
		<path class="st3" d="M523.9,356.1c-5.7-2.6-12.5-0.1-15.1,5.6c-2.6,5.7-0.1,12.5,5.6,15.1l98.5,45.5c3.5,1.6,7.4,1.3,10.5-0.5
			c2-1.1,3.6-2.9,4.6-5.1c2.6-5.7,0.1-12.5-5.6-15.1L523.9,356.1z"/>
		<path class="st3" d="M600.1,141.9l-94,54.2c-5.5,3.2-7.3,10.1-4.2,15.6c3.2,5.5,10.1,7.3,15.6,4.2l94-54.2
			c5.5-3.2,7.3-10.1,4.2-15.6C612.5,140.6,605.5,138.7,600.1,141.9z"/>
		<path class="st3" d="M445.9,154.2c5.4,3.3,12.4,1.6,15.7-3.8l56.7-92.5c3.3-5.4,1.6-12.4-3.8-15.7c-3.7-2.3-8.2-2.2-11.7-0.1
			c-1.6,0.9-3,2.2-4,3.9l-56.7,92.5C438.8,143.9,440.5,150.9,445.9,154.2z"/>
		<path class="st3" d="M375.5,130.8c6.3,0.6,11.8-4.1,12.4-10.3l9.9-108.1c0.6-6.3-4.1-11.8-10.3-12.4c-2.4-0.2-4.8,0.3-6.7,1.5
			c-3.1,1.8-5.3,5-5.7,8.9l-9.9,108.1C364.6,124.7,369.2,130.2,375.5,130.8z"/>
	</g>
</g>
</svg>
