<?xml version="1.0" encoding="utf-8"?>
<!-- Generator: Adobe Illustrator 24.2.3, SVG Export Plug-In . SVG Version: 6.00 Build 0)  -->
<svg version="1.1" id="Outlined" xmlns="http://www.w3.org/2000/svg" xmlns:xlink="http://www.w3.org/1999/xlink" x="0px" y="0px"
	 viewBox="0 0 278 278" style="enable-background:new 0 0 278 278;" xml:space="preserve">
<style type="text/css">
	.st0{fill:#004D71;}
	.st1{fill:none;stroke:#004D71;stroke-width:5;stroke-miterlimit:10;}
</style>
<g>
	<path class="st0" d="M172.9,134c15.4,28,7.9,67.1-22.7,87.6c-30.9,20.8-72,13.1-94.2-17.6c-21.2-29.2-14.9-71,14.4-93.5
		c29.8-22.9,69.5-15.9,89.8,6c-5,3.8-10,7.6-15.2,11.2c-0.8,0.5-2.9-0.3-4-1.1c-14.2-10.1-29.5-12.6-45.8-6.5
		c-21.4,7.9-34.3,29.9-30.4,52.3c3.8,21.7,19.5,36.8,40.5,39.6c22.4,3,42.8-8.8,50.8-28.6c4.7-11.5,5.4-23.1,0.9-34.9
		c-0.7-1.8-1-3.1,1-4.4C163,140.9,167.8,137.5,172.9,134z"/>
	<path class="st0" d="M224.2,53c-0.6,9.7-1,18.2-1.7,26.7c-0.3,3.6,0.3,5.4,4.4,6.2c8.5,1.6,16.9,3.9,26.4,6.2
		c-1.9,1.3-3,2.1-4.2,2.8c-16.4,9.7-32.8,19.3-49.1,29.1c-2.7,1.6-5.2,2-7.9,0.6c-7.5-3.8-13.5-1.8-20,3.1
		c-13.9,10.5-28.4,20.2-42.7,30.2c-4.3,3-8.6,5.9-13.1,8.5c-1.4,0.8-3.5,0.1-5.4,0.1c0-2.1-0.3-4.3,0.1-6.3c0.2-0.9,1.6-1.7,2.6-2.4
		c19.3-14.3,38.5-28.6,57.7-43c1.2-0.9,1.8-2.7,2.4-4.2c0.4-1.1,0.5-2.4,0.3-3.6c-1.4-7.6,2.8-12.2,8.2-16.8
		c12.5-10.6,24.5-21.7,36.7-32.6C220.2,56.4,221.8,55.1,224.2,53z"/>
	<path class="st0" d="M121.9,145c-4.4,3.2-8.3,6.2-12.3,9.1c-2.8,2.1-5,4.4-5.1,8.2c-0.1,3.7,0.6,7.2,4,9.1c3.2,1.8,7,2.1,10.3-0.1
		c4.9-3.3,9.7-6.6,14.6-10c2.5,8.6-2,18.2-10.4,22.8c-9.3,5-21.5,3-28-4.7c-7-8.2-7.1-19.9-0.3-28.5
		C100.8,143,112.2,140.4,121.9,145z"/>
	<circle class="st1" cx="139" cy="139" r="135.3"/>
	<path class="st0" d="M158.1,144.1c-2,1.3-1.7,2.6-1,4.4c4.5,11.7,3.7,23.4-0.9,34.9c-8,19.8-28.5,31.6-50.8,28.6
		c-21-2.8-36.7-18-40.5-39.6c-3.9-22.4,9-44.4,30.4-52.3c16.3-6,31.6-3.6,45.8,6.5c1.1,0.8,3.3,1.6,4,1.1
		c5.2-3.5,10.1-7.4,15.2-11.2c-20.3-21.9-60.1-28.9-89.8-6C41.1,133,34.8,174.8,56,204c22.2,30.7,63.4,38.3,94.2,17.6
		c30.5-20.6,38-59.6,22.7-87.6C167.8,137.5,163,140.9,158.1,144.1z"/>
	<path class="st0" d="M253.2,92.1c-9.5-2.3-17.8-4.6-26.4-6.2c-4.1-0.8-4.7-2.6-4.4-6.2c0.8-8.5,1.1-17.1,1.7-26.7
		c-2.4,2.1-3.9,3.4-5.4,4.7c-12.2,10.9-24.2,22-36.7,32.6c-5.4,4.6-9.6,9.1-8.2,16.8c0.2,1.2,0.1,2.5-0.3,3.6
		c-0.6,1.5-1.2,3.3-2.4,4.2c-19.2,14.4-38.5,28.7-57.7,43c-1,0.7-2.4,1.5-2.6,2.4c-0.4,2-0.1,4.2-0.1,6.3c1.8,0,4,0.6,5.4-0.1
		c4.5-2.5,8.9-5.5,13.1-8.5c14.3-10,28.8-19.7,42.7-30.2c6.5-4.9,12.6-6.9,20-3.1c2.7,1.3,5.2,1,7.9-0.6
		c16.3-9.8,32.7-19.4,49.1-29.1C250.2,94.2,251.3,93.4,253.2,92.1z"/>
	<path class="st0" d="M109.6,154.2c3.9-3,7.9-5.9,12.3-9.1c-9.7-4.7-21.1-2-27.2,5.8c-6.8,8.6-6.6,20.3,0.3,28.5
		c6.5,7.7,18.7,9.7,28,4.7c8.5-4.6,12.9-14.1,10.4-22.8c-4.9,3.4-9.7,6.7-14.6,10c-3.4,2.3-7.1,1.9-10.3,0.1c-3.4-1.8-4-5.4-4-9.1
		C104.6,158.5,106.9,156.2,109.6,154.2z"/>
	<path class="st0" d="M217.8,119.7c-4.3,2.5-8.5,5.2-12.9,7.4c-2.9,1.5-3.6,3-2.4,6.2c5.6,15.8,7.1,32.1,3.8,48.7
		c-10.2,50.9-55.9,84.2-106.8,77.5c-50.9-6.7-89-53.1-82.2-107.2c2.4-19.3,10.1-36.5,23.2-50.8C63.9,76,93,65.4,127.4,70.4
		c15.8,2.3,30,8.7,42.8,18.4c1.4,1,2.6,2.9,4.8,0.9c4.2-3.9,8.5-7.7,12.8-11.5C150.5,43.8,85.7,37.1,38.7,75.8
		c-15.7,13-27.1,29-34,46.5c-0.7,5.5-1,11.1-1,16.8c0,74.7,60.6,135.3,135.3,135.3c3.5,0,7-0.1,10.5-0.4
		c10.8-3.7,21.2-9.1,30.8-16.2C230.4,220.7,236.4,158,217.8,119.7z"/>
</g>
</svg>
