<?xml version="1.0" encoding="utf-8"?>
<!-- Generator: Adobe Illustrator 24.2.3, SVG Export Plug-In . SVG Version: 6.00 Build 0)  -->
<svg version="1.1" id="Layer_1" xmlns="http://www.w3.org/2000/svg" xmlns:xlink="http://www.w3.org/1999/xlink" x="0px" y="0px"
	 viewBox="0 0 433 133.1" style="enable-background:new 0 0 433 133.1;" xml:space="preserve">
<style type="text/css">
	.st0{fill:#F05325;}
	.st1{fill:#FFFFFF;}
</style>
<path class="st0" d="M326.2,64.5h0.7l15-30.3c0.5-1.1,1.3-1.7,2.8-1.7h5.2c2.3,0,2.8,2.3,2.1,3.9l-16.5,33l16.5,33.3
	c0.7,1.6,0.1,3.9-2.1,3.9h-5.2c-1.5,0-2.3-0.7-2.8-1.9l-15-30.3h-0.7v29.3c0,1.9-1.1,2.9-2.9,2.9h-4.4c-1.9,0-2.9-1.1-2.9-2.9V2.8
	c0-1.9,1.1-2.8,2.9-2.8h4.4c1.9,0,2.9,0.9,2.9,2.8V64.5z"/>
<path class="st0" d="M406.4,35.3l5.3,37.4l2.5,23.3h0.7l2.5-23.3l5.2-37.4c0.3-2,1.2-2.8,3.3-2.8h4.3c1.9,0,3.1,1.1,2.7,3.5
	l-14.4,94.3c-0.3,1.9-1.1,2.8-3.2,2.8H411c-1.9,0-3.1-1.1-2.7-3.5l3.9-23.2h-2.3c-2,0-2.9-0.9-3.3-2.8l-10.4-67.7
	c-0.4-2.4,0.9-3.5,2.7-3.5h4.3C405.3,32.5,406.1,33.3,406.4,35.3z"/>
<path class="st0" d="M389.8,92.1"/>
<path class="st0" d="M352,61.5v-15l-11.4,22.8L352,92.2V77.3"/>
<path class="st0" d="M388,73.7c2,0,3.1-1.1,3.1-3.1V47.7c0-10.2-3.7-15.8-16.6-15.8c-12.9,0-16.6,5.6-16.6,15.8v17.8h-11.2v8h11.2
	v17.9c0,10.2,3.7,15.8,16.6,15.8c12.9,0,16.6-5.6,16.6-15.8v-4.9c0-1.9-0.9-2.8-2.8-2.8h-4.5c-1.9,0-2.8,0.9-2.8,2.8v4.8
	c0,5.6-2,7.5-6.5,7.5c-4.4,0-6.4-1.9-6.4-7.5V73.7L388,73.7L388,73.7z M368,47.8c0-5.7,2-7.5,6.4-7.5c4.5,0,6.5,1.7,6.5,7.5v17.4
	H368V47.8z"/>
<g>
	<path class="st1" d="M0,3c0-1.9,1.1-2.8,2.9-2.8h4.4c1.8,0,2.9,0.9,2.9,2.8v34.2c3.3-3.3,7.9-5.2,12-5.2C28,32,33,35.7,33,44.2V95
		c0,8.5-5,12.2-10.8,12.2c-4.1,0-8.7-1.9-12-5.2v1.7c0,1.7-1.1,2.8-2.9,2.8H2.9c-1.8,0-2.9-1.1-2.9-2.8V3z M22.9,48.2
		c0-5.6-1.6-7.4-5.9-7.4c-4.5,0-6.9,2.4-6.9,8v41.8c0,5.6,2.4,7.8,6.9,7.8c4.4,0,5.9-1.7,5.9-7.4V48.2z"/>
	<path class="st1" d="M42.2,35.4c0-1.9,1.1-2.8,2.9-2.8h4.4c1.8,0,2.9,0.9,2.9,2.8v55.5c0,5.7,1.5,7.4,5.8,7.4c4.5,0,7-2.3,7-7.8
		V35.4c0-1.9,0.9-2.8,2.8-2.8h4.5c1.8,0,2.8,0.9,2.8,2.8v68.4c0,1.7-0.9,2.8-2.8,2.8H68c-1.8,0-2.8-1.1-2.8-2.8v-1.7
		c-3.4,3.3-8.1,5.2-12.1,5.2c-5.8,0-10.8-3.7-10.8-12.2L42.2,35.4L42.2,35.4z"/>
	<path class="st1" d="M99.4,107.2c-12.8,0-16.5-5.6-16.5-15.8v-8.5c0-1.9,0.9-2.9,2.8-2.9h4.5c1.8,0,2.8,1.1,2.8,2.9v8.4
		c0,5.6,2,7.4,6.5,7.4c4.4,0,6.3-1.9,6.3-7.4c0-8.2-1.1-8.9-5.8-13.7l-10-9.8c-4.8-4.7-7-8.6-7-19.9c0-10.2,3.7-15.8,16.5-15.8
		c12.7,0,16.5,5.6,16.5,15.8v8.5c0,1.9-1.1,2.8-2.9,2.8h-4.4c-1.8,0-2.9-0.9-2.9-2.8V48c0-5.7-2-7.4-6.3-7.4C95,40.6,93,42.3,93,48
		c0,8.2,1.1,8.8,5.8,13.7l10,9.8c4.8,4.7,7.1,8.6,7.1,19.9C115.9,101.6,112,107.2,99.4,107.2z"/>
	<path class="st1" d="M175.8,103.8c0,1.7-0.9,2.8-2.8,2.8h-4.5c-1.8,0-2.8-1.1-2.8-2.8V48.2c0-5.6-1.6-7.4-5.9-7.4
		c-4.5,0-6.9,2.4-6.9,8v55.1c0,1.7-1.1,2.8-2.9,2.8h-4.4c-1.8,0-2.9-1.1-2.9-2.8V35.5c0-1.9,1.1-2.8,2.9-2.8h4.4
		c1.8,0,2.9,0.9,2.9,2.8v1.7c3.3-3.3,7.9-5.2,12-5.2c5.8,0,10.8,3.7,10.8,12.2L175.8,103.8L175.8,103.8z"/>
	<path class="st1" d="M218,70.7c0,2-1.1,3.1-3,3.1h-19.8v17.6c0,5.6,2,7.4,6.3,7.4c4.5,0,6.5-1.9,6.5-7.4v-4.8
		c0-1.9,0.9-2.8,2.8-2.8h4.5c1.8,0,2.8,0.9,2.8,2.8v4.9c0,10.2-3.7,15.8-16.5,15.8s-16.5-5.6-16.5-15.8V47.9
		c0-10.2,3.7-15.8,16.5-15.8s16.5,5.6,16.5,15.8L218,70.7L218,70.7z M195.2,65.3H208V47.9c0-5.7-2-7.4-6.5-7.4
		c-4.4,0-6.3,1.7-6.3,7.4V65.3z"/>
	<path class="st1" d="M242.2,107.2c-12.8,0-16.5-5.6-16.5-15.8v-8.5c0-1.9,0.9-2.9,2.8-2.9h4.5c1.8,0,2.8,1.1,2.8,2.9v8.4
		c0,5.6,2,7.4,6.5,7.4c4.4,0,6.3-1.9,6.3-7.4c0-8.2-1.1-8.9-5.8-13.7l-10-9.8c-4.8-4.7-7-8.6-7-19.9c0-10.2,3.7-15.8,16.5-15.8
		c12.7,0,16.5,5.6,16.5,15.8v8.5c0,1.9-1.1,2.8-2.9,2.8h-4.5c-1.8,0-2.9-0.9-2.9-2.8V48c0-5.7-2-7.4-6.3-7.4c-4.5,0-6.5,1.7-6.5,7.4
		c0,8.2,1.1,8.8,5.8,13.7l10,9.8c4.8,4.7,7.1,8.6,7.1,19.9C258.7,101.6,254.9,107.2,242.2,107.2z"/>
	<path class="st1" d="M282.4,107.2c-12.8,0-16.5-5.6-16.5-15.8v-8.5c0-1.9,0.9-2.9,2.8-2.9h4.5c1.8,0,2.8,1.1,2.8,2.9v8.4
		c0,5.6,2,7.4,6.5,7.4c4.4,0,6.3-1.9,6.3-7.4c0-8.2-1.1-8.9-5.8-13.7l-10-9.8c-4.8-4.7-7-8.6-7-19.9c0-10.2,3.7-15.8,16.5-15.8
		c12.7,0,16.5,5.6,16.5,15.8v8.5c0,1.9-1.1,2.8-2.9,2.8h-4.4c-1.8,0-2.9-0.9-2.9-2.8V48c0-5.7-2-7.4-6.3-7.4c-4.5,0-6.5,1.7-6.5,7.4
		c0,8.2,1.1,8.8,5.8,13.7l10,9.8c4.8,4.7,7.1,8.6,7.1,19.9C298.9,101.6,295.1,107.2,282.4,107.2z"/>
</g>
<g>
	<circle class="st1" cx="129.2" cy="39.7" r="7.2"/>
	<path class="st1" d="M134.4,103.7c0,1.8-1.1,2.9-2.9,2.9h-4.4c-1.8,0-2.9-1.1-2.9-2.9V55.8c0-1.8,1.1-2.8,2.9-2.8h4.4
		c1.8,0,2.9,0.9,2.9,2.8V103.7z"/>
</g>
</svg>
