<?xml version="1.0" encoding="utf-8"?>
<!-- Generator: Adobe Illustrator 24.2.3, SVG Export Plug-In . SVG Version: 6.00 Build 0)  -->
<svg version="1.1" id="Outlined" xmlns="http://www.w3.org/2000/svg" xmlns:xlink="http://www.w3.org/1999/xlink" x="0px" y="0px"
	 viewBox="0 0 278 278" style="enable-background:new 0 0 278 278;" xml:space="preserve">
<style type="text/css">
	.st0{clip-path:url(#SVGID_2_);}
	.st1{fill-rule:evenodd;clip-rule:evenodd;fill:#004D71;}
	.st2{fill-rule:evenodd;clip-rule:evenodd;fill:none;stroke:#004D71;stroke-width:3;stroke-miterlimit:10;}
	.st3{clip-path:url(#SVGID_4_);}
	.st4{fill:#FFFFFF;}
	.st5{fill:#D84241;}
	.st6{fill:none;}
	.st7{fill:#343B45;}
	.st8{fill:#004D71;}
	.st9{fill:none;stroke:#004D71;stroke-width:4.1646;stroke-miterlimit:10;}
	.st10{fill:#FFFFFF;stroke:#004D71;stroke-width:2.0823;stroke-miterlimit:10;}
	.st11{fill:none;stroke:#004D71;stroke-width:5;stroke-miterlimit:10;}
</style>
<g>
	<defs>
		<circle id="SVGID_1_" cx="138.8" cy="137.5" r="135.3"/>
	</defs>
	<clipPath id="SVGID_2_">
		<use xlink:href="#SVGID_1_"  style="overflow:visible;"/>
	</clipPath>
	<g class="st0">
		<path class="st1" d="M226.9,113.7l-53.2,0.1c-3.7,0-6.7,3-6.7,6.7l0.2,122.2c0,3.7,3,6.7,6.7,6.7l53.2-0.1c3.7,0,6.7-3,6.7-6.7
			l0-11.7c-1.5-1-2.7-2.2-3.9-3.5l-0.2-0.3l0,7.4c0,0.4-0.3,0.7-0.7,0.7l-57,0.1c-0.4,0-0.7-0.3-0.7-0.7l-0.2-105.9
			c0-0.4,0.3-0.7,0.7-0.7l57-0.1l0,0c0.4,0,0.7,0.3,0.7,0.7l0.1,39.9c0.1-0.1,0.2-0.1,0.3-0.2c1.2-0.7,2.5-1,3.8-1.1l-0.1-46.8
			C233.7,116.7,230.6,113.7,226.9,113.7L226.9,113.7z M200.7,237.2c-2.5-0.3-4.7,1.5-5,4c-0.3,2.5,1.5,4.7,4,5c2.5,0.3,4.7-1.5,5-4
			C204.9,239.8,203.2,237.5,200.7,237.2L200.7,237.2z M187.4,117.4c-1.2,0-2.1,0.9-2.1,2.1c0,1.2,1,2.1,2.1,2.1
			c1.2,0,2.1-0.9,2.1-2.1C189.5,118.4,188.6,117.4,187.4,117.4L187.4,117.4z M206.8,118.5l-12.8,0c-0.5,0-1,0.4-1,1l0,0
			c0,0.5,0.4,1,1,1l12.8,0c0.6,0,1-0.4,1-1l0,0C207.7,119,207.3,118.5,206.8,118.5L206.8,118.5z"/>
		<path class="st2" d="M215,201.5c-0.1-0.2-0.2-0.3-0.3-0.5L195.9,169c-1.9-3.3-0.8-7.5,2.5-9.4c3.1-1.8,7.5-0.6,9.4,2.5l7.5,12.7
			c0.6-1.4,1.6-2.6,2.9-3.3c2.8-1.7,6.5-1.1,8.7,1.5c0.6-1.5,1.6-2.7,2.9-3.5c3.2-1.9,7.4-0.8,9.3,2.4l0.2,0.4
			c0.6-1.4,1.6-2.6,2.9-3.3c3.2-1.9,7.4-0.8,9.4,2.4l7.1,12.2c1.2,2.1,2.3,4.4,3.2,6.6c1.2,2.9,2.2,5.8,3.1,8.8
			c1.7,6,3.6,15.7-1.1,20.8c-4.6,5-12.9,10.1-19.5,11.8c-3.2,0.8-6.3,1-9.2-0.7c-1.5-0.9-2.8-2.1-4-3.4c-1.2-1.3-2.4-2.6-3.7-3.7
			c-6.6-5.5-14.1-9.1-21.7-12.8c-1.5-0.8-3.1-1.5-4.6-2.3c-1.2-0.6-2-1.5-2.4-2.8c-0.6-2.3,0.9-4.6,2.8-5.9c2.1-1.4,4.7-1.8,7.1-0.9
			l6.1,2.3C214.6,201.4,214.8,201.5,215,201.5L215,201.5z"/>
		<path class="st1" d="M191.8,145.2c8.4-4.3,18.7-1,23.1,7.4c2.6,5,2.5,10.6,0.2,15.3l-2.1-3.7c0.9-3.3,0.7-6.9-1-10.1
			c-3.5-6.8-11.8-9.5-18.6-6c-6.8,3.5-9.4,11.8-5.9,18.6c1.5,2.9,3.8,5,6.6,6.3l2.5,4.3c-5-1-9.5-4.1-12-9
			C180.1,159.8,183.4,149.5,191.8,145.2L191.8,145.2z"/>
	</g>
</g>
<g>
	<defs>
		<circle id="SVGID_3_" cx="138.8" cy="137.5" r="135.3"/>
	</defs>
	<clipPath id="SVGID_4_">
		<use xlink:href="#SVGID_3_"  style="overflow:visible;"/>
	</clipPath>
	<g class="st3">
		<ellipse transform="matrix(0.7071 -0.7071 0.7071 0.7071 -33.4478 69.3135)" class="st4" cx="66.9" cy="75" rx="46.7" ry="46.7"/>
		<path class="st4" d="M67.6,107.5c1.2-1.1,8.6-8.1,8.6-8.1l4,2.2l-9.7,20.1h-3.1c0,0-2.1-7.4-1.8-11.3
			C65.8,109.3,67.4,107.8,67.6,107.5z"/>
		<path class="st4" d="M46.5,105.7c3.4-2.4,6.5-5.2,9.3-8.3c0.6,4.2,4,7.4,6.6,10.7c2.3,2.8,4.1,6,5.3,9.3c-0.2-2.5-0.6-5-1.4-7.4
			c-2.2-6-7.2-10.8-9.2-16.9c-0.6-1.9-0.9-3.9-1.7-5.8c0,0,0-0.1-0.1-0.1c-0.8,0-1.7,0.7-2.4,1.2c-0.6,0.4-1.3,0.8-2,1.1
			c-0.2,0.9-0.2,1.8-0.3,2.6C50.3,96.9,48.9,101.6,46.5,105.7z"/>
		<path class="st4" d="M79.9,87.8c-0.7-0.5-1.5-0.8-2.2-0.4c0,0,0,0,0,0c-0.1,0.1-0.1,0.3-0.2,0.4c-0.3,0.8-0.4,1.7-0.6,2.6
			c-0.6,3.1-2.1,5.9-3.7,8.5c-1.4,2.3-2.9,4.5-4.5,6.7c-0.6,0.9-1.3,1.7-1.9,2.6c1.1-0.7,2.3-1.4,3.4-2.1c2.4-1.5,4.7-3.4,6-5.9
			c3.2,1.9,6.3,3.8,9.5,5.7C84,99.9,82.1,93.8,79.9,87.8z"/>
		<path class="st5" d="M66.2,109.4c0.2-0.4,0.5-0.8,0.7-1.1c-0.3,0.2-0.6,0.4-0.9,0.6C66,109.1,66.1,109.3,66.2,109.4z"/>
		<path class="st6" d="M49.3,103.6c0.3-2.2,0.5-4.5,0.7-6.7c-0.7,3.1-1.9,6.1-3.4,8.8C47.5,105.1,48.4,104.3,49.3,103.6z"/>
		<path class="st7" d="M50,96.9c0.4-1.6,0.6-3.1,0.7-4.7c0.1-0.8,0.1-1.7,0.3-2.5c-0.7,1.6-0.8,3.5-0.9,5.3
			C50.1,95.6,50,96.3,50,96.9z"/>
		<path class="st6" d="M83.1,97.3c-0.8-2.6-1.7-5.2-2.6-7.9c0.6,4-0.6,8.1-2.2,12c1.9,1.1,3.8,2.3,5.7,3.4
			C83.6,102.4,83.3,99.8,83.1,97.3z"/>
		<path class="st6" d="M85.8,106c-0.8-2.9-1.7-5.8-2.6-8.7c0.2,2.5,0.5,5.1,0.8,7.6C84.6,105.2,85.2,105.6,85.8,106z"/>
		<path class="st8" d="M83,95c-0.1-2.1-0.3-4.3-1.3-6c-0.3-0.2-0.6-0.3-0.9-0.5c-0.2-0.1-0.4-0.3-0.6-0.4c0.1,0.5,0.2,0.9,0.3,1.4
			c0.9,2.6,1.8,5.2,2.6,7.9C83.1,96.5,83,95.8,83,95z"/>
		<path class="st7" d="M79.9,87.8c0.2,0.5,0.4,1.1,0.6,1.6c-0.1-0.5-0.2-0.9-0.3-1.4C80.1,88,80,87.9,79.9,87.8z"/>
		<path class="st4" d="M62.5,108.2c-2.7-3.3-6.1-6.5-6.6-10.7c-0.6,0.6-1.2,1.3-1.9,1.9c0.8,2.2,1.7,4.3,2.7,6.4
			c2.4,5.2,4.6,10.5,6.6,15.8c1.2,0.1,2.4,0.1,3.6,0.1c0.3,0,0.7,0,1,0c0-1.4,0-2.8-0.1-4.2C66.5,114.1,64.7,111,62.5,108.2z"/>
		<path class="st8" d="M55.9,120.4c-1.7-2.3-3.4-4.7-5.1-7c-0.2-0.3-0.4-0.6-0.4-0.9c0.1-0.4,0.4-0.6,0.7-0.8c1-0.6,1.9-1.3,2.9-1.9
			c-1.9,0.1-3.8,0-5.6-0.5c0.3-1.9,0.6-3.8,0.9-5.6c-0.9,0.7-1.8,1.4-2.7,2.1c1.6-2.8,2.7-5.7,3.4-8.8c0-0.6,0.1-1.3,0.1-1.9
			c0.1-1.8,0.2-3.7,0.9-5.3c0-0.1,0-0.1,0-0.2c-1,0.4-2.1,0.8-3.1,1.1c-2.9,0.9-5.8,1.8-8.8,2.7c-3.4,1-6.9,2.1-9.9,3.9
			c-0.7,0.4-1.4,0.9-1.8,1.5c-0.1,0.2-0.2,0.4-0.3,0.6C33.4,109.7,43.7,117.4,55.9,120.4z"/>
		<path class="st8" d="M54,109.7c-1,0.6-1.9,1.3-2.9,1.9c-0.3,0.2-0.6,0.4-0.7,0.8c-0.1,0.3,0.2,0.7,0.4,0.9c1.7,2.3,3.4,4.7,5.1,7
			c2.4,0.6,4.9,1,7.5,1.2c-2-5.4-4.3-10.6-6.6-15.8c-0.9-2.1-1.9-4.2-2.7-6.4c-1.5,1.5-3.1,2.9-4.7,4.2c-0.2,1.9-0.5,3.8-0.9,5.6
			C50.2,109.7,52.1,109.9,54,109.7z"/>
		<path class="st8" d="M82.3,113.4c0.2-0.3,0.4-0.6,0.4-0.9c-0.1-0.4-0.4-0.6-0.7-0.8c-1-0.6-1.9-1.3-2.9-1.9c1.9,0.1,3.8,0,5.6-0.5
			c-0.3-1.5-0.5-2.9-0.7-4.4c-1.9-1.1-3.8-2.3-5.7-3.4c-0.6,1.4-1.2,2.9-1.9,4.3c-2.4,5.2-4.6,10.5-6.7,15.9c2.5-0.1,4.9-0.5,7.3-1
			C78.8,118.2,80.5,115.8,82.3,113.4z"/>
		<path class="st8" d="M79.1,109.7c1,0.6,1.9,1.3,2.9,1.9c0.3,0.2,0.6,0.4,0.7,0.8c0.1,0.3-0.2,0.7-0.4,0.9
			c-1.7,2.4-3.5,4.8-5.2,7.2c12.6-2.8,23.3-10.6,29.8-21.3c-0.1-0.2-0.2-0.4-0.3-0.6c-0.4-0.7-1.1-1.1-1.8-1.5
			c-3.1-1.8-6.5-2.9-9.9-3.9c-2.9-0.9-5.8-1.8-8.8-2.7c-1.5-0.4-3-0.9-4.3-1.6c1,1.7,1.1,4,1.3,6c0,0.8,0.1,1.5,0.2,2.3
			c0.9,2.9,1.8,5.8,2.6,8.7c-0.6-0.4-1.2-0.7-1.8-1.1c0.2,1.5,0.4,2.9,0.7,4.4C82.8,109.7,80.9,109.9,79.1,109.7z"/>
		<ellipse transform="matrix(0.7071 -0.7071 0.7071 0.7071 -33.4478 69.3135)" class="st9" cx="66.9" cy="75" rx="46.7" ry="46.7"/>
		<path class="st10" d="M68.3,79.6c-0.3,0.1-0.6,0.2-0.9,0.5c-0.2,0.2-0.3,0.5-0.4,0.7c-0.1-0.3-0.2-0.5-0.4-0.7
			c-0.2-0.2-0.6-0.4-0.9-0.5c-3.7-1.4-7.5-2.5-11.4-3.5c0.8,3.7,1.5,7.5,1.9,11.3c0,0,0,0,0,0c0,0.1,0,0.2,0,0.3
			c0.1,0.8,0.1,1.6,0.2,2.5c0.3,1,0.5,2,0.8,3c1.9,5.7,6.4,10.2,8.7,15.7c0.3-0.2,0.6-0.4,0.9-0.6c0.6-0.9,1.3-1.8,1.9-2.6
			c1.6-2.2,3.1-4.4,4.5-6.7c1.6-2.7,3.2-5.5,3.7-8.5c0.2-0.9,0.2-1.8,0.6-2.6c0.1-0.1,0.1-0.3,0.2-0.4c0.5-3.8,1.1-7.6,1.9-11.3
			C75.8,77.1,72,78.2,68.3,79.6z"/>
		<path class="st8" d="M81.8,75c-0.3,0.1-0.6,0.1-0.8-0.2c-0.2-0.2-0.2-0.5-0.2-0.8c0.2-3.1,0.3-6.2,0.5-9.3c0-0.9,0.1-1.9,0.6-2.6
			c0.5-0.7,1.7-1.1,2.3-0.4c0.5,0.5,0.4,1.3,0.3,2c-0.1,0.6-0.2,1.2-0.2,1.7c-0.2,1.5-0.4,3.1-0.9,4.6c-0.2,0.6-0.5,1.3-0.6,1.9
			c-0.1,0.6,0,1.2-0.1,1.7C82.7,74.2,82.3,74.8,81.8,75z"/>
		<path class="st8" d="M52.1,75c0.3,0.1,0.6,0.1,0.8-0.2c0.2-0.2,0.2-0.5,0.2-0.8c-0.2-3.1-0.3-6.2-0.5-9.3c0-0.9-0.1-1.9-0.6-2.6
			c-0.5-0.7-1.7-1.1-2.3-0.4c-0.5,0.5-0.4,1.3-0.3,2c0.1,0.6,0.2,1.2,0.2,1.7c0.2,1.5,0.4,3.1,0.9,4.6c0.2,0.6,0.5,1.3,0.6,1.9
			c0.1,0.6,0,1.2,0.1,1.7C51.2,74.2,51.5,74.8,52.1,75z"/>
		<path class="st8" d="M77.5,45.3c1.5,0.7,2.5,2.3,2.9,3.9c0.4,1.6,0.4,3.3,0.4,5c-0.1,2.7-0.1,5.4-0.2,8.2c0,1.1-0.1,2.4-1,3.2
			c-0.5,0.4-1.1,0.6-1.8,0.7c-7.6,1.8-15.4,2.2-23.1,1.2c0.1-2.1-1.9-3.6-2.9-5.5c-1-1.8-1.1-4-1-6.1c0.1-1.9,0.3-4,1.3-5.6
			c1.1-1.6,2.9-2.6,4.7-3.4c5.3-2.1,11.2-2.3,16.9-2.2C75.1,44.7,76.4,44.7,77.5,45.3z"/>
		<ellipse class="st10" cx="66.9" cy="67.1" rx="15.2" ry="21.7"/>
		<path class="st8" d="M69.1,38.5c-0.3-0.1-0.7,0-1-0.1c-0.7-0.1-1.2-0.6-1.8-1c-0.8-0.5-1.8-0.7-2.7-0.3c-0.9,0.3-1.5,1.2-1.3,2.1
			c-1.5,0.5-3.3-0.5-4.6,0.3c-0.8,0.5-1.3,1.6-2.3,1.6c-0.4,0-0.8-0.3-1.2-0.1c-0.6,0.3-0.3,1.2-0.8,1.7c-0.2,0.2-0.5,0.2-0.7,0.3
			c-1.9,0.5-2.9,2.9-1.8,4.4c-1.2,0-2.2,1.3-1.8,2.3c0.1,0.3,0.4,0.6,0.4,0.9c0,0.5-0.6,0.8-1,1.1c-0.7,0.7-0.8,1.7-0.6,2.6
			c0.2,0.9,0.6,1.8,0.5,2.7c0,1.5-1.2,3-0.7,4.5c0.5,1.5,2.4,2.3,3,3.7c0.6,1.4,0,3.3,1.3,4.2c0.8-1.8,0.2-3.8,0.7-5.7
			c0.3-1.2,1-2.2,1.3-3.4c0.4-1.4,0.3-3,0.4-4.5c0-1.5,0.3-3.1,1.2-4.3c1-1.2,2.8-2,4.4-1.4c0.7,0.3,1.2,0.8,2,0.9
			c0.9,0.1,1.8-0.5,2.6-0.3c0.6,0.1,0.9,0.6,1.5,0.9c1.3,0.6,3.1-0.6,2.7-1.9c0.7,0.2,1.2,0.8,1.1,1.4c1.4-0.4,2.8-0.4,4.2-0.2
			c0.5,0.1,1,0.2,1.4,0c0.4-0.2,0.7-0.8,0.3-1c0.6-0.1,1.1,0.3,1.4,0.8c0.3,0.5,0.5,1,0.9,1.4c0.4,0.4,0.9,0.6,1.3,0.9
			c1.3,1.1,0.7,2.9,0.5,4.5c-0.1,1.4,0.1,2.7,0.4,4.1c0.5,2.7,1.1,5.4,1.6,8.2c0.9-1.2,0-2.8,0.5-4.1c0.5-1.4,2.2-2.3,2.6-3.7
			c0.2-0.6,0.1-1.2,0.1-1.8c-0.1-2,0.4-4.1,1.3-6c-0.9-0.4-0.7-1.5-0.3-2.3c-0.4,0.2-0.7-0.4-0.7-0.8c0-1.6,0.3-3.3-0.8-4.6
			c-0.9-1-2.6-1.6-2.7-2.9c0-0.6,0.3-1.3-0.2-1.7c-0.2-0.1-0.4-0.2-0.6-0.3c-1.1-0.2-2.2-0.3-3.3-0.1c-0.3,0-0.5,0.1-0.8,0.1
			c-0.7-0.1-0.9-0.9-1.1-1.5c-0.3-0.8-0.8-1.6-1.6-2.1c-0.8-0.5-2-0.5-2.7,0.1c-0.5,0.4-1,1.2-1.7,0.9
			C69.5,38.9,69.3,38.6,69.1,38.5z"/>
	</g>
</g>
<circle class="st11" cx="138.8" cy="137.5" r="135.3"/>
<path class="st8" d="M127.1,119.6c0.5-3.8-1.5-4.3-4.8-4.3c-14.4,0.1-30.9,0-45.4,0v-8.1c18.7,0,42.8,0,61.5-0.1
	c3.9,0,6.1,1,6.1,4.8c0,22-5.7,62.3-3.2,82.7c0,0.3,0,0.7,0.1,1c0.9,9.4,5.5,9.4,15.4,9.4h11.2v16.4c-36.6,0-22.6,0-59.3,0
	L127.1,119.6z"/>
</svg>
