<?xml version="1.0" encoding="utf-8"?>
<!-- Generator: Adobe Illustrator 24.2.3, SVG Export Plug-In . SVG Version: 6.00 Build 0)  -->
<svg version="1.1" id="Layer_1" xmlns="http://www.w3.org/2000/svg" xmlns:xlink="http://www.w3.org/1999/xlink" x="0px" y="0px"
	 viewBox="0 0 600 600" style="enable-background:new 0 0 600 600;" xml:space="preserve">
<style type="text/css">
	.st0{fill:#FFFFFF;}
</style>
<g>
	<g>
		<path class="st0" d="M260,46.9c-0.8,0-1.5-0.7-1.5-1.5v-2.8c0-0.8,0.7-1.5,1.5-1.5c0.8,0,1.5,0.7,1.5,1.5v2.8
			C261.5,46.2,260.8,46.9,260,46.9z"/>
	</g>
	<g>
		<path class="st0" d="M260,55.8c-0.8,0-1.5-0.7-1.5-1.5v-2.8c0-0.8,0.7-1.5,1.5-1.5c0.8,0,1.5,0.7,1.5,1.5v2.8
			C261.5,55.1,260.8,55.8,260,55.8z"/>
	</g>
	<g>
		<path class="st0" d="M265.8,49.9H263c-0.8,0-1.5-0.7-1.5-1.5s0.7-1.5,1.5-1.5h2.8c0.8,0,1.5,0.7,1.5,1.5S266.6,49.9,265.8,49.9z"
			/>
	</g>
	<g>
		<path class="st0" d="M256.9,49.9h-2.8c-0.8,0-1.5-0.7-1.5-1.5s0.7-1.5,1.5-1.5h2.8c0.8,0,1.5,0.7,1.5,1.5S257.7,49.9,256.9,49.9z"
			/>
	</g>
</g>
<g>
	<g>
		<path class="st0" d="M418.1,380.4c-0.8,0-1.5-0.7-1.5-1.5v-2.8c0-0.8,0.7-1.5,1.5-1.5c0.8,0,1.5,0.7,1.5,1.5v2.8
			C419.6,379.7,418.9,380.4,418.1,380.4z"/>
	</g>
	<g>
		<path class="st0" d="M418.1,389.2c-0.8,0-1.5-0.7-1.5-1.5V385c0-0.8,0.7-1.5,1.5-1.5c0.8,0,1.5,0.7,1.5,1.5v2.8
			C419.6,388.6,418.9,389.2,418.1,389.2z"/>
	</g>
	<g>
		<path class="st0" d="M423.9,383.4h-2.8c-0.8,0-1.5-0.7-1.5-1.5c0-0.8,0.7-1.5,1.5-1.5h2.8c0.8,0,1.5,0.7,1.5,1.5
			C425.4,382.8,424.8,383.4,423.9,383.4z"/>
	</g>
	<g>
		<path class="st0" d="M415.1,383.4h-2.8c-0.8,0-1.5-0.7-1.5-1.5c0-0.8,0.7-1.5,1.5-1.5h2.8c0.8,0,1.5,0.7,1.5,1.5
			C416.5,382.8,415.9,383.4,415.1,383.4z"/>
	</g>
</g>
<path class="st0" d="M355.3,566.6h-3v-3c0-0.8-0.7-1.5-1.5-1.5c-0.8,0-1.5,0.7-1.5,1.5v3h-3c-0.8,0-1.5,0.7-1.5,1.5
	c0,0.8,0.7,1.5,1.5,1.5h3v3c0,0.8,0.7,1.5,1.5,1.5c0.8,0,1.5-0.7,1.5-1.5v-3h3c0.8,0,1.5-0.7,1.5-1.5
	C356.8,567.2,356.1,566.6,355.3,566.6z"/>
<path class="st0" d="M98.8,19.6h-3v-3c0-0.8-0.7-1.5-1.5-1.5c-0.8,0-1.5,0.7-1.5,1.5v3h-3c-0.8,0-1.5,0.7-1.5,1.5
	c0,0.8,0.7,1.5,1.5,1.5h3v3c0,0.8,0.7,1.5,1.5,1.5c0.8,0,1.5-0.7,1.5-1.5v-3h3c0.8,0,1.5-0.7,1.5-1.5
	C100.3,20.2,99.6,19.6,98.8,19.6z"/>
<path class="st0" d="M158,397.6h-3v-3c0-0.8-0.7-1.5-1.5-1.5s-1.5,0.7-1.5,1.5v3h-3c-0.8,0-1.5,0.7-1.5,1.5s0.7,1.5,1.5,1.5h3v3
	c0,0.8,0.7,1.5,1.5,1.5s1.5-0.7,1.5-1.5v-3h3c0.8,0,1.5-0.7,1.5-1.5S158.8,397.6,158,397.6z"/>
<path class="st0" d="M565.9,141.3h-3v-3c0-0.8-0.7-1.5-1.5-1.5c-0.8,0-1.5,0.7-1.5,1.5v3h-3c-0.8,0-1.5,0.7-1.5,1.5
	c0,0.8,0.7,1.5,1.5,1.5h3v3c0,0.8,0.7,1.5,1.5,1.5c0.8,0,1.5-0.7,1.5-1.5v-3h3c0.8,0,1.5-0.7,1.5-1.5
	C567.4,141.9,566.7,141.3,565.9,141.3z"/>
<g>
	<path class="st0" d="M448.2,54.4c-0.5-0.3-1.1-0.3-1.7-0.1c-0.6,0.2-1,0.6-1.3,1.1c-0.3,0.5-0.3,1.1-0.1,1.7c0.2,0.6,0.6,1,1.1,1.3
		c0.3,0.2,0.7,0.2,1,0.2c0.8,0,1.6-0.4,2-1.2c0.3-0.5,0.3-1.1,0.1-1.7C449.1,55.1,448.8,54.6,448.2,54.4z M447.9,56.7
		c-0.1,0.2-0.3,0.3-0.5,0.4c-0.2,0.1-0.4,0-0.6-0.1c-0.2-0.1-0.3-0.3-0.4-0.5c-0.1-0.2,0-0.4,0.1-0.6c0.2-0.4,0.7-0.5,1.1-0.3
		c0.2,0.1,0.3,0.3,0.4,0.5C448,56.3,448,56.5,447.9,56.7z"/>
	<path class="st0" d="M451.9,48.2c-0.1,0-0.1-0.1-0.2-0.1c0,0-0.1,0-0.1-0.1c0,0-0.1,0-0.1-0.1c-0.1,0-0.1-0.1-0.2-0.1
		c-4.3-1.9-7.9,0-9.2,1.4c-0.6,0.6-0.6,1.5,0,2.1c0.3,0.3,0.7,0.4,1,0.4c0.4,0,0.8-0.1,1.1-0.4c0.3-0.3,2.5-2.4,6-0.7
		c3.4,1.8,3,4.9,2.9,5.3c-0.1,0.8,0.4,1.6,1.2,1.7c0.1,0,0.2,0,0.3,0c0.7,0,1.3-0.5,1.5-1.2C456.4,54.6,455.9,50.5,451.9,48.2z"/>
	<path class="st0" d="M454.9,41.6c-6.6-3.4-12.2-0.4-14.2,1.6c-0.6,0.6-0.6,1.5,0,2.1c0.3,0.3,0.7,0.4,1,0.4c0.4,0,0.8-0.2,1.1-0.5
		c0,0,4.3-4.3,10.6-1.1c6.2,3.2,5.3,9,5.3,9.3c-0.1,0.8,0.4,1.6,1.2,1.7c0.1,0,0.2,0,0.3,0c0.7,0,1.3-0.5,1.5-1.2
		C462.2,51.2,461.5,45,454.9,41.6z"/>
	<path class="st0" d="M458,35.2c-11.1-5.7-18.8,2.1-18.9,2.2c-0.6,0.6-0.6,1.5,0,2.1c0.3,0.3,0.7,0.4,1,0.4c0.4,0,0.8-0.2,1.1-0.5
		c0.1-0.1,6.3-6.3,15.4-1.6c9,4.7,7.6,13.1,7.6,13.5c-0.1,0.8,0.4,1.6,1.2,1.7c0.1,0,0.2,0,0.3,0c0.7,0,1.3-0.5,1.5-1.2
		C467.1,51.8,469,40.9,458,35.2z"/>
</g>
<path class="st0" d="M311.1,422.4c-1.8,0-3.5,0.2-5.2,0.6c-0.1,0-0.1,0-0.2,0c-4.2,1-8,3-11,5.9c-0.1,0.1-0.2,0.2-0.3,0.3
	c-4.5,4.4-7.4,10.5-7.4,17.3c0,13.3,10.8,24,24,24c13.3,0,24-10.8,24-24C335.1,433.2,324.4,422.4,311.1,422.4z M332.1,445h-5.8
	c-0.3-4.2-1.5-8-3-11.2c1.3-0.6,2.4-1.3,3.1-1.7C329.6,435.5,331.7,440,332.1,445z M314.5,467.2c-0.6,0.1-1.3,0.2-1.9,0.2v-8.6
	c2.6,0.2,4.9,0.7,6.8,1.4C317.4,464,315.2,466.5,314.5,467.2z M322.2,461.5c0.9,0.5,1.7,0.9,2.3,1.2c-1.5,1.2-3.1,2.2-4.9,3
	C320.3,464.6,321.3,463.2,322.2,461.5z M307,467.1c-0.7-0.8-2.7-3.2-4.6-6.7c2-0.7,4.5-1.4,7.3-1.5v8.6
	C308.7,467.4,307.8,467.3,307,467.1z M290.1,448h5.3c0.2,4.1,1.4,7.8,2.8,11c-1.2,0.6-2.2,1.2-2.8,1.6
	C292.4,457.2,290.5,452.8,290.1,448z M295.8,432.1c0.6,0.4,1.5,1,2.6,1.5c-1.5,3.3-2.7,7.2-3,11.4h-5.3
	C290.5,440,292.6,435.5,295.8,432.1z M309.6,425.5v8.1c-2.7-0.2-5.1-0.8-7.1-1.5c1.8-3.2,3.7-5.4,4.4-6.3
	C307.8,425.7,308.7,425.5,309.6,425.5z M314.4,425.7c0.4,0.4,2.6,2.9,4.7,6.6c-1.9,0.6-4.1,1.2-6.5,1.3v-8.1
	C313.2,425.5,313.8,425.6,314.4,425.7z M319.4,427.1c1.7,0.7,3.3,1.7,4.7,2.8c-0.6,0.4-1.3,0.8-2.2,1.2
	C321.1,429.6,320.2,428.2,319.4,427.1z M309.6,455.9c-3.3,0.2-6.2,0.9-8.6,1.8c-1.3-2.9-2.3-6.2-2.6-9.8h11.2V455.9z M298.4,445
	c0.2-3.8,1.4-7.2,2.7-10.2c2.3,0.9,5.2,1.6,8.4,1.8v8.4H298.4z M312.6,436.6c3-0.2,5.7-0.8,7.9-1.6c1.4,2.9,2.5,6.4,2.8,10h-10.7
	V436.6z M299.8,430.9c-0.7-0.3-1.2-0.7-1.7-0.9c1.2-0.9,2.4-1.7,3.8-2.4C301.2,428.6,300.5,429.7,299.8,430.9z M299.6,461.7
	c0.8,1.4,1.6,2.7,2.3,3.8c-1.5-0.7-2.9-1.6-4.2-2.7C298.2,462.4,298.8,462,299.6,461.7z M312.6,455.9v-8h10.7
	c-0.2,3.5-1.3,6.8-2.6,9.7C318.5,456.8,315.7,456.1,312.6,455.9z M326.7,460.7c-0.7-0.5-1.7-1.1-3.1-1.8c1.4-3.2,2.6-6.9,2.8-10.9
	h5.8C331.8,452.8,329.8,457.3,326.7,460.7z"/>
<g>
	<path class="st0" d="M15.7,341.6c-2.9,0-5.2-2.3-5.2-5.2s2.3-5.2,5.2-5.2s5.2,2.3,5.2,5.2S18.6,341.6,15.7,341.6z M15.7,334.1
		c-1.2,0-2.3,1-2.3,2.3c0,1.2,1,2.3,2.3,2.3c1.2,0,2.3-1,2.3-2.3C17.9,335.1,16.9,334.1,15.7,334.1z"/>
</g>
<g>
	<path class="st0" d="M357.3,30c-2.9,0-5.2-2.3-5.2-5.2s2.3-5.2,5.2-5.2s5.2,2.3,5.2,5.2S360.2,30,357.3,30z M357.3,22.6
		c-1.2,0-2.3,1-2.3,2.3c0,1.2,1,2.3,2.3,2.3c1.2,0,2.3-1,2.3-2.3C359.6,23.6,358.5,22.6,357.3,22.6z"/>
</g>
<g>
	<path class="st0" d="M251.8,457.2c-2.9,0-5.2-2.3-5.2-5.2s2.3-5.2,5.2-5.2c2.9,0,5.2,2.3,5.2,5.2S254.7,457.2,251.8,457.2z
		 M251.8,449.7c-1.2,0-2.3,1-2.3,2.3c0,1.2,1,2.3,2.3,2.3c1.2,0,2.3-1,2.3-2.3C254.1,450.7,253.1,449.7,251.8,449.7z"/>
</g>
<g>
	<path class="st0" d="M78.4,79.2c0-0.1,0-0.2,0-0.3V29.1c0-0.8-0.7-1.5-1.5-1.5h-3.9v-4.7c0-0.8-0.7-1.5-1.5-1.5h-4.7v-4.3
		c0-0.8-0.7-1.5-1.5-1.5H20c-0.8,0-1.5,0.7-1.5,1.5v59.2c0,0.8,0.7,1.5,1.5,1.5h4.7v4.3c0,0.8,0.7,1.5,1.5,1.5h3.9v4.7
		c0,0.8,0.7,1.5,1.5,1.5h35.6c0.1,0,0.2,0,0.3,0c0,0,0.1,0,0.1,0c0,0,0.1,0,0.1,0c0,0,0.1,0,0.1-0.1c0,0,0.1,0,0.1-0.1
		c0,0,0.1-0.1,0.1-0.1c0,0,0.1,0,0.1-0.1l9.9-9.4c0.1-0.1,0.2-0.2,0.2-0.3c0,0,0-0.1,0-0.1C78.4,79.4,78.4,79.3,78.4,79.2z
		 M21.5,74.8V18.6h42.5v2.8H26.2c-0.8,0-1.5,0.7-1.5,1.5v52H21.5z M27.7,80.6V24.4h42.5v3.2H31.6c-0.8,0-1.5,0.7-1.5,1.5v51.5H27.7z
		 M33,30.5h42.5v46.8h-8.4c-0.8,0-1.5,0.7-1.5,1.5v7.9H33V30.5z M68.6,84.8v-4.4h4.6L68.6,84.8z"/>
	<path class="st0" d="M63.7,38.1H40.6c-0.8,0-1.5,0.7-1.5,1.5c0,0.8,0.7,1.5,1.5,1.5h23.1c0.8,0,1.5-0.7,1.5-1.5
		C65.2,38.8,64.5,38.1,63.7,38.1z"/>
	<path class="st0" d="M40.6,52.1H51c0.8,0,1.5-0.7,1.5-1.5c0-0.8-0.7-1.5-1.5-1.5H40.6c-0.8,0-1.5,0.7-1.5,1.5
		C39.1,51.4,39.8,52.1,40.6,52.1z"/>
	<path class="st0" d="M62,66.4H40.6c-0.8,0-1.5,0.7-1.5,1.5s0.7,1.5,1.5,1.5H62c0.8,0,1.5-0.7,1.5-1.5S62.8,66.4,62,66.4z"/>
	<path class="st0" d="M40.6,62.9h5.2c0.8,0,1.5-0.7,1.5-1.5c0-0.8-0.7-1.5-1.5-1.5h-5.2c-0.8,0-1.5,0.7-1.5,1.5
		C39.1,62.2,39.8,62.9,40.6,62.9z"/>
	<path class="st0" d="M62,59.9h-9.8c-0.8,0-1.5,0.7-1.5,1.5c0,0.8,0.7,1.5,1.5,1.5H62c0.8,0,1.5-0.7,1.5-1.5
		C63.5,60.6,62.8,59.9,62,59.9z"/>
</g>
<path class="st0" d="M70.5,385.5c0-0.1,0-0.1,0-0.2c0,0,0-0.1,0-0.1c0,0,0-0.1,0-0.1c0,0,0-0.1-0.1-0.1c0,0,0-0.1-0.1-0.1
	c0,0-0.1-0.1-0.1-0.1c0,0,0,0,0,0c0,0,0,0-0.1-0.1c0,0-0.1-0.1-0.1-0.1c0,0-0.1-0.1-0.1-0.1c0,0-0.1-0.1-0.1-0.1c0,0-0.1,0-0.1-0.1
	c0,0-0.1,0-0.1-0.1c0,0-0.1,0-0.1,0c0,0-0.1,0-0.1,0c-0.1,0-0.1,0-0.2,0c0,0-0.1,0-0.1,0H27.9c0,0-0.1,0-0.1,0c-0.1,0-0.1,0-0.2,0
	c0,0-0.1,0-0.1,0c-0.1,0-0.1,0-0.1,0c0,0-0.1,0-0.1,0.1c0,0-0.1,0-0.1,0.1c0,0-0.1,0.1-0.1,0.1c0,0-0.1,0.1-0.1,0.1
	c0,0-0.1,0.1-0.1,0.1c0,0,0,0-0.1,0.1c0,0,0,0,0,0c0,0-0.1,0.1-0.1,0.1c0,0,0,0.1-0.1,0.1c0,0,0,0.1-0.1,0.1c0,0,0,0.1,0,0.1
	c0,0,0,0.1,0,0.1c0,0.1,0,0.1,0,0.2c0,0,0,0,0,0v23.8c0,0.8,0.7,1.5,1.5,1.5H69c0.8,0,1.5-0.7,1.5-1.5L70.5,385.5
	C70.5,385.5,70.5,385.5,70.5,385.5z M64.6,387.1l-16.1,12.2l-16.1-12.2H64.6z M29.4,407.9v-19.3l18.2,13.7c0.3,0.2,0.6,0.3,0.9,0.3
	s0.6-0.1,0.9-0.3l18.2-13.7v19.3H29.4z"/>
<g>
	<g>
		<path class="st0" d="M351.3,513c-0.1,0-0.2,0-0.3,0c-0.6-0.1-1-0.6-1.1-1.1l-0.7-3.3h-6.6c-0.1,0-0.2,0-0.2,0
			c-0.2,0-3.8-0.7-3.8-6.4v-14.2c0-0.1,0-3.3,2.2-5.5c1.3-1.3,3-1.9,5.1-1.9h28.6c0.1,0,5.2,0.1,5.2,7.8v13.4c0,0.3,0,3.2-2,5.1
			c-1.1,1.1-2.5,1.6-4.1,1.6h-17.6l-3.3,4.1C352.2,512.8,351.7,513,351.3,513z M342.8,505.5h7.6c0.7,0,1.3,0.5,1.5,1.2l0.3,1.4
			l1.8-2.2c0.3-0.4,0.7-0.6,1.2-0.6h18.3c0.9,0,1.5-0.2,2-0.7c1.1-1.1,1.1-3,1.1-3v-13.4c0-3.7-1.4-4.8-2.2-4.8l-18.4,0
			c0,0-10.2,0-10.2,0c-4,0-4.3,3.7-4.3,4.4v14.2C341.4,504.8,342.5,505.4,342.8,505.5z"/>
	</g>
</g>
<g>
	<path class="st0" d="M554.8,320c-9,0-16.4,7.3-16.4,16.4c0,9,7.3,16.4,16.4,16.4c9,0,16.4-7.3,16.4-16.4
		C571.2,327.3,563.8,320,554.8,320z M554.8,349.7c-7.4,0-13.4-6-13.4-13.4c0-7.4,6-13.4,13.4-13.4c7.4,0,13.4,6,13.4,13.4
		C568.2,343.7,562.2,349.7,554.8,349.7z"/>
	<path class="st0" d="M554.8,325.1c-0.8,0-1.5,0.7-1.5,1.5v7.2l-6.6-3.6c-0.7-0.4-1.6-0.1-2,0.6c-0.4,0.7-0.1,1.6,0.6,2l8.8,4.8
		c0,0,0,0,0.1,0c0.1,0,0.2,0.1,0.2,0.1c0,0,0.1,0,0.1,0c0.1,0,0.2,0,0.3,0c0.1,0,0.2,0,0.4,0c0,0,0.1,0,0.1,0c0.1,0,0.2-0.1,0.2-0.1
		c0,0,0.1,0,0.1,0c0.1-0.1,0.2-0.1,0.3-0.2c0.1-0.1,0.2-0.2,0.2-0.3c0,0,0,0,0,0c0,0,0,0,0-0.1c0,0,0-0.1,0.1-0.1c0,0,0-0.1,0-0.1
		c0,0,0-0.1,0-0.1c0-0.1,0-0.1,0-0.2c0,0,0,0,0-0.1v-9.7C556.3,325.8,555.6,325.1,554.8,325.1z"/>
</g>
<path class="st0" d="M166.1,22.1c0,0-0.1-0.1-0.1-0.1c-0.1-0.1-0.1-0.1-0.2-0.1c-5.1-4-11.6-6.4-18.5-6.4
	c-16.7,0-30.3,13.6-30.3,30.3c0,16.7,13.6,30.3,30.3,30.3c16.7,0,30.3-13.6,30.3-30.3C177.5,36.2,173.1,27.7,166.1,22.1z
	 M169.9,30.5l-16.7,9.9l12.1-15.1C167,26.8,168.6,28.5,169.9,30.5z M148.7,18.5c5.3,0.3,10.2,2.1,14.2,4.9l-14.5,18.1L148.7,18.5z
	 M145.7,18.5l-0.3,25.8h-25.5C120.7,30.4,131.8,19.2,145.7,18.5z M147.2,73.1c-14.6,0-26.5-11.5-27.3-25.9h27c0.1,0,0.2,0,0.4,0
	c0,0,0.1,0,0.1,0c0.1,0,0.2-0.1,0.3-0.1c0,0,0,0,0.1,0L171.4,33c2,3.8,3.2,8.2,3.2,12.8C174.6,60.9,162.3,73.1,147.2,73.1z"/>
<g>
	<path class="st0" d="M451.7,337.8c-3.2,0-5.7,2.6-5.7,5.7c0,3.2,2.6,5.7,5.7,5.7c3.2,0,5.7-2.6,5.7-5.7
		C457.5,340.4,454.9,337.8,451.7,337.8z M451.7,346.3c-1.5,0-2.8-1.2-2.8-2.8c0-1.5,1.2-2.8,2.8-2.8c1.5,0,2.8,1.2,2.8,2.8
		C454.5,345.1,453.2,346.3,451.7,346.3z"/>
	<path class="st0" d="M451.7,358.5c-3.2,0-5.7,2.6-5.7,5.7c0,3.2,2.6,5.7,5.7,5.7c3.2,0,5.7-2.6,5.7-5.7
		C457.5,361.1,454.9,358.5,451.7,358.5z M451.7,367c-1.5,0-2.8-1.2-2.8-2.8c0-1.5,1.2-2.8,2.8-2.8c1.5,0,2.8,1.2,2.8,2.8
		C454.5,365.8,453.2,367,451.7,367z"/>
	<path class="st0" d="M451.7,379.3c-3.2,0-5.7,2.6-5.7,5.7c0,3.2,2.6,5.7,5.7,5.7c3.2,0,5.7-2.6,5.7-5.7
		C457.5,381.8,454.9,379.3,451.7,379.3z M451.7,387.7c-1.5,0-2.8-1.2-2.8-2.8c0-1.5,1.2-2.8,2.8-2.8c1.5,0,2.8,1.2,2.8,2.8
		C454.5,386.5,453.2,387.7,451.7,387.7z"/>
	<path class="st0" d="M517.6,341.8h6c0.8,0,1.5-0.7,1.5-1.5c0-0.8-0.7-1.5-1.5-1.5h-6c-0.8,0-1.5,0.7-1.5,1.5
		C516.1,341.1,516.8,341.8,517.6,341.8z"/>
	<path class="st0" d="M468.6,341.8h40.5c0.8,0,1.5-0.7,1.5-1.5c0-0.8-0.7-1.5-1.5-1.5h-40.5c-0.8,0-1.5,0.7-1.5,1.5
		C467.1,341.1,467.7,341.8,468.6,341.8z"/>
	<path class="st0" d="M468.6,348.3h28.2c0.8,0,1.5-0.7,1.5-1.5s-0.7-1.5-1.5-1.5h-28.2c-0.8,0-1.5,0.7-1.5,1.5
		S467.7,348.3,468.6,348.3z"/>
	<path class="st0" d="M468.6,383.6h16.2c0.8,0,1.5-0.7,1.5-1.5s-0.7-1.5-1.5-1.5h-16.2c-0.8,0-1.5,0.7-1.5,1.5
		S467.7,383.6,468.6,383.6z"/>
	<path class="st0" d="M523.6,380.7h-31.5c-0.8,0-1.5,0.7-1.5,1.5s0.7,1.5,1.5,1.5h31.5c0.8,0,1.5-0.7,1.5-1.5
		S524.4,380.7,523.6,380.7z"/>
	<path class="st0" d="M468.6,389.8h32.9c0.8,0,1.5-0.7,1.5-1.5c0-0.8-0.7-1.5-1.5-1.5h-32.9c-0.8,0-1.5,0.7-1.5,1.5
		C467.1,389.1,467.7,389.8,468.6,389.8z"/>
	<path class="st0" d="M468.6,362.3h14.1c0.8,0,1.5-0.7,1.5-1.5c0-0.8-0.7-1.5-1.5-1.5h-14.1c-0.8,0-1.5,0.7-1.5,1.5
		C467.1,361.6,467.7,362.3,468.6,362.3z"/>
	<path class="st0" d="M516.2,359.3h-27.4c-0.8,0-1.5,0.7-1.5,1.5c0,0.8,0.7,1.5,1.5,1.5h27.4c0.8,0,1.5-0.7,1.5-1.5
		C517.7,360,517,359.3,516.2,359.3z"/>
	<path class="st0" d="M468.6,369h30.7c0.8,0,1.5-0.7,1.5-1.5c0-0.8-0.7-1.5-1.5-1.5h-30.7c-0.8,0-1.5,0.7-1.5,1.5
		C467.1,368.4,467.7,369,468.6,369z"/>
</g>
<g>
	<path class="st0" d="M497.1,85.7h-10c-0.8,0-1.5,0.7-1.5,1.5v59.2c0,0.8,0.7,1.5,1.5,1.5h10c0.8,0,1.5-0.7,1.5-1.5V87.2
		C498.6,86.4,497.9,85.7,497.1,85.7z M488.6,100.2h7v4.1h-7V100.2z M495.6,88.7v8.5h-7v-8.5H495.6z M488.6,145v-37.7h7V145H488.6z"
		/>
	<path class="st0" d="M514.9,85.7h-10c-0.8,0-1.5,0.7-1.5,1.5v32.5v26.8c0,0.8,0.7,1.5,1.5,1.5h10c0.8,0,1.5-0.7,1.5-1.5v-26.8V87.2
		C516.4,86.4,515.7,85.7,514.9,85.7z M513.4,127.1h-7v-5.9h7V127.1z M513.4,88.7v29.5h-7V88.7H513.4z M506.4,145V130h7V145H506.4z"
		/>
	<path class="st0" d="M532.7,85.7h-10c-0.8,0-1.5,0.7-1.5,1.5v15v44.3c0,0.8,0.7,1.5,1.5,1.5h10c0.8,0,1.5-0.7,1.5-1.5v-44.3v-15
		C534.2,86.4,533.5,85.7,532.7,85.7z M531.2,111.4h-7v-7.7h7V111.4z M531.2,88.7v12h-7v-12H531.2z M524.2,145v-30.6h7V145H524.2z"/>
	<path class="st0" d="M479.3,85.7h-10c-0.8,0-1.5,0.7-1.5,1.5v15v44.3c0,0.8,0.7,1.5,1.5,1.5h10c0.8,0,1.5-0.7,1.5-1.5v-44.3v-15
		C480.8,86.4,480.1,85.7,479.3,85.7z M470.8,103.7h7v8.6h-7V103.7z M477.8,88.7v12h-7v-12H477.8z M470.8,145v-29.7h7V145H470.8z"/>
	<path class="st0" d="M461.5,85.7h-10c-0.8,0-1.5,0.7-1.5,1.5v32.5v26.8c0,0.8,0.7,1.5,1.5,1.5h10c0.8,0,1.5-0.7,1.5-1.5v-26.8V87.2
		C463,86.4,462.3,85.7,461.5,85.7z M460,130.8h-7v-9.6h7V130.8z M460,88.7v29.5h-7V88.7H460z M453,145v-11.2h7V145H453z"/>
</g>
<path class="st0" d="M127.1,562.6h-6.2v-106c0-0.7-0.6-1.3-1.3-1.3h-10c-0.7,0-1.3,0.6-1.3,1.3v13.2h-8.7c-0.7,0-1.3,0.6-1.3,1.3
	v15.6h-8.7c-0.7,0-1.3,0.6-1.3,1.3v13.6h-8.7c-0.7,0-1.3,0.6-1.3,1.3v19h-7.3V514c0-0.7-0.6-1.3-1.3-1.3h-8.7v-17
	c0-0.7-0.6-1.3-1.3-1.3h-10c-0.7,0-1.3,0.6-1.3,1.3v9.6h-7.3v-22.6c0-0.7-0.6-1.3-1.3-1.3h-10c-0.7,0-1.3,0.6-1.3,1.3v79.9h-4.1
	c-0.7,0-1.3,0.6-1.3,1.3c0,0.7,0.6,1.3,1.3,1.3h5.5h10h10h10h10h10h10h10h10h10h7.6c0.7,0,1.3-0.6,1.3-1.3
	C128.5,563.2,127.9,562.6,127.1,562.6z M30.9,484.1h7.3v22.6v55.9h-7.3V484.1z M40.9,508h7.3v54.6h-7.3V508z M50.9,506.7v-9.6h7.3
	v17v48.6h-7.3V506.7z M60.9,515.4h7.3v7.9v39.3h-7.3V515.4z M70.9,524.7h7.3v37.9h-7.3V524.7z M80.9,523.3v-19h7.3v58.2h-7.3V523.3z
	 M90.9,503v-13.6h7.3v73.2h-7.3V503z M100.9,488.1v-15.6h7.3v90.2h-7.3V488.1z M110.9,562.6v-91.5v-13.2h7.3v104.7H110.9z"/>
<path class="st0" d="M24.1,468.6c0.1,0,0.3,0,0.4-0.1l99.4-32.4l-3.1,4.3c-0.4,0.6-0.3,1.4,0.3,1.9c0.2,0.2,0.5,0.2,0.8,0.2
	c0.4,0,0.8-0.2,1.1-0.6l5.4-7.6c0.1-0.1,0.1-0.2,0.2-0.3c0,0,0,0,0-0.1c0-0.1,0.1-0.2,0.1-0.4c0,0,0,0,0-0.1c0-0.1,0-0.2-0.1-0.4
	c0-0.1-0.1-0.2-0.2-0.4c0,0,0,0,0-0.1c-0.1-0.1-0.2-0.2-0.3-0.2c0,0,0,0-0.1,0c-0.1-0.1-0.2-0.1-0.3-0.1c0,0,0,0,0,0l-9.8-2.7
	c-0.7-0.2-1.4,0.2-1.6,0.9c-0.2,0.7,0.2,1.4,0.9,1.6l5.6,1.5l-99,32.3c-0.7,0.2-1.1,1-0.9,1.7C23,468.2,23.5,468.6,24.1,468.6z"/>
<g>
	<path class="st0" d="M267.2,537c2.4,0,4.4-2,4.4-4.4c0-2.4-2-4.4-4.4-4.4c-2.4,0-4.4,2-4.4,4.4C262.8,535.1,264.8,537,267.2,537z
		 M267.2,531.2c0.8,0,1.4,0.6,1.4,1.4c0,0.8-0.6,1.4-1.4,1.4c-0.8,0-1.4-0.6-1.4-1.4C265.8,531.8,266.5,531.2,267.2,531.2z"/>
	<path class="st0" d="M289.7,537c2.4,0,4.4-2,4.4-4.4c0-2.4-2-4.4-4.4-4.4c-2.4,0-4.4,2-4.4,4.4C285.3,535.1,287.3,537,289.7,537z
		 M289.7,531.2c0.8,0,1.4,0.6,1.4,1.4c0,0.8-0.6,1.4-1.4,1.4c-0.8,0-1.4-0.6-1.4-1.4C288.3,531.8,289,531.2,289.7,531.2z"/>
	<path class="st0" d="M305.1,524h-53.2c-4.7,0-8.6,3.8-8.6,8.6v41.1c0,4.7,3.8,8.6,8.6,8.6h53.2c4.7,0,8.6-3.8,8.6-8.6v-41.1
		C313.6,527.8,309.8,524,305.1,524z M251.9,526.9h53.2c3.1,0,5.6,2.5,5.6,5.6v6h-64.3v-6C246.3,529.4,248.8,526.9,251.9,526.9z
		 M305.1,579.2h-53.2c-3.1,0-5.6-2.5-5.6-5.6v-32.1h64.3v32.1C310.7,576.7,308.2,579.2,305.1,579.2z"/>
	<path class="st0" d="M267.2,547.8h-13.7c-0.8,0-1.5,0.7-1.5,1.5v6c0,0.8,0.7,1.5,1.5,1.5h13.7c0.8,0,1.5-0.7,1.5-1.5v-6
		C268.7,548.5,268.1,547.8,267.2,547.8z M265.8,553.8h-10.7v-3.1h10.7V553.8z"/>
	<path class="st0" d="M267.2,560.4h-13.7c-0.8,0-1.5,0.7-1.5,1.5v6c0,0.8,0.7,1.5,1.5,1.5h13.7c0.8,0,1.5-0.7,1.5-1.5v-6
		C268.7,561.1,268.1,560.4,267.2,560.4z M265.8,566.5h-10.7v-3.1h10.7V566.5z"/>
	<path class="st0" d="M300.5,547.8h-13.7c-0.8,0-1.5,0.7-1.5,1.5v6c0,0.8,0.7,1.5,1.5,1.5h13.7c0.8,0,1.5-0.7,1.5-1.5v-6
		C302,548.5,301.3,547.8,300.5,547.8z M299,553.8h-10.7v-3.1H299V553.8z"/>
	<path class="st0" d="M300.5,560.4h-13.7c-0.8,0-1.5,0.7-1.5,1.5v6c0,0.8,0.7,1.5,1.5,1.5h13.7c0.8,0,1.5-0.7,1.5-1.5v-6
		C302,561.1,301.3,560.4,300.5,560.4z M299,566.5h-10.7v-3.1H299V566.5z"/>
</g>
<g>
	<path class="st0" d="M63.5,211.3c-7.2,1.4-13.5-4.2-13.5-11.2c0-7,6.3-12.6,13.5-11.2c0.8,0.2,1.6-0.4,1.7-1.2
		c0.2-0.8-0.4-1.6-1.2-1.7c-0.9-0.2-1.8-0.3-2.7-0.3c-7.9,0-14.4,6.4-14.4,14.4c0,7.9,6.4,14.4,14.4,14.4c0.9,0,1.8-0.1,2.7-0.3
		c0.8-0.2,1.3-0.9,1.2-1.7C65.1,211.7,64.3,211.2,63.5,211.3z"/>
	<path class="st0" d="M62.2,238.4H56c0-3.4,0-7.4,0-10.6c0-0.5-0.3-1-0.7-1.2c-0.2-0.1-0.4-0.3-0.6-0.3c-2.1-0.5-3.5-1.1-5.5-2.1
		c0,0-0.1,0-0.1,0c-0.1,0-0.1,0-0.2-0.1c0,0-0.1,0-0.1,0c-0.1,0-0.1,0-0.2,0c0,0-0.1,0-0.1,0c-0.1,0-0.1,0-0.2,0c0,0-0.1,0-0.1,0
		c-0.1,0-0.1,0-0.2,0c0,0,0,0-0.1,0c-0.1,0-0.1,0.1-0.2,0.1c0,0,0,0,0,0c-0.1,0-0.1,0.1-0.2,0.2c-0.1,0-0.1,0.1-0.1,0.1l-6.7,7.3
		l-10.4-9.5l6.3-6.9c0.1-0.1,0.2-0.3,0.3-0.4c0.6-0.5,0.7-1.3,0.3-1.9c-1.2-1.9-1.7-3.2-2.4-5.3c-0.1-0.3-0.3-0.6-0.6-0.8
		c-0.3-0.3-0.6-0.4-1-0.4H23v-6.8v-0.3v-6.8h10.2c0.4,0,0.8-0.2,1.1-0.4c0.3-0.2,0.5-0.5,0.6-0.8c0.6-2.1,1.2-3.3,2.4-5.3
		c0.4-0.6,0.2-1.5-0.3-1.9c-0.1-0.1-0.1-0.3-0.3-0.4l-6.3-6.9l10.4-9.5l6.5,7.3c0.5,0.6,1.4,0.6,2,0.2l0.1,0.1c2-1,3.3-1.6,5.4-2.1
		c0,0,0.1,0,0.1,0c0.8,0,1.5-0.7,1.5-1.5c0-1.8,0-4.1-0.1-6.3c0-1.4-0.1-2.9-0.1-4.3c1.9,0,3.9,0,5.9,0.2c0.8,0.1,1.5-0.6,1.6-1.4
		c0.1-0.8-0.6-1.5-1.4-1.6c-2.7-0.2-5.2-0.2-7.7-0.2c-0.8,0-1.5,0.7-1.5,1.5c0,1.8,0,3.8,0.1,5.8c0,1.7,0.1,3.4,0.1,5
		c-1.7,0.4-3,1-4.5,1.7l-6.8-7.6c-0.3-0.3-0.6-0.5-1-0.5c-0.4,0-0.8,0.1-1.1,0.4l-12.6,11.6c-0.3,0.3-0.5,0.6-0.5,1
		c0,0.4,0.1,0.8,0.4,1.1l7,7.7c-0.8,1.4-1.3,2.6-1.8,4.1H21.5c-0.8,0-1.5,0.7-1.5,1.5v8.3v0.3v8.3c0,0.8,0.7,1.5,1.5,1.5h10.8
		c0.5,1.5,1,2.7,1.8,4.1l-7,7.7c-0.3,0.3-0.4,0.7-0.4,1.1c0,0.4,0.2,0.8,0.5,1l12.6,11.6c0.3,0.3,0.6,0.4,1,0.4
		c0.4,0,0.8-0.2,1.1-0.5l7-7.6c1.4,0.7,2.6,1.2,4.2,1.6c0,3.4,0,7.6,0,10.9c0,0.8,0.7,1.5,1.5,1.5h7.7c0.8,0,1.5-0.7,1.5-1.5
		C63.7,239,63.1,238.4,62.2,238.4z"/>
</g>
<g>
	<path class="st0" d="M64.3,307.2c-0.2-0.8-0.9-1.3-1.7-1.2c-0.6,0.1-1.2,0.2-1.8,0.2c-2.5,0-4.8-1-6.5-2.7
		c-1.8-1.7-2.7-4.1-2.7-6.5c0-2.5,0.9-4.8,2.7-6.5c1.7-1.8,4.1-2.7,6.5-2.7c0.6,0,1.2,0.1,1.8,0.2c0.8,0.1,1.6-0.4,1.7-1.2
		c0.2-0.8-0.4-1.6-1.2-1.7c-0.8-0.1-1.5-0.2-2.3-0.2c-3.3,0-6.3,1.3-8.6,3.6c-2.3,2.3-3.6,5.4-3.5,8.7c0,3.3,1.3,6.3,3.6,8.6
		c2.3,2.3,5.4,3.5,8.6,3.5c0,0,0,0,0,0c0.8,0,1.5-0.1,2.3-0.2C63.9,308.8,64.4,308.1,64.3,307.2z"/>
	<path class="st0" d="M61.6,328.6c0,0-4.9,0-4.9,0c0-2.8,0-6,0-8.6c0-0.5-0.3-1-0.7-1.2c-0.2-0.1-0.4-0.2-0.6-0.3
		c-1.7-0.4-2.9-0.9-4.5-1.7l0,0c0,0,0,0-0.1,0c-0.1,0-0.1,0-0.2-0.1c0,0-0.1,0-0.1,0c-0.1,0-0.1,0-0.2,0c0,0-0.1,0-0.1,0
		c-0.1,0-0.1,0-0.2,0c0,0,0,0-0.1,0c-0.3,0.1-0.6,0.2-0.9,0.5l-5.4,5.9l-8.3-7.6l5.1-5.6c0.1-0.1,0.2-0.2,0.2-0.3
		c0.5-0.5,0.7-1.3,0.3-1.9c-1-1.6-1.4-2.6-2-4.3c-0.1-0.3-0.3-0.6-0.6-0.8c-0.3-0.3-0.6-0.4-1-0.4c0,0-8.3,0-8.3,0l0-5.6l0-5.4
		l8.3,0c0.4,0,0.8-0.2,1-0.4c0.3-0.2,0.5-0.5,0.6-0.8c0.5-1.7,1-2.7,1.9-4.3c0.4-0.6,0.2-1.4-0.3-1.9c-0.1-0.1-0.1-0.2-0.2-0.3
		l-5.1-5.5l8.2-7.6l5.3,5.8c0.5,0.6,1.3,0.6,1.9,0.2l0,0.1c1.6-0.8,2.7-1.4,4.4-1.7c0,0,0,0,0.1,0c0.8,0,1.5-0.7,1.5-1.5
		c0-1.5,0-3.4-0.1-5.2c0-1.1,0-2.3-0.1-3.3c1.5,0,3.1,0,4.7,0.1c0.8,0,1.5-0.6,1.6-1.4c0.1-0.8-0.6-1.5-1.4-1.6
		c-2.2-0.2-4.3-0.1-6.4-0.1c-0.8,0-1.5,0.7-1.5,1.5c0,1.5,0,3.2,0.1,4.9c0,1.3,0.1,2.7,0.1,3.9c-1.3,0.4-2.3,0.8-3.4,1.3l-5.6-6.2
		c-0.3-0.3-0.6-0.5-1-0.5c-0.4,0-0.8,0.1-1.1,0.4L32,276.6c-0.3,0.3-0.5,0.6-0.5,1c0,0.4,0.1,0.8,0.4,1.1l5.8,6.2
		c-0.6,1.1-1,2-1.4,3.2l-8.8,0c-0.8,0-1.5,0.7-1.5,1.5l0,7.1c0,0,0,6.9,0,6.9c0,0.4,0.2,0.8,0.4,1.1c0.3,0.3,0.7,0.4,1,0.4
		c0,0,8.8,0,8.8,0c0.4,1.2,0.8,2.1,1.4,3.2l-5.7,6.3c-0.3,0.3-0.4,0.7-0.4,1.1c0,0.4,0.2,0.8,0.5,1l10.5,9.6c0.3,0.3,0.6,0.4,1,0.4
		c0.4,0,0.8-0.2,1.1-0.5l5.7-6.2c1,0.5,2,0.9,3.2,1.2c0,2.8,0,6.2,0,8.9c0,0.8,0.7,1.5,1.5,1.5c0,0,6.4,0,6.4,0
		c0.8,0,1.5-0.7,1.5-1.5C63.1,329.3,62.4,328.6,61.6,328.6z"/>
</g>
<g>
	<path class="st0" d="M107.2,361.5c4.8,0,8.7-3.9,8.7-8.7c0-0.5-0.1-1.1-0.2-1.6c-0.2-0.8-0.9-1.3-1.7-1.2c-0.8,0.2-1.3,0.9-1.2,1.7
		c0.1,0.4,0.1,0.7,0.1,1.1c0,3.1-2.5,5.7-5.7,5.7c-3.1,0-5.7-2.5-5.7-5.7c0-0.4,0-0.7,0.1-1.1c0.2-0.8-0.4-1.6-1.2-1.7
		c-0.8-0.2-1.6,0.4-1.7,1.2c-0.1,0.5-0.2,1.1-0.2,1.6C98.6,357.6,102.5,361.5,107.2,361.5z"/>
	<path class="st0" d="M129.3,350.8c-0.8,0-1.5,0.7-1.5,1.5v2.8c-1.8,0-3.7,0-5.2,0c-0.5,0-1,0.3-1.2,0.7c-0.1,0.2-0.2,0.4-0.3,0.6
		c-0.2,1.1-0.6,1.8-1.1,2.9c0,0,0,0.1,0,0.1c0,0.1,0,0.1-0.1,0.2c0,0,0,0.1,0,0.1c0,0.1,0,0.1,0,0.2c0,0,0,0.1,0,0.1
		c0,0.1,0,0.1,0,0.2c0,0,0,0.1,0,0.1c0,0.1,0,0.1,0.1,0.2c0.1,0.3,0.2,0.5,0.4,0.6l3.6,3.3l-4.4,4.8l-3.3-3.1
		c-0.1-0.1-0.2-0.1-0.3-0.2c-0.5-0.5-1.2-0.6-1.8-0.2c-1,0.6-1.7,0.9-2.8,1.2c-0.3,0.1-0.6,0.3-0.8,0.6c-0.2,0.3-0.4,0.6-0.4,1v5
		H107h-0.1h-3.1v-5c0-0.4-0.1-0.7-0.4-1c-0.2-0.3-0.4-0.5-0.8-0.6c-1.1-0.3-1.7-0.6-2.8-1.2c-0.6-0.4-1.3-0.2-1.8,0.2
		c-0.1,0.1-0.2,0.1-0.3,0.2l-3.3,3.1l-4.4-4.8l3.5-3.2c0.5-0.5,0.6-1.3,0.3-1.9l0.1,0c-0.5-1.1-0.9-1.8-1.1-2.8
		c0-0.8-0.7-1.5-1.5-1.5c-1,0-2.3,0-3.5,0c-0.6,0-1.1,0-1.7,0c0-0.9,0-1.7,0.1-2.6c0.1-0.8-0.6-1.5-1.4-1.6c-0.8,0-1.5,0.6-1.6,1.4
		c-0.1,1.5-0.1,2.9-0.1,4.3c0,0.8,0.7,1.5,1.5,1.5c1,0,2.1,0,3.3,0c0.8,0,1.5,0,2.2,0c0.2,0.6,0.4,1.1,0.7,1.7l-3.9,3.5
		c-0.3,0.3-0.5,0.6-0.5,1c0,0.4,0.1,0.8,0.4,1.1l6.4,7c0.3,0.3,0.6,0.5,1,0.5c0,0,0,0,0.1,0c0.4,0,0.7-0.1,1-0.4l3.9-3.6
		c0.5,0.3,1,0.5,1.5,0.7v5.6c0,0.8,0.7,1.5,1.5,1.5h4.6h0.1h4.6c0.8,0,1.5-0.7,1.5-1.5v-5.6c0.5-0.2,1-0.4,1.5-0.7l3.9,3.6
		c0.3,0.3,0.6,0.4,1,0.4c0,0,0,0,0.1,0c0.4,0,0.8-0.2,1-0.5l6.4-7c0.6-0.6,0.5-1.5-0.1-2.1l-3.9-3.6c0.2-0.5,0.4-1,0.6-1.5
		c1.8,0,3.9,0,5.6,0c0.8,0,1.5-0.7,1.5-1.5v-4.3C130.8,351.5,130.2,350.8,129.3,350.8z"/>
</g>
<g>
	<path class="st0" d="M413.1,96.5c-2.3,0-4.1-1.8-4.1-4.1c0-2.3,1.8-4.1,4.1-4.1c2.3,0,4.1,1.8,4.1,4.1
		C417.2,94.6,415.4,96.5,413.1,96.5z M413.1,91.3c-0.6,0-1.1,0.5-1.1,1.1c0,0.6,0.5,1.1,1.1,1.1c0.6,0,1.1-0.5,1.1-1.1
		C414.2,91.8,413.7,91.3,413.1,91.3z"/>
</g>
<g>
	<path class="st0" d="M413.1,85.2c-2.3,0-4.1-1.8-4.1-4.1c0-2.3,1.8-4.1,4.1-4.1c2.3,0,4.1,1.8,4.1,4.1
		C417.2,83.3,415.4,85.2,413.1,85.2z M413.1,79.9c-0.6,0-1.1,0.5-1.1,1.1c0,0.6,0.5,1.1,1.1,1.1c0.6,0,1.1-0.5,1.1-1.1
		C414.2,80.4,413.7,79.9,413.1,79.9z"/>
</g>
<g>
	<path class="st0" d="M413.1,73.8c-2.3,0-4.1-1.8-4.1-4.1c0-2.3,1.8-4.1,4.1-4.1c2.3,0,4.1,1.8,4.1,4.1
		C417.2,72,415.4,73.8,413.1,73.8z M413.1,68.6c-0.6,0-1.1,0.5-1.1,1.1c0,0.6,0.5,1.1,1.1,1.1c0.6,0,1.1-0.5,1.1-1.1
		C414.2,69.1,413.7,68.6,413.1,68.6z"/>
</g>
<g>
	<path class="st0" d="M413.1,62.5c-2.3,0-4.1-1.8-4.1-4.1c0-2.3,1.8-4.1,4.1-4.1c2.3,0,4.1,1.8,4.1,4.1
		C417.2,60.7,415.4,62.5,413.1,62.5z M413.1,57.3c-0.6,0-1.1,0.5-1.1,1.1c0,0.6,0.5,1.1,1.1,1.1c0.6,0,1.1-0.5,1.1-1.1
		C414.2,57.8,413.7,57.3,413.1,57.3z"/>
</g>
<g>
	<path class="st0" d="M182.8,95.8h-26.6c-0.8,0-1.5-0.7-1.5-1.5s0.7-1.5,1.5-1.5h26.6c0.8,0,1.5,0.7,1.5,1.5S183.6,95.8,182.8,95.8z
		"/>
</g>
<g>
	<path class="st0" d="M147.2,95.8h-11.5c-0.8,0-1.5-0.7-1.5-1.5s0.7-1.5,1.5-1.5h11.5c0.8,0,1.5,0.7,1.5,1.5S148,95.8,147.2,95.8z"
		/>
</g>
<g>
	<path class="st0" d="M187.4,82.5h-13.3c-0.8,0-1.5-0.7-1.5-1.5s0.7-1.5,1.5-1.5h13.3c0.8,0,1.5,0.7,1.5,1.5S188.2,82.5,187.4,82.5z
		"/>
</g>
<g>
	<path class="st0" d="M289.2,499.8h-23.5c-0.8,0-1.5-0.7-1.5-1.5c0-0.8,0.7-1.5,1.5-1.5h23.5c0.8,0,1.5,0.7,1.5,1.5
		C290.7,499.2,290,499.8,289.2,499.8z"/>
</g>
<g>
	<path class="st0" d="M284.2,488.4h-6.7c-0.8,0-1.5-0.7-1.5-1.5c0-0.8,0.7-1.5,1.5-1.5h6.7c0.8,0,1.5,0.7,1.5,1.5
		C285.7,487.8,285,488.4,284.2,488.4z"/>
</g>
<g>
	<path class="st0" d="M54.3,133.8h-8.2c-0.8,0-1.5-0.7-1.5-1.5c0-0.8,0.7-1.5,1.5-1.5h8.2c0.8,0,1.5,0.7,1.5,1.5
		C55.8,133.1,55.1,133.8,54.3,133.8z M37.1,133.8h-8.9c-0.8,0-1.5-0.7-1.5-1.5c0-0.8,0.7-1.5,1.5-1.5h8.9c0.8,0,1.5,0.7,1.5,1.5
		C38.6,133.1,37.9,133.8,37.1,133.8z"/>
</g>
<g>
	<path class="st0" d="M153.6,386.7c-0.8,0-1.5-0.7-1.5-1.5v-8.9c0-0.8,0.7-1.5,1.5-1.5s1.5,0.7,1.5,1.5v8.9
		C155.1,386,154.4,386.7,153.6,386.7z M153.6,368.8c-0.8,0-1.5-0.7-1.5-1.5v-8.9c0-0.8,0.7-1.5,1.5-1.5s1.5,0.7,1.5,1.5v8.9
		C155.1,368.1,154.4,368.8,153.6,368.8z"/>
</g>
<g>
	<path class="st0" d="M142.8,400.5h-8.9c-0.8,0-1.5-0.7-1.5-1.5c0-0.8,0.7-1.5,1.5-1.5h8.9c0.8,0,1.5,0.7,1.5,1.5
		C144.3,399.9,143.6,400.5,142.8,400.5z M124.9,400.5H116c-0.8,0-1.5-0.7-1.5-1.5c0-0.8,0.7-1.5,1.5-1.5h8.9c0.8,0,1.5,0.7,1.5,1.5
		C126.4,399.9,125.7,400.5,124.9,400.5z M107,400.5h-8.9c-0.8,0-1.5-0.7-1.5-1.5c0-0.8,0.7-1.5,1.5-1.5h8.9c0.8,0,1.5,0.7,1.5,1.5
		C108.5,399.9,107.9,400.5,107,400.5z M89.2,400.5h-8.9c-0.8,0-1.5-0.7-1.5-1.5c0-0.8,0.7-1.5,1.5-1.5h8.9c0.8,0,1.5,0.7,1.5,1.5
		C90.7,399.9,90,400.5,89.2,400.5z"/>
</g>
<g>
	<path class="st0" d="M48.5,379.9c-0.8,0-1.5-0.7-1.5-1.5v-1.7c0-0.8,0.7-1.5,1.5-1.5c0.8,0,1.5,0.7,1.5,1.5v1.7
		C50,379.2,49.3,379.9,48.5,379.9z M48.5,369.2c-0.8,0-1.5-0.7-1.5-1.5v-8.9c0-0.8,0.7-1.5,1.5-1.5c0.8,0,1.5,0.7,1.5,1.5v8.9
		C50,368.6,49.3,369.2,48.5,369.2z M42.6,357.2h-8.9c-0.8,0-1.5-0.7-1.5-1.5c0-0.8,0.7-1.5,1.5-1.5h8.9c0.8,0,1.5,0.7,1.5,1.5
		C44.1,356.5,43.5,357.2,42.6,357.2z M24.8,357.2h-8.9c-0.8,0-1.5-0.7-1.5-1.5c0-0.8,0.7-1.5,1.5-1.5h8.9c0.8,0,1.5,0.7,1.5,1.5
		C26.3,356.5,25.6,357.2,24.8,357.2z"/>
</g>
<g>
	<path class="st0" d="M97.2,93.9c-0.8,0-1.5-0.7-1.5-1.5v-8.9c0-0.8,0.7-1.5,1.5-1.5c0.8,0,1.5,0.7,1.5,1.5v8.9
		C98.7,93.2,98,93.9,97.2,93.9z M97.2,76c-0.8,0-1.5-0.7-1.5-1.5v-8.9c0-0.8,0.7-1.5,1.5-1.5c0.8,0,1.5,0.7,1.5,1.5v8.9
		C98.7,75.3,98,76,97.2,76z M97.2,58.1c-0.8,0-1.5-0.7-1.5-1.5v-7.4c0-0.8,0.7-1.5,1.5-1.5h1.5c0.8,0,1.5,0.7,1.5,1.5
		c0,0.8-0.7,1.5-1.5,1.5c0,0,0,6,0,6C98.7,57.5,98,58.1,97.2,58.1z M110.6,50.7h-3c-0.8,0-1.5-0.7-1.5-1.5c0-0.8,0.7-1.5,1.5-1.5h3
		c0.8,0,1.5,0.7,1.5,1.5C112.1,50,111.4,50.7,110.6,50.7z"/>
</g>
<g>
	<path class="st0" d="M303.3,516.6c-0.8,0-1.5-0.7-1.5-1.5v-2.8c0-0.8,0.7-1.5,1.5-1.5c0.8,0,1.5,0.7,1.5,1.5v2.8
		C304.8,516,304.1,516.6,303.3,516.6z M303.3,504.9c-0.8,0-1.5-0.7-1.5-1.5v-8.9c0-0.8,0.7-1.5,1.5-1.5c0.8,0,1.5,0.7,1.5,1.5v8.9
		C304.8,504.2,304.1,504.9,303.3,504.9z M303.3,487c-0.8,0-1.5-0.7-1.5-1.5v-8.9c0-0.8,0.7-1.5,1.5-1.5c0.8,0,1.5,0.7,1.5,1.5v8.9
		C304.8,486.3,304.1,487,303.3,487z"/>
</g>
<g>
	<path class="st0" d="M359,470.4c-0.8,0-1.5-0.7-1.5-1.5V460c0-0.8,0.7-1.5,1.5-1.5c0.8,0,1.5,0.7,1.5,1.5v8.9
		C360.5,469.7,359.8,470.4,359,470.4z M359,452.5c-0.8,0-1.5-0.7-1.5-1.5v-8.9c0-0.8,0.7-1.5,1.5-1.5c0.8,0,1.5,0.7,1.5,1.5v8.9
		C360.5,451.9,359.8,452.5,359,452.5z M350.5,443.2h-8.9c-0.8,0-1.5-0.7-1.5-1.5s0.7-1.5,1.5-1.5h8.9c0.8,0,1.5,0.7,1.5,1.5
		S351.3,443.2,350.5,443.2z"/>
</g>
<g>
	<path class="st0" d="M338.2,569.5h-5.4c-0.8,0-1.5-0.7-1.5-1.5c0-0.8,0.7-1.5,1.5-1.5h5.4c0.8,0,1.5,0.7,1.5,1.5
		C339.7,568.9,339,569.5,338.2,569.5z M326.8,569.5h-6c-0.8,0-1.5-0.7-1.5-1.5c0-0.8,0.7-1.5,1.5-1.5h6c0.8,0,1.5,0.7,1.5,1.5
		C328.3,568.9,327.6,569.5,326.8,569.5z"/>
</g>
<g>
	<path class="st0" d="M369.7,569.5h-6c-0.8,0-1.5-0.7-1.5-1.5c0-0.8,0.7-1.5,1.5-1.5h6c0.8,0,1.5,0.7,1.5,1.5
		C371.2,568.9,370.5,569.5,369.7,569.5z"/>
</g>
<g>
	<path class="st0" d="M359.7,539.4h-8.2c-0.8,0-1.5-0.7-1.5-1.5c0-0.8,0.7-1.5,1.5-1.5h8.2c0.8,0,1.5,0.7,1.5,1.5
		C361.2,538.7,360.6,539.4,359.7,539.4z M343.4,539.4h-8.2c-0.8,0-1.5-0.7-1.5-1.5c0-0.8,0.7-1.5,1.5-1.5h8.2c0.8,0,1.5,0.7,1.5,1.5
		C344.9,538.7,344.2,539.4,343.4,539.4z M327,539.4h-8.2c-0.8,0-1.5-0.7-1.5-1.5c0-0.8,0.7-1.5,1.5-1.5h8.2c0.8,0,1.5,0.7,1.5,1.5
		C328.5,538.7,327.8,539.4,327,539.4z M363.7,535.2c-0.8,0-1.5-0.7-1.5-1.5v-8.2c0-0.8,0.7-1.5,1.5-1.5s1.5,0.7,1.5,1.5v8.2
		C365.2,534.5,364.5,535.2,363.7,535.2z M363.7,518.8c-0.8,0-1.5-0.7-1.5-1.5v-3.6c0-0.8,0.7-1.5,1.5-1.5s1.5,0.7,1.5,1.5v3.6
		C365.2,518.1,364.5,518.8,363.7,518.8z"/>
</g>
<g>
	<path class="st0" d="M205.6,69.4c-0.8,0-1.5-0.7-1.5-1.5v-4.1c0-0.8,0.7-1.5,1.5-1.5c0.8,0,1.5,0.7,1.5,1.5v4.1
		C207.1,68.7,206.4,69.4,205.6,69.4z M205.6,57.1c-0.8,0-1.5-0.7-1.5-1.5v-4.9h-0.3c-0.8,0-1.5-0.7-1.5-1.5c0-0.8,0.7-1.5,1.5-1.5
		h1.8c0.8,0,1.5,0.7,1.5,1.5v6.4C207.1,56.4,206.4,57.1,205.6,57.1z M195.6,50.7h-8.2c-0.8,0-1.5-0.7-1.5-1.5c0-0.8,0.7-1.5,1.5-1.5
		h8.2c0.8,0,1.5,0.7,1.5,1.5C197.1,50,196.4,50.7,195.6,50.7z"/>
</g>
<g>
	<path class="st0" d="M474.3,80.4c-0.8,0-1.5-0.7-1.5-1.5v-4.4c0-0.8,0.7-1.5,1.5-1.5c0.8,0,1.5,0.7,1.5,1.5v4.4
		C475.8,79.7,475.1,80.4,474.3,80.4z M468.3,73.8h-8.2c-0.8,0-1.5-0.7-1.5-1.5s0.7-1.5,1.5-1.5h8.2c0.8,0,1.5,0.7,1.5,1.5
		S469.1,73.8,468.3,73.8z M451.9,73.8h-8.2c-0.8,0-1.5-0.7-1.5-1.5s0.7-1.5,1.5-1.5h8.2c0.8,0,1.5,0.7,1.5,1.5
		S452.7,73.8,451.9,73.8z M435.5,73.8h-8.2c-0.8,0-1.5-0.7-1.5-1.5s0.7-1.5,1.5-1.5h8.2c0.8,0,1.5,0.7,1.5,1.5
		S436.4,73.8,435.5,73.8z"/>
</g>
<g>
	<path class="st0" d="M561.5,130.1c-0.8,0-1.5-0.7-1.5-1.5v-3.9c0-0.8,0.7-1.5,1.5-1.5c0.8,0,1.5,0.7,1.5,1.5v3.9
		C562.9,129.4,562.3,130.1,561.5,130.1z M561.5,118c-0.8,0-1.5-0.7-1.5-1.5v-1.9h-3.3c-0.8,0-1.5-0.7-1.5-1.5c0-0.8,0.7-1.5,1.5-1.5
		h4.8c0.8,0,1.5,0.7,1.5,1.5v3.4C562.9,117.3,562.3,118,561.5,118z M548.4,114.6h-8.2c-0.8,0-1.5-0.7-1.5-1.5c0-0.8,0.7-1.5,1.5-1.5
		h8.2c0.8,0,1.5,0.7,1.5,1.5C549.9,114,549.3,114.6,548.4,114.6z"/>
</g>
<g>
	<path class="st0" d="M561.5,163.3c-0.8,0-1.5-0.7-1.5-1.5v-6c0-0.8,0.7-1.5,1.5-1.5c0.8,0,1.5,0.7,1.5,1.5v6
		C562.9,162.6,562.3,163.3,561.5,163.3z"/>
</g>
<g>
	<path class="st0" d="M480.2,332.5c-0.8,0-1.5-0.7-1.5-1.5v-8.2c0-0.8,0.7-1.5,1.5-1.5c0.8,0,1.5,0.7,1.5,1.5v8.2
		C481.6,331.8,481,332.5,480.2,332.5z M476.6,319.6h-8.2c-0.8,0-1.5-0.7-1.5-1.5s0.7-1.5,1.5-1.5h8.2c0.8,0,1.5,0.7,1.5,1.5
		S477.4,319.6,476.6,319.6z M460.2,319.6H452c-0.8,0-1.5-0.7-1.5-1.5s0.7-1.5,1.5-1.5h8.2c0.8,0,1.5,0.7,1.5,1.5
		S461,319.6,460.2,319.6z M443.8,319.6h-8.2c-0.8,0-1.5-0.7-1.5-1.5s0.7-1.5,1.5-1.5h8.2c0.8,0,1.5,0.7,1.5,1.5
		S444.6,319.6,443.8,319.6z"/>
</g>
<g>
	<path class="st0" d="M561,377.7h-8.2c-0.8,0-1.5-0.7-1.5-1.5c0-0.8,0.7-1.5,1.5-1.5h8.2c0.8,0,1.5,0.7,1.5,1.5
		C562.5,377.1,561.9,377.7,561,377.7z M544.6,377.7h-8.2c-0.8,0-1.5-0.7-1.5-1.5c0-0.8,0.7-1.5,1.5-1.5h8.2c0.8,0,1.5,0.7,1.5,1.5
		C546.1,377.1,545.5,377.7,544.6,377.7z M565.9,374.4c-0.8,0-1.5-0.7-1.5-1.5v-8.2c0-0.8,0.7-1.5,1.5-1.5c0.8,0,1.5,0.7,1.5,1.5v8.2
		C567.4,373.7,566.7,374.4,565.9,374.4z"/>
</g>
<g>
	<path class="st0" d="M226.8,410.9h-56.9c-0.8,0-1.5-0.7-1.5-1.5s0.7-1.5,1.5-1.5h56.9c0.8,0,1.5,0.7,1.5,1.5
		S227.7,410.9,226.8,410.9z"/>
</g>
<g>
	<path class="st0" d="M265.8,410.9h-21.6c-0.8,0-1.5-0.7-1.5-1.5s0.7-1.5,1.5-1.5h21.6c0.8,0,1.5,0.7,1.5,1.5
		S266.6,410.9,265.8,410.9z"/>
</g>
<g>
	<path class="st0" d="M270.5,426.3h-84.7c-0.8,0-1.5-0.7-1.5-1.5s0.7-1.5,1.5-1.5h84.7c0.8,0,1.5,0.7,1.5,1.5
		S271.4,426.3,270.5,426.3z"/>
</g>
<g>
	<path class="st0" d="M134,577.1h-21c-0.7,0-1.3-0.6-1.3-1.3s0.6-1.3,1.3-1.3h21c0.7,0,1.3,0.6,1.3,1.3S134.8,577.1,134,577.1z"/>
</g>
<g>
	<path class="st0" d="M99.6,577.1H86.9c-0.7,0-1.3-0.6-1.3-1.3s0.6-1.3,1.3-1.3h12.6c0.7,0,1.3,0.6,1.3,1.3S100.3,577.1,99.6,577.1z
		"/>
</g>
<g>
	<path class="st0" d="M90.9,584.9H63.1c-0.7,0-1.3-0.6-1.3-1.3s0.6-1.3,1.3-1.3h27.8c0.7,0,1.3,0.6,1.3,1.3S91.7,584.9,90.9,584.9z"
		/>
</g>
<g>
	<path class="st0" d="M41.4,101.1H27.3c-0.8,0-1.5-0.7-1.5-1.5c0-0.8,0.7-1.5,1.5-1.5h14.1c0.8,0,1.5,0.7,1.5,1.5
		C42.9,100.4,42.2,101.1,41.4,101.1z"/>
</g>
<g>
	<path class="st0" d="M48.9,108.8H37.2c-0.8,0-1.5-0.7-1.5-1.5s0.7-1.5,1.5-1.5h11.7c0.8,0,1.5,0.7,1.5,1.5S49.7,108.8,48.9,108.8z"
		/>
</g>
<g>
	<path class="st0" d="M514.9,314.8h-7.1c-0.8,0-1.5-0.7-1.5-1.5c0-0.8,0.7-1.5,1.5-1.5h7.1c0.8,0,1.5,0.7,1.5,1.5
		C516.4,314.2,515.7,314.8,514.9,314.8z"/>
</g>
<g>
	<path class="st0" d="M543.3,314.8h-18.6c-0.8,0-1.5-0.7-1.5-1.5c0-0.8,0.7-1.5,1.5-1.5h18.6c0.8,0,1.5,0.7,1.5,1.5
		C544.8,314.2,544.2,314.8,543.3,314.8z"/>
</g>
<g>
	<path class="st0" d="M526,322.5h-14.6c-0.8,0-1.5-0.7-1.5-1.5s0.7-1.5,1.5-1.5H526c0.8,0,1.5,0.7,1.5,1.5S526.8,322.5,526,322.5z"
		/>
</g>
<g>
	<path class="st0" d="M407.6,363.1h-10.4c-0.8,0-1.5-0.7-1.5-1.5s0.7-1.5,1.5-1.5h10.4c0.8,0,1.5,0.7,1.5,1.5
		S408.4,363.1,407.6,363.1z"/>
</g>
<g>
	<path class="st0" d="M429.2,363.1h-11c-0.8,0-1.5-0.7-1.5-1.5s0.7-1.5,1.5-1.5h11c0.8,0,1.5,0.7,1.5,1.5S430,363.1,429.2,363.1z"/>
</g>
<g>
	<path class="st0" d="M363.7,422.7h-9.5c-0.8,0-1.5-0.7-1.5-1.5c0-0.8,0.7-1.5,1.5-1.5h9.5c0.8,0,1.5,0.7,1.5,1.5
		C365.2,422,364.5,422.7,363.7,422.7z"/>
</g>
<g>
	<path class="st0" d="M346.4,423h-5.2c-0.8,0-1.5-0.7-1.5-1.5s0.7-1.5,1.5-1.5h5.2c0.8,0,1.5,0.7,1.5,1.5S347.2,423,346.4,423z"/>
</g>
<g>
	<path class="st0" d="M363.7,412.3h-15.5c-0.8,0-1.5-0.7-1.5-1.5c0-0.8,0.7-1.5,1.5-1.5h15.5c0.8,0,1.5,0.7,1.5,1.5
		C365.2,411.6,364.5,412.3,363.7,412.3z"/>
</g>
<path class="st0" d="M371.8,250.8c0-2.9-2.3-5.2-5.2-5.2c-2.9,0-5.2,2.3-5.2,5.2c0,2.9,2.3,5.2,5.2,5.2
	C369.5,256,371.8,253.7,371.8,250.8z M366.6,253.1c-1.2,0-2.3-1-2.3-2.3c0-1.2,1-2.3,2.3-2.3c1.2,0,2.3,1,2.3,2.3
	C368.8,252,367.8,253.1,366.6,253.1z"/>
<path class="st0" d="M334.9,393.7h-7.5c-0.8,0-1.5,0.7-1.5,1.5s0.7,1.5,1.5,1.5h7.5c0.8,0,1.5-0.7,1.5-1.5S335.7,393.7,334.9,393.7z
	"/>
<path class="st0" d="M206.5,211.2h3v3c0,0.8,0.7,1.5,1.5,1.5c0.8,0,1.5-0.7,1.5-1.5v-3h3c0.8,0,1.5-0.7,1.5-1.5
	c0-0.8-0.7-1.5-1.5-1.5h-3v-3c0-0.8-0.7-1.5-1.5-1.5c-0.8,0-1.5,0.7-1.5,1.5v3h-3c-0.8,0-1.5,0.7-1.5,1.5
	C205,210.5,205.7,211.2,206.5,211.2z"/>
<path class="st0" d="M310.3,216.2l-3.7,3.4v-3.3c0-0.8-0.7-1.5-1.5-1.5h-21.7c-0.8,0-1.5,0.7-1.5,1.5v21.7c0,0.8,0.7,1.5,1.5,1.5
	h21.7c0.8,0,1.5-0.7,1.5-1.5v-14.5l5.7-5.2c0.6-0.6,0.7-1.5,0.1-2.1C311.8,215.7,310.9,215.7,310.3,216.2z M303.6,222.3l-8.8,8
	l-4.9-5.4c-0.5-0.6-1.5-0.7-2.1-0.1c-0.6,0.5-0.7,1.5-0.1,2.1l5.9,6.5c0.3,0.3,0.6,0.5,1,0.5c0,0,0.1,0,0.1,0c0.4,0,0.7-0.1,1-0.4
	l7.9-7.2v10.3h-18.8v-18.8h18.8V222.3z"/>
<path class="st0" d="M310.3,177l-3.7,3.4v-3.3c0-0.8-0.7-1.5-1.5-1.5h-21.7c-0.8,0-1.5,0.7-1.5,1.5v21.7c0,0.8,0.7,1.5,1.5,1.5h21.7
	c0.8,0,1.5-0.7,1.5-1.5v-14.5l5.7-5.2c0.6-0.6,0.7-1.5,0.1-2.1C311.8,176.5,310.9,176.5,310.3,177z M303.6,183.1l-8.8,8l-4.9-5.4
	c-0.5-0.6-1.5-0.7-2.1-0.1c-0.6,0.5-0.7,1.5-0.1,2.1l5.9,6.5c0.3,0.3,0.6,0.5,1,0.5c0,0,0.1,0,0.1,0c0.4,0,0.7-0.1,1-0.4l7.9-7.2
	v10.3h-18.8v-18.8h18.8V183.1z"/>
<path class="st0" d="M310.3,255.5l-3.7,3.4v-3.3c0-0.8-0.7-1.5-1.5-1.5h-21.7c-0.8,0-1.5,0.7-1.5,1.5v21.7c0,0.8,0.7,1.5,1.5,1.5
	h21.7c0.8,0,1.5-0.7,1.5-1.5v-14.5l5.7-5.2c0.6-0.6,0.7-1.5,0.1-2.1C311.8,255,310.9,255,310.3,255.5z M303.6,261.6l-8.8,8l-4.9-5.4
	c-0.5-0.6-1.5-0.7-2.1-0.1c-0.6,0.5-0.7,1.5-0.1,2.1l5.9,6.5c0.3,0.3,0.6,0.5,1,0.5c0,0,0.1,0,0.1,0c0.4,0,0.7-0.1,1-0.4l7.9-7.2
	v10.3h-18.8v-18.8h18.8V261.6z"/>
<path class="st0" d="M319.9,187.8h25.4c0.8,0,1.5-0.7,1.5-1.5c0-0.8-0.7-1.5-1.5-1.5h-25.4c-0.8,0-1.5,0.7-1.5,1.5
	C318.4,187.1,319,187.8,319.9,187.8z"/>
<path class="st0" d="M319.9,196h9.8c0.8,0,1.5-0.7,1.5-1.5c0-0.8-0.7-1.5-1.5-1.5h-9.8c-0.8,0-1.5,0.7-1.5,1.5
	C318.4,195.4,319,196,319.9,196z"/>
<path class="st0" d="M319.9,227.2h15c0.8,0,1.5-0.7,1.5-1.5c0-0.8-0.7-1.5-1.5-1.5h-15c-0.8,0-1.5,0.7-1.5,1.5
	C318.4,226.5,319,227.2,319.9,227.2z"/>
<path class="st0" d="M349,224.2h-6.1c-0.8,0-1.5,0.7-1.5,1.5c0,0.8,0.7,1.5,1.5,1.5h6.1c0.8,0,1.5-0.7,1.5-1.5
	C350.5,224.9,349.8,224.2,349,224.2z"/>
<path class="st0" d="M319.9,234.7h11.5c0.8,0,1.5-0.7,1.5-1.5s-0.7-1.5-1.5-1.5h-11.5c-0.8,0-1.5,0.7-1.5,1.5S319,234.7,319.9,234.7
	z"/>
<path class="st0" d="M319.9,265.2h9.8c0.8,0,1.5-0.7,1.5-1.5c0-0.8-0.7-1.5-1.5-1.5h-9.8c-0.8,0-1.5,0.7-1.5,1.5
	C318.4,264.5,319,265.2,319.9,265.2z"/>
<path class="st0" d="M349,262.2h-11.5c-0.8,0-1.5,0.7-1.5,1.5c0,0.8,0.7,1.5,1.5,1.5H349c0.8,0,1.5-0.7,1.5-1.5
	C350.5,262.9,349.8,262.2,349,262.2z"/>
<path class="st0" d="M343.2,270.7h-23.3c-0.8,0-1.5,0.7-1.5,1.5s0.7,1.5,1.5,1.5h23.3c0.8,0,1.5-0.7,1.5-1.5S344,270.7,343.2,270.7z
	"/>
<path class="st0" d="M382.1,352.7h30.1c7.6,0,13.7-6.2,13.7-13.7v-33c0-0.1,0-0.3-0.1-0.4h52.7h94.3c9.5,0,10-5.2,10-5.4
	c0,0,0-0.1,0-0.1v-9.8c0-0.8-0.7-1.5-1.5-1.5h-14V179.3c0-6.4-5.2-11.7-11.7-11.7H425.9v-53.3c0-7.6-6.2-13.7-13.7-13.7H405V59.7
	V26.8l1.2,1.9c0.3,0.4,0.8,0.7,1.3,0.7c0.3,0,0.5-0.1,0.8-0.2c0.7-0.4,0.9-1.4,0.5-2.1l-3.9-6.2c0,0,0,0-0.1-0.1c0,0,0,0-0.1-0.1
	c-0.1-0.1-0.2-0.2-0.3-0.3c-0.1-0.1-0.3-0.1-0.4-0.2c0,0,0,0,0,0c-0.2,0-0.3-0.1-0.4-0.1c0,0,0,0-0.1,0c-0.2,0-0.5,0.1-0.7,0.2
	c0,0-0.1,0.1-0.1,0.1c0,0,0,0-0.1,0.1c-0.1,0.1-0.2,0.2-0.3,0.3c0,0-3.9,6.2-3.9,6.2c-0.4,0.7-0.2,1.6,0.5,2.1
	c0.7,0.4,1.6,0.2,2.1-0.5l1.1-1.8v32l-10,8.2l-15-11.5c-0.5-0.4-1.2-0.4-1.7-0.1l-16.8,10.7l-14.1-16.6c-0.3-0.3-0.7-0.5-1.1-0.5
	c-0.4,0-0.9,0.2-1.1,0.5l-25.5,30.3L295,67.7c-0.5-0.3-1.1-0.3-1.6,0.1l-19,12.9l-10.6-8c-0.6-0.4-1.3-0.4-1.9,0l-9.3,7.7
	l-24.4-28.7c-0.3-0.3-0.7-0.5-1.2-0.5c-0.4,0-0.9,0.2-1.1,0.6l-34.3,42.3c0,0,0,0,0,0.1c0,0-0.1,0.1-0.1,0.1c0,0,0,0.1-0.1,0.1
	c0,0,0,0.1-0.1,0.1c0,0,0,0.1,0,0.1c0,0,0,0.1,0,0.1c0,0.1,0,0.1,0,0.2c0,0,0,0,0,0.1v5.5H76.1c-7.6,0-13.7,6.2-13.7,13.7v224.7
	c0,7.6,6.2,13.7,13.7,13.7h139.3c-0.9,21.9-20.6,25.4-21.4,25.5c-0.1,0-0.1,0-0.2,0.1c0,0-0.1,0-0.1,0c0,0-0.1,0-0.1,0.1
	c0,0-0.1,0-0.1,0.1c0,0-0.1,0.1-0.1,0.1c0,0-0.1,0.1-0.1,0.1c0,0-0.1,0.1-0.1,0.1c0,0-0.1,0.1-0.1,0.1c0,0-0.1,0.1-0.1,0.1
	c0,0,0,0.1-0.1,0.1c0,0,0,0.1,0,0.1c0,0,0,0.1,0,0.1c0,0,0,0.1,0,0.1c0,0.1,0,0.1,0,0.2c0,0,0,14.1,0,14.1h-8.3
	c-0.8,0-1.5,0.7-1.5,1.5s0.7,1.5,1.5,1.5h9.8h99.8h23.4c0.8,0,1.5-0.7,1.5-1.5s-0.7-1.5-1.5-1.5h-21.9v-14.1c0-0.1,0-0.1,0-0.2
	c0,0,0-0.1,0-0.1c0,0,0-0.1,0-0.1c0,0,0-0.1,0-0.1c0,0,0-0.1-0.1-0.1c0,0,0-0.1-0.1-0.1c0,0-0.1-0.1-0.1-0.1c0,0-0.1-0.1-0.1-0.1
	c0,0-0.1-0.1-0.1-0.1c0,0-0.1-0.1-0.1-0.1c0,0-0.1,0-0.1-0.1c0,0-0.1,0-0.1-0.1c0,0-0.1,0-0.1,0c-0.1,0-0.1,0-0.2,0
	c-0.9-0.1-20.6-3.5-21.5-25.5h46H382.1z M555.7,170.6c4.8,0,8.7,3.9,8.7,8.7v109.5H386.1V179.3c0-4.8,3.9-8.7,8.7-8.7H555.7z
	 M495.9,291.7c-0.1,0.7-0.4,1.5-1,2.2c-1.1,1.2-2.8,1.8-5.3,1.8h-12.2h-16.5c-2.4,0-4.2-0.6-5.2-1.8c-0.6-0.7-0.9-1.5-1.1-2.2H495.9
	z M405,103.5h7.2c5.9,0,10.8,4.8,10.8,10.8v5.5H405V103.5z M194.5,95.5L227.3,55l24.2,28.4c0.5,0.6,1.5,0.7,2.1,0.2l9.5-7.9
	l10.5,7.9c0.5,0.4,1.2,0.4,1.7,0l19.1-13l22,12.4c0.6,0.3,1.4,0.2,1.9-0.3l25.2-29.9l13.8,16.3c0.5,0.6,1.3,0.7,1.9,0.3l17-10.9
	l15.1,11.6c0.6,0.4,1.3,0.4,1.9,0l9-7.4v27.3L388,103.9l-17.4-28.5c-0.2-0.4-0.6-0.6-1.1-0.7c-0.4-0.1-0.9,0.1-1.2,0.4l-40,38
	l-15.9-22.2c-0.3-0.4-0.7-0.6-1.1-0.6c-0.5,0-0.9,0.2-1.2,0.5l-22.4,25.5l-13.3-11.1c-0.3-0.3-0.7-0.4-1.2-0.3
	c-0.4,0.1-0.8,0.3-1,0.6l-9.5,13.7l-35.5-31.7c-0.5-0.5-1.3-0.5-1.8-0.1l-30.9,21.6V95.5z M194.5,112.6l31.7-22.1l35.9,32
	c0.3,0.2,0.6,0.4,1,0.4c0.1,0,0.1,0,0.2,0c0.4-0.1,0.8-0.3,1-0.6l9.5-13.7l13.1,11c0.6,0.5,1.5,0.4,2.1-0.2l22.1-25.2l15.8,22.1
	c0.3,0.4,0.6,0.6,1.1,0.6c0.4,0,0.9-0.1,1.2-0.4l39.9-38l17.4,28.6c0.2,0.4,0.6,0.6,1.1,0.7c0.5,0.1,0.9-0.1,1.2-0.4l13.4-13v23.2
	l-18.4,19.1L370.8,118c-0.3-0.4-0.7-0.6-1.2-0.6c-0.5,0-0.9,0.2-1.2,0.6l-9.8,13.4l-12.7-15.4c-0.5-0.6-1.3-0.7-1.9-0.3l-23.7,14.6
	l-15.1-11.3c-0.5-0.4-1.1-0.4-1.7-0.1l-28.2,17l-28.1-9.7c-0.4-0.1-0.9-0.1-1.3,0.1l-10,6.2L215,115.7c-0.5-0.4-1.2-0.4-1.8-0.1
	L194.5,128V112.6z M194.5,131.5l19.5-12.9l20.8,16.7c0.5,0.4,1.2,0.4,1.7,0.1l10.3-6.3l28.1,9.7c0.4,0.1,0.9,0.1,1.3-0.1l27.9-16.9
	l15.1,11.3c0.5,0.4,1.2,0.4,1.7,0.1l23.5-14.5l13.1,15.9c0.3,0.4,0.7,0.6,1.2,0.5c0.5,0,0.9-0.2,1.2-0.6l9.7-13.2l12.7,18.4
	c0.3,0.4,0.7,0.6,1.1,0.6c0,0,0.1,0,0.1,0c0.4,0,0.8-0.2,1.1-0.5l17.6-18.2V145H194.5V131.5z M65.3,114.3c0-5.9,4.8-10.8,10.8-10.8
	h115.4v16.3H65.3V114.3z M292.6,393.7h-96.9v-12.6h96.9V393.7z M285.6,378.2h-82.9c6.7-3.5,15.1-10.8,15.7-25.5h51.5
	C270.4,367.4,278.8,374.7,285.6,378.2z M317.4,349.7H76.1c-5.9,0-10.8-4.8-10.8-10.8v-20.1h261.3h38.8H423v20.1
	c0,5.9-4.8,10.8-10.8,10.8h-30.3H317.4z M326.2,315.9H65.3V122.8h126.2v23.7c0,0.8,0.7,1.5,1.5,1.5h210.5c0.8,0,1.5-0.7,1.5-1.5
	v-23.7H423v44.8h-28.1c-6.4,0-11.7,5.2-11.7,11.7v109.5h-14c-0.8,0-1.5,0.7-1.5,1.5v9.8c0,0,0,0.1,0,0.1c0,0.2,0.5,5.4,10,5.4H423
	c0,0.1-0.1,0.3-0.1,0.4v9.9h-59.8H326.2z M579.9,299.9c-0.2,0.9-1.9,2.6-7,2.6h-94.3H377.7c-5.2,0-6.9-1.7-7-2.6v-8.2h14h66.9
	c0.2,1.2,0.6,2.8,1.8,4.1c1.6,1.8,4.2,2.8,7.5,2.8h16.5h12.2c3.3,0,5.8-0.9,7.5-2.8c1.2-1.4,1.7-3,1.8-4.1h66.9h14V299.9z"/>
<path class="st0" d="M397.1,280h156.3c0.8,0,1.5-0.7,1.5-1.5v-97.7c0-0.8-0.7-1.5-1.5-1.5H397.1c-0.8,0-1.5,0.7-1.5,1.5v97.7
	C395.6,279.3,396.3,280,397.1,280z M398.6,182.3h153.3V277H398.6V182.3z"/>
<path class="st0" d="M534.7,257.8h-5.6v-55.5c0-0.8-0.7-1.5-1.5-1.5h-22.2c-0.8,0-1.5,0.7-1.5,1.5v55.5h-5.6v-41.5
	c0-0.8-0.7-1.5-1.5-1.5h-16.7c-0.8,0-1.5,0.7-1.5,1.5v41.5h-7.9v-32.2c0-0.8-0.7-1.5-1.5-1.5h-13.1c-0.8,0-1.5,0.7-1.5,1.5v32.2
	h-9.5v-24.7c0-0.8-0.7-1.5-1.5-1.5h-10.2c-0.8,0-1.5,0.7-1.5,1.5v24.7h-15.2v-28.4l27.2-7.2c0.1,0,0.2-0.1,0.3-0.1l25.4-14.1
	l23.8-5.2l-0.8,1c-0.5,0.6-0.5,1.6,0.2,2.1c0.3,0.2,0.6,0.4,1,0.4c0.4,0,0.8-0.2,1.1-0.5l3.7-4.3c0.1-0.1,0.1-0.2,0.2-0.3
	c0,0,0,0,0-0.1c0.1-0.1,0.1-0.2,0.1-0.4c0-0.2,0-0.3,0-0.4c0,0,0-0.1,0-0.1c0-0.1-0.1-0.3-0.1-0.4c-0.1-0.1-0.2-0.2-0.2-0.3
	c0,0,0,0-0.1-0.1c0,0,0,0-0.1-0.1c-0.1-0.1-0.2-0.1-0.3-0.2c0,0-4.8-2.5-4.8-2.5c-0.7-0.4-1.6-0.1-2,0.7c-0.4,0.7-0.1,1.6,0.7,2
	l1.1,0.6L469,205c-0.1,0-0.3,0.1-0.4,0.2l-25.4,14.1l-26.3,7v-28.5c0-0.8-0.7-1.5-1.5-1.5s-1.5,0.7-1.5,1.5v61.4
	c0,0.8,0.7,1.5,1.5,1.5h18.2h10.2h12.5h13.1h10.9h16.7h8.6h22.2h7.1c0.8,0,1.5-0.7,1.5-1.5C536.1,258.4,535.5,257.8,534.7,257.8z
	 M442.2,257.8H435v-23.2h7.2V257.8z M467.8,257.8h-10.1V227h10.1V257.8z M495.4,257.8h-13.7v-40h13.7V257.8z M526.1,257.8h-19.2v-54
	h19.2V257.8z"/>
<path class="st0" d="M488.5,263.4c-2.5,0-4.5,2-4.5,4.5c0,2.5,2,4.5,4.5,4.5c2.5,0,4.5-2,4.5-4.5C493,265.4,491,263.4,488.5,263.4z
	 M488.5,269.4c-0.8,0-1.5-0.7-1.5-1.5c0-0.8,0.7-1.5,1.5-1.5c0.8,0,1.5,0.7,1.5,1.5C490,268.7,489.3,269.4,488.5,269.4z"/>
<path class="st0" d="M516.5,263.4c-2.5,0-4.5,2-4.5,4.5c0,2.5,2,4.5,4.5,4.5s4.5-2,4.5-4.5C521,265.4,519,263.4,516.5,263.4z
	 M516.5,269.4c-0.8,0-1.5-0.7-1.5-1.5c0-0.8,0.7-1.5,1.5-1.5s1.5,0.7,1.5,1.5C518,268.7,517.3,269.4,516.5,269.4z"/>
<path class="st0" d="M462.7,263.4c-2.5,0-4.5,2-4.5,4.5c0,2.5,2,4.5,4.5,4.5s4.5-2,4.5-4.5C467.2,265.4,465.2,263.4,462.7,263.4z
	 M462.7,269.4c-0.8,0-1.5-0.7-1.5-1.5c0-0.8,0.7-1.5,1.5-1.5c0.8,0,1.5,0.7,1.5,1.5C464.2,268.7,463.5,269.4,462.7,269.4z"/>
<path class="st0" d="M438.6,263.4c-2.5,0-4.5,2-4.5,4.5c0,2.5,2,4.5,4.5,4.5c2.5,0,4.5-2,4.5-4.5
	C443.1,265.4,441.1,263.4,438.6,263.4z M438.6,269.4c-0.8,0-1.5-0.7-1.5-1.5c0-0.8,0.7-1.5,1.5-1.5s1.5,0.7,1.5,1.5
	C440.1,268.7,439.4,269.4,438.6,269.4z"/>
<path class="st0" d="M94.5,159.7c4.1,0,7.4-3.3,7.4-7.4c0-4.1-3.3-7.4-7.4-7.4c-4.1,0-7.4,3.3-7.4,7.4
	C87.1,156.4,90.4,159.7,94.5,159.7z M94.5,147.9c2.4,0,4.4,2,4.4,4.4c0,2.4-2,4.4-4.4,4.4c-2.4,0-4.4-2-4.4-4.4
	C90.1,149.9,92.1,147.9,94.5,147.9z"/>
<path class="st0" d="M116.5,159.7c4.1,0,7.4-3.3,7.4-7.4c0-4.1-3.3-7.4-7.4-7.4s-7.4,3.3-7.4,7.4
	C109.1,156.4,112.5,159.7,116.5,159.7z M116.5,147.9c2.4,0,4.4,2,4.4,4.4c0,2.4-2,4.4-4.4,4.4c-2.4,0-4.4-2-4.4-4.4
	C112.1,149.9,114.1,147.9,116.5,147.9z"/>
<path class="st0" d="M138.4,159.7c4.1,0,7.4-3.3,7.4-7.4c0-4.1-3.3-7.4-7.4-7.4c-4.1,0-7.4,3.3-7.4,7.4
	C131,156.4,134.3,159.7,138.4,159.7z M138.4,147.9c2.4,0,4.4,2,4.4,4.4c0,2.4-2,4.4-4.4,4.4c-2.4,0-4.4-2-4.4-4.4
	C133.9,149.9,135.9,147.9,138.4,147.9z"/>
<path class="st0" d="M88.6,173.1h84c0.8,0,1.5-0.7,1.5-1.5c0-0.8-0.7-1.5-1.5-1.5h-84c-0.8,0-1.5,0.7-1.5,1.5
	C87.1,172.4,87.8,173.1,88.6,173.1z"/>
<path class="st0" d="M182.7,171.6c0,0.8,0.7,1.5,1.5,1.5h16.1c0.8,0,1.5-0.7,1.5-1.5c0-0.8-0.7-1.5-1.5-1.5h-16.1
	C183.4,170.1,182.7,170.8,182.7,171.6z"/>
<path class="st0" d="M88.6,182.9h29c0.8,0,1.5-0.7,1.5-1.5c0-0.8-0.7-1.5-1.5-1.5h-29c-0.8,0-1.5,0.7-1.5,1.5
	C87.1,182.2,87.8,182.9,88.6,182.9z"/>
<path class="st0" d="M191.5,181.4c0-0.8-0.7-1.5-1.5-1.5h-59.4c-0.8,0-1.5,0.7-1.5,1.5c0,0.8,0.7,1.5,1.5,1.5H190
	C190.8,182.9,191.5,182.2,191.5,181.4z"/>
<path class="st0" d="M249.5,291.5C249.5,291.4,249.5,291.4,249.5,291.5c-0.1-0.2-0.1-0.3-0.2-0.4c0,0,0,0,0-0.1
	c0-0.1-0.1-0.1-0.1-0.2c0,0-0.1-0.1-0.1-0.1c0,0,0,0,0,0l-4.2-3.4c-0.6-0.5-1.6-0.4-2.1,0.2c-0.5,0.6-0.4,1.6,0.2,2.1l0.9,0.7h-6.6
	v-30c2.6-0.7,4.6-3.1,4.6-5.9c0-0.5-0.1-1-0.2-1.4c4.7-3,7.3-5.2,7.4-5.3c0.6-0.5,0.7-1.5,0.1-2.1c-0.5-0.6-1.5-0.7-2.1-0.1
	c0,0-2.5,2.1-6.8,4.9c-0.8-0.9-1.8-1.5-3-1.8v-32.7c0-0.8-0.7-1.5-1.5-1.5c-0.8,0-1.5,0.7-1.5,1.5v32.7c-2.6,0.7-4.6,3.1-4.6,5.9
	c0,0.6,0.1,1.1,0.2,1.7c-9.7,4.6-19.7,7.5-29.8,8.6c-11.5,1.2-19.9,1-28.6-0.8c0,0,0-0.1,0-0.1c0-2.8-2-5.2-4.6-5.9v-42.1
	c0-0.8-0.7-1.5-1.5-1.5c-0.8,0-1.5,0.7-1.5,1.5v42.1c-1.7,0.4-3,1.5-3.9,3c-7.5-2.4-14.3-5.5-22.9-9.4c-1.8-0.8-3.6-1.7-5.6-2.5
	l-0.2-0.1c-2.1-1-3.1-1.4-4.8-2.1c0-0.2,0-0.4,0-0.6c0-2.8-2-5.2-4.6-5.9v-24.5c0-0.8-0.7-1.5-1.5-1.5c-0.8,0-1.5,0.7-1.5,1.5v24.5
	c-1.4,0.4-2.7,1.2-3.5,2.4c-12.2-4-19.4-4.3-22.6-4.2v-17.8l0.2,0.2c0.3,0.4,0.8,0.7,1.2,0.7c0.3,0,0.6-0.1,0.8-0.3
	c0.7-0.5,0.9-1.4,0.4-2.1l-2.9-4.2c0,0,0,0,0,0c0,0,0,0,0-0.1c-0.1-0.1-0.2-0.2-0.3-0.3c0,0,0,0,0,0c-0.1-0.1-0.2-0.1-0.4-0.2
	c0,0,0,0,0,0c0,0,0,0,0,0c-0.1,0-0.3-0.1-0.4-0.1c0,0,0,0-0.1,0c-0.1,0-0.2,0-0.4,0.1c0,0-0.1,0-0.1,0c-0.1,0-0.2,0.1-0.3,0.2
	c0,0,0,0,0,0c0,0,0,0-0.1,0.1c-0.1,0.1-0.2,0.2-0.3,0.3c0,0-2.9,4.4-2.9,4.4c-0.4,0.7-0.3,1.6,0.4,2.1c0.7,0.5,1.6,0.3,2.1-0.4
	l0.1-0.2v71c0,0.8,0.7,1.5,1.5,1.5h152.8l-1.2,1.1c-0.6,0.6-0.6,1.5-0.1,2.1c0.3,0.3,0.7,0.5,1.1,0.5c0.4,0,0.7-0.1,1-0.4l3.9-3.7
	c0,0,0.1-0.1,0.1-0.1c0,0,0,0,0-0.1c0.1-0.1,0.1-0.2,0.2-0.4c0,0,0,0,0,0c0,0,0,0,0,0c0-0.1,0.1-0.3,0.1-0.4
	C249.5,291.7,249.5,291.6,249.5,291.5z M119,290.3h-26v-48.8c2.6-0.1,9.5,0,21.5,4c0,0.2,0,0.5,0,0.7c0,2.8,2,5.2,4.6,5.9V290.3z
	 M117.4,246.2c0-1.7,1.4-3.1,3.1-3.1c1.7,0,3.1,1.4,3.1,3.1c0,1.7-1.4,3.1-3.1,3.1C118.8,249.3,117.4,247.9,117.4,246.2z
	 M163.8,290.3H122v-38.2c1.5-0.4,2.8-1.3,3.6-2.5c1.5,0.6,2.5,1.1,4.5,2l0.2,0.1c2,0.9,3.8,1.7,5.6,2.5c8.7,4,15.6,7.1,23.4,9.6
	c0,0,0,0,0,0c0,2.8,2,5.2,4.6,5.9V290.3z M162.2,263.8c0-1.7,1.4-3.1,3.1-3.1c1.7,0,3.1,1.4,3.1,3.1c0,1.7-1.4,3.1-3.1,3.1
	C163.6,266.9,162.2,265.5,162.2,263.8z M234.2,290.3h-67.4v-20.6c1.6-0.4,3-1.5,3.8-2.9c5.4,1.1,10.6,1.7,16.5,1.7
	c4,0,8.4-0.3,13.3-0.8c10.6-1.1,21-4.1,31-9c0.8,0.8,1.8,1.4,2.9,1.6V290.3z M232.6,254.5c0-1.7,1.4-3.1,3.1-3.1
	c1.7,0,3.1,1.4,3.1,3.1c0,1.7-1.4,3.1-3.1,3.1C234,257.6,232.6,256.2,232.6,254.5z"/>
<path class="st0" d="M275,183.4h-7.5c-0.8,0-1.5,0.7-1.5,1.5c0,0.8,0.7,1.5,1.5,1.5h7.5c0.8,0,1.5-0.7,1.5-1.5
	C276.5,184.1,275.8,183.4,275,183.4z"/>
<path class="st0" d="M259.4,183.4h-8.2c-0.8,0-1.5,0.7-1.5,1.5c0,0.8,0.7,1.5,1.5,1.5h8.2c0.8,0,1.5-0.7,1.5-1.5
	C260.8,184.1,260.2,183.4,259.4,183.4z"/>
<path class="st0" d="M231.1,181.8c0.8,0,1.5-0.7,1.5-1.5v-8.2c0-0.8-0.7-1.5-1.5-1.5c-0.8,0-1.5,0.7-1.5,1.5v8.2
	C229.6,181.2,230.3,181.8,231.1,181.8z"/>
<path class="st0" d="M234.8,186.4h8.2c0.8,0,1.5-0.7,1.5-1.5c0-0.8-0.7-1.5-1.5-1.5h-8.2c-0.8,0-1.5,0.7-1.5,1.5
	C233.3,185.7,234,186.4,234.8,186.4z"/>
<path class="st0" d="M231.1,165.5c0.8,0,1.5-0.7,1.5-1.5v-8.2c0-0.8-0.7-1.5-1.5-1.5c-0.8,0-1.5,0.7-1.5,1.5v8.2
	C229.6,164.8,230.3,165.5,231.1,165.5z"/>
<path class="st0" d="M329.7,158.2h32.9c0.8,0,1.5-0.7,1.5-1.5s-0.7-1.5-1.5-1.5h-32.9c-0.8,0-1.5,0.7-1.5,1.5
	S328.8,158.2,329.7,158.2z"/>
<path class="st0" d="M378.3,158.2h7c0.8,0,1.5-0.7,1.5-1.5s-0.7-1.5-1.5-1.5h-7c-0.8,0-1.5,0.7-1.5,1.5S377.4,158.2,378.3,158.2z"/>
<path class="st0" d="M178.8,145c-0.8,0-1.5,0.7-1.5,1.5c0,0.8,0.7,1.5,1.5,1.5h8.6c0.8,0,1.5-0.7,1.5-1.5c0-0.8-0.7-1.5-1.5-1.5
	H178.8z"/>
<path class="st0" d="M159.1,140.4h27.7c0.8,0,1.5-0.7,1.5-1.5c0-0.8-0.7-1.5-1.5-1.5h-27.7c-0.8,0-1.5,0.7-1.5,1.5
	C157.6,139.8,158.3,140.4,159.1,140.4z"/>
<g>
	<g>
		<path class="st0" d="M531.8,530.5c-6.2-3.1-12.6-6.3-17.7-10.5v-6.6c8.5-0.4,16.7-2.4,23.2-5.9c0.1-0.1,0.2-0.1,0.3-0.2
			c0.3-0.2,0.6-0.5,0.8-0.9c0.2-0.3,0.3-0.7,0.4-1.1c0-0.1,0-0.2,0-0.4v-49.8c0-25.7-20.9-46.7-46.7-46.7s-46.7,20.9-46.7,46.7V505
			c0,0.1,0,0.2,0,0.4c0,0.4,0.2,0.8,0.4,1.1c0.2,0.3,0.5,0.6,0.8,0.9c0.1,0.1,0.2,0.1,0.3,0.2c6.5,3.5,14.7,5.5,23.2,5.9v6.6
			c-5,4.2-11.4,7.4-17.7,10.5c-12.2,6.1-24.9,12.4-24.9,26.2v7.8c0,9,7.3,16.3,16.3,16.3h96.4c9,0,16.3-7.3,16.3-16.3v-7.8
			C556.6,542.9,544,536.6,531.8,530.5z M451.1,503.3v-48.2c0-22.6,18.4-41.1,41.1-41.1s41.1,18.4,41.1,41.1v48.2
			c-5.5,2.6-12.1,4.2-19.1,4.5v-2.4c9.6-10.2,14.1-27.1,13.8-51.4c0-1.5-1.3-2.8-2.8-2.8c0,0,0,0,0,0c-1.6,0-2.8,1.3-2.8,2.9
			c0.3,23.4-4,39.2-13,48.2c-0.2,0.2-0.3,0.4-0.4,0.6c-5.1,5.2-9.7,7.1-16.7,7.1c-7,0-11.6-1.9-16.7-7.1c-0.1-0.2-0.3-0.4-0.4-0.6
			c-11.4-11.4-13.1-26.9-13.4-44.5c10,3.4,19.6,3.3,28.4-0.4c7.8-3.3,14.8-9.2,20.9-17.7c0.9-1.3,0.6-3-0.6-3.9
			c-1.3-0.9-3-0.6-3.9,0.6c-8.7,12.1-23.8,24.5-46.5,14.7c-0.9-0.4-1.9-0.3-2.7,0.2c-0.8,0.5-1.3,1.4-1.3,2.4
			c0.1,19.5,1.3,38.1,14.3,51.8v2.4C463.2,507.5,456.6,505.9,451.1,503.3z M474.9,523.4c0.6-0.5,0.9-1.3,0.9-2.1v-10.7
			c4.7,3.5,9.8,5,16.3,5c6.5,0,11.6-1.5,16.3-5v10.7c0,0.8,0.3,1.6,0.9,2.1c3.3,3,7.1,5.4,11.1,7.6c-18.9,10.2-37.9,10.2-56.8,0
			C467.7,528.8,471.5,526.4,474.9,523.4z M551,564.6c0,5.9-4.8,10.6-10.6,10.6h-96.4c-5.9,0-10.6-4.8-10.6-10.6v-7.8
			c0-10.4,10.1-15.4,21.7-21.2c0.9-0.5,1.9-0.9,2.8-1.4c22.8,13.7,45.8,13.7,68.6,0c0.9,0.5,1.9,0.9,2.8,1.4
			c11.7,5.8,21.7,10.8,21.7,21.2V564.6z"/>
		<path class="st0" d="M468.2,447.5c1.7,0.2,3.4,0.2,5,0.2c12.1,0,20.1-4.6,27.8-15.4c0.9-1.3,0.6-3-0.7-3.9c-1.3-0.9-3-0.6-3.9,0.7
			c-7.4,10.5-14.9,14-27.6,12.8c-1.6-0.1-2.9,1-3.1,2.6C465.5,446,466.7,447.4,468.2,447.5z"/>
	</g>
	<path class="st0" d="M574.3,565.8c-0.4,0-0.8-0.1-1.2-0.3c-1.5-0.7-2.2-2.5-1.5-4c5-11.1,7.5-23,7.5-35.3
		c0-31.3-16.9-60.3-44.2-75.7c-1.5-0.8-2-2.7-1.1-4.1c0.8-1.5,2.7-2,4.1-1.1c29.2,16.5,47.3,47.5,47.3,81c0,13.2-2.7,25.9-8,37.8
		C576.6,565.2,575.5,565.8,574.3,565.8z"/>
	<path class="st0" d="M410,565.9c-1.2,0-2.3-0.7-2.8-1.8c-5.3-12-8.1-24.7-8.1-37.9c0-34.2,18.7-65.6,48.8-81.8
		c1.5-0.8,3.3-0.2,4.1,1.2c0.8,1.5,0.2,3.3-1.2,4.1c-28.2,15.2-45.7,44.5-45.7,76.5c0,12.3,2.5,24.3,7.5,35.4c0.7,1.5,0,3.3-1.5,4
		C410.9,565.9,410.4,565.9,410,565.9z"/>
</g>
<g>
	<path class="st0" d="M203.5,518.5c-3.4-1.5-6.8-3.1-9.3-5.1v-4.1c0.1-0.1,0.2-0.2,0.2-0.2c0.1-0.1,0.2-0.3,0.3-0.4
		c1.9-2.2,3.5-5.2,4.7-8.8h0c3.3,0,5.9-2.9,6.7-7.3c0.6-3.2-0.1-7.1-2.7-8.8c0-8.2-1.3-13.4-4-16.9c-2.7-3.5-6.5-5.1-11.4-7
		c-2.8-1.1-6-2.5-9.5-4.4c-0.4-0.2-0.8-0.2-1.3-0.1c-0.4,0.2-0.7,0.5-0.9,0.9c-0.2,0.7-0.4,1.5-0.4,2.4c-0.2-0.2-0.3-0.3-0.5-0.6
		c-0.3-0.4-0.8-0.5-1.3-0.5c-0.5,0.1-0.9,0.4-1.1,0.8c-0.4,0.9-0.6,1.9-0.5,2.9c-9.8,3.5-9.9,11.5-9.8,22.4
		c-2.7,1.7-3.3,5.9-2.6,9.2c0.9,4.2,3.5,6.8,6.6,6.8h0c1.2,3.6,2.8,6.6,4.7,8.8c0.1,0.1,0.2,0.3,0.3,0.4c0.1,0.1,0.1,0.2,0.2,0.2
		v4.1c-2.5,2-6,3.6-9.3,5.1c-6.4,2.9-13.1,5.8-13.1,12.5v6.4c0,4.3,3.5,7.9,7.9,7.9h51.3c4.3,0,7.9-3.5,7.9-7.9v-6.4
		C216.6,524.3,209.9,521.3,203.5,518.5z M173.2,464.2l0.3,1c0.2,0.8,1.1,1.2,1.8,1c0.8-0.2,1.2-1.1,1-1.8l-0.7-2.3
		c0.5,0.2,1.1,0.4,1.8,0.5c0.5,0.1,0.9-0.1,1.3-0.5c0.3-0.4,0.4-0.8,0.3-1.3c-0.1-0.5-0.2-1.1-0.1-1.7c2.9,1.5,5.6,2.6,8,3.6
		c4.6,1.9,8,3.2,10.2,6.1c2.3,2.9,3.3,7.5,3.4,14.7c-0.4,0.2-0.9,0.4-1.3,0.6c-0.3,0.1-0.7,0.4-1,0.5c0,0,0,0,0-0.1l0-0.4
		c-0.1-2-0.2-3.8-0.4-4.9c-0.6-5.3-7.8-7.7-14.6-7.8c-0.1,0-0.2,0-0.4,0c-6.8,0-13.9,2.4-14.7,7.8c-0.2,1.4-0.3,3.2-0.4,5.1l0,0.2
		c-0.3-0.1-0.7-0.3-1-0.4c-0.4-0.2-0.8-0.4-1.3-0.6C165.5,472.3,166,466.9,173.2,464.2z M169.3,497.9c-0.2-0.6-0.8-1-1.4-1h-1.1
		c-2.1,0-3.3-2.4-3.7-4.5c-0.6-2.9,0.1-5.6,1.5-6.3c0,0,0.1,0,0.1,0c0.3,0.1,0.7,0.3,1,0.5c1.3,0.6,2.7,1.3,4,0.5
		c0.8-0.5,1.2-1.3,1.2-2.6l0-0.3c0.1-1.7,0.1-3.6,0.3-4.8c0.5-3.5,6.5-5.3,12.1-5.2c6.3,0.1,11.3,2.3,11.7,5.2
		c0.1,1,0.2,2.9,0.3,4.7l0,0.5c0.1,1.3,0.6,2.2,1.4,2.6c1.3,0.7,2.7,0,3.9-0.7c0.3-0.1,0.6-0.3,0.9-0.5c1.4,0.6,2.2,3.1,1.7,5.9
		c-0.4,2.4-1.8,4.9-3.8,4.9h-1.1c-0.6,0-1.2,0.4-1.4,1c-1.3,4.2-3.1,7.5-5.2,9.6c-0.1,0.1-0.1,0.2-0.2,0.2c-2.4,2.2-5.3,3.4-8.4,3.4
		c-3.1,0-6-1.2-8.4-3.4c-0.1-0.1-0.1-0.2-0.2-0.2C172.3,505.4,170.6,502.2,169.3,497.9z M174.4,515.1c0.3-0.3,0.5-0.7,0.5-1.1v-2.4
		c2.5,1.6,5.3,2.4,8.2,2.4c2.9,0,5.7-0.9,8.2-2.4v2.4c0,0.4,0.2,0.8,0.5,1.1c0.9,0.8,1.8,1.5,2.9,2.1l-2.3,3.6h-18.5l-2.3-3.6
		C172.6,516.6,173.5,515.9,174.4,515.1z M190.4,523.8l-7.3,11.4l-7.3-11.4H190.4z M213.7,537.3c0,2.7-2.2,4.9-4.9,4.9h-51.3
		c-2.7,0-4.9-2.2-4.9-4.9v-6.4c0-4.7,5.3-7,11.3-9.8c1.7-0.8,3.5-1.6,5.1-2.4l12.9,20c0.3,0.4,0.7,0.7,1.2,0.7c0.5,0,1-0.3,1.2-0.7
		l12.9-20c1.7,0.9,3.4,1.6,5.1,2.4c6.1,2.7,11.3,5.1,11.3,9.8V537.3z"/>
	<path class="st0" d="M164.5,473.6c-0.2,0.1-0.4,0.2-0.7,0.3"/>
	<path class="st0" d="M225.8,537.7c-0.2,0-0.4,0-0.7-0.1c-0.8-0.4-1.1-1.3-0.8-2.1c2.7-5.9,4.1-12.3,4.1-18.8
		c0-18.4-11-34.8-27.9-41.9c-0.8-0.3-1.2-1.3-0.9-2.1c0.3-0.8,1.3-1.2,2.1-0.9c18.1,7.6,29.8,25.1,29.8,44.8c0,7-1.5,13.8-4.4,20.1
		C226.9,537.4,226.4,537.7,225.8,537.7z"/>
	<path class="st0" d="M139.8,536.5c-0.6,0-1.2-0.4-1.5-1c-2.5-6-3.8-12.3-3.8-18.9c0-19,11.2-36.4,28.6-44.2c0.8-0.4,1.7,0,2.1,0.8
		c0.4,0.8,0,1.7-0.8,2.1c-16.2,7.3-26.7,23.5-26.7,41.3c0,6.1,1.2,12.1,3.6,17.6c0.3,0.8,0,1.7-0.8,2.1
		C140.3,536.5,140.1,536.5,139.8,536.5z"/>
</g>
</svg>
