<?xml version="1.0" encoding="utf-8"?>
<!-- Generator: Adobe Illustrator 24.2.3, SVG Export Plug-In . SVG Version: 6.00 Build 0)  -->
<svg version="1.1" id="Outlined" xmlns="http://www.w3.org/2000/svg" xmlns:xlink="http://www.w3.org/1999/xlink" x="0px" y="0px"
	 viewBox="0 0 278 278" style="enable-background:new 0 0 278 278;" xml:space="preserve">
<style type="text/css">
	.st0{clip-path:url(#SVGID_2_);}
	.st1{fill:#FFFFFF;}
	.st2{fill:#004D71;}
	.st3{fill:none;stroke:#004D71;stroke-width:5;stroke-miterlimit:10;}
</style>
<g>
	<defs>
		<circle id="SVGID_1_" cx="139" cy="139" r="135.3"/>
	</defs>
	<clipPath id="SVGID_2_">
		<use xlink:href="#SVGID_1_"  style="overflow:visible;"/>
	</clipPath>
	<g class="st0">
		<g>
			<g>
				<path class="st1" d="M122.3,40.7l5,2.9c-2.2-0.5-4.3-0.7-6.5-0.5c-1.2,0.1-2.4,0.2-3.6,0.5L122.3,40.7z"/>
				<path class="st2" d="M117.3,44.1c-0.2,0-0.4-0.1-0.4-0.3c-0.1-0.2,0-0.5,0.2-0.6l5-2.9c0.1-0.1,0.3-0.1,0.5,0l5,2.9
					c0.2,0.1,0.3,0.4,0.2,0.6c-0.1,0.2-0.3,0.3-0.5,0.3c-2.1-0.5-4.1-0.7-6.3-0.5c-1,0.1-2.3,0.2-3.5,0.5
					C117.3,44.1,117.3,44.1,117.3,44.1z M122.3,41.3l-2.5,1.5c0.4,0,0.7-0.1,1.1-0.1c1.3-0.1,2.7-0.1,4,0.1L122.3,41.3z"/>
			</g>
			<g>
				<g>
					<polygon class="st1" points="313.2,151 313.2,195 249.6,231.8 249.6,187.7 					"/>
					<path class="st2" d="M249.6,232.3c-0.1,0-0.2,0-0.2-0.1c-0.1-0.1-0.2-0.2-0.2-0.4v-44.1c0-0.2,0.1-0.3,0.2-0.4l63.6-36.7
						c0.1-0.1,0.3-0.1,0.5,0c0.1,0.1,0.2,0.2,0.2,0.4V195c0,0.2-0.1,0.3-0.2,0.4l-63.6,36.7C249.8,232.2,249.7,232.3,249.6,232.3z
						 M250.1,188v43l62.7-36.2v-43L250.1,188z"/>
				</g>
				<g>
					<path class="st2" d="M294.9,142.7c0,2.8,0,5.5,0,8.3c0,0.6-0.1,1.1-0.3,1.7c-0.5,1.1-1.2,2-2.1,2.8c-0.5,0.4-0.9,0.7-1.5,1
						c-3.2,1.9-7.1,2.3-10.9,2.2c-3-0.1-5.9-0.6-8.5-2.3c-1.9-1.3-3.7-3.2-3.7-5.4c0-2.7,0-5.4,0-8.1h0c0,0.9,0.2,1.7,0.6,2.5
						c1,2,3.6,3.3,6,4c2.8,0.9,5.6,1.2,8.3,1c2.3-0.1,4.6-0.7,6.8-1.6c0.4-0.2,0.9-0.4,1.3-0.6c1.3-0.7,2.4-1.6,3.1-2.8
						C294.5,144.6,294.8,143.7,294.9,142.7L294.9,142.7z"/>
					<path class="st2" d="M281.3,159.2c-0.4,0-0.8,0-1.2,0c-2.7-0.1-5.9-0.5-8.7-2.4c-1.5-1-3.9-3-3.9-5.8v-8.1
						c0-0.3,0.2-0.5,0.5-0.5s0.5,0.2,0.5,0.5c0,0.8,0.2,1.6,0.5,2.3c0.8,1.6,2.7,2.9,5.7,3.8c2.8,0.9,5.4,1.2,8.1,1
						c2.3-0.1,4.6-0.7,6.7-1.6l0.3-0.1c0.3-0.1,0.7-0.3,1-0.5c1.4-0.8,2.4-1.6,2.9-2.6c0.4-0.9,0.7-1.7,0.7-2.5
						c0-0.3,0.2-0.4,0.5-0.4c0.3,0,0.6,0.2,0.6,0.5v8.3c0,0.7-0.1,1.3-0.4,1.9c-0.5,1.2-1.2,2.2-2.3,3c-0.5,0.4-1,0.8-1.5,1
						C288.6,158.4,285.3,159.2,281.3,159.2z M268.4,146.1v4.9c0,1.7,1.3,3.5,3.5,5c2.6,1.8,5.6,2.1,8.2,2.3
						c4.3,0.2,7.9-0.5,10.6-2.1c0.5-0.3,0.9-0.6,1.4-1c0.9-0.7,1.6-1.6,2-2.6c0.2-0.5,0.3-1,0.3-1.5v-5.3c-0.7,1.1-1.7,2.1-3.2,2.9
						c-0.3,0.2-0.7,0.3-1.1,0.5l-0.3,0.1c-2.2,1-4.6,1.5-7,1.7c-2.8,0.2-5.5-0.2-8.4-1.1C271.5,148.9,269.4,147.7,268.4,146.1z"/>
				</g>
				<g>
					<path class="st2" d="M263.1,132.6c0,0.1,0,0.3,0,0.4c-0.1,1-0.5,1.9-1.1,2.7c-0.8,1-1.8,1.8-2.8,2.4c-3.2,1.9-7.2,2.3-10.9,2.2
						c-2.9-0.1-5.8-0.6-8.4-2.3c-1.9-1.3-3.8-3.2-3.8-5.4c0-2.7,0-5.4,0-8.1h0.1c0,0.9,0.2,1.7,0.6,2.5c1,2,3.6,3.3,5.9,4
						c2.9,0.9,5.6,1.2,8.3,1c2.3-0.1,4.6-0.7,6.8-1.6c0.4-0.2,0.9-0.4,1.3-0.6c1.3-0.7,2.4-1.6,3.1-2.8c0.4-0.9,0.7-1.8,0.8-2.7h0.1
						C263.1,127.1,263.1,129.9,263.1,132.6z"/>
					<path class="st2" d="M249.5,140.8c-0.4,0-0.8,0-1.2,0c-2.7-0.1-5.8-0.5-8.6-2.4c-1.5-1-4-3-4-5.8v-8.1c0-0.3,0.2-0.5,0.5-0.5
						c0.3,0,0.6,0.2,0.6,0.5c0,0.8,0.2,1.6,0.5,2.3c0.8,1.6,2.7,2.9,5.7,3.8c2.8,0.9,5.5,1.2,8.1,1c2.3-0.1,4.6-0.7,6.7-1.6l0.3-0.1
						c0.3-0.1,0.7-0.3,1-0.5c1.5-0.8,2.4-1.6,2.9-2.6c0.4-0.9,0.7-1.7,0.7-2.5c0-0.3,0.2-0.4,0.5-0.4c0.3,0,0.6,0.2,0.6,0.5v8.7
						c-0.1,1.1-0.5,2-1.2,3c-0.7,0.9-1.7,1.7-2.9,2.5C256.8,140,253.5,140.8,249.5,140.8z M236.5,127.6v5c0,2.3,2.2,4.1,3.5,5
						c2.6,1.8,5.6,2.1,8.2,2.3c4.4,0.2,8-0.5,10.7-2.1c1.2-0.7,2-1.4,2.7-2.3c0.6-0.8,1-1.6,1-2.5l0-5.7c-0.8,1.5-2.2,2.4-3.2,2.9
						c-0.3,0.2-0.7,0.4-1.1,0.5l-0.3,0.1c-2.2,0.9-4.6,1.5-7,1.7c-2.8,0.2-5.5-0.2-8.5-1.1C239.6,130.5,237.6,129.2,236.5,127.6z"/>
				</g>
				<g>
					<path class="st2" d="M231.3,106c0,2.8,0,5.5,0,8.3c0,0.6-0.1,1.1-0.4,1.7c-0.5,1.1-1.2,2.1-2.1,2.8c-0.5,0.4-1,0.7-1.5,1
						c-3.2,1.9-7.2,2.3-10.9,2.2c-3-0.1-5.8-0.6-8.5-2.3c-1.9-1.3-3.7-3.2-3.7-5.4c0-2.7,0-5.4,0-8.1h0.1c0,0.9,0.2,1.7,0.6,2.5
						c1,2,3.6,3.3,5.9,4c2.9,0.9,5.6,1.2,8.3,1c2.3-0.1,4.6-0.7,6.8-1.6c0.4-0.2,0.9-0.4,1.3-0.6c1.3-0.7,2.4-1.6,3.1-2.8
						C230.9,107.9,231.1,106.9,231.3,106L231.3,106z"/>
					<path class="st2" d="M217.6,122.4c-0.4,0-0.8,0-1.2,0c-3.6-0.1-6.3-0.9-8.7-2.4c-1.5-1-3.9-3-3.9-5.8v-8.1
						c0-0.3,0.2-0.5,0.5-0.5c0.3,0,0.6,0.2,0.6,0.5c0,0.8,0.2,1.6,0.5,2.3c0.8,1.6,2.7,2.9,5.7,3.8c2.7,0.9,5.4,1.2,8.1,1
						c2.3-0.1,4.6-0.7,6.7-1.6l0.3-0.1c0.3-0.1,0.7-0.3,1-0.5c1.5-0.8,2.4-1.6,2.9-2.6c0.4-0.8,0.7-1.7,0.7-2.5
						c0-0.3,0.2-0.4,0.5-0.4c0.3,0,0.6,0.2,0.6,0.5v8.3c0,0.6-0.1,1.2-0.4,1.9c-0.5,1.2-1.3,2.2-2.2,3c-0.5,0.4-1.1,0.8-1.5,1
						C224.9,121.7,221.6,122.4,217.6,122.4z M204.7,109.2v5c0,2.3,2.2,4.1,3.5,5c2.2,1.4,4.7,2.1,8.2,2.2c4.4,0.2,7.9-0.5,10.7-2.1
						c0.4-0.2,0.9-0.6,1.4-1c0.8-0.7,1.5-1.5,1.9-2.6c0.2-0.6,0.3-1.1,0.3-1.5V109c-0.6,1.1-1.6,2-3.2,2.9c-0.3,0.2-0.7,0.3-1.1,0.5
						l-0.3,0.1c-2.2,0.9-4.6,1.5-7,1.7c-2.9,0.2-5.7-0.1-8.5-1.1C207.8,112.2,205.8,110.9,204.7,109.2z"/>
				</g>
				<g>
					<path class="st1" d="M199.5,87.6c0,2.8,0,5.5,0,8.3c0,0.6-0.1,1.1-0.4,1.7c-0.5,1.1-1.2,2.1-2.1,2.8c-0.5,0.4-1,0.7-1.5,1
						c-3.2,1.9-7.1,2.3-10.9,2.2c-3-0.1-5.8-0.6-8.5-2.3c-1.9-1.2-3.7-3.2-3.7-5.4c0-2.7,0-5.4,0-8.1h0.1c0,0.9,0.2,1.7,0.6,2.5
						c1,2.1,3.6,3.3,5.9,4c2.9,0.9,5.6,1.2,8.3,1c2.3-0.1,4.6-0.6,6.8-1.6c0.4-0.2,0.9-0.4,1.3-0.6c1.3-0.7,2.5-1.6,3.1-2.8
						C199,89.5,199.3,88.5,199.5,87.6L199.5,87.6z"/>
					<path class="st2" d="M185.8,104c-0.4,0-0.8,0-1.2,0c-3.6-0.1-6.3-0.9-8.7-2.4c-1.2-0.8-3.9-2.9-3.9-5.8v-8.1
						c0-0.3,0.2-0.5,0.5-0.5c0.3,0,0.6,0.2,0.6,0.5c0,0.8,0.2,1.6,0.5,2.3c0.8,1.6,2.6,2.8,5.7,3.8c2.7,0.9,5.4,1.2,8.1,1
						c2.4-0.1,4.6-0.7,6.7-1.6c0.4-0.2,0.8-0.4,1.2-0.6c1.4-0.7,2.4-1.6,2.9-2.6c0.4-0.8,0.7-1.7,0.7-2.5c0-0.3,0.2-0.4,0.5-0.4
						c0.3,0,0.6,0.2,0.6,0.5v8.3c0,0.6-0.1,1.2-0.4,1.9c-0.5,1.2-1.3,2.2-2.2,3c-0.5,0.4-1,0.7-1.6,1
						C193.1,103.3,189.8,104,185.8,104z M172.9,90.9v5c0,1.7,1.3,3.5,3.5,5c2.2,1.4,4.7,2.1,8.2,2.2c4.4,0.2,7.9-0.5,10.6-2.1
						c0.6-0.3,1.1-0.6,1.5-1c0.8-0.7,1.5-1.5,1.9-2.6c0.2-0.6,0.3-1.1,0.3-1.5v-5.3c-0.6,1.1-1.7,2.1-3.3,2.9
						c-0.4,0.2-0.9,0.4-1.3,0.6c-2.2,1-4.5,1.5-7,1.7c-2.9,0.2-5.7-0.1-8.5-1.1C175.9,93.8,173.9,92.5,172.9,90.9z"/>
				</g>
				<g>
					<path class="st1" d="M167.7,69.2c0,2.8,0,5.5,0,8.3c0,0.6-0.1,1.1-0.4,1.7c-0.5,1.1-1.2,2.1-2.1,2.8c-0.5,0.4-0.9,0.7-1.5,1
						c-3.2,1.9-7.1,2.3-10.9,2.2c-3-0.1-5.8-0.6-8.5-2.3c-1.9-1.2-3.7-3.2-3.7-5.4c0-2.7,0-5.4,0-8h0.1c0,0.9,0.2,1.7,0.6,2.5
						c1,2,3.6,3.2,5.9,4c2.9,0.9,5.6,1.2,8.3,1c2.3-0.1,4.6-0.6,6.8-1.6c0.5-0.2,0.9-0.4,1.3-0.6c1.3-0.7,2.4-1.6,3.1-2.8
						C167.2,71.1,167.5,70.2,167.7,69.2L167.7,69.2z"/>
					<path class="st2" d="M154,85.7c-0.4,0-0.8,0-1.2,0c-3.6-0.1-6.3-0.9-8.7-2.4c-1.2-0.8-3.9-2.9-3.9-5.8v-8
						c0-0.3,0.2-0.5,0.5-0.5s0.6,0.2,0.6,0.5c0,0.8,0.2,1.6,0.5,2.3c0.8,1.6,2.6,2.8,5.7,3.7c2.7,0.9,5.4,1.2,8.1,1
						c2.4-0.2,4.6-0.7,6.6-1.6c0.5-0.2,0.9-0.4,1.3-0.6c1.4-0.7,2.4-1.6,3-2.6c0.4-0.8,0.7-1.7,0.7-2.5c0-0.3,0.2-0.4,0.5-0.4
						c0.3,0,0.6,0.2,0.6,0.5v8.3c0,0.6-0.1,1.2-0.4,1.9c-0.5,1.2-1.3,2.2-2.3,3c-0.5,0.4-1,0.8-1.5,1C161.3,84.9,158,85.7,154,85.7z
						 M141.1,72.5v4.9c0,1.7,1.3,3.6,3.5,5c2.2,1.4,4.7,2.1,8.2,2.3c4.4,0.2,7.9-0.5,10.6-2.1c0.5-0.3,0.9-0.6,1.4-1
						c0.9-0.7,1.5-1.5,2-2.6c0.2-0.6,0.3-1.1,0.3-1.5v-5.3c-0.7,1.2-1.8,2.2-3.3,2.9c-0.4,0.2-0.8,0.4-1.4,0.6
						c-2.1,0.9-4.4,1.5-6.9,1.6c-2.9,0.2-5.7-0.1-8.5-1.1C144.1,75.4,142.1,74.1,141.1,72.5z"/>
				</g>
				<g>
					<path class="st2" d="M135.8,50.8c0,2.8,0,5.5,0,8.3c0,0.6-0.1,1.2-0.3,1.7c-0.5,1.1-1.2,2.1-2.1,2.8c-0.5,0.4-0.9,0.7-1.5,1
						c-3.2,1.9-7.1,2.3-10.9,2.2c-3-0.1-5.8-0.6-8.5-2.3c-1.9-1.2-3.7-3.2-3.7-5.4c0-2.7,0-5.4,0-8h0.1c0,0.9,0.2,1.7,0.6,2.5
						c1,2,3.6,3.2,5.9,4c2.9,0.9,5.6,1.2,8.3,1c2.3-0.1,4.6-0.6,6.8-1.6c0.5-0.2,0.9-0.4,1.3-0.7c1.3-0.7,2.4-1.6,3.1-2.8
						C135.4,52.7,135.7,51.8,135.8,50.8L135.8,50.8z"/>
					<path class="st2" d="M122.2,67.3c-0.4,0-0.8,0-1.2,0c-3.6-0.1-6.3-0.9-8.7-2.4c-2.5-1.6-3.9-3.7-3.9-5.8v-8
						c0-0.3,0.2-0.5,0.5-0.5c0.3,0,0.6,0.2,0.6,0.5c0,0.8,0.2,1.6,0.5,2.3c0.8,1.6,2.6,2.8,5.7,3.7c2.7,0.9,5.3,1.2,8.1,1
						c2.4-0.2,4.6-0.7,6.6-1.5c0.4-0.2,0.8-0.4,1.3-0.6c1.4-0.7,2.4-1.6,3-2.6c0.4-0.8,0.7-1.7,0.7-2.5c0-0.3,0.2-0.4,0.5-0.4
						c0.3,0,0.5,0.2,0.5,0.5v8.3c0,0.7-0.1,1.4-0.4,1.9c-0.5,1.2-1.3,2.2-2.3,3c-0.5,0.4-1,0.8-1.5,1
						C129.5,66.5,126.2,67.3,122.2,67.3z M109.3,54.2v4.9c0,1.7,1.3,3.6,3.5,5c2.2,1.5,4.7,2.1,8.2,2.3c4.3,0.2,7.9-0.5,10.6-2.1
						c0.5-0.3,0.9-0.6,1.4-1c0.9-0.7,1.5-1.5,2-2.6c0.2-0.4,0.3-0.9,0.3-1.5v-5.2c-0.7,1.2-1.8,2.1-3.3,2.9
						c-0.5,0.3-0.9,0.5-1.4,0.7c-2.1,0.9-4.5,1.4-6.9,1.6c-3,0.2-5.6-0.1-8.5-1.1C112.3,57,110.3,55.8,109.3,54.2z"/>
				</g>
				<g>
					<path class="st2" d="M104,69.2c0,2.8,0,5.5,0,8.3c0,0.6-0.1,1.1-0.3,1.7c-0.5,1.1-1.2,2.1-2.1,2.8c-0.5,0.4-0.9,0.7-1.5,1
						c-3.2,1.9-7.1,2.3-10.9,2.2c-3-0.1-5.8-0.6-8.5-2.3c-1.9-1.2-3.7-3.2-3.7-5.4c0-2.7,0-5.4,0-8.1h0.1c0,0.9,0.2,1.8,0.6,2.5
						c1,2,3.5,3.2,5.9,4c2.8,0.9,5.6,1.2,8.3,1c2.3-0.1,4.6-0.6,6.8-1.6c0.5-0.2,0.9-0.4,1.3-0.6c1.3-0.7,2.4-1.6,3.1-2.8
						C103.7,71.1,103.9,70.2,104,69.2L104,69.2z"/>
					<path class="st2" d="M90.4,85.7c-0.4,0-0.8,0-1.2,0c-3.6-0.1-6.3-0.9-8.7-2.4c-2.5-1.6-3.9-3.7-3.9-5.8v-8.1
						c0-0.3,0.2-0.5,0.5-0.5c0.3,0,0.6,0.2,0.6,0.5c0,0.8,0.2,1.6,0.5,2.3c0.8,1.6,2.7,2.8,5.7,3.7c2.7,0.9,5.3,1.2,8.1,1
						c2.4-0.2,4.6-0.7,6.6-1.6c0.5-0.2,0.9-0.4,1.3-0.6c1.4-0.7,2.4-1.6,3-2.6c0.4-0.7,0.6-1.6,0.6-2.5c0-0.3,0.2-0.5,0.5-0.5
						c0.3,0,0.6,0.2,0.6,0.5v8.3c0,0.7-0.1,1.3-0.4,1.9c-0.5,1.2-1.3,2.2-2.3,3c-0.5,0.4-1,0.8-1.5,1C97.7,84.9,94.4,85.7,90.4,85.7
						z M77.5,72.5v4.9c0,1.7,1.3,3.6,3.5,5c2.2,1.5,4.7,2.1,8.2,2.3c4.3,0.2,7.9-0.5,10.6-2.1c0.5-0.3,0.9-0.6,1.4-1
						c0.9-0.7,1.5-1.5,2-2.6c0.2-0.5,0.3-1,0.3-1.5v-5.2c-0.7,1.1-1.8,2.1-3.3,2.9c-0.4,0.2-0.8,0.4-1.4,0.6
						c-2.1,0.9-4.4,1.5-6.9,1.6c-2.9,0.2-5.7-0.1-8.5-1.1C80.5,75.4,78.5,74.2,77.5,72.5z"/>
				</g>
				<g>
					<path class="st1" d="M135.8,87.6c0,2.8,0,5.5,0,8.3c0,0.6-0.1,1.1-0.3,1.7c-0.5,1.1-1.2,2.1-2.1,2.8c-0.5,0.4-0.9,0.7-1.5,1
						c-3.2,1.9-7.1,2.3-10.9,2.2c-3-0.1-5.8-0.6-8.5-2.3c-1.9-1.2-3.7-3.2-3.7-5.4c0-2.7,0-5.4,0-8h0.1c0,0.9,0.2,1.7,0.6,2.4
						c1,2.1,3.6,3.3,5.9,4c2.9,0.9,5.6,1.2,8.3,1c2.3-0.1,4.6-0.6,6.8-1.6c0.5-0.2,0.9-0.4,1.3-0.6c1.3-0.7,2.4-1.6,3.1-2.8
						C135.4,89.5,135.7,88.5,135.8,87.6L135.8,87.6z"/>
					<path class="st2" d="M122.2,104c-0.4,0-0.8,0-1.2,0c-3.6-0.1-6.3-0.9-8.7-2.4c-2.5-1.6-3.9-3.7-3.9-5.8v-8
						c0-0.3,0.2-0.5,0.5-0.5c0.3,0,0.6,0.2,0.6,0.5c0,0.8,0.2,1.6,0.5,2.2c0.8,1.6,2.7,2.8,5.7,3.8c2.7,0.9,5.3,1.2,8.1,1
						c2.4-0.2,4.6-0.7,6.6-1.6c0.5-0.2,0.9-0.4,1.3-0.6c1.4-0.7,2.4-1.6,3-2.6c0.4-0.8,0.7-1.7,0.7-2.5c0-0.3,0.2-0.4,0.5-0.4
						c0.3,0,0.5,0.2,0.5,0.5v8.3c0,0.7-0.1,1.3-0.4,1.9c-0.5,1.2-1.3,2.2-2.3,3c-0.5,0.4-1,0.8-1.5,1
						C129.5,103.3,126.2,104,122.2,104z M109.3,90.9v5c0,1.7,1.3,3.6,3.5,5c2.2,1.4,4.7,2.1,8.2,2.3c4.4,0.2,7.9-0.5,10.6-2.1
						c0.5-0.3,0.9-0.6,1.4-1c0.9-0.7,1.5-1.5,2-2.6c0.2-0.5,0.3-1,0.3-1.5v-5.2c-0.7,1.1-1.8,2.1-3.3,2.9c-0.4,0.2-0.8,0.4-1.4,0.6
						c-2.1,0.9-4.4,1.5-6.9,1.6c-2.9,0.2-5.6-0.1-8.5-1.1C112.3,93.8,110.3,92.5,109.3,90.9z"/>
				</g>
				<g>
					<path class="st1" d="M167.7,106c0,2.8,0,5.5,0,8.3c0,0.6-0.1,1.1-0.4,1.7c-0.5,1.1-1.2,2.1-2.1,2.8c-0.5,0.4-0.9,0.7-1.5,1
						c-3.2,1.9-7.1,2.3-10.9,2.2c-3-0.1-5.8-0.6-8.5-2.3c-1.9-1.3-3.7-3.2-3.7-5.4c0-2.7,0-5.4,0-8h0.1c0,0.9,0.2,1.7,0.6,2.4
						c1,2,3.6,3.3,5.9,4c2.9,0.9,5.6,1.2,8.3,1c2.3-0.1,4.6-0.7,6.8-1.6c0.5-0.2,0.9-0.4,1.3-0.6c1.3-0.7,2.4-1.6,3.1-2.8
						C167.2,107.9,167.5,106.9,167.7,106L167.7,106z"/>
					<path class="st2" d="M154,122.4c-0.4,0-0.8,0-1.2,0c-3.6-0.1-6.3-0.9-8.7-2.4c-1.5-1-3.9-3-3.9-5.8v-8c0-0.3,0.2-0.5,0.5-0.5
						s0.6,0.2,0.6,0.5c0,0.8,0.2,1.6,0.5,2.2c0.8,1.6,2.7,2.9,5.7,3.8c2.7,0.9,5.4,1.2,8.1,1c2.3-0.1,4.5-0.7,6.6-1.6
						c0.5-0.2,0.9-0.4,1.3-0.6c1.5-0.8,2.4-1.6,3-2.6c0.4-0.8,0.7-1.7,0.7-2.5c0-0.3,0.2-0.4,0.5-0.4c0.3,0,0.6,0.2,0.6,0.5v8.3
						c0,0.6-0.1,1.2-0.4,1.9c-0.5,1.2-1.3,2.2-2.3,3c-0.5,0.4-1,0.8-1.5,1C161.3,121.7,158,122.4,154,122.4z M141.1,109.2v5
						c0,2.3,2.2,4.1,3.5,5c2.2,1.4,4.7,2.1,8.2,2.2c4.3,0.2,7.9-0.5,10.6-2.1c0.5-0.3,0.9-0.6,1.4-1c0.9-0.7,1.5-1.5,2-2.6
						c0.2-0.6,0.3-1.1,0.3-1.5V109c-0.9,1.5-2.3,2.4-3.3,2.9c-0.4,0.2-0.8,0.4-1.4,0.6c-2.2,0.9-4.6,1.5-6.9,1.6
						c-2.9,0.2-5.7-0.1-8.5-1.1C144.1,112.2,142.1,110.9,141.1,109.2z"/>
				</g>
				<g>
					<path class="st1" d="M199.5,124.3c0,2.8,0,5.5,0,8.3c0,0.6-0.1,1.1-0.4,1.7c-0.5,1.1-1.2,2.1-2.1,2.8c-0.5,0.4-1,0.7-1.5,1
						c-3.2,1.9-7.1,2.3-10.9,2.2c-3-0.1-5.8-0.6-8.5-2.3c-1.9-1.3-3.7-3.2-3.7-5.4c0-2.7,0-5.4,0-8.1h0.1c0,0.9,0.2,1.7,0.6,2.5
						c1,2,3.6,3.3,5.9,4c2.9,0.9,5.6,1.2,8.3,1c2.3-0.1,4.6-0.7,6.8-1.6c0.4-0.2,0.9-0.4,1.3-0.6c1.3-0.7,2.5-1.6,3.1-2.8
						C199,126.2,199.3,125.3,199.5,124.3L199.5,124.3z"/>
					<path class="st2" d="M185.8,140.8c-0.4,0-0.8,0-1.2,0c-2.7-0.1-5.8-0.5-8.7-2.4c-1.5-1-3.9-3-3.9-5.8v-8.1
						c0-0.3,0.2-0.5,0.5-0.5c0.3,0,0.6,0.2,0.6,0.5c0,0.8,0.2,1.6,0.5,2.3c0.8,1.6,2.7,2.9,5.7,3.8c2.8,0.9,5.5,1.2,8.1,1
						c2.3-0.1,4.5-0.7,6.7-1.6c0.4-0.2,0.8-0.4,1.2-0.6c1.5-0.8,2.4-1.7,2.9-2.6c0.4-0.8,0.7-1.7,0.7-2.5c0-0.3,0.2-0.4,0.5-0.4
						c0.3,0,0.6,0.2,0.6,0.5v8.3c0,0.6-0.1,1.2-0.4,1.9c-0.5,1.2-1.3,2.2-2.2,3c-0.5,0.4-1,0.7-1.6,1
						C193.1,140,189.8,140.8,185.8,140.8z M172.9,127.6v5c0,2.3,2.2,4.1,3.5,5c2.7,1.8,5.7,2.1,8.2,2.2c4.3,0.2,7.9-0.6,10.6-2.1
						c0.6-0.3,1.1-0.6,1.5-1c0.8-0.7,1.5-1.5,1.9-2.6c0.2-0.6,0.3-1.1,0.3-1.5v-5.3c-0.8,1.4-2.2,2.3-3.3,2.9
						c-0.4,0.2-0.9,0.4-1.3,0.6c-2.3,0.9-4.6,1.5-7,1.7c-2.8,0.2-5.6-0.2-8.5-1.1C176,130.5,173.9,129.2,172.9,127.6z"/>
				</g>
				<g>
					<path class="st2" d="M231.3,142.7c0,2.8,0,5.5,0,8.3c0,0.6-0.1,1.1-0.4,1.7c-0.5,1.1-1.2,2-2.1,2.8c-0.5,0.4-1,0.7-1.5,1
						c-3.2,1.9-7.2,2.3-10.9,2.2c-3-0.1-5.8-0.6-8.5-2.3c-1.9-1.3-3.7-3.2-3.7-5.4c0-2.7,0-5.4,0-8.1h0.1c0,0.9,0.2,1.7,0.6,2.5
						c1,2,3.6,3.3,5.9,4c2.9,0.9,5.6,1.2,8.3,1c2.3-0.1,4.6-0.7,6.8-1.6c0.4-0.2,0.9-0.4,1.3-0.6c1.3-0.7,2.4-1.6,3.1-2.8
						C230.9,144.6,231.1,143.7,231.3,142.7L231.3,142.7z"/>
					<path class="st2" d="M217.6,159.2c-0.4,0-0.8,0-1.2,0c-2.7-0.1-5.8-0.5-8.7-2.4c-1.5-1-3.9-3-3.9-5.8v-8.1
						c0-0.3,0.2-0.5,0.5-0.5c0.3,0,0.6,0.2,0.6,0.5c0,0.8,0.2,1.6,0.5,2.3c0.8,1.6,2.7,2.9,5.7,3.8c2.8,0.9,5.5,1.2,8.1,1
						c2.3-0.1,4.6-0.7,6.7-1.6l0.3-0.1c0.3-0.1,0.7-0.3,1-0.5c1.4-0.8,2.4-1.6,2.9-2.6c0.4-0.8,0.7-1.7,0.7-2.5
						c0-0.3,0.2-0.4,0.5-0.4c0.3,0,0.6,0.2,0.6,0.5v8.3c0,0.6-0.1,1.2-0.4,1.9c-0.5,1.2-1.2,2.1-2.2,3c-0.6,0.4-1.1,0.8-1.5,1
						C224.9,158.4,221.6,159.2,217.6,159.2z M204.7,146v5c0,2.3,2.2,4.1,3.5,5c2.7,1.8,5.7,2.1,8.2,2.2c4.3,0.2,7.9-0.6,10.7-2.1
						c0.4-0.2,0.9-0.6,1.4-1c0.9-0.7,1.5-1.6,1.9-2.6c0.2-0.6,0.3-1.1,0.3-1.5v-5.3c-0.6,1.1-1.7,2.1-3.2,2.9
						c-0.3,0.2-0.7,0.3-1.1,0.5l-0.3,0.1c-2.2,0.9-4.6,1.5-7,1.7c-2.8,0.2-5.6-0.2-8.5-1.1C207.8,148.9,205.8,147.6,204.7,146z"/>
				</g>
				<g>
					<path class="st2" d="M263.1,169.4c0,0.1,0,0.3,0,0.4c-0.1,1-0.5,1.9-1.1,2.7c-0.8,1-1.8,1.8-2.8,2.4c-3.2,1.9-7.2,2.3-10.9,2.2
						c-2.9-0.1-5.8-0.6-8.4-2.3c-1.9-1.3-3.8-3.2-3.8-5.4c0-2.7,0-5.4,0-8.1h0.1c0,0.9,0.2,1.7,0.6,2.5c1,2,3.6,3.2,5.9,4
						c2.9,0.9,5.6,1.2,8.3,1c2.3-0.1,4.6-0.7,6.8-1.6c0.4-0.2,0.9-0.4,1.3-0.6c1.3-0.7,2.4-1.6,3.1-2.8c0.4-0.8,0.7-1.8,0.8-2.7h0.1
						C263.1,163.8,263.1,166.6,263.1,169.4z"/>
					<path class="st2" d="M249.5,177.5c-0.4,0-0.8,0-1.3,0c-2.5-0.1-5.8-0.5-8.6-2.4c-1.5-1-4-3-4-5.8v-8.1c0-0.3,0.2-0.5,0.5-0.5
						c0.3,0,0.6,0.2,0.6,0.5c0,0.8,0.2,1.6,0.5,2.3c1,2,3.7,3.1,5.7,3.8c2.8,0.9,5.4,1.2,8.1,1c2.3-0.1,4.6-0.7,6.7-1.6l0.3-0.1
						c0.3-0.1,0.7-0.3,1-0.5c1.4-0.8,2.4-1.6,2.9-2.6c0.4-0.8,0.7-1.7,0.7-2.5c0-0.3,0.2-0.4,0.5-0.4c0.3,0,0.6,0.2,0.6,0.5v8.7
						c-0.1,1.1-0.5,2-1.2,3c-0.7,0.9-1.7,1.7-2.9,2.5C256.8,176.8,253.5,177.5,249.5,177.5z M236.5,164.4v5c0,2.3,2.2,4.1,3.5,5
						c2.6,1.8,5.6,2.1,8.2,2.2c4.4,0.2,8-0.5,10.7-2.1c1.2-0.7,2-1.4,2.7-2.3c0.6-0.8,1-1.6,1-2.5l0-5.7c-0.6,1.1-1.7,2.1-3.2,2.9
						c-0.3,0.2-0.7,0.4-1.1,0.5l-0.3,0.1c-2.2,0.9-4.6,1.5-7,1.7c-2.8,0.2-5.6-0.2-8.5-1.1C240.6,167.6,237.9,166.4,236.5,164.4z"/>
				</g>
				<g>
					<polygon class="st1" points="249.6,187.7 249.6,231.8 58.7,121.6 58.7,77.5 					"/>
					<path class="st2" d="M249.6,232.3c-0.1,0-0.2,0-0.2-0.1L58.5,122c-0.1-0.1-0.2-0.2-0.2-0.4V77.5c0-0.2,0.1-0.3,0.2-0.4
						c0.1-0.1,0.3-0.1,0.5,0l190.9,110.2c0.1,0.1,0.2,0.2,0.2,0.4v44.1c0,0.2-0.1,0.3-0.2,0.4C249.8,232.2,249.7,232.3,249.6,232.3z
						 M59.2,121.3l190,109.6v-43L59.2,78.3V121.3z"/>
				</g>
				<g>
					<path class="st1" d="M172.5,124.5c0,2.7,0,5.4,0,8.1c0,2.2,1.8,4.1,3.7,5.4c2.6,1.7,5.5,2.2,8.5,2.3c3.8,0.1,7.7-0.3,10.9-2.2
						c0.5-0.3,1-0.6,1.5-1c0.9-0.7,1.6-1.7,2.1-2.8c0.2-0.6,0.4-1.1,0.4-1.7c0-2.8,0-5.5,0-8.3h-0.1c0-0.9-0.1-1.9-0.6-2.7
						c-1-2-3.6-3.2-5.9-4c-2.9-0.9-5.6-1.2-8.3-1c-2.3,0.1-4.6,0.6-6.8,1.6c-1.8,0.8-3.5,1.8-4.4,3.5
						C172.8,122.5,172.6,123.5,172.5,124.5L172.5,124.5z M236.1,161.3c0,2.7,0,5.4,0,8.1c0,2.2,1.8,4.1,3.8,5.4
						c2.6,1.7,5.5,2.2,8.4,2.3c3.8,0.1,7.7-0.3,10.9-2.2c1-0.6,2-1.4,2.8-2.4c0.6-0.8,1-1.7,1.1-2.7c0-0.1,0-0.3,0-0.4
						c0-2.8,0-5.5,0-8.3H263c0-0.9-0.1-1.9-0.6-2.7c-1-2-3.6-3.2-5.9-4c-2.9-0.9-5.6-1.2-8.3-1.1c-2.3,0.2-4.6,0.7-6.8,1.6
						c-1.8,0.8-3.6,1.8-4.5,3.4C236.5,159.2,236.2,160.2,236.1,161.3L236.1,161.3z M204.3,142.9c0,2.7,0,5.4,0,8.1
						c0,2.2,1.8,4.1,3.7,5.4c2.6,1.7,5.5,2.2,8.5,2.3c3.8,0.1,7.7-0.3,10.9-2.2c0.5-0.3,1-0.6,1.5-1c0.9-0.8,1.6-1.7,2.1-2.8
						c0.2-0.6,0.4-1.1,0.4-1.7c0-2.8,0-5.5,0-8.3h-0.1c0-0.9-0.1-1.9-0.6-2.7c-1-2-3.6-3.2-5.9-4c-2.9-0.9-5.6-1.2-8.3-1.1
						c-2.3,0.2-4.6,0.7-6.8,1.6c-1.8,0.8-3.5,1.8-4.4,3.5C204.6,140.9,204.4,141.9,204.3,142.9L204.3,142.9z M140.6,106.2
						c0,2.7,0,5.4,0,8c0,2.2,1.8,4.1,3.7,5.4c2.6,1.7,5.5,2.2,8.5,2.3c3.8,0.1,7.7-0.3,10.9-2.2c0.5-0.3,1-0.6,1.5-1
						c0.9-0.7,1.7-1.7,2.1-2.8c0.2-0.6,0.4-1.1,0.4-1.7c0-2.8,0-5.5,0-8.3h-0.1c0-0.9-0.1-1.9-0.6-2.7c-1-2-3.6-3.2-5.9-4
						c-2.9-0.9-5.6-1.2-8.3-1c-2.3,0.1-4.6,0.6-6.8,1.6c-1.8,0.8-3.5,1.9-4.4,3.5C141,104.2,140.7,105.2,140.6,106.2L140.6,106.2z
						 M108.8,51.1c0,2.7,0,5.4,0,8c0,2.2,1.8,4.1,3.7,5.4c2.6,1.7,5.5,2.2,8.5,2.3c3.8,0.1,7.7-0.3,10.9-2.2c0.5-0.3,1-0.6,1.5-1
						c0.9-0.7,1.7-1.7,2.1-2.8c0.2-0.5,0.3-1.1,0.3-1.7c0-2.8,0-5.5,0-8.3h0c0-0.9-0.2-1.9-0.6-2.7L159.1,62
						c-2.2-0.5-4.3-0.7-6.4-0.5c-2.3,0.1-4.6,0.7-6.8,1.6c-1.8,0.8-3.5,1.8-4.4,3.4c-0.5,0.9-0.8,1.9-0.8,2.9h-0.1c0,2.7,0,5.4,0,8
						c0,2.2,1.8,4.1,3.7,5.4c2.6,1.7,5.5,2.2,8.5,2.3c3.8,0.1,7.7-0.3,10.9-2.2c0.5-0.3,1-0.6,1.5-1c0.9-0.7,1.7-1.7,2.1-2.8
						c0.2-0.6,0.4-1.1,0.4-1.7c0-2.8,0-5.5,0-8.3h-0.1c0-0.9-0.2-1.9-0.6-2.7l24,13.8c-2.2-0.5-4.3-0.7-6.5-0.5
						c-2.3,0.1-4.6,0.6-6.8,1.6c-1.8,0.8-3.5,1.8-4.4,3.4c-0.5,0.9-0.8,1.9-0.8,2.9h-0.1c0,2.7,0,5.4,0,8.1c0,2.2,1.8,4.1,3.7,5.4
						c2.6,1.7,5.5,2.2,8.5,2.3c3.8,0.1,7.7-0.3,10.9-2.2c0.5-0.3,1-0.6,1.5-1c0.9-0.7,1.6-1.7,2.1-2.8c0.2-0.6,0.4-1.1,0.4-1.7
						c0-2.8,0-5.5,0-8.3h-0.1c0-0.9-0.2-1.9-0.6-2.7l24,13.8c-2.2-0.5-4.3-0.7-6.4-0.5c-2.3,0.1-4.6,0.6-6.8,1.6
						c-1.8,0.8-3.5,1.9-4.4,3.5c-0.5,0.9-0.8,1.9-0.8,2.9h-0.1c0,2.7,0,5.4,0,8.1c0,2.2,1.8,4.1,3.7,5.4c2.6,1.7,5.5,2.2,8.5,2.3
						c3.8,0.1,7.7-0.3,10.9-2.2c0.5-0.3,1-0.6,1.5-1c0.9-0.7,1.6-1.7,2.1-2.8c0.2-0.6,0.4-1.1,0.4-1.7c0-2.8,0-5.5,0-8.3h-0.1
						c0-0.9-0.1-1.9-0.6-2.7l24.1,13.9c-2.2-0.6-4.4-0.7-6.5-0.6c-2.3,0.1-4.6,0.6-6.8,1.6c-1.8,0.8-3.6,1.8-4.5,3.5
						c-0.5,0.9-0.8,1.9-0.8,2.9h-0.1c0,2.7,0,5.4,0,8.1c0,2.2,1.8,4.1,3.8,5.4c2.6,1.7,5.5,2.2,8.4,2.3c3.8,0.1,7.7-0.3,10.9-2.2
						c1-0.6,2-1.4,2.8-2.4c0.6-0.8,1-1.7,1.1-2.7c0-0.1,0-0.3,0-0.4c0-2.8,0-5.5,0-8.3H263c0-0.9-0.1-1.9-0.6-2.7l23.9,13.8
						c-2.2-0.5-4.2-0.6-6.4-0.5c-2.3,0.2-4.6,0.7-6.8,1.6c-1.8,0.8-3.5,1.8-4.5,3.5c-0.5,0.9-0.8,1.9-0.8,2.9h0c0,2.7,0,5.4,0,8.1
						c0,2.2,1.8,4.1,3.7,5.4c2.6,1.7,5.5,2.2,8.5,2.3c3.8,0.1,7.7-0.3,10.9-2.2c0.5-0.3,1-0.6,1.5-1c0.9-0.8,1.7-1.7,2.1-2.8
						c0.2-0.6,0.3-1.1,0.3-1.7c0-2.8,0-5.5,0-8.3h-0.1c0-0.9-0.1-1.9-0.6-2.7l19,11l-63.6,36.7L58.7,77.5l19.2-11.1
						c0,0-0.1,0-0.1,0.1c-0.5,0.9-0.7,1.9-0.7,2.9H77c0,2.7,0,5.4,0,8.1c0,2.2,1.8,4.1,3.7,5.4c2.6,1.7,5.5,2.2,8.5,2.3
						c3.8,0.1,7.7-0.3,10.9-2.2c0.5-0.3,1-0.6,1.5-1c0.9-0.7,1.7-1.7,2.1-2.8c0.2-0.6,0.3-1.1,0.3-1.7c0-2.8,0-5.5,0-8.3h-0.1
						c0-0.9-0.1-1.9-0.6-2.7c-1-2-3.5-3.3-5.9-4c-2.8-0.9-5.6-1.2-8.3-1c-1.2,0.1-2.5,0.3-3.7,0.6L109.8,48c0,0,0,0.1-0.1,0.1
						C109.2,49,108.9,50,108.8,51.1L108.8,51.1z M108.8,87.8c0,2.7,0,5.4,0,8c0,2.2,1.8,4.1,3.7,5.4c2.6,1.7,5.5,2.2,8.5,2.3
						c3.8,0.1,7.7-0.3,10.9-2.2c0.5-0.3,1-0.6,1.5-1c0.9-0.7,1.7-1.7,2.1-2.8c0.2-0.6,0.3-1.1,0.3-1.7c0-2.8,0-5.5,0-8.3h0
						c0-0.9-0.2-1.9-0.6-2.7c-1-2.1-3.6-3.3-6-4c-2.8-0.9-5.6-1.2-8.3-1c-2.3,0.1-4.6,0.6-6.8,1.6c-1.8,0.8-3.5,1.8-4.4,3.4
						C109.2,85.8,108.9,86.8,108.8,87.8L108.8,87.8z"/>
					<path class="st2" d="M249.6,188.2c-0.1,0-0.2,0-0.2-0.1L58.5,77.9c-0.1-0.1-0.2-0.2-0.2-0.4c0-0.2,0.1-0.3,0.2-0.4L77.7,66
						c0.2-0.1,0.5-0.1,0.6,0.1c0.1,0.2,0.1,0.5,0,0.6c0,0,0,0,0,0c-0.4,0.8-0.6,1.7-0.6,2.6c0,0.1,0,0.2-0.1,0.3v7.8
						c0,1.7,1.3,3.6,3.5,5c2.2,1.5,4.7,2.1,8.2,2.3c4.3,0.2,7.9-0.5,10.6-2.1c0.5-0.3,0.9-0.6,1.4-1c0.9-0.7,1.5-1.5,2-2.6
						c0.2-0.5,0.3-1,0.3-1.5v-8c-0.1-0.1-0.1-0.2-0.1-0.3c0-0.9-0.1-1.7-0.5-2.4c-0.8-1.6-2.7-2.9-5.7-3.8c-2.7-0.9-5.3-1.2-8.1-1
						c-1.3,0.1-2.5,0.3-3.6,0.6c-0.2,0.1-0.5-0.1-0.6-0.3c-0.1-0.2,0-0.5,0.2-0.6l24.4-14.1c0.2-0.1,0.5-0.1,0.6,0.1
						c0.1,0.2,0.1,0.5-0.1,0.6c0,0,0,0,0,0c0,0,0,0,0,0.1c-0.5,0.9-0.7,1.8-0.7,2.7c0,0.1,0,0.2-0.1,0.3v7.7c0,1.7,1.3,3.6,3.5,5
						c2.2,1.5,4.7,2.1,8.2,2.3c4.3,0.2,7.9-0.5,10.6-2.1c0.5-0.3,0.9-0.6,1.4-1c0.9-0.7,1.5-1.5,2-2.6c0.2-0.4,0.3-0.9,0.3-1.5V51
						c0-0.1,0-0.1,0-0.2c0-0.9-0.2-1.7-0.5-2.5c-0.1-0.2,0-0.4,0.1-0.5c0.1-0.1,0.4-0.2,0.6-0.1l23.9,13.8c0.2,0.1,0.3,0.4,0.2,0.6
						c-0.1,0.2-0.3,0.3-0.5,0.3c-2-0.5-4.1-0.7-6.2-0.5c-2.3,0.1-4.6,0.7-6.7,1.6c-2.1,0.9-3.5,2-4.2,3.2c-0.5,0.9-0.7,1.8-0.7,2.7
						c0,0.1,0,0.2-0.1,0.3v7.7c0,1.7,1.3,3.6,3.5,5c2.2,1.4,4.7,2.1,8.2,2.3c4.4,0.2,7.9-0.5,10.6-2.1c0.5-0.3,0.9-0.6,1.4-1
						c0.9-0.7,1.5-1.5,2-2.6c0.2-0.6,0.3-1.1,0.3-1.5v-8c-0.1-0.1-0.1-0.2-0.1-0.2c0-0.9-0.2-1.7-0.5-2.5c-0.1-0.2,0-0.4,0.1-0.5
						c0.2-0.1,0.4-0.2,0.6-0.1l24,13.8c0.2,0.1,0.3,0.4,0.2,0.6c-0.1,0.2-0.3,0.3-0.5,0.3c-2.1-0.5-4.2-0.7-6.3-0.5
						c-2.4,0.2-4.7,0.7-6.7,1.6c-2.2,0.9-3.5,2-4.2,3.2c-0.4,0.8-0.7,1.8-0.7,2.7c0,0.1,0,0.2-0.1,0.3v7.8c0,1.7,1.3,3.5,3.5,5
						c2.2,1.4,4.7,2.1,8.2,2.2c4.4,0.2,7.9-0.5,10.6-2.1c0.6-0.3,1.1-0.6,1.5-1c0.8-0.7,1.5-1.5,1.9-2.6c0.2-0.6,0.3-1.1,0.3-1.5v-8
						c-0.1-0.1-0.1-0.2-0.1-0.2c0-0.9-0.2-1.7-0.5-2.5c-0.1-0.2,0-0.4,0.1-0.5c0.2-0.1,0.4-0.2,0.6-0.1l24,13.8
						c0.2,0.1,0.3,0.4,0.2,0.6c-0.1,0.2-0.3,0.3-0.5,0.3c-2.1-0.5-4.1-0.7-6.3-0.5c-2.4,0.1-4.6,0.6-6.7,1.5c-2.1,0.9-3.5,2-4.2,3.3
						c-0.4,0.8-0.7,1.8-0.7,2.7c0,0.1,0,0.2-0.1,0.3v7.8c0,2.3,2.2,4.1,3.5,5c2.2,1.4,4.7,2.1,8.2,2.2c4.3,0.2,7.9-0.5,10.7-2.1
						c0.4-0.2,0.9-0.6,1.4-1c0.8-0.7,1.5-1.5,1.9-2.6c0.2-0.6,0.3-1.1,0.3-1.5v-8c-0.1-0.1-0.1-0.2-0.1-0.2c0-1-0.2-1.8-0.5-2.4
						c-0.1-0.2-0.1-0.4,0.1-0.6c0.2-0.1,0.4-0.2,0.6-0.1l24.1,13.9c0.2,0.1,0.3,0.4,0.2,0.6c-0.1,0.2-0.3,0.3-0.6,0.3
						c-2-0.5-4.1-0.7-6.4-0.6c-2.4,0.1-4.6,0.7-6.6,1.5c-2.2,0.9-3.5,2-4.2,3.3c-0.4,0.8-0.7,1.8-0.7,2.7c0,0.1,0,0.2-0.1,0.3v7.8
						c0,2.3,2.2,4.1,3.5,5c2.6,1.8,5.6,2.1,8.2,2.3c4.3,0.2,8-0.5,10.7-2.1c1.2-0.7,2-1.4,2.7-2.3c0.6-0.8,1-1.6,1-2.5l0-8.4
						c-0.1-0.1-0.1-0.2-0.1-0.3c0-0.9-0.1-1.7-0.5-2.5c-0.1-0.2-0.1-0.4,0.1-0.6c0.2-0.1,0.4-0.2,0.6-0.1l23.9,13.8
						c0.2,0.1,0.3,0.4,0.2,0.6c-0.1,0.2-0.3,0.3-0.5,0.3c-2.1-0.4-4-0.6-6.2-0.5c-2.4,0.2-4.6,0.7-6.6,1.6c-2.1,0.9-3.5,1.9-4.2,3.3
						c-0.4,0.8-0.7,1.8-0.7,2.7c0,0.1,0,0.1,0,0.2v7.9c0,1.7,1.3,3.5,3.5,5c2.6,1.8,5.6,2.1,8.2,2.3c4.3,0.2,7.9-0.5,10.6-2.1
						c0.5-0.3,0.9-0.6,1.4-1c0.9-0.7,1.6-1.6,2-2.6c0.2-0.5,0.3-1,0.3-1.5v-8c-0.1-0.1-0.1-0.2-0.1-0.3c0-0.9-0.1-1.8-0.5-2.5
						c-0.1-0.2-0.1-0.4,0.1-0.6c0.2-0.1,0.4-0.2,0.6-0.1l19,11c0.1,0.1,0.2,0.2,0.2,0.4c0,0.2-0.1,0.3-0.2,0.4l-63.6,36.7
						C249.8,188.2,249.7,188.2,249.6,188.2z M59.6,77.5l190,109.7l62.7-36.2l-17.2-9.9c0.1,0.5,0.2,0.9,0.2,1.4
						c0.1,0.1,0.1,0.2,0.1,0.2v8.3c0,0.7-0.1,1.3-0.4,1.9c-0.5,1.2-1.2,2.2-2.3,3c-0.5,0.4-1,0.8-1.5,1c-2.8,1.7-6.6,2.4-11.1,2.2
						c-2.7-0.1-5.9-0.5-8.7-2.4c-1.5-1-3.9-3-3.9-5.8v-8.1c0-0.1,0-0.1,0-0.2c0-1,0.3-2,0.8-2.9c0.9-1.5,2.4-2.7,4.7-3.7
						c2.1-0.9,4.4-1.4,6.9-1.6c1.4-0.1,2.7,0,3.9,0.1l-20.6-11.9c0.1,0.5,0.2,0.9,0.2,1.4c0.1,0.1,0.1,0.2,0.1,0.2v8.7
						c-0.1,1.1-0.5,2-1.2,3c-0.7,0.9-1.7,1.7-2.9,2.5c-2.9,1.7-6.6,2.4-11.2,2.2c-2.7-0.1-5.8-0.5-8.6-2.4c-1.5-1-4-3-4-5.8v-8.1
						c0-0.1,0-0.2,0.1-0.3c0-1,0.3-2,0.8-2.8c0.8-1.5,2.3-2.7,4.7-3.7c2.1-0.9,4.5-1.4,6.9-1.6c1.4-0.1,2.7-0.1,3.9,0.1l-20.6-11.9
						c0.1,0.4,0.1,0.9,0.2,1.4c0.1,0.1,0.1,0.2,0.1,0.3v8.3c0,0.6-0.1,1.2-0.4,1.9c-0.5,1.2-1.3,2.2-2.2,3c-0.5,0.4-1.1,0.8-1.5,1
						c-2.9,1.7-6.6,2.4-11.2,2.3c-3.6-0.1-6.3-0.9-8.7-2.4c-1.5-1-3.9-3-3.9-5.8v-8.1c0-0.1,0-0.2,0.1-0.3c0-1,0.3-2,0.8-2.8
						c0.8-1.5,2.3-2.7,4.6-3.7c2.2-0.9,4.5-1.4,7-1.6c1.3-0.1,2.6-0.1,3.9,0.1L199.7,86c0.1,0.4,0.2,0.9,0.2,1.4
						c0.1,0.1,0.1,0.2,0.1,0.2v8.3c0,0.6-0.1,1.2-0.4,1.9c-0.5,1.2-1.3,2.2-2.2,3c-0.5,0.4-1,0.7-1.6,1c-2.8,1.7-6.6,2.4-11.1,2.2
						c-3.6-0.1-6.3-0.9-8.7-2.4c-1.2-0.8-3.9-2.9-3.9-5.8v-8.1c0-0.1,0-0.2,0.1-0.3c0-1,0.3-2,0.8-2.8c0.8-1.5,2.3-2.6,4.6-3.6
						c2.1-0.9,4.5-1.5,7-1.7c1.3-0.1,2.6-0.1,4,0.1l-20.6-11.9C168,68,168,68.5,168,69c0.1,0.1,0.1,0.2,0.1,0.3v8.3
						c0,0.6-0.1,1.2-0.4,1.9c-0.5,1.2-1.3,2.2-2.3,3c-0.5,0.4-1,0.8-1.5,1c-2.8,1.7-6.6,2.4-11.1,2.2c-3.6-0.1-6.3-0.9-8.7-2.4
						c-1.2-0.8-3.9-2.9-3.9-5.8v-8c0-0.1,0-0.2,0.1-0.3c0-1,0.3-1.9,0.8-2.9c0.8-1.5,2.3-2.6,4.6-3.6c2.2-0.9,4.6-1.5,7-1.7
						c1.3-0.1,2.6-0.1,3.9,0.1L136,49.2c0.1,0.5,0.2,0.9,0.2,1.4c0,0.1,0.1,0.1,0.1,0.2v8.3c0,0.7-0.1,1.4-0.4,1.9
						c-0.5,1.2-1.3,2.2-2.3,3c-0.5,0.4-1,0.8-1.5,1c-2.8,1.7-6.5,2.4-11.1,2.2c-3.6-0.1-6.3-0.9-8.7-2.4c-2.5-1.6-3.9-3.7-3.9-5.8
						v-8c0-0.1,0-0.2,0.1-0.3c0-0.6,0.1-1.1,0.3-1.7L88,61.1c0.3,0,0.7-0.1,1-0.1c3-0.2,5.7,0.1,8.5,1.1c3.2,1,5.3,2.4,6.2,4.3
						c0.4,0.8,0.6,1.7,0.6,2.6c0.1,0.1,0.1,0.2,0.1,0.2v8.3c0,0.7-0.1,1.3-0.4,1.9c-0.5,1.2-1.3,2.2-2.3,3c-0.5,0.4-1,0.8-1.5,1
						c-2.8,1.7-6.6,2.4-11.1,2.2c-3.6-0.1-6.3-0.9-8.7-2.4c-2.5-1.6-3.9-3.7-3.9-5.8v-8.1c0-0.1,0-0.2,0.1-0.3
						c0-0.5,0.1-1.1,0.2-1.6L59.6,77.5z M249.5,177.5c-0.4,0-0.8,0-1.3,0c-2.5-0.1-5.8-0.5-8.6-2.4c-1.5-1-4-3-4-5.8v-8.1
						c0-0.1,0-0.2,0.1-0.3c0-1,0.3-2,0.8-2.9c0.8-1.5,2.3-2.6,4.7-3.6c2.1-0.9,4.4-1.4,6.9-1.7c3-0.2,5.7,0.2,8.5,1.1
						c3.3,1,5.3,2.4,6.2,4.2c0.4,0.8,0.6,1.7,0.6,2.7c0.1,0.1,0.1,0.2,0.1,0.2v8.7c-0.1,1.1-0.5,2-1.2,3c-0.7,0.9-1.7,1.7-2.9,2.5
						C256.8,176.8,253.5,177.5,249.5,177.5z M236.5,161.6v7.8c0,2.3,2.2,4.1,3.5,5c2.6,1.8,5.6,2.1,8.2,2.2c4.4,0.2,8-0.5,10.7-2.1
						c1.2-0.7,2-1.4,2.7-2.3c0.6-0.8,1-1.6,1-2.5l0-8.4c-0.1-0.1-0.1-0.2-0.1-0.3c0-0.9-0.1-1.8-0.5-2.5c-0.8-1.6-2.7-2.8-5.7-3.8
						c-2.7-0.9-5.3-1.2-8.1-1.1c-2.4,0.2-4.6,0.7-6.6,1.6c-2.1,0.9-3.5,2-4.2,3.2c-0.4,0.8-0.7,1.8-0.7,2.7
						C236.6,161.4,236.6,161.5,236.5,161.6z M217.6,159.2c-0.4,0-0.8,0-1.2,0c-2.7-0.1-5.8-0.5-8.7-2.4c-1.5-1-3.9-3-3.9-5.8v-8.1
						c0-0.1,0-0.2,0.1-0.3c0-1,0.3-2,0.8-2.8c1.1-1.9,3.2-3,4.6-3.7c2.2-0.9,4.4-1.4,7-1.7c2.9-0.2,5.7,0.2,8.5,1.1
						c3.3,1,5.3,2.4,6.2,4.2c0.4,0.8,0.6,1.7,0.6,2.7c0.1,0.1,0.1,0.2,0.1,0.3v8.3c0,0.6-0.1,1.2-0.4,1.9c-0.5,1.2-1.2,2.1-2.2,3
						c-0.6,0.4-1.1,0.8-1.5,1C224.9,158.4,221.6,159.2,217.6,159.2z M204.7,143.2v7.8c0,2.3,2.2,4.1,3.5,5c2.7,1.8,5.7,2.1,8.2,2.2
						c4.3,0.2,7.9-0.6,10.7-2.1c0.4-0.2,0.9-0.6,1.4-1c0.9-0.7,1.5-1.6,1.9-2.6c0.2-0.6,0.3-1.1,0.3-1.5v-8
						c-0.1-0.1-0.1-0.2-0.1-0.2c0-1-0.2-1.8-0.5-2.5c-0.8-1.6-2.6-2.8-5.7-3.7c-2.7-0.9-5.3-1.2-8.1-1.1c-2.4,0.2-4.6,0.7-6.7,1.6
						c-2.2,0.9-3.5,2-4.2,3.3c-0.4,0.8-0.7,1.8-0.7,2.7C204.8,143,204.8,143.1,204.7,143.2z M185.8,140.8c-0.4,0-0.8,0-1.2,0
						c-2.7-0.1-5.8-0.5-8.7-2.4c-1.5-1-3.9-3-3.9-5.8v-8.1c0-0.1,0-0.2,0.1-0.3c0-1,0.3-2,0.8-2.8c1.1-1.9,3.2-3,4.6-3.7
						c2.1-0.9,4.5-1.4,7-1.6c2.9-0.2,5.7,0.1,8.5,1.1c3.3,1,5.3,2.4,6.2,4.2c0.4,0.8,0.6,1.7,0.6,2.7c0.1,0.1,0.1,0.2,0.1,0.2v8.3
						c0,0.6-0.1,1.2-0.4,1.9c-0.5,1.2-1.3,2.2-2.2,3c-0.5,0.4-1,0.7-1.6,1C193.1,140,189.8,140.8,185.8,140.8z M172.9,124.8v7.8
						c0,2.3,2.2,4.1,3.5,5c2.7,1.8,5.7,2.1,8.2,2.2c4.3,0.2,7.9-0.6,10.6-2.1c0.6-0.3,1.1-0.6,1.5-1c0.8-0.7,1.5-1.5,1.9-2.6
						c0.2-0.6,0.3-1.1,0.3-1.5v-8c-0.1-0.1-0.1-0.2-0.1-0.2c0-1-0.2-1.8-0.5-2.5c-0.8-1.6-2.6-2.8-5.7-3.8c-2.7-0.9-5.4-1.2-8.1-1
						c-2.4,0.2-4.7,0.7-6.7,1.5c-2.2,0.9-3.5,2-4.2,3.3c-0.4,0.8-0.7,1.8-0.7,2.7C173,124.6,173,124.7,172.9,124.8z M154,122.4
						c-0.4,0-0.8,0-1.2,0c-3.6-0.1-6.3-0.9-8.7-2.4c-1.5-1-3.9-3-3.9-5.8v-8c0-0.1,0-0.2,0.1-0.3c0-1,0.3-1.9,0.8-2.9
						c0.8-1.5,2.4-2.7,4.6-3.7c2.1-0.9,4.5-1.4,7-1.6c2.9-0.2,5.7,0.1,8.5,1.1c3.3,1,5.3,2.4,6.2,4.2c0.4,0.8,0.6,1.7,0.6,2.7
						c0.1,0.1,0.1,0.2,0.1,0.3v8.3c0,0.6-0.1,1.2-0.4,1.9c-0.5,1.2-1.3,2.2-2.3,3c-0.5,0.4-1,0.8-1.5,1
						C161.3,121.7,158,122.4,154,122.4z M141.1,106.5v7.7c0,2.3,2.2,4.1,3.5,5c2.2,1.4,4.7,2.1,8.2,2.2c4.4,0.2,7.9-0.5,10.6-2.1
						c0.5-0.3,0.9-0.6,1.4-1c0.9-0.7,1.5-1.5,2-2.6c0.2-0.6,0.3-1.1,0.3-1.5v-8c-0.1-0.1-0.1-0.2-0.1-0.2c0-1-0.2-1.8-0.5-2.5
						c-0.8-1.6-2.6-2.8-5.7-3.8c-2.7-0.9-5.4-1.2-8.1-1c-2.4,0.1-4.6,0.7-6.7,1.5c-2.1,0.9-3.5,2-4.2,3.3c-0.5,0.9-0.7,1.8-0.7,2.7
						C141.2,106.3,141.2,106.4,141.1,106.5z M122.2,104c-0.4,0-0.8,0-1.2,0c-3.6-0.1-6.3-0.9-8.7-2.4c-2.5-1.6-3.9-3.7-3.9-5.8v-8
						c0-0.1,0-0.2,0.1-0.3c0-1,0.3-1.9,0.8-2.9c0.8-1.5,2.3-2.6,4.6-3.6c2.1-1,4.4-1.5,7-1.7c2.9-0.2,5.7,0.1,8.4,1.1
						c3.3,1,5.3,2.4,6.3,4.3c0.4,0.8,0.6,1.7,0.6,2.7c0,0.1,0.1,0.1,0.1,0.2v8.3c0,0.7-0.1,1.3-0.4,1.9c-0.5,1.2-1.3,2.2-2.3,3
						c-0.5,0.4-1,0.8-1.5,1C129.5,103.3,126.2,104,122.2,104z M109.3,88.1v7.7c0,1.7,1.3,3.6,3.5,5c2.2,1.4,4.7,2.1,8.2,2.3
						c4.4,0.2,7.9-0.5,10.6-2.1c0.5-0.3,0.9-0.6,1.4-1c0.9-0.7,1.5-1.5,2-2.6c0.2-0.5,0.3-1,0.3-1.5v-8.1c0-0.1,0-0.1,0-0.2
						c0-0.9-0.2-1.7-0.5-2.5c-0.8-1.6-2.7-2.8-5.7-3.8c-2.7-0.9-5.3-1.2-8.1-1c-2.5,0.1-4.6,0.7-6.7,1.6c-2.2,0.9-3.5,2-4.2,3.2
						c-0.5,0.9-0.7,1.8-0.7,2.7C109.4,87.9,109.4,88,109.3,88.1z"/>
				</g>
				<g>
					<path class="st1" d="M117.1,43.7c1.3-0.3,2.5-0.5,3.8-0.6c2.7-0.2,5.4,0.1,8.3,1c2.4,0.8,5,2,6,4c0.4,0.8,0.6,1.7,0.6,2.7
						c0,1-0.3,1.9-0.8,2.7c-0.7,1.2-1.9,2.1-3.1,2.8c-0.4,0.2-0.9,0.5-1.3,0.7c-2.2,1-4.5,1.4-6.8,1.6c-2.8,0.2-5.4-0.1-8.3-1
						c-2.4-0.8-4.9-2-6-4c-0.4-0.8-0.6-1.6-0.6-2.5c0-1,0.3-2,0.8-3c0,0,0-0.1,0.1-0.1c0.9-1.5,2.6-2.6,4.3-3.3
						C115.1,44.3,116.1,43.9,117.1,43.7z"/>
					<path class="st2" d="M122.2,59.1c-2.3,0-4.6-0.4-6.9-1.1c-3.3-1-5.3-2.4-6.2-4.2c-0.4-0.8-0.6-1.7-0.6-2.7
						c0-1.1,0.3-2.1,0.8-3.2c0,0,0.1-0.1,0.1-0.1c0,0,0-0.1,0.1-0.1c0.8-1.3,2.3-2.5,4.5-3.4c1-0.4,2-0.8,3.1-1
						c1.2-0.3,2.5-0.5,3.9-0.6c2.8-0.2,5.6,0.2,8.5,1.1c3.2,1,5.3,2.5,6.3,4.3c0.4,0.9,0.6,1.8,0.6,2.9c-0.1,1-0.3,2-0.8,2.9
						c-0.7,1.2-1.8,2.2-3.3,3c-0.4,0.2-0.9,0.5-1.4,0.7c-2.1,0.9-4.5,1.5-7,1.6C123.2,59.1,122.7,59.1,122.2,59.1z M110,48.4
						c-0.5,0.9-0.7,1.8-0.7,2.7c0,0.8,0.2,1.6,0.5,2.3c0.8,1.6,2.7,2.8,5.7,3.8c2.7,0.9,5.3,1.2,8.2,1c2.4-0.2,4.6-0.7,6.7-1.5
						c0.5-0.2,0.9-0.4,1.3-0.6c1.4-0.7,2.4-1.6,3-2.6c0.4-0.8,0.7-1.7,0.7-2.5c0-0.9-0.2-1.7-0.5-2.4c-0.8-1.6-2.7-2.9-5.7-3.8
						c-2.8-0.9-5.4-1.2-8.1-1c-1.3,0.1-2.5,0.3-3.7,0.6c0,0,0,0,0,0c-1,0.2-2.1,0.6-3,1c-2,0.8-3.4,1.9-4.1,3.1
						C110.1,48.3,110.1,48.3,110,48.4z M117.1,43.7L117.1,43.7L117.1,43.7z"/>
				</g>
				<g>
					<path class="st1" d="M294.3,139.9L294.3,139.9c0.4,0.9,0.6,1.8,0.6,2.8c0,1-0.3,1.9-0.8,2.7c-0.7,1.2-1.8,2.1-3.1,2.8
						c-0.4,0.2-0.9,0.4-1.3,0.6c-2.2,1-4.5,1.5-6.9,1.6c-2.7,0.2-5.4-0.1-8.3-1.1c-2.4-0.8-5-2-6-4.1c-0.4-0.8-0.6-1.6-0.6-2.5
						c0-1,0.3-2.1,0.8-2.9c1-1.7,2.7-2.7,4.5-3.5c2.2-1,4.5-1.4,6.8-1.6c2.2-0.1,4.2,0,6.4,0.5c0.7,0.2,1.3,0.3,2,0.6
						C290.7,136.7,293.2,137.9,294.3,139.9z"/>
					<path class="st2" d="M281.3,151c-2.3,0-4.6-0.4-7-1.1c-3.2-1-5.4-2.5-6.3-4.3c-0.4-0.8-0.6-1.8-0.6-2.7c0-1.1,0.3-2.2,0.8-3.1
						c0.9-1.5,2.4-2.7,4.7-3.7c2.1-0.9,4.4-1.4,7-1.7c2.3-0.1,4.4,0.1,6.5,0.5l0.6,0.2c0.5,0.1,0.9,0.2,1.4,0.4
						c3.2,1,5.3,2.4,6.2,4.2c0,0,0,0.1,0.1,0.1c0.4,0.9,0.6,1.8,0.6,2.9c0,1-0.3,1.9-0.8,2.9c-0.6,1.2-1.7,2.1-3.3,3
						c-0.3,0.2-0.7,0.3-1.1,0.5l-0.3,0.1c-2.3,1-4.6,1.5-7,1.7C282.3,151,281.8,151,281.3,151z M281.2,135.3c-0.4,0-0.8,0-1.2,0
						c-2.5,0.2-4.6,0.7-6.7,1.6c-2.1,0.9-3.5,1.9-4.3,3.3c-0.4,0.8-0.7,1.8-0.7,2.7c0,0.8,0.2,1.6,0.5,2.3c0.8,1.6,2.7,2.9,5.7,3.8
						c2.8,0.9,5.4,1.2,8.1,1c2.3-0.1,4.6-0.7,6.7-1.6l0.3-0.1c0.3-0.1,0.7-0.3,1-0.5c1.4-0.8,2.4-1.7,2.9-2.6
						c0.4-0.9,0.7-1.7,0.7-2.5c0-0.9-0.1-1.8-0.5-2.5c0,0,0-0.1,0-0.1c-0.9-1.5-2.7-2.7-5.7-3.7c-0.5-0.2-0.9-0.3-1.3-0.4l-0.6-0.2
						C284.6,135.5,283,135.3,281.2,135.3z"/>
				</g>
				<g>
					<path class="st1" d="M262.5,121.6c0.4,0.8,0.6,1.8,0.6,2.7c0,1-0.3,1.9-0.8,2.7c-0.7,1.2-1.8,2.1-3.1,2.8
						c-0.4,0.2-0.9,0.4-1.3,0.6c-2.2,1-4.6,1.5-6.9,1.6c-2.7,0.2-5.4-0.1-8.4-1.1c-2.4-0.8-4.9-2-6-4.1c-0.4-0.8-0.6-1.6-0.6-2.5
						c0-1,0.3-2.1,0.8-2.9c0.9-1.7,2.7-2.7,4.5-3.5c2.2-1,4.5-1.4,6.8-1.6c2.2-0.1,4.3,0,6.5,0.6c0.6,0.1,1.2,0.3,1.8,0.5
						C258.9,118.4,261.5,119.6,262.5,121.6z"/>
					<path class="st2" d="M249.5,132.7c-2.3,0-4.6-0.4-7-1.1c-3.2-1-5.3-2.5-6.3-4.3c-0.4-0.8-0.6-1.8-0.6-2.7
						c0-1.1,0.3-2.2,0.8-3.1c0.8-1.5,2.3-2.7,4.7-3.7c2.2-0.9,4.5-1.5,7-1.6c2.3-0.2,4.5,0,6.7,0.6c0.5,0.1,1.2,0.3,1.8,0.5
						c3.3,1.1,5.4,2.5,6.3,4.3c0.5,0.9,0.7,1.9,0.6,3c0,1-0.3,1.9-0.8,2.9c-0.8,1.5-2.3,2.5-3.3,3c-0.3,0.2-0.7,0.3-1,0.5l-0.3,0.1
						c-2.2,1-4.6,1.5-7,1.7C250.5,132.6,250,132.7,249.5,132.7z M249.7,117c-0.5,0-1,0-1.5,0.1c-2.4,0.1-4.6,0.7-6.7,1.5
						c-2.2,0.9-3.6,2-4.3,3.3c-0.4,0.8-0.7,1.8-0.7,2.7c0,0.8,0.2,1.6,0.5,2.3c0.8,1.6,2.7,2.9,5.7,3.8c2.8,0.9,5.5,1.2,8.2,1
						c2.3-0.1,4.6-0.7,6.7-1.6l0.3-0.1c0.3-0.1,0.7-0.3,1-0.5c1.5-0.8,2.4-1.6,2.9-2.6c0.4-0.9,0.7-1.7,0.7-2.5
						c0-0.9-0.1-1.8-0.5-2.5c0,0,0,0,0,0c-0.8-1.6-2.7-2.8-5.7-3.8c-0.6-0.2-1.2-0.4-1.7-0.5C253,117.2,251.4,117,249.7,117z"/>
				</g>
				<g>
					<path class="st1" d="M222.8,98.7c0.6,0.1,1.2,0.3,1.9,0.5c2.4,0.8,4.9,2,6,4v0c0.4,0.8,0.6,1.8,0.6,2.7c0,1-0.3,1.9-0.8,2.7
						c-0.7,1.2-1.8,2.1-3.1,2.8c-0.4,0.2-0.9,0.4-1.3,0.6c-2.2,1-4.6,1.5-6.9,1.6c-2.7,0.2-5.5-0.1-8.4-1.1c-2.4-0.8-4.9-2-6-4.1
						c-0.4-0.8-0.6-1.6-0.6-2.5c0-1,0.3-2.1,0.8-2.9c0.9-1.6,2.7-2.7,4.4-3.5c2.3-1,4.6-1.4,6.9-1.6C218.5,98,220.6,98.2,222.8,98.7
						z"/>
					<path class="st2" d="M217.6,114.3c-2.4,0-4.6-0.4-6.9-1.1c-3.2-1-5.3-2.5-6.3-4.3c-0.4-0.8-0.6-1.7-0.6-2.7
						c0-1.1,0.3-2.2,0.8-3.1c0.8-1.5,2.4-2.7,4.7-3.7c2.2-0.9,4.5-1.5,7-1.6c2.2-0.2,4.4,0,6.6,0.5c0.5,0.1,1,0.3,1.6,0.4l0.4,0.1
						c3.3,1.1,5.3,2.4,6.3,4.3c0,0,0,0.1,0,0.1c0.4,0.8,0.6,1.7,0.6,2.8c-0.1,1-0.3,2-0.8,2.9c-0.8,1.5-2.3,2.4-3.3,3
						c-0.3,0.2-0.7,0.4-1.1,0.5l-0.3,0.1c-2.2,1-4.6,1.5-7,1.7C218.7,114.3,218.1,114.3,217.6,114.3z M217.9,98.6
						c-0.5,0-1,0-1.5,0.1c-2.4,0.2-4.6,0.7-6.7,1.5c-2.1,0.9-3.5,2-4.2,3.3c-0.4,0.8-0.7,1.8-0.7,2.7c0,0.8,0.2,1.6,0.5,2.3
						c0.8,1.6,2.7,2.9,5.7,3.8c2.7,0.9,5.4,1.2,8.2,1c2.3-0.1,4.6-0.7,6.7-1.6l0.3-0.1c0.3-0.1,0.7-0.3,1-0.5
						c1.5-0.8,2.4-1.6,2.9-2.6c0.4-0.8,0.7-1.7,0.7-2.5c0-1-0.2-1.8-0.5-2.4c0,0,0-0.1,0-0.1c-0.8-1.5-2.7-2.7-5.7-3.7l-0.4-0.1
						c-0.5-0.2-1-0.3-1.5-0.4l0,0C221.1,98.8,219.5,98.6,217.9,98.6z"/>
				</g>
				<g>
					<path class="st1" d="M198.9,84.9c0.4,0.8,0.6,1.7,0.6,2.7c0,1-0.3,1.9-0.8,2.7c-0.7,1.2-1.9,2.2-3.2,2.8
						c-0.4,0.2-0.9,0.4-1.3,0.6c-2.3,1-4.6,1.5-6.9,1.6c-2.7,0.2-5.5-0.1-8.4-1.1c-2.4-0.8-4.9-2-6-4.1c-0.4-0.8-0.6-1.6-0.6-2.5
						c0-1,0.3-2.1,0.8-2.9c0.9-1.6,2.7-2.7,4.4-3.4c2.2-1,4.6-1.5,6.9-1.6c2.2-0.1,4.3,0,6.5,0.5c0.6,0.1,1.2,0.3,1.9,0.5
						C195.3,81.6,197.8,82.8,198.9,84.9z"/>
					<path class="st2" d="M185.8,95.9c-2.4,0-4.6-0.4-6.9-1.1c-3.3-1.1-5.3-2.5-6.3-4.3c-0.4-0.8-0.6-1.7-0.6-2.7
						c0-1.1,0.3-2.2,0.8-3.1c0.8-1.5,2.3-2.6,4.7-3.6c2.1-0.9,4.5-1.5,7-1.7c2.3-0.2,4.5,0,6.6,0.5c0.6,0.1,1.3,0.3,1.9,0.5
						c3.3,1.1,5.3,2.5,6.3,4.3c0,0,0,0,0,0c0.4,0.9,0.6,1.8,0.6,2.9c0,1-0.3,2-0.8,2.9c-0.6,1.2-1.8,2.2-3.4,3
						c-0.4,0.2-0.8,0.4-1.3,0.6c-2.3,1-4.6,1.5-7.1,1.7C186.9,95.9,186.3,95.9,185.8,95.9z M186.1,80.2c-0.5,0-1,0-1.5,0.1
						c-2.5,0.2-4.7,0.7-6.7,1.6c-2.2,0.9-3.5,2-4.2,3.2c-0.4,0.8-0.7,1.8-0.7,2.7c0,0.8,0.2,1.6,0.5,2.3c0.8,1.6,2.7,2.9,5.7,3.8
						c2.7,0.9,5.4,1.2,8.2,1c2.4-0.2,4.6-0.7,6.7-1.6c0.5-0.2,0.9-0.4,1.2-0.6c1.4-0.7,2.4-1.6,3-2.6c0.4-0.8,0.7-1.7,0.7-2.5
						c0-0.9-0.2-1.7-0.5-2.4c-0.8-1.6-2.7-2.9-5.7-3.8c-0.6-0.2-1.2-0.4-1.8-0.5C189.3,80.4,187.8,80.2,186.1,80.2z"/>
				</g>
				<g>
					<path class="st1" d="M167,66.5L167,66.5c0.4,0.9,0.6,1.8,0.6,2.7c0,1-0.3,1.9-0.8,2.7c-0.7,1.2-1.9,2.2-3.2,2.8
						c-0.4,0.2-0.9,0.4-1.3,0.6c-2.2,1-4.5,1.5-6.8,1.6c-2.7,0.2-5.5-0.1-8.4-1.1c-2.4-0.8-4.9-2-6-4c-0.4-0.8-0.6-1.6-0.6-2.5
						c0-1.1,0.3-2.1,0.8-3c0.9-1.6,2.7-2.7,4.4-3.4c2.2-1,4.6-1.5,6.9-1.6c2.1-0.1,4.2,0,6.4,0.5c0.6,0.1,1.3,0.3,2,0.5
						C163.5,63.2,166,64.5,167,66.5z"/>
					<path class="st2" d="M154,77.5c-2.4,0-4.6-0.4-6.9-1.1c-3.3-1.1-5.3-2.4-6.2-4.2c-0.4-0.8-0.6-1.8-0.6-2.7
						c0-1.1,0.3-2.2,0.8-3.2c0.8-1.5,2.3-2.6,4.7-3.7c2.2-1,4.6-1.5,7-1.7c2.3-0.1,4.4,0,6.5,0.5l0.2,0c0.6,0.1,1.2,0.3,1.8,0.5
						c3.1,1,5.2,2.4,6.2,4.2c0,0,0.1,0.1,0.1,0.1c0.4,0.9,0.6,1.8,0.6,2.9c-0.1,1-0.3,2-0.8,2.9c-0.7,1.2-1.8,2.2-3.4,3
						c-0.5,0.3-1,0.5-1.4,0.6c-2.1,1-4.4,1.5-7,1.7C155.1,77.5,154.5,77.5,154,77.5z M154.3,61.8c-0.5,0-1,0-1.5,0.1
						c-2.3,0.1-4.6,0.7-6.7,1.6c-2.2,0.9-3.5,2-4.2,3.2c-0.5,0.9-0.7,1.8-0.7,2.7c0,0.8,0.2,1.6,0.5,2.3c0.8,1.6,2.7,2.8,5.7,3.8
						c2.7,0.9,5.4,1.2,8.2,1c2.5-0.2,4.6-0.7,6.7-1.6c0.6-0.2,0.9-0.4,1.3-0.6c1.4-0.7,2.4-1.6,3-2.6c0.4-0.8,0.7-1.7,0.7-2.5
						c0-0.8-0.2-1.7-0.5-2.4c0,0-0.1-0.1-0.1-0.1c-0.8-1.6-2.7-2.8-5.7-3.8c-0.6-0.2-1.2-0.3-1.7-0.5l-0.2,0
						C157.5,62,155.9,61.8,154.3,61.8z"/>
				</g>
				<g>
					<path class="st1" d="M85.4,62.1c1.2-0.3,2.5-0.5,3.7-0.6c2.8-0.2,5.5,0.1,8.4,1.1c2.4,0.8,4.9,2,6,4.1c0.4,0.8,0.6,1.7,0.6,2.7
						c0,1-0.2,1.9-0.7,2.7c-0.7,1.2-1.9,2.2-3.2,2.8c-0.4,0.2-0.9,0.4-1.3,0.6c-2.2,1-4.5,1.5-6.8,1.6c-2.8,0.2-5.5-0.1-8.4-1.1
						c-2.4-0.8-4.9-2-6-4c-0.4-0.8-0.6-1.7-0.6-2.5c0-1.1,0.2-2.1,0.7-2.9c0,0,0,0,0.1-0.1c1-1.6,2.6-2.6,4.4-3.3
						C83.3,62.6,84.3,62.3,85.4,62.1z"/>
					<path class="st2" d="M90.4,77.5c-2.4,0-4.7-0.4-6.9-1.1c-3.3-1-5.3-2.4-6.2-4.2c-0.4-0.8-0.6-1.8-0.6-2.7
						c0-1.1,0.3-2.2,0.8-3.1l0,0c0-0.1,0.1-0.1,0.1-0.2c1.1-1.8,3.1-2.8,4.6-3.5c1.2-0.5,2.2-0.8,3.2-1c1.2-0.3,2.4-0.5,3.8-0.6
						c3-0.2,5.8,0.1,8.5,1.1c3.2,1,5.3,2.5,6.2,4.3c0.5,0.9,0.7,1.9,0.6,2.9c0,1-0.3,2.1-0.8,2.9c-0.7,1.2-1.8,2.2-3.3,3
						c-0.5,0.3-1,0.5-1.4,0.6c-2.1,1-4.4,1.5-7,1.7C91.4,77.5,90.9,77.5,90.4,77.5z M78.1,66.8c-0.4,0.8-0.6,1.7-0.6,2.6
						c0,0.8,0.2,1.6,0.5,2.3c0.8,1.6,2.7,2.8,5.7,3.8c2.7,0.9,5.3,1.2,8.2,1c2.4-0.2,4.6-0.7,6.7-1.6c0.6-0.2,0.9-0.4,1.3-0.6
						c1.4-0.7,2.4-1.6,3-2.6c0.4-0.7,0.7-1.6,0.7-2.5c0-0.9-0.1-1.7-0.5-2.5c-0.8-1.6-2.7-2.9-5.7-3.8c-2.7-0.9-5.4-1.2-8.2-1
						c-1.3,0.1-2.5,0.3-3.6,0.6c0,0,0,0,0,0c-1,0.2-1.9,0.5-3,1c-2.1,0.9-3.4,1.9-4.2,3.2C78.2,66.7,78.2,66.7,78.1,66.8z
						 M85.4,62.1L85.4,62.1L85.4,62.1z"/>
				</g>
				<g>
					<path class="st1" d="M135.2,84.9c0.4,0.8,0.6,1.7,0.6,2.7c0,1-0.3,1.9-0.8,2.7c-0.7,1.2-1.9,2.1-3.1,2.8
						c-0.4,0.2-0.9,0.4-1.3,0.6c-2.2,1-4.5,1.5-6.8,1.6c-2.8,0.2-5.4-0.1-8.3-1c-2.4-0.8-4.9-2-6-4c-0.4-0.7-0.6-1.6-0.6-2.4
						c0-1,0.3-2,0.8-3c0.9-1.6,2.7-2.7,4.4-3.4c2.2-1,4.5-1.5,6.9-1.6c2.7-0.2,5.4,0.1,8.3,1C131.7,81.6,134.2,82.8,135.2,84.9z"/>
					<path class="st2" d="M122.2,95.9c-2.3,0-4.6-0.4-6.9-1.1c-3.3-1-5.3-2.5-6.2-4.3c-0.4-0.8-0.6-1.7-0.6-2.6
						c0-1.1,0.3-2.1,0.8-3.2c0.8-1.5,2.3-2.6,4.7-3.6c2.1-1,4.4-1.5,7-1.7c2.9-0.2,5.7,0.1,8.5,1.1c3.3,1,5.4,2.4,6.3,4.3
						c0,0,0,0,0,0c0.4,0.9,0.6,1.8,0.6,2.9c-0.1,1-0.3,2-0.8,2.9c-0.7,1.2-1.8,2.2-3.3,3c-0.4,0.2-0.8,0.4-1.4,0.6
						c-2.1,1-4.4,1.5-7,1.7C123.2,95.9,122.7,95.9,122.2,95.9z M122.5,80.2c-0.5,0-1,0-1.5,0.1c-2.5,0.2-4.7,0.7-6.7,1.6
						c-2.2,0.9-3.5,2-4.2,3.2c-0.5,0.9-0.7,1.8-0.7,2.7c0,0.8,0.2,1.6,0.5,2.2c0.8,1.6,2.7,2.9,5.7,3.8c2.7,0.9,5.3,1.2,8.2,1
						c2.4-0.2,4.6-0.7,6.7-1.6c0.5-0.2,0.9-0.4,1.3-0.6c1.4-0.7,2.4-1.6,3-2.6c0.4-0.8,0.7-1.7,0.7-2.5c0-0.9-0.2-1.7-0.5-2.4
						c-0.8-1.6-2.7-2.9-5.7-3.8C126.9,80.6,124.7,80.2,122.5,80.2z"/>
				</g>
				<g>
					<path class="st1" d="M167.1,103.2c0.4,0.9,0.6,1.8,0.6,2.7c0,1-0.3,1.9-0.8,2.7c-0.7,1.2-1.9,2.1-3.2,2.8
						c-0.4,0.2-0.9,0.4-1.3,0.6c-2.2,1-4.5,1.5-6.8,1.6c-2.7,0.2-5.5-0.1-8.4-1.1c-2.4-0.8-4.9-2-6-4.1c-0.4-0.7-0.6-1.6-0.6-2.4
						c0-1.1,0.3-2.1,0.8-3c0.9-1.6,2.7-2.7,4.4-3.5c2.2-1,4.6-1.4,6.9-1.6c2.7-0.2,5.5,0.1,8.4,1.1C163.5,100,166,101.2,167.1,103.2
						z"/>
					<path class="st2" d="M154,114.3c-2.4,0-4.6-0.4-7-1.1c-3.2-1-5.3-2.5-6.2-4.3c-0.4-0.8-0.6-1.7-0.6-2.7c0-1.1,0.3-2.2,0.8-3.2
						c0.8-1.5,2.4-2.7,4.7-3.7c2.1-0.9,4.5-1.5,7-1.6c2.9-0.2,5.7,0.1,8.5,1.1c3.3,1.1,5.3,2.4,6.2,4.2c0,0,0,0,0,0
						c0.4,0.8,0.6,1.8,0.6,2.9c-0.1,1-0.3,2-0.8,2.9c-0.9,1.5-2.3,2.4-3.3,3c-0.5,0.3-1,0.5-1.4,0.6c-2.2,1-4.6,1.5-7,1.7
						C155.1,114.3,154.5,114.3,154,114.3z M154.3,98.6c-0.5,0-1,0-1.5,0.1c-2.4,0.2-4.7,0.7-6.7,1.5c-2.1,0.9-3.5,2-4.2,3.3
						c-0.5,0.9-0.7,1.8-0.7,2.7c0,0.8,0.2,1.6,0.5,2.2c0.8,1.6,2.7,2.9,5.7,3.8c2.7,0.9,5.4,1.2,8.2,1c2.3-0.1,4.5-0.7,6.7-1.6
						c0.4-0.2,0.8-0.4,1.3-0.6c1.5-0.8,2.4-1.6,3-2.6c0.4-0.8,0.7-1.7,0.7-2.5c0-0.9-0.2-1.8-0.5-2.5c-0.8-1.6-2.7-2.8-5.7-3.8
						C158.8,99,156.6,98.6,154.3,98.6z"/>
				</g>
				<g>
					<path class="st1" d="M198.9,121.6c0.4,0.9,0.6,1.8,0.6,2.7c0,1-0.3,1.9-0.8,2.7c-0.7,1.2-1.9,2.1-3.2,2.8
						c-0.4,0.2-0.9,0.4-1.3,0.6c-2.3,1-4.6,1.5-6.9,1.6c-2.7,0.2-5.5-0.1-8.4-1.1c-2.4-0.8-4.9-2-6-4.1c-0.4-0.8-0.6-1.6-0.6-2.5
						c0-1,0.3-2.1,0.8-2.9c0.9-1.7,2.7-2.7,4.4-3.5c2.2-1,4.6-1.4,6.9-1.6c2.7-0.2,5.5,0.1,8.4,1.1
						C195.3,118.4,197.8,119.6,198.9,121.6z"/>
					<path class="st2" d="M185.9,132.7c-2.3,0-4.6-0.4-7-1.1c-3.2-1-5.3-2.5-6.3-4.3c-0.4-0.8-0.6-1.8-0.6-2.7
						c0-1.1,0.3-2.2,0.8-3.1c1.1-2,3.2-3,4.7-3.7c2.2-0.9,4.5-1.5,7-1.6c2.9-0.2,5.7,0.1,8.5,1.1c3.3,1.1,5.3,2.4,6.2,4.2
						c0,0,0,0,0,0c0.4,0.8,0.6,1.8,0.6,2.9c0,1-0.3,2-0.8,2.9c-0.8,1.5-2.2,2.4-3.3,3c-0.4,0.2-0.9,0.4-1.3,0.6
						c-2.3,1-4.7,1.5-7,1.7C186.9,132.6,186.4,132.7,185.9,132.7z M186.1,117c-0.5,0-1,0-1.5,0.1c-2.4,0.2-4.7,0.7-6.7,1.5
						c-2.2,0.9-3.5,2-4.2,3.3c-0.5,0.8-0.7,1.8-0.7,2.7c0,0.8,0.2,1.6,0.5,2.3c0.8,1.6,2.7,2.9,5.7,3.8c2.8,0.9,5.5,1.2,8.2,1
						c2.3-0.1,4.5-0.7,6.7-1.6c0.4-0.2,0.8-0.4,1.2-0.6c1-0.6,2.3-1.4,3-2.6c0.4-0.8,0.7-1.7,0.7-2.5c0-1-0.2-1.8-0.5-2.5
						c-0.8-1.6-2.7-2.8-5.7-3.8C190.6,117.3,188.4,117,186.1,117z"/>
				</g>
				<g>
					<path class="st1" d="M230.7,140c0.4,0.9,0.6,1.8,0.6,2.7c0,1-0.3,1.9-0.8,2.7c-0.7,1.2-1.8,2.1-3.1,2.8
						c-0.4,0.2-0.9,0.4-1.3,0.6c-2.2,1-4.6,1.5-6.9,1.6c-2.7,0.2-5.5-0.1-8.4-1.1c-2.4-0.8-4.9-2-6-4.1c-0.4-0.8-0.6-1.6-0.6-2.5
						c0-1,0.3-2.1,0.8-2.9c0.9-1.7,2.7-2.7,4.4-3.5c2.3-1,4.6-1.4,6.9-1.6c2.7-0.1,5.5,0.1,8.4,1.1
						C227.1,136.7,229.7,137.9,230.7,140z"/>
					<path class="st2" d="M217.7,151c-2.3,0-4.6-0.4-7-1.1c-3.2-1-5.3-2.5-6.3-4.3c-0.4-0.8-0.6-1.8-0.6-2.7c0-1.1,0.3-2.2,0.8-3.1
						c1.1-2,3.2-3,4.7-3.7c2.2-0.9,4.5-1.5,7-1.7c3-0.2,5.8,0.2,8.6,1.1c3.3,1,5.3,2.4,6.3,4.2c0,0,0,0,0,0c0.4,0.8,0.6,1.8,0.6,2.9
						c-0.1,1-0.3,2-0.8,2.9c-0.6,1.2-1.7,2.1-3.3,3c-0.4,0.2-0.7,0.4-1.1,0.5l-0.3,0.1c-2.2,1-4.6,1.5-7,1.7
						C218.7,151,218.2,151,217.7,151z M217.7,135.3c-0.4,0-0.8,0-1.3,0c-2.4,0.2-4.6,0.7-6.7,1.6c-2.2,0.9-3.5,2-4.2,3.3
						c-0.5,0.8-0.7,1.8-0.7,2.7c0,0.8,0.2,1.6,0.5,2.3c0.8,1.6,2.7,2.9,5.7,3.8c2.8,0.9,5.5,1.2,8.2,1c2.3-0.1,4.6-0.7,6.7-1.6
						l0.3-0.1c0.3-0.1,0.7-0.3,1-0.5c1.4-0.8,2.4-1.6,2.9-2.6c0.4-0.8,0.7-1.7,0.7-2.5c0-0.9-0.2-1.8-0.5-2.5
						c-0.8-1.6-2.7-2.8-5.7-3.8C222.3,135.7,220,135.3,217.7,135.3z"/>
				</g>
				<g>
					<path class="st1" d="M262.5,158.4c0.4,0.8,0.6,1.8,0.6,2.7c0,1-0.3,1.9-0.8,2.7c-0.7,1.2-1.8,2.1-3.1,2.8
						c-0.4,0.2-0.9,0.4-1.3,0.6c-2.2,1-4.6,1.5-6.9,1.6c-2.7,0.2-5.4-0.1-8.4-1.1c-2.4-0.8-4.9-2-6-4.1c-0.4-0.8-0.6-1.6-0.6-2.5
						c0-1.1,0.3-2.1,0.8-3c0.9-1.6,2.7-2.7,4.5-3.4c2.2-1,4.5-1.4,6.8-1.6c2.7-0.1,5.4,0.1,8.4,1.1
						C258.9,155.1,261.5,156.3,262.5,158.4z"/>
					<path class="st2" d="M249.5,169.4c-2.3,0-4.6-0.4-7-1.1c-2.1-0.7-5.1-1.9-6.3-4.3c-0.4-0.8-0.6-1.7-0.6-2.7
						c0-1.1,0.3-2.2,0.8-3.2c0.8-1.5,2.4-2.7,4.7-3.6c2.1-0.9,4.4-1.4,7-1.7c3-0.2,5.8,0.2,8.5,1.1c3.3,1,5.3,2.4,6.2,4.2
						c0.5,0.9,0.7,1.9,0.6,3c-0.1,1-0.3,2-0.8,2.9c-0.6,1.2-1.7,2.1-3.3,3c-0.3,0.2-0.7,0.4-1.1,0.5l-0.3,0.1c-2.2,1-4.6,1.5-7,1.7
						C250.5,169.4,250,169.4,249.5,169.4z M249.5,153.7c-0.4,0-0.8,0-1.3,0c-2.5,0.2-4.6,0.7-6.7,1.6c-2.2,0.9-3.6,2-4.3,3.2
						c-0.5,0.8-0.7,1.8-0.7,2.7c0,0.8,0.2,1.6,0.5,2.3c1,2,3.8,3.2,5.7,3.8c2.8,0.9,5.5,1.2,8.2,1c2.3-0.1,4.6-0.7,6.7-1.6l0.3-0.1
						c0.3-0.1,0.7-0.3,1-0.5c1.4-0.8,2.4-1.7,2.9-2.6c0.4-0.8,0.7-1.7,0.7-2.5c0-0.9-0.1-1.8-0.5-2.5c0,0,0,0,0,0
						c-0.8-1.6-2.7-2.8-5.7-3.8C254.1,154.1,251.8,153.7,249.5,153.7z"/>
				</g>
			</g>
		</g>
		<g>
			<g>
				<path class="st1" d="M116,111.3l-5,2.9c2.2-0.5,4.3-0.7,6.5-0.5c1.2,0.1,2.5,0.3,3.8,0.6L116,111.3z"/>
				<path class="st2" d="M121.2,114.8c0,0-0.1,0-0.1,0c-1.1-0.3-2.3-0.5-3.7-0.6c-2.2-0.1-4.2,0-6.3,0.5c-0.2,0-0.5-0.1-0.5-0.3
					c-0.1-0.2,0-0.5,0.2-0.6l5-2.9c0.1-0.1,0.3-0.1,0.5,0l5.2,3c0.2,0.1,0.3,0.4,0.2,0.6C121.5,114.7,121.4,114.8,121.2,114.8z
					 M115.9,113.2c0.5,0,1,0,1.6,0.1c0.4,0,0.7,0.1,1.1,0.1l-2.5-1.5l-2.5,1.4C114.3,113.2,115.1,113.2,115.9,113.2z"/>
			</g>
			<g>
				<polygon class="st2" points="20.6,166.4 20.6,210.6 84.2,247.3 84.2,203.2 				"/>
				<path class="st2" d="M84.2,247.7c-0.1,0-0.2,0-0.2-0.1L20.3,211c-0.1-0.1-0.2-0.2-0.2-0.4v-44.1c0-0.2,0.1-0.3,0.2-0.4
					c0.1-0.1,0.3-0.1,0.5,0l63.6,36.7c0.1,0.1,0.2,0.2,0.2,0.4v44.1c0,0.2-0.1,0.3-0.2,0.4C84.4,247.7,84.3,247.7,84.2,247.7z
					 M21.1,210.3l62.7,36.2v-43l-62.7-36.2V210.3z"/>
			</g>
			<g>
				<path class="st2" d="M129.4,158.4c0-1-0.3-2-0.8-2.9c-0.9-1.6-2.7-2.7-4.4-3.5c-2.3-0.9-4.6-1.4-6.8-1.6c-2.7-0.2-5.4,0.1-8.3,1
					c-2.4,0.8-4.9,1.9-5.9,4c-0.4,0.9-0.6,1.8-0.6,2.7h-0.1c0,2.8,0,5.5,0,8.3c0,0.6,0.1,1.1,0.4,1.7c0.5,1.1,1.2,2.1,2.1,2.8
					c0.5,0.4,1,0.7,1.5,1c3.2,1.9,7.2,2.3,10.9,2.2c3-0.1,5.8-0.6,8.5-2.3c1.9-1.3,3.7-3.2,3.7-5.4
					C129.5,163.7,129.5,161.1,129.4,158.4L129.4,158.4z M70.7,184.8c0,2.7,2.7,4.9,5.3,6.2c2.8,1.3,5.5,1.6,8.2,1.6
					c2.8,0,5.5-0.3,8.2-1.6c2.7-1.3,5.4-3.5,5.4-6.2c0-2.8,0-5.5,0-8.3h-0.1c0-0.9-0.1-1.9-0.6-2.7c-1-2-3.6-3.2-5.9-4
					c-2.9-0.9-5.6-1.2-8.3-1c-2.3,0.1-4.6,0.6-6.8,1.6c-0.4,0.2-0.9,0.4-1.3,0.7c-1.3,0.7-2.4,1.6-3.1,2.8c-0.5,0.9-0.8,1.9-0.8,2.9
					h-0.1C70.7,179.5,70.7,182.2,70.7,184.8z M97.6,140c0-1-0.3-2-0.8-2.9c-0.9-1.6-2.7-2.7-4.5-3.4c-2.2-1-4.5-1.5-6.8-1.6
					c-2.1-0.1-4.3,0-6.5,0.6l24.1-13.9c-0.4,0.8-0.6,1.7-0.6,2.7h-0.1c0,2.8,0,5.5,0,8.3c0,0.6,0.1,1.1,0.4,1.7
					c0.5,1.1,1.2,2.1,2.1,2.8c0.5,0.4,1,0.7,1.5,1c3.2,1.9,7.2,2.3,10.9,2.2c3-0.1,5.8-0.6,8.5-2.3c1.9-1.2,3.7-3.2,3.7-5.4
					c0-2.7,0-5.4,0-8h-0.1c0-1-0.3-2.1-0.8-2.9c0,0,0-0.1-0.1-0.1l24.3,14c-1.2-0.3-2.4-0.4-3.7-0.5c-2.7-0.2-5.4,0.1-8.3,1
					c-2.4,0.8-4.9,1.9-5.9,4c-0.4,0.8-0.6,1.7-0.6,2.7h-0.1c0,2.8,0,5.5,0,8.3c0,0.6,0.1,1.1,0.4,1.7c0.5,1.1,1.2,2.1,2.1,2.8
					c0.5,0.4,1,0.7,1.5,1c3.2,1.9,7.1,2.3,10.9,2.2c3-0.1,5.8-0.6,8.5-2.3c1.9-1.2,3.7-3.2,3.7-5.4c0-2.7,0-5.4,0-8.1h-0.1
					c0-1-0.3-2-0.8-2.9c0,0,0-0.1-0.1-0.1l19.3,11.1l-95.5,55.1l-63.6-36.7l19.3-11.2c0,0-0.1,0.1-0.1,0.2c-0.5,0.9-0.8,1.9-0.8,2.9
					h-0.1c0,2.7,0,5.4,0,8.1c0,2.7,2.7,4.9,5.3,6.2c2.7,1.3,5.5,1.6,8.2,1.6c2.8,0,5.5-0.3,8.2-1.6c2.7-1.3,5.3-3.5,5.3-6.2
					c0-2.8,0-5.5,0-8.3h0c0-0.9-0.1-1.9-0.6-2.7c-1-2-3.6-3.2-6-4c-2.8-0.9-5.6-1.2-8.3-1c-1.2,0.1-2.4,0.2-3.7,0.5l24-13.8
					c-0.4,0.8-0.6,1.7-0.6,2.7h-0.1c0,2.8,0,5.5,0,8.3c0,0.6,0.1,1.1,0.3,1.7c0.5,1.1,1.2,2.1,2.1,2.8c0.5,0.4,1,0.7,1.5,1
					c3.2,1.9,7.1,2.3,10.9,2.2c2.9-0.1,5.8-0.6,8.4-2.3c1.9-1.2,3.8-3.2,3.8-5.4C97.7,145.4,97.7,142.7,97.6,140L97.6,140z"/>
				<path class="st2" d="M84.2,203.7c-0.1,0-0.2,0-0.2-0.1l-63.6-36.7c-0.1-0.1-0.2-0.2-0.2-0.4c0-0.2,0.1-0.3,0.2-0.4l19.3-11.2
					c0.2-0.1,0.5-0.1,0.6,0.1c0.1,0.2,0.1,0.5,0,0.6c0,0-0.1,0.1-0.1,0.1c-0.4,0.7-0.7,1.6-0.7,2.6c0,0.1,0,0.2-0.1,0.3v7.8
					c0,3.1,3.9,5.2,5.1,5.8c2.8,1.3,5.7,1.5,8,1.5c2.3,0,5.1-0.2,8-1.5c1.2-0.6,5-2.7,5-5.8v-8.1c0-0.1,0-0.1,0-0.2
					c0-1-0.2-1.8-0.5-2.5c-0.8-1.6-2.7-2.8-5.7-3.7c-2.7-0.9-5.3-1.2-8.1-1c-1.4,0.1-2.5,0.3-3.6,0.5c-0.2,0.1-0.5-0.1-0.5-0.3
					c-0.1-0.2,0-0.5,0.2-0.6l24-13.8c0.2-0.1,0.4-0.1,0.6,0.1c0.2,0.1,0.2,0.4,0.1,0.6c-0.4,0.7-0.6,1.5-0.5,2.4
					c0,0.1,0,0.2-0.1,0.3v8c0,0.6,0.1,1.1,0.3,1.5c0.5,1.1,1.1,2,2,2.6c0.5,0.4,1,0.7,1.4,1c2.7,1.6,6.3,2.3,10.7,2.1
					c3.4-0.1,6-0.8,8.2-2.2c2.2-1.4,3.5-3.3,3.5-5v-7.8c-0.1-0.1-0.1-0.2-0.1-0.2c0-0.9-0.3-1.9-0.7-2.7c-0.7-1.3-2.1-2.3-4.2-3.2
					c-2-0.9-4.2-1.4-6.6-1.6c-2.2-0.1-4.3,0-6.4,0.6c-0.2,0-0.5-0.1-0.6-0.3c-0.1-0.2,0-0.5,0.2-0.6l24.1-13.9
					c0.2-0.1,0.4-0.1,0.6,0.1c0.2,0.1,0.2,0.4,0.1,0.5c-0.4,0.7-0.5,1.6-0.5,2.5c0,0.1,0,0.2-0.1,0.3v8c0,0.5,0.1,1,0.3,1.5
					c0.4,1.1,1.1,1.9,1.9,2.6c0.5,0.4,1,0.7,1.4,1c2.7,1.6,6.3,2.3,10.7,2.1c3.5-0.1,6-0.8,8.2-2.2c2.2-1.4,3.5-3.3,3.5-5v-7.8
					c-0.1-0.1-0.1-0.2-0.1-0.2c0-0.9-0.2-1.9-0.7-2.7c0,0-0.1-0.1-0.1-0.1c-0.2-0.2-0.2-0.4,0-0.6c0.1-0.2,0.4-0.2,0.6-0.1l24.3,14
					c0.2,0.1,0.3,0.4,0.2,0.6c-0.1,0.2-0.3,0.3-0.5,0.3c-1-0.2-2.1-0.4-3.6-0.5c-2.8-0.2-5.4,0.1-8.1,1c-3,1-4.9,2.2-5.7,3.8
					c-0.3,0.7-0.5,1.6-0.5,2.4c0,0.1,0,0.2-0.1,0.3v8c0,0.5,0.1,1,0.3,1.5c0.4,1.1,1.1,1.9,1.9,2.6c0.4,0.3,0.9,0.7,1.5,1
					c2.7,1.6,6.3,2.3,10.6,2.1c3.5-0.1,6-0.8,8.2-2.3c2.2-1.4,3.5-3.3,3.5-5v-7.8c-0.1-0.1-0.1-0.2-0.1-0.2c0-0.9-0.3-1.9-0.7-2.7
					c0,0-0.1-0.1-0.1-0.1c-0.2-0.2-0.2-0.4,0-0.6c0.1-0.2,0.4-0.2,0.6-0.1l19.3,11.1c0.1,0.1,0.2,0.2,0.2,0.4c0,0.2-0.1,0.3-0.2,0.4
					l-95.5,55.1C84.4,203.6,84.3,203.7,84.2,203.7z M21.5,166.5l62.7,36.2l94.5-54.6l-17.3-10c0.2,0.5,0.3,1.1,0.3,1.7
					c0.1,0.1,0.1,0.2,0.1,0.3v8.1c0,2.9-2.7,5-3.9,5.8c-2.4,1.5-5,2.3-8.7,2.4c-4.5,0.2-8.3-0.6-11.1-2.2c-0.6-0.3-1.1-0.7-1.6-1
					c-1-0.8-1.7-1.8-2.2-3c-0.3-0.7-0.4-1.3-0.4-1.9v-8.3c0-0.1,0-0.2,0.1-0.3c0-0.9,0.2-1.8,0.6-2.6c0.9-1.8,3-3.2,6.2-4.3
					c2.8-0.9,5.6-1.3,8.5-1.1c0.4,0,0.8,0.1,1.1,0.1l-20.8-12c0.2,0.6,0.3,1.1,0.3,1.7c0.1,0.1,0.1,0.2,0.1,0.3v8
					c0,2.9-2.7,5-3.9,5.8c-2.4,1.5-5,2.3-8.7,2.4c-4.5,0.2-8.3-0.6-11.2-2.2c-0.4-0.3-1-0.6-1.5-1c-1-0.8-1.7-1.8-2.2-3
					c-0.3-0.7-0.4-1.3-0.4-1.9v-8.3c0-0.1,0-0.2,0.1-0.3c0-0.5,0.1-0.9,0.2-1.3l-20.6,11.9c1.3-0.1,2.6-0.2,3.9-0.1
					c2.5,0.2,4.8,0.7,7,1.7c2.3,1,3.9,2.2,4.7,3.6c0.5,0.9,0.8,1.9,0.8,2.8c0.1,0.1,0.1,0.2,0.1,0.3v8.1c0,2.9-2.8,5-4,5.8
					c-2.3,1.5-5,2.3-8.6,2.4c-4.6,0.2-8.3-0.6-11.2-2.2c-0.4-0.3-1-0.6-1.5-1c-1-0.7-1.8-1.8-2.3-3c-0.2-0.6-0.4-1.2-0.4-1.9v-8.3
					c0-0.1,0-0.2,0.1-0.3c0-0.5,0-0.9,0.2-1.3l-20.6,11.9c0.4,0,0.7-0.1,1.1-0.1c2.9-0.2,5.7,0.1,8.4,1.1c3.3,1,5.3,2.4,6.3,4.2
					c0.4,0.8,0.6,1.7,0.6,2.7c0,0.1,0,0.1,0,0.2v8.3c0,2.5-2.1,5-5.6,6.6c-3,1.4-5.9,1.6-8.4,1.6c-2.3,0-5.4-0.2-8.4-1.6
					c-3.5-1.7-5.6-4.2-5.6-6.6v-8.1c0-0.1,0-0.2,0.1-0.3c0-0.6,0.1-1.1,0.3-1.6L21.5,166.5z M98.1,140L98.1,140L98.1,140z
					 M84.2,193.1c-2.4,0-5.3-0.2-8.4-1.6c-3.5-1.7-5.6-4.2-5.6-6.6v-8c0-0.1,0-0.2,0.1-0.3c0-1,0.3-2,0.8-2.9c0.6-1.2,1.7-2.2,3.3-3
					c0.4-0.2,0.9-0.5,1.4-0.7c2.1-0.9,4.5-1.5,7-1.6c2.9-0.2,5.7,0.1,8.5,1.1c3.3,1,5.3,2.4,6.2,4.2c0.4,0.8,0.6,1.7,0.6,2.7
					c0.1,0.1,0.1,0.2,0.1,0.3v8.3c0,3.6-4.3,6-5.6,6.6C89.6,192.9,86.7,193.1,84.2,193.1z M71.2,177.1v7.7c0,3.1,3.9,5.2,5.1,5.8
					c2.9,1.3,5.6,1.5,8,1.5c2.4,0,5.1-0.2,8-1.5c1.2-0.6,5.1-2.7,5.1-5.8v-8c-0.1-0.1-0.1-0.2-0.1-0.2c0-1-0.2-1.8-0.5-2.5
					c-0.8-1.6-2.6-2.8-5.7-3.7c-2.7-0.9-5.4-1.2-8.1-1c-2.4,0.1-4.7,0.7-6.7,1.5c-0.4,0.2-0.9,0.4-1.3,0.6c-1.4,0.7-2.4,1.6-2.9,2.6
					c-0.5,0.8-0.7,1.8-0.7,2.7C71.3,176.9,71.2,177,71.2,177.1z M116.2,174.6c-4,0-7.3-0.8-9.9-2.3c-0.4-0.2-1-0.6-1.5-1
					c-1-0.8-1.7-1.8-2.2-3c-0.3-0.7-0.4-1.3-0.4-1.9v-8.3c0-0.1,0-0.2,0.1-0.3c0-1,0.2-1.9,0.6-2.6c0.9-1.8,3-3.2,6.2-4.2
					c2.8-0.9,5.6-1.3,8.5-1.1c2.5,0.2,4.8,0.7,7,1.6c2.3,1,3.8,2.2,4.6,3.7c0.5,0.9,0.8,1.9,0.8,2.8c0.1,0.1,0.1,0.2,0.1,0.3v8.1
					c0,2.7-2.4,4.8-3.9,5.8c-2.4,1.6-5.1,2.3-8.7,2.4C117,174.6,116.6,174.6,116.2,174.6z M103,158.5v8c0,0.5,0.1,1,0.3,1.5
					c0.4,1.1,1.1,1.9,1.9,2.6c0.5,0.4,1.1,0.7,1.4,1c2.7,1.6,6.3,2.3,10.7,2.1c3.5-0.1,6-0.8,8.2-2.3c1.3-0.9,3.5-2.7,3.5-5v-7.8
					c-0.1-0.1-0.1-0.2-0.1-0.2c0-0.9-0.3-1.9-0.7-2.7c-0.7-1.3-2.1-2.4-4.2-3.3c-2.1-0.9-4.3-1.4-6.7-1.5c-2.8-0.2-5.4,0.1-8.1,1
					c-3,1-4.9,2.2-5.7,3.8c-0.3,0.7-0.5,1.5-0.5,2.5C103.1,158.3,103.1,158.4,103,158.5z M129.9,158.4L129.9,158.4L129.9,158.4z"/>
			</g>
			<g>
				<path class="st1" d="M38.9,158.4c0,2.7,0,5.4,0,8.1c0,2.7,2.7,4.9,5.3,6.2c2.7,1.3,5.5,1.6,8.2,1.6c2.8,0,5.5-0.3,8.2-1.6
					c2.7-1.3,5.3-3.5,5.3-6.2c0-2.8,0-5.5,0-8.3h0c0,0.9-0.3,1.9-0.8,2.7c-0.9,1.6-2.7,2.7-4.5,3.4c-2.2,0.9-4.5,1.5-6.8,1.6
					c-2.8,0.2-5.4-0.1-8.3-1c-2.4-0.8-4.9-2-5.9-4C39.2,160.1,39,159.2,38.9,158.4L38.9,158.4z"/>
				<path class="st2" d="M52.4,174.7c-2.3,0-5.4-0.2-8.4-1.6c-3.5-1.7-5.6-4.2-5.6-6.6v-8.1c0-0.3,0.2-0.5,0.5-0.5H39
					c0.3,0,0.5,0.2,0.5,0.5c0,0.8,0.2,1.6,0.5,2.3c0.8,1.6,2.7,2.9,5.7,3.8c2.7,0.9,5.3,1.2,8.1,1c2.3-0.1,4.5-0.7,6.6-1.6
					c2.1-0.9,3.5-1.9,4.2-3.2c0.4-0.8,0.7-1.7,0.7-2.5c0-0.3,0.2-0.4,0.5-0.4c0.3,0,0.5,0.2,0.5,0.5v8.3c0,2.5-2.1,5-5.6,6.6
					C57.8,174.5,54.8,174.7,52.4,174.7z M39.4,161.5v5c0,3.1,3.9,5.2,5.1,5.8c2.8,1.3,5.7,1.5,8,1.5c2.3,0,5.1-0.2,8-1.5
					c1.2-0.6,5-2.7,5-5.8v-5.2c-0.9,1.4-2.4,2.6-4.6,3.5c-2.2,0.9-4.6,1.5-6.9,1.7c-2.9,0.2-5.6-0.1-8.5-1.1
					C42.4,164.4,40.4,163.1,39.4,161.5z"/>
			</g>
			<g>
				<path class="st1" d="M39.8,155.3c0,0-0.1,0.1-0.1,0.2c-0.5,0.9-0.8,1.9-0.8,2.9c0,0.9,0.2,1.7,0.6,2.5c1,2,3.6,3.3,6,4
					c2.9,1,5.6,1.2,8.3,1c2.3-0.1,4.6-0.7,6.8-1.6c1.8-0.8,3.5-1.8,4.5-3.4c0.4-0.8,0.7-1.8,0.8-2.7c0-0.9-0.1-1.9-0.6-2.7
					c-1-2-3.6-3.2-6-4c-2.9-1-5.6-1.2-8.3-1c-1.2,0.1-2.4,0.2-3.7,0.5c-1,0.2-2.1,0.6-3.2,1c-0.4,0.2-0.9,0.4-1.3,0.7
					C41.6,153.3,40.5,154.1,39.8,155.3z"/>
				<path class="st2" d="M52.2,166.5c-2.3,0-4.6-0.4-6.9-1.1c-3.2-1-5.3-2.5-6.2-4.3c-0.4-0.8-0.6-1.7-0.6-2.7
					c0-1.2,0.3-2.2,0.8-3.2l0.4,0.2l-0.3-0.3c0,0,0.1-0.1,0.1-0.1c0.6-1.1,1.7-2,3.1-2.8c0.2-0.1,0.4-0.2,0.7-0.3
					c0.2-0.1,0.4-0.2,0.6-0.3c1.3-0.5,2.4-0.9,3.3-1.1c1.1-0.3,2.3-0.4,3.7-0.5c2.9-0.2,5.7,0.1,8.5,1.1c3.3,1,5.3,2.4,6.3,4.2
					c0.4,0.8,0.6,1.8,0.6,2.9c-0.1,1-0.3,2-0.8,2.9c-0.9,1.5-2.4,2.7-4.7,3.6c-2.2,1-4.6,1.5-7,1.7
					C53.3,166.5,52.7,166.5,52.2,166.5z M40.2,155.6c0,0-0.1,0.2-0.1,0.2c-0.4,0.7-0.6,1.6-0.6,2.6c0,0.8,0.2,1.6,0.5,2.3
					c0.8,1.6,2.7,2.9,5.7,3.8c2.7,0.9,5.3,1.2,8.2,1c2.3-0.1,4.5-0.7,6.7-1.6c2.1-0.9,3.5-1.9,4.3-3.2c0.4-0.8,0.7-1.7,0.7-2.5
					c0-0.9-0.2-1.8-0.5-2.5c-0.8-1.6-2.7-2.8-5.7-3.8c-2.7-0.9-5.3-1.2-8.1-1c-1.4,0.1-2.5,0.3-3.6,0.5c-0.9,0.2-2,0.6-3.1,1
					c-0.2,0.1-0.4,0.2-0.6,0.3c-0.2,0.1-0.4,0.2-0.6,0.3C41.7,153.7,40.8,154.6,40.2,155.6C40.2,155.6,40.2,155.6,40.2,155.6z
					 M39.8,155.3L39.8,155.3L39.8,155.3z"/>
			</g>
			<g>
				<path class="st1" d="M70.7,176.8c0,2.7,0,5.4,0,8c0,2.7,2.7,4.9,5.3,6.2c2.8,1.3,5.5,1.6,8.2,1.6c2.8,0,5.5-0.3,8.2-1.6
					c2.7-1.3,5.4-3.5,5.4-6.2c0-2.8,0-5.5,0-8.3h-0.1c0,0.9-0.3,1.9-0.8,2.7c-0.9,1.6-2.7,2.7-4.5,3.4c-2.2,0.9-4.5,1.5-6.8,1.6
					c-2.7,0.2-5.4-0.1-8.3-1c-2.4-0.8-4.9-2-5.9-4C71,178.5,70.8,177.7,70.7,176.8L70.7,176.8z"/>
				<path class="st2" d="M84.2,193.1c-2.4,0-5.3-0.2-8.4-1.6c-3.5-1.7-5.6-4.2-5.6-6.6v-8c0-0.3,0.2-0.5,0.5-0.5h0.1
					c0.3,0,0.5,0.2,0.5,0.5c0,0.8,0.2,1.6,0.5,2.2c0.8,1.6,2.7,2.9,5.7,3.8c2.8,0.9,5.5,1.2,8.1,1c2.3-0.1,4.5-0.7,6.6-1.6
					c2.1-0.9,3.5-2,4.2-3.2c0.4-0.8,0.7-1.7,0.7-2.5c0-0.3,0.2-0.4,0.5-0.4c0.3,0,0.6,0.2,0.6,0.5v8.3c0,3.6-4.3,6-5.6,6.6
					C89.6,192.9,86.7,193.1,84.2,193.1z M71.2,179.8v5c0,3.1,3.9,5.2,5.1,5.8c2.9,1.3,5.6,1.5,8,1.5c2.4,0,5.1-0.2,8-1.5
					c1.2-0.6,5.1-2.7,5.1-5.8v-5.3c-0.8,1.5-2.3,2.6-4.7,3.6c-2.2,0.9-4.6,1.5-6.9,1.7c-2.8,0.2-5.6-0.2-8.5-1.1
					C74.2,182.8,72.2,181.5,71.2,179.8z"/>
			</g>
			<g>
				<path class="st1" d="M70.7,139.8c0,2.8,0,5.5,0,8.3c0,0.6,0.1,1.1,0.3,1.7c0.5,1.1,1.2,2.1,2.1,2.8c0.5,0.4,1,0.7,1.5,1
					c3.2,1.9,7.1,2.3,10.9,2.2c2.9-0.1,5.8-0.6,8.4-2.3c1.9-1.2,3.8-3.2,3.8-5.4c0-2.7,0-5.4,0-8.1h-0.1c0,0.9-0.2,1.7-0.6,2.5
					c-1,2.1-3.6,3.3-5.9,4c-2.9,0.9-5.6,1.2-8.3,1c-2.3-0.1-4.6-0.6-6.8-1.6c-0.4-0.2-0.9-0.4-1.3-0.6c-1.3-0.7-2.4-1.6-3.1-2.8
					C71.1,141.7,70.9,140.8,70.7,139.8L70.7,139.8z"/>
				<path class="st2" d="M84.4,156.3c-4,0-7.3-0.8-9.9-2.3c-0.4-0.3-1-0.6-1.5-1c-1-0.7-1.8-1.8-2.3-3c-0.2-0.6-0.4-1.2-0.4-1.9
					v-8.3c0-0.3,0.2-0.5,0.5-0.5h0.1c0.3,0,0.5,0.2,0.5,0.4c0,0.8,0.3,1.6,0.7,2.5c0.5,1,1.5,1.9,2.9,2.6c0.3,0.2,0.7,0.3,1,0.5
					l0.3,0.1c2,0.9,4.2,1.4,6.7,1.6c2.8,0.2,5.4-0.1,8.1-1c3-1,4.9-2.2,5.7-3.8c0.4-0.7,0.5-1.4,0.5-2.3c0-0.3,0.2-0.5,0.5-0.5
					c0.3,0,0.6,0.2,0.6,0.5v8.1c0,2.9-2.8,5-4,5.8c-2.3,1.5-5,2.3-8.6,2.4C85.2,156.3,84.8,156.3,84.4,156.3z M71.2,142.8v5.3
					c0,0.6,0.1,1.1,0.3,1.5c0.5,1.1,1.1,2,2,2.6c0.5,0.4,1,0.7,1.4,1c2.7,1.6,6.3,2.3,10.7,2.1c3.4-0.1,6-0.8,8.2-2.2
					c2.2-1.4,3.5-3.3,3.5-5v-5c-1,1.6-3,2.9-6,3.9c-2.8,0.9-5.6,1.3-8.5,1.1c-2.5-0.2-4.9-0.7-7-1.7l-0.3-0.1
					c-0.4-0.2-0.7-0.3-1.1-0.5C72.9,145,71.8,144,71.2,142.8z"/>
			</g>
			<g>
				<path class="st1" d="M71.3,137.1C71.3,137.1,71.3,137.1,71.3,137.1c-0.5,0.9-0.7,1.8-0.6,2.7c0,1,0.3,1.9,0.8,2.7
					c0.7,1.2,1.8,2.1,3.1,2.8c0.4,0.2,0.9,0.4,1.3,0.6c2.2,1,4.6,1.5,6.9,1.6c2.7,0.2,5.4-0.1,8.3-1c2.4-0.8,4.9-2,6-4
					c0.4-0.8,0.6-1.6,0.6-2.5c0-1-0.3-2-0.8-2.9c-0.9-1.6-2.7-2.7-4.5-3.4c-2.2-1-4.5-1.5-6.8-1.6c-2.1-0.1-4.3,0-6.5,0.6
					c-0.6,0.1-1.2,0.3-1.8,0.5C74.9,133.9,72.4,135.1,71.3,137.1z"/>
				<path class="st2" d="M84.3,148.1c-0.5,0-1.1,0-1.6-0.1c-2.6-0.2-4.9-0.7-7-1.7l-0.3-0.1c-0.4-0.2-0.7-0.3-1.1-0.5
					c-1.5-0.8-2.6-1.8-3.3-3c-0.5-1-0.8-2-0.8-2.9c-0.1-1.1,0.2-2,0.6-2.9l0,0c0,0,0-0.1,0.1-0.1c0.9-1.8,3-3.2,6.1-4.2
					c0.6-0.2,1.3-0.4,1.9-0.5c2.1-0.5,4.3-0.7,6.6-0.6c2.6,0.2,4.8,0.7,7,1.7c2.4,1,3.9,2.2,4.7,3.6c0.5,0.9,0.8,2.1,0.8,3.1
					c0,1-0.2,1.8-0.6,2.7c-0.9,1.8-3,3.2-6.2,4.3C89,147.7,86.7,148.1,84.3,148.1z M71.7,137.4c-0.4,0.7-0.5,1.5-0.5,2.4
					c0,0.8,0.3,1.7,0.7,2.5c0.5,1,1.5,1.9,2.9,2.6c0.3,0.2,0.7,0.3,1,0.5l0.3,0.1c2,0.9,4.3,1.4,6.7,1.6c2.8,0.2,5.5-0.1,8.2-1
					c3-1,4.9-2.2,5.7-3.8c0.4-0.7,0.5-1.4,0.5-2.3c0-0.9-0.3-1.9-0.7-2.7c-0.7-1.3-2.1-2.3-4.2-3.2c-2-0.9-4.2-1.4-6.7-1.6
					c-2.2-0.2-4.3,0-6.4,0.6c-0.6,0.1-1.2,0.3-1.8,0.5c-3,1-4.8,2.2-5.6,3.8C71.7,137.4,71.7,137.4,71.7,137.4z"/>
			</g>
			<g>
				<path class="st1" d="M70.7,176.8c0,0.9,0.2,1.7,0.6,2.4c1,2,3.6,3.3,6,4c2.9,0.9,5.6,1.2,8.3,1c2.3-0.1,4.6-0.7,6.8-1.6
					c1.8-0.8,3.6-1.8,4.5-3.4c0.4-0.8,0.7-1.8,0.8-2.7c0-0.9-0.1-1.9-0.6-2.7c-1-2-3.6-3.2-6-4c-2.9-1-5.6-1.2-8.3-1
					c-2.3,0.1-4.6,0.6-6.9,1.6c-0.4,0.2-0.9,0.4-1.3,0.7c-1.3,0.7-2.4,1.6-3.1,2.8C71,174.7,70.7,175.8,70.7,176.8z"/>
				<path class="st2" d="M84.1,184.8c-2.3,0-4.6-0.4-7-1.1c-3.2-1-5.3-2.5-6.2-4.3c-0.4-0.8-0.6-1.7-0.6-2.6c0-1.1,0.3-2.2,0.8-3.2
					c0.6-1.2,1.8-2.2,3.3-3c0.4-0.2,0.9-0.5,1.4-0.7c2.1-0.9,4.5-1.5,7-1.6c2.9-0.2,5.7,0.1,8.5,1.1c3.3,1,5.3,2.4,6.2,4.2
					c0.4,0.8,0.6,1.8,0.6,2.9c-0.1,1-0.3,2-0.8,2.9c-0.8,1.5-2.4,2.7-4.7,3.6c-2.2,1-4.6,1.5-7,1.7
					C85.1,184.8,84.6,184.8,84.1,184.8z M84.3,169.2c-0.5,0-1,0-1.5,0.1c-2.4,0.2-4.7,0.7-6.7,1.5c-0.4,0.2-0.9,0.4-1.3,0.6
					c-1.4,0.7-2.4,1.6-2.9,2.6c-0.5,0.8-0.7,1.8-0.7,2.7c0,0.8,0.2,1.6,0.5,2.2c0.8,1.6,2.7,2.9,5.7,3.8c2.8,0.9,5.5,1.2,8.2,1
					c2.3-0.1,4.5-0.7,6.7-1.6c2.2-0.9,3.5-2,4.3-3.2c0.4-0.8,0.7-1.7,0.7-2.5c0-0.9-0.2-1.8-0.5-2.5c-0.8-1.6-2.7-2.8-5.7-3.8
					C88.8,169.6,86.6,169.2,84.3,169.2z"/>
			</g>
			<g>
				<polygon class="st2" points="84.2,203.2 84.2,247.3 179.7,192.2 179.7,148.1 				"/>
				<path class="st2" d="M84.2,247.7c-0.1,0-0.2,0-0.2-0.1c-0.1-0.1-0.2-0.2-0.2-0.4v-44.1c0-0.2,0.1-0.3,0.2-0.4l95.5-55.1
					c0.1-0.1,0.3-0.1,0.5,0c0.1,0.1,0.2,0.2,0.2,0.4v44.1c0,0.2-0.1,0.3-0.2,0.4l-95.5,55.1C84.4,247.7,84.3,247.7,84.2,247.7z
					 M84.7,203.5v43l94.5-54.5v-43L84.7,203.5z"/>
			</g>
			<g>
				<path class="st1" d="M102.5,158.2c0,2.8,0,5.5,0,8.3c0,0.6,0.1,1.1,0.4,1.7c0.5,1.1,1.2,2.1,2.1,2.8c0.5,0.4,1,0.7,1.5,1
					c3.2,1.9,7.2,2.3,10.9,2.2c3-0.1,5.8-0.6,8.5-2.3c1.9-1.3,3.7-3.2,3.7-5.4c0-2.7,0-5.4,0-8.1h-0.1c0,0.9-0.2,1.7-0.6,2.5
					c-1,2-3.6,3.3-5.9,4c-2.9,0.9-5.6,1.2-8.3,1c-2.3-0.1-4.6-0.7-6.8-1.6c-0.4-0.2-0.9-0.4-1.3-0.6c-1.3-0.7-2.4-1.6-3.1-2.8
					C103,160.1,102.7,159.1,102.5,158.2L102.5,158.2z"/>
				<path class="st2" d="M116.2,174.6c-4,0-7.3-0.8-9.9-2.3c-0.4-0.2-1-0.6-1.5-1c-1-0.8-1.7-1.8-2.2-3c-0.3-0.7-0.4-1.3-0.4-1.9
					v-8.3c0-0.3,0.2-0.5,0.5-0.5h0.1c0.3,0,0.5,0.2,0.5,0.4c0,0.8,0.3,1.7,0.7,2.5c0.5,1,1.4,1.8,2.9,2.6c0.3,0.2,0.6,0.3,1,0.5
					l0.3,0.1c2.1,0.9,4.4,1.4,6.7,1.6c2.8,0.2,5.4-0.1,8.1-1c3-0.9,4.9-2.2,5.7-3.8c0.3-0.7,0.5-1.5,0.5-2.3c0-0.3,0.2-0.5,0.5-0.5
					c0.3,0,0.6,0.2,0.6,0.5v8.1c0,2.7-2.4,4.8-3.9,5.8c-2.4,1.6-5.1,2.3-8.7,2.4C117,174.6,116.6,174.6,116.2,174.6z M103,161.2v5.3
					c0,0.5,0.1,1,0.3,1.5c0.4,1.1,1.1,1.9,1.9,2.6c0.5,0.4,1.1,0.7,1.4,1c2.7,1.6,6.3,2.3,10.7,2.1c3.5-0.1,6-0.8,8.2-2.3
					c1.3-0.9,3.5-2.7,3.5-5v-5c-1,1.6-3,2.9-6,3.9c-2.8,0.9-5.6,1.3-8.5,1.1c-2.4-0.2-4.8-0.7-7-1.7l-0.3-0.1
					c-0.4-0.2-0.7-0.3-1.1-0.5C105.2,163.6,103.8,162.6,103,161.2z"/>
			</g>
			<g>
				<path class="st1" d="M102.5,121.4c0,2.8,0,5.5,0,8.3c0,0.6,0.1,1.1,0.4,1.7c0.5,1.1,1.2,2.1,2.1,2.8c0.5,0.4,1,0.7,1.5,1
					c3.2,1.9,7.2,2.3,10.9,2.2c3-0.1,5.8-0.6,8.5-2.3c1.9-1.2,3.7-3.2,3.7-5.4c0-2.7,0-5.4,0-8h-0.1c0,0.9-0.2,1.7-0.6,2.5
					c-1,2-3.6,3.2-5.9,4c-2.9,0.9-5.6,1.2-8.3,1c-2.3-0.1-4.6-0.6-6.8-1.6c-0.4-0.2-0.9-0.4-1.3-0.6c-1.3-0.7-2.4-1.6-3.1-2.8
					C103,123.3,102.7,122.4,102.5,121.4L102.5,121.4z"/>
				<path class="st2" d="M116.2,137.9c-4,0-7.3-0.8-9.9-2.3c-0.4-0.3-1-0.6-1.5-1c-1-0.8-1.7-1.8-2.2-3c-0.3-0.7-0.4-1.3-0.4-1.9
					v-8.3c0-0.3,0.2-0.5,0.5-0.5h0.1c0.3,0,0.5,0.2,0.5,0.4c0,0.8,0.3,1.7,0.7,2.5c0.5,1,1.5,1.9,2.9,2.6c0.3,0.2,0.7,0.3,1,0.5
					l0.3,0.1c2,0.9,4.2,1.4,6.7,1.6c2.8,0.2,5.4-0.1,8.1-1c3-1,4.9-2.2,5.7-3.8c0.3-0.7,0.5-1.5,0.5-2.3c0-0.3,0.2-0.5,0.5-0.5
					c0.3,0,0.6,0.2,0.6,0.5v8c0,2.9-2.7,5-3.9,5.8c-2.4,1.5-5,2.3-8.7,2.4C117,137.9,116.6,137.9,116.2,137.9z M103,124.4v5.3
					c0,0.5,0.1,1,0.3,1.5c0.4,1.1,1.1,1.9,1.9,2.6c0.5,0.4,1,0.7,1.4,1c2.7,1.6,6.3,2.3,10.7,2.1c3.5-0.1,6-0.8,8.2-2.2
					c2.2-1.4,3.5-3.3,3.5-5v-4.9c-1,1.6-3,2.9-6,3.8c-2.8,0.9-5.6,1.3-8.5,1.1c-2.5-0.2-4.9-0.7-7-1.7l-0.3-0.1
					c-0.4-0.2-0.7-0.3-1.1-0.5C104.7,126.6,103.6,125.6,103,124.4z"/>
			</g>
			<g>
				<path class="st1" d="M103.1,118.8c-0.4,0.8-0.6,1.7-0.6,2.7c0,1,0.3,1.9,0.8,2.7c0.7,1.2,1.8,2.1,3.1,2.8
					c0.4,0.2,0.9,0.4,1.3,0.6c2.2,1,4.6,1.5,6.9,1.6c2.7,0.2,5.4-0.1,8.3-1c2.4-0.8,4.9-2,6-4c0.4-0.8,0.6-1.6,0.6-2.5
					c0-1-0.3-2.1-0.8-3c0,0,0-0.1-0.1-0.1c-0.9-1.5-2.6-2.6-4.3-3.3c-1-0.4-2-0.8-3.1-1c-1.2-0.3-2.5-0.5-3.8-0.6
					c-2.1-0.1-4.2,0-6.5,0.5c-0.6,0.1-1.2,0.3-1.9,0.5C106.7,115.5,104.1,116.7,103.1,118.8z"/>
				<path class="st2" d="M116.1,129.7c-0.5,0-1.1,0-1.6-0.1c-2.6-0.2-4.9-0.7-7-1.7l-0.3-0.1c-0.4-0.2-0.7-0.3-1.1-0.5
					c-1.5-0.8-2.6-1.8-3.3-3c-0.5-0.9-0.8-1.9-0.8-2.9c0-1.1,0.2-2,0.6-2.9c0,0,0,0,0,0c0.9-1.8,3-3.3,6.2-4.3
					c0.6-0.2,1.3-0.4,1.9-0.5c2.2-0.5,4.3-0.7,6.6-0.5c1.4,0.1,2.7,0.3,3.9,0.6c1,0.2,2,0.6,3.2,1c2.2,0.9,3.7,2.1,4.6,3.5
					c0,0,0.1,0.1,0.1,0.1c0.6,1,0.9,2.1,0.9,3.2c0,0.9-0.2,1.9-0.6,2.7c-0.9,1.8-3,3.2-6.2,4.2C120.8,129.4,118.5,129.7,116.1,129.7
					z M103.5,119c-0.3,0.7-0.5,1.6-0.5,2.5c0,0.8,0.3,1.7,0.7,2.5c0.5,1,1.5,1.9,2.9,2.6c0.3,0.2,0.7,0.3,1,0.5l0.3,0.1
					c2,0.9,4.3,1.4,6.7,1.6c2.8,0.2,5.5-0.1,8.2-1c3-1,4.9-2.2,5.7-3.8c0.3-0.7,0.5-1.5,0.5-2.3c0-0.9-0.2-1.9-0.7-2.7
					c0,0-0.1-0.1-0.1-0.1c-0.8-1.3-2.1-2.3-4.1-3.1c-1.1-0.4-2-0.8-3-1c-1.1-0.3-2.4-0.5-3.7-0.6c-2.2-0.2-4.2,0-6.3,0.5
					c-0.6,0.1-1.2,0.3-1.8,0.5C106.2,116.1,104.3,117.4,103.5,119z"/>
			</g>
			<g>
				<path class="st1" d="M103.1,155.5c-0.4,0.9-0.6,1.8-0.6,2.7c0,1,0.3,1.9,0.8,2.7c0.7,1.2,1.8,2.1,3.1,2.8
					c0.4,0.2,0.9,0.4,1.3,0.6c2.2,1,4.6,1.5,6.9,1.6c2.7,0.2,5.4-0.1,8.3-1c2.4-0.8,4.9-2,6-4c0.4-0.8,0.6-1.6,0.6-2.5
					c0-1-0.3-2-0.8-2.9c-0.9-1.6-2.7-2.7-4.4-3.5c-2.3-1-4.6-1.4-6.9-1.6c-2.7-0.2-5.4,0.1-8.3,1
					C106.7,152.2,104.1,153.4,103.1,155.5z"/>
				<path class="st2" d="M116.2,166.5c-0.5,0-1.1,0-1.6-0.1c-2.4-0.2-4.8-0.7-7-1.7l-0.3-0.1c-0.3-0.2-0.7-0.3-1-0.5
					c-1-0.6-2.5-1.5-3.3-3c-0.5-0.9-0.8-1.9-0.8-2.9c0-1.1,0.2-2.1,0.6-2.9c0,0,0,0,0,0c0.9-1.8,3-3.2,6.2-4.2
					c2.8-0.9,5.6-1.3,8.5-1.1c2.5,0.2,4.8,0.7,7,1.6c2.3,1,3.8,2.2,4.7,3.7c0.5,0.9,0.8,2.1,0.8,3.1c0,0.9-0.2,1.9-0.6,2.7
					c-0.9,1.8-3,3.3-6.2,4.3C120.8,166.1,118.5,166.5,116.2,166.5z M103.5,155.7c-0.3,0.7-0.5,1.5-0.5,2.5c0,0.8,0.3,1.7,0.7,2.5
					c0.5,1,1.4,1.8,2.9,2.6c0.3,0.2,0.6,0.3,1,0.5l0.3,0.1c2.1,0.9,4.4,1.4,6.7,1.6c2.8,0.2,5.5-0.1,8.2-1c3-0.9,4.9-2.2,5.7-3.8
					c0.3-0.7,0.5-1.5,0.5-2.3c0-0.9-0.3-1.9-0.7-2.7c-0.7-1.3-2.1-2.4-4.2-3.3c-2.1-0.9-4.3-1.4-6.7-1.5c-2.8-0.2-5.5,0.1-8.2,1
					C106.2,152.9,104.3,154.1,103.5,155.7z"/>
			</g>
			<g>
				<path class="st1" d="M134.3,139.8c0,2.8,0,5.5,0,8.3c0,0.6,0.1,1.1,0.4,1.7c0.5,1.1,1.2,2.1,2.1,2.8c0.5,0.4,1,0.7,1.5,1
					c3.2,1.9,7.1,2.3,10.9,2.2c3-0.1,5.8-0.6,8.5-2.3c1.9-1.2,3.7-3.2,3.7-5.4c0-2.7,0-5.4,0-8.1h-0.1c0,0.9-0.2,1.7-0.6,2.5
					c-1,2.1-3.6,3.3-5.9,4c-2.9,0.9-5.6,1.2-8.3,1c-2.3-0.1-4.6-0.6-6.8-1.6c-0.4-0.2-0.9-0.4-1.3-0.6c-1.3-0.7-2.5-1.6-3.1-2.8
					C134.8,141.7,134.5,140.8,134.3,139.8L134.3,139.8z"/>
				<path class="st2" d="M148,156.3c-4,0-7.3-0.8-9.9-2.3c-0.6-0.3-1.1-0.7-1.6-1c-1-0.8-1.7-1.8-2.2-3c-0.3-0.7-0.4-1.3-0.4-1.9
					v-8.3c0-0.3,0.2-0.5,0.5-0.5h0.1c0.3,0,0.5,0.2,0.5,0.4c0,0.8,0.3,1.7,0.7,2.5c0.5,1,1.5,1.9,2.9,2.6c0.4,0.2,0.8,0.4,1.2,0.6
					c2.1,0.9,4.3,1.4,6.7,1.6c2.8,0.2,5.4-0.1,8.1-1c3-1,4.9-2.2,5.7-3.8c0.4-0.7,0.5-1.4,0.5-2.3c0-0.3,0.2-0.5,0.5-0.5
					c0.3,0,0.6,0.2,0.6,0.5v8.1c0,2.9-2.7,5-3.9,5.8c-2.4,1.5-5,2.3-8.7,2.4C148.8,156.3,148.4,156.3,148,156.3z M134.8,142.8v5.3
					c0,0.5,0.1,1,0.3,1.5c0.4,1.1,1.1,1.9,1.9,2.6c0.4,0.3,0.9,0.7,1.5,1c2.7,1.6,6.3,2.3,10.6,2.1c3.5-0.1,6-0.8,8.2-2.3
					c2.2-1.4,3.5-3.3,3.5-5v-5c-1,1.6-3,2.9-6,3.9c-2.8,0.9-5.6,1.3-8.5,1.1c-2.5-0.2-4.8-0.7-7-1.7c-0.5-0.2-0.9-0.4-1.3-0.6
					C136.6,144.9,135.4,143.9,134.8,142.8z"/>
			</g>
			<g>
				<path class="st1" d="M152.9,132.6c-1.2-0.3-2.4-0.4-3.7-0.5c-2.7-0.2-5.4,0.1-8.3,1c-2.4,0.8-4.9,2-6,4
					c-0.4,0.8-0.6,1.7-0.6,2.7c0,1,0.3,1.9,0.8,2.7c0.7,1.2,1.9,2.1,3.1,2.8c0.4,0.2,0.9,0.4,1.3,0.6c2.3,1,4.6,1.5,6.9,1.6
					c2.7,0.2,5.4-0.1,8.3-1c2.4-0.8,4.9-2,6-4c0.4-0.8,0.6-1.6,0.6-2.5c0-1-0.3-2-0.8-2.9c0,0,0-0.1-0.1-0.1
					c-0.9-1.5-2.6-2.6-4.3-3.3C155,133.2,154,132.9,152.9,132.6z"/>
				<path class="st2" d="M147.9,148.1c-0.5,0-1.1,0-1.6-0.1c-2.5-0.2-4.8-0.7-7-1.7c-0.4-0.2-0.9-0.4-1.3-0.6
					c-1.6-0.8-2.7-1.8-3.3-3c-0.5-0.9-0.8-1.9-0.8-2.9c0-1.1,0.2-2,0.6-2.9c0.9-1.8,3-3.3,6.2-4.3c2.8-0.9,5.6-1.3,8.5-1.1
					c1,0.1,2.4,0.2,3.7,0.5c0,0,0,0,0,0c1.3,0.3,2.3,0.7,3.3,1.1c2.2,0.9,3.7,2.1,4.5,3.5c0,0,0.1,0.1,0.1,0.1
					c0.6,1,0.9,2.1,0.9,3.2c0,1-0.2,1.9-0.6,2.7c-0.9,1.8-3,3.2-6.2,4.3C152.6,147.7,150.3,148.1,147.9,148.1z M147.6,132.5
					c-2.2,0-4.4,0.4-6.6,1.1c-3,1-4.9,2.2-5.7,3.8c-0.3,0.7-0.5,1.6-0.5,2.5c0,0.8,0.3,1.7,0.7,2.5c0.5,1,1.5,1.9,2.9,2.6
					c0.4,0.2,0.8,0.4,1.3,0.6c2.1,0.9,4.3,1.4,6.7,1.6c2.8,0.2,5.5-0.1,8.2-1c3-1,4.9-2.2,5.7-3.8c0.4-0.7,0.5-1.4,0.5-2.3
					c0-0.9-0.3-1.9-0.7-2.7c0,0-0.1-0.1-0.1-0.1c-0.8-1.3-2.1-2.3-4.1-3.1c-0.9-0.4-1.9-0.8-3.1-1.1c-1.3-0.3-2.6-0.4-3.6-0.5
					C148.7,132.5,148.1,132.5,147.6,132.5z"/>
			</g>
		</g>
		<g>
			<g>
				<polygon class="st2" points="88.6,112.4 88.6,127.1 152.2,163.9 152.2,149.2 				"/>
				<path class="st1" d="M152.2,164.3c-0.1,0-0.2,0-0.2-0.1l-63.6-36.7c-0.1-0.1-0.2-0.2-0.2-0.4v-14.7c0-0.2,0.1-0.3,0.2-0.4
					c0.1-0.1,0.3-0.1,0.5,0l63.6,36.7c0.1,0.1,0.2,0.2,0.2,0.4v14.7c0,0.2-0.1,0.3-0.2,0.4C152.4,164.3,152.3,164.3,152.2,164.3z
					 M89.1,126.8l62.7,36.2v-13.6l-62.7-36.2V126.8z"/>
			</g>
			<g>
				<polygon class="st2" points="120.4,64.7 88.6,112.4 152.2,149.2 184,101.4 				"/>
				<path class="st1" d="M152.2,149.7c-0.1,0-0.2,0-0.2-0.1l-63.6-36.7c-0.1-0.1-0.2-0.2-0.2-0.3c0-0.1,0-0.3,0.1-0.4L120,64.4
					c0.1-0.2,0.4-0.3,0.6-0.1l63.6,36.7c0.1,0.1,0.2,0.2,0.2,0.3c0,0.1,0,0.3-0.1,0.4l-31.8,47.8
					C152.5,149.6,152.4,149.7,152.2,149.7z M89.3,112.3l62.8,36.3l31.3-47l-62.8-36.3L89.3,112.3z"/>
			</g>
			<g>
				<path class="st2" d="M165.7,56.6c0,2.7,0,5.4,0,8.1c0,2.8-2.7,4.9-5.3,6.2c-2.7,1.3-5.5,1.6-8.2,1.6c-2.7,0-5.5-0.3-8.2-1.6
					c-2.7-1.3-5.3-3.5-5.3-6.2c0-2.8,0-5.5,0-8.3h0.1c0-0.9,0.1-1.9,0.6-2.7l-19,11l63.6,36.7l31.8-18.4l-19.3-11.2
					c0,0,0.1,0.1,0.1,0.2c0.5,0.9,0.7,1.9,0.7,2.8h0.1c0,2.7,0,5.4,0,8.1c0,2.7-2.7,4.9-5.3,6.2c-2.7,1.3-5.5,1.6-8.2,1.6
					c-2.7,0-5.5-0.3-8.2-1.6c-2.7-1.3-5.3-3.5-5.3-6.2c0-2.8,0-5.5,0-8.3h0.1c0-0.9,0.1-1.9,0.6-2.7c1-2,3.6-3.2,5.9-4
					c2.8-0.9,5.6-1.2,8.3-1c1.2,0.1,2.4,0.2,3.6,0.5l-24.2-14c0,0,0,0.1,0.1,0.1C165.4,54.6,165.6,55.6,165.7,56.6L165.7,56.6z"/>
				<path class="st1" d="M184,101.9c-0.1,0-0.2,0-0.2-0.1l-63.6-36.7c-0.1-0.1-0.2-0.2-0.2-0.4c0-0.2,0.1-0.3,0.2-0.4l19-11
					c0.2-0.1,0.4-0.1,0.6,0.1c0.2,0.1,0.2,0.4,0.1,0.6c-0.4,0.7-0.6,1.6-0.5,2.5c0,0.1,0,0.2-0.1,0.3v8c0,3,3.5,5.1,5.1,5.8
					c2.8,1.3,5.7,1.5,8,1.5c2.2,0,5.1-0.2,8-1.5c1.5-0.7,5-2.8,5-5.8v-7.8c-0.1-0.1-0.1-0.2-0.1-0.3c0-0.9-0.2-1.8-0.6-2.6
					c0,0-0.1-0.1-0.1-0.1c-0.2-0.2-0.2-0.4,0-0.6c0.1-0.2,0.4-0.2,0.6-0.1l24.2,14c0.2,0.1,0.3,0.4,0.2,0.6
					c-0.1,0.2-0.3,0.3-0.5,0.3c-1-0.2-2.1-0.4-3.5-0.5c-2.8-0.2-5.5,0.1-8.1,1c-3,1-4.9,2.2-5.7,3.8c-0.4,0.7-0.6,1.6-0.5,2.5
					c0,0.1,0,0.2-0.1,0.3v8c0,3.1,3.9,5.2,5.1,5.8c2.8,1.3,5.8,1.5,8,1.5c2.2,0,5.1-0.2,8-1.5c1.2-0.6,5-2.7,5-5.8v-7.9
					c-0.1-0.1-0.1-0.2-0.1-0.2c0-0.9-0.2-1.8-0.6-2.6c0,0-0.1-0.1-0.1-0.1c-0.2-0.2-0.2-0.4,0-0.6c0.1-0.2,0.4-0.3,0.6-0.1
					l19.3,11.2c0.1,0.1,0.2,0.2,0.2,0.4c0,0.2-0.1,0.3-0.2,0.4l-31.8,18.4C184.2,101.9,184.1,101.9,184,101.9z M121.4,64.7
					l62.7,36.2l30.9-17.8l-17.3-10c0.2,0.5,0.2,1.1,0.3,1.6c0.1,0.1,0.1,0.2,0.1,0.3v8.1c0,2.5-2.1,5-5.6,6.6
					c-3,1.4-6.1,1.6-8.4,1.6c-2.3,0-5.4-0.2-8.4-1.6c-3.5-1.7-5.6-4.2-5.6-6.6v-8.3c0-0.1,0-0.2,0.1-0.3c0-1,0.2-1.9,0.6-2.7
					c0.9-1.8,3-3.2,6.2-4.2c2.8-0.9,5.6-1.3,8.5-1.1c0.3,0,0.7,0.1,1,0.1l-20.7-12c0.2,0.5,0.2,1.1,0.3,1.6c0.1,0.1,0.1,0.2,0.1,0.3
					v8.1c0,3.6-3.9,5.8-5.6,6.6c-3,1.4-6.1,1.6-8.4,1.6c-2.3,0-5.4-0.2-8.4-1.6c-1.7-0.8-5.6-3.1-5.6-6.6v-8.3c0-0.1,0-0.2,0.1-0.3
					c0-0.5,0-0.9,0.2-1.4L121.4,64.7z"/>
			</g>
			<g>
				<path class="st1" d="M138.7,56.4c0,2.8,0,5.5,0,8.3c0,2.8,2.7,4.9,5.3,6.2c2.7,1.3,5.5,1.6,8.2,1.6c2.7,0,5.5-0.3,8.2-1.6
					c2.7-1.3,5.3-3.5,5.3-6.2c0-2.7,0-5.4,0-8.1h-0.1c0,0.9-0.2,1.8-0.6,2.5c-1,2-3.5,3.3-5.9,4c-2.8,0.9-5.6,1.2-8.3,1
					c-2.3-0.1-4.6-0.7-6.8-1.6c-1.8-0.8-3.5-1.8-4.5-3.4C139.1,58.3,138.9,57.4,138.7,56.4L138.7,56.4z"/>
				<path class="st2" d="M152.2,72.9c-2.3,0-5.4-0.2-8.4-1.6c-1.7-0.8-5.6-3.1-5.6-6.6v-8.3c0-0.3,0.2-0.5,0.5-0.5h0.1
					c0.3,0,0.5,0.2,0.5,0.4c0,0.9,0.3,1.8,0.7,2.5c0.7,1.3,2.1,2.3,4.2,3.2c2.1,0.9,4.4,1.4,6.6,1.6c2.8,0.2,5.5-0.1,8.1-1
					c2.9-0.9,4.8-2.2,5.7-3.8c0.3-0.7,0.5-1.5,0.5-2.3c0-0.3,0.2-0.5,0.5-0.5c0.3,0,0.6,0.2,0.6,0.5v8.1c0,3.6-3.9,5.8-5.6,6.6
					C157.6,72.8,154.5,72.9,152.2,72.9z M139.2,59.5v5.2c0,3,3.5,5.1,5.1,5.8c2.8,1.3,5.7,1.5,8,1.5c2.2,0,5.1-0.2,8-1.5
					c1.5-0.7,5-2.8,5-5.8v-5c-1,1.6-3,2.9-6,3.9c-2.8,0.9-5.5,1.3-8.5,1.1c-2.4-0.1-4.7-0.7-6.9-1.7C141.6,62,140.1,60.9,139.2,59.5
					z"/>
			</g>
			<g>
				<path class="st2" d="M152.2,46.3l-5,2.9c2.2-0.5,4.3-0.7,6.4-0.5c1.2,0.1,2.4,0.2,3.6,0.5L152.2,46.3z"/>
				<path class="st2" d="M157.3,49.7c0,0-0.1,0-0.1,0c-1.3-0.3-2.5-0.4-3.5-0.5c-2.2-0.2-4.2,0-6.3,0.5c-0.2,0-0.5-0.1-0.5-0.3
					c-0.1-0.2,0-0.5,0.2-0.6l5-2.9c0.1-0.1,0.3-0.1,0.5,0l5,2.9c0.2,0.1,0.3,0.4,0.2,0.6C157.6,49.6,157.5,49.7,157.3,49.7z
					 M152.1,48.2c0.5,0,1,0,1.6,0.1c0.3,0,0.7,0.1,1.1,0.1l-2.5-1.5l-2.5,1.4C150.5,48.2,151.3,48.2,152.1,48.2z"/>
			</g>
			<g>
				<polygon class="st2" points="152.2,149.2 152.2,163.9 215.8,127.1 215.8,83.1 184,101.4 				"/>
				<path class="st1" d="M152.2,164.3c-0.1,0-0.2,0-0.2-0.1c-0.1-0.1-0.2-0.2-0.2-0.4v-14.7c0-0.1,0-0.2,0.1-0.3l31.8-47.8
					c0-0.1,0.1-0.1,0.2-0.1l31.8-18.4c0.1-0.1,0.3-0.1,0.5,0c0.1,0.1,0.2,0.2,0.2,0.4v44.1c0,0.2-0.1,0.3-0.2,0.4l-63.6,36.7
					C152.4,164.3,152.3,164.3,152.2,164.3z M152.7,149.3V163l62.7-36.2v-43l-31,17.9L152.7,149.3z"/>
			</g>
			<g>
				<path class="st1" d="M139.3,53.7c1.1-2.1,3.5-3.2,6-4c0.6-0.2,1.3-0.4,1.9-0.5c2.2-0.5,4.3-0.7,6.5-0.5c1.2,0.1,2.4,0.2,3.6,0.5
					c1.1,0.3,2.2,0.6,3.2,1.1c0.5,0.2,0.9,0.4,1.3,0.6c1.2,0.6,2.3,1.5,3.1,2.7c0,0,0,0.1,0.1,0.1c0.5,0.9,0.7,1.9,0.7,2.9
					c0,0.9-0.2,1.8-0.6,2.5c-1.1,2.1-3.5,3.3-6,4.1c-2.9,1-5.6,1.2-8.4,1.1c-2.3-0.1-4.6-0.7-6.8-1.6c-1.8-0.8-3.5-1.8-4.5-3.4
					c-0.4-0.8-0.7-1.7-0.7-2.7C138.7,55.5,138.9,54.5,139.3,53.7z"/>
				<path class="st2" d="M152.4,64.7c-0.5,0-1.1,0-1.6-0.1c-2.4-0.1-4.7-0.7-7-1.7c-2.3-1-3.8-2.2-4.7-3.6c-0.5-0.9-0.7-1.9-0.8-2.9
					c-0.1-1.1,0.2-2.1,0.6-3c0.9-1.8,3-3.2,6.3-4.2c0.6-0.2,1.3-0.4,1.9-0.5c2.1-0.5,4.3-0.7,6.6-0.5c1.5,0.1,2.7,0.3,3.7,0.5
					c1,0.3,2.2,0.6,3.3,1.1c0.5,0.2,1,0.4,1.4,0.6c1.4,0.7,2.5,1.7,3.2,2.8c0,0,0.1,0.1,0.1,0.1c0.5,1,0.8,2,0.8,3.1
					c0,1-0.2,1.9-0.6,2.7c-0.9,1.8-3.1,3.3-6.3,4.3C157,64.4,154.8,64.7,152.4,64.7z M152.1,49.1c-1.6,0-3.2,0.2-4.8,0.6
					c-0.6,0.1-1.3,0.3-1.9,0.5c-3,0.9-4.9,2.2-5.7,3.8c0,0,0,0,0,0c-0.4,0.7-0.6,1.6-0.5,2.5c0,0.9,0.3,1.8,0.7,2.5
					c0.7,1.3,2.1,2.3,4.3,3.2c2.1,0.9,4.4,1.4,6.7,1.6c2.8,0.2,5.5-0.1,8.2-1c3-0.9,4.9-2.2,5.7-3.8c0.3-0.7,0.5-1.5,0.5-2.3
					c0-0.9-0.2-1.9-0.7-2.6c0,0-0.1-0.1-0.1-0.1c-0.6-1.1-1.6-1.9-2.9-2.5c-0.4-0.2-0.8-0.4-1.3-0.6c-1.1-0.5-2.2-0.8-3.2-1.1
					c-1-0.2-2.1-0.4-3.5-0.5C153.1,49.1,152.6,49.1,152.1,49.1z M139.3,53.7L139.3,53.7L139.3,53.7z"/>
			</g>
			<g>
				<path class="st1" d="M170.6,74.8c0,2.8,0,5.5,0,8.3c0,2.7,2.7,4.9,5.3,6.2c2.7,1.3,5.5,1.6,8.2,1.6c2.7,0,5.5-0.3,8.2-1.6
					c2.7-1.3,5.3-3.5,5.3-6.2c0-2.7,0-5.4,0-8.1h-0.1c0,0.9-0.2,1.8-0.6,2.5c-1,2-3.5,3.3-5.9,4c-2.8,0.9-5.6,1.2-8.3,1
					c-2.3-0.1-4.6-0.7-6.8-1.6c-1.8-0.8-3.5-1.8-4.4-3.4C170.9,76.7,170.7,75.7,170.6,74.8L170.6,74.8z"/>
				<path class="st2" d="M184,91.3c-2.3,0-5.4-0.2-8.4-1.6c-3.5-1.7-5.6-4.2-5.6-6.6v-8.3c0-0.3,0.2-0.5,0.5-0.5h0.1
					c0.3,0,0.5,0.2,0.5,0.4c0,0.9,0.3,1.8,0.7,2.5c0.7,1.3,2,2.3,4.2,3.2c2.1,0.9,4.4,1.4,6.7,1.6c2.7,0.2,5.3-0.1,8.1-1
					c3-0.9,4.9-2.2,5.7-3.8c0.3-0.7,0.5-1.5,0.5-2.3c0-0.3,0.2-0.5,0.5-0.5s0.6,0.2,0.6,0.5v8.1c0,2.5-2.1,5-5.6,6.6
					C189.4,91.1,186.3,91.3,184,91.3z M171,77.8v5.3c0,3.1,3.9,5.2,5.1,5.8c2.8,1.3,5.8,1.5,8,1.5c2.2,0,5.1-0.2,8-1.5
					c1.2-0.6,5-2.7,5-5.8v-5c-1,1.6-3,2.9-6,3.9c-2.9,0.9-5.6,1.3-8.4,1.1c-2.4-0.1-4.8-0.7-7-1.7C173.3,80.3,171.8,79.2,171,77.8z"
					/>
			</g>
			<g>
				<path class="st1" d="M171.1,72.1c1-2,3.6-3.2,6-4c2.9-1,5.6-1.2,8.3-1c1.2,0.1,2.4,0.2,3.6,0.5c1.1,0.2,2.1,0.6,3.2,1
					c0.5,0.2,0.9,0.4,1.3,0.7c1.2,0.6,2.3,1.5,3,2.6c0,0,0.1,0.1,0.1,0.2c0.5,0.9,0.7,1.9,0.7,2.9c0,0.9-0.2,1.8-0.6,2.5
					c-1,2-3.5,3.3-6,4c-2.9,0.9-5.6,1.2-8.3,1c-2.3-0.1-4.6-0.7-6.9-1.6c-1.8-0.8-3.5-1.8-4.4-3.4c-0.5-0.8-0.7-1.8-0.8-2.7
					C170.5,73.8,170.7,72.9,171.1,72.1z"/>
				<path class="st2" d="M184.1,83.1c-0.5,0-1,0-1.5-0.1c-2.4-0.1-4.8-0.7-7-1.7c-2.4-1-3.8-2.2-4.7-3.6c-0.5-0.8-0.8-1.8-0.8-2.9
					c-0.1-1.1,0.2-2.1,0.6-3c0.9-1.8,3-3.2,6.2-4.2c2.8-0.9,5.6-1.3,8.5-1.1c1.5,0.1,2.6,0.3,3.6,0.5c1.1,0.3,2.2,0.6,3.3,1.1
					c0.5,0.2,0.9,0.4,1.4,0.7c1.4,0.7,2.5,1.7,3.1,2.7c0,0,0.1,0.1,0.1,0.1c0,0,0.1,0.1,0.1,0.1c0.5,0.9,0.8,2,0.8,3.1
					c0,1-0.2,1.9-0.6,2.7c-0.9,1.8-3,3.3-6.2,4.3C188.7,82.7,186.4,83.1,184.1,83.1z M183.8,67.5c-2.3,0-4.4,0.4-6.6,1.1
					c-3,1-4.9,2.2-5.7,3.8c0,0,0,0,0,0c-0.4,0.7-0.6,1.6-0.5,2.5c0,0.9,0.3,1.8,0.7,2.5c0.7,1.3,2.1,2.3,4.2,3.2
					c2.1,0.9,4.4,1.4,6.7,1.6c2.7,0.2,5.3-0.1,8.1-1c3-0.9,4.9-2.2,5.7-3.8c0.3-0.7,0.5-1.5,0.5-2.3c0-0.9-0.2-1.8-0.6-2.6
					c0,0-0.1-0.1-0.1-0.1c0,0-0.1-0.1-0.1-0.1c-0.6-1-1.6-1.8-2.8-2.5c-0.4-0.2-0.8-0.5-1.3-0.6c-1.1-0.5-2.1-0.8-3.2-1
					c-1-0.2-2.1-0.4-3.5-0.5C184.9,67.5,184.4,67.5,183.8,67.5z M171.1,72.1L171.1,72.1L171.1,72.1z"/>
			</g>
		</g>
		<g>
			<g>
				<path class="st1" d="M10.1,128c0,2.7,0,5.3,0,7.9c0,2.2,1.8,4.1,3.7,5.4c2.6,1.7,5.5,2.2,8.5,2.3c3.8,0.1,7.7-0.3,10.9-2.2
					c0.5-0.3,1-0.6,1.5-1c0.9-0.8,1.6-1.7,2.1-2.8c0.2-0.6,0.4-1.1,0.4-1.7c0-2.7,0-5.4,0-8.1h-0.1c0-0.9-0.1-1.9-0.6-2.7
					c0-0.1-0.1-0.2-0.1-0.2L61,139.1c-2.4-0.7-4.7-0.9-6.9-0.7c-2.3,0.2-4.6,0.7-6.8,1.6c-1.8,0.8-3.5,1.8-4.4,3.5
					c-0.5,0.9-0.8,1.9-0.8,2.9h-0.1c0,2.7,0,5.3,0,7.9c0,2.2,1.8,4.1,3.7,5.4c2.6,1.7,5.5,2.2,8.5,2.3c3.8,0.1,7.7-0.3,10.9-2.2
					c0.5-0.3,1-0.6,1.5-1c0.9-0.8,1.6-1.7,2.1-2.8c0.2-0.6,0.4-1.1,0.4-1.7c0-2.7,0-5.4,0-8.1h-0.1c0-0.9-0.1-1.9-0.6-2.7
					c0-0.1-0.1-0.2-0.1-0.2l24.5,14.2c-2.4-0.6-4.6-0.8-6.8-0.7c-2.3,0.2-4.6,0.7-6.8,1.6c-1.8,0.8-3.6,1.8-4.5,3.4
					c-0.5,0.9-0.8,1.9-0.8,2.9h-0.1c0,2.7,0,5.3,0,7.9c0,2.1,1.8,4.1,3.8,5.4c2.6,1.7,5.5,2.2,8.5,2.3c3.8,0.1,7.7-0.4,10.9-2.2
					c0.5-0.3,1-0.7,1.5-1c0.9-0.8,1.7-1.7,2.1-2.8c0.2-0.6,0.3-1.1,0.3-1.7c0-2.7,0-5.4,0-8.1h-0.1c0-0.9-0.1-1.9-0.6-2.7
					c0-0.1-0.1-0.2-0.2-0.3l24.6,14.2c-2.3-0.6-4.6-0.8-6.8-0.6c-2.3,0.2-4.6,0.7-6.8,1.6c-1.8,0.8-3.5,1.8-4.5,3.4
					c-0.5,0.9-0.7,1.9-0.7,2.9h-0.1c0,2.7,0,5.3,0,7.9c0,2.2,1.8,4.1,3.7,5.4c2.6,1.7,5.5,2.2,8.5,2.3c3.8,0.1,7.7-0.3,10.9-2.1
					c1.1-0.6,2.1-1.4,2.8-2.4c0.6-0.8,1-1.8,1.1-2.8c0-0.1,0-0.2,0-0.4c0-2.7,0-5.4,0-8.1h-0.1c0-0.9-0.1-1.9-0.6-2.7
					c0-0.1-0.1-0.2-0.1-0.2l19.1,11l-31.8,18.4L-8.2,135.9l19.5-11.3c-0.1,0.1-0.2,0.3-0.3,0.4C10.5,125.9,10.2,127,10.1,128
					L10.1,128z"/>
				<path class="st2" d="M119.1,209.8c-0.1,0-0.2,0-0.2-0.1L-8.4,136.3c-0.1-0.1-0.2-0.2-0.2-0.4c0-0.2,0.1-0.3,0.2-0.4L11,124.2
					c0.2-0.1,0.4-0.1,0.6,0.1c0.2,0.2,0.2,0.4,0,0.6l-0.3,0.4c-0.4,0.8-0.7,1.7-0.7,2.6c0,0.1,0,0.2-0.1,0.3v7.6
					c0,2.3,2.2,4.1,3.5,5c2.7,1.8,5.7,2.1,8.2,2.2c4.3,0.2,7.9-0.6,10.7-2.1c0.4-0.2,0.9-0.6,1.4-1c0.9-0.7,1.5-1.6,1.9-2.6
					c0.2-0.6,0.3-1.1,0.3-1.5V128c-0.1-0.1-0.1-0.2-0.1-0.2c0-1-0.2-1.8-0.5-2.5c0-0.1,0-0.1-0.1-0.1c-0.2-0.2-0.2-0.4,0-0.6
					c0.1-0.2,0.4-0.2,0.6-0.1l24.6,14.2c0.2,0.1,0.3,0.4,0.2,0.6c-0.1,0.2-0.3,0.3-0.6,0.3c-2.2-0.6-4.4-0.8-6.8-0.7
					c-2.4,0.2-4.6,0.7-6.7,1.6c-2.2,0.9-3.5,2-4.2,3.3c-0.4,0.8-0.7,1.8-0.7,2.7c0,0.1,0,0.2-0.1,0.3v7.6c0,2.3,2.2,4.1,3.5,5
					c2.7,1.8,5.7,2.1,8.2,2.2c4.3,0.2,7.9-0.6,10.7-2.1c0.4-0.2,0.9-0.6,1.4-1c0.9-0.7,1.5-1.5,1.9-2.6c0.2-0.6,0.3-1.1,0.3-1.5
					v-7.9c-0.1-0.1-0.1-0.2-0.1-0.2c0-1-0.2-1.8-0.5-2.5c0-0.1,0-0.1-0.1-0.1c-0.2-0.2-0.2-0.4,0-0.6c0.1-0.2,0.4-0.2,0.6-0.1
					L92.9,157c0.2,0.1,0.3,0.4,0.2,0.6c-0.1,0.2-0.3,0.3-0.6,0.3c-2.1-0.6-4.2-0.8-6.7-0.7c-2.4,0.2-4.6,0.7-6.6,1.6
					c-2.1,0.9-3.5,2-4.2,3.2c-0.4,0.8-0.7,1.8-0.7,2.7c0,0.1,0,0.2-0.1,0.3v7.6c0,1.7,1.3,3.5,3.5,5c2.6,1.8,5.6,2.1,8.2,2.3
					c4.4,0.1,7.9-0.6,10.6-2.1c0.5-0.3,1-0.6,1.4-1c0.9-0.7,1.5-1.6,2-2.6c0.2-0.5,0.3-1,0.3-1.5v-7.9c-0.1-0.1-0.1-0.2-0.1-0.3
					c0-0.9-0.1-1.7-0.5-2.5c0-0.1-0.1-0.1-0.1-0.2c-0.2-0.2-0.2-0.4,0-0.6c0.1-0.2,0.4-0.2,0.6-0.1l24.6,14.2
					c0.2,0.1,0.3,0.4,0.2,0.6c-0.1,0.2-0.3,0.3-0.5,0.3c-2.2-0.5-4.4-0.8-6.7-0.6c-2.5,0.2-4.6,0.7-6.6,1.6
					c-2.1,0.9-3.5,1.9-4.2,3.2c-0.4,0.7-0.6,1.7-0.6,2.7c0,0.1,0,0.2-0.1,0.3v7.6c0,2.5,2.4,4.3,3.5,5c2.1,1.4,4.8,2.1,8.2,2.2
					c4.3,0.2,7.9-0.5,10.6-2.1c1.1-0.6,2-1.4,2.7-2.3c0.6-0.8,0.9-1.7,1-2.5l0-8.2c-0.1-0.1-0.1-0.2-0.1-0.3c0-0.9-0.1-1.8-0.5-2.5
					c0-0.1-0.1-0.1-0.1-0.1c-0.2-0.2-0.2-0.4,0-0.6c0.1-0.2,0.4-0.2,0.6-0.1l19.1,11c0.1,0.1,0.2,0.2,0.2,0.4c0,0.2-0.1,0.3-0.2,0.4
					l-31.8,18.4C119.3,209.8,119.2,209.8,119.1,209.8z M-7.2,135.9l126.3,72.9L150,191l-17.2-9.9c0.1,0.5,0.2,1,0.2,1.6
					c0.1,0.1,0.1,0.2,0.1,0.2v8.5c-0.1,1-0.5,2.1-1.2,3c-0.8,1-1.8,1.9-3,2.6c-2.9,1.6-6.6,2.4-11.1,2.2c-3.6-0.1-6.4-0.9-8.7-2.4
					c-1.2-0.8-3.9-2.9-3.9-5.8V183c0-0.1,0-0.2,0.1-0.3c0-1,0.3-2,0.8-2.8c0.9-1.5,2.4-2.7,4.7-3.6c2.1-0.9,4.4-1.4,6.9-1.6
					c1.5-0.1,2.9,0,4.3,0.1l-21-12.1c0.1,0.5,0.2,1.1,0.2,1.6c0.1,0.1,0.1,0.2,0.1,0.2v8.1c0,0.7-0.1,1.3-0.4,1.9
					c-0.5,1.2-1.2,2.2-2.3,3c-0.5,0.4-1,0.7-1.5,1c-2.9,1.6-6.6,2.4-11.1,2.3c-2.7-0.1-5.9-0.5-8.7-2.4c-1.2-0.8-4-2.9-4-5.8v-7.9
					c0-0.1,0-0.2,0.1-0.3c0-1,0.3-2,0.8-2.9c0.8-1.4,2.3-2.6,4.7-3.6c2.1-0.9,4.4-1.4,6.9-1.6c1.5-0.1,2.9,0,4.2,0.1l-20.9-12.1
					c0.1,0.5,0.2,1,0.2,1.6c0.1,0.1,0.1,0.2,0.1,0.3v8.1c0,0.6-0.1,1.2-0.4,1.9c-0.5,1.2-1.2,2.2-2.2,3c-0.5,0.4-1.1,0.8-1.5,1
					c-2.9,1.7-6.7,2.4-11.2,2.3c-2.7-0.1-5.8-0.5-8.7-2.4c-1.5-1-3.9-3-3.9-5.8v-7.9c0-0.1,0-0.2,0.1-0.3c0-1,0.3-2,0.8-2.8
					c1.1-1.9,3.2-3,4.6-3.7c2.2-0.9,4.4-1.4,7-1.7c1.4-0.1,2.8,0,4.2,0.1l-20.9-12.1c0.1,0.5,0.2,1,0.2,1.6c0.1,0.1,0.1,0.2,0.1,0.3
					v8.1c0,0.6-0.1,1.2-0.4,1.9c-0.5,1.1-1.2,2.1-2.2,3c-0.5,0.4-1.1,0.8-1.5,1c-2.9,1.7-6.7,2.4-11.2,2.3c-2.7-0.1-5.8-0.5-8.7-2.4
					c-1.5-1-3.9-3-3.9-5.8V128c0-0.1,0-0.2,0.1-0.3c0-0.6,0.2-1.2,0.4-1.8L-7.2,135.9z"/>
			</g>
			<g>
				<path class="st1" d="M23.6,117.5l5.5,3.2c-2.4-0.7-4.7-0.8-6.9-0.7c-1.4,0.1-2.8,0.3-4.1,0.7L23.6,117.5z"/>
				<path class="st2" d="M18.1,121.2c-0.2,0-0.4-0.1-0.4-0.3c-0.1-0.2,0-0.5,0.2-0.6l5.5-3.2c0.1-0.1,0.3-0.1,0.5,0l5.5,3.2
					c0.2,0.1,0.3,0.4,0.2,0.6c-0.1,0.2-0.3,0.3-0.6,0.3c-2.1-0.6-4.3-0.8-6.7-0.6c-1.5,0.1-2.8,0.3-4,0.6
					C18.2,121.2,18.2,121.2,18.1,121.2z M23.6,118.1l-2.8,1.6c0.5-0.1,0.9-0.1,1.4-0.1c1.5-0.1,2.9-0.1,4.2,0.1L23.6,118.1z"/>
			</g>
			<g>
				<path class="st2" d="M37.2,127.8c0,2.7,0,5.4,0,8.1c0,0.6-0.1,1.1-0.4,1.7c-0.5,1.1-1.2,2-2.1,2.8c-0.5,0.4-1,0.7-1.5,1
					c-3.2,1.9-7.2,2.3-10.9,2.2c-3-0.1-5.8-0.6-8.5-2.3c-1.9-1.3-3.7-3.2-3.7-5.4c0-2.7,0-5.3,0-7.9h0.1c0,0.9,0.2,1.7,0.6,2.5
					c1,2,3.6,3.3,5.9,4c2.9,0.9,5.6,1.2,8.3,1c2.3-0.1,4.6-0.7,6.8-1.6c0.4-0.2,0.9-0.4,1.3-0.6c1.2-0.7,2.4-1.6,3.1-2.8
					C36.7,129.7,37,128.7,37.2,127.8L37.2,127.8z"/>
				<path class="st2" d="M23.5,144.1c-0.4,0-0.8,0-1.2,0c-2.7-0.1-5.8-0.5-8.7-2.4c-1.5-1-3.9-3-3.9-5.8V128c0-0.3,0.2-0.5,0.5-0.5
					c0.3,0,0.6,0.2,0.6,0.5c0,0.8,0.2,1.6,0.5,2.3c0.8,1.6,2.7,2.9,5.7,3.8c2.8,0.9,5.4,1.2,8.1,1c2.3-0.1,4.6-0.7,6.7-1.6
					c0.4-0.2,0.9-0.4,1.3-0.6c1-0.6,2.2-1.4,2.9-2.6c0.4-0.8,0.7-1.7,0.7-2.5c0-0.3,0.2-0.4,0.5-0.4c0.3,0,0.6,0.2,0.6,0.5v8.1
					c0,0.6-0.1,1.2-0.4,1.9c-0.5,1.1-1.2,2.1-2.2,3c-0.5,0.4-1.1,0.8-1.5,1C30.8,143.3,27.5,144.1,23.5,144.1z M10.6,131.1v4.8
					c0,2.3,2.2,4.1,3.5,5c2.7,1.8,5.7,2.1,8.2,2.2c4.3,0.2,7.9-0.6,10.7-2.1c0.4-0.2,0.9-0.6,1.4-1c0.9-0.7,1.5-1.6,1.9-2.6
					c0.2-0.6,0.3-1.1,0.3-1.5v-5.1c-0.8,1.4-2.1,2.3-3.2,2.9c-0.5,0.2-0.9,0.4-1.3,0.6c-2.3,1-4.6,1.5-7,1.7
					c-2.8,0.2-5.6-0.2-8.5-1.1C13.6,134,11.6,132.7,10.6,131.1z"/>
			</g>
			<g>
				<path class="st2" d="M69,146.2c0,2.7,0,5.4,0,8.1c0,0.6-0.1,1.1-0.4,1.7c-0.5,1.1-1.1,2-2.1,2.8c-0.5,0.4-1,0.7-1.5,1
					c-3.2,1.9-7.2,2.3-10.9,2.2c-2.9-0.1-5.8-0.6-8.5-2.3c-1.9-1.3-3.7-3.2-3.7-5.4c0-2.7,0-5.3,0-7.9H42c0,0.9,0.2,1.7,0.6,2.5
					c1,2,3.6,3.3,5.9,4c2.9,0.9,5.6,1.2,8.3,1c2.3-0.1,4.6-0.7,6.8-1.6c0.4-0.2,0.9-0.4,1.3-0.6c1.3-0.7,2.4-1.6,3.1-2.8
					C68.5,148.1,68.8,147.1,69,146.2L69,146.2z"/>
				<path class="st2" d="M55.3,162.5c-0.4,0-0.8,0-1.2,0c-2.7-0.1-5.8-0.5-8.7-2.4c-1.5-1-3.9-3-3.9-5.8v-7.9c0-0.3,0.2-0.5,0.5-0.5
					c0.3,0,0.6,0.2,0.6,0.5c0,0.8,0.2,1.6,0.5,2.3c0.8,1.6,2.7,2.9,5.7,3.8c2.8,0.9,5.5,1.2,8.1,1c2.3-0.1,4.6-0.7,6.7-1.6l0.3-0.1
					c0.3-0.1,0.7-0.3,1-0.5c1.4-0.8,2.4-1.6,2.9-2.6c0.4-0.8,0.7-1.7,0.7-2.5c0-0.3,0.2-0.4,0.5-0.4c0.3,0,0.6,0.2,0.6,0.5v8.1
					c0,0.6-0.1,1.2-0.4,1.9c-0.5,1.2-1.2,2.2-2.2,3c-0.5,0.4-1.1,0.8-1.5,1C62.6,161.7,59.3,162.5,55.3,162.5z M42.4,149.4v4.8
					c0,2.3,2.2,4.1,3.5,5c2.7,1.8,5.7,2.1,8.2,2.2c4.3,0.2,7.9-0.6,10.7-2.1c0.4-0.2,0.9-0.6,1.4-1c0.9-0.7,1.5-1.5,1.9-2.6
					c0.2-0.6,0.3-1.1,0.3-1.5v-5.1c-0.6,1.1-1.7,2.1-3.2,2.9c-0.3,0.2-0.7,0.3-1.1,0.5l-0.3,0.1c-2.2,0.9-4.6,1.5-7,1.7
					c-2.8,0.2-5.5-0.2-8.5-1.1C45.5,152.4,43.4,151,42.4,149.4z"/>
			</g>
			<g>
				<path class="st2" d="M100.8,164.5c0,2.7,0,5.4,0,8.1c0,0.6-0.1,1.1-0.3,1.7c-0.5,1.1-1.2,2-2.1,2.8c-0.5,0.3-0.9,0.7-1.5,1
					c-3.2,1.8-7.1,2.3-10.9,2.2c-3-0.1-5.9-0.6-8.5-2.3c-1.9-1.3-3.8-3.2-3.8-5.4c0-2.7,0-5.3,0-7.9h0.1c0,0.9,0.2,1.7,0.6,2.5
					c1,2,3.6,3.2,5.9,4c2.9,0.9,5.6,1.2,8.3,1c2.3-0.1,4.6-0.7,6.8-1.6c0.4-0.2,0.9-0.4,1.3-0.6c1.3-0.7,2.4-1.6,3.1-2.8
					C100.3,166.4,100.6,165.5,100.8,164.5L100.8,164.5z"/>
				<path class="st2" d="M86.8,180.8c-0.3,0-0.6,0-0.9,0c-2.7-0.1-5.9-0.5-8.7-2.4c-1.2-0.8-4-2.9-4-5.8v-7.9c0-0.3,0.2-0.5,0.5-0.5
					s0.6,0.2,0.6,0.5c0,0.8,0.2,1.6,0.5,2.3c1,2,3.7,3.1,5.7,3.8c2.8,0.9,5.5,1.2,8.1,1c2.3-0.1,4.6-0.7,6.7-1.6l0.3-0.1
					c0.3-0.1,0.7-0.3,1-0.5c1.4-0.8,2.4-1.6,2.9-2.6c0.4-0.8,0.7-1.7,0.7-2.5c0-0.3,0.2-0.4,0.5-0.4c0.3,0,0.6,0.2,0.6,0.5v8.1
					c0,0.7-0.1,1.3-0.4,1.9c-0.5,1.2-1.2,2.2-2.3,3c-0.5,0.4-1,0.7-1.5,1C94.4,180.1,91,180.8,86.8,180.8z M74.2,167.8v4.8
					c0,1.7,1.3,3.5,3.5,5c2.6,1.8,5.6,2.1,8.2,2.3c4.4,0.1,7.9-0.6,10.6-2.1c0.5-0.3,1-0.6,1.4-1c0.9-0.7,1.5-1.6,2-2.6
					c0.2-0.5,0.3-1,0.3-1.5v-5.1c-0.6,1.1-1.7,2.1-3.2,2.9c-0.3,0.2-0.7,0.4-1.1,0.5l-0.3,0.1c-2.2,0.9-4.6,1.5-7,1.7
					c-2.8,0.2-5.6-0.2-8.5-1.1C78.2,171,75.5,169.9,74.2,167.8z"/>
			</g>
			<g>
				<path class="st2" d="M132.6,191c0,0.1,0,0.2,0,0.4c-0.1,1-0.5,1.9-1.1,2.8c-0.8,1-1.8,1.8-2.8,2.4c-3.2,1.8-7.1,2.3-10.9,2.1
					c-3-0.1-5.9-0.6-8.5-2.3c-1.9-1.3-3.7-3.2-3.7-5.4c0-2.7,0-5.3,0-7.9h0.1c0,0.9,0.2,1.8,0.6,2.5c1,2,3.5,3.2,5.9,4
					c2.8,0.9,5.6,1.2,8.3,1c2.3-0.1,4.6-0.7,6.8-1.6c0.4-0.2,0.9-0.4,1.3-0.6c1.3-0.7,2.4-1.6,3.1-2.8c0.5-0.8,0.7-1.8,0.8-2.7h0.1
					C132.6,185.6,132.6,188.3,132.6,191z"/>
				<path class="st2" d="M119,199.2c-0.4,0-0.8,0-1.2,0c-3.6-0.1-6.4-0.9-8.7-2.4c-1.2-0.8-3.9-2.9-3.9-5.8V183
					c0-0.3,0.2-0.5,0.5-0.5c0.3,0,0.6,0.2,0.6,0.5c0,0.8,0.2,1.6,0.5,2.3c0.8,1.6,2.6,2.8,5.7,3.8c2.8,0.9,5.4,1.2,8.1,1
					c2.3-0.1,4.6-0.7,6.7-1.6c0.2-0.1,0.4-0.2,0.6-0.3c0.2-0.1,0.5-0.2,0.7-0.3c1.4-0.8,2.3-1.6,2.9-2.6c0.4-0.7,0.7-1.6,0.7-2.5
					c0-0.3,0.2-0.4,0.5-0.4c0.3,0,0.6,0.2,0.6,0.5v8.5c-0.1,1-0.5,2.1-1.2,3c-0.8,1-1.8,1.9-3,2.6C126.3,198.4,123,199.2,119,199.2z
					 M106.1,186.2v4.8c0,2.5,2.4,4.3,3.5,5c2.1,1.4,4.8,2.1,8.2,2.2c4.3,0.2,7.9-0.5,10.6-2.1c1.1-0.6,2-1.4,2.7-2.3
					c0.6-0.8,0.9-1.7,1-2.5l0-5.4c-0.6,1.1-1.7,2.1-3.2,2.9c-0.2,0.1-0.5,0.2-0.7,0.3c-0.2,0.1-0.5,0.2-0.7,0.3
					c-2.2,1-4.6,1.5-7,1.7c-2.8,0.2-5.5-0.2-8.4-1.1C110.1,189.4,107.4,188.3,106.1,186.2z"/>
			</g>
			<g>
				<polygon class="st1" points="150.9,191 150.9,205.7 119.1,224.1 119.1,209.3 				"/>
				<path class="st2" d="M119.1,224.5c-0.1,0-0.2,0-0.2-0.1c-0.1-0.1-0.2-0.2-0.2-0.4v-14.7c0-0.2,0.1-0.3,0.2-0.4l31.8-18.4
					c0.1-0.1,0.3-0.1,0.5,0c0.1,0.1,0.2,0.2,0.2,0.4v14.7c0,0.2-0.1,0.3-0.2,0.4l-31.8,18.4C119.3,224.5,119.2,224.5,119.1,224.5z
					 M119.6,209.6v13.6l30.9-17.8v-13.6L119.6,209.6z"/>
			</g>
			<g>
				<polygon class="st1" points="119.1,209.3 119.1,224.1 -8.2,150.6 -8.2,135.9 				"/>
				<path class="st2" d="M119.1,224.5c-0.1,0-0.2,0-0.2-0.1L-8.4,151c-0.1-0.1-0.2-0.2-0.2-0.4v-14.7c0-0.2,0.1-0.3,0.2-0.4
					c0.1-0.1,0.3-0.1,0.5,0l127.3,73.4c0.1,0.1,0.2,0.2,0.2,0.4v14.7c0,0.2-0.1,0.3-0.2,0.4C119.3,224.5,119.2,224.5,119.1,224.5z
					 M-7.7,150.3l126.3,72.9v-13.6L-7.7,136.7V150.3z"/>
			</g>
			<g>
				<path class="st1" d="M29.2,120.7c0.5,0.1,1,0.2,1.4,0.4c2.3,0.7,4.7,1.9,5.8,3.8c0,0,0.1,0.1,0.1,0.2c0.4,0.9,0.6,1.8,0.6,2.7
					c0,1-0.3,1.9-0.8,2.7c-0.7,1.2-1.9,2.1-3.1,2.8c-0.5,0.2-0.9,0.4-1.3,0.6c-2.2,1-4.6,1.5-6.9,1.6c-2.7,0.2-5.5-0.1-8.4-1.1
					c-2.4-0.8-4.9-2-6-4.1c-0.4-0.8-0.6-1.6-0.6-2.5c0-1,0.3-2.1,0.8-2.9c0.1-0.1,0.2-0.3,0.3-0.4c1-1.4,2.5-2.3,4.2-3.1
					c0.9-0.4,1.8-0.7,2.7-0.9c1.4-0.4,2.8-0.6,4.2-0.7C24.5,119.8,26.8,120,29.2,120.7z"/>
				<path class="st2" d="M23.6,136.1c-2.3,0-4.6-0.4-7-1.1c-3.2-1-5.3-2.5-6.3-4.3c-0.4-0.8-0.6-1.8-0.6-2.7c0-1.1,0.3-2.2,0.8-3.1
					l0.3-0.5c1.1-1.6,2.9-2.6,4.4-3.2c0.8-0.4,1.8-0.7,2.8-0.9c1.3-0.4,2.6-0.6,4.2-0.7c2.5-0.2,4.9,0.1,7.1,0.7
					c0.5,0.1,1,0.2,1.4,0.4c3.1,1,5.2,2.3,6.1,4c0,0,0.1,0.1,0.2,0.3c0.4,0.8,0.6,1.8,0.6,2.9c0,1-0.3,2-0.8,2.9
					c-0.8,1.4-2.2,2.4-3.3,3c-0.5,0.2-0.9,0.4-1.3,0.6c-2.3,1-4.7,1.5-7.1,1.7C24.6,136.1,24.1,136.1,23.6,136.1z M23.8,120.4
					c-0.5,0-1,0-1.5,0c-1.5,0.1-2.8,0.3-4.1,0.7c-1,0.3-1.9,0.6-2.7,0.9c-1.3,0.6-3,1.5-4,2.9l-0.3,0.4c-0.4,0.8-0.7,1.8-0.7,2.7
					c0,0.8,0.2,1.6,0.5,2.3c0.8,1.6,2.7,2.9,5.7,3.8c2.8,0.9,5.5,1.2,8.2,1c2.3-0.1,4.6-0.7,6.7-1.6c0.5-0.2,0.9-0.4,1.3-0.6
					c1-0.6,2.2-1.4,2.9-2.6c0.4-0.8,0.7-1.7,0.7-2.5c0-0.9-0.2-1.8-0.5-2.5c0-0.1-0.1-0.1-0.1-0.1c-0.9-1.6-2.8-2.7-5.6-3.6
					c-0.5-0.1-0.9-0.3-1.4-0.4c0,0,0,0,0,0C27.4,120.6,25.6,120.4,23.8,120.4z"/>
			</g>
			<g>
				<path class="st1" d="M68.2,143.2c0,0,0.1,0.1,0.1,0.2c0.4,0.9,0.6,1.8,0.6,2.7c0,1-0.3,1.9-0.8,2.7c-0.7,1.2-1.8,2.1-3.1,2.8
					c-0.4,0.2-0.9,0.4-1.3,0.6c-2.2,1-4.6,1.5-6.9,1.6c-2.7,0.2-5.5-0.1-8.4-1.1c-2.4-0.8-4.9-2-6-4.1c-0.4-0.8-0.6-1.6-0.6-2.5
					c0-1,0.3-2.1,0.8-2.9c0.9-1.7,2.7-2.7,4.4-3.5c2.3-1,4.6-1.4,6.9-1.6c2.3-0.1,4.6,0,7,0.7c0.5,0.1,0.9,0.2,1.4,0.4
					C64.7,140.1,67.1,141.3,68.2,143.2z"/>
				<path class="st2" d="M55.4,154.5c-2.3,0-4.6-0.4-7-1.1c-3.2-1-5.3-2.5-6.3-4.3c-0.4-0.8-0.6-1.8-0.6-2.7c0-1.1,0.3-2.2,0.8-3.1
					c1.1-2,3.2-3,4.7-3.7c2.2-0.9,4.5-1.5,7-1.7c2.5-0.2,4.8,0.1,7.1,0.7c0.4,0.1,0.7,0.2,1.1,0.3l0.3,0.1c3.1,1,5.1,2.3,6.1,4
					c0.1,0.1,0.1,0.2,0.2,0.3c0.4,0.8,0.6,1.8,0.6,2.9c-0.1,1-0.3,2-0.8,2.9c-0.6,1.2-1.7,2.1-3.3,3c-0.3,0.2-0.7,0.3-1,0.5
					l-0.3,0.1c-2.2,1-4.6,1.5-7,1.7C56.4,154.5,55.9,154.5,55.4,154.5z M55.5,138.7c-0.5,0-0.9,0-1.4,0c-2.5,0.2-4.7,0.7-6.7,1.6
					c-2.2,0.9-3.5,2-4.2,3.3c-0.5,0.8-0.7,1.8-0.7,2.7c0,0.8,0.2,1.6,0.5,2.3c0.8,1.6,2.7,2.9,5.7,3.8c2.8,0.9,5.5,1.2,8.2,1
					c2.3-0.1,4.6-0.7,6.7-1.6l0.3-0.1c0.3-0.1,0.7-0.3,1-0.5c1.4-0.8,2.4-1.7,2.9-2.6c0.4-0.8,0.7-1.7,0.7-2.5
					c0-0.9-0.2-1.8-0.5-2.5c0-0.1,0-0.1-0.1-0.1c0,0,0,0-0.1-0.1c-0.8-1.5-2.7-2.7-5.6-3.6l-0.3-0.1c-0.4-0.1-0.7-0.2-1.1-0.3
					C59.1,139,57.3,138.7,55.5,138.7z"/>
			</g>
			<g>
				<path class="st1" d="M100,161.5c0.1,0.1,0.1,0.2,0.2,0.3c0.4,0.8,0.6,1.8,0.6,2.7c0,1-0.3,1.9-0.8,2.7c-0.7,1.2-1.8,2.1-3.1,2.8
					c-0.4,0.2-0.9,0.4-1.3,0.6c-2.2,1-4.6,1.5-6.9,1.6c-2.7,0.2-5.4-0.1-8.4-1.1c-2.4-0.8-4.9-2-6-4.1c-0.4-0.8-0.6-1.6-0.6-2.5
					c0-1.1,0.3-2.1,0.8-3c0.9-1.6,2.7-2.7,4.5-3.4c2.2-1,4.5-1.4,6.8-1.6c2.2-0.1,4.5,0,6.9,0.7c0.5,0.1,1,0.3,1.5,0.4
					C96.5,158.5,98.9,159.7,100,161.5z"/>
				<path class="st2" d="M87.2,172.8c-2.3,0-4.6-0.4-7-1.1c-2.1-0.7-5-1.9-6.3-4.3c-0.4-0.8-0.6-1.8-0.6-2.7c0-1.1,0.3-2.2,0.8-3.2
					c0.8-1.5,2.3-2.6,4.7-3.6c2.1-0.9,4.4-1.4,7-1.7c2.6-0.1,4.8,0.1,7,0.7c0.3,0.1,0.7,0.2,1.1,0.3l0.4,0.1c3,0.9,5,2.2,6,3.9
					c0.1,0.1,0.2,0.3,0.2,0.3c0.5,0.9,0.7,1.9,0.6,3c0,1-0.3,2-0.8,2.9c-0.6,1.2-1.7,2.1-3.3,3c-0.4,0.2-0.7,0.4-1.1,0.5l-0.3,0.1
					c-2.2,1-4.6,1.5-7,1.7C88.2,172.8,87.7,172.8,87.2,172.8z M87.1,157.1c-0.4,0-0.8,0-1.2,0c-2.5,0.2-4.6,0.7-6.7,1.6
					c-2.2,0.9-3.6,2-4.3,3.2c-0.5,0.8-0.7,1.8-0.7,2.7c0,0.8,0.2,1.6,0.5,2.3c1,2,3.8,3.2,5.7,3.8c2.8,0.9,5.5,1.2,8.2,1
					c2.3-0.1,4.6-0.7,6.7-1.6l0.3-0.1c0.3-0.1,0.7-0.3,1-0.5c1.4-0.8,2.4-1.6,2.9-2.6c0.4-0.8,0.7-1.7,0.7-2.5
					c0-0.9-0.1-1.8-0.5-2.5c-0.1-0.1-0.1-0.1-0.1-0.2c0,0-0.1-0.1-0.1-0.1c-0.9-1.5-2.7-2.6-5.5-3.5l-0.4-0.1
					c-0.3-0.1-0.7-0.2-1-0.3C90.9,157.4,89.1,157.1,87.1,157.1z"/>
			</g>
			<g>
				<path class="st1" d="M131.9,179.9c0,0,0.1,0.1,0.1,0.2c0.4,0.8,0.6,1.8,0.6,2.7c0,1-0.3,1.9-0.8,2.7c-0.7,1.2-1.8,2.1-3.1,2.8
					c-0.4,0.2-0.9,0.4-1.3,0.6c-2.2,1-4.5,1.5-6.9,1.6c-2.7,0.2-5.4-0.1-8.3-1.1c-2.4-0.8-5-2-6-4.1c-0.4-0.8-0.6-1.6-0.6-2.5
					c0-1,0.2-2.1,0.7-2.9c1-1.6,2.7-2.7,4.5-3.4c2.2-1,4.5-1.4,6.8-1.6c2.3-0.1,4.5,0,6.9,0.6c0.5,0.1,1,0.3,1.5,0.4
					C128.3,176.9,130.8,178,131.9,179.9z"/>
				<path class="st2" d="M119,191.2c-2.3,0-4.6-0.4-7-1.1c-2.1-0.7-5.1-1.9-6.3-4.3c-0.4-0.8-0.6-1.7-0.6-2.7c0-1.1,0.3-2.2,0.8-3.1
					c0.9-1.5,2.4-2.7,4.7-3.6c2.1-0.9,4.4-1.4,7-1.7c2.4-0.2,4.7,0.1,7,0.6c0.5,0.1,1,0.3,1.5,0.4c3.1,1,5.1,2.4,6.1,4
					c0.1,0.1,0.1,0.2,0.2,0.3c0.5,0.9,0.7,1.9,0.6,3c-0.1,1.1-0.3,2.1-0.8,2.9c-0.6,1.1-1.7,2.1-3.3,3c-0.3,0.1-0.5,0.2-0.7,0.3
					c-0.2,0.1-0.4,0.2-0.6,0.3c-2.3,1-4.6,1.5-7,1.7C120,191.2,119.5,191.2,119,191.2z M119.1,175.5c-0.5,0-0.9,0-1.4,0
					c-2.5,0.2-4.7,0.7-6.7,1.6c-2.1,0.9-3.5,2-4.3,3.2c-0.4,0.8-0.7,1.7-0.7,2.7c0,0.8,0.2,1.6,0.5,2.3c0.8,1.6,2.6,2.8,5.7,3.8
					c2.8,0.9,5.4,1.2,8.1,1c2.3-0.1,4.6-0.7,6.7-1.6c0.2-0.1,0.4-0.2,0.6-0.3c0.2-0.1,0.5-0.2,0.7-0.3c1.4-0.8,2.3-1.6,2.9-2.6
					c0.4-0.7,0.7-1.6,0.7-2.5c0-0.9-0.1-1.8-0.5-2.5c0-0.1-0.1-0.1-0.1-0.2c0,0,0,0-0.1-0.1c-0.8-1.5-2.7-2.6-5.6-3.6
					c-0.5-0.1-1-0.3-1.5-0.4C122.6,175.7,120.9,175.5,119.1,175.5z"/>
			</g>
		</g>
	</g>
</g>
<circle class="st3" cx="139" cy="139" r="135.3"/>
</svg>
