<?xml version="1.0" encoding="utf-8"?>
<!-- Generator: Adobe Illustrator 24.2.3, SVG Export Plug-In . SVG Version: 6.00 Build 0)  -->
<svg version="1.1" id="Layer_1" xmlns="http://www.w3.org/2000/svg" xmlns:xlink="http://www.w3.org/1999/xlink" x="0px" y="0px"
	 viewBox="0 0 508.1 133.1" style="enable-background:new 0 0 508.1 133.1;" xml:space="preserve">
<style type="text/css">
	.st0{fill:#F05325;}
	.st1{fill:#FFFFFF;}
</style>
<path class="st0" d="M401.3,64.5h0.7l15-30.3c0.5-1.1,1.3-1.7,2.8-1.7h5.2c2.3,0,2.8,2.3,2.1,3.9l-16.5,33l16.5,33.3
	c0.7,1.6,0.1,3.9-2.1,3.9h-5.2c-1.5,0-2.3-0.7-2.8-1.9l-15-30.3h-0.7v29.3c0,1.9-1.1,2.9-2.9,2.9H394c-1.9,0-2.9-1.1-2.9-2.9V2.8
	c0-1.9,1.1-2.8,2.9-2.8h4.4c1.9,0,2.9,0.9,2.9,2.8V64.5z"/>
<path class="st0" d="M481.5,35.3l5.3,37.4l2.5,23.3h0.7l2.5-23.3l5.2-37.4c0.3-2,1.2-2.8,3.3-2.8h4.3c1.9,0,3.1,1.1,2.7,3.5
	l-14.4,94.3c-0.3,1.9-1.1,2.8-3.2,2.8h-4.3c-1.9,0-3.1-1.1-2.7-3.5l3.9-23.2H485c-2,0-2.9-0.9-3.3-2.8l-10.4-67.7
	c-0.4-2.4,0.9-3.5,2.7-3.5h4.3C480.4,32.5,481.2,33.3,481.5,35.3z"/>
<path class="st0" d="M464.9,92"/>
<path class="st0" d="M427.1,61.5v-15l-11.4,22.8l11.4,22.9V77.3"/>
<path class="st0" d="M463.1,73.7c2,0,3.1-1.1,3.1-3.1V47.7c0-10.2-3.7-15.8-16.6-15.8c-12.9,0-16.6,5.6-16.6,15.8v17.8h-11.2v8H433
	v17.9c0,10.2,3.7,15.8,16.6,15.8c12.9,0,16.6-5.6,16.6-15.8v-4.9c0-1.9-0.9-2.8-2.8-2.8h-4.5c-1.9,0-2.8,0.9-2.8,2.8v4.8
	c0,5.6-2,7.5-6.5,7.5c-4.4,0-6.4-1.9-6.4-7.5V73.7L463.1,73.7L463.1,73.7z M443.1,47.8c0-5.7,2-7.5,6.4-7.5c4.5,0,6.5,1.7,6.5,7.5
	v17.5h-12.9V47.8z"/>
<path class="st1" d="M32.9,70.6c0,2-1.1,3.1-3,3.1H10.1v17.6c0,5.6,2,7.4,6.3,7.4c4.5,0,6.5-1.9,6.5-7.4v-4.8c0-1.9,0.9-2.8,2.8-2.8
	h4.5c1.8,0,2.8,0.9,2.8,2.8v4.9c0,10.2-3.7,15.8-16.5,15.8S0,101.6,0,91.4V47.8C0,37.6,3.7,32,16.5,32S33,37.6,33,47.8v22.8H32.9z
	 M10,65.3h12.8V47.9c0-5.7-2-7.4-6.5-7.4c-4.4,0-6.3,1.7-6.3,7.4V65.3z"/>
<path class="st1" d="M75.1,103.8c0,1.7-0.9,2.8-2.8,2.8h-4.5c-1.8,0-2.8-1.1-2.8-2.8V48.2c0-5.6-1.6-7.4-5.9-7.4
	c-4.5,0-6.9,2.4-6.9,8v55.1c0,1.7-1.1,2.8-2.9,2.8h-4.4c-1.8,0-2.9-1.1-2.9-2.8V35.5c0-1.9,1.1-2.8,2.9-2.8h4.4
	c1.8,0,2.9,0.9,2.9,2.8v1.7c3.3-3.3,7.9-5.2,12-5.2C70,32,75,35.7,75,44.2L75.1,103.8L75.1,103.8z"/>
<path class="st1" d="M88.3,32.6V13c0-1.9,1.1-2.8,2.9-2.8h4.4c1.8,0,2.9,0.9,2.9,2.8v19.6h8.3c1.8,0,2.9,0.9,2.9,2.8v2.8
	c0,1.9-1.1,2.9-2.9,2.9h-8.3v48c0,5.7,1.5,8.9,7.8,8.9h3.2c1.8,0,2.9,0.9,2.9,2.8v2.8c0,1.9-1.1,2.9-2.9,2.9h-3.2
	c-14,0-18-6.1-18-17.3V41.1h-5.7c-1.8,0-2.9-1.1-2.9-2.9v-2.8c0-1.9,1.1-2.8,2.9-2.8L88.3,32.6L88.3,32.6z"/>
<path class="st1" d="M149.9,70.6c0,2-1.1,3.1-3,3.1h-19.8v17.6c0,5.6,2,7.4,6.3,7.4c4.5,0,6.5-1.9,6.5-7.4v-4.8
	c0-1.9,0.9-2.8,2.8-2.8h4.5c1.8,0,2.8,0.9,2.8,2.8v4.9c0,10.2-3.7,15.8-16.5,15.8S117,101.6,117,91.4V47.8
	c0-10.2,3.7-15.8,16.5-15.8S150,37.6,150,47.8v22.8H149.9z M127.1,65.3h12.8V47.9c0-5.7-2-7.4-6.5-7.4c-4.4,0-6.3,1.7-6.3,7.4V65.3z
	"/>
<path class="st1" d="M190.9,63.2c0,1.7-0.9,2.8-2.8,2.8h-4.5c-1.8,0-2.8-1.1-2.8-2.8v-15c0-5.6-1.6-7.4-5.9-7.4
	c-4.5,0-6.9,2.4-6.9,8v55.1c0,1.7-1.1,2.8-2.9,2.8h-4.4c-1.8,0-2.9-1.1-2.9-2.8V35.5c0-1.9,1.1-2.8,2.9-2.8h4.4
	c1.8,0,2.9,0.9,2.9,2.8v1.7c3.3-3.3,7.9-5.2,12-5.2c5.8,0,10.8,3.7,10.8,12.2L190.9,63.2L190.9,63.2z"/>
<path class="st1" d="M197.5,35.4c0-1.9,1.1-2.8,2.9-2.8h4.4c1.8,0,2.9,0.9,2.9,2.8v1.7c3.3-3.3,7.9-5.2,12-5.2
	c5.8,0,10.8,3.7,10.8,12.2v50.8c0,8.5-5,12.2-10.8,12.2c-4.1,0-8.7-1.9-12-5.2v28.3c0,1.9-1.1,2.8-2.9,2.8h-4.4
	c-1.8,0-2.9-0.9-2.9-2.8V35.4z M220.4,48.2c0-5.6-1.6-7.4-5.9-7.4c-4.5,0-6.9,2.4-6.9,8v41.8c0,5.6,2.4,7.8,6.9,7.8
	c4.4,0,5.9-1.7,5.9-7.4V48.2z"/>
<path class="st1" d="M271.4,63.2c0,1.7-0.9,2.8-2.8,2.8h-4.5c-1.8,0-2.8-1.1-2.8-2.8v-15c0-5.6-1.6-7.4-5.9-7.4
	c-4.5,0-6.9,2.4-6.9,8v55.1c0,1.7-1.1,2.8-2.9,2.8h-4.4c-1.8,0-2.9-1.1-2.9-2.8V35.5c0-1.9,1.1-2.8,2.9-2.8h4.4
	c1.8,0,2.9,0.9,2.9,2.8v1.7c3.3-3.3,7.9-5.2,12-5.2c5.8,0,10.8,3.7,10.8,12.2L271.4,63.2L271.4,63.2z"/>
<path class="st1" d="M313.6,107.2c-12.8,0-16.5-5.6-16.5-15.8v-8.5c0-1.9,0.9-2.9,2.8-2.9h4.5c1.8,0,2.8,1.1,2.8,2.9v8.4
	c0,5.6,2,7.4,6.5,7.4c4.4,0,6.3-1.9,6.3-7.4c0-8.2-1.1-8.9-5.8-13.7l-10-9.8c-4.8-4.7-7-8.6-7-19.9c0-10.2,3.7-15.8,16.5-15.8
	c12.7,0,16.5,5.6,16.5,15.8v8.5c0,1.9-1.1,2.8-2.9,2.8h-4.4c-1.8,0-2.9-0.9-2.9-2.8V48c0-5.7-2-7.4-6.3-7.4c-4.5,0-6.5,1.7-6.5,7.4
	c0,8.2,1.1,8.8,5.8,13.7l10,9.8c4.8,4.7,7.1,8.6,7.1,19.9C330.1,101.6,326.3,107.2,313.6,107.2z"/>
<path class="st1" d="M370.7,70.6c0,2-1.1,3.1-3,3.1h-19.8v17.6c0,5.6,2,7.4,6.3,7.4c4.5,0,6.5-1.9,6.5-7.4v-4.8
	c0-1.9,0.9-2.8,2.8-2.8h4.5c1.8,0,2.8,0.9,2.8,2.8v4.9c0,10.2-3.7,15.8-16.5,15.8s-16.5-5.6-16.5-15.8V47.8
	c0-10.2,3.7-15.8,16.5-15.8s16.5,5.6,16.5,15.8L370.7,70.6L370.7,70.6z M347.8,65.3h12.8V47.9c0-5.7-2-7.4-6.5-7.4
	c-4.4,0-6.3,1.7-6.3,7.4V65.3z"/>
<circle class="st1" cx="284.3" cy="39.7" r="7.2"/>
<path class="st1" d="M289.5,103.7c0,1.8-1.1,2.9-2.9,2.9h-4.4c-1.8,0-2.9-1.1-2.9-2.9V55.8c0-1.8,1.1-2.8,2.9-2.8h4.4
	c1.8,0,2.9,0.9,2.9,2.8V103.7z"/>
</svg>
