<?xml version="1.0" encoding="utf-8"?>
<!-- Generator: Adobe Illustrator 24.2.3, SVG Export Plug-In . SVG Version: 6.00 Build 0)  -->
<svg version="1.1" id="Outlined" xmlns="http://www.w3.org/2000/svg" xmlns:xlink="http://www.w3.org/1999/xlink" x="0px" y="0px"
	 viewBox="0 0 278 278" style="enable-background:new 0 0 278 278;" xml:space="preserve">
<style type="text/css">
	.st0{fill:none;stroke:#004D71;stroke-width:5;stroke-miterlimit:10;}
	.st1{fill:#004D71;}
</style>
<circle class="st0" cx="139" cy="139" r="135.3"/>
<g>
	<path class="st1" d="M103.5,117.5c0.5,0.8,1.4,1.3,2.3,1.3c0,0,0,0,0,0c1,0,1.8-0.5,2.3-1.4L119.8,97c0.5-0.8,0.5-1.9,0-2.7
		c-0.5-0.8-1.4-1.3-2.3-1.3l-8.6,0.1c4.7-26.1,29-44.3,55.6-41.1c16.2,1.9,30.6,11.7,38.3,26.1c0.7,1.3,2.3,1.8,3.6,1.1
		c1.3-0.7,1.8-2.3,1.1-3.6c-4.2-7.7-10.2-14.4-17.3-19.4c-3.7-2.5-7.6-4.6-11.8-6.2c-4.3-1.6-8.8-2.7-13.3-3.3
		c-7.5-0.9-14.9-0.3-22.1,1.8c-6.9,2-13.3,5.3-19,9.8c-5.7,4.5-10.4,9.9-14,16.2c-3.7,6.5-6,13.6-6.9,21c0,0,0,0,0,0
		c0,0.1,0,0.3,0,0.4c0,1.5,1.2,2.7,2.7,2.7c0,0,0,0,0,0l7.1-0.1l-7,12.3l-9.5-16.2c-0.8-1.3-2.4-1.7-3.7-1c-1.3,0.8-1.7,2.4-1,3.7
		L103.5,117.5z"/>
	<path class="st1" d="M225.2,106.5l-11.9-20.2c-0.5-0.8-1.4-1.3-2.3-1.3c0,0,0,0,0,0c-1,0-1.8,0.5-2.3,1.4l-11.6,20.4
		c-0.5,0.8-0.5,1.9,0,2.7c0.5,0.8,1.4,1.3,2.3,1.3c0,0,0,0,0,0l8.6-0.1c-2.1,12.3-8.6,23.2-18.5,30.9c-10.6,8.3-23.8,12-37.1,10.4
		c-15.7-1.9-29.3-10.8-37.4-24.3c-0.8-1.3-2.4-1.7-3.7-0.9c-1.3,0.8-1.7,2.4-0.9,3.7c4.3,7.2,10.2,13.4,17.2,18.1
		c3.6,2.4,7.4,4.3,11.4,5.8c4.1,1.5,8.4,2.6,12.8,3.1c2.2,0.3,4.5,0.4,6.7,0.4c5.2,0,10.3-0.7,15.3-2.2c6.9-2,13.3-5.3,19-9.8
		c5.7-4.5,10.4-9.9,14-16.2c3.7-6.5,6-13.6,6.9-21c0-0.1,0-0.1,0-0.2c0-0.2,0-0.3,0-0.5c0-1.5-1.2-2.7-2.7-2.7l-7.1,0.1l7-12.3
		l9.5,16.2c0.8,1.3,2.4,1.7,3.7,1C225.5,109.5,225.9,107.8,225.2,106.5z"/>
	<path class="st1" d="M205.3,164c-2.7,0-5.3,0.8-7.6,2.4l-19.2,13.4c-0.6,0.4-1.1,1.1-1.2,1.9c-0.1,0.8,0,1.5,0.5,2.2
		c0.5,0.8,1.4,1.2,2.4,1.2c0.6,0,1.2-0.2,1.7-0.5l19.2-13.4c1.2-0.9,2.7-1.3,4.2-1.3c2.4,0,4.6,1.1,6,3.1c1.1,1.6,1.6,3.5,1.2,5.4
		c-0.3,1.9-1.4,3.6-3,4.7l-51.5,36.4c-0.6,0.4-1.2,0.7-1.8,0.9c-0.8,0.3-1.5,0.4-2.4,0.4c-0.2,0-0.5,0-0.7,0l0,0l0,0l-47.9-12.2
		c-0.1,0-0.2-0.1-0.3-0.1c-0.7-0.1-1.3-0.2-2-0.2c-2.7,0-5.3,0.8-7.6,2.4l-3.1,2.2l-19.6-27.6l21.9-15.6c2.6-1.8,5.6-2.8,8.7-2.8
		c0.8,0,1.6,0.1,2.3,0.2l0.1,0l54.6,15.8l0,0c0,0,0,0,0,0c3.8,1.1,6.1,5,5.1,8.8c-0.5,1.8-1.7,3.4-3.4,4.3c-1.1,0.6-2.3,1-3.6,1
		c-0.6,0-1.3-0.1-1.9-0.3c0,0,0,0,0,0c0,0,0,0,0,0c0,0,0,0,0,0l0,0l-28.2-6.8c-0.2-0.1-0.4-0.1-0.7-0.1c-1.4,0-2.5,0.9-2.8,2.2
		c-0.2,0.8,0,1.7,0.5,2.4c0.4,0.6,1,1,1.7,1.1l28.2,6.8c0,0,0,0,0,0c1.1,0.3,2.2,0.4,3.4,0.4c2.3,0,4.5-0.6,6.5-1.7
		c3-1.7,5.2-4.5,6.1-7.9c1.8-6.8-2.2-13.9-9.1-15.9l0,0l-54.6-15.8l0,0c-0.2-0.1-0.3-0.1-0.5-0.1c-1.2-0.2-2.4-0.3-3.5-0.3
		c-4.3,0-8.5,1.3-12.1,3.9l-21.9,15.6l-2.3-3.2c-0.5-0.8-1.4-1.2-2.4-1.2c-0.6,0-1.2,0.2-1.7,0.5l-9.1,6.5c0,0,0,0-0.1,0l0,0
		c-0.7,0.5-1.2,1.4-1.2,2.4c0,1.6,1.3,2.9,2.9,2.9c0.7,0,1.3-0.2,1.8-0.6l0,0l6.6-4.7L91.4,222l-6.1,4.3c-0.2,0.1-0.4,0.2-0.5,0.4
		c-0.6,0.6-1,1.3-1,2.2c0,1.6,1.3,2.9,2.9,2.9c0.6,0,1.2-0.2,1.7-0.6l0,0l8.6-6.2c1.3-0.9,1.6-2.8,0.7-4.1l-2.3-3.3l3.1-2.2
		c1.2-0.9,2.7-1.3,4.2-1.3c0.3,0,0.7,0,1,0.1l0.1,0l48,12.2l0,0c0,0,0.1,0,0.1,0l0,0c0.1,0,0.1,0,0.1,0l0,0c0,0,0,0,0,0
		c0.5,0.1,1.1,0.1,1.6,0.1c0,0,0,0,0,0c1.5,0,2.9-0.2,4.3-0.7c1.2-0.4,2.3-1,3.3-1.7l51.5-36.4c2.8-2,4.7-5,5.3-8.5
		c0.6-3.5-0.2-6.9-2.2-9.8C213.5,166.1,209.5,164,205.3,164z"/>
	<g>
		<path class="st1" d="M159.4,129c-5.6,0-11.3,0-16.9,0c-3.5,0-6.4-2.3-7.2-5.8c-0.2-1-0.2-2.1,0-3.1c1.1-5.1,3.1-9.7,6.3-13.9
			c2.1-2.7,4.6-5.1,7.6-6.8c0.3-0.2,0.5-0.1,0.8,0c6.3,3.9,12.6,3.9,19,0c0.3-0.2,0.5-0.2,0.7,0c4.1,2.4,7.2,5.8,9.7,9.9
			c2,3.4,3.4,7,4.2,10.8c1,4.5-2.5,8.8-7.1,8.8C170.8,129,165.1,129,159.4,129z"/>
		<path class="st1" d="M159.4,99c-8.3,0-15-6.7-15-15c0-8.2,6.7-15,15-15c8.3,0,15,6.7,15,15C174.4,92.3,167.7,99,159.4,99z"/>
	</g>
</g>
</svg>
