<?xml version="1.0" encoding="utf-8"?>
<!-- Generator: Adobe Illustrator 24.2.3, SVG Export Plug-In . SVG Version: 6.00 Build 0)  -->
<svg version="1.1" id="Layer_1" xmlns="http://www.w3.org/2000/svg" xmlns:xlink="http://www.w3.org/1999/xlink" x="0px" y="0px"
	 viewBox="0 0 600 600" style="enable-background:new 0 0 600 600;" xml:space="preserve">
<style type="text/css">
	.st0{fill:#FFFFFF;}
	.st1{clip-path:url(#SVGID_2_);}
	.st2{clip-path:url(#SVGID_4_);fill:none;}
	.st3{clip-path:url(#SVGID_4_);}
	.st4{clip-path:url(#SVGID_6_);}
</style>
<g>
	<g>
		<g>
			<path class="st0" d="M455.3,275.7h-41.9v-39.5c-8.6-7.5-13.4-18.3-13.4-29.7c0-21.8,17.8-39.6,39.6-39.6
				c21.8,0,39.6,17.8,39.6,39.6c0,1.1-0.1,2.3-0.2,3.5l0,30.1h-7.5l-0.1,20.1l-3.5,0l0.1-23.6h7.5v-26.8c0.1-1.3,0.2-2.3,0.2-3.3
				c0-19.9-16.2-36.1-36.1-36.1c-19.9,0-36.1,16.2-36.1,36.1c0,10.6,4.7,20.7,12.8,27.6l0.6,0.5v37.6h35l0.1-11.7l3.5,0L455.3,275.7
				z"/>
		</g>
		<g>
			<line class="st0" x1="468" y1="214" x2="463" y2="214"/>
			<rect x="463" y="212.2" class="st0" width="5" height="3.5"/>
		</g>
		<g>
			<line class="st0" x1="476.4" y1="206.5" x2="465.2" y2="206.5"/>
			<rect x="465.2" y="204.7" class="st0" width="11.3" height="3.5"/>
		</g>
		<g>
			<line class="st0" x1="469.2" y1="247.1" x2="464.2" y2="247.1"/>
			<rect x="464.2" y="245.4" class="st0" width="5" height="3.5"/>
		</g>
		<g>
			<polygon class="st0" points="471.4,261.7 429.3,261.7 429.3,236.5 432.8,236.5 432.8,258.2 471.4,258.2 			"/>
		</g>
	</g>
</g>
<g>
	<path class="st0" d="M432.7,222.5c-0.7,0-1.5-0.1-2.2-0.1c-0.4,0-0.7-0.1-1.1-0.1l-1.3-0.1l-0.3-1.2c-1.2-4.4-2.1-4.4-2.6-4.4
		c-0.9,0-2.3,0.6-4.4,1.8l-1.1,0.6l-0.9-0.9c-1.3-1.2-2.7-2.4-4-3.7l-1.2-1.1l1.1-1.3c1.3-1.6,1.8-3.3,1.3-4.4
		c-0.5-1-1.8-1.5-3.7-1.5h-1.6l-0.3-2.6c-0.1-0.8-0.1-1.6-0.2-2.3c0-0.7,0-1.4,0.1-2.2c0-0.3,0-0.7,0.1-1.1l0.1-1.4l1.4-0.2
		c2.3-0.3,3.6-1.3,3.9-2.1c0.1-0.3,0.3-0.7-0.2-1.4c-2.8-4.6,0.2-6.9,2-8.3c0.3-0.2,0.5-0.4,0.8-0.6l0.9-0.8l1,0.6
		c1.6,0.9,2.8,1.3,3.6,1.3c0.5,0,1.7,0,2.7-4.4l0.3-1.3l8.5-0.3l0.3,1.4c0.9,3.9,1.8,3.9,2.4,3.9c1.2,0,3.2-0.8,4.5-1.5l1.1-0.5
		l5.8,5.8l-0.6,1.1c-1,2-1.3,3.3-1,4.1c0.3,0.8,1.7,1.5,4.1,2.3l1.2,0.4l0.3,8.2l-1.2,0.4c-3.4,1.1-4,2.3-4.2,2.6
		c0,0.1-0.2,0.4,0.2,1c3,5-0.2,7.4-2.3,9c-0.3,0.2-0.6,0.5-0.9,0.7l-1.1,0.9l-1.1-0.8c-1.8-1.4-2.9-1.7-3.5-1.7
		c-0.4,0-1.5,0-2.5,3.5c-0.4,1.3-1.9,2.6-3.2,2.7C433.5,222.5,433.1,222.5,432.7,222.5z M431,218.9c0.8,0.1,1.7,0.2,2.5,0.1
		c0,0,0.2-0.2,0.3-0.3c0.4-1.4,1.8-5.9,5.9-5.9c1.3,0,2.8,0.5,4.5,1.6c2-1.6,2.7-2.1,1.4-4.4c-1-1.7-0.8-3.1-0.5-4
		c0.6-1.7,2.4-3.2,5.1-4.3l-0.1-3.1c-2.1-0.7-4.2-1.8-5.1-3.8c-0.8-1.9-0.3-4,0.5-5.9l-2.3-2.3c-2.1,0.9-3.6,1.3-4.9,1.3
		c-3.4,0-4.8-2.9-5.4-5.2l-2.9,0.1c-0.6,2.3-2.1,5.8-5.8,5.8c-1.2,0-2.6-0.4-4.3-1.2c-1.8,1.4-2.3,1.7-1.1,3.6
		c0.9,1.5,1,3.2,0.3,4.7c-0.8,1.8-2.7,3.1-5.2,3.7c0,0.6-0.1,1.1-0.1,1.6c0,0.5,0.1,1.1,0.1,1.6c3.4,0.4,4.8,2.3,5.4,3.4
		c0.9,2,0.6,4.5-0.8,6.8c0.6,0.6,1.3,1.2,1.9,1.8c2.1-1.1,3.7-1.6,5-1.6C428.5,213.1,430,215.8,431,218.9z M431.8,212.8
		C431.8,212.8,431.8,212.8,431.8,212.8c-3.2,0-6.1-1.2-8.3-3.4c-4.7-4.7-4.7-12.4-0.1-17c2.2-2.2,5.3-3.5,8.5-3.5
		c3.3,0,6.4,1.3,8.6,3.5c4.7,4.8,4.6,12.3-0.3,17C438,211.6,435,212.8,431.8,212.8z M431.9,192.4c-2.3,0-4.5,0.9-6,2.4
		c-3.3,3.3-3.2,8.7,0.1,12.1c1.5,1.5,3.6,2.4,5.8,2.4l0,0c2.2,0,4.4-0.9,5.9-2.4c3.4-3.4,3.5-8.7,0.2-12
		C436.5,193.3,434.2,192.4,431.9,192.4z"/>
	<path class="st0" d="M431.8,212.8C431.8,212.8,431.8,212.8,431.8,212.8c-3.2,0-6.1-1.2-8.3-3.4c-4.7-4.7-4.7-12.4-0.1-17
		c2.2-2.2,5.3-3.5,8.5-3.5c3.3,0,6.4,1.3,8.6,3.5c4.7,4.8,4.6,12.3-0.3,17C438,211.6,435,212.8,431.8,212.8z M431.9,192.4
		c-2.3,0-4.5,0.9-6,2.4c-3.3,3.3-3.2,8.7,0.1,12.1c1.5,1.5,3.6,2.4,5.8,2.4l0,0c2.2,0,4.4-0.9,5.9-2.4c3.4-3.4,3.5-8.7,0.2-12
		C436.5,193.3,434.2,192.4,431.9,192.4z"/>
</g>
<g>
	<path class="st0" d="M517.4,156.8h14.8c3,0,5.4-2.5,5.4-5.5v-3.1c4.3-2.1,7.3-6.5,7.3-11.6V125c0-9.1,4-17.4,10.8-22.2
		c13.9-10,22.2-26.1,22.2-43.2c0-29.3-23.9-53.2-53.2-53.2c-29.3,0-53.2,23.9-53.2,53.2c0,17.1,8.3,33.2,22.2,43.2
		c6.8,4.8,10.8,13.1,10.8,22.2v11.6c0,5.1,3,9.5,7.3,11.6v3.1C511.9,154.3,514.4,156.8,517.4,156.8z M533.9,151.3
		c0,1-0.8,1.8-1.8,1.8h-14.8c-1,0-1.8-0.8-1.8-1.8v-2c0.6,0.1,1.2,0.1,1.8,0.1h14.7c0.6,0,1.2-0.1,1.8-0.1V151.3z M541.3,131.1h-33
		v-3.7h33V131.1z M495.9,99.8c-13-9.3-20.7-24.3-20.7-40.2c0-27.3,22.2-49.5,49.6-49.5c27.3,0,49.5,22.2,49.5,49.5
		c0,15.9-7.7,30.9-20.7,40.2c-5.5,3.9-9.4,9.9-11.2,16.6h-15.8V92.6c0-1-0.8-1.8-1.8-1.8c-1,0-1.8,0.8-1.8,1.8v23.8h-15.8
		C505.3,109.7,501.4,103.8,495.9,99.8z M507.9,120.1h33.8c-0.2,1.2-0.3,2.4-0.3,3.7h-33.1C508.1,122.6,508,121.3,507.9,120.1z
		 M508.4,138.5c-0.1-0.6-0.2-1.2-0.2-1.8v-1.8h33v1.8c0,0.6-0.1,1.2-0.2,1.8H508.4z M510.1,142.1h29.3c-1.7,2.2-4.3,3.7-7.3,3.7
		h-14.7C514.4,145.8,511.8,144.4,510.1,142.1z"/>
	<path class="st0" d="M522.9,40.4c0-6.1-4.9-11-11-11c-6.1,0-11,4.9-11,11c0,0.7,0.1,1.3,0.2,2c-6.3,0.8-11.2,6.2-11.2,12.7
		c0,4.5,2.4,8.6,6.2,10.9c-0.4,1.2-0.7,2.4-0.7,3.8c0,5.4,4,10,9.2,10.8c0,0.1,0,0.1,0,0.2c0,5.1,4.1,9.2,9.2,9.2
		c5.1,0,9.2-4.1,9.2-9.2V40.4z M519.2,80.7c0,3-2.5,5.5-5.5,5.5c-3,0-5.5-2.5-5.5-5.5c0-3,2.5-5.5,5.5-5.5c1,0,1.8-0.8,1.8-1.8
		s-0.8-1.8-1.8-1.8c-3.7,0-6.9,2.2-8.4,5.4c-3.6-0.5-6.3-3.5-6.3-7.2c0-4,3.3-7.3,7.3-7.3c1,0,1.8-0.8,1.8-1.8c0-1-0.8-1.8-1.8-1.8
		c-3.4,0-6.5,1.6-8.5,4.1c-2.6-1.6-4.3-4.6-4.3-7.7c0-4.9,3.8-8.9,8.8-9.2c1.9,3.3,5.5,5.5,9.5,5.5c1,0,1.8-0.8,1.8-1.8
		c0-1-0.8-1.8-1.8-1.8c-4,0-7.3-3.3-7.3-7.3s3.3-7.3,7.3-7.3c4,0,7.3,3.3,7.3,7.3V80.7z"/>
	<path class="st0" d="M535.8,89.9c5.1,0,9.2-4.1,9.2-9.2c0-0.1,0-0.1,0-0.2c5.2-0.9,9.2-5.4,9.2-10.8c0-1.3-0.2-2.6-0.7-3.7
		c3.8-2.3,6.2-6.5,6.2-10.9c0-6.5-4.9-11.9-11.2-12.7c0.1-0.6,0.2-1.3,0.2-2c0-6.1-4.9-11-11-11c-6.1,0-11,4.9-11,11v40.3
		C526.6,85.8,530.7,89.9,535.8,89.9z M530.2,40.4c0-4,3.3-7.3,7.3-7.3c4,0,7.3,3.3,7.3,7.3s-3.3,7.3-7.3,7.3c-1,0-1.8,0.8-1.8,1.8
		c0,1,0.8,1.8,1.8,1.8c4.1,0,7.6-2.2,9.5-5.5c4.9,0.2,8.8,4.2,8.8,9.2c0,3.2-1.7,6.1-4.3,7.7c-2-2.5-5.1-4.1-8.5-4.1
		c-1,0-1.8,0.8-1.8,1.8c0,1,0.8,1.8,1.8,1.8c4,0,7.3,3.3,7.3,7.3c0,3.7-2.8,6.7-6.3,7.2c-1.4-3.2-4.6-5.4-8.4-5.4
		c-1,0-1.8,0.8-1.8,1.8s0.8,1.8,1.8,1.8c3,0,5.5,2.5,5.5,5.5c0,3-2.5,5.5-5.5,5.5c-3,0-5.5-2.5-5.5-5.5V40.4z"/>
</g>
<g>
	<path class="st0" d="M250.1,36c0.4,0.1,0.8,0,1-0.2l9.9-9.9c0.2-0.2,0.3-0.6,0.3-0.9c-0.1-0.3-0.3-0.6-0.6-0.7l-8.4-2.8l2.2-2.2
		c0.4-0.4,0.4-1,0-1.4c-0.4-0.4-1-0.4-1.4,0l-2.2,2.2l-2.8-8.4c-0.1-0.3-0.4-0.6-0.7-0.6c-0.3-0.1-0.7,0-0.9,0.3l-9.9,9.9
		c-0.3,0.3-0.4,0.7-0.2,1l3.1,9.3L213,57.8c-0.4,0.4-0.4,1,0,1.4c0.2,0.2,0.4,0.3,0.7,0.3c0.3,0,0.5-0.1,0.7-0.3l26.4-26.4L250.1,36
		z M258.5,25.6l-8.3,8.3l-7.8-2.6l8.3-8.3L258.5,25.6z M238.4,22.1l8.3-8.3l2.6,7.8l-8.3,8.3L238.4,22.1z"/>
	<path class="st0" d="M180.1,58.5c0,18.5,15.1,33.6,33.6,33.6c18.5,0,33.6-15.1,33.6-33.6c0-7.6-2.5-14.7-7.1-20.7
		c-0.3-0.4-1-0.5-1.4-0.2c-0.4,0.3-0.5,1-0.2,1.4c4.4,5.6,6.7,12.3,6.7,19.5c0,17.4-14.2,31.6-31.6,31.6
		c-17.4,0-31.6-14.2-31.6-31.6c0-17.4,14.2-31.6,31.6-31.6c7.1,0,13.9,2.3,19.5,6.7c0.4,0.3,1,0.3,1.4-0.2c0.3-0.4,0.3-1.1-0.2-1.4
		c-5.9-4.7-13.1-7.1-20.7-7.1C195.2,25,180.1,40,180.1,58.5z"/>
	<path class="st0" d="M221.3,46.8c0.3-0.5,0.1-1.1-0.4-1.3c-2.2-1.2-4.6-1.8-7.1-1.8c-8.3,0-15,6.7-15,14.9c0,8.2,6.7,15,15,15
		c8.2,0,14.9-6.7,14.9-15c0-2.5-0.6-4.9-1.8-7.1c-0.3-0.5-0.9-0.7-1.3-0.4c-0.5,0.3-0.7,0.9-0.4,1.3c1.1,1.9,1.6,4,1.6,6.2
		c0,7.2-5.8,13-12.9,13c-7.2,0-13-5.8-13-13c0-7.1,5.8-12.9,13-12.9c2.2,0,4.2,0.5,6.2,1.6C220.4,47.4,221,47.2,221.3,46.8z"/>
	<path class="st0" d="M213.8,53.5c0.5,0.2,1.1-0.1,1.3-0.6c0.2-0.5-0.1-1.1-0.6-1.2c-0.3-0.1-0.5-0.1-0.7-0.1c-3.9,0-7,3.1-7,7
		c0,3.9,3.2,7,7,7c3.9,0,7-3.2,7-7c0-0.2,0-0.4-0.1-0.7c-0.2-0.5-0.7-0.8-1.3-0.6c-0.5,0.2-0.8,0.8-0.6,1.3c0,2.8-2.3,5.1-5,5.1
		c-2.8,0-5.1-2.2-5.1-5.1C208.7,55.8,211,53.5,213.8,53.5z"/>
	<path class="st0" d="M228,40.1c0.3-0.4,0.2-1.1-0.2-1.4c-4.1-2.9-9-4.5-14-4.5c-13.4,0-24.3,10.9-24.3,24.3
		c0,13.4,10.9,24.3,24.3,24.3c13.4,0,24.3-10.9,24.3-24.3c0-5-1.5-9.9-4.5-14c-0.3-0.4-0.9-0.6-1.4-0.2c-0.4,0.3-0.6,0.9-0.2,1.4
		c2.7,3.8,4.1,8.2,4.1,12.8c0,12.3-10,22.3-22.3,22.3c-12.3,0-22.3-10-22.3-22.3c0-12.3,10-22.3,22.3-22.3c4.6,0,9.1,1.4,12.8,4.1
		C227,40.6,227.7,40.5,228,40.1z"/>
</g>
<path class="st0" d="M573,318.5h-4.7v-40c0-3.2-2.6-5.8-5.8-5.8h-14.8c-3.2,0-5.8,2.6-5.8,5.8v4.1c-0.2,0.1-0.5,0.2-0.7,0.4
	c-7.7,6.9-30.6,23-75.7,23h-10.4c-14.2,0-25.8,11.6-25.8,25.8c0,14.2,11.6,25.8,25.8,25.8l4.5-0.1l11,45.6c1.2,5.1,5.8,8.7,11.1,8.7
	c3.5,0,6.8-1.6,8.9-4.3c2.2-2.8,2.9-6.3,2.1-9.7l-5.5-23c-0.7-3,0.3-6.9,2.7-10c2-2.5,4.6-4.1,7.1-4.3c25.3,5.2,40.1,15.5,44.9,19.3
	v1.1c0,3.2,2.6,5.8,5.8,5.8h14.8c3.2,0,5.8-2.6,5.8-5.8V345h4.7c6.6,0,12-5.4,12-12v-2.5C585,323.9,579.6,318.5,573,318.5z
	 M462.5,351.7l-7.6,0.1c-11.1,0-20.1-9-20.1-20.1c0-11.1,9-20.1,20.1-20.1h7.6V351.7z M485.3,361.3c-3.5,4.4-4.9,10.1-3.8,14.8
	l5.5,23c0.4,1.7,0,3.5-1.1,4.9c-1.1,1.4-2.7,2.2-4.5,2.2c-2.7,0-4.9-1.8-5.6-4.4l-10.7-44.4l0.1,0c8.1,0,15.5,0.6,22.3,1.5
	C486.8,359.6,486,360.4,485.3,361.3z M541.8,372.7c-7.1-4.9-21.3-13-42.7-17.6c-0.4-0.2-0.9-0.4-1.4-0.4c-0.2,0-0.3,0-0.5,0
	c-8.6-1.7-18.3-2.9-29.1-3v-40.1c40.5-0.6,63.5-13.9,73.6-21.9V372.7z M562.7,380.9c0,0.1-0.1,0.2-0.2,0.2h-14.8
	c-0.1,0-0.2-0.1-0.2-0.2V278.5c0-0.1,0.1-0.2,0.2-0.2h14.8c0.1,0,0.2,0.1,0.2,0.2V380.9z M579.3,333c0,3.5-2.9,6.4-6.4,6.4h-4.7
	v-15.2h4.7c3.5,0,6.4,2.9,6.4,6.4V333z"/>
<path class="st0" d="M255.7,147.8c-0.4-1.1-1.7-1.6-2.8-1.2l-11.1,4.5l-17.9-44.6l14.9-5.7c1.1-0.4,1.7-1.7,1.2-2.8
	c-0.4-1.1-1.7-1.7-2.8-1.2l-16.9,6.5c-0.3,0.1-0.6,0.4-0.9,0.6c-4.8-0.3-9.6,0.5-14.1,2.2l-17.4,7l-0.5-0.4
	c-4.1-2.8-8.9-4.6-13.9-5.2c-0.1-0.1-0.2-0.3-0.4-0.4l-14.5-10.1c-1-0.7-2.3-0.4-3,0.5c-0.7,1-0.4,2.3,0.5,3l12.8,8.9l-26.8,39.7
	l-13.2-10.4c-0.9-0.7-2.3-0.6-3,0.4c-0.7,0.9-0.6,2.3,0.4,3l15,11.8c0.4,0.3,0.9,0.5,1.3,0.5c0.1,0,0.2,0,0.2,0
	c1.3,2.1,2.8,4.1,4.6,5.8c-0.2,1-0.3,1.9-0.1,2.9c0.3,2.1,1.5,3.9,3.2,5.2c1.4,1,3,1.5,4.7,1.5c0.4,0,0.8,0,1.2-0.1
	c0.1,0,0.2-0.1,0.3-0.1c0,0.1,0,0.2,0,0.3c0.3,2.1,1.5,3.9,3.2,5.2c1.4,1,3,1.5,4.7,1.5c0.5,0,1-0.1,1.5-0.2c0,0.1,0,0.2,0,0.3
	c0.3,2.1,1.5,3.9,3.2,5.2c1.4,1,3,1.5,4.7,1.5c0.5,0,1-0.1,1.5-0.2c0,0.1,0,0.2,0,0.3c0.3,2.1,1.5,3.9,3.2,5.2c1.4,1,3,1.5,4.7,1.5
	c2.5,0,4.9-1.1,6.4-3.3l1.2-1.6l3.2,2.1c1.3,0.9,2.8,1.3,4.4,1.3c0.5,0,1,0,1.5-0.1c2.1-0.4,3.8-1.6,5-3.3l0.1-0.2
	c0.7-1.1,1.1-2.2,1.2-3.4l1.4,0.9c1.3,0.9,2.8,1.3,4.4,1.3c0.5,0,1,0,1.5-0.1c2.1-0.4,3.8-1.6,5-3.3l0.1-0.2c1-1.4,1.4-3.1,1.3-4.7
	c0.2,0,0.4,0,0.6,0c0.5,0,1,0,1.5-0.1c2.1-0.4,3.8-1.6,5-3.3l0.1-0.2c1.2-1.7,1.6-3.8,1.2-5.9c-0.1-0.7-0.4-1.3-0.7-1.9
	c0.7-0.2,1.3-0.6,1.9-1c4.1-1.7,7.7-4.3,10.7-7.5c0,0,0.1,0,0.1,0c0.3,0,0.5-0.1,0.8-0.2l13.1-5.3
	C255.6,150.2,256.1,148.9,255.7,147.8z M158.2,164.2c-0.6,0.8-1.4,1.3-2.4,1.5c-1,0.1-1.9-0.1-2.7-0.7c-1.6-1.2-2-3.5-0.8-5.1
	l7.9-10.8c0.7-1,1.8-1.5,2.9-1.5c0.7,0,1.5,0.2,2.1,0.7c0.8,0.6,1.3,1.4,1.5,2.4c0.1,1-0.1,1.9-0.6,2.7L158.2,164.2z M167.5,171
	c-1.2,1.6-3.5,2-5.1,0.8c-0.8-0.6-1.3-1.4-1.5-2.4c-0.1-1,0.1-1.9,0.7-2.7l7.9-10.8c0,0,0,0,0,0l3.2-4.4c0.6-0.8,1.4-1.3,2.4-1.5
	c0.2,0,0.4,0,0.6,0c0.8,0,1.5,0.2,2.1,0.7c0.8,0.6,1.3,1.4,1.5,2.4c0.1,1-0.1,1.9-0.7,2.7l-3.2,4.4c0,0,0,0,0,0L167.5,171z
	 M176.9,177.8c-0.6,0.8-1.4,1.3-2.4,1.5c-0.9,0.1-1.9-0.1-2.7-0.7c-0.8-0.6-1.3-1.4-1.5-2.4c-0.1-1,0.1-1.9,0.7-2.7l7.9-10.9
	c0.6-0.8,1.4-1.3,2.4-1.4c0.2,0,0.4,0,0.6,0c0.8,0,1.5,0.2,2.1,0.7c1.6,1.2,2,3.5,0.8,5.1l-3.2,4.3c0,0,0,0,0,0L176.9,177.8z
	 M191,178.2l-4.7,6.5c-1.2,1.6-3.5,2-5.1,0.8c-0.8-0.6-1.3-1.4-1.5-2.4c-0.1-1,0.1-1.9,0.7-2.7l4.7-6.5c0.6-0.8,1.4-1.3,2.4-1.5
	c0.2,0,0.4,0,0.6,0c0.8,0,1.5,0.2,2.1,0.7c0.8,0.6,1.3,1.4,1.5,2.4C191.8,176.4,191.6,177.4,191,178.2z M201.6,183l-0.1,0.2
	c-1.1,1.6-3.3,2-4.9,0.9l-3.1-2.1l1-1.4c1.2-1.7,1.7-3.7,1.4-5.7l4.8,3.2c0.7,0.5,1.2,1.3,1.3,2.1
	C202.3,181.3,202.1,182.2,201.6,183z M228.2,159l-0.1,0.2c-0.1,0.2-0.3,0.4-0.5,0.6c0,0,0,0,0,0c-0.3,0.1-0.6,0.3-0.8,0.6
	c-0.4,0.2-0.9,0.4-1.3,0.4c-0.3,0-0.6,0.2-0.9,0.3l-25-16.9c-1-0.7-2.3-0.4-3,0.6c-0.7,1-0.4,2.3,0.6,3l25.7,17.3
	c0.8,0.5,1.3,1.3,1.5,2.2c0.2,0.9,0,1.9-0.5,2.6l-0.1,0.2c-1.1,1.6-3.3,2-4.9,0.9l-25.8-17.4c-1-0.7-2.3-0.4-3,0.6c0,0,0,0,0,0
	c0,0,0,0,0,0c-0.7,1-0.4,2.3,0.6,3l23.8,16.1c0.8,0.5,1.3,1.3,1.5,2.2c0.2,0.9,0,1.9-0.5,2.6l-0.1,0.2c-1.1,1.6-3.3,2-4.9,0.9
	l-7.1-4.7c0,0-0.1-0.1-0.1-0.1l-13.3-8.9c0.1-0.7,0.1-1.3,0-2c-0.3-2.1-1.5-3.9-3.2-5.2c-1.1-0.8-2.3-1.3-3.7-1.4
	c1.6-3.4,0.6-7.5-2.5-9.8c-1.7-1.2-3.8-1.8-5.9-1.4c-1.6,0.3-3,1-4.2,2.1c-0.6-1.2-1.4-2.2-2.5-3c-1.7-1.2-3.8-1.8-5.9-1.4
	c-2.1,0.3-3.9,1.5-5.2,3.2l-7.1,9.8c-1.4-1.5-2.6-3.2-3.6-5.1l26.6-39.5c3.6,0.4,7.1,1.6,10.3,3.3l-10.6,4.3
	c-1.1,0.4-1.6,1.7-1.2,2.8c1.4,3.4,4,6.1,7.4,7.5c3.4,1.4,7.1,1.5,10.5,0.1l7.6-3l4.4,7c3.1,4.9,8.2,7.8,13.6,8.3l12.5,11.7
	c0.1,0.1,0.2,0.2,0.3,0.2C228.9,155.2,229.3,157.4,228.2,159z M233.1,156.7c-0.1-2.4-1.2-4.7-3.3-6.1l-9.5-8.9
	c1.8-0.4,3.5-1.1,5.2-2.2c1-0.6,1.3-2,0.7-3c-0.6-1-2-1.3-3-0.7c-6.3,3.9-14.7,2-18.6-4.3l-5.3-8.6c-0.5-0.9-1.7-1.2-2.6-0.9
	l-9.3,3.6c-4.1,1.7-8.8,0.2-11.2-3.3l30.8-12.3c4.1-1.6,8.6-2.3,13-1.9l17.8,44.3C236.3,154.2,234.8,155.5,233.1,156.7z"/>
<g>
	<path class="st0" d="M234.9,224.3l-0.6-0.4c-0.8-0.6-1.2-1.5-1.2-2.4v-0.1c0-1,0.4-1.9,1.2-2.4l0.6-0.4c0.6-0.4,0.8-1.2,0.5-1.9
		l-1.8-4.3c-0.3-0.7-1-1.1-1.7-1l-0.7,0.1c-0.9,0.1-1.9-0.2-2.6-0.9c-0.7-0.7-1-1.6-0.9-2.6l0.1-0.7c0.1-0.7-0.3-1.4-1-1.7l-4.3-1.8
		c-0.7-0.3-1.5-0.1-1.9,0.5l-0.4,0.6c-0.6,0.8-1.5,1.2-2.5,1.2c0,0,0,0,0,0h0c-1,0-1.9-0.4-2.4-1.2l-0.4-0.6
		c-0.4-0.6-1.2-0.8-1.9-0.5l-4.3,1.8c-0.7,0.3-1.1,1-1,1.7l0.1,0.7c0.1,0.9-0.2,1.9-0.9,2.6c-0.7,0.7-1.6,1-2.6,0.9l-0.7-0.1
		c-0.7-0.1-1.4,0.3-1.7,1l-1.8,4.3c-0.3,0.7-0.1,1.5,0.5,1.9l0.6,0.4c0.8,0.6,1.2,1.5,1.2,2.5c0,1-0.4,1.9-1.2,2.4l-0.6,0.4
		c-0.6,0.4-0.8,1.2-0.5,1.9l1.8,4.3c0.3,0.7,1,1.1,1.7,1l0.7-0.1c0.9-0.1,1.9,0.2,2.5,0.8c0,0,0.1,0.1,0.1,0.1
		c0.7,0.7,1,1.6,0.9,2.6l-0.1,0.7c-0.1,0.7,0.3,1.4,1,1.7l4.3,1.8c0.2,0.1,0.4,0.1,0.6,0.1c0.5,0,1-0.2,1.3-0.7l0.4-0.6
		c0.6-0.8,1.5-1.2,2.5-1.2c0,0,0,0,0,0h0c1,0,1.9,0.4,2.4,1.2l0.4,0.6c0.4,0.6,1.2,0.8,1.9,0.5l4.3-1.8c0.7-0.3,1.1-1,1-1.7
		l-0.1-0.7c-0.1-0.9,0.2-1.9,0.9-2.6c0.7-0.7,1.6-1,2.6-0.9l0.7,0.1c0.7,0.1,1.4-0.3,1.7-1l1.8-4.3
		C235.7,225.6,235.5,224.8,234.9,224.3z M231.2,228.2c-1.7-0.1-3.5,0.6-4.8,1.9c-1.3,1.3-1.9,3-1.8,4.8l-2,0.8
		c-1.2-1.3-2.9-2.1-4.7-2.1c0,0,0,0,0,0c-1.8,0-3.5,0.8-4.6,2.1l-2-0.8c0.1-1.7-0.6-3.5-1.9-4.8c-1.3-1.3-3-1.9-4.8-1.8l-0.8-2
		c1.3-1.2,2.1-2.9,2.1-4.7c0-1.8-0.8-3.5-2.1-4.7l0.8-2c1.8,0.1,3.5-0.6,4.7-1.8c0,0,0.1-0.1,0.1-0.1c1.3-1.3,1.9-3,1.8-4.8l2-0.8
		c1.2,1.3,2.9,2.1,4.7,2.1h0c1.8,0,3.5-0.8,4.6-2.1l2,0.8c-0.1,1.7,0.6,3.5,1.9,4.8c1.3,1.3,3,1.9,4.8,1.8l0.8,2
		c-1.3,1.2-2.1,2.9-2.1,4.7v0c0,1.8,0.8,3.5,2.1,4.7L231.2,228.2z"/>
	<path class="st0" d="M217.8,213.1c-4.6,0-8.4,3.7-8.4,8.4s3.7,8.4,8.4,8.4c4.6,0,8.4-3.7,8.4-8.4S222.5,213.1,217.8,213.1z
		 M217.8,226.6c-2.8,0-5.1-2.3-5.1-5.1s2.3-5.1,5.1-5.1c2.8,0,5.1,2.3,5.1,5.1S220.7,226.6,217.8,226.6z"/>
</g>
<g>
	<path class="st0" d="M87.2,467.2c0.3,0.1,0.6,0.2,0.9,0.2h9.7c1.2,0,2.1-1,2.1-2.1v-9.7c0-1.2-1-2.1-2.1-2.1h-9.7
		c-1.2,0-2.1,1-2.1,2.1v6.8l-16.5,16.2l-3-2.2l-2.5,3.4l2.5,1.8l-3.4,3.4c-5.3-4.6-12.1-7.4-19.6-7.4c-16.5,0-30,13.4-30,30
		c0,14.6,10.4,26.7,24.2,29.4v6h-0.3c-1.2,0-2.1,1-2.1,2.1v40.4c0,1.2,1,2.1,2.1,2.1h14.5c1.2,0,2.1-1,2.1-2.1v-40.4
		c0-1.2-1-2.1-2.1-2.1h-0.3v-6.6c12.6-3.6,21.8-15.1,21.8-28.8c0-7.5-2.8-14.3-7.3-19.6L87.2,467.2z M90.2,457.7h5.4v5.4h-5.4V457.7
		z M49.6,583.5H39.3v-28.9h10.3V583.5z M49.6,550.3H39.3v-3h10.3V550.3z M41.8,543.1v-5.5c0.5,0,1,0.1,1.5,0.1
		c1.3,0,2.6-0.1,3.9-0.3v5.7H41.8z M69,507.6c0,14.2-11.5,25.7-25.7,25.7c-14.2,0-25.7-11.5-25.7-25.7c0-14.2,11.5-25.7,25.7-25.7
		C57.5,481.9,69,493.5,69,507.6z"/>
	<path class="st0" d="M100.2,494.6h-9l-2.9-2.1l-2.5,3.4l2.5,1.9v8.6c0,1.2,1,2.1,2.1,2.1h9.7c1.2,0,2.1-1,2.1-2.1v-9.7
		C102.3,495.6,101.4,494.6,100.2,494.6z M98.1,504.3h-5.4v-5.4h5.4V504.3z"/>
	
		<rect x="76.7" y="484.8" transform="matrix(0.5913 -0.8064 0.8064 0.5913 -361.4782 263.1017)" class="st0" width="4.3" height="6.8"/>
	<path class="st0" d="M41.5,476.3c0.4,0.3,0.9,0.5,1.3,0.5c0.6,0,1.3-0.3,1.7-0.8l2.9-3.7h6.1l4.9,3.6l2.5-3.4l-4.6-3.4v-8.6
		c0-1.2-1-2.1-2.1-2.1h-9.7c-1.2,0-2.1,1-2.1,2.1v9.7c0,0.4,0.2,0.8,0.4,1.1l-1.6,2C40.4,474.2,40.6,475.5,41.5,476.3z M46.6,462.5
		H52v5.4h-5.4V462.5z"/>
	<path class="st0" d="M57.2,492.9C57.2,492.9,57.2,492.9,57.2,492.9c0-0.1-0.1-0.1-0.1-0.1c-3.6-3.4-8.5-5.5-13.8-5.5
		c-11.2,0-20.3,9.1-20.3,20.3c0,11.2,9.1,20.3,20.3,20.3c11.2,0,20.3-9.1,20.3-20.3C63.6,501.9,61.1,496.6,57.2,492.9z M43.3,491.6
		c3.3,0,6.4,1,9,2.8l-8.6,7.5h-8.5l-5.8-2.3C32.2,494.8,37.4,491.6,43.3,491.6z M42.4,506.1v5.4h-5.4v-5.4H42.4z M43.3,523.7
		c-8.8,0-16-7.2-16-16c0-1.4,0.2-2.8,0.6-4.1l4.9,1.9v8.2c0,1.2,1,2.1,2.1,2.1h9.7c1.2,0,2.1-1,2.1-2.1V505l8.9-7.7
		c2.4,2.8,3.8,6.4,3.8,10.4C59.3,516.5,52.1,523.7,43.3,523.7z"/>
</g>
<path class="st0" d="M369.7,470.2c0.8,0.9,0.7,2.3-0.2,3.1c-0.4,0.4-0.9,0.5-1.4,0.5c-0.6,0-1.2-0.3-1.6-0.7
	c-4.4-5.1-10.2-9-16.7-11.3c-3.7-1.3-7.5-2-11.4-2.2v15.6c0,1.2-1,2.2-2.2,2.2c-1.2,0-2.2-1-2.2-2.2v-68.6c0-1.2,1-2.2,2.2-2.2
	c1.2,0,2.2,1,2.2,2.2v48.6c4.4,0.2,8.7,1,12.8,2.5C358.4,460.3,364.8,464.6,369.7,470.2z M300.2,352.3c1.2,0,2.2-1,2.2-2.2v-4.3
	c0-1.2-1-2.2-2.2-2.2c-1.2,0-2.2,1-2.2,2.2v4.3C298.1,351.4,299,352.3,300.2,352.3z M276.1,319.1v-17.9c0-1.2-1-2.2-2.2-2.2
	c-1.2,0-2.2,1-2.2,2.2v17.9c0,1.2,1,2.2,2.2,2.2C275.1,321.2,276.1,320.3,276.1,319.1z M366.3,319.1v-4.3c0-1.2-1-2.2-2.2-2.2
	c-1.2,0-2.2,1-2.2,2.2v4.3c0,1.2,1,2.2,2.2,2.2C365.4,321.2,366.3,320.3,366.3,319.1z M368.1,384.7h-23.2c-1.2,0-2.2,1-2.2,2.2
	c0,1.2,1,2.2,2.2,2.2h23.2c1.2,0,2.2-1,2.2-2.2C370.3,385.7,369.3,384.7,368.1,384.7z M327.9,503.6c-2.5,0-4.9,0.4-7.2,1v-35.8
	c0-1.2-1-2.2-2.2-2.2c-1.2,0-2.2,1-2.2,2.2v37.3c-6.3,2.9-11.3,8-14,14.3V361.4c0-1.2-1-2.2-2.2-2.2c-1.2,0-2.2,1-2.2,2.2v93.9
	c-4.5,0.1-9,1-13.4,2.5c-18.6,6.5-30.3,24-29.1,43.2c-2.7,0.2-5.3,0.7-7.7,1.5c-12.5,4.4-20.3,16.6-18.8,29.6
	c0.1,1.1,1.1,1.9,2.2,1.9c0.1,0,0.2,0,0.2,0c1.2-0.1,2-1.2,1.9-2.4c-1.2-11,5.3-21.3,15.9-25.1c2.6-0.9,5.5-1.4,8.6-1.3
	c0.6,0,1.2-0.2,1.6-0.7c0.4-0.5,0.6-1.1,0.5-1.7c-2.1-18,8.6-34.9,26-41c3.9-1.3,7.9-2.1,11.9-2.2v72.3c0,1.2,1,2.2,2.2,2.2
	c0.6,0,1.1-0.2,1.5-0.6c0.2,0.1,0.4,0.1,0.6,0.1c1.2,0,2.2-1,2.2-2.2c0-12.9,10.5-23.4,23.4-23.4c6.3,0,12.2,2.5,16.6,6.9
	c0.8,0.9,2.2,0.9,3.1,0c0.8-0.8,0.9-2.2,0-3.1C342.4,506.5,335.4,503.6,327.9,503.6z M385.6,264.5c0,2.2-1.2,4.2-3.1,5.3
	c-0.9,0.5-1.9,0.8-2.9,0.8c-1.1,0-2.2-0.3-3.2-1l-10-6.4v38c0,1.2-1,2.2-2.2,2.2c-1.2,0-2.2-1-2.2-2.2v-40.7l-7.8-4.9l-0.5,10.1
	c-0.2,4.7-4.1,8.3-8.8,8.3H343v8.8c0,3.4-1.9,6.2-4.7,7.7c0,0.1,0.1,0.2,0.1,0.3v104.6c0,1.2-1,2.2-2.2,2.2c-1.2,0-2.2-1-2.2-2.2
	V291.5h-13.3v160.8c0,1.2-1,2.2-2.2,2.2c-1.2,0-2.2-1-2.2-2.2V291.5h-14v40.7c0,1.2-1,2.2-2.2,2.2c-1.2,0-2.2-1-2.2-2.2v-41.5
	c-3.1-1.4-5.2-4.4-5.2-8v-8.8h-1.9c-4.7,0-8.5-3.7-8.8-8.3l-0.5-10.1l-5.7,3.6c0,0.2,0.1,0.3,0.1,0.5v28c0,1.2-1,2.2-2.2,2.2
	c-1.2,0-2.2-1-2.2-2.2v-25.8l-18.2,11.6c-0.4,0.2-0.8,0.3-1.2,0.3c-0.4,0-0.7-0.1-1-0.3c-0.7-0.4-1.1-1.1-1.1-1.9l0-48.3
	c0-7.7,2.7-15.3,7.7-21.2l19.8-23.9l-3-60.3c-1.2-23.1,5.7-46.1,20.1-66.4l20.9-29.6V7.5c0-1.2,1-2.2,2.2-2.2c1.2,0,2.2,1,2.2,2.2
	v14.2L341,51.3c5.9,8.4,10.6,17.3,14,26.4c0,0.1,0,0.1,0.1,0.2c4.7,12.9,6.8,26.3,6,39.8l-3,60.3l19.8,23.9c5,6,7.7,13.5,7.7,21.2
	L385.6,264.5z M357.8,184.5l-2.5,50.1l26,16.5l0-28c0-6.7-2.4-13.3-6.7-18.5L357.8,184.5z M279,113h11.3c1.5-2.7,3.3-5.2,5.6-7.4
	c5.9-5.8,13.7-9,22-9h0.2c8.4,0.1,16.2,3.4,22.1,9.3c2.1,2.2,3.9,4.6,5.3,7.2h11.6c0.1-10.9-1.8-21.7-5.4-32.2h-67.2
	C280.7,91.3,278.9,102.1,279,113z M298.6,146.8c5.1,5.1,11.8,8,19,8h0.2c14.8,0,26.9-12,26.9-26.8c0-7.2-2.7-14-7.8-19.1
	c-5.1-5.1-11.8-8-19-8h-0.2c-7.1,0-13.8,2.8-18.9,7.8c-5.1,5.1-8,11.8-8,19C290.8,134.9,293.5,141.6,298.6,146.8z M349.1,128
	c0,3.6-0.7,7.1-1.8,10.3h8.5l1-20.8c0-0.1,0-0.1,0-0.2h-9.6C348.4,120.7,349.1,124.3,349.1,128z M279.1,117.3c0,0.1,0,0.1,0,0.2
	l1,20.8h8.2c-1.2-3.4-1.9-7-1.8-10.7c0-3.6,0.7-7,1.8-10.3H279.1z M286.1,251.3h63.7c0-0.3,0.1-0.7,0.3-1c0,0,0,0,0,0l5.4-107.6
	h-10.2c-5.3,9.8-15.7,16.5-27.5,16.5h-0.2c-8.4-0.1-16.2-3.4-22.1-9.3c-2.1-2.2-3.9-4.6-5.3-7.2h-9.9l5.4,107.6c0,0,0,0,0,0
	C285.9,250.6,286,251,286.1,251.3z M286,76.5h63.9c-3.1-7.8-7.3-15.4-12.4-22.7l-19.6-27.7l-19.6,27.7
	C293.2,61.1,289.1,68.7,286,76.5z M254.6,223.2l0,28l26-16.5l-2.5-50.1l-16.8,20.2C257,209.9,254.6,216.5,254.6,223.2z M281.4,250.5
	l-0.5-10.9l-26.3,16.7l0,11.3L281.4,250.5z M338.7,273.9h-41.5v8.8c0,2.5,2,4.5,4.5,4.5h32.6c2.5,0,4.5-2,4.5-4.5V273.9z
	 M349.4,265.3l0.5-9.7H286l0.5,9.7c0.1,2.4,2.1,4.2,4.4,4.2h54C347.3,269.6,349.3,267.7,349.4,265.3z M381.3,264.5l0-8.2L355,239.6
	l-0.5,10.9l24.2,15.4c0.8,0.5,1.5,0.2,1.7,0.1C380.7,265.8,381.3,265.4,381.3,264.5z M296.4,127.7c0-5.7,2.3-11.1,6.4-15.1
	c4-4,9.4-6.2,15-6.2h0.1c5.7,0,11.1,2.3,15.1,6.4c4,4.1,6.2,9.5,6.2,15.2c-0.1,11.8-9.7,21.3-21.4,21.3h-0.1
	C305.8,149.2,296.3,139.5,296.4,127.7z M300.7,127.7c-0.1,9.4,7.5,17.1,17,17.2c9.4,0,17.1-7.5,17.2-17c0-4.6-1.7-8.9-4.9-12.1
	c-3.2-3.2-7.5-5-12-5.1h-0.1c-4.5,0-8.8,1.7-12,4.9C302.5,118.9,300.7,123.2,300.7,127.7z"/>
<g>
	<g>
		<path class="st0" d="M212.9,593.8c-0.7,0-1.4-0.3-1.8-0.9c-0.7-1-0.5-2.3,0.5-3l13.8-9.7c1.6-1.2,2.7-3.9,2.7-6.9l0-11.9
			c0-1.2,1-2.2,2.2-2.2c0,0,0,0,0,0c1.2,0,2.2,1,2.2,2.2l0,11.9c0,4.4-1.7,8.4-4.5,10.4l-13.8,9.7
			C213.8,593.7,213.3,593.8,212.9,593.8z"/>
	</g>
	<g>
		<path class="st0" d="M278.3,593.8c-0.4,0-0.9-0.1-1.2-0.4l-13.8-9.7c-2.8-2-4.5-6-4.5-10.4l0-11.9c0-1.2,1-2.2,2.2-2.2
			c0,0,0,0,0,0c1.2,0,2.2,1,2.2,2.2l0,11.9c0,2.9,1.1,5.7,2.7,6.8l13.8,9.7c1,0.7,1.2,2,0.5,3C279.7,593.5,279,593.8,278.3,593.8z"
			/>
	</g>
	<g>
		<path class="st0" d="M352.3,563.5H138.9c-9.9,0-17.9-8-17.9-17.9V381.3c0-9.9,8-17.9,17.9-17.9h151.8c1.2,0,2.2,1,2.2,2.2
			c0,1.2-1,2.2-2.2,2.2H138.9c-7.5,0-13.6,6.1-13.6,13.6v164.3c0,7.5,6.1,13.6,13.6,13.6h213.4c7.5,0,13.6-6.1,13.6-13.6V381.3
			c0-7.5-6.1-13.6-13.6-13.6h-7.4c-1.2,0-2.2-1-2.2-2.2c0-1.2,1-2.2,2.2-2.2h7.4c9.9,0,17.9,8,17.9,17.9v164.3
			C370.3,555.5,362.2,563.5,352.3,563.5z"/>
	</g>
	<g>
		<path class="st0" d="M368.1,535.7H123.2c-1.2,0-2.2-1-2.2-2.2c0-1.2,1-2.2,2.2-2.2h244.9c1.2,0,2.2,1,2.2,2.2
			C370.3,534.7,369.3,535.7,368.1,535.7z"/>
	</g>
	<g>
		<g>
			<g>
				<rect x="152.7" y="487.2" class="st0" width="23.1" height="4.3"/>
			</g>
			<g>
				<rect x="152.7" y="500.1" class="st0" width="23.1" height="4.3"/>
			</g>
			<g>
				<rect x="152.7" y="512.9" class="st0" width="23.1" height="4.3"/>
			</g>
		</g>
	</g>
	<g>
		<g>
			<g>
				<rect x="140.8" y="487.2" class="st0" width="6.6" height="4.3"/>
			</g>
			<g>
				<rect x="140.8" y="500.1" class="st0" width="6.6" height="4.3"/>
			</g>
			<g>
				<rect x="140.8" y="512.9" class="st0" width="6.6" height="4.3"/>
			</g>
			<g>
				<g>
					<g>
						<rect x="199.3" y="487.2" class="st0" width="23.1" height="4.3"/>
					</g>
					<g>
						<rect x="199.3" y="500.1" class="st0" width="23.1" height="4.3"/>
					</g>
					<g>
						<rect x="199.3" y="512.9" class="st0" width="23.1" height="4.3"/>
					</g>
				</g>
			</g>
			<g>
				<rect x="187.4" y="487.2" class="st0" width="6.6" height="4.3"/>
			</g>
			<g>
				<rect x="187.4" y="500.1" class="st0" width="6.6" height="4.3"/>
			</g>
			<g>
				<rect x="187.4" y="512.9" class="st0" width="6.6" height="4.3"/>
			</g>
			<g>
				<g>
					<path class="st0" d="M185.4,455.2c-0.3,0-0.6-0.1-0.9-0.2c-1.1-0.5-1.6-1.8-1.1-2.9l14.1-30.9c0.5-1.1,1.8-1.6,2.9-1.1
						c1.1,0.5,1.6,1.8,1.1,2.9L187.4,454C187,454.8,186.2,455.2,185.4,455.2z"/>
				</g>
				<g>
					<path class="st0" d="M220.8,469.4h-75.4c-2.3,0-4.4-1.6-5.1-3.8c-2.3-7.7-2.4-18.1-0.4-25.9c4.7-18.2,20.9-31.9,39.6-33.4
						c12.6-1,24.6,3.2,33.8,11.7c9.1,8.4,14.3,20.3,14.3,32.7c0,4.3-0.6,10.9-1.8,14.9C225.2,467.8,223.1,469.4,220.8,469.4z
						 M183.1,410.5c-1.1,0-2.2,0-3.3,0.1c-16.8,1.3-31.5,13.7-35.7,30.1c-1.8,7.2-1.7,16.6,0.4,23.6c0.1,0.4,0.5,0.7,0.9,0.7h75.4
						c0.4,0,0.8-0.3,0.9-0.6c1.1-3.6,1.6-9.8,1.6-13.7c0-11.2-4.7-22-12.9-29.5C202.8,414.2,193.3,410.5,183.1,410.5z"/>
				</g>
				<g>
					<path class="st0" d="M183.1,469.4c-5.1,0-9.2-4.1-9.2-9.2s4.1-9.2,9.2-9.2s9.2,4.1,9.2,9.2S188.1,469.4,183.1,469.4z
						 M183.1,455.2c-2.7,0-4.9,2.2-4.9,4.9c0,2.7,2.2,4.9,4.9,4.9c2.7,0,4.9-2.2,4.9-4.9C188,457.4,185.8,455.2,183.1,455.2z"/>
				</g>
				<g>
					<g>
						<g>
							<path class="st0" d="M218.4,452.9h-4.7c-1.2,0-2.2-1-2.2-2.2c0-1.2,1-2.2,2.2-2.2h4.7c1.2,0,2.2,1,2.2,2.2
								C220.6,451.9,219.6,452.9,218.4,452.9z"/>
						</g>
						<g>
							<path class="st0" d="M154.8,452.9h-4.7c-1.2,0-2.2-1-2.2-2.2c0-1.2,1-2.2,2.2-2.2h4.7c1.2,0,2.2,1,2.2,2.2
								C157,451.9,156,452.9,154.8,452.9z"/>
						</g>
					</g>
					<g>
						<g>
							<path class="st0" d="M157.6,438.2c-0.4,0-0.7-0.1-1.1-0.3l-4.1-2.4c-1-0.6-1.4-1.9-0.8-3c0.6-1,1.9-1.4,3-0.8l4.1,2.4
								c1,0.6,1.4,1.9,0.8,3C159,437.8,158.3,438.2,157.6,438.2z"/>
						</g>
					</g>
					<g>
						<g>
							<path class="st0" d="M168.3,427.4c-0.7,0-1.5-0.4-1.9-1.1l-2.4-4.1c-0.6-1-0.2-2.4,0.8-3c1-0.6,2.4-0.2,3,0.8l2.4,4.1
								c0.6,1,0.2,2.4-0.8,3C169.1,427.3,168.7,427.4,168.3,427.4z"/>
						</g>
					</g>
					<g>
						<g>
							<path class="st0" d="M183.1,424.6c-1.2,0-2.2-1-2.2-2.2v-4.7c0-1.2,1-2.2,2.2-2.2c1.2,0,2.2,1,2.2,2.2v4.7
								C185.2,423.6,184.3,424.6,183.1,424.6z"/>
						</g>
					</g>
					<g>
						<g>
							<path class="st0" d="M208.6,438.2c-0.7,0-1.5-0.4-1.9-1.1c-0.6-1-0.2-2.4,0.8-3l4.1-2.4c1-0.6,2.4-0.2,3,0.8
								c0.6,1,0.2,2.4-0.8,3l-4.1,2.4C209.3,438.1,208.9,438.2,208.6,438.2z"/>
						</g>
					</g>
				</g>
			</g>
		</g>
	</g>
	<g>
		<path class="st0" d="M290.1,389.1H123.2c-1.2,0-2.2-1-2.2-2.2c0-1.2,1-2.2,2.2-2.2h166.9c1.2,0,2.2,1,2.2,2.2
			C292.3,388.1,291.3,389.1,290.1,389.1z"/>
	</g>
	<g>
		<path class="st0" d="M444.7,593.8H194.5c-1.2,0-2.2-1-2.2-2.2c0-1.2,1-2.2,2.2-2.2h250.2c1.2,0,2.2,1,2.2,2.2
			C446.8,592.8,445.9,593.8,444.7,593.8z"/>
	</g>
</g>
<path class="st0" d="M136.6,81.4v5.8h-9v-5.8H136.6z M110.8,87.2h9v-5.8h-9V87.2z M120.8,97.2h5.8v-9h-5.8V97.2z M120.8,80.4h5.8v-9
	h-5.8V80.4z"/>
<path class="st0" d="M157.9,24.6l0,23.2c0,1.6-1.3,2.9-2.9,2.9c-1.6,0-2.9-1.3-2.9-2.9l0-16.4l-19,18.5c-0.5,0.5-1.3,0.8-2,0.8
	h-16.5L97.5,69.8c-1,1.1-2.7,1.3-3.9,0.4L78.3,58.7L50.8,79.1c-0.5,0.4-1.1,0.6-1.7,0.6c-0.9,0-1.8-0.4-2.3-1.2
	c-1-1.3-0.7-3.1,0.6-4.1l29.2-21.7c1-0.8,2.4-0.8,3.5,0L95,64l16.2-18.1c0.6-0.6,1.3-1,2.2-1h16.6l18-17.4h-16.1
	c-1.6,0-2.9-1.3-2.9-2.9c0-1.6,1.3-2.9,2.9-2.9H155c0,0,0,0,0,0c0.3,0,0.5,0.1,0.7,0.1c0.1,0,0.2,0,0.3,0.1c0.1,0,0.2,0.2,0.3,0.2
	c0.2,0.1,0.4,0.2,0.6,0.4c0,0,0,0,0,0c0,0,0,0,0,0c0.1,0.1,0.2,0.3,0.2,0.4c0.1,0.2,0.3,0.4,0.4,0.6c0.1,0.2,0.1,0.4,0.1,0.7
	C157.8,24.3,157.9,24.5,157.9,24.6z M81.1,47.4c1.6,0,2.9-1.3,2.9-2.9V34.1c0-1.6-1.3-2.9-2.9-2.9H32c-1.6,0-2.9,1.3-2.9,2.9v64.2
	c0,1.6,1.3,2.9,2.9,2.9h49.2c1.6,0,2.9-1.3,2.9-2.9V76.2c0-1.6-1.3-2.9-2.9-2.9s-2.9,1.3-2.9,2.9v19.2H34.9V37h43.4v7.4
	C78.2,46.1,79.5,47.4,81.1,47.4z M95.3,77.6c-1.6,0-2.9,1.3-2.9,2.9v37.9c0,0.9-0.7,1.6-1.6,1.6H22.2c-0.9,0-1.6-0.7-1.6-1.6V20.2
	c0-0.9,0.7-1.6,1.6-1.6h68.6c0.9,0,1.6,0.7,1.6,1.6v25.2c0,1.6,1.3,2.9,2.9,2.9c1.6,0,2.9-1.3,2.9-2.9V20.2c0-4.1-3.3-7.4-7.4-7.4
	H22.2c-4.1,0-7.4,3.3-7.4,7.4v98.1c0,4.1,3.3,7.4,7.4,7.4h68.6c4.1,0,7.4-3.3,7.4-7.4V80.5C98.2,78.9,96.9,77.6,95.3,77.6z
	 M47.4,109.1c-1.6,0-2.9,1.3-2.9,2.9c0,1.6,1.3,2.9,2.9,2.9h18.3c1.6,0,2.9-1.3,2.9-2.9c0-1.6-1.3-2.9-2.9-2.9H47.4z"/>
<path class="st0" d="M400.6,78.6H393V61.2c0-1.2-0.9-2.1-2.1-2.1c-1.2,0-2.1,0.9-2.1,2.1v17.3h-7.6c-1.2,0-2.1,0.9-2.1,2.1v12.1
	c0,1.2,0.9,2.1,2.1,2.1h7.6v31.9c0,1.2,0.9,2.1,2.1,2.1c1.2,0,2.1-0.9,2.1-2.1V94.9h7.6c1.2,0,2.1-0.9,2.1-2.1V80.7
	C402.7,79.5,401.7,78.6,400.6,78.6z M398.5,90.7h-15.2v-7.9h15.2V90.7z M424.8,100.4h-7.6V61.2c0-1.2-0.9-2.1-2.1-2.1
	c-1.2,0-2.1,0.9-2.1,2.1v39.1h-7.6c-1.2,0-2.1,0.9-2.1,2.1v12.1c0,1.2,0.9,2.1,2.1,2.1h7.6v12.5c0,1.2,0.9,2.1,2.1,2.1
	c1.2,0,2.1-0.9,2.1-2.1v-12.5h7.6c1.2,0,2.1-0.9,2.1-2.1v-12.1C426.9,101.3,426,100.4,424.8,100.4z M422.7,112.5h-15.2v-7.9h15.2
	V112.5z M449.1,78.6h-7.6V61.2c0-1.2-0.9-2.1-2.1-2.1c-1.2,0-2.1,0.9-2.1,2.1v17.3h-7.6c-1.2,0-2.1,0.9-2.1,2.1v12.1
	c0,1.2,0.9,2.1,2.1,2.1h7.6v31.9c0,1.2,0.9,2.1,2.1,2.1c1.2,0,2.1-0.9,2.1-2.1V94.9h7.6c1.2,0,2.1-0.9,2.1-2.1V80.7
	C451.2,79.5,450.3,78.6,449.1,78.6z M447,90.7h-15.2v-7.9H447V90.7z"/>
<path class="st0" d="M437.2,432.8h-47.5c-6.6,0-12-5.4-12-12c0-6.6,5.4-12,12-12h4.5c1-11.3,10.5-20.2,22-20.2
	c9.9,0,18.6,6.7,21.2,16.1c7.6,0.1,13.8,6.4,13.8,14C451.3,426.5,445,432.8,437.2,432.8z M389.7,412.6c-4.5,0-8.2,3.7-8.2,8.2
	s3.7,8.2,8.2,8.2h47.5c5.6,0,10.2-4.6,10.2-10.2c0-5.6-4.6-10.2-10.2-10.2c-0.3,0-0.7,0-1,0.1l-1.7,0.2l-0.3-1.7
	c-1.7-8.5-9.2-14.6-17.9-14.6c-10.1,0-18.3,8.2-18.3,18.3v1.9H389.7z"/>
<g>
	<rect x="401.9" y="341.1" class="st0" width="9.9" height="6.4"/>
	<rect x="383.4" y="341.1" class="st0" width="9.9" height="6.4"/>
	<rect x="394.4" y="348.6" class="st0" width="6.4" height="9.9"/>
	<rect x="394.4" y="330.1" class="st0" width="6.4" height="9.9"/>
</g>
<g>
	<rect x="577.8" y="233.5" class="st0" width="9.9" height="6.4"/>
	<rect x="559.2" y="233.5" class="st0" width="9.9" height="6.4"/>
	<rect x="570.2" y="241" class="st0" width="6.4" height="9.9"/>
	<rect x="570.2" y="222.5" class="st0" width="6.4" height="9.9"/>
</g>
<g>
	<rect x="365.4" y="33.7" class="st0" width="7.7" height="5"/>
	<rect x="351.1" y="33.7" class="st0" width="7.7" height="5"/>
	<rect x="359.6" y="39.6" class="st0" width="5" height="7.7"/>
	<rect x="359.6" y="25.2" class="st0" width="5" height="7.7"/>
</g>
<path class="st0" d="M228.8,299.5h7.8v8.1h-7.8V299.5z M228.8,348.7h7.8v-8.1h-7.8V348.7z M216.2,320.2h-7.9v7.8h7.9V320.2z
	 M249.3,320.2v7.8h7.9v-7.8H249.3z M212.6,338.7l5.5,5.5l5.6-5.7l-5.5-5.5L212.6,338.7z M252.8,309.4l-5.5-5.5l-5.6,5.7l5.5,5.5
	L252.8,309.4z M241.6,338.5l5.6,5.7l5.5-5.5l-5.6-5.7L241.6,338.5z M223.8,309.6l-5.6-5.7l-5.5,5.5l5.6,5.7L223.8,309.6z"/>
<path class="st0" d="M559.7,165.7h5.4v5.6h-5.4V165.7z M559.7,199.7h5.4v-5.6h-5.4V199.7z M550.9,180h-5.5v5.4h5.5V180z M573.8,180
	v5.4h5.5V180H573.8z M548.5,192.8l3.8,3.8l3.9-3.9l-3.8-3.8L548.5,192.8z M576.2,172.5l-3.8-3.8l-3.9,3.9l3.8,3.8L576.2,172.5z
	 M568.5,192.6l3.9,3.9l3.8-3.8l-3.9-3.9L568.5,192.6z M556.2,172.7l-3.9-3.9l-3.8,3.8l3.9,3.9L556.2,172.7z"/>
<path class="st0" d="M70.3,359.9h3.9v4h-3.9V359.9z M70.3,384.6h3.9v-4h-3.9V384.6z M64,370.3h-4v3.9h4V370.3z M80.6,370.3v3.9h4
	v-3.9H80.6z M62.2,379.6l2.8,2.7l2.8-2.9l-2.8-2.7L62.2,379.6z M82.4,364.9l-2.8-2.7l-2.8,2.9l2.8,2.7L82.4,364.9z M76.8,379.5
	l2.8,2.9l2.8-2.7l-2.8-2.9L76.8,379.5z M67.8,365l-2.8-2.9l-2.8,2.7l2.8,2.9L67.8,365z"/>
<path class="st0" d="M56.3,152.1h4.4v4.6h-4.4V152.1z M56.3,180h4.4v-4.6h-4.4V180z M49.1,163.8h-4.5v4.4h4.5V163.8z M67.9,163.8
	v4.4h4.5v-4.4H67.9z M47.1,174.4l3.1,3.1l3.2-3.2l-3.1-3.1L47.1,174.4z M69.9,157.7l-3.1-3.1l-3.2,3.2l3.1,3.1L69.9,157.7z
	 M63.6,174.2l3.2,3.2l3.1-3.1l-3.2-3.2L63.6,174.2z M53.4,157.8l-3.2-3.2l-3.1,3.1l3.2,3.2L53.4,157.8z"/>
<g>
	<path class="st0" d="M530.9,577.2c-0.4,0-0.8,0-1.2-0.1l-39.2-8.3h-3.6l-39.2,8.3c-3.1,0.7-6.2-1.3-6.9-4.5l-0.1-0.6
		c-0.3-1.5,0-3.1,0.8-4.4c0.8-1.3,2.1-2.2,3.7-2.5l31.1-6.6v-6h4v9.3l-34.2,7.3c-0.5,0.1-0.9,0.4-1.1,0.8s-0.4,0.9-0.3,1.4l0.1,0.6
		c0.2,1,1.2,1.6,2.2,1.4l39.6-8.4l4.6,0l39.4,8.4c1,0.2,1.9-0.4,2.1-1.4l0.1-0.6c0.2-1-0.4-1.9-1.4-2.1l-34.2-7.3v-9.3h4v6l31.1,6.6
		c3.1,0.7,5.1,3.8,4.5,6.9l-0.1,0.6C536,575.3,533.6,577.2,530.9,577.2z"/>
</g>
<g>
	<path class="st0" d="M589.7,557L589.7,557c-0.6,0-45-2.3-91.4-2.5c-6.5,0-12.6,0-19.2,0c-46.6,0.3-90.8,2.5-91.3,2.5
		c-0.8,0.1-1.6-0.2-2.1-0.8c-0.6-0.5-0.9-1.3-0.9-2.1V446.7c0-0.8,0.3-1.6,0.9-2.1c0.6-0.5,1.4-0.8,2.2-0.8
		c0.5,0,50.9,3.8,100.8,3.8s100.3-3.8,100.8-3.8c0.8-0.1,1.6,0.2,2.2,0.8c0.6,0.5,0.9,1.3,0.9,2.1v107.4c0,0.8-0.3,1.5-0.9,2.1
		C591.1,556.7,590.4,557,589.7,557z M488.6,550.4c3.2,0,6.3,0,9.6,0c42.3,0.3,82.9,2.1,90.3,2.5v-105c-8,0.6-54.2,3.8-99.9,3.8
		c-45.7,0-91.9-3.2-99.9-3.8v105c7.3-0.4,47.9-2.2,90.3-2.5C482.3,550.4,485.5,550.4,488.6,550.4z"/>
</g>
<path class="st0" d="M483.2,515.2c-0.5,0-1-0.1-1.5-0.4c-1.3-0.6-2-2.1-2-3.9v-21.5c0-1.8,0.7-3.3,2-3.9c1.3-0.6,2.9-0.4,4.4,0.7
	l13.2,9.9c1.3,1,2.1,2.5,2.1,4c0,1.5-0.8,3-2.1,4l-13.2,9.9C485.2,514.8,484.2,515.2,483.2,515.2z M483.7,489.5v21.5l13.2-9.9
	c0.3-0.3,0.5-0.5,0.5-0.8c0-0.3-0.2-0.6-0.5-0.8L483.7,489.5z"/>
<path class="st0" d="M488.5,531.3c-17.1,0-31.1-13.9-31.1-31.1s13.9-31.1,31.1-31.1s31.1,13.9,31.1,31.1S505.6,531.3,488.5,531.3z
	 M488.5,473.1c-14.9,0-27.1,12.1-27.1,27.1c0,14.9,12.1,27.1,27.1,27.1c14.9,0,27.1-12.1,27.1-27.1
	C515.5,485.3,503.4,473.1,488.5,473.1z"/>
<g>
	<path class="st0" d="M108.4,410.8c-0.3,1-0.5,2.1-0.5,3.1c0,1.8,0.4,3.6,1.3,5.2c1.4,2.6,3.7,4.4,6.5,5.2c1.7,0.5,3.6,0.6,5.4,0.2
		c0.9-0.2,1.4-1,1.2-1.9c-0.2-0.9-1-1.4-1.9-1.2c-1.2,0.3-2.5,0.2-3.8-0.2c-2-0.6-3.6-1.9-4.6-3.7c-1-1.8-1.2-3.9-0.6-5.8
		c0.6-2,1.9-3.6,3.7-4.6c1.8-1,3.9-1.2,5.8-0.6c0.8,0.3,1.7-0.2,2-1.1c0.3-0.8-0.2-1.7-1.1-2C116.2,401.8,110.1,405.1,108.4,410.8z"
		/>
	<path class="st0" d="M116.8,443.7l2.1-6.9c0.7,0,1.2-0.1,1.8-0.2c0.2,0,0.5-0.1,0.8-0.1c0.9-0.1,1.5-1,1.3-1.8
		c-0.1-0.9-1-1.5-1.8-1.3c-0.4,0.1-0.6,0.1-0.9,0.2c-0.8,0.2-1.1,0.2-2.2,0.1c-0.7-0.1-1.3,0.3-1.6,0.9c-0.1,0.2-0.2,0.3-0.3,0.5
		l-1.9,6.3l-8.7-2.6l2.2-7.3c0,0,0,0,0,0c0-0.1,0-0.1,0-0.2c0-0.1,0-0.1,0-0.2c0,0,0-0.1,0-0.1c0-0.1,0-0.1,0-0.2c0,0,0-0.1,0-0.1
		c0-0.1,0-0.1,0-0.2c0,0,0-0.1-0.1-0.1c0-0.1,0-0.1-0.1-0.2c0,0,0-0.1-0.1-0.1c0,0-0.1-0.1-0.1-0.1c0,0-0.1-0.1-0.1-0.1
		c0,0-0.1-0.1-0.1-0.1c0,0,0,0,0,0c-0.9-0.7-1.5-1.3-2.3-2.1c-0.5-0.5-1.2-0.6-1.8-0.4c-0.2,0-0.5,0-0.7,0.2l-5.5,2.8l-4.1-8.1
		l5.3-2.7c0.1-0.1,0.2-0.1,0.3-0.2c0.9-0.2,1.4-1,1.3-1.9c-0.2-0.9-0.2-1.7-0.3-2.8c0-0.8-0.6-1.4-1.4-1.5c-0.1,0-0.1-0.1-0.2-0.1
		L92,411l1.2-4.2c0,0,0,0,0,0l1.3-4.4l5.7,1.7c0.1,0,0.2,0,0.2,0c0.7,0.3,1.6,0.1,2-0.5c0.6-0.9,1.1-1.5,1.8-2.2
		c0.6-0.6,0.6-1.6,0-2.3c0-0.1-0.1-0.2-0.1-0.3l-3-5.2l7.9-4.6l3.1,5.4c0.1,0.2,0.3,0.4,0.5,0.5c0.4,0.5,1,0.8,1.7,0.6
		c1.2-0.3,1.9-0.5,3.1-0.5c0,0,0,0,0,0c0.1,0,0.1,0,0.2,0c0,0,0.1,0,0.1,0c0,0,0.1,0,0.1,0c0.1,0,0.1,0,0.2-0.1c0,0,0.1,0,0.1,0
		c0.1,0,0.1-0.1,0.2-0.1c0,0,0,0,0,0c0.1-0.1,0.1-0.1,0.2-0.2c0,0,0,0,0,0c0.1-0.2,0.2-0.3,0.3-0.6c0,0,0,0,0,0l2.2-7.4
		c0.8,0.1,1.5-0.4,1.8-1.1c0.3-0.8-0.2-1.7-1.1-2l-1.3-0.4c-0.8-0.3-1.7,0.2-2,1.1L116,392c-0.5,0.1-1,0.2-1.6,0.3l-3.6-6.2
		c-0.4-0.8-1.4-1-2.2-0.6l-10.6,6.2c-0.4,0.2-0.6,0.6-0.7,1c0,0.1-0.1,0.3-0.1,0.4c0,0.3,0.1,0.6,0.2,0.8l3.6,6.2
		c-0.2,0.2-0.4,0.5-0.6,0.7l-6.6-2c-0.4-0.1-0.8-0.1-1.2,0.1c-0.4,0.2-0.7,0.5-0.8,1l-1.7,5.7c0,0,0,0,0,0l-1.7,5.9
		c0,0.2-0.1,0.3-0.1,0.5c0,0.7,0.5,1.3,1.1,1.5l6.6,2c0,0.3,0,0.6,0.1,0.9l-6.4,3.2c-0.4,0.2-0.7,0.5-0.8,0.9
		c-0.1,0.2-0.1,0.3-0.1,0.5c0,0.2,0.1,0.5,0.2,0.7l5.5,11c0.2,0.4,0.5,0.7,0.9,0.8c0.4,0.1,0.8,0.1,1.2-0.1l6.3-3.2
		c0.4,0.4,0.7,0.7,1.2,1.1l-2.3,7.8c0,0.1-0.1,0.3-0.1,0.5c0,0.3,0.1,0.5,0.2,0.8c0.2,0.4,0.5,0.7,1,0.8l11.8,3.5
		C115.7,445,116.6,444.5,116.8,443.7z"/>
</g>
<g>
	<path class="st0" d="M535.2,422.1h-3v-3c0-0.8-0.7-1.5-1.5-1.5s-1.5,0.7-1.5,1.5v3h-3c-0.8,0-1.5,0.7-1.5,1.5s0.7,1.5,1.5,1.5h3v3
		c0,0.8,0.7,1.5,1.5,1.5s1.5-0.7,1.5-1.5v-3h3c0.8,0,1.5-0.7,1.5-1.5S536,422.1,535.2,422.1z"/>
	<g>
		<path class="st0" d="M530.7,411.2c-0.8,0-1.5-0.7-1.5-1.5v-8.9c0-0.8,0.7-1.5,1.5-1.5s1.5,0.7,1.5,1.5v8.9
			C532.2,410.5,531.6,411.2,530.7,411.2z M530.7,393.3c-0.8,0-1.5-0.7-1.5-1.5v-8.9c0-0.8,0.7-1.5,1.5-1.5s1.5,0.7,1.5,1.5v8.9
			C532.2,392.7,531.6,393.3,530.7,393.3z"/>
	</g>
	<g>
		<path class="st0" d="M519.9,425.1H511c-0.8,0-1.5-0.7-1.5-1.5c0-0.8,0.7-1.5,1.5-1.5h8.9c0.8,0,1.5,0.7,1.5,1.5
			C521.4,424.4,520.8,425.1,519.9,425.1z M502.1,425.1h-8.9c-0.8,0-1.5-0.7-1.5-1.5c0-0.8,0.7-1.5,1.5-1.5h8.9
			c0.8,0,1.5,0.7,1.5,1.5C503.6,424.4,502.9,425.1,502.1,425.1z M484.2,425.1h-8.9c-0.8,0-1.5-0.7-1.5-1.5c0-0.8,0.7-1.5,1.5-1.5
			h8.9c0.8,0,1.5,0.7,1.5,1.5C485.7,424.4,485,425.1,484.2,425.1z M466.3,425.1h-8.9c-0.8,0-1.5-0.7-1.5-1.5c0-0.8,0.7-1.5,1.5-1.5
			h8.9c0.8,0,1.5,0.7,1.5,1.5C467.8,424.4,467.1,425.1,466.3,425.1z"/>
	</g>
</g>
<g>
	<g>
		<path class="st0" d="M84.7,214c1.7,0.2,3.3,0.2,4.9,0.2c12,0,20-4.6,27.6-15.3c0.9-1.3,0.6-3-0.7-3.9c-1.3-0.9-3-0.6-3.9,0.7
			c-7.3,10.4-14.8,13.9-27.4,12.7c-1.5-0.1-2.9,1-3,2.5C82,212.5,83.1,213.8,84.7,214z"/>
		<path class="st0" d="M154.7,299.1v-77.6c0-25.5-20.8-46.3-46.3-46.3c-25.5,0-46.3,20.8-46.3,46.3v77.6c-11.1,5.3-21,11.5-21,23.2
			v7.8c0,8.9,7.2,16.2,16.2,16.2h102.4c8.9,0,16.2-7.2,16.2-16.2v-7.8C175.7,310.6,165.8,304.4,154.7,299.1z M67.7,221.5
			c0-22.5,18.3-40.7,40.7-40.7s40.7,18.3,40.7,40.7v75c-6.8-3.1-13.8-6.4-19-10.6v-14.5c9.5-10.1,14-26.8,13.7-51
			c0-1.5-1.3-2.8-2.8-2.8c0,0,0,0,0,0c-1.5,0-2.8,1.3-2.8,2.8c0.3,23.2-3.9,38.9-12.9,47.8c-0.2,0.2-0.3,0.4-0.4,0.6
			c-5,5.1-9.6,7.1-16.6,7.1c-7,0-11.6-1.9-16.6-7.1c-0.1-0.2-0.3-0.4-0.4-0.6c-11.3-11.3-13-26.6-13.3-44.2
			c10,3.4,19.4,3.3,28.2-0.4c7.7-3.2,14.7-9.2,20.7-17.6c0.9-1.3,0.6-3-0.6-3.9c-1.3-0.9-3-0.6-3.9,0.6c-8.6,12-23.6,24.3-46.1,14.6
			c-0.9-0.4-1.9-0.3-2.7,0.2c-0.8,0.5-1.3,1.4-1.3,2.3c0.1,19.3,1.3,37.8,14.2,51.4v14.5c-5.1,4.2-12.1,7.5-19,10.6V221.5z
			 M124.6,276.6v10.1l-2,6c-0.2,0-0.4,0.1-0.6,0.2c-8.2,3.8-17.2,3.8-27.3-0.1c-0.1-0.1-0.3-0.1-0.4-0.1l-2-6v-10.1
			c4.7,3.4,9.7,4.9,16.2,4.9C114.9,281.5,119.9,280,124.6,276.6z M57.2,340.7c-5.8,0-10.6-4.7-10.6-10.6v-7.8
			c0-10,10.8-15,23.2-20.7c6.3-2.9,12.8-5.9,18.2-9.8l16.5,48.8H57.2z M96.5,299.4c8.4,2.6,16.4,2.6,23.7,0.2l-11.8,35.1L96.5,299.4
			z M170.1,330.1c0,5.8-4.7,10.6-10.6,10.6h-47.3l16.5-48.8c5.4,3.9,11.9,6.9,18.2,9.8c12.5,5.7,23.2,10.7,23.2,20.7V330.1z"/>
	</g>
	<path class="st0" d="M189.9,331.5c-0.4,0-0.8-0.1-1.2-0.3c-1.5-0.7-2.2-2.5-1.5-4c5-11.1,7.5-23,7.5-35.2c0-31.3-17-60.1-44.3-75.4
		c-1.5-0.8-2-2.6-1.2-4.1c0.8-1.5,2.6-2,4.1-1.2c29.2,16.3,47.4,47.2,47.4,80.6c0,13.1-2.7,25.8-8,37.7
		C192.1,330.9,191,331.5,189.9,331.5z"/>
	<path class="st0" d="M26.9,331.5c-1.2,0-2.3-0.7-2.8-1.8c-5.3-11.9-8-24.5-8-37.7c0-33.5,18.2-64.4,47.6-80.7
		c1.5-0.8,3.3-0.3,4.1,1.2c0.8,1.5,0.3,3.3-1.2,4.1c-27.4,15.2-44.5,44.1-44.5,75.4c0,12.3,2.5,24.1,7.5,35.2c0.7,1.5,0,3.3-1.5,4
		C27.8,331.4,27.3,331.5,26.9,331.5z"/>
</g>
<g>
	<defs>
		<polygon id="SVGID_1_" points="471.8,186.2 532.6,186.2 532.6,277.2 452.3,277.2 452.3,260.5 467.9,260.5 470.2,258.2 
			470.2,238.7 476.8,238.7 476.8,200.6 		"/>
	</defs>
	<clipPath id="SVGID_2_">
		<use xlink:href="#SVGID_1_"  style="overflow:visible;"/>
	</clipPath>
	<g class="st1">
		<path class="st0" d="M418.3,188v67.9h112.6V188H418.3z M529.2,254.1H420v-64.4h109.1V254.1z"/>
	</g>
</g>
<g>
	<defs>
		<polygon id="SVGID_3_" points="461.4,266.5 492.1,266.5 492.1,254.7 465.3,254.7 467.4,259.9 461.4,259.9 		"/>
	</defs>
	<clipPath id="SVGID_4_">
		<use xlink:href="#SVGID_3_"  style="overflow:visible;"/>
	</clipPath>
	<polygon class="st2" points="471.8,186.2 532.6,186.2 532.6,277.2 452.3,277.2 452.3,260.5 467.9,260.5 470.2,258.2 470.2,238.7 
		476.8,238.7 476.8,200.6 	"/>
	<g class="st3">
		<path class="st0" d="M458.5,241v31.2h32.1V241H458.5z M488.9,270.5h-28.6v-27.7h28.6V270.5z"/>
	</g>
</g>
<g>
	<defs>
		<polygon id="SVGID_5_" points="471.8,186.2 532.6,186.2 532.6,277.2 452.3,277.2 452.3,260.5 467.9,260.5 470.2,258.2 
			470.2,238.7 476.8,238.7 476.8,200.6 		"/>
	</defs>
	<clipPath id="SVGID_6_">
		<use xlink:href="#SVGID_5_"  style="overflow:visible;"/>
	</clipPath>
	<g class="st4">
		<path class="st0" d="M450.1,265.8v9.9h48.9v-9.9H450.1z M497.3,274h-45.4v-6.4h45.4V274z"/>
	</g>
</g>
<g>
	<path class="st0" d="M490.9,220.5L490.9,220.5c-2.2,0-4,1.8-4,4v18.1c0,2.2,1.8,4,4,4l0,0c2.2,0,4-1.8,4-4v-18.1
		C495,222.3,493.1,220.5,490.9,220.5z"/>
	<path class="st0" d="M504.9,211.7L504.9,211.7c-2.2,0-4,1.8-4,4v26.9c0,2.2,1.8,4,4,4l0,0c2.2,0,4-1.8,4-4v-26.9
		C508.9,213.5,507.1,211.7,504.9,211.7z"/>
	<path class="st0" d="M518.8,197.5L518.8,197.5c-2.2,0-4,1.8-4,4v41.1c0,2.2,1.8,4,4,4h0c2.2,0,4-1.8,4-4v-41.1
		C522.9,199.3,521.1,197.5,518.8,197.5z"/>
</g>
</svg>
