<?xml version="1.0" encoding="utf-8"?>
<!-- Generator: Adobe Illustrator 24.2.3, SVG Export Plug-In . SVG Version: 6.00 Build 0)  -->
<svg version="1.1" id="Layer_1" xmlns="http://www.w3.org/2000/svg" xmlns:xlink="http://www.w3.org/1999/xlink" x="0px" y="0px"
	 viewBox="0 0 374.7 133.2" style="enable-background:new 0 0 374.7 133.2;" xml:space="preserve">
<style type="text/css">
	.st0{fill:#F05325;}
	.st1{fill:#FFFFFF;}
</style>
<path class="st0" d="M267.9,64.5h0.7l15-30.3c0.5-1.1,1.3-1.7,2.8-1.7h5.2c2.3,0,2.8,2.3,2.1,3.9l-16.5,33l16.5,33.3
	c0.7,1.6,0.1,3.9-2.1,3.9h-5.2c-1.5,0-2.3-0.7-2.8-1.9l-15-30.3h-0.7v29.3c0,1.9-1.1,2.9-2.9,2.9h-4.4c-1.9,0-2.9-1.1-2.9-2.9V2.8
	c0-1.9,1.1-2.8,2.9-2.8h4.4c1.9,0,2.9,0.9,2.9,2.8V64.5z"/>
<path class="st0" d="M348.1,35.3l5.3,37.4l2.5,23.3h0.7l2.5-23.3l5.2-37.4c0.3-2,1.2-2.8,3.3-2.8h4.3c1.9,0,3.1,1.1,2.7,3.5
	l-14.4,94.3c-0.3,1.9-1.1,2.8-3.2,2.8h-4.3c-1.9,0-3.1-1.1-2.7-3.5l3.9-23.2h-2.3c-2,0-2.9-0.9-3.3-2.8l-10.4-67.7
	c-0.4-2.4,0.9-3.5,2.7-3.5h4.3C347,32.5,347.8,33.3,348.1,35.3z"/>
<path class="st0" d="M333.5,92.1"/>
<path class="st0" d="M293.7,61.5v-15l-11.4,22.8l11.4,22.9V77.3"/>
<path class="st0" d="M329.7,73.7c2,0,3.1-1.1,3.1-3.1V47.7c0-10.2-3.7-15.8-16.6-15.8c-12.9,0-16.6,5.6-16.6,15.8v17.8h-11.2v8h11.2
	v17.9c0,10.2,3.7,15.8,16.6,15.8c12.9,0,16.6-5.6,16.6-15.8v-4.9c0-1.9-0.9-2.8-2.8-2.8h-4.5c-1.9,0-2.8,0.9-2.8,2.8v4.8
	c0,5.6-2,7.5-6.5,7.5c-4.4,0-6.4-1.9-6.4-7.5V73.7L329.7,73.7L329.7,73.7z M309.7,47.8c0-5.7,2-7.5,6.4-7.5c4.5,0,6.5,1.7,6.5,7.5
	v17.4h-12.9V47.8z"/>
<g>
	<path class="st1" d="M23,65.1V47.9c0-5.7-2-7.4-6.5-7.4c-4.4,0-6.3,1.7-6.3,7.4v5.7c0,1.9-1.1,2.8-2.9,2.8H2.9
		c-1.8,0-2.9-0.9-2.9-2.8v-5.9c0-10.2,3.7-15.8,16.5-15.8c12.8,0,16.4,5.6,16.5,15.8v56c0,1.7-0.9,2.8-2.8,2.8h-4.5
		c-1.8,0-2.8-1.1-2.8-2.8V102c-3.4,3.3-8.1,5.2-12.1,5.2C5,107.2,0,103.5,0,95V80.9c0-10.2,3.7-15.8,16.5-15.8H23z M16.6,73.4
		c-4.4,0-6.3,1.9-6.3,7.4v10c0,5.7,1.5,7.4,5.8,7.4c4.5,0,7-2.3,7-7.8v-17H16.6z"/>
	<path class="st1" d="M75.3,116c0,11-4,17.2-17.8,17.2H51c-1.8,0-2.9-0.9-2.9-2.8v-2.8c0-1.9,1.1-2.9,2.9-2.9h6.5
		c6.2,0,7.8-3.2,7.8-8.8v-13.8c-3.4,3.3-8.1,5.2-12.1,5.2c-5.8,0-10.8-3.7-10.8-12.2V44.2c0-8.5,5-12.2,10.8-12.2
		c4.1,0,8.7,1.9,12.1,5.2v-1.7c0-1.9,0.9-2.8,2.8-2.8h4.5c1.8,0,2.8,0.9,2.8,2.8L75.3,116L75.3,116z M52.5,90.9
		c0,5.7,1.5,7.4,5.8,7.4c4.5,0,7-2.3,7-7.8V48.7c0-5.6-2.5-8-7-8c-4.4,0-5.8,1.9-5.8,7.4V90.9z"/>
	<path class="st1" d="M117.5,70.7c0,2-1.1,3.1-3,3.1H94.7v17.6c0,5.6,2,7.4,6.3,7.4c4.5,0,6.5-1.9,6.5-7.4v-4.8
		c0-1.9,0.9-2.8,2.8-2.8h4.5c1.8,0,2.8,0.9,2.8,2.8v4.9c0,10.2-3.7,15.8-16.5,15.8s-16.5-5.6-16.5-15.8V47.9
		c0-10.2,3.7-15.8,16.5-15.8s16.5,5.6,16.5,15.8L117.5,70.7L117.5,70.7z M94.7,65.3h12.8V47.9c0-5.7-2-7.4-6.5-7.4
		c-4.4,0-6.3,1.7-6.3,7.4V65.3z"/>
	<path class="st1" d="M159.8,103.8c0,1.7-0.9,2.8-2.8,2.8h-4.5c-1.8,0-2.8-1.1-2.8-2.8V48.2c0-5.6-1.6-7.4-5.9-7.4
		c-4.5,0-6.9,2.4-6.9,8v55.1c0,1.7-1.1,2.8-2.9,2.8h-4.4c-1.8,0-2.9-1.1-2.9-2.8V35.5c0-1.9,1.1-2.8,2.9-2.8h4.4
		c1.8,0,2.9,0.9,2.9,2.8v1.7c3.3-3.3,7.9-5.2,12-5.2c5.8,0,10.8,3.7,10.8,12.2L159.8,103.8L159.8,103.8z"/>
	<path class="st1" d="M200.7,58.3c0,1.9-0.9,2.8-2.8,2.8h-4.5c-1.8,0-2.8-0.9-2.8-2.8V47.9c0-5.7-2-7.4-6.5-7.4
		c-4.4,0-6.3,1.7-6.3,7.4v43.4c0,5.6,2,7.4,6.3,7.4c4.5,0,6.5-1.9,6.5-7.4V80.9c0-1.9,0.9-2.9,2.8-2.9h4.5c1.8,0,2.8,1.1,2.8,2.9
		v10.5c0,10.2-3.7,15.8-16.5,15.8s-16.5-5.6-16.5-15.8V47.8c0-10.2,3.7-15.8,16.5-15.8s16.5,5.6,16.5,15.8V58.3z"/>
	<path class="st1" d="M215.5,35.4l5.3,37.4l2.5,23.3h0.7l2.5-23.3l5.1-37.4c0.3-2,1.2-2.8,3.3-2.8h4.2c1.8,0,3,1.1,2.6,3.5
		l-14.3,94.3c-0.3,1.9-1.1,2.8-3.2,2.8h-4.1c-1.8,0-3-1.1-2.6-3.5l3.8-23.1h-2.2c-2,0-2.9-0.9-3.3-2.8l-10.3-67.7
		c-0.4-2.4,0.9-3.5,2.6-3.5h4.2C214.4,32.6,215.2,33.4,215.5,35.4z"/>
</g>
</svg>
