<?xml version="1.0" encoding="utf-8"?>
<!-- Generator: Adobe Illustrator 24.2.3, SVG Export Plug-In . SVG Version: 6.00 Build 0)  -->
<svg version="1.1" id="Outlined" xmlns="http://www.w3.org/2000/svg" xmlns:xlink="http://www.w3.org/1999/xlink" x="0px" y="0px"
	 viewBox="0 0 278 278" style="enable-background:new 0 0 278 278;" xml:space="preserve">
<style type="text/css">
	.st0{fill:none;stroke:#004D71;stroke-width:5;stroke-miterlimit:10;}
	.st1{fill:#004D71;}
</style>
<circle class="st0" cx="139" cy="139" r="135.3"/>
<g>
	<path class="st1" d="M139.1,76.3c29.1,0,58.1,0,87.2,0c6.2,0,9.8,3.6,9.8,9.8c0,35.2,0,70.3,0,105.5c0,6.1-3.7,9.8-9.7,9.8
		c-23.3,0-46.5,0-69.8,0c-2.5,0-2.5,0-2.5,2.4c0,3.8,0,3.8,3.8,3.8c3.2,0,6.3,0,9.5,0c2.1,0,3.4,1.1,3.4,3c0,1.8-1.3,3-3.4,3
		c-18.9,0-37.8,0-56.7,0c-2.2,0-3.4-1.1-3.5-2.9c0-1.9,1.3-3,3.5-3c3.9,0,7.8,0,11.7,0c1.2,0,1.7-0.3,1.6-1.5c-0.1-1-0.1-1.9,0-2.9
		c0.2-1.6-0.5-1.9-1.9-1.9c-20.5,0-41.1,0-61.6,0c-3,0-6.1,0-9.1,0c-5.4,0-9.2-3.9-9.2-9.4c0-35.4,0-70.9,0-106.3
		c0-5.6,3.7-9.4,9.4-9.4C80.6,76.3,109.8,76.3,139.1,76.3z M139,183.2c29.7,0,59.4,0,89.1,0c1.7,0,2.2-0.4,2.1-2.2
		c-0.1-31.1,0-62.1,0-93.2c0-5.1-0.5-5.6-5.6-5.6c-57.3,0-114.6,0-171.9,0c-3.9,0-4.7,0.8-4.7,4.8c0,31.3,0,62.6,0,93.9
		c0,2.2,0,2.2,2.2,2.2C79.7,183.2,109.3,183.2,139,183.2z M139,189.1c-29.5,0-59,0-88.6,0c-0.5,0-1.1-0.1-1.5,0c-0.4,0.2-1,0.6-1,1
		c-0.3,3.2,0.3,5.3,4.4,5.3c57.7,0,115.5,0,173.2,0c0.6,0,1.1,0,1.7-0.1c2.1-0.2,3-1.8,2.9-4.9c-0.1-2.3-1.8-1.2-2.8-1.2
		C197.9,189.1,168.5,189.1,139,189.1z M139,207.6c1.6,0,3.2,0,4.7,0c4.6,0,4.5,0,4.5-4.7c0-1.3-0.5-1.6-1.7-1.6
		c-4.1,0.1-8.1,0-12.2,0c-4.7,0-4.6,0-4.6,4.8c0,1.2,0.5,1.5,1.6,1.5C133.9,207.6,136.5,207.6,139,207.6z"/>
</g>
<g>
	<path class="st1" d="M183.3,135.2c0-11.5-0.1-22.5,0-33.6c0-2.7-1.5-3-3.5-2.8c-20,2-33.7,19.2-33.2,36.3
		C158.9,135.2,171.1,135.2,183.3,135.2z M103.4,133.6C103.4,133.6,103.4,133.6,103.4,133.6c0-9.8,0.1-19.5-0.1-29.3
		c0-1.7-0.7-4.6-1.5-4.8c-3.2-0.7-6.7-0.9-9.8-0.3c-1.1,0.2-2,3.7-2,5.7C89.9,123.6,90,142.3,90,161c0,7.6,0,7.6,7.7,7.6
		c5.1,0,5.7-0.5,5.7-5.8C103.5,153.1,103.4,143.3,103.4,133.6z M68.7,144.1c0,5.7,0,11.4,0,17.1c0,7.3,0,7.3,7.5,7.4
		c5.3,0,5.9-0.5,6-6c0-11.6,0-23.1,0-34.7c0-7.8,0-7.8-7.9-7.8c-4.8,0-5.5,0.6-5.5,5.6C68.7,131.8,68.7,137.9,68.7,144.1z
		 M124.9,151.8c0-4.3,0-8.6,0-13c0-3-1.2-4.8-4.6-4.4c-1.1,0.1-2.2,0-3.3,0c-5,0-5.5,0.4-5.5,5.5c-0.1,7.7,0,15.3,0,23
		c0,5.1,0.7,5.7,5.8,5.7c1,0,2,0,2.9,0c3.2,0.3,4.7-1.3,4.7-4.4C124.9,160.1,124.9,155.9,124.9,151.8z"/>
	<path class="st1" d="M189.1,100.2c14.2,1.4,28.4,16.5,27.5,35.4c-0.9,19-16.6,33.4-35.3,33.3c-17.8-0.1-32.4-14-33.5-27.3
		c5,0,10,0,15,0c6.7,0,13.4,0,20.1,0c6.1,0,6.1,0,6.1-6.3c0-10.2,0-20.4,0-30.6C189.1,103.2,189.1,101.9,189.1,100.2z"/>
</g>
</svg>
