<?xml version="1.0" encoding="utf-8"?>
<!-- Generator: Adobe Illustrator 24.2.3, SVG Export Plug-In . SVG Version: 6.00 Build 0)  -->
<svg version="1.1" id="Layer_1" xmlns="http://www.w3.org/2000/svg" xmlns:xlink="http://www.w3.org/1999/xlink" x="0px" y="0px"
	 viewBox="0 0 600 600" style="enable-background:new 0 0 600 600;" xml:space="preserve">
<style type="text/css">
	.st0{fill:#FFFFFF;}
	.st1{fill:#FFFFFF;stroke:#363636;stroke-width:6.6817;stroke-miterlimit:10;}
</style>
<g>
	<path class="st0" d="M159.1,525.3c-7.1-3.2-14.4-6.4-19.7-10.7v-8.6c0.2-0.2,0.3-0.3,0.5-0.5c0.2-0.3,0.4-0.5,0.6-0.8
		c4-4.7,7.3-10.9,9.9-18.5h0c7,0,12.5-6.1,14.1-15.4c1.2-6.8-0.2-15-5.6-18.5c-0.1-17.2-2.7-28.3-8.5-35.7
		c-5.7-7.4-13.8-10.7-24-14.8c-5.9-2.4-12.7-5.2-20.1-9.2c-0.8-0.4-1.8-0.5-2.6-0.2c-0.9,0.3-1.5,1.1-1.8,1.9
		c-0.5,1.6-0.8,3.3-0.9,5c-0.3-0.3-0.7-0.7-1.1-1.2c-0.7-0.8-1.7-1.1-2.7-1c-1,0.1-1.9,0.8-2.3,1.7c-0.9,1.8-1.3,4-1.1,6.2
		C73,412.2,72.7,429.1,73,452.2c-5.7,3.6-6.9,12.4-5.4,19.5c1.8,8.8,7.3,14.4,13.9,14.4h0c2.6,7.7,5.9,13.9,9.9,18.5
		c0.1,0.3,0.3,0.6,0.6,0.8c0.2,0.2,0.3,0.3,0.5,0.5v8.6c-5.3,4.3-12.6,7.6-19.7,10.7c-13.6,6.1-27.6,12.3-27.6,26.3v13.5
		c0,9.2,7.5,16.6,16.6,16.6H170c9.2,0,16.6-7.5,16.6-16.6v-13.5C186.6,537.6,172.6,531.4,159.1,525.3z M95.2,410.9l0.7,2.1
		c0.5,1.6,2.3,2.5,3.9,2c1.6-0.5,2.5-2.3,2-3.9l-1.6-4.9c1.1,0.5,2.3,0.9,3.8,1c1,0.1,2-0.3,2.7-1c0.7-0.7,0.9-1.8,0.7-2.8
		c-0.3-1.1-0.3-2.4-0.3-3.7c6.2,3.1,11.9,5.4,16.9,7.5c9.7,4,16.8,6.8,21.5,12.9c4.8,6.2,7,15.8,7.1,31c-0.9,0.4-1.8,0.8-2.7,1.3
		c-0.6,0.3-1.4,0.7-2.1,1c0,0,0-0.1,0-0.1l-0.1-0.9c-0.3-4.1-0.5-8-0.8-10.3c-1.3-11.1-16.4-16.3-30.7-16.4c-0.2,0-0.5,0-0.7,0
		c-14.4,0-29.4,5-31,16.4c-0.4,2.9-0.6,6.7-0.7,10.7l0,0.5c-0.7-0.3-1.5-0.6-2-0.9c-0.9-0.4-1.8-0.9-2.7-1.2
		C79,427.9,80,416.5,95.2,410.9z M86.8,482c-0.4-1.3-1.6-2.2-3-2.2h-2.3c-4.3,0-6.9-5.1-7.9-9.5c-1.3-6.1,0.1-11.9,3.2-13.3
		c0.1,0,0.1-0.1,0.2-0.1c0.7,0.3,1.5,0.7,2.1,1c2.7,1.3,5.8,2.8,8.4,1.1c1.6-1,2.4-2.8,2.5-5.4l0-0.6c0.2-3.7,0.3-7.5,0.7-10.1
		c1-7.4,13.6-11.2,25.5-11c13.3,0.2,23.9,4.9,24.6,10.9c0.2,2.1,0.5,6.1,0.7,10l0.1,1c0.2,2.7,1.2,4.6,2.9,5.5
		c2.7,1.5,5.7,0,8.3-1.4c0.6-0.3,1.4-0.7,2-1c3,1.2,4.5,6.5,3.5,12.5c-0.9,5.1-3.7,10.3-8,10.3h-2.3c-1.4,0-2.6,0.9-3,2.2
		c-2.8,8.9-6.5,15.8-11,20.3c-0.2,0.2-0.3,0.3-0.4,0.5c-5.1,4.6-11.3,7.2-17.7,7.2c-6.5,0-12.7-2.5-17.7-7.2
		c-0.1-0.2-0.2-0.3-0.4-0.5C93.3,497.8,89.6,491,86.8,482z M97.7,518.3c0.7-0.6,1-1.4,1-2.3v-5c5.2,3.4,11.1,5.2,17.2,5.2
		c6.1,0,12-1.8,17.2-5.2v5c0,0.9,0.4,1.7,1,2.3c1.8,1.6,3.9,3.1,6.1,4.5l-4.9,7.6H96.5l-4.9-7.6C93.8,521.4,95.8,519.9,97.7,518.3z
		 M131.4,536.6l-15.5,24l-15.5-24H131.4z M180.4,565.1c0,5.7-4.7,10.4-10.4,10.4H61.9c-5.7,0-10.4-4.7-10.4-10.4v-13.5
		c0-9.9,11.1-14.9,23.9-20.6c3.6-1.6,7.3-3.3,10.8-5.1l27.1,42.2c0.6,0.9,1.6,1.4,2.6,1.4c1.1,0,2-0.5,2.6-1.4l27.1-42.2
		c3.5,1.8,7.2,3.5,10.8,5.1c12.8,5.7,23.9,10.7,23.9,20.6V565.1z"/>
	<path class="st1" d="M76.8,430.7c-0.5,0.2-0.9,0.4-1.4,0.6"/>
	<path class="st0" d="M206,566c-0.5,0-0.9-0.1-1.4-0.3c-1.7-0.8-2.4-2.7-1.6-4.4c5.7-12.5,8.6-25.8,8.6-39.7
		c0-38.7-23.1-73.4-58.8-88.3c-1.7-0.7-2.5-2.7-1.8-4.4c0.7-1.7,2.7-2.5,4.4-1.8c38.2,15.9,62.9,53,62.9,94.4
		c0,14.8-3.1,29.1-9.2,42.5C208.4,565.2,207.2,566,206,566z"/>
	<path class="st0" d="M24.8,563.4c-1.3,0-2.5-0.8-3.1-2c-5.3-12.6-8-26-8-39.8c0-40.1,23.7-76.8,60.3-93.3c1.7-0.8,3.7,0,4.4,1.7
		c0.8,1.7,0,3.7-1.7,4.4c-34.2,15.4-56.3,49.6-56.3,87.2c0,12.9,2.5,25.4,7.5,37.2c0.7,1.7-0.1,3.7-1.8,4.4
		C25.7,563.3,25.2,563.4,24.8,563.4z"/>
</g>
<g>
	<g>
		<g>
			<path class="st0" d="M405.5,63.1c-8.1,0-14.8-6.6-14.8-14.8c0-8.1,6.6-14.8,14.8-14.8c8.1,0,14.8,6.6,14.8,14.8
				C420.3,56.5,413.6,63.1,405.5,63.1z M405.5,36.8c-6.4,0-11.6,5.2-11.6,11.6c0,6.4,5.2,11.6,11.6,11.6c6.4,0,11.6-5.2,11.6-11.6
				C417.1,42,411.9,36.8,405.5,36.8z"/>
		</g>
	</g>
	<g>
		<g>
			<path class="st0" d="M405.2,55.3c-0.6,0-1.1-0.3-1.4-0.8l-3.7-6.1c-0.5-0.8-0.2-1.7,0.5-2.2c0.8-0.5,1.7-0.2,2.2,0.5l2.2,3.6
				l4-8.1c0.4-0.8,1.3-1.1,2.1-0.7c0.8,0.4,1.1,1.3,0.7,2.1l-5.3,10.7C406.4,54.9,405.8,55.3,405.2,55.3
				C405.2,55.3,405.2,55.3,405.2,55.3z"/>
		</g>
	</g>
</g>
<g>
	<path class="st0" d="M397.1,344.6c-1-0.5-2.3-0.1-2.8,1l-3.6,7.4l-1.8-2.9c-0.6-1-1.9-1.3-2.9-0.7c-1,0.6-1.3,1.9-0.7,2.9l3.8,6.2
		c0.4,0.6,1,1,1.8,1c0,0,0.1,0,0.1,0c0.8,0,1.4-0.5,1.8-1.2l5.3-10.8C398.6,346.4,398.2,345.1,397.1,344.6z"/>
	<path class="st0" d="M397.1,369.1c-1-0.5-2.3-0.1-2.8,1l-3.6,7.4l-1.8-2.9c-0.6-1-1.9-1.3-2.9-0.7c-1,0.6-1.3,1.9-0.7,2.9l3.8,6.2
		c0.4,0.6,1,1,1.8,1c0,0,0.1,0,0.1,0c0.8,0,1.4-0.5,1.8-1.2l5.3-10.8C398.6,370.9,398.2,369.6,397.1,369.1z"/>
	<path class="st0" d="M405.4,349.1h20.1c1.1,0,2.1-0.9,2.1-2.1c0-1.1-0.9-2.1-2.1-2.1h-20.1c-1.1,0-2.1,0.9-2.1,2.1
		C403.3,348.2,404.2,349.1,405.4,349.1z"/>
	<path class="st0" d="M432.2,349.1h10.1c1.1,0,2.1-0.9,2.1-2.1c0-1.1-0.9-2.1-2.1-2.1h-10.1c-1.1,0-2.1,0.9-2.1,2.1
		C430.2,348.2,431.1,349.1,432.2,349.1z"/>
	<path class="st0" d="M405.4,357.9h10.1c1.1,0,2.1-0.9,2.1-2.1s-0.9-2.1-2.1-2.1h-10.1c-1.1,0-2.1,0.9-2.1,2.1
		S404.2,357.9,405.4,357.9z"/>
	<path class="st0" d="M453,354.3h-30.3c-1.1,0-2.1,0.9-2.1,2.1c0,1.1,0.9,2.1,2.1,2.1H453c1.1,0,2.1-0.9,2.1-2.1
		C455.1,355.2,454.1,354.3,453,354.3z"/>
	<path class="st0" d="M405.4,373.8h27.9c1.1,0,2.1-0.9,2.1-2.1c0-1.1-0.9-2.1-2.1-2.1h-27.9c-1.1,0-2.1,0.9-2.1,2.1
		C403.3,372.9,404.2,373.8,405.4,373.8z"/>
	<path class="st0" d="M446,369.7h-5.6c-1.1,0-2.1,0.9-2.1,2.1c0,1.1,0.9,2.1,2.1,2.1h5.6c1.1,0,2.1-0.9,2.1-2.1
		C448.1,370.6,447.1,369.7,446,369.7z"/>
	<path class="st0" d="M415.5,378.5h-10.1c-1.1,0-2.1,0.9-2.1,2.1c0,1.1,0.9,2.1,2.1,2.1h10.1c1.1,0,2.1-0.9,2.1-2.1
		C417.5,379.4,416.6,378.5,415.5,378.5z"/>
	<path class="st0" d="M440,378.9h-17.3c-1.1,0-2.1,0.9-2.1,2.1c0,1.1,0.9,2.1,2.1,2.1H440c1.1,0,2.1-0.9,2.1-2.1
		C442.1,379.9,441.2,378.9,440,378.9z"/>
</g>
<g>
	<path class="st0" d="M16.1,273.6c-0.8-0.4-1.8-0.1-2.1,0.7l-3.1,6.3l-1.6-2.6c-0.5-0.8-1.5-1-2.2-0.5c-0.8,0.5-1,1.5-0.5,2.2
		l3.1,5.1c0.3,0.5,0.8,0.8,1.4,0.8c0,0,0.1,0,0.1,0c0.6,0,1.1-0.4,1.4-0.9l4.4-8.9C17.2,275,16.9,274,16.1,273.6z"/>
	<path class="st0" d="M22.9,277.1h14.3c0.9,0,1.6-0.7,1.6-1.6c0-0.9-0.7-1.6-1.6-1.6H22.9c-0.9,0-1.6,0.7-1.6,1.6
		C21.3,276.4,22,277.1,22.9,277.1z"/>
	<path class="st0" d="M27.1,281.2h-4.2c-0.9,0-1.6,0.7-1.6,1.6c0,0.9,0.7,1.6,1.6,1.6h4.2c0.9,0,1.6-0.7,1.6-1.6
		C28.7,281.9,28,281.2,27.1,281.2z"/>
	<path class="st0" d="M44.7,281.2l-11,0.4c-0.9,0-1.6,0.8-1.5,1.7c0,0.9,0.7,1.5,1.6,1.5c0,0,0,0,0.1,0l11-0.4
		c0.9,0,1.6-0.8,1.5-1.7C46.3,281.8,45.6,281.1,44.7,281.2z"/>
</g>
<path class="st0" d="M329.3,348.8h-3.4v-4.5c0-0.9-0.7-1.6-1.6-1.6c-0.9,0-1.6,0.7-1.6,1.6v4.5h-3.4c-0.9,0-1.6,0.7-1.6,1.6
	c0,0.9,0.7,1.6,1.6,1.6h3.4v4.5c0,0.9,0.7,1.6,1.6,1.6c0.9,0,1.6-0.7,1.6-1.6V352h3.4c0.9,0,1.6-0.7,1.6-1.6
	C330.9,349.5,330.1,348.8,329.3,348.8z"/>
<g>
	<g>
		<g>
			<path class="st0" d="M454.1,41.4H444c-0.9,0-1.6-0.7-1.6-1.6c0-0.9,0.7-1.6,1.6-1.6h10.1c0.9,0,1.6,0.7,1.6,1.6
				C455.7,40.7,455,41.4,454.1,41.4z"/>
		</g>
	</g>
	<g>
		<g>
			<path class="st0" d="M449.1,47.5c-0.9,0-1.6-0.7-1.6-1.6V33.7c0-0.9,0.7-1.6,1.6-1.6s1.6,0.7,1.6,1.6v12.2
				C450.7,46.8,450,47.5,449.1,47.5z"/>
		</g>
	</g>
</g>
<g>
	<g>
		<g>
			<path class="st0" d="M388.6,423.8h-16.1c-1.4,0-2.6-1.1-2.6-2.6s1.1-2.6,2.6-2.6h16.1c1.4,0,2.6,1.1,2.6,2.6
				S390,423.8,388.6,423.8z"/>
		</g>
	</g>
	<g>
		<g>
			<path class="st0" d="M380.6,433.5c-1.4,0-2.6-1.1-2.6-2.6v-19.5c0-1.4,1.1-2.6,2.6-2.6c1.4,0,2.6,1.1,2.6,2.6v19.5
				C383.1,432.4,382,433.5,380.6,433.5z"/>
		</g>
	</g>
</g>
<g>
	<g>
		<path class="st0" d="M115.2,354.7c-3,0-5.5-2.5-5.5-5.5c0-3,2.5-5.5,5.5-5.5c3,0,5.5,2.5,5.5,5.5
			C120.7,352.2,118.3,354.7,115.2,354.7z M115.2,346.9c-1.3,0-2.3,1-2.3,2.3c0,1.3,1,2.3,2.3,2.3c1.3,0,2.3-1,2.3-2.3
			C117.5,347.9,116.5,346.9,115.2,346.9z"/>
	</g>
</g>
<g>
	<g>
		<path class="st0" d="M269.7,449.1c-3,0-5.5-2.5-5.5-5.5c0-3,2.5-5.5,5.5-5.5c3,0,5.5,2.5,5.5,5.5
			C275.2,446.7,272.7,449.1,269.7,449.1z M269.7,441.3c-1.3,0-2.3,1-2.3,2.3c0,1.3,1,2.3,2.3,2.3c1.3,0,2.3-1,2.3-2.3
			C272,442.3,271,441.3,269.7,441.3z"/>
	</g>
</g>
<g>
	<g>
		<path class="st0" d="M296.3,46.5c-3,0-5.5-2.5-5.5-5.5c0-3,2.5-5.5,5.5-5.5c3,0,5.5,2.5,5.5,5.5C301.9,44,299.4,46.5,296.3,46.5z
			 M296.3,38.7c-1.3,0-2.3,1-2.3,2.3c0,1.3,1,2.3,2.3,2.3c1.3,0,2.3-1,2.3-2.3C298.7,39.7,297.6,38.7,296.3,38.7z"/>
	</g>
</g>
<g>
	<g>
		<path class="st0" d="M589.6,323c-3,0-5.5-2.5-5.5-5.5c0-3,2.5-5.5,5.5-5.5c3,0,5.5,2.5,5.5,5.5C595.2,320.6,592.7,323,589.6,323z
			 M589.6,315.2c-1.3,0-2.3,1-2.3,2.3c0,1.3,1,2.3,2.3,2.3c1.3,0,2.3-1,2.3-2.3C592,316.2,590.9,315.2,589.6,315.2z"/>
	</g>
</g>
<g>
	<g>
		<path class="st0" d="M508.7,112.2c-3,0-5.5-2.5-5.5-5.5c0-3,2.5-5.5,5.5-5.5c3,0,5.5,2.5,5.5,5.5
			C514.2,109.7,511.8,112.2,508.7,112.2z M508.7,104.4c-1.3,0-2.3,1-2.3,2.3c0,1.3,1,2.3,2.3,2.3c1.3,0,2.3-1,2.3-2.3
			C511,105.4,510,104.4,508.7,104.4z"/>
	</g>
</g>
<g>
	<g>
		<g>
			<g>
				<path class="st0" d="M35.5,118.3c-0.4,0-0.7-0.1-1-0.4l-4.6-3.9l-4.6,3.9c-0.7,0.6-1.7,0.5-2.3-0.2c-0.6-0.7-0.5-1.7,0.2-2.3
					l5.6-4.8c0.6-0.5,1.5-0.5,2.1,0l5.6,4.8c0.7,0.6,0.8,1.6,0.2,2.3C36.4,118.1,35.9,118.3,35.5,118.3z"/>
			</g>
		</g>
	</g>
	<g>
		<g>
			<g>
				<path class="st0" d="M35.5,109.8c-0.4,0-0.7-0.1-1-0.4l-4.6-3.9l-4.6,3.9c-0.7,0.6-1.7,0.5-2.3-0.2c-0.6-0.7-0.5-1.7,0.2-2.3
					l5.6-4.8c0.6-0.5,1.5-0.5,2.1,0l5.6,4.8c0.7,0.6,0.8,1.6,0.2,2.3C36.4,109.6,35.9,109.8,35.5,109.8z"/>
			</g>
		</g>
	</g>
</g>
<g>
	<path class="st0" d="M219.4,386c0.3,0.3,0.7,0.4,1,0.4c0.4,0,0.7-0.1,1-0.4l5.6-4.8c0.7-0.6,0.8-1.6,0.2-2.3
		c-0.6-0.7-1.6-0.8-2.3-0.2l-4.6,3.9l-4.6-3.9c-0.7-0.6-1.7-0.5-2.3,0.2c-0.6,0.7-0.5,1.7,0.2,2.3L219.4,386z"/>
	<path class="st0" d="M225.1,387.2l-4.6,3.9l-4.6-3.9c-0.7-0.6-1.7-0.5-2.3,0.2c-0.6,0.7-0.5,1.7,0.2,2.3l5.6,4.8
		c0.3,0.3,0.7,0.4,1,0.4c0.4,0,0.7-0.1,1-0.4l5.6-4.8c0.7-0.6,0.8-1.6,0.2-2.3C226.7,386.7,225.7,386.7,225.1,387.2z"/>
</g>
<g>
	<path class="st0" d="M34.5,314.3l3.9-4.6c0.6-0.7,0.5-1.7-0.2-2.3c-0.7-0.6-1.7-0.5-2.3,0.2l-4.8,5.6c-0.5,0.6-0.5,1.5,0,2.1
		L36,321c0.3,0.4,0.8,0.6,1.2,0.6c0.4,0,0.7-0.1,1-0.4c0.7-0.6,0.8-1.6,0.2-2.3L34.5,314.3z"/>
	<path class="st0" d="M26,314.3l3.9-4.6c0.6-0.7,0.5-1.7-0.2-2.3c-0.7-0.6-1.7-0.5-2.3,0.2l-4.8,5.6c-0.5,0.6-0.5,1.5,0,2.1l4.8,5.6
		c0.3,0.4,0.8,0.6,1.2,0.6c0.4,0,0.7-0.1,1-0.4c0.7-0.6,0.8-1.6,0.2-2.3L26,314.3z"/>
</g>
<g>
	<g>
		<g>
			<g>
				<path class="st0" d="M455,294.9c-0.4,0-0.7-0.1-1-0.4c-0.7-0.6-0.8-1.6-0.2-2.3l3.9-4.6l-3.9-4.6c-0.6-0.7-0.5-1.7,0.2-2.3
					c0.7-0.6,1.7-0.5,2.3,0.2l4.8,5.6c0.5,0.6,0.5,1.5,0,2.1l-4.8,5.6C455.9,294.7,455.4,294.9,455,294.9z"/>
			</g>
		</g>
	</g>
	<g>
		<g>
			<g>
				<path class="st0" d="M463.5,294.9c-0.4,0-0.7-0.1-1-0.4c-0.7-0.6-0.8-1.6-0.2-2.3l3.9-4.6l-3.9-4.6c-0.6-0.7-0.5-1.7,0.2-2.3
					c0.7-0.6,1.7-0.5,2.3,0.2l4.8,5.6c0.5,0.6,0.5,1.5,0,2.1l-4.8,5.6C464.4,294.7,463.9,294.9,463.5,294.9z"/>
			</g>
		</g>
	</g>
</g>
<g>
	<g>
		<path class="st0" d="M143.9,78.8h-28.8c-0.9,0-1.6-0.7-1.6-1.6V37.4c0-0.7,0.4-1.3,1.1-1.5c0.7-0.2,1.4,0,1.8,0.6l28.8,39.8
			c0.4,0.5,0.4,1.1,0.1,1.7C145,78.5,144.5,78.8,143.9,78.8z M116.7,75.6h24l-24-33.2V75.6z"/>
	</g>
</g>
<g>
	<path class="st0" d="M76.3,24.2c-10.4-6.9-21.5-6.9-31.6-0.1c-5.2,3.5-13.5,11.6-11.1,26.8c1,6.2,3.6,9.9,6.3,13.9
		c3.1,4.5,6.7,9.6,8.5,19.9l-0.6,13.5c0,0.5,0.2,0.9,0.5,1.3l1.5,1.4v3.3c0,0.9,0.7,1.6,1.6,1.6l1.8,3.2c0.3,0.5,0.8,0.8,1.4,0.8
		h10.6c0.6,0,1.2-0.4,1.5-0.9l1.4-3c0.8,0,1.5-0.7,1.5-1.6v-3.3l1.5-1.4c0.3-0.3,0.5-0.7,0.5-1.2V84.8c0.6-1.6,3.9-11.3,6.4-16.2
		c0.9-1.8,2-3.5,3-5.2c2.1-3.4,4.2-6.9,5.5-11.3C86.6,51.9,91,34,76.3,24.2z M55.6,64.9c-0.4-6.5-1.1-11.2-1.8-14.6
		c2.3-0.9,4.4-2,6-2.9c0.9,0.7,1.9,1.3,2.9,1.8c0.9,0.4,1.8,0.9,2.7,1.3c-0.8,3.3-1.4,7.8-1.7,13.9c-0.5,7.7-0.3,15.2-0.3,18.5h-7.3
		C56.2,79.8,56.1,72.4,55.6,64.9z M57.8,37.3c0.4-0.7,1.3-1.1,2.4-1.1c0,0,0,0,0,0c1,0,2,0.4,2.4,1.1c1,1.6,0.1,3.7-2.7,6.1
		c-1.2-1.2-2-2.4-2.4-3.6C57.3,38.8,57.4,38,57.8,37.3z M68.4,86.1v2.1h-17l0.1-2.1H68.4z M53.1,102.5v-0.8h13.3v0.8H53.1z
		 M68.4,97.5l-1.1,1H52.1l-1-0.9l0.1-1.7h17.3V97.5z M51.2,92.6l0-1.1h17.2v1.1H51.2z M55.5,106.5l-0.4-0.8h9.4l-0.4,0.8H55.5z
		 M83.5,51.2c-1.2,4-3.1,7.2-5.1,10.5c-1.1,1.7-2.2,3.5-3.2,5.4c-2.3,4.6-5.3,12.8-6.3,15.8h-2.3c-0.4-11.6,0.3-23.8,1.8-31.3
		c2.4,0.7,4.8,0.8,7-0.3c2.4-1.3,3.4-4,2.4-6.5c-0.9-2.2-3.4-4.2-6.8-3.3c-1.5,0.4-3.3,1.6-4.7,6c-0.7-0.3-1.4-0.7-2.1-1
		c-0.6-0.3-1.1-0.6-1.7-1c4.7-4.3,4.2-7.7,2.8-9.8c-1-1.6-2.9-2.6-5.1-2.6c0,0,0,0,0,0c-2.2,0-4.1,1-5.1,2.6c-0.9,1.5-1.1,3.2-0.6,5
		c0.4,1.6,1.4,3.1,2.8,4.6c-1.3,0.7-2.8,1.4-4.3,2c-1.2-3.7-2.5-4.9-3.6-5.4c-3.4-1.6-6.3-0.1-7.4,2.2c-1.1,2.2-0.4,5.4,2.9,7
		c1.6,0.8,3.7,0.7,5.9,0.2c1.5,7.4,2.3,19.9,2.2,31.6h-1.6c-2-10.2-5.6-15.4-8.8-20c-2.6-3.8-4.9-7-5.8-12.5
		c-2-12.8,4.2-19.9,9.8-23.6c9.1-6.1,18.7-6.1,28,0.1C87.1,35.3,83.5,51,83.5,51.2z M69.3,48.5c0.7-2.3,1.6-3.7,2.6-4
		c1.6-0.4,2.6,0.5,3,1.4c0.2,0.4,0.6,1.7-0.9,2.5C72.6,49.1,71,49,69.3,48.5z M50,48.2c-1.5,0.4-2.9,0.4-3.7,0
		c-1.6-0.8-1.8-2-1.4-2.8c0.3-0.6,0.9-1,1.7-1c0.4,0,0.9,0.1,1.4,0.3C48.8,45.1,49.4,46.3,50,48.2z"/>
	<path class="st0" d="M60.4,14.1c0.9,0,1.6-0.7,1.6-1.6V6.5c0-0.9-0.7-1.6-1.6-1.6c-0.9,0-1.6,0.7-1.6,1.6v5.9
		C58.8,13.4,59.5,14.1,60.4,14.1z"/>
	<path class="st0" d="M97.5,31.3h-5.9c-0.9,0-1.6,0.7-1.6,1.6c0,0.9,0.7,1.6,1.6,1.6h5.9c0.9,0,1.6-0.7,1.6-1.6
		C99.1,32,98.4,31.3,97.5,31.3z"/>
	<path class="st0" d="M29.5,31.3h-5.9c-0.9,0-1.6,0.7-1.6,1.6c0,0.9,0.7,1.6,1.6,1.6h5.9c0.9,0,1.6-0.7,1.6-1.6
		C31.1,32,30.3,31.3,29.5,31.3z"/>
	<path class="st0" d="M73.9,16.4c0.3,0.1,0.5,0.2,0.8,0.2c0.6,0,1.1-0.3,1.4-0.8l3-5.1c0.4-0.8,0.2-1.7-0.6-2.2
		c-0.8-0.4-1.7-0.2-2.2,0.6l-3,5.1C72.9,15,73.1,16,73.9,16.4z"/>
	<path class="st0" d="M92.8,17.8c-0.5-0.7-1.6-0.8-2.3-0.3l-4.7,3.7c-0.7,0.5-0.8,1.6-0.3,2.3c0.3,0.4,0.8,0.6,1.3,0.6
		c0.3,0,0.7-0.1,1-0.3l4.7-3.7C93.3,19.5,93.4,18.4,92.8,17.8z"/>
	<path class="st0" d="M30.5,20l4.7,3.7c0.3,0.2,0.6,0.3,1,0.3c0.5,0,0.9-0.2,1.3-0.6c0.5-0.7,0.4-1.7-0.3-2.3l-4.7-3.7
		c-0.7-0.5-1.7-0.4-2.3,0.3C29.7,18.4,29.8,19.5,30.5,20z"/>
	<path class="st0" d="M46.3,15.6c0.3,0.5,0.8,0.8,1.4,0.8c0.3,0,0.5-0.1,0.8-0.2c0.8-0.4,1-1.4,0.6-2.2l-3-5.1
		c-0.4-0.8-1.4-1-2.2-0.6c-0.8,0.4-1,1.4-0.6,2.2L46.3,15.6z"/>
</g>
<path class="st0" d="M578.7,373.2c-0.1-0.4-0.3-0.8-0.7-1.1l-24.8-16.9c-0.3-0.2-0.6-0.3-0.9-0.3l-3.1,0.1l-1.4-1
	c3.8-6,5.2-13.1,4-20.2c-2.3-14.3-14.5-24.6-28.9-24.6c-1.6,0-3.2,0.1-4.7,0.4c-15.9,2.6-26.8,17.7-24.2,33.6
	c2.3,14.3,14.5,24.6,28.9,24.6c1.6,0,3.2-0.1,4.7-0.4c5.7-0.9,10.9-3.5,15.1-7.3l2,1.5l0.5,2.9c0.1,0.4,0.3,0.7,0.6,1l23,18.8
	c0.3,0.2,0.6,0.4,1,0.4c0.1,0,0.1,0,0.2,0c0.4-0.1,0.8-0.3,1.1-0.6l7.4-9.6C578.7,374.1,578.8,373.6,578.7,373.2z M544.1,353.7
	c-4.1,5.7-10.1,9.4-17,10.5c-1.4,0.2-2.8,0.3-4.2,0.3c-12.8,0-23.7-9.2-25.7-21.9c-2.3-14.2,7.4-27.6,21.6-30
	c1.4-0.2,2.8-0.3,4.2-0.3c12.8,0,23.7,9.2,25.7,21.9C549.8,341.2,548.2,348.1,544.1,353.7z M569.5,380.7l-21.3-17.4l-0.5-3
	c-0.1-0.4-0.3-0.8-0.6-1l-2.2-1.6c0.3-0.4,0.7-0.8,1-1.2l1.8,1.3c0.3,0.2,0.6,0.3,1,0.3l3.2-0.1l23,15.7L569.5,380.7z M522.9,314.6
	c-1.3,0-2.6,0.1-3.9,0.3c-6.3,1-11.8,4.4-15.6,9.6c-3.7,5.2-5.2,11.5-4.2,17.8c1.9,11.6,11.8,20.1,23.6,20.1c1.3,0,2.6-0.1,3.9-0.3
	c13-2.1,21.9-14.4,19.7-27.4C544.6,323,534.7,314.6,522.9,314.6z M526.2,358.9c-1.1,0.2-2.2,0.3-3.4,0.3c-10.2,0-18.8-7.3-20.4-17.4
	c-0.9-5.5,0.4-10.9,3.6-15.4c3.2-4.5,8-7.4,13.5-8.3c1.1-0.2,2.2-0.3,3.4-0.3c10.2,0,18.8,7.3,20.4,17.4
	C545.2,346.4,537.5,357.1,526.2,358.9z M507.2,337.9c-0.1-0.9-0.9-1.5-1.8-1.4c-0.9,0.1-1.5,0.9-1.4,1.8c0.7,5.7,3.3,11,7.3,15
	c0.3,0.3,0.7,0.5,1.1,0.5c0.4,0,0.8-0.2,1.1-0.5c0.6-0.6,0.6-1.6,0-2.3C510,347.5,507.8,342.8,507.2,337.9z"/>
<g>
	<path class="st0" d="M340.4,73.3c-3.6-1.1-7.3-0.7-10.6,1.1c-3.3,1.8-5.6,4.7-6.7,8.2c-1.4,4.6-0.3,9.5,2.8,13.1
		c0.6,0.7,1.6,0.7,2.3,0.2c0.7-0.6,0.7-1.6,0.2-2.3c-2.4-2.8-3.2-6.5-2.2-10.1c0.8-2.7,2.6-5,5.1-6.3c2.5-1.4,5.4-1.7,8.1-0.8
		c5.6,1.7,8.9,7.6,7.2,13.3c-0.4,1.5-1.2,2.8-2.2,4c-0.6,0.7-0.5,1.7,0.1,2.3c0.3,0.3,0.7,0.4,1.1,0.4c0.4,0,0.9-0.2,1.2-0.5
		c1.3-1.5,2.3-3.3,2.9-5.2C352,83.2,347.8,75.4,340.4,73.3z"/>
	<path class="st0" d="M376.7,87.2c-0.2-0.4-0.5-0.7-1-0.8L365,83.2c-0.1-1-0.3-1.8-0.5-2.7l8.5-4.9c0.8-0.4,1-1.4,0.6-2.2l-8.2-14.1
		c-0.2-0.4-0.6-0.6-1-0.7c-0.4-0.1-0.8-0.1-1.2,0.2l-8.6,5c-0.5-0.4-1-0.8-1.5-1.2l2.7-9.1c0.1-0.4,0.1-0.8-0.1-1.2
		c-0.2-0.4-0.5-0.7-1-0.8L347,49h0l-7.6-2.2c-0.8-0.3-1.7,0.2-2,1.1l-2.7,9.1c-0.6,0-1.3,0.1-1.9,0.2l-4.5-8.8
		c-0.2-0.4-0.5-0.7-0.9-0.8c-0.4-0.1-0.8-0.1-1.2,0.1L311.6,55c-0.4,0.2-0.7,0.5-0.8,0.9c-0.1,0.4-0.1,0.8,0.1,1.2l4.4,8.7
		c-0.7,0.7-1.3,1.3-1.9,2l-10.7-3.2c-0.8-0.3-1.7,0.2-2,1.1l-4.6,15.6c-0.3,0.8,0.2,1.7,1.1,2l9.6,2.8c0,1.5,0.1,2.7,0.3,4l-7.2,3.5
		c-0.8,0.4-1.1,1.3-0.7,2.1c0.3,0.6,0.8,0.9,1.4,0.9c0.2,0,0.5-0.1,0.7-0.2l7.5-3.7c0.1-0.1,0.3-0.2,0.4-0.3c0.8-0.2,1.4-1,1.3-1.8
		c-0.4-2.1-0.6-3.5-0.4-5.6c0.1-0.7-0.4-1.3-1-1.6c-0.2-0.1-0.4-0.3-0.6-0.3l-8.8-2.6l3.7-12.5l10.2,3l0,0l0,0
		c0.1,0,0.3,0.1,0.4,0.1c0,0,0,0,0,0c0,0,0,0,0.1,0c0.1,0,0.1,0,0.2,0c0,0,0.1,0,0.1,0c0.1,0,0.1,0,0.2-0.1c0,0,0.1,0,0.1-0.1
		c0.1,0,0.2-0.1,0.3-0.2c0,0,0,0,0.1-0.1c0.1-0.1,0.1-0.1,0.2-0.2c0,0,0,0,0,0c0.9-1.3,1.7-2,2.9-3.1c0.5-0.5,0.6-1.2,0.4-1.8
		c0-0.3,0-0.6-0.2-0.8l-3.9-7.8l11.7-5.9l3.8,7.5c0.1,0.2,0.2,0.3,0.3,0.4c0,0,0,0.1,0,0.1c0.1,0.8,0.8,1.3,1.6,1.3
		c0.1,0,0.2,0,0.3,0c1.3-0.2,2.3-0.3,3.8-0.4c0.8,0,1.5-0.7,1.6-1.5c0-0.1,0.1-0.2,0.1-0.3l2.4-8l6.3,1.9c0,0,0,0,0,0l6,1.8l-2.4,8
		c0,0.1-0.1,0.2-0.1,0.3c-0.4,0.7-0.2,1.6,0.5,2.1c1.2,0.8,2.1,1.5,3,2.4c0.3,0.3,0.7,0.4,1.1,0.4c0.4,0,0.8-0.2,1.2-0.5
		c0,0,0-0.1,0.1-0.1c0.2,0,0.3-0.1,0.5-0.2l7.3-4.2l6.5,11.3l-7.5,4.4c-0.3,0.2-0.5,0.4-0.6,0.6c-0.6,0.4-0.9,1-0.7,1.7
		c0.4,1.6,0.6,2.6,0.7,4.2c0,0,0,0,0,0c0,0.1,0,0.1,0,0.2c0,0,0,0.1,0,0.1c0,0,0,0.1,0.1,0.1c0,0.1,0,0.1,0.1,0.1c0,0,0,0.1,0.1,0.1
		c0,0,0.1,0.1,0.1,0.1c0,0,0.1,0.1,0.1,0.1c0,0,0.1,0.1,0.1,0.1c0,0,0.1,0.1,0.1,0.1c0,0,0.1,0.1,0.1,0.1c0,0,0.1,0,0.1,0.1
		c0.1,0,0.1,0,0.2,0.1c0,0,0,0,0.1,0l10.2,3l-1.7,5.8c-0.3,0.8,0.2,1.7,1.1,2c0.2,0,0.3,0.1,0.5,0.1c0.7,0,1.3-0.5,1.5-1.1l2.2-7.3
		C376.9,88,376.9,87.5,376.7,87.2z"/>
</g>
<g>
	<path class="st0" d="M269.2,83.8c-2.5-0.7-5.1-0.5-7.4,0.8c-2.3,1.2-4,3.3-4.7,5.8c-0.5,1.6-0.5,3.2-0.2,4.8c0.2,0.9,1,1.4,1.9,1.2
		c0.9-0.2,1.4-1,1.2-1.9c-0.2-1.1-0.2-2.2,0.1-3.2c0.5-1.7,1.6-3.1,3.2-3.9c1.5-0.8,3.3-1,5-0.5c3.5,1,5.4,4.7,4.4,8.1
		c-0.3,0.8,0.2,1.7,1.1,2c0.2,0,0.3,0.1,0.5,0.1c0.7,0,1.3-0.5,1.5-1.1C277.3,90.8,274.4,85.3,269.2,83.8z"/>
	<path class="st0" d="M293.6,93.3c-0.2-0.4-0.5-0.7-1-0.8l-6.8-2c-0.1-0.4-0.1-0.8-0.2-1.1l5.3-3.1c0.8-0.4,1-1.4,0.6-2.2l-5.4-9.3
		c-0.2-0.4-0.6-0.6-1-0.7c-0.4-0.1-0.8-0.1-1.2,0.2l-5.4,3.1c-0.1-0.1-0.3-0.2-0.4-0.4l1.7-5.7c0.1-0.4,0.1-0.8-0.1-1.2
		c-0.2-0.4-0.5-0.7-1-0.8l-5-1.5c0,0,0,0,0,0l-5.2-1.5c-0.8-0.3-1.7,0.2-2,1.1l-1.7,5.7c-0.2,0-0.4,0-0.6,0.1l-2.8-5.5
		c-0.2-0.4-0.5-0.7-0.9-0.8c-0.4-0.1-0.8-0.1-1.2,0.1l-9.6,4.9c-0.4,0.2-0.7,0.5-0.8,0.9c-0.1,0.4-0.1,0.8,0.1,1.2l2.8,5.5
		c-0.3,0.3-0.5,0.5-0.8,0.8l-6.8-2c-0.4-0.1-0.8-0.1-1.2,0.1c-0.4,0.2-0.7,0.5-0.8,1l-3.1,10.3c-0.3,0.8,0.2,1.7,1.1,2l6,1.8
		c0,0.5,0.1,0.9,0.2,1.5c0,0.2,0.1,0.4,0.1,0.7c0.1,0.8,0.8,1.3,1.6,1.3c0.1,0,0.2,0,0.3,0c0.9-0.1,1.5-1,1.3-1.8
		c-0.1-0.3-0.1-0.6-0.1-0.8c-0.1-0.7-0.2-0.9-0.1-1.9c0.1-0.7-0.3-1.3-0.9-1.6c-0.2-0.1-0.3-0.2-0.5-0.3l-5.3-1.6l2.2-7.3l6.3,1.9
		c0.1,0,0.3,0.1,0.4,0.1c0,0,0,0,0,0c0,0,0,0,0.1,0c0.1,0,0.2,0,0.2,0c0,0,0.1,0,0.1,0c0.1,0,0.2,0,0.2-0.1c0,0,0.1,0,0.1,0
		c0.1-0.1,0.2-0.1,0.3-0.2c0,0,0,0,0,0c0.1-0.1,0.2-0.2,0.2-0.2c0,0,0,0,0,0c0.6-0.8,1.1-1.3,1.9-2c0.5-0.5,0.6-1.1,0.4-1.7
		c0-0.2-0.1-0.5-0.2-0.7l-2.4-4.7l6.8-3.4l2.3,4.5c0,0.1,0.1,0.2,0.2,0.3c0.2,0.7,0.8,1.2,1.6,1.2c0.1,0,0.2,0,0.3,0
		c0.8-0.1,1.5-0.2,2.5-0.2c0.8,0,1.5-0.6,1.6-1.4c0-0.1,0.1-0.1,0.1-0.2l1.4-4.8l3.5,1c0,0,0,0,0,0l3.6,1.1l-1.4,4.8
		c0,0.1,0,0.1,0,0.2c-0.3,0.7-0.1,1.5,0.5,2c0.8,0.5,1.3,1,1.9,1.5c0.3,0.3,0.7,0.4,1.1,0.4c0.4,0,0.8-0.2,1.1-0.4
		c0.1,0,0.2-0.1,0.3-0.1l4.4-2.5l3.8,6.6l-4.5,2.6c-0.2,0.1-0.4,0.3-0.5,0.5c-0.5,0.4-0.8,1-0.6,1.7c0.2,1,0.4,1.7,0.5,2.7
		c0,0,0,0,0,0c0,0.1,0,0.1,0,0.2c0,0,0,0.1,0,0.1c0,0,0,0.1,0,0.1c0,0.1,0,0.1,0.1,0.2c0,0,0,0.1,0.1,0.1c0,0,0.1,0.1,0.1,0.1
		c0,0,0.1,0.1,0.1,0.1c0,0,0.1,0.1,0.1,0.1c0,0,0.1,0.1,0.1,0.1c0,0,0.1,0.1,0.1,0.1c0,0,0.1,0,0.1,0.1c0.1,0,0.1,0,0.2,0.1
		c0,0,0,0,0.1,0l6.3,1.9c0,0.7,0.4,1.4,1.1,1.6c0.2,0,0.3,0.1,0.5,0.1c0.7,0,1.3-0.4,1.5-1.1l0.3-1.2
		C293.8,94.1,293.8,93.7,293.6,93.3z"/>
</g>
<g>
	<path class="st0" d="M420.8,294.5c0.6,0.2,1.3,0.3,1.9,0.3c2.9,0,5.5-1.9,6.4-4.8c1-3.5-1-7.2-4.5-8.3c-1.1-0.3-2.2-0.4-3.3-0.1
		c-0.9,0.2-1.4,1-1.2,1.9c0.2,0.9,1,1.4,1.9,1.2c0.6-0.1,1.1-0.1,1.7,0.1c1.8,0.5,2.9,2.5,2.3,4.3c-0.5,1.8-2.5,2.9-4.3,2.3
		c-0.8-0.3-1.7,0.2-2,1.1C419.5,293.4,420,294.3,420.8,294.5z"/>
	<path class="st0" d="M439.8,288.4c-0.2-0.4-0.5-0.7-1-0.8l-2.5-0.7l2.5-1.3c0.4-0.2,0.7-0.5,0.8-0.9c0.1-0.4,0.1-0.8-0.1-1.2l-3-6
		c-0.2-0.4-0.5-0.7-0.9-0.8c-0.4-0.1-0.8-0.1-1.2,0.1l-2.9,1.5l1.1-3.7c0.1-0.4,0.1-0.8-0.1-1.2c-0.2-0.4-0.5-0.7-1-0.8l-6.4-1.9
		c-0.8-0.3-1.7,0.2-2,1.1l-1,3.3c-0.2,0-0.4,0.1-0.6,0.1l-0.4,0.1c-0.9,0.1-1.5,1-1.3,1.8c0.1,0.8,0.8,1.3,1.6,1.3
		c0.1,0,0.2,0,0.3,0c0.2,0,0.4-0.1,0.5-0.1c0.4-0.1,0.5-0.1,1-0.1c0.7,0,1.3-0.3,1.6-0.9c0.1-0.1,0.2-0.3,0.2-0.4l0.8-2.7l3.3,1
		l-1,3.3c0,0,0,0,0,0c0,0.1,0,0.1,0,0.2c0,0,0,0.1,0,0.1c0,0.1,0,0.1,0,0.2c0,0,0,0.1,0,0.1c0,0.1,0,0.1,0,0.2c0,0,0,0.1,0,0.1
		c0,0.1,0,0.1,0.1,0.2c0,0,0,0.1,0.1,0.1c0,0,0.1,0.1,0.1,0.1c0,0,0.1,0.1,0.1,0.1c0,0,0.1,0.1,0.1,0.1c0,0,0.1,0.1,0.1,0.1
		c0,0,0,0,0,0c0.4,0.3,0.7,0.6,1.2,1.1c0.3,0.3,0.7,0.5,1.2,0.5c0.1,0,0.3,0,0.4-0.1c0.2,0,0.4-0.1,0.6-0.2l2.4-1.2l1.6,3.1
		l-2.2,1.1c-0.1,0-0.1,0.1-0.1,0.1c-0.8,0.2-1.2,1-1.1,1.8c0.1,0.5,0.1,0.8,0.1,1.4c0,0.8,0.6,1.4,1.3,1.5c0,0,0.1,0,0.1,0l2.4,0.7
		l-0.5,1.6c0,0,0,0,0,0l-0.5,1.7l-2.4-0.7c0,0-0.1,0-0.1,0c-0.7-0.3-1.5-0.1-1.9,0.6c-0.3,0.5-0.6,0.8-0.9,1.1
		c-0.6,0.6-0.6,1.5-0.1,2.1c0,0.1,0,0.1,0.1,0.2l1.3,2.2l-3,1.7l-1.3-2.3c-0.1-0.2-0.3-0.4-0.4-0.5c-0.4-0.4-1-0.6-1.6-0.5
		c-0.7,0.2-1,0.2-1.6,0.3c0,0,0,0,0,0c-0.1,0-0.1,0-0.2,0c0,0-0.1,0-0.1,0c-0.1,0-0.1,0-0.2,0.1c0,0-0.1,0-0.1,0.1
		c-0.1,0-0.1,0.1-0.2,0.1c0,0-0.1,0-0.1,0.1c0,0-0.1,0.1-0.1,0.1c0,0-0.1,0.1-0.1,0.1c0,0-0.1,0.1-0.1,0.1c0,0-0.1,0.1-0.1,0.1
		c0,0,0,0.1-0.1,0.1c0,0.1,0,0.1-0.1,0.2c0,0,0,0,0,0l-1.1,3.5c-0.5,0.1-0.9,0.5-1.1,1.1c-0.3,0.8,0.2,1.7,1.1,2l0.7,0.2
		c0.2,0,0.3,0.1,0.5,0.1c0.7,0,1.3-0.5,1.5-1.1l1.1-3.7l1.6,2.8c0.3,0.5,0.8,0.8,1.4,0.8c0.3,0,0.5-0.1,0.8-0.2l5.8-3.4
		c0.4-0.2,0.6-0.6,0.7-1c0.1-0.4,0.1-0.8-0.2-1.2l-1.4-2.4l2.5,0.7c0.1,0,0.3,0.1,0.5,0.1c0.3,0,0.5-0.1,0.8-0.2
		c0.4-0.2,0.7-0.5,0.8-1l0.9-3.1c0,0,0,0,0,0l1-3.2C440.1,289.2,440,288.8,439.8,288.4z"/>
</g>
<g>
	<path class="st0" d="M22.1,240.9c-0.9,0.3-1.8,0.2-2.6-0.3c-0.8-0.4-1.4-1.2-1.7-2c-0.5-1.8,0.5-3.7,2.3-4.3
		c0.6-0.2,1.1-0.2,1.7-0.1c0.9,0.2,1.7-0.4,1.9-1.2c0.2-0.9-0.4-1.7-1.2-1.9c-1.1-0.2-2.2-0.2-3.3,0.1c-3.5,1-5.5,4.8-4.5,8.3
		c0.5,1.7,1.6,3.1,3.2,4c1,0.5,2.1,0.8,3.2,0.8c0.6,0,1.3-0.1,1.9-0.3c0.8-0.3,1.3-1.1,1.1-2C23.8,241.2,23,240.7,22.1,240.9z"/>
	<path class="st0" d="M22.8,251.8l-1.1-3.5c0,0,0,0,0,0c0-0.1,0-0.1-0.1-0.2c0,0,0-0.1-0.1-0.1c0,0-0.1-0.1-0.1-0.1
		c0,0-0.1-0.1-0.1-0.1c0,0-0.1-0.1-0.1-0.1c0,0-0.1-0.1-0.1-0.1c0,0-0.1-0.1-0.1-0.1c0,0-0.1-0.1-0.1-0.1c0,0-0.1,0-0.2-0.1
		c0,0-0.1,0-0.1-0.1c0,0-0.1,0-0.1,0c-0.1,0-0.1,0-0.2,0c0,0,0,0,0,0c-0.6,0-0.9-0.1-1.6-0.3c-0.6-0.2-1.2,0.1-1.6,0.5
		c-0.2,0.1-0.3,0.3-0.4,0.5l-1.3,2.3l-3-1.7l1.3-2.2c0-0.1,0-0.1,0.1-0.2c0.5-0.6,0.5-1.5-0.1-2.1c-0.3-0.4-0.6-0.6-0.9-1.1
		c-0.4-0.6-1.3-0.9-1.9-0.6c0,0-0.1,0-0.1,0L8.4,243l-0.5-1.7c0,0,0,0,0,0l-0.5-1.6l2.4-0.7c0,0,0.1,0,0.1,0
		c0.7-0.1,1.3-0.8,1.3-1.5c0-0.6,0-0.9,0.1-1.4c0.1-0.8-0.3-1.6-1.1-1.8c0,0-0.1-0.1-0.1-0.1L7.8,233l1.6-3.1l2.4,1.2
		c0.2,0.1,0.4,0.2,0.6,0.2c0.1,0,0.3,0.1,0.4,0.1c0.4,0,0.9-0.2,1.2-0.5c0.5-0.5,0.7-0.7,1.2-1.1c0,0,0,0,0,0c0,0,0.1-0.1,0.1-0.1
		c0,0,0.1-0.1,0.1-0.1c0,0,0.1-0.1,0.1-0.1c0,0,0.1-0.1,0.1-0.1c0,0,0-0.1,0.1-0.1c0,0,0-0.1,0.1-0.1c0,0,0-0.1,0-0.2
		c0,0,0-0.1,0-0.1c0-0.1,0-0.1,0-0.2c0-0.1,0-0.1,0-0.2c0,0,0-0.1,0-0.1c0-0.1,0-0.1,0-0.2c0,0,0,0,0,0l-1-3.3l3.3-1l0.8,2.7
		c0,0.2,0.1,0.3,0.2,0.4c0.3,0.6,0.9,0.9,1.6,0.9c0.5,0,0.6,0,1,0.1c0.1,0,0.3,0.1,0.5,0.1c0.1,0,0.2,0,0.3,0c0.8,0,1.4-0.6,1.6-1.3
		c0.1-0.9-0.4-1.7-1.3-1.8c-0.2,0-0.3-0.1-0.4-0.1c-0.2,0-0.4-0.1-0.6-0.1l-1-3.3c-0.3-0.8-1.1-1.3-2-1.1l-6.4,1.9
		c-0.4,0.1-0.8,0.4-1,0.8c-0.2,0.4-0.2,0.8-0.1,1.2l1.1,3.7l-2.9-1.5c-0.4-0.2-0.8-0.2-1.2-0.1c-0.4,0.1-0.7,0.4-0.9,0.8l-3,6
		c-0.2,0.4-0.2,0.8-0.1,1.2c0.1,0.4,0.4,0.7,0.8,0.9l2.5,1.3l-2.5,0.7c-0.4,0.1-0.8,0.4-1,0.8c-0.2,0.4-0.2,0.8-0.1,1.2l1,3.2
		c0,0,0,0,0,0l0.9,3.1c0.1,0.4,0.4,0.8,0.8,1c0.2,0.1,0.5,0.2,0.8,0.2c0.2,0,0.3,0,0.5-0.1l2.5-0.7l-1.4,2.4
		c-0.2,0.4-0.3,0.8-0.2,1.2c0.1,0.4,0.4,0.8,0.7,1l5.8,3.4c0.2,0.1,0.5,0.2,0.8,0.2c0.1,0,0.3,0,0.4-0.1c0.4-0.1,0.8-0.4,1-0.7
		l1.6-2.8l1.1,3.7c0.2,0.7,0.8,1.1,1.5,1.1c0.2,0,0.3,0,0.5-0.1l0.7-0.2c0.8-0.3,1.3-1.1,1.1-2C23.8,252.4,23.4,252,22.8,251.8z"/>
</g>
<g>
	<path class="st0" d="M164.7,338.7c1,0.3,2.1,0.5,3.1,0.5c1.8,0,3.6-0.4,5.2-1.3c2.6-1.4,4.4-3.7,5.2-6.5c0.5-1.7,0.6-3.6,0.2-5.4
		c-0.2-0.9-1-1.4-1.9-1.2c-0.9,0.2-1.4,1-1.2,1.9c0.3,1.2,0.2,2.5-0.2,3.8c-0.6,2-1.9,3.6-3.7,4.6c-1.8,1-3.9,1.2-5.8,0.6
		c-2-0.6-3.6-1.9-4.6-3.7c-1-1.8-1.2-3.9-0.6-5.8c0.3-0.8-0.2-1.7-1.1-2c-0.8-0.3-1.7,0.2-2,1.1C155.7,331,159,337,164.7,338.7z"/>
	<path class="st0" d="M197.6,330.4l-6.9-2.1c0-0.7-0.1-1.2-0.2-1.8c0-0.2-0.1-0.5-0.1-0.8c-0.1-0.9-1-1.5-1.8-1.3
		c-0.9,0.1-1.5,1-1.3,1.8c0.1,0.4,0.1,0.6,0.2,0.9c0.2,0.8,0.2,1.1,0.1,2.2c-0.1,0.7,0.3,1.3,0.9,1.6c0.2,0.1,0.3,0.2,0.5,0.3
		l6.3,1.9l-2.6,8.7l-7.3-2.2c0,0,0,0,0,0c-0.1,0-0.1,0-0.2,0c-0.1,0-0.1,0-0.2,0c0,0-0.1,0-0.1,0c-0.1,0-0.1,0-0.2,0
		c0,0-0.1,0-0.1,0c-0.1,0-0.1,0-0.2,0c0,0-0.1,0-0.1,0.1c-0.1,0-0.1,0-0.2,0.1c0,0-0.1,0-0.1,0.1c0,0-0.1,0.1-0.1,0.1
		c0,0-0.1,0.1-0.1,0.1c0,0-0.1,0.1-0.1,0.1c0,0,0,0,0,0c-0.7,0.9-1.3,1.5-2.1,2.3c-0.5,0.5-0.6,1.2-0.4,1.8c0,0.2,0,0.5,0.2,0.7
		l2.8,5.5l-8.1,4.1l-2.7-5.3c-0.1-0.1-0.1-0.2-0.2-0.3c-0.2-0.9-1-1.4-1.9-1.3c-0.9,0.2-1.7,0.2-2.8,0.3c-0.8,0-1.4,0.6-1.5,1.4
		c0,0.1-0.1,0.1-0.1,0.2l-1.7,5.7l-4.2-1.2c0,0,0,0,0,0l-4.4-1.3l1.7-5.7c0-0.1,0-0.2,0-0.2c0.3-0.7,0.1-1.6-0.5-2
		c-0.9-0.6-1.5-1.1-2.2-1.8c-0.6-0.6-1.6-0.6-2.3,0c-0.1,0-0.2,0.1-0.3,0.1l-5.2,3l-4.6-7.9l5.3-3.1c0.2-0.1,0.4-0.3,0.5-0.5
		c0.5-0.4,0.8-1,0.6-1.7c-0.3-1.2-0.5-1.9-0.5-3.1c0,0,0,0,0,0c0-0.1,0-0.1,0-0.2c0,0,0-0.1,0-0.1c0,0,0-0.1,0-0.1
		c0-0.1,0-0.1-0.1-0.2c0,0,0-0.1,0-0.1c0-0.1-0.1-0.1-0.1-0.2c0,0,0,0,0,0c-0.1-0.1-0.1-0.1-0.2-0.2c0,0,0,0,0,0
		c-0.2-0.1-0.3-0.2-0.6-0.3c0,0,0,0,0,0l-7.4-2.2c0.1-0.8-0.4-1.5-1.1-1.8c-0.8-0.3-1.7,0.2-2,1.1l-0.4,1.3c-0.3,0.8,0.2,1.7,1.1,2
		l7.8,2.3c0.1,0.5,0.2,1,0.3,1.6l-6.2,3.6c-0.8,0.4-1,1.4-0.6,2.2l6.2,10.6c0.2,0.4,0.6,0.6,1,0.7c0.1,0,0.3,0.1,0.4,0.1
		c0.3,0,0.6-0.1,0.8-0.2l6.2-3.6c0.2,0.2,0.5,0.4,0.7,0.6l-2,6.6c-0.1,0.4-0.1,0.8,0.1,1.2c0.2,0.4,0.5,0.7,1,0.8l5.7,1.7
		c0,0,0,0,0,0l5.9,1.7c0.2,0,0.3,0.1,0.5,0.1c0.7,0,1.3-0.5,1.5-1.1l2-6.6c0.3,0,0.6,0,0.9-0.1l3.2,6.4c0.2,0.4,0.5,0.7,0.9,0.8
		c0.2,0.1,0.3,0.1,0.5,0.1c0.2,0,0.5-0.1,0.7-0.2l11-5.5c0.4-0.2,0.7-0.5,0.8-0.9c0.1-0.4,0.1-0.8-0.1-1.2l-3.2-6.3
		c0.4-0.4,0.7-0.7,1.1-1.2l7.8,2.3c0.1,0,0.3,0.1,0.5,0.1c0.3,0,0.5-0.1,0.8-0.2c0.4-0.2,0.7-0.5,0.8-1l3.5-11.8
		C199,331.5,198.5,330.6,197.6,330.4z"/>
</g>
<path class="st0" d="M267.2,22.2C267.2,22.2,267.2,22.2,267.2,22.2C267.2,22.2,267.2,22.2,267.2,22.2c-1.7-2.7-5.3-2.5-7.1-1.9
	c-0.1,0-0.3,0.1-0.4,0.2l-15.2,9.6l-0.1-0.2c-0.1-0.1-0.2-0.2-0.3-0.3c-0.8-0.8-3-1.9-5.2-0.6c0,0,0,0,0,0c-2.2,1.4-2.1,3.8-1.7,4.9
	c0,0.1,0.1,0.3,0.2,0.4l0.3,0.5l-30.1,19c-0.6,0.4-3.8,2.3-4.7,4.3c-0.2,0.3-1.4,1.2-2.2,1.8c-2.7,2-6.1,4.4-4.3,7.2
	c0,0.1,0.1,0.1,0.1,0.2c0,0.1,0.1,0.2,0.1,0.2c0.6,1,1.5,1.4,2.5,1.4c1.8,0,4-1.2,5.8-2.2c0.9-0.5,2.1-1.2,2.5-1.2
	c2.2,0.1,5.3-2,5.9-2.4l30.1-19l0,0.1c0.1,0.1,0.2,0.2,0.3,0.3c0.6,0.5,1.7,1.2,3.1,1.2c0.7,0,1.4-0.2,2.1-0.6c0,0,0,0,0,0
	c2.2-1.4,2.1-3.8,1.7-4.9c0-0.1-0.1-0.3-0.2-0.4l-0.1-0.2l15.2-9.6c0.1-0.1,0.2-0.2,0.4-0.3C267.1,28,268.8,24.9,267.2,22.2z
	 M211.5,60.2c-1.2,0.8-3.2,1.9-4.1,1.8c-1,0-2.2,0.6-4.1,1.6c-1.1,0.6-3.4,1.8-4.2,1.8c0,0,0,0,0,0c0,0,0,0,0-0.1
	c0.3-0.8,2.4-2.3,3.4-3c1.8-1.3,2.8-2.1,3.2-3c0.3-0.7,2-2,3.5-2.9l30.1-19l1.2,1.9c0,0,0,0,0,0l1.2,1.8L211.5,60.2z M242.9,37.2
	C242.9,37.2,242.9,37.2,242.9,37.2l-1.8-2.8c0,0,0,0,0,0c0,0,0,0,0,0l-1-1.6c0-0.3-0.1-0.8,0.4-1.1c0,0,0,0,0,0
	c0.5-0.3,0.9-0.1,1.2,0.1l2.8,4.4c0,0,0,0,0,0l3.1,4.9c0.1,0.3,0.1,0.8-0.4,1.1c0,0,0,0,0,0c-0.5,0.3-0.9,0.1-1.2-0.1L242.9,37.2z
	 M263.6,27.2l-15,9.5l-1-1.7c0,0,0,0,0,0l-1.4-2.2l15-9.4c0.8-0.2,2.7-0.4,3.3,0.6c0,0,0,0,0,0c0,0,0,0,0,0
	C265.1,24.9,264.1,26.6,263.6,27.2z"/>
<g>
	<path class="st0" d="M228.2,427.9c0.9,0,1.6-1.1,1.6-2c0-0.1,0-0.5,0-0.6c-0.1-4.3-2.1-12.1-9.2-12.4c-2.6-0.1-4.6,1.2-5.9,2.6
		c-1.1-3.3-3.6-6.6-8.6-6.6c-5.4,0-8.1,3.9-9.1,6.9c-1-0.2-2.5-0.1-4,0.2c-5.9,1.1-6.8,7.2-6.4,10.2c0.1,0.8,0.8,1.7,1.6,1.7H228.2
		C228.2,427.9,228.2,427.9,228.2,427.9z M189.8,424.7c0.1-1.6,0.7-4.9,3.7-5.4c0.6-0.1,1.1-0.5,1.6-0.5c1.3,0,1.9,0.3,1.9,0.3v0
		c0.8,0.3,1.2,0.3,1.7,0.1c0.5-0.2,1-0.7,1-1.2c0-0.2,0.9-5.9,6.4-5.9c5.9,0,6.1,7.5,6.2,7.8c0,0.8,0.6,1.5,1.3,1.6
		c0.8,0.1,1.5-0.2,1.8-0.9c0,0,1.7-4.3,5.1-4.1c4.5,0.2,5.7,5.8,6,8.2H189.8z"/>
	<path class="st0" d="M217.1,435.1c0,0.9,0.7,1.6,1.6,1.6h18.4c0.9,0,1.6-0.7,1.6-1.6c0-0.9-0.7-1.6-1.6-1.6h-18.4
		C217.8,433.5,217.1,434.2,217.1,435.1z"/>
	<path class="st0" d="M214.7,435.1c0-0.9-0.7-1.6-1.6-1.6h-14.4c-0.9,0-1.6,0.7-1.6,1.6c0,0.9,0.7,1.6,1.6,1.6h14.4
		C213.9,436.7,214.7,436,214.7,435.1z"/>
	<path class="st0" d="M249.9,443.2h-24.1c-0.9,0-1.6,0.7-1.6,1.6s0.7,1.6,1.6,1.6h24.1c0.9,0,1.6-0.7,1.6-1.6
		S250.8,443.2,249.9,443.2z"/>
	<path class="st0" d="M218.7,443.2C218.7,443.2,218.7,443.2,218.7,443.2l-15.1-0.2c-0.9,0-1.6,0.4-1.6,1.3c0,0.9,0.7,2.1,1.6,2.1
		c0,0,0,0,0,0l15-0.3c0.9,0,1.6-0.9,1.6-1.8C220.3,443.3,219.6,443.2,218.7,443.2z"/>
</g>
<g>
	<path class="st0" d="M302.5,579.1c0.9,0,1.6-1.1,1.6-2c0-0.1,0-0.5,0-0.6c-0.1-4.3-2.1-12.1-9.2-12.4c-2.6-0.1-4.6,1.2-5.9,2.6
		c-1.1-3.3-3.6-6.6-8.6-6.6c-5.4,0-8.1,3.9-9.1,6.9c-1-0.2-2.5-0.1-4,0.2c-5.9,1.1-6.8,7.2-6.4,10.2c0.1,0.8,0.8,1.7,1.6,1.7H302.5
		C302.5,579.1,302.5,579.1,302.5,579.1z M264.2,575.9c0.1-1.6,0.7-4.9,3.7-5.4c0.6-0.1,1.1-0.5,1.6-0.5c1.3,0,1.9,0.3,1.9,0.3v0
		c0.8,0.3,1.2,0.3,1.7,0.1c0.5-0.2,1-0.7,1-1.2c0-0.2,0.9-5.9,6.4-5.9c5.9,0,6.1,7.5,6.2,7.8c0,0.8,0.6,1.5,1.3,1.6
		c0.8,0.1,1.5-0.2,1.8-0.9c0,0,1.7-4.3,5.1-4.1c4.5,0.2,5.7,5.8,6,8.2H264.2z"/>
</g>
<g>
	<path class="st0" d="M518.6,89.1c-0.1-7.4-3.3-21.1-15.3-21.6c-5.3-0.2-8.9,3-11,5.8c-1.4-6.2-5.6-13.4-14.9-13.4
		c-9.7,0-14,7.5-15.4,12.7c-0.9-0.2-2.1-0.4-3.6-0.4c-1.3,0-2.7,0.2-4.1,0.5c-9.7,1.8-11,12-10.4,17.1c0.1,0.8,0.8,1.8,1.6,1.8H517
		c0,0,0,0,0,0c0.9,0,1.6-1.1,1.6-2C518.6,89.6,518.6,89.1,518.6,89.1z M447,88.4c-0.1-3.2,0.6-11,7.9-12.3c1.2-0.2,2.4-0.7,3.5-0.7
		c2.7,0,4.1,0.7,4.1,0.7c0.5,0.3,1,0.3,1.5,0c0.5-0.2,0.8-0.7,0.9-1.2c0.1-0.5,1.8-11.8,12.6-11.8c11.9,0,12.3,14.6,12.3,15.2
		c0,0.8,0.6,1.5,1.3,1.6c0.8,0.1,1.5-0.2,1.8-0.9c0-0.1,3.4-8.3,10.4-8c9.9,0.4,11.8,13.4,12.1,17.4H447z"/>
	<path class="st0" d="M476.7,98h-22.5c-0.9,0-1.6,0.7-1.6,1.6s0.7,1.6,1.6,1.6h22.5c0.9,0,1.6-0.7,1.6-1.6S477.6,98,476.7,98z"/>
	<path class="st0" d="M431,101.2h16.8c0.9,0,1.6-0.7,1.6-1.6s-0.7-1.6-1.6-1.6H431c-0.9,0-1.6,0.7-1.6,1.6S430.1,101.2,431,101.2z"
		/>
	<path class="st0" d="M473.5,106h-26.5c-0.9,0-1.6,0.7-1.6,1.6c0,0.9,0.7,1.6,1.6,1.6h26.5c0.9,0,1.6-0.7,1.6-1.6
		C475.1,106.7,474.4,106,473.5,106z"/>
	<path class="st0" d="M437.4,106h-17.6c-0.9,0-1.6,0.7-1.6,1.6c0,0.9,0.7,1.6,1.6,1.6h17.6c0.9,0,1.6-0.7,1.6-1.6
		C439,106.7,438.3,106,437.4,106z"/>
</g>
<g>
	<path class="st0" d="M341.2,379.4h-48.9c-0.9,0-1.6,0.7-1.6,1.6V430c0,0.9,0.7,1.6,1.6,1.6h48.9c0.9,0,1.6-0.7,1.6-1.6v-48.9
		C342.8,380.2,342.1,379.4,341.2,379.4z M339.6,382.7v31.2l-9.4-13.5c-0.3-0.4-0.7-0.7-1.2-0.7c-0.5,0-1,0.2-1.3,0.6l-11,13
		l-9.7-19.9c-0.2-0.5-0.7-0.8-1.3-0.9c-0.6,0-1.1,0.2-1.4,0.6l-10.3,14.1v-24.4H339.6z M293.9,412.5l11.3-15.4l15.3,31.3h-26.6
		V412.5z M324.1,428.4l-5.9-12.1l10.6-12.5l10.5,15c0.1,0.2,0.2,0.3,0.4,0.4v9.1H324.1z"/>
	<path class="st0" d="M329.5,396.9c3,0,5.5-2.5,5.5-5.5c0-3-2.5-5.5-5.5-5.5c-3,0-5.5,2.5-5.5,5.5
		C324,394.4,326.5,396.9,329.5,396.9z M329.5,389.1c1.3,0,2.3,1,2.3,2.3c0,1.3-1,2.3-2.3,2.3c-1.3,0-2.3-1-2.3-2.3
		C327.2,390.1,328.2,389.1,329.5,389.1z"/>
</g>
<path class="st0" d="M199.1,279.3c0.4-0.5,0.4-1.2,0.1-1.8l-21.5-36.2v-2.4c0-0.9-0.7-1.6-1.6-1.6c-0.9,0-1.6,0.7-1.6,1.6v2.4
	L153,277.5c-0.3,0.6-0.3,1.3,0.1,1.8l9.8,13v4h-1.2c-0.9,0-1.6,0.7-1.6,1.6v5.1c0,0.9,0.7,1.6,1.6,1.6h1.2v9.3
	c0,0.9,0.7,1.6,1.6,1.6h23.4c0.9,0,1.6-0.7,1.6-1.6v-9.3h3.1c0.9,0,1.6-0.7,1.6-1.6v-5.1c0-0.9-0.7-1.6-1.6-1.6h-3.1v-4L199.1,279.3
	z M186.2,312.3H166v-7.7h20.1V312.3z M190.9,301.4h-27.7v-1.9h27.7V301.4z M166,296.3v-4.5c0-0.3-0.1-0.7-0.3-1l-9.4-12.6l18.2-30.7
	v23.3h-2.1c-0.9,0-1.6,0.7-1.6,1.6c0,0.1,0,0.2,0,0.3c0,0.1,0,0.2,0,0.3v6.4c0,0.9,0.7,1.6,1.6,1.6h7.5c0.9,0,1.6-0.7,1.6-1.6v-7
	c0-0.9-0.7-1.6-1.6-1.6h-2.1v-23.3l18.2,30.7l-9.4,12.6c-0.2,0.3-0.3,0.6-0.3,1v4.5H166z M178.2,274.1v3.8H174v-3.8H178.2z"/>
<path class="st0" d="M224.8,193.2c-0.4,0-9.4-0.8-14.8,4.1c-2.3,2.1-3.5,4.8-3.9,8.1H204c-0.9,0-1.6,0.7-1.6,1.6c0,0.1,0,0.2,0,0.3
	c0,0.1,0,0.2,0,0.3v6.4c0,0.9,0.7,1.6,1.6,1.6h2.1c-0.3,4.7-2,8.4-5,11.2c-6.1,5.5-15.9,5.8-19.6,5.7v-2c0-0.9-0.7-1.6-1.6-1.6h-7.5
	c-0.9,0-1.6,0.7-1.6,1.6c0,0.1,0,0.2,0,0.3c0,0.1,0,0.2,0,0.3v1.4c-3.4-0.2-15.2-0.2-22.6,6.5c-4,3.7-6.1,8.7-6.1,14.9h-2.1
	c-0.9,0-1.6,0.7-1.6,1.6c0,0.1,0,0.2,0,0.3c0,0.1,0,0.2,0,0.3v6.4c0,0.9,0.7,1.6,1.6,1.6h2.2c0,23.5-7.6,42.2-22.4,55.7
	c-30.4,27.6-82.4,24.9-89.1,24.4v-1.6c0-0.9-0.7-1.6-1.6-1.6h-7.5c-0.9,0-1.6,0.7-1.6,1.6c0,0.1,0,0.2,0,0.3c0,0.1,0,0.2,0,0.3v6.4
	c0,0.9,0.7,1.6,1.6,1.6H29c0.9,0,1.6-0.7,1.6-1.6v-2.2c1.6,0.1,4.9,0.3,9.4,0.3c18.4,0,57-2.9,81.9-25.6
	c15.5-14.1,23.4-33.7,23.5-58.1h2.1c0.9,0,1.6-0.7,1.6-1.6v-7c0-0.9-0.7-1.6-1.6-1.6h-2.1c0.1-5.3,1.8-9.5,5.1-12.5
	c6.6-6,17.7-5.8,20.5-5.7v1.9c0,0.9,0.7,1.6,1.6,1.6h7.5c0.9,0,1.6-0.7,1.6-1.6v-1.8c0.3,0,0.7,0,1.1,0c4.7,0,14.3-0.8,20.7-6.6
	c3.7-3.4,5.8-7.9,6.1-13.6h2.2c0.9,0,1.6-0.7,1.6-1.6v-7c0-0.9-0.7-1.6-1.6-1.6h-2c0.3-2.4,1.2-4.2,2.8-5.7c4.4-4,12.2-3.3,12.3-3.3
	c0.9,0.1,1.7-0.6,1.7-1.4C226.4,194.1,225.7,193.3,224.8,193.2z M27.3,348.3h-4.2v-3.8h4.2V348.3z M145.7,261h-4.2v-3.8h4.2V261z
	 M178.2,236H174v-3.8h4.2V236z M209.9,212.4h-4.2v-3.8h4.2V212.4z"/>
<g>
	<g>
		<path class="st0" d="M227.2,53.9c-0.5,0-1-0.3-1.3-0.7l-4.2-6.4c-0.5-0.7-0.3-1.7,0.5-2.2c0.7-0.5,1.7-0.3,2.2,0.5l4.2,6.4
			c0.5,0.7,0.3,1.7-0.5,2.2C227.8,53.8,227.5,53.9,227.2,53.9z"/>
	</g>
</g>
<g>
	<path class="st0" d="M548.9,511.9c-0.4-0.2-0.8-0.3-1.2-0.2l-28.7,6.6c-0.9,0.2-1.4,1.1-1.2,1.9l4.7,20.6c0.1,0.4,0.4,0.8,0.7,1
		c0.3,0.2,0.6,0.2,0.9,0.2c0.1,0,0.2,0,0.4,0l28.7-6.6c0.9-0.2,1.4-1.1,1.2-1.9l-4.7-20.6C549.6,512.5,549.3,512.1,548.9,511.9z
		 M525.4,538.5l-4-17.5l25.5-5.9l4,17.5L525.4,538.5z"/>
	<path class="st0" d="M581.9,494.6l-40.6-3.6c-0.4,0-0.8,0.1-1.2,0.4c-0.3,0.3-0.5,0.7-0.6,1.1l-1.4,15.6l-25.9,6
		c-0.4,0.1-0.8,0.4-1,0.7c-0.2,0.4-0.3,0.8-0.2,1.2l9.1,39.7c0.2,0.7,0.8,1.2,1.6,1.2c0.1,0,0.2,0,0.4,0l39.7-9.1
		c0.4-0.1,0.8-0.4,1-0.7c0.2-0.4,0.3-0.8,0.2-1.2l-2.1-8.9l17,1.5c0,0,0.1,0,0.1,0c0.4,0,0.7-0.1,1-0.4c0.3-0.3,0.5-0.7,0.6-1.1
		l3.6-40.6C583.4,495.4,582.8,494.7,581.9,494.6z M523,553.4l-8.4-36.6l36.6-8.4l8.4,36.6L523,553.4z M553.9,506.1
		c-0.2-0.9-1.1-1.4-1.9-1.2l-4.7,1.1l0.5-5.5l26.1,2.3l-1.6,17.9l-15.4-1.4L553.9,506.1z M576.7,535l-16.5-1.5l-2.5-11l15.9,1.4
		c0,0,0.1,0,0.1,0c0.4,0,0.7-0.1,1-0.4c0.3-0.3,0.5-0.7,0.6-1.1l1.9-21.1c0-0.4-0.1-0.8-0.4-1.2c-0.3-0.3-0.7-0.5-1.1-0.6l-29.3-2.6
		c-0.9-0.1-1.7,0.6-1.7,1.5l-0.7,8.1l-2.5,0.6l1.1-13l37.4,3.3L576.7,535z"/>
</g>
<g>
	<path class="st0" d="M550.6,92.3c0,0-0.1-0.1-0.1-0.1c0,0-0.1-0.1-0.1-0.1c0-0.1-0.1-0.1-0.1-0.1c-3.2-3.2-7-2.6-8.6-1.9
		c-0.8,0.4-1.1,1.3-0.8,2.1c0.4,0.8,1.3,1.1,2.1,0.8c0,0,2.7-1.2,5.1,1.3c2.2,2.6,0.9,5,0.8,5.3c-0.5,0.8-0.2,1.7,0.5,2.2
		c0.3,0.2,0.5,0.2,0.8,0.2c0.5,0,1.1-0.3,1.4-0.8c0.9-1.5,1.9-5.3-0.9-8.8C550.7,92.4,550.6,92.4,550.6,92.3z"/>
	<path class="st0" d="M555.4,87.7c-4.7-5.2-10.5-4.3-13-3.2c-0.8,0.4-1.1,1.3-0.8,2.1c0.4,0.8,1.3,1.2,2.1,0.8
		c0.2-0.1,5-2.2,9.3,2.5c4.2,4.7,1.6,9.2,1.5,9.4c-0.5,0.8-0.2,1.7,0.5,2.2c0.3,0.2,0.5,0.2,0.8,0.2c0.5,0,1.1-0.3,1.4-0.8
		C558.6,98.7,560.1,93,555.4,87.7C555.4,87.7,555.4,87.7,555.4,87.7z"/>
	<path class="st0" d="M560.2,83.3C560.2,83.3,560.2,83.3,560.2,83.3c-7.8-8.7-17.2-4.4-17.3-4.4c-0.8,0.4-1.1,1.3-0.8,2.1
		c0.4,0.8,1.3,1.1,2.1,0.8c0.3-0.1,7.4-3.3,13.5,3.6c0,0,0,0,0,0c6.1,6.9,2.3,13.5,2.1,13.8c-0.5,0.8-0.2,1.7,0.5,2.2
		c0.3,0.2,0.5,0.2,0.8,0.2c0.5,0,1.1-0.3,1.4-0.8C562.7,100.8,567.9,92,560.2,83.3z"/>
	<path class="st0" d="M544.8,97.2c-0.8-0.6-1.9-0.4-2.5,0.5c-0.6,0.8-0.4,1.9,0.5,2.5c0.8,0.6,1.9,0.4,2.5-0.5
		C545.8,98.9,545.6,97.8,544.8,97.2z"/>
</g>
<path class="st0" d="M565.3,455.1l-77.9-93.2c-0.6-0.8-1.7-0.9-2.5-0.2l-21.8,18.2l1.1-1.5c0.6-0.8,0.5-1.9-0.3-2.5
	c-0.8-0.6-1.9-0.5-2.5,0.3l-10,13c-0.2-0.3-0.4-0.5-0.7-0.7c-0.9-0.5-1.9-0.2-2.4,0.7L437,409.5l0.1-0.2c0.3-0.9-0.2-1.9-1.1-2.2
	c-0.9-0.3-1.9,0.2-2.2,1.1l-9.4,28.8c-0.1,0.4-0.1,0.9,0.1,1.4c0.2,0.4,0.6,0.7,1,0.9l112.4,36.8l2.1,1.2c0,0,0,0,0,0l0.3,0.2
	c0.3,0.2,0.6,0.2,0.9,0.2c0.6,0,1.2-0.3,1.6-0.9c0-0.1,0.1-0.2,0.1-0.3c0.1-0.1,0.1-0.2,0.2-0.3l22.2-18.6
	C565.9,457,566,455.9,565.3,455.1z M547.7,439.5l-20.5,17.2l-10.1-12.1l20.5-17.2L547.7,439.5z M535.3,424.7l-20.5,17.2l-10.3-12.4
	l20.5-17.2L535.3,424.7z M505.7,446.5l-13.5-10.4c0.1-0.1,0.3-0.2,0.4-0.4l5.9-7.7l11,13.2l-3.5,4.6
	C505.9,446,505.8,446.3,505.7,446.5z M520.3,462.2l-17.1-9.6c0.1-0.1,0.2-0.2,0.2-0.3l1.2-2.2L520.3,462.2z M474.2,422.2l-12.4-9.5
	l11.4-14.8l1.3,1.5c0.1,0.1,0.1,0.2,0.2,0.3c0.1,0.1,0.2,0.2,0.3,0.3l8.5,10.1L474.2,422.2z M485.9,412.9l2,2.4c0,0,0,0,0,0
	c0,0,0,0,0,0l8.3,9.9l-6.4,8.3c-0.1,0.1-0.2,0.3-0.2,0.5l-12.5-9.7L485.9,412.9z M470.8,424l-4.5,8l-11.9-6.7
	c0.1-0.1,0.2-0.2,0.2-0.3l5.3-9.4L470.8,424z M473.7,426.2l11.7,9.1l-3.1,5.6l-12.8-7.2L473.7,426.2z M488.2,437.5l13.6,10.5
	l-1.5,2.6c-0.1,0.1-0.1,0.2-0.2,0.4l-14.8-8.3L488.2,437.5z M522.7,409.7l-20.5,17.2l-10.4-12.4l20.5-17.2L522.7,409.7z M510,394.5
	l-20.5,17.2l-10.8-13l20.5-17.2L510,394.5z M485.8,365.6l11.1,13.3L476.4,396l-11.1-13.3L485.8,365.6z M461.1,382.6
	c0,0.4,0.2,0.7,0.4,1L471,395l-11.9,15.4l-12.2-9.4L461.1,382.6z M444.4,403.6l12.8,9.8l-5.5,9.8c-0.1,0.1-0.1,0.2-0.2,0.4l-14-7.8
	L444.4,403.6z M428.2,436.4l6-18.4c0,0,0,0,0,0l13.1,7.3l-5.1,15.6L428.2,436.4z M445.5,442.1l4.9-14.9l13.4,7.5
	c-0.2,0.2-0.3,0.4-0.4,0.7l-3.7,11.4L445.5,442.1z M476.3,452.2l-13.2-4.3l3.7-11.4c0,0,0-0.1,0-0.1l12.4,6.9L476.3,452.2z
	 M493.8,457.9l-14.1-4.6l2.7-8.3l13.2,7.4L493.8,457.9z M497.2,459.1l1.6-4.8l23,12.9L497.2,459.1z M508.3,448.5
	c0.2-0.1,0.4-0.3,0.6-0.5l3.1-4l17.1,20.5L508.3,448.5z M540.9,473.2l-11.5-13.8l20.5-17.2l11.5,13.8L540.9,473.2z M544.3,454.9
	c-1.5,1.1-1.9,3.2-0.8,4.7c1.1,1.5,3.2,1.9,4.7,0.8c1.5-1.1,1.9-3.2,0.9-4.7C548,454.2,545.9,453.8,544.3,454.9z"/>
<g>
	<path class="st0" d="M183.6,50.6c0-0.9-0.7-1.6-1.6-1.6h-12.4c-0.9,0-1.6,0.7-1.6,1.6v7.3c0,0.9,0.7,1.6,1.6,1.6H182
		c0.9,0,1.6-0.7,1.6-1.6V50.6z M180.4,56.3h-9.2v-4.1h9.2V56.3z"/>
	<path class="st0" d="M486.9,181.1h-34.8c-0.9,0-1.6,0.7-1.6,1.6V193c0,0.9,0.7,1.6,1.6,1.6h34.8c0.9,0,1.6-0.7,1.6-1.6v-10.3
		C488.5,181.8,487.8,181.1,486.9,181.1z M485.3,191.4h-31.6v-7.1h31.6V191.4z"/>
	<path class="st0" d="M182,93h-12.4c-0.9,0-1.6,0.7-1.6,1.6v7.3c0,0.9,0.7,1.6,1.6,1.6H182c0.9,0,1.6-0.7,1.6-1.6v-7.3
		C183.6,93.8,182.9,93,182,93z M180.4,100.4h-9.2v-4.1h9.2V100.4z"/>
	<path class="st0" d="M444.6,165.6h-27.4c-0.9,0-1.6,0.7-1.6,1.6v56.9c0,0.9,0.7,1.6,1.6,1.6h27.4c0.9,0,1.6-0.7,1.6-1.6v-56.9
		C446.2,166.3,445.5,165.6,444.6,165.6z M443,222.5h-24.2v-53.7H443V222.5z"/>
	<path class="st0" d="M70,139.3h-6.3c-0.9,0-1.6,0.7-1.6,1.6c0,0.9,0.7,1.6,1.6,1.6H70c0.9,0,1.6-0.7,1.6-1.6
		C71.6,140,70.9,139.3,70,139.3z"/>
	<path class="st0" d="M188.5,38.2H182c-0.9,0-1.6,0.7-1.6,1.6c0,0.9,0.7,1.6,1.6,1.6h6.5c0.9,0,1.6-0.7,1.6-1.6
		C190.1,38.9,189.4,38.2,188.5,38.2z"/>
	<path class="st0" d="M486.9,165.6h-34.8c-0.9,0-1.6,0.7-1.6,1.6v10.3c0,0.9,0.7,1.6,1.6,1.6h34.8c0.9,0,1.6-0.7,1.6-1.6v-10.3
		C488.5,166.3,487.8,165.6,486.9,165.6z M485.3,175.9h-31.6v-7.1h31.6V175.9z"/>
	<path class="st0" d="M486.9,196.7h-34.8c-0.9,0-1.6,0.7-1.6,1.6v10.3c0,0.9,0.7,1.6,1.6,1.6h34.8c0.9,0,1.6-0.7,1.6-1.6v-10.3
		C488.5,197.4,487.8,196.7,486.9,196.7z M485.3,207h-31.6v-7.1h31.6V207z"/>
	<path class="st0" d="M199.6,63.6c0.9,0,1.6-0.7,1.6-1.6V50.6c0-0.9-0.7-1.6-1.6-1.6h-12.4c-0.9,0-1.6,0.7-1.6,1.6v51.4
		c0,0.9,0.7,1.6,1.6,1.6h12.4c0.9,0,1.6-0.7,1.6-1.6V68.3c0-0.9-0.7-1.6-1.6-1.6c-0.9,0-1.6,0.7-1.6,1.6v32.1h-9.2V52.2h9.2V62
		C198,62.9,198.8,63.6,199.6,63.6z"/>
	<path class="st0" d="M558.6,165.6h-27.4c-0.9,0-1.6,0.7-1.6,1.6v56.9c0,0.9,0.7,1.6,1.6,1.6h27.4c0.9,0,1.6-0.7,1.6-1.6v-56.9
		C560.2,166.3,559.5,165.6,558.6,165.6z M557,222.5h-24.2v-53.7H557V222.5z"/>
	<path class="st0" d="M183.6,65.4c0-0.9-0.7-1.6-1.6-1.6h-12.4c-0.9,0-1.6,0.7-1.6,1.6v7.3c0,0.9,0.7,1.6,1.6,1.6H182
		c0.9,0,1.6-0.7,1.6-1.6V65.4z M180.4,71.2h-9.2v-4.1h9.2V71.2z"/>
	<path class="st0" d="M522.4,165.6H495c-0.9,0-1.6,0.7-1.6,1.6v56.9c0,0.9,0.7,1.6,1.6,1.6h27.4c0.9,0,1.6-0.7,1.6-1.6v-56.9
		C524,166.3,523.3,165.6,522.4,165.6z M520.8,222.5h-24.2v-53.7h24.2V222.5z"/>
	<path class="st0" d="M183.6,79.5c0-0.9-0.7-1.6-1.6-1.6h-12.4c-0.9,0-1.6,0.7-1.6,1.6v7.3c0,0.9,0.7,1.6,1.6,1.6H182
		c0.9,0,1.6-0.7,1.6-1.6V79.5z M180.4,85.2h-9.2v-4.1h9.2V85.2z"/>
	<path class="st0" d="M404.6,134.8C404.6,134.8,404.6,134.8,404.6,134.8l0,100.9c0,0.9,0.7,1.6,1.6,1.6h162.9c0.9,0,1.6-0.7,1.6-1.6
		V134.8c0-0.9-0.7-1.6-1.6-1.6H406.2C405.3,133.2,404.6,133.9,404.6,134.8z M407.8,136.4h159.7v97.7H407.8V136.4z"/>
	<path class="st0" d="M486.9,212.2h-34.8c-0.9,0-1.6,0.7-1.6,1.6v10.3c0,0.9,0.7,1.6,1.6,1.6h34.8c0.9,0,1.6-0.7,1.6-1.6v-10.3
		C488.5,212.9,487.8,212.2,486.9,212.2z M485.3,222.5h-31.6v-7.1h31.6V222.5z"/>
	<path class="st0" d="M165.4,38.1c0.1-0.5,0.8-2.7,2-2.7H202c0.7,0.4,2.3,1.5,2.3,3.4v3.9h-38.9V38.1z M572.3,124.6
		c2.9,0,5.1,0.8,6.7,2.5c2.8,2.9,2.7,7.6,2.7,7.7c0,0,0,0,0,0c0,0,0,0,0,0V251H393.8V135.7c0.1-0.9,1.1-11.1,12.4-11.1H572.3z
		 M510.8,254.2c-1.2,2.6-5.3,3.7-6.1,3.9H473c-0.8-0.2-4.8-1.3-6.1-3.9H510.8z M207.4,97h45.8c0,0,0,0,0,0H407c4.4,0,7.6,1,9.4,2.9
		c1.5,1.6,1.6,3.4,1.6,3.8c0,0,0,0,0,0v17.6h-9v-7.9c0-0.9-0.7-1.6-1.6-1.6h-200V97z M165.4,113.5
		C165.4,113.5,165.4,113.5,165.4,113.5C165.4,113.5,165.4,113.5,165.4,113.5l0-3.4h38.9v9.7c0,0.3-0.2,1.6-1.2,1.6h-35.3
		c-0.6,0-1.4-0.1-1.8-0.4c-0.4-0.5-0.4-1.6-0.4-2.7c0-0.7,0-1.3-0.1-2V113.5z M162.2,116.5c0.1,0.5,0.1,1,0.1,1.7c0,1.6,0,3.6,1.4,5
		c0.9,0.9,2.3,1.4,4.1,1.4H203c3.3,0,4.3-3,4.4-4.7c0,0,0-0.1,0-0.1v-4.7h198.4v6.3c-14.1,0.3-15.2,14-15.2,14.1c0,0,0,0.1,0,0.1
		v19.9H111v-13.7c0-6.8-6-8.6-9.2-8.6h-1.1v-18.1h61.5v1.2C162.2,116.4,162.2,116.5,162.2,116.5z M90.1,99.9
		c1.8-1.9,5.1-2.9,9.4-2.9h62.6l0,11.4c0,0,0,0,0,0c0,0,0,0,0,0v3.4H99.1c-0.9,0-1.6,0.7-1.6,1.6v19.7h-8.9v-29.4c0,0,0,0,0-0.1
		C88.5,103.2,88.6,101.5,90.1,99.9z M26,141.8c0-5.2,5.4-5.4,6-5.4h69.8c0.2,0,6,0.1,6,5.4v3H26V141.8z M26,148h81.8v96.1H26V148z
		 M30.5,259.1c-3.9,0-4.5-3.9-4.6-4.5v-7.2h81.8v7.2c-0.1,0.7-0.6,4.5-4.6,4.5H30.5z M296.1,359.6c0,0,0.1,0,0.1,0
		c0.1,0,0.1,0,0.1,0h5.4v6.1h-96.6v-6.1h5.1c0,0,0,0,0.1,0c0,0,0,0,0.1,0H296.1z M291.1,356.4h-75.4c2.9-3.8,5.9-12.2,6-30.4h31.6
		c0,0,0,0,0,0h31.8C285.2,344.1,288.2,352.5,291.1,356.4z M353.1,322.8c-0.2-0.1-0.4-0.1-0.6-0.1c-0.2,0-0.4,0.1-0.6,0.1h-98.5
		c0,0,0,0,0,0H99.6c-4.4,0-7.6-1-9.4-2.9c-1.7-1.8-1.6-3.8-1.6-3.9c0,0,0-0.1,0-0.1V294h75.3c0.9,0,1.6-0.7,1.6-1.6
		s-0.7-1.6-1.6-1.6H88.5v-28.5h8.9v11.9c0,0.9,0.7,1.6,1.6,1.6h57.2c0.9,0,1.6-0.7,1.6-1.6c0-0.9-0.7-1.6-1.6-1.6h-55.6v-10.3h2.5
		c5.7,0,7.6-4.9,7.8-7.5c0,0,0-0.1,0-0.1v-81.8h172v99.8h-87.5c-0.9,0-1.6,0.7-1.6,1.6c0,0.9,0.7,1.6,1.6,1.6h89.2
		c0.9,0,1.6-0.7,1.6-1.6v-103c0-0.9-0.7-1.6-1.6-1.6H111v-10.9h279.6v10.9h-12.3c-0.9,0-1.6,0.7-1.6,1.6V251h-4.4
		c-0.9,0-1.6,0.7-1.6,1.6v9.6c0,0.5,0.2,0.9,0.6,1.2c0.1,0.1,2.4,2,5.5,3.3v7.5c0,0.9,0.7,1.6,1.6,1.6h28.9c0.9,0,1.6-0.7,1.6-1.6
		v-6.3h9.2v22.9H188.4c-0.9,0-1.6,0.7-1.6,1.6s0.7,1.6,1.6,1.6H418v21.9c0,0,0,0.1,0,0.1c0,0,0.1,2-1.6,3.8
		c-1.8,1.9-5.1,2.9-9.5,2.9h-0.2c-0.2-0.1-0.4-0.1-0.6-0.1c-0.2,0-0.4,0.1-0.6,0.1h-5.1c-0.2-0.1-0.4-0.1-0.6-0.1
		c-0.2,0-0.4,0.1-0.6,0.1H394c-0.2-0.1-0.4-0.1-0.6-0.1c-0.2,0-0.4,0.1-0.6,0.1h-5.1c-0.2-0.1-0.4-0.1-0.6-0.1
		c-0.2,0-0.4,0.1-0.6,0.1h-5.1c-0.2-0.1-0.4-0.1-0.6-0.1c-0.2,0-0.4,0.1-0.6,0.1h-8.3c-0.2-0.1-0.4-0.1-0.6-0.1
		c-0.2,0-0.4,0.1-0.6,0.1h-5.1c-0.2-0.1-0.4-0.1-0.6-0.1c-0.2,0-0.4,0.1-0.6,0.1H353.1z M390.6,172.8V251H380v-78.2H390.6z
		 M380,272.6v-5c0.8,0.1,1.5,0.2,2.3,0.2h23.3v4.7H380z M421.2,315.9v-2.2v-3.2v-18.1c0,0,0,0,0,0s0,0,0,0v-24.4h165.4
		c5.7,0,10.8-4.3,11-4.5c0.4-0.3,0.6-0.7,0.6-1.2v-9.6c0-0.9-0.7-1.6-1.6-1.6h-11.7V134.8c0-0.4,0.1-6.1-3.6-10
		c-2.2-2.3-5.3-3.5-9-3.5H421.2v-17.5c0-0.6,0-3.5-2.4-6.1c-2.4-2.6-6.4-4-11.8-4H253.3c0,0,0,0,0,0h-45.8V64.9
		c0-0.9-0.7-1.6-1.6-1.6s-1.6,0.7-1.6,1.6v42h-38.9l0-60.9h38.9v10.6c0,0.9,0.7,1.6,1.6,1.6s1.6-0.7,1.6-1.6V38.8
		c0-4.4-4.2-6.4-4.4-6.4c-0.2-0.1-0.4-0.1-0.7-0.1h-34.9c-3.3,0-4.8,3.4-5.2,5.4c0,0.1,0,0.2,0,0.3l0,55.9H99.6
		c-5.4,0-9.4,1.3-11.8,4c-2.4,2.6-2.4,5.6-2.4,6.1v29.2H32c-3.2,0-9.2,1.8-9.2,8.6v112.8c0,0,0,0.1,0,0.1c0.2,2.6,2.1,7.5,7.8,7.5
		h54.8v30.1c0,0,0,0,0,0s0,0,0,0v23.4c0,0.5,0,3.5,2.4,6.1c2.4,2.6,6.4,4,11.8,4h118.9c-0.2,28.8-7.6,30.3-8,30.4h-6.8
		c-0.9,0-1.6,0.7-1.6,1.6v9.3c0,0.9,0.7,1.6,1.6,1.6h99.8c0.9,0,1.6-0.7,1.6-1.6V358c0-0.9-0.7-1.6-1.6-1.6h-7.2
		c-0.6-0.1-7.7-2-8-30.4h62.6h50.5h5.1C406.4,326,421.2,326.9,421.2,315.9z M595,261.4c-1.3,1-4.8,3.3-8.3,3.3H382.3
		c-3.5,0-7-2.3-8.3-3.3v-7.2h89.5c1.3,5.4,8.6,7,9,7.1c0.1,0,0.2,0,0.3,0h32.2c0.1,0,0.2,0,0.3,0c0.3-0.1,7.7-1.7,9-7.1H595V261.4z"
		/>
	<path class="st0" d="M558.6,144.2H417.3c-0.9,0-1.6,0.7-1.6,1.6v11.3c0,0.9,0.7,1.6,1.6,1.6h141.3c0.9,0,1.6-0.7,1.6-1.6v-11.3
		C560.2,144.9,559.5,144.2,558.6,144.2z M557,155.5H418.9v-8.1H557V155.5z"/>
	<path class="st0" d="M99.7,197.1H60.5c-0.9,0-1.6,0.7-1.6,1.6v36.8c0,0.9,0.7,1.6,1.6,1.6h39.1c0.9,0,1.6-0.7,1.6-1.6v-36.8
		C101.3,197.8,100.5,197.1,99.7,197.1z M98,233.9H62.1v-33.6H98V233.9z"/>
	<path class="st0" d="M99.7,154.3H60.5c-0.9,0-1.6,0.7-1.6,1.6v35.5c0,0.9,0.7,1.6,1.6,1.6h39.1c0.9,0,1.6-0.7,1.6-1.6v-35.5
		C101.3,155.1,100.5,154.3,99.7,154.3z M98,189.9H62.1v-32.3H98V189.9z"/>
	<path class="st0" d="M52.5,179.9h-18c-0.9,0-1.6,0.7-1.6,1.6v53.9c0,0.9,0.7,1.6,1.6,1.6h18c0.9,0,1.6-0.7,1.6-1.6v-53.9
		C54.1,180.7,53.4,179.9,52.5,179.9z M50.9,233.9H36.1v-50.7h14.8V233.9z"/>
	<path class="st0" d="M52.5,154.3h-18c-0.9,0-1.6,0.7-1.6,1.6v18c0,0.9,0.7,1.6,1.6,1.6h18c0.9,0,1.6-0.7,1.6-1.6v-18
		C54.1,155.1,53.4,154.3,52.5,154.3z M50.9,172.3H36.1v-14.8h14.8V172.3z"/>
	<path class="st0" d="M298.5,275.8h28.9c0.9,0,1.6-0.7,1.6-1.6v-103c0-0.9-0.7-1.6-1.6-1.6h-28.9c-0.9,0-1.6,0.7-1.6,1.6v103
		C296.9,275.1,297.6,275.8,298.5,275.8z M300.1,172.8h25.7v99.8h-25.7V172.8z"/>
	<path class="st0" d="M338.1,275.8H367c0.9,0,1.6-0.7,1.6-1.6v-103c0-0.9-0.7-1.6-1.6-1.6h-28.9c-0.9,0-1.6,0.7-1.6,1.6v103
		C336.5,275.1,337.2,275.8,338.1,275.8z M339.7,172.8h25.7v99.8h-25.7V172.8z"/>
</g>
<path class="st0" d="M592.8,281.6c-1.4,0.1-2.8-0.6-4.5-1.3c-2.1-1-4.6-2.2-7.6-1.9c-3,0.3-5.6,1.1-7.2,1.7
	c-0.1-0.2-0.2-0.4-0.4-0.5c-0.3-0.3-0.7-0.4-1.2-0.4l-17.4,1.5c0,0,0,0,0,0c0,0,0,0,0,0c-0.1,0-7,0.7-16.3,1.7c0,0,0,0,0,0
	c0,0,0,0,0,0c-8.6,1-22.7,3-34.3,4.9c-6.4,1.1-11.8,2-15.5,2.8c-6.3,1.3-7.8,1.9-7.7,3.7c0.2,1.7,1.5,2.1,8.8,2.2c1.5,0,3.2,0,5.1,0
	c3.3,0,7.3,0,12-0.1c13.1-0.3,28.4-0.8,36.6-1.1l1.5-0.1c0,0,0,0,0,0c0,0,0,0,0,0c6.6-0.4,10.9-0.8,10.9-0.8c0,0,0,0,0,0
	c0,0,0,0,0,0l17.4-1.5c0.5,0,1-0.4,1.3-0.8c1.3,0.4,3.1,0.8,5.5,0.8c0.6,0,1.3,0,2-0.1c7.4-0.6,14.2-5.5,14-8.7
	C595.6,282.5,594.7,281.5,592.8,281.6z M490.8,292.9c11.9-2.4,34.9-5.9,47.7-7.3c0,0,0,0,0,0c6.7-0.7,12.1-1.3,14.7-1.5l0.6,6.9
	c-1.8,0.1-5.1,0.4-9.2,0.7l-1.5,0.1C517.5,292.6,500.1,293,490.8,292.9z M556.9,290.7l-0.6-6.9l14.2-1.2l0.6,6.9L556.9,290.7z
	 M581.4,289.2c-3.7,0.3-6.1-0.5-7.2-0.9l-0.4-4.9c1.3-0.5,4-1.5,7.1-1.8c2.2-0.2,4,0.7,6,1.6c1.5,0.7,3.1,1.5,4.8,1.6
	C590.1,286.4,586.3,288.7,581.4,289.2z"/>
<g>
	<g>
		<path class="st0" d="M262.5,481.4c0.8,0.1,1.7,0.1,2.4,0.1c5.9,0,9.9-2.2,13.6-7.6c0.4-0.6,0.3-1.5-0.3-1.9
			c-0.6-0.4-1.5-0.3-1.9,0.3c-3.6,5.1-7.3,6.8-13.5,6.3c-0.8-0.1-1.4,0.5-1.5,1.3C261.1,480.6,261.7,481.3,262.5,481.4z"/>
		<path class="st0" d="M297.1,523.4v-38.3c0-12.6-10.3-22.9-22.9-22.9c-12.6,0-22.9,10.3-22.9,22.9v38.3
			c-5.5,2.6-10.4,5.7-10.4,11.5v3.8c0,4.4,3.6,8,8,8h50.6c4.4,0,8-3.6,8-8v-3.8C307.4,529.1,302.5,526,297.1,523.4z M254.1,485.1
			c0-11.1,9-20.1,20.1-20.1s20.1,9,20.1,20.1v37c-3.4-1.5-6.8-3.1-9.4-5.2v-7.2c4.7-5,6.9-13.3,6.8-25.2c0-0.8-0.6-1.4-1.4-1.4
			c0,0,0,0,0,0c-0.8,0-1.4,0.6-1.4,1.4c0.1,11.5-1.9,19.2-6.4,23.6c-0.1,0.1-0.2,0.2-0.2,0.3c-2.5,2.5-4.7,3.5-8.2,3.5
			c-3.4,0-5.7-1-8.2-3.5c-0.1-0.1-0.1-0.2-0.2-0.3c-5.6-5.6-6.4-13.2-6.6-21.8c4.9,1.7,9.6,1.6,13.9-0.2c3.8-1.6,7.2-4.5,10.2-8.7
			c0.4-0.6,0.3-1.5-0.3-1.9c-0.6-0.4-1.5-0.3-1.9,0.3c-4.3,5.9-11.7,12-22.8,7.2c-0.4-0.2-0.9-0.1-1.3,0.1c-0.4,0.3-0.6,0.7-0.6,1.2
			c0.1,9.6,0.7,18.7,7,25.4v7.2c-2.5,2.1-6,3.7-9.4,5.2V485.1z M282.2,512.3v5l-1,3c-0.1,0-0.2,0.1-0.3,0.1c-4.1,1.9-8.5,1.9-13.5,0
			c-0.1,0-0.1,0-0.2-0.1l-1-3v-5c2.3,1.7,4.8,2.4,8,2.4C277.4,514.7,279.9,514,282.2,512.3z M248.9,543.9c-2.9,0-5.2-2.3-5.2-5.2
			v-3.8c0-5,5.3-7.4,11.5-10.2c3.1-1.4,6.3-2.9,9-4.8l8.1,24.1H248.9z M268.3,523.6c4.2,1.3,8.1,1.3,11.7,0.1l-5.8,17.3L268.3,523.6
			z M304.7,538.7c0,2.9-2.3,5.2-5.2,5.2h-23.4l8.1-24.1c2.7,1.9,5.9,3.4,9,4.8c6.2,2.8,11.5,5.3,11.5,10.2V538.7z"/>
	</g>
	<path class="st0" d="M314.4,539.4c-0.2,0-0.4,0-0.6-0.1c-0.8-0.3-1.1-1.2-0.7-2c2.5-5.5,3.7-11.3,3.7-17.4
		c0-15.4-8.4-29.7-21.9-37.2c-0.7-0.4-1-1.3-0.6-2c0.4-0.7,1.3-1,2-0.6c14.4,8,23.4,23.3,23.4,39.8c0,6.5-1.3,12.7-4,18.6
		C315.5,539.1,315,539.4,314.4,539.4z"/>
	<path class="st0" d="M233.9,539.4c-0.6,0-1.1-0.3-1.4-0.9c-2.6-5.9-4-12.1-4-18.6c0-16.6,9-31.8,23.5-39.9c0.7-0.4,1.6-0.1,2,0.6
		c0.4,0.7,0.1,1.6-0.6,2c-13.5,7.5-22,21.8-22,37.3c0,6.1,1.2,11.9,3.7,17.4c0.3,0.7,0,1.6-0.8,2
		C234.4,539.4,234.1,539.4,233.9,539.4z"/>
</g>
<g>
	<path class="st0" d="M329.5,573.6c0-3.9,2.4-6.4,5.7-6.4c3.4,0,5.7,2.4,5.7,6.4c0,3.9-2.3,6.4-5.7,6.4
		C331.9,580,329.5,577.5,329.5,573.6z M337.6,573.6c0-2.5-1-3.7-2.4-3.7c-1.4,0-2.4,1.2-2.4,3.7c0,2.4,1,3.7,2.4,3.7
		C336.7,577.3,337.6,576.1,337.6,573.6z M349,567.6h3.9l-15.7,23.1h-3.9L349,567.6z M345.2,584.5c0-3.9,2.4-6.4,5.7-6.4
		c3.4,0,5.7,2.5,5.7,6.4c0,3.9-2.4,6.4-5.7,6.4C347.5,590.9,345.2,588.4,345.2,584.5z M353.3,584.5c0-2.4-1-3.7-2.4-3.7
		c-1.4,0-2.4,1.2-2.4,3.7c0,2.5,1,3.7,2.4,3.7C352.3,588.2,353.3,587,353.3,584.5z"/>
</g>
<g>
	<path class="st0" d="M329.5,531.4c0-3.9,2.4-6.4,5.7-6.4c3.4,0,5.7,2.4,5.7,6.4c0,3.9-2.3,6.4-5.7,6.4
		C331.9,537.7,329.5,535.2,329.5,531.4z M337.6,531.4c0-2.5-1-3.7-2.4-3.7c-1.4,0-2.4,1.2-2.4,3.7c0,2.4,1,3.7,2.4,3.7
		C336.7,535,337.6,533.8,337.6,531.4z M349,525.3h3.9l-15.7,23.1h-3.9L349,525.3z M345.2,542.2c0-3.9,2.4-6.4,5.7-6.4
		c3.4,0,5.7,2.5,5.7,6.4c0,3.9-2.4,6.4-5.7,6.4C347.5,548.6,345.2,546.1,345.2,542.2z M353.3,542.2c0-2.4-1-3.7-2.4-3.7
		c-1.4,0-2.4,1.2-2.4,3.7c0,2.5,1,3.7,2.4,3.7C352.3,545.9,353.3,544.7,353.3,542.2z"/>
</g>
<g>
	<path class="st0" d="M329.5,490.4c0-3.9,2.4-6.4,5.7-6.4c3.4,0,5.7,2.4,5.7,6.4c0,3.9-2.3,6.4-5.7,6.4
		C331.9,496.7,329.5,494.3,329.5,490.4z M337.6,490.4c0-2.5-1-3.7-2.4-3.7c-1.4,0-2.4,1.2-2.4,3.7c0,2.4,1,3.7,2.4,3.7
		C336.7,494,337.6,492.9,337.6,490.4z M349,484.3h3.9l-15.7,23.1h-3.9L349,484.3z M345.2,501.3c0-3.9,2.4-6.4,5.7-6.4
		c3.4,0,5.7,2.5,5.7,6.4c0,3.9-2.4,6.4-5.7,6.4C347.5,507.6,345.2,505.1,345.2,501.3z M353.3,501.3c0-2.4-1-3.7-2.4-3.7
		c-1.4,0-2.4,1.2-2.4,3.7c0,2.5,1,3.7,2.4,3.7C352.3,504.9,353.3,503.7,353.3,501.3z"/>
</g>
<path class="st0" d="M494,500.7h-15c-1.6,0-2.9-2-2.9-4.7c0-2.7,1.2-4.7,2.9-4.7h15c1.6,0,2.9,2,2.9,4.7
	C496.9,498.7,495.7,500.7,494,500.7z M479,492.8c-0.6,0-1.4,1.3-1.4,3.2s0.8,3.2,1.4,3.2h15c0.6,0,1.4-1.3,1.4-3.2s-0.8-3.2-1.4-3.2
	H479z"/>
<g>
	<path class="st0" d="M459,499.9h-94.1c-2.1,0-3.7-1.8-3.7-4l0,0c0-2.2,1.7-4,3.7-4H459c2.1,0,3.7,1.8,3.7,4l0,0
		C462.7,498.2,461,499.9,459,499.9z"/>
	<path class="st0" d="M459,500.1h-94.1c-2.2,0-3.9-1.9-3.9-4.2c0-2.3,1.8-4.2,3.9-4.2H459c2.2,0,3.9,1.9,3.9,4.2
		C462.9,498.3,461.2,500.1,459,500.1z M364.9,492.2c-1.9,0-3.5,1.7-3.5,3.7c0,2.1,1.6,3.7,3.5,3.7H459c1.9,0,3.5-1.7,3.5-3.7
		c0-2.1-1.6-3.7-3.5-3.7H364.9z"/>
</g>
<path class="st0" d="M469.5,485.2c-5.9,0-10.8,4.8-10.8,10.8c0,5.9,4.8,10.8,10.8,10.8c5.9,0,10.8-4.8,10.8-10.8
	C480.3,490,475.5,485.2,469.5,485.2z M469.5,501.6c-3.1,0-5.6-2.5-5.6-5.6c0-3.1,2.5-5.6,5.6-5.6c3.1,0,5.6,2.5,5.6,5.6
	C475.1,499.1,472.6,501.6,469.5,501.6z"/>
<path class="st0" d="M494.7,541.6h-29.9c-1.5,0-2.2-2.4-2.2-4.7s0.7-4.7,2.2-4.7h29.9c1.5,0,2.2,2.4,2.2,4.7
	S496.2,541.6,494.7,541.6z M494.6,533.7l-29.8,0c-0.1,0.1-0.7,1.2-0.7,3.2s0.5,3.1,0.8,3.2l29.7,0c0.2-0.2,0.7-1.3,0.7-3.2
	C495.4,534.9,494.9,533.8,494.6,533.7z"/>
<g>
	<path class="st0" d="M446.4,540.8h-81.2c-2.2,0-4-1.8-4-4l0,0c0-2.2,1.8-4,4-4h81.2c2.2,0,4,1.8,4,4l0,0
		C450.3,539,448.6,540.8,446.4,540.8z"/>
	<path class="st0" d="M446.4,541h-81.2c-2.3,0-4.2-1.9-4.2-4.2s1.9-4.2,4.2-4.2h81.2c2.3,0,4.2,1.9,4.2,4.2S448.7,541,446.4,541z
		 M365.1,533.1c-2.1,0-3.7,1.7-3.7,3.7s1.7,3.7,3.7,3.7h81.2c2.1,0,3.7-1.7,3.7-3.7s-1.7-3.7-3.7-3.7H365.1z"/>
</g>
<path class="st0" d="M455.9,526.1c-5.9,0-10.8,4.8-10.8,10.8s4.8,10.8,10.8,10.8s10.8-4.8,10.8-10.8S461.9,526.1,455.9,526.1z
	 M455.9,542.5c-3.1,0-5.6-2.5-5.6-5.6c0-3.1,2.5-5.6,5.6-5.6c3.1,0,5.6,2.5,5.6,5.6C461.5,539.9,459,542.5,455.9,542.5z"/>
<path class="st0" d="M493.2,583.9h-54c-2,0-3.7-2.1-3.7-4.7s1.7-4.7,3.7-4.7h54c2,0,3.7,2.1,3.7,4.7S495.3,583.9,493.2,583.9z
	 M439.2,576c-1.2,0-2.2,1.5-2.2,3.2s1,3.2,2.2,3.2h54c1.2,0,2.2-1.5,2.2-3.2s-1-3.2-2.2-3.2H439.2z"/>
<g>
	<path class="st0" d="M418.5,583.2h-53.8c-1.9,0-3.5-1.8-3.5-4l0,0c0-2.2,1.6-4,3.5-4h53.8c1.9,0,3.5,1.8,3.5,4l0,0
		C421.9,581.4,420.4,583.2,418.5,583.2z"/>
	<path class="st0" d="M418.5,583.4h-53.8c-2,0-3.7-1.9-3.7-4.2s1.7-4.2,3.7-4.2h53.8c2,0,3.7,1.9,3.7,4.2S420.5,583.4,418.5,583.4z
		 M364.6,575.5c-1.8,0-3.2,1.7-3.2,3.7s1.5,3.7,3.2,3.7h53.8c1.8,0,3.2-1.7,3.2-3.7s-1.5-3.7-3.2-3.7H364.6z"/>
</g>
<path class="st0" d="M428.7,568.5c-5.9,0-10.8,4.8-10.8,10.8s4.8,10.8,10.8,10.8s10.8-4.8,10.8-10.8S434.7,568.5,428.7,568.5z
	 M428.7,584.8c-3.1,0-5.6-2.5-5.6-5.6c0-3.1,2.5-5.6,5.6-5.6c3.1,0,5.6,2.5,5.6,5.6C434.3,582.3,431.8,584.8,428.7,584.8z"/>
</svg>
