<?xml version="1.0" encoding="utf-8"?>
<!-- Generator: Adobe Illustrator 24.2.3, SVG Export Plug-In . SVG Version: 6.00 Build 0)  -->
<svg version="1.1" id="Outlined" xmlns="http://www.w3.org/2000/svg" xmlns:xlink="http://www.w3.org/1999/xlink" x="0px" y="0px"
	 viewBox="0 0 278 278" style="enable-background:new 0 0 278 278;" xml:space="preserve">
<style type="text/css">
	.st0{fill:none;stroke:#004D71;stroke-width:5;stroke-miterlimit:10;}
	.st1{fill:#004D71;stroke:#004D71;stroke-width:2;stroke-miterlimit:10;}
</style>
<circle class="st0" cx="139" cy="139" r="135.3"/>
<g>
	<g>
		<path class="st1" d="M92.5,184.9c-0.2,0-0.4,0-0.6-0.1l-8.5-4c-0.5-0.2-0.8-0.7-0.8-1.3V147c0-0.8,0.6-1.4,1.4-1.4
			s1.4,0.6,1.4,1.4v31.6l7.6,3.6c0.7,0.3,1,1.2,0.7,1.9C93.6,184.6,93.1,184.9,92.5,184.9z"/>
		<path class="st1" d="M195,184c-0.5,0-1-0.3-1.3-0.8c-0.4-0.7-0.1-1.6,0.6-1.9l5.4-2.7v-31.9c0-0.8,0.6-1.4,1.4-1.4
			s1.4,0.6,1.4,1.4v32.8c0,0.5-0.3,1-0.8,1.3l-6.2,3.1C195.4,184,195.2,184,195,184z"/>
		<path class="st1" d="M144.4,141.9c-0.2,0-0.4,0-0.5-0.1l-60.3-24.8c-0.7-0.3-1.1-1.1-0.8-1.9c0.3-0.7,1.1-1.1,1.9-0.8l59.8,24.6
			l56.2-24.6c0.7-0.3,1.6,0,1.9,0.7c0.3,0.7,0,1.6-0.7,1.9L145,141.8C144.8,141.8,144.6,141.9,144.4,141.9z"/>
		<path class="st1" d="M144.4,199.3c-0.8,0-1.4-0.6-1.4-1.4v-57.4c0-0.8,0.6-1.4,1.4-1.4s1.4,0.6,1.4,1.4v57.4
			C145.8,198.7,145.2,199.3,144.4,199.3z"/>
		<path class="st1" d="M126.7,168.5c-0.2,0-0.4,0-0.6-0.1L65.7,140c-0.4-0.2-0.7-0.5-0.8-1c-0.1-0.4,0-0.9,0.3-1.2L83,114.7
			c0.5-0.6,1.4-0.7,2-0.3c0.6,0.5,0.7,1.4,0.3,2l-16.7,21.7l57.6,27.1l17.1-25.6c0.4-0.7,1.3-0.8,2-0.4c0.7,0.4,0.8,1.3,0.4,2
			l-17.7,26.6C127.6,168.3,127.1,168.5,126.7,168.5z"/>
		<path class="st1" d="M163.9,166.7c-0.4,0-0.8-0.2-1.1-0.5l-19.5-24.8c-0.5-0.6-0.4-1.5,0.2-2c0.6-0.5,1.5-0.4,2,0.2l18.8,23.9
			l50.7-25.4l-15-21.7c-0.4-0.6-0.3-1.5,0.4-2c0.6-0.4,1.5-0.3,2,0.4l16,23.1c0.2,0.3,0.3,0.8,0.2,1.2c-0.1,0.4-0.4,0.7-0.7,0.9
			l-53.2,26.6C164.4,166.7,164.2,166.7,163.9,166.7z"/>
		<path class="st1" d="M84.1,117c-0.4,0-0.8-0.2-1.1-0.5l-17-18.9c-0.3-0.4-0.4-0.9-0.3-1.3c0.1-0.5,0.5-0.8,0.9-1l26.7-8.9
			c0.7-0.2,1.6,0.2,1.8,0.9c0.2,0.7-0.2,1.6-0.9,1.8l-24.7,8.2l15.5,17.2c0.5,0.6,0.5,1.5-0.1,2C84.8,116.9,84.4,117,84.1,117z"/>
		<path class="st1" d="M84.1,117c-0.6,0-1.2-0.4-1.4-1c-0.2-0.7,0.2-1.6,0.9-1.8l21.3-7.1c0.8-0.2,1.6,0.2,1.8,0.9
			c0.2,0.7-0.2,1.6-0.9,1.8L84.5,117C84.4,117,84.2,117,84.1,117z"/>
		<path class="st1" d="M201.2,117c-0.1,0-0.3,0-0.5-0.1l-21.3-7.1c-0.7-0.2-1.2-1.1-0.9-1.8c0.2-0.7,1.1-1.2,1.8-0.9l21.3,7.1
			c0.7,0.2,1.2,1.1,0.9,1.8C202.4,116.7,201.8,117,201.2,117z"/>
		<path class="st1" d="M201.2,117c-0.3,0-0.7-0.1-1-0.4c-0.6-0.5-0.6-1.4-0.1-2l15.5-17.2L190.4,89c-0.7-0.2-1.2-1.1-0.9-1.8
			c0.2-0.7,1.1-1.2,1.8-0.9l27.3,9.1c0.5,0.2,0.8,0.5,0.9,1c0.1,0.5,0,1-0.3,1.3l-17,18.9C202,116.9,201.6,117,201.2,117z"/>
		<path class="st1" d="M143.5,115.2c-0.2,0-0.4,0-0.5-0.1l-39.3-16.4c-0.5-0.2-0.9-0.7-0.9-1.3V55.8c0-0.8,0.6-1.4,1.4-1.4
			s1.4,0.6,1.4,1.4v40.6l37.8,15.8L179,96.4V55.8c0-0.8,0.6-1.4,1.4-1.4s1.4,0.6,1.4,1.4v41.6c0,0.6-0.3,1.1-0.8,1.3l-37,16.4
			C143.9,115.2,143.7,115.2,143.5,115.2z"/>
		<path class="st1" d="M143.5,73.4c-0.2,0-0.4,0-0.5-0.1l-39.3-16.2c-0.7-0.3-1.1-1.1-0.8-1.9c0.3-0.7,1.1-1.1,1.9-0.8l38.7,15.9
			l36.4-15.9c0.7-0.3,1.6,0,1.9,0.7c0.3,0.7,0,1.6-0.7,1.9l-37,16.2C143.9,73.3,143.7,73.4,143.5,73.4z"/>
		<path class="st1" d="M143.5,115.2c-0.8,0-1.4-0.6-1.4-1.4V72c0-0.8,0.6-1.4,1.4-1.4s1.4,0.6,1.4,1.4v41.8
			C144.9,114.6,144.3,115.2,143.5,115.2z"/>
		<path class="st1" d="M180.5,57.2c-0.1,0-0.3,0-0.5-0.1l-37.7-12.6l-37.7,12.6c-0.8,0.3-1.6-0.2-1.8-0.9c-0.2-0.7,0.2-1.6,0.9-1.8
			l38.1-12.7c0.3-0.1,0.6-0.1,0.9,0l38.1,12.7c0.7,0.2,1.2,1.1,0.9,1.8C181.6,56.8,181.1,57.2,180.5,57.2z"/>
	</g>
	<g>
		<path class="st1" d="M125.6,236.4c-5.4,0-10.7-1.1-17.4-3.4c-2.8-1-5.3-1.9-7.7-2.9c0,0-0.1,0-0.1,0l-1.1-0.4
			c-5.9-2.2-13.5-2.3-20.2-2.1c-0.8,0-1.4-0.6-1.5-1.4c0-0.8,0.6-1.4,1.4-1.5c7-0.2,15-0.2,21.3,2.3l0.9,0.4c0.1,0,0.1,0.1,0.2,0.1
			c0,0,0,0,0,0c2.3,0.9,4.8,1.9,7.6,2.8c7.8,2.7,13.7,3.6,20.1,3.1c6.6-0.6,18.1-6.5,33.1-17.2c13.8-9.8,27.2-19.7,27.1-24.3
			c0-0.4-0.1-1.1-1.2-1.8c-4.5-2.9-16.9,5.6-27.8,13c-2.3,1.5-4.6,3.1-6.8,4.6c-0.7,0.4-1.5,0.3-2-0.4c-0.4-0.7-0.3-1.5,0.4-2
			c2.2-1.5,4.5-3.1,6.8-4.6c12.8-8.7,24.9-17,30.9-13.1c2.1,1.3,2.5,3,2.5,4.1c0.1,5.5-9,13-28.3,26.7
			c-15.7,11.2-27.3,17.1-34.5,17.8C128.2,236.3,126.9,236.4,125.6,236.4z"/>
		<path class="st1" d="M143.9,219.7c-3.1,0-7-0.9-11.7-1.9c-1.6-0.4-3.2-0.7-4.7-1.1c-2.2-0.5-4.3-1-6.3-1.4
			c-0.8-0.2-1.3-0.9-1.1-1.7c0.2-0.8,0.9-1.3,1.7-1.1c2.1,0.4,4.2,0.9,6.4,1.4c1.5,0.4,3.1,0.7,4.7,1.1c6.7,1.5,12,2.6,14.1,1.2
			c0.4-0.2,0.9-0.7,1.1-1.9c0.8-4.2-9.7-10.9-22.5-14.4c-3.8-1.1-7.2-2.7-10.5-4.3c-4.4-2.1-8.5-4.2-12.9-4.2
			c-6.3-0.1-11.7,2-16.2,4.1c-3.5,1.6-6.7,2.9-9.7,4c-0.7,0.3-1.6-0.1-1.8-0.9c-0.3-0.7,0.1-1.6,0.9-1.8c2.9-1,6-2.3,9.4-3.9
			c4.5-2.1,10.6-4.4,17.4-4.3c5,0.1,9.4,2.2,14.1,4.5c3.1,1.6,6.4,3.2,10,4.1c12.8,3.5,25.7,10.9,24.5,17.7c-0.3,1.7-1.1,3-2.3,3.8
			C147.3,219.4,145.8,219.7,143.9,219.7z"/>
		<path class="st1" d="M65.3,234.9c-0.6,0-1.2-0.2-1.7-0.6c-0.6-0.4-0.9-1.1-1-1.8l-4.2-36.1c-0.2-1.5,0.9-2.8,2.4-3l13.1-1.5
			c1.5-0.2,2.8,0.9,3,2.4l4.2,36.1c0.2,1.5-0.9,2.8-2.4,3l-13.1,1.5C65.5,234.9,65.4,234.9,65.3,234.9z M61.3,196.3l4.1,35.7
			l12.8-1.5l-4.1-35.7L61.3,196.3z"/>
	</g>
</g>
</svg>
