<?xml version="1.0" encoding="utf-8"?>
<!-- Generator: Adobe Illustrator 24.2.3, SVG Export Plug-In . SVG Version: 6.00 Build 0)  -->
<svg version="1.1" id="Layer_1" xmlns="http://www.w3.org/2000/svg" xmlns:xlink="http://www.w3.org/1999/xlink" x="0px" y="0px"
	 viewBox="0 0 398.2 566" style="enable-background:new 0 0 398.2 566;" xml:space="preserve">
<style type="text/css">
	.st0{fill:none;stroke:#FFFFFF;}
	.st1{fill:none;stroke:#FFFFFF;stroke-width:3.3166;stroke-miterlimit:10;}
	.st2{fill:#FFFFFF;}
	.st3{fill:#94C93D;}
	.st4{fill:none;stroke:#FFFFFF;stroke-width:3.6722;stroke-miterlimit:10;}
	.st5{fill:#00A0DD;}
	.st6{fill:#F4A81D;}
	.st7{fill:none;stroke:#FFFFFF;stroke-width:0.7;stroke-miterlimit:10;}
	.st8{fill:#8F489A;}
</style>
<g>
	<path class="st0" d="M382.3,552.5v-535 M382.8,147.3h-63 M382.8,285.5h-63 M382.8,438.9h-63"/>
	<g>
		<line class="st1" x1="126.7" y1="85.3" x2="15.9" y2="85.3"/>
	</g>
	<g>
		<path class="st2" d="M34.3,31.5c10.2,0,18.3,8,18.3,18.3c0,10.5-8.1,18.8-18.3,18.8S16,60.3,16,49.8C16,39.5,24.2,31.5,34.3,31.5z
			 M34.3,65.3c8.1,0,14.6-6.7,14.6-15.5c0-8.6-6.5-15.1-14.6-15.1s-14.6,6.5-14.6,15.1C19.7,58.6,26.2,65.3,34.3,65.3z"/>
	</g>
	<g>
		<path class="st2" d="M56.4,32.1h12.4c6.4,0,11.1,4.2,11.1,10.8c0,6.7-4.6,11-11.1,11h-8.9V68h-3.5V32.1z M68.4,50.7
			c4.8,0,7.9-2.9,7.9-7.8c0-4.8-3.1-7.7-7.9-7.7h-8.5v15.5H68.4z"/>
		<path class="st2" d="M93.5,35.3H80.7v-3.2H110v3.2H97.1V68h-3.5V35.3z"/>
	</g>
	<g>
		<path class="st2" d="M113.9,32.1h3.5V68h-3.5V32.1z"/>
		<path class="st2" d="M125.5,32.1h3.7l9.4,21.1c0.8,1.8,1.7,4.4,1.7,4.4h0.1c0,0,1-2.6,1.8-4.4l9.4-21.1h3.6l2.9,35.9h-3.6l-2-25.1
			c-0.2-1.9-0.1-5-0.1-5h-0.1c0,0-1.1,3.2-1.9,5L142,61.3h-3.3l-8.4-18.4c-0.8-1.8-1.9-5.1-1.9-5.1h-0.1c0,0,0.1,3.2-0.1,5.1
			l-2,25.1h-3.5L125.5,32.1z"/>
		<path class="st2" d="M163.2,32.1h3.5V68h-3.5V32.1z"/>
	</g>
	<g>
		<path class="st2" d="M172.6,65.5l18.5-26.9c1.3-1.9,2.5-3.3,2.5-3.3v-0.1c0,0-0.9,0.1-2.6,0.1h-17.5v-3.2h24.4v2.5l-18.4,27
			c-1.3,1.9-2.6,3.3-2.6,3.3V65c0,0,0.9-0.1,2.7-0.1h18.6v3.2h-25.6V65.5z"/>
		<path class="st2" d="M203.4,32.1h20.2v3.2h-16.7v13.1h13.6v3.2h-13.6v13.3h17.6v3.2h-21.1V32.1z"/>
	</g>
	<g>
		<path class="st3" d="M145.4,111.6c0,0.6-0.3,1-1,1h-1.7c-0.7,0-1-0.4-1-1V111c-1.3,1.2-3,1.9-4.5,1.9c-2.1,0-4-1.4-4-4.5V89.9
			c0-3.1,1.8-4.5,4-4.5c1.5,0,3.2,0.7,4.5,1.9V74.8c0-0.7,0.3-1,1-1h1.7c0.7,0,1,0.3,1,1V111.6z M137,106.9c0,2.1,0.5,2.7,2.1,2.7
			c1.7,0,2.6-0.8,2.6-2.9V91.5c0-2-0.9-2.9-2.6-2.9c-1.6,0-2.1,0.7-2.1,2.7V106.9z"/>
		<path class="st3" d="M151.2,77.3c1.4,0,2.4,1,2.4,2.4s-1,2.3-2.4,2.3s-2.3-1-2.3-2.3C148.8,78.2,149.8,77.3,151.2,77.3z
			 M153.1,111.5c0,0.7-0.4,1.1-1.1,1.1h-1.6c-0.7,0-1.1-0.4-1.1-1.1V86.6c0-0.7,0.4-1,1.1-1h1.6c0.7,0,1.1,0.3,1.1,1V111.5z"/>
		<path class="st3" d="M162.9,112.9c-4.7,0-6.1-2-6.1-5.8V104c0-0.7,0.3-1.1,1-1.1h1.7c0.7,0,1,0.4,1,1.1v3.1c0,2,0.7,2.7,2.4,2.7
			c1.6,0,2.3-0.7,2.3-2.7c0-3-0.4-3.3-2.1-5l-3.7-3.6c-1.7-1.7-2.6-3.2-2.6-7.3c0-3.7,1.4-5.8,6.1-5.8s6.1,2,6.1,5.8v3.1
			c0,0.7-0.4,1-1.1,1h-1.6c-0.7,0-1.1-0.3-1.1-1v-3.1c0-2.1-0.7-2.7-2.3-2.7c-1.7,0-2.4,0.6-2.4,2.7c0,3,0.4,3.2,2.1,5l3.7,3.6
			c1.7,1.7,2.6,3.2,2.6,7.3C169,110.8,167.6,112.9,162.9,112.9z"/>
		<path class="st3" d="M172.8,86.6c0-0.7,0.4-1,1.1-1h1.6c0.7,0,1.1,0.3,1.1,1v0.6c1.2-1.2,2.9-1.9,4.4-1.9c2.1,0,4,1.4,4,4.5v18.5
			c0,3.1-1.8,4.5-4,4.5c-1.5,0-3.2-0.7-4.4-1.9v10.3c0,0.7-0.4,1-1.1,1h-1.6c-0.7,0-1.1-0.3-1.1-1V86.6z M181.2,91.3
			c0-2-0.6-2.7-2.2-2.7c-1.7,0-2.5,0.9-2.5,2.9v15.2c0,2,0.9,2.9,2.5,2.9s2.2-0.6,2.2-2.7V91.3z"/>
		<path class="st3" d="M192.5,111.5c0,0.7-0.4,1.1-1.1,1.1h-1.6c-0.7,0-1.1-0.4-1.1-1.1V74.8c0-0.7,0.4-1,1.1-1h1.6
			c0.7,0,1.1,0.3,1.1,1V111.5z"/>
		<path class="st3" d="M204.8,97.5v-6.3c0-2.1-0.7-2.7-2.4-2.7c-1.6,0-2.3,0.6-2.3,2.7v2.1c0,0.7-0.4,1-1.1,1h-1.6
			c-0.7,0-1.1-0.3-1.1-1v-2.1c0-3.7,1.4-5.8,6.1-5.8s6,2,6.1,5.8v20.4c0,0.6-0.3,1-1,1h-1.7c-0.7,0-1-0.4-1-1V111
			c-1.3,1.2-3,1.9-4.5,1.9c-2.1,0-4-1.4-4-4.5v-5.1c0-3.7,1.4-5.8,6.1-5.8L204.8,97.5L204.8,97.5z M202.4,100.5
			c-1.6,0-2.3,0.7-2.3,2.7v3.6c0,2.1,0.5,2.7,2.1,2.7c1.7,0,2.6-0.8,2.6-2.9v-6.1H202.4z"/>
		<path class="st3" d="M214.4,86.6l1.9,13.6l0.9,8.5h0.2l0.9-8.5l1.9-13.6c0.1-0.7,0.4-1,1.2-1h1.6c0.7,0,1.1,0.4,1,1.3l-5.2,34.4
			c-0.1,0.7-0.4,1-1.2,1H216c-0.7,0-1.1-0.4-1-1.3l1.4-8.4h-0.8c-0.7,0-1.1-0.3-1.2-1l-3.8-24.7c-0.1-0.9,0.3-1.3,1-1.3h1.6
			C214,85.6,214.3,85.9,214.4,86.6z"/>
	</g>
	<path class="st3" d="M317.8,72.2c0,21.5-17.4,38.9-38.9,38.9S240,93.7,240,72.2s17.4-38.9,38.9-38.9S317.8,50.7,317.8,72.2"/>
	<g>
		<path class="st4" d="M317.8,72.2c0,21.5-17.4,38.9-38.9,38.9S240,93.7,240,72.2s17.4-38.9,38.9-38.9S317.8,50.7,317.8,72.2
			L317.8,72.2z"/>
	</g>
	<path class="st2" d="M275,52.3h-11.5c-2.8,0-5.1,2.2-5.1,5.1V69h4.3V57.4c0-0.4,0.3-0.8,0.8-0.8H275L275,52.3L275,52.3z"/>
	<path class="st2" d="M293.8,52.3h-11.5v4.3h11.6c0.4,0,0.8,0.3,0.8,0.7v11.6h4.3V57.4C298.9,54.6,296.6,52.3,293.8,52.3"/>
	<path class="st2" d="M262.8,87V75.4h-4.3V87c0,2.8,2.2,5.1,5.1,5.1h11.5v-4.3h-11.6C263.1,87.6,262.8,87.3,262.8,87"/>
	<path class="st2" d="M294.5,87c0,0.4-0.3,0.8-0.8,0.8h-11.5v4.3h11.6c2.8,0,5.1-2.3,5.1-5.1V75.4h-4.3L294.5,87z"/>
	<path class="st2" d="M285.5,67.4c0-3.8-3-6.8-6.8-6.8s-6.8,3-6.8,6.8c0,2.2,1.2,4.4,3,5.7c-2.3,0.1-4.3,1.8-4.8,4l-0.4,2.1
		c-0.4,1.7,0.6,3.4,2.3,3.9c0.3,0.1,0.7,0.1,1,0.1h11.5c1.8,0.1,3.2-1.2,3.3-3c0-0.3,0-0.7-0.1-1l-0.5-2.2c-0.5-2.2-2.5-3.9-4.8-4
		C284.3,71.8,285.5,69.6,285.5,67.4"/>
	<g>
		<line class="st1" x1="147.8" y1="230.6" x2="15.9" y2="230.6"/>
	</g>
	<g>
		<path class="st2" d="M34.2,176.7c10.2,0,18.3,8,18.3,18.3c0,10.5-8.1,18.8-18.3,18.8s-18.3-8.3-18.3-18.8
			C16,184.7,24.2,176.7,34.2,176.7z M34.2,210.6c8.1,0,14.6-6.7,14.6-15.5c0-8.6-6.5-15.1-14.6-15.1s-14.6,6.5-14.6,15.1
			C19.7,203.8,26.2,210.6,34.2,210.6z"/>
	</g>
	<g>
		<path class="st2" d="M56.4,177.3h12.4c6.4,0,11.1,4.2,11.1,10.8c0,6.7-4.6,11-11.1,11h-8.9v14.1h-3.5V177.3z M68.3,196
			c4.8,0,7.9-2.9,7.9-7.8c0-4.8-3.1-7.7-7.9-7.7h-8.5V196H68.3z"/>
		<path class="st2" d="M93.4,180.5H80.5v-3.2h29.3v3.2H97v32.7h-3.5L93.4,180.5L93.4,180.5z"/>
	</g>
	<g>
		<path class="st2" d="M113.8,177.3h3.5v35.9h-3.5V177.3z"/>
		<path class="st2" d="M125.4,177.3h3.7l9.4,21.1c0.8,1.8,1.7,4.4,1.7,4.4h0.1c0,0,1-2.6,1.8-4.4l9.4-21.1h3.6l2.9,35.9h-3.5
			l-2-25.1c-0.2-1.9-0.1-5-0.1-5h-0.1c0,0-1.1,3.2-1.9,5l-8.4,18.4h-3.3l-8.4-18.4c-0.8-1.8-1.9-5.1-1.9-5.1h-0.1
			c0,0,0.1,3.2-0.1,5.1l-2,25.1h-3.5L125.4,177.3z"/>
		<path class="st2" d="M163.2,177.3h3.5v35.9h-3.5V177.3z"/>
	</g>
	<g>
		<path class="st2" d="M172.6,210.7l18.5-26.9c1.3-1.9,2.5-3.3,2.5-3.3v-0.1c0,0-0.9,0.1-2.6,0.1h-17.5v-3.2h24.4v2.5l-18.5,26.9
			c-1.3,1.9-2.6,3.3-2.6,3.3v0.1c0,0,0.9-0.1,2.7-0.1h18.6v3.2h-25.6v-2.5H172.6z"/>
		<path class="st2" d="M203.4,177.3h20.2v3.2h-16.7v13.1h13.6v3.2h-13.6v13.3h17.6v3.2h-21.1V177.3z"/>
	</g>
	<g>
		<path class="st5" d="M158.2,231.9l1.9,13.6l0.9,8.5h0.2l0.9-8.5l1.9-13.6c0.1-0.7,0.4-1,1.2-1h1.6c0.6,0,1.1,0.4,1,1.3l-3.8,24.7
			c-0.1,0.7-0.4,1-1.2,1h-3.3c-0.8,0-1.1-0.3-1.2-1l-3.8-24.7c-0.1-0.9,0.3-1.3,1-1.3h1.6C157.8,230.9,158.1,231.1,158.2,231.9z"/>
		<path class="st5" d="M171.9,222.5c1.4,0,2.4,1,2.4,2.4s-1,2.3-2.4,2.3s-2.3-1-2.3-2.3C169.6,223.5,170.6,222.5,171.9,222.5z
			 M173.8,256.8c0,0.7-0.4,1.1-1.1,1.1h-1.6c-0.7,0-1.1-0.4-1.1-1.1v-24.9c0-0.7,0.4-1,1.1-1h1.6c0.7,0,1.1,0.3,1.1,1V256.8z"/>
		<path class="st5" d="M189.8,256.8c0,0.6-0.3,1-1,1h-1.7c-0.7,0-1-0.4-1-1v-0.6c-1.3,1.2-3,1.9-4.5,1.9c-2.1,0-4-1.4-4-4.5v-18.5
			c0-3.1,1.8-4.5,4-4.5c1.5,0,3.2,0.7,4.5,1.9V220c0-0.7,0.3-1,1-1h1.7c0.7,0,1,0.3,1,1V256.8z M181.4,252.1c0,2.1,0.5,2.7,2.1,2.7
			c1.7,0,2.6-0.8,2.6-2.9v-15.2c0-2-0.9-2.9-2.6-2.9c-1.6,0-2.1,0.7-2.1,2.7V252.1z"/>
		<path class="st5" d="M205.8,244.7c0,0.7-0.4,1.1-1.1,1.1h-7.3v6.4c0,2,0.7,2.7,2.3,2.7c1.7,0,2.4-0.7,2.4-2.7v-1.7
			c0-0.7,0.3-1,1-1h1.7c0.7,0,1,0.3,1,1v1.8c0,3.7-1.4,5.8-6.1,5.8s-6.1-2-6.1-5.8v-15.9c0-3.7,1.4-5.8,6.1-5.8s6.1,2,6.1,5.8V244.7
			z M197.4,242.8h4.7v-6.4c0-2.1-0.7-2.7-2.4-2.7c-1.6,0-2.3,0.6-2.3,2.7L197.4,242.8L197.4,242.8z"/>
		<path class="st5" d="M221.8,236.4v15.9c0,3.7-1.4,5.8-6.1,5.8s-6.1-2-6.1-5.8v-15.9c0-3.7,1.4-5.8,6.1-5.8
			S221.8,232.7,221.8,236.4z M213.5,236.4v15.8c0,2,0.7,2.7,2.3,2.7c1.7,0,2.4-0.7,2.4-2.7v-15.8c0-2.1-0.7-2.7-2.4-2.7
			C214.2,233.7,213.5,234.4,213.5,236.4z"/>
	</g>
	<path class="st5" d="M317.6,217.4c0,21.5-17.4,38.9-38.9,38.9s-38.9-17.4-38.9-38.9s17.4-38.9,38.9-38.9
		C300.1,178.5,317.6,195.9,317.6,217.4"/>
	<g>
		<path class="st4" d="M317.6,217.4c0,21.5-17.4,38.9-38.9,38.9s-38.9-17.4-38.9-38.9s17.4-38.9,38.9-38.9
			C300.1,178.5,317.6,195.9,317.6,217.4L317.6,217.4z"/>
	</g>
	<polygon class="st2" points="267.6,232.7 267.6,201 295,216.8 	"/>
	<path class="st2" d="M271.8,208v17.6l15.2-8.8L271.8,208z M267.6,236.7c-2.2,0-4.1-1.8-4.1-4V201c0-2.2,1.8-4.1,4.1-4.1
		c0.7,0,1.4,0.2,2.1,0.6l27.4,15.8c1.9,1.1,2.6,3.5,1.5,5.6v0.1c-0.4,0.6-0.9,1.1-1.5,1.5l-27.4,15.7
		C269,236.5,268.3,236.7,267.6,236.7"/>
	<line class="st1" x1="118.2" y1="374.9" x2="16.4" y2="374.9"/>
	<g>
		<path class="st2" d="M34.8,321c10.2,0,18.3,8,18.3,18.3c0,10.5-8.1,18.8-18.3,18.8s-18.3-8.3-18.3-18.8
			C16.5,329.1,24.7,321,34.8,321z M34.8,354.9c8.1,0,14.6-6.7,14.6-15.5c0-8.6-6.5-15.1-14.6-15.1s-14.6,6.5-14.6,15.1
			C20.2,348.1,26.7,354.9,34.8,354.9z"/>
	</g>
	<g>
		<path class="st2" d="M56.9,321.7h12.4c6.4,0,11.1,4.2,11.1,10.8c0,6.7-4.6,11-11.1,11h-8.9v14h-3.5V321.7z M68.9,340.3
			c4.8,0,7.9-2.9,7.9-7.8c0-4.8-3.1-7.7-7.9-7.7h-8.5v15.5H68.9z"/>
		<path class="st2" d="M94,324.8H81.2v-3.2h29.3v3.2H97.5v32.7H94V324.8z"/>
	</g>
	<g>
		<path class="st2" d="M114.4,321.7h3.5v35.8h-3.5V321.7z"/>
		<path class="st2" d="M126,321.7h3.7l9.4,21.1c0.8,1.8,1.7,4.4,1.7,4.4h0.1c0,0,1-2.6,1.8-4.4l9.4-21.1h3.6l2.8,35.8H155l-2-25.1
			c-0.2-1.9-0.1-5-0.1-5h-0.1c0,0-1.1,3.2-1.9,5l-8.4,18.4h-3.3l-8.4-18.4c-0.8-1.8-1.9-5.1-1.9-5.1h-0.1c0,0,0.1,3.2-0.1,5.1
			l-2,25.1h-3.5L126,321.7z"/>
		<path class="st2" d="M163.8,321.7h3.5v35.8h-3.5V321.7z"/>
	</g>
	<g>
		<path class="st2" d="M173.1,355l18.5-26.9c1.3-1.9,2.5-3.3,2.5-3.3v-0.1c0,0-0.9,0.1-2.6,0.1H174v-3.2h24.5v2.5L180,351
			c-1.3,1.9-2.6,3.3-2.6,3.3v0.1c0,0,0.9-0.1,2.7-0.1h18.6v3.2h-25.6V355z"/>
		<path class="st2" d="M203.9,321.7h20.2v3.2h-16.7V338H221v3.2h-13.6v13.3H225v3.2h-21.1V321.7z"/>
	</g>
	<g>
		<path class="st6" d="M137.1,380.7v15.9c0,3.7-1.4,5.8-6.1,5.8c-4.7,0-6.1-2-6.1-5.8v-15.9c0-3.7,1.4-5.8,6.1-5.8
			C135.8,374.9,137.1,377,137.1,380.7z M128.7,380.8v15.8c0,2,0.7,2.7,2.3,2.7c1.7,0,2.4-0.7,2.4-2.7v-15.8c0-2.1-0.7-2.7-2.4-2.7
			C129.4,378,128.7,378.7,128.7,380.8z"/>
		<path class="st6" d="M142.4,375.2v-7.1c0-0.7,0.4-1,1.1-1h1.6c0.7,0,1.1,0.3,1.1,1v7.1h3.1c0.7,0,1.1,0.3,1.1,1v1
			c0,0.7-0.4,1.1-1.1,1.1h-3.1v17.5c0,2.1,0.5,3.3,2.9,3.3h1.2c0.7,0,1.1,0.3,1.1,1v1c0,0.7-0.4,1.1-1.1,1.1h-1.2
			c-5.1,0-6.6-2.2-6.6-6.3v-17.6h-2.1c-0.7,0-1.1-0.4-1.1-1.1v-1c0-0.7,0.4-1,1.1-1H142.4z"/>
		<path class="st6" d="M154.9,375.2v-7.1c0-0.7,0.4-1,1.1-1h1.6c0.7,0,1.1,0.3,1.1,1v7.1h3.1c0.7,0,1.1,0.3,1.1,1v1
			c0,0.7-0.4,1.1-1.1,1.1h-3.1v17.5c0,2.1,0.5,3.3,2.9,3.3h1.2c0.7,0,1.1,0.3,1.1,1v1c0,0.7-0.4,1.1-1.1,1.1h-1.3
			c-5.1,0-6.6-2.2-6.6-6.3v-17.6h-2.1c-0.7,0-1.1-0.4-1.1-1.1v-1c0-0.7,0.4-1,1.1-1H154.9z"/>
	</g>
	<g>
		<path class="st6" d="M173.9,386.1h5.5c0.7,0,1,0.3,1,1v1.3c0,0.7-0.3,1.1-1,1.1h-5.5v5.5c0,0.7-0.3,1.1-1,1.1h-1.3
			c-0.7,0-1.1-0.4-1.1-1.1v-5.5H165c-0.7,0-1.1-0.4-1.1-1.1v-1.3c0-0.7,0.4-1,1.1-1h5.5v-5.5c0-0.7,0.4-1,1.1-1h1.3c0.7,0,1,0.3,1,1
			V386.1z"/>
	</g>
	<g>
		<path class="st6" d="M196.5,384.5c0,0.7-0.3,1-1,1h-1.7c-0.7,0-1-0.3-1-1v-3.8c0-2.1-0.7-2.7-2.4-2.7c-1.6,0-2.3,0.6-2.3,2.7v15.8
			c0,2,0.7,2.7,2.3,2.7c1.7,0,2.4-0.7,2.4-2.7v-3.8c0-0.7,0.3-1.1,1-1.1h1.7c0.7,0,1,0.4,1,1.1v3.8c0,3.7-1.4,5.8-6.1,5.8
			s-6.1-2-6.1-5.8v-15.9c0-3.7,1.4-5.8,6.1-5.8s6.1,2,6.1,5.8V384.5z"/>
		<path class="st6" d="M201.8,375.2v-7.1c0-0.7,0.4-1,1.1-1h1.6c0.7,0,1.1,0.3,1.1,1v7.1h3.1c0.7,0,1.1,0.3,1.1,1v1
			c0,0.7-0.4,1.1-1.1,1.1h-3.1v17.5c0,2.1,0.5,3.3,2.9,3.3h1.2c0.7,0,1.1,0.3,1.1,1v1c0,0.7-0.4,1.1-1.1,1.1h-1.2
			c-5.1,0-6.6-2.2-6.6-6.3v-17.6h-2.1c-0.7,0-1.1-0.4-1.1-1.1v-1c0-0.7,0.4-1,1.1-1H201.8z"/>
		<path class="st6" d="M214.9,376.2l1.9,13.6l0.9,8.5h0.2l0.9-8.5l1.9-13.6c0.1-0.7,0.4-1,1.2-1h1.6c0.6,0,1.1,0.4,1,1.3l-3.8,24.7
			c-0.1,0.7-0.4,1-1.2,1h-3.3c-0.8,0-1.1-0.3-1.2-1l-3.8-24.7c-0.1-0.9,0.3-1.3,1-1.3h1.6C214.5,375.2,214.8,375.5,214.9,376.2z"/>
	</g>
	<path class="st6" d="M318.1,361.7c0,21.5-17.4,38.9-38.9,38.9s-38.9-17.4-38.9-38.9s17.4-38.9,38.9-38.9
		C300.8,322.8,318.1,340.2,318.1,361.7"/>
	<g>
		<path class="st4" d="M318.1,361.7c0,21.5-17.4,38.9-38.9,38.9s-38.9-17.4-38.9-38.9s17.4-38.9,38.9-38.9
			C300.8,322.8,318.1,340.2,318.1,361.7L318.1,361.7z"/>
	</g>
	<polygon class="st2" points="282.8,378.3 275.5,378.3 277.2,366 281.1,366 	"/>
	<path class="st2" d="M291.5,379h-26.1c-0.1,0-0.2-0.1-0.2-0.2v-0.3c0-1.7,1.4-3.2,3.2-3.2h23.1c0.9,0,1.7,0.8,1.7,1.7v0.3
		C293.2,378.3,292.5,379,291.5,379"/>
	<path class="st2" d="M285.6,360c-0.2,0.2-0.3,0.3-0.5,0.5l-8.3,4.7c-0.1,0.1-0.4,0.2-0.6,0.2c-0.7,0-1.2-0.5-1.2-1.2v-9.5
		c0-0.7,0.5-1.2,1.2-1.2c0.2,0,0.4,0,0.6,0.2l8.3,4.7C285.8,358.7,285.9,359.5,285.6,360 M255.9,372.5h46.6v-26.2h-46.6V372.5z"/>
	<line class="st1" x1="148.2" y1="524.3" x2="16.4" y2="524.3"/>
	<g>
		<path class="st2" d="M34.8,470.5c10.2,0,18.3,8,18.3,18.3c0,10.5-8.1,18.8-18.3,18.8s-18.3-8.3-18.3-18.8
			C16.5,478.5,24.7,470.5,34.8,470.5z M34.8,504.3c8.1,0,14.6-6.7,14.6-15.5c0-8.6-6.5-15.1-14.6-15.1s-14.6,6.5-14.6,15.1
			C20.2,497.6,26.7,504.3,34.8,504.3z"/>
	</g>
	<g>
		<path class="st7" d="M16.5,488.8c0,10.5,8.1,18.8,18.3,18.8s18.3-8.3,18.3-18.8c0-10.3-8.1-18.3-18.3-18.3S16.5,478.5,16.5,488.8
			L16.5,488.8z M20.2,488.8c0-8.6,6.5-15.1,14.6-15.1s14.6,6.5,14.6,15.1c0,8.8-6.5,15.5-14.6,15.5S20.2,497.6,20.2,488.8
			L20.2,488.8z"/>
	</g>
	<g>
		<path class="st2" d="M56.9,471.1h12.4c6.4,0,11.1,4.2,11.1,10.8c0,6.7-4.6,11-11.1,11h-8.9V507h-3.5V471.1z M68.9,489.7
			c4.8,0,7.9-2.9,7.9-7.8c0-4.8-3.1-7.7-7.9-7.7h-8.5v15.5H68.9z"/>
	</g>
	<g>
		<path class="st7" d="M56.9,507h3.5v-14.1h8.9c6.4,0,11.1-4.3,11.1-11c0-6.6-4.6-10.8-11.1-10.8H56.9V507z M60.4,489.7v-15.5h8.5
			c4.7,0,7.9,2.8,7.9,7.7s-3.1,7.8-7.9,7.8H60.4z"/>
	</g>
	<g>
		<path class="st2" d="M94,474.3H81.2v-3.2h29.3v3.2H97.5V507H94V474.3z"/>
	</g>
	<g>
		<polygon class="st7" points="94,507 97.5,507 97.5,474.3 110.3,474.3 110.3,471.1 81,471.1 81,474.3 94,474.3 		"/>
	</g>
	<g>
		<path class="st2" d="M114.4,471.1h3.5V507h-3.5V471.1z"/>
	</g>
	<g>
		<rect x="114.4" y="471.1" class="st7" width="3.5" height="35.9"/>
	</g>
	<g>
		<path class="st2" d="M125.9,471.1h3.7l9.4,21.1c0.8,1.8,1.7,4.4,1.7,4.4h0.1c0,0,1-2.6,1.8-4.4l9.4-21.1h3.6l2.9,35.9H155l-2-25.1
			c-0.2-1.9-0.1-5-0.1-5h-0.1c0,0-1.1,3.2-1.9,5l-8.4,18.4h-3.3l-8.4-18.4c-0.8-1.8-1.9-5.1-1.9-5.1h-0.1c0,0,0.1,3.2-0.1,5.1
			l-2,25.1h-3.5L125.9,471.1z"/>
	</g>
	<g>
		<path class="st7" d="M123.2,507h3.5l2-25.1c0.2-1.9,0.1-5.1,0.1-5.1h0.1c0,0,1.1,3.3,1.9,5.1l8.4,18.4h3.3l8.4-18.4
			c0.8-1.8,1.9-5,1.9-5h0.1c0,0-0.1,3.1,0.1,5l2,25.1h3.5l-2.9-35.9h-3.6l-9.4,21.1c-0.8,1.8-1.8,4.4-1.8,4.4h-0.1
			c0,0-0.9-2.6-1.7-4.4l-9.4-21.1h-3.7L123.2,507z"/>
	</g>
	<g>
		<path class="st2" d="M163.8,471.1h3.5V507h-3.5V471.1z"/>
	</g>
	<g>
		<rect x="163.8" y="471.1" class="st7" width="3.5" height="35.9"/>
	</g>
	<g>
		<path class="st2" d="M173.1,504.5l18.5-26.9c1.3-1.9,2.5-3.3,2.5-3.3v-0.1c0,0-0.9,0.1-2.6,0.1H174v-3.2h24.5v2.5L180,500.5
			c-1.3,1.9-2.6,3.3-2.6,3.3v0.1c0,0,0.9-0.1,2.7-0.1h18.6v3.2h-25.6V504.5z"/>
	</g>
	<g>
		<path class="st7" d="M173.1,507h25.6v-3.2h-18.6c-1.7,0-2.7,0.1-2.7,0.1v-0.1c0,0,1.2-1.3,2.6-3.3l18.5-26.9v-2.5h-24.4v3.2h17.4
			c1.7,0,2.6-0.1,2.6-0.1v0.1c0,0-1.2,1.4-2.5,3.3l-18.5,26.9V507z"/>
	</g>
	<g>
		<path class="st2" d="M203.9,471.1h20.2v3.2h-16.7v13.1H221v3.2h-13.6v13.3H225v3.2h-21.1V471.1z"/>
	</g>
	<g>
		<polygon class="st7" points="203.9,507 225,507 225,503.8 207.4,503.8 207.4,490.5 221.1,490.5 221.1,487.3 207.4,487.3 
			207.4,474.3 224.1,474.3 224.1,471.1 203.9,471.1 		"/>
	</g>
	<g>
		<path class="st8" d="M163.5,536.5v-6.3c0-2.1-0.7-2.7-2.4-2.7c-1.6,0-2.3,0.6-2.3,2.7v2.1c0,0.7-0.4,1-1.1,1h-1.6
			c-0.7,0-1.1-0.3-1.1-1v-2.1c0-3.7,1.4-5.8,6.1-5.8s6,2,6.1,5.8v20.4c0,0.6-0.3,1-1,1h-1.7c-0.7,0-1-0.4-1-1V550
			c-1.3,1.2-3,1.9-4.5,1.9c-2.1,0-4-1.4-4-4.5v-5.1c0-3.7,1.4-5.8,6.1-5.8L163.5,536.5L163.5,536.5z M161.1,539.5
			c-1.6,0-2.3,0.7-2.3,2.7v3.6c0,2.1,0.5,2.7,2.1,2.7c1.7,0,2.6-0.8,2.6-2.9v-6.1H161.1z"/>
		<path class="st8" d="M171.1,525.6c0-0.7,0.4-1,1.1-1h1.6c0.7,0,1.1,0.3,1.1,1v20.2c0,2.1,0.5,2.7,2.1,2.7c1.7,0,2.6-0.8,2.6-2.9
			v-20.1c0-0.7,0.3-1,1-1h1.7c0.7,0,1,0.3,1,1v24.9c0,0.6-0.3,1-1,1h-1.7c-0.7,0-1-0.4-1-1v-0.6c-1.3,1.2-3,1.9-4.5,1.9
			c-2.1,0-4-1.4-4-4.5L171.1,525.6L171.1,525.6z"/>
		<path class="st8" d="M199.2,550.6c0,0.6-0.3,1-1,1h-1.7c-0.7,0-1-0.4-1-1V550c-1.3,1.2-3,1.9-4.5,1.9c-2.1,0-4-1.4-4-4.5v-18.5
			c0-3.1,1.8-4.5,4-4.5c1.5,0,3.2,0.7,4.5,1.9v-12.5c0-0.7,0.3-1,1-1h1.7c0.7,0,1,0.3,1,1V550.6z M190.9,545.9
			c0,2.1,0.5,2.7,2.1,2.7c1.7,0,2.6-0.8,2.6-2.9v-15.2c0-2-0.9-2.9-2.6-2.9c-1.6,0-2.1,0.7-2.1,2.7V545.9z"/>
		<path class="st8" d="M205,516.3c1.4,0,2.4,1,2.4,2.4s-1,2.3-2.4,2.3s-2.3-1-2.3-2.3C202.6,517.2,203.6,516.3,205,516.3z
			 M206.9,550.5c0,0.7-0.4,1.1-1.1,1.1h-1.6c-0.7,0-1.1-0.4-1.1-1.1v-24.9c0-0.7,0.4-1,1.1-1h1.6c0.7,0,1.1,0.3,1.1,1V550.5z"/>
		<path class="st8" d="M222.9,530.1V546c0,3.7-1.4,5.8-6.1,5.8s-6.1-2-6.1-5.8v-15.9c0-3.7,1.4-5.8,6.1-5.8S222.9,526.4,222.9,530.1
			z M214.5,530.2V546c0,2,0.7,2.7,2.3,2.7c1.7,0,2.4-0.7,2.4-2.7v-15.8c0-2.1-0.7-2.7-2.4-2.7C215.2,527.5,214.5,528.1,214.5,530.2z
			"/>
	</g>
	<path class="st8" d="M318.1,511.2c0,21.5-17.4,38.9-38.9,38.9s-38.9-17.4-38.9-38.9c0-21.5,17.4-38.9,38.9-38.9
		C300.8,472.2,318.1,489.7,318.1,511.2"/>
	<g>
		<path class="st4" d="M318.1,511.2c0,21.5-17.4,38.9-38.9,38.9s-38.9-17.4-38.9-38.9c0-21.5,17.4-38.9,38.9-38.9
			C300.8,472.2,318.1,489.7,318.1,511.2L318.1,511.2z"/>
	</g>
	<path class="st2" d="M274,514.7c4.4-0.3,8-3.9,8-8.4c0-4.7-3.8-8.5-8.5-8.5c-0.5,0-1,0-1.5,0.1l-4.6-8.9c0.5-0.3,0.9-0.5,1.2-0.6
		c6.4-2.5,14.2-0.9,18.3,1.3c2.2,1.2,5.6,4.5,6.6,6.3c1.1,2,3,8.1,2.8,8.9c-0.2,0.6-0.9,1.8-0.7,2.4c0.8,1.8,4.1,5.9,4.1,6.7
		c0,1.1-2.2,1.3-2.5,1.8c-0.4,0.5-0.2,1.5-0.2,1.5s0.5,1,0.5,1.3c-0.1,0.6-1,1.2-1,1.2s0.8,0.4,0.9,1.3c0,0.3-1.1,1.4-1.1,1.7
		c-0.1,0.8,0.7,2.5,0.3,3.3c-0.2,0.5-0.3,3.5-6.5,2.5c-0.8-0.1-3.2-0.5-3.2-0.5c-0.7,1.6,0.3,2.1-1.8,5.3c-0.6,1-1.2,4-1.2,4
		l-11.6-8.2l-0.5-0.3l-5.4-3.8c0,0,0-5.4-2.1-8c-3.9-4.9-5.4-11.3-5.3-15.3c0.1-4.2,2.1-7.4,4.2-9.6l4.2,8.1c-1.5,1.5-2.5,3.6-2.5,6
		c0,4.3,3.2,7.9,7.4,8.4C272.4,514.6,273.3,514.7,274,514.7"/>
</g>
</svg>
