<?xml version="1.0" encoding="utf-8"?>
<!-- Generator: Adobe Illustrator 25.2.3, SVG Export Plug-In . SVG Version: 6.00 Build 0)  -->
<svg version="1.1" id="white" xmlns="http://www.w3.org/2000/svg" xmlns:xlink="http://www.w3.org/1999/xlink" x="0px" y="0px"
	 viewBox="0 0 200 200" style="enable-background:new 0 0 200 200;" xml:space="preserve">
<style type="text/css">
	.st0{clip-path:url(#SVGID_2_);fill:none;stroke:#FFFFFF;stroke-width:1.5956;stroke-miterlimit:10;}
	.st1{fill:#DC4339;}
	.st2{fill:#E6E6E5;}
	.st3{fill:#F9D273;}
	.st4{fill:#FFFFFF;}
</style>
<g>
	<defs>
		<polygon id="SVGID_1_" points="63.3,31.8 74.5,20.1 7.4,20.1 7.4,194.1 193,194.1 193,17.6 118.3,17.6 134.9,28.2 		"/>
	</defs>
	<clipPath id="SVGID_2_">
		<use xlink:href="#SVGID_1_"  style="overflow:visible;"/>
	</clipPath>
	<circle class="st0" cx="100" cy="104.1" r="85"/>
</g>
<path class="st1" d="M94.1,8C94.1,8,94.1,8,94.1,8C94.1,8,94.1,8,94.1,8z"/>
<path class="st1" d="M94.4,7.6C94.4,7.6,94.4,7.6,94.4,7.6C94.4,7.6,94.4,7.6,94.4,7.6z"/>
<path class="st2" d="M94.4,7.6c-0.1,0.1-0.2,0.2-0.3,0.3C94.2,7.9,94.3,7.8,94.4,7.6z"/>
<path class="st3" d="M98.9,73.2c-0.1,0-0.2,0-0.4,0C98.6,73.2,98.7,73.2,98.9,73.2z"/>
<path class="st3" d="M98.1,73.2c0.1,0,0.2,0,0.4,0l0,0C98.4,73.2,98.3,73.2,98.1,73.2z"/>
<polygon class="st3" points="98.5,73.2 98.5,73.2 98.5,73.2 "/>
<g>
	<path class="st4" d="M93.4,95.3c1.2-0.1,2.4,0.2,3.5,0.4c1,0.2,2,0.5,3,0.5c1,0,2-0.2,3-0.5c1.2-0.3,2.4-0.5,3.5-0.4
		c0.5,0,0.9-0.3,1.1-0.9c0.4-1.3-0.3-4.1-1.2-4.7c-0.1-0.1-0.5-0.3-0.6-0.3l-0.4-0.2l0.1,0.4c0.2,0.7,0,1.3-0.4,1.8
		c-1.1,1.5-4.2,1.9-5.2,1.9c-1,0-4.1-0.5-5.2-1.9c-0.4-0.5-0.5-1.1-0.4-1.8l0.1-0.4l-0.4,0.2c0,0-0.4,0.2-0.6,0.3
		c-0.9,0.6-1.6,3.3-1.2,4.7C92.5,95,92.9,95.3,93.4,95.3z"/>
	<path class="st4" d="M123.7,170c0,0,0.2-0.1,0.6-0.3c0.4-0.2,1-0.5,1.7-0.8c0.4-0.2,0.8-0.4,1.2-0.6c0.2-0.1,0.5-0.2,0.7-0.4
		c0.2-0.1,0.5-0.3,0.7-0.4c1-0.6,2.1-1.3,3.3-2c0.6-0.4,1.2-0.8,1.8-1.3c0.6-0.5,1.3-0.9,1.9-1.4c0.6-0.5,1.3-1,1.9-1.6
		c0.3-0.3,0.7-0.6,1-0.8c0.2-0.1,0.3-0.3,0.5-0.4c0.2-0.1,0.3-0.3,0.5-0.5c0.7-0.6,1.3-1.2,2-1.9c0.3-0.3,0.6-0.6,1-1
		c0.3-0.3,0.6-0.7,0.9-1c0.6-0.7,1.2-1.4,1.9-2.1c0.3-0.4,0.6-0.7,0.9-1.1c0.3-0.4,0.6-0.7,0.9-1.1l0.8-1.1l0.4-0.6l0.4-0.6
		c0.3-0.4,0.5-0.8,0.8-1.2c0.3-0.4,0.5-0.8,0.8-1.2c1-1.6,1.9-3.2,2.7-4.7c1-1.9,1.9-3.8,2.6-5.6c-1.8-1.4-4-2.7-6.4-4
		c-1,2.8-3,5.5-5.6,7.8c1.2-1.7,1.8-3.6,1.8-5.4c0-6-6.2-11.3-16-14.9l0.7-7.7l0.5-4.9l0.1-1.5c2.4-2.9,4.3-5.6,4.8-7.5
		c0.5-2.1,2.3-9.6,3.1-12.2c9.8-4.3,14-8.5,14-13.9c0-2.1-0.6-5.3-1.8-7.2c0-2.3-0.2-4.6-0.5-6.9c-1.1-8.1-3.7-15.8-7.8-22.6
		c-1.9-3.2-4.1-6.1-6.6-8.9c-9.6-10.4-22.4-16.2-35.9-16.2c-13.6,0-26.3,5.7-35.9,16.2c-2.5,2.7-4.7,5.7-6.6,8.9
		c-4.1,6.8-6.8,14.5-7.8,22.6c-0.3,2.3-0.5,4.6-0.5,6.9c-1.2,1.9-1.8,5.1-1.8,7.2c0,5.5,4.2,9.6,14,13.9c0.8,2.6,2.6,10,3.1,12.2
		c0.4,1.9,2.3,4.6,4.8,7.5l0.1,1.5l0.5,4.9l0.7,7.7c-9.8,3.6-16,8.9-16,14.9c0,1.9,0.6,3.7,1.8,5.4c-2.6-2.4-4.6-5-5.6-7.8
		c-2.4,1.2-4.6,2.6-6.4,4c0.7,1.8,1.6,3.7,2.6,5.6c0.8,1.6,1.7,3.2,2.7,4.7c0.3,0.4,0.5,0.8,0.8,1.2c0.3,0.4,0.5,0.8,0.8,1.2
		l0.4,0.6l0.4,0.6l0.8,1.1c0.3,0.4,0.6,0.7,0.9,1.1c0.3,0.4,0.6,0.7,0.9,1.1c0.6,0.7,1.2,1.4,1.9,2.1c0.3,0.3,0.6,0.7,0.9,1
		c0.3,0.3,0.6,0.7,1,1c0.6,0.7,1.3,1.3,2,1.9c0.2,0.2,0.3,0.3,0.5,0.5c0.2,0.1,0.3,0.3,0.5,0.4c0.3,0.3,0.7,0.6,1,0.8
		c0.7,0.6,1.3,1.1,1.9,1.6c0.7,0.5,1.3,1,1.9,1.4c0.6,0.4,1.2,0.9,1.8,1.3c1.2,0.8,2.3,1.5,3.3,2c0.3,0.1,0.5,0.3,0.7,0.4
		c0.2,0.1,0.5,0.3,0.7,0.4c0.4,0.2,0.8,0.5,1.2,0.6c0.7,0.4,1.3,0.7,1.7,0.8c0.4,0.2,0.6,0.3,0.6,0.3s11.4,5.3,23.7,5.3
		S123.7,170,123.7,170z M65.9,31.5c8.9-9.9,21.1-15.6,34-15.6c13,0,25.2,5.7,34,15.6c1.6,1.8,3.1,3.7,4.5,5.8
		c-2.5-2.6-5.3-5-8.2-7.1c-9-6.4-19.6-9.9-30.4-9.9c-10.8,0-21.4,3.5-30.4,9.9c-2.9,2.1-5.7,4.4-8.2,7.1
		C62.8,35.2,64.3,33.3,65.9,31.5z M51.5,69.7c6.8-9,17.9-10.7,28.1-10.7c3.4,0,7,0.2,10.4,0.3c3.3,0.1,6.8,0.3,10,0.3
		s6.7-0.2,10-0.3c3.4-0.2,7-0.3,10.4-0.3c10.1,0,21.3,1.7,28.1,10.7c-8.1-6.6-17.4-7.5-26.2-7.5c-3.4,0-6.8,0.2-10.5,0.3
		c-3.8,0.2-7.8,0.3-11.8,0.3c-4.1,0-8-0.2-11.8-0.3c-3.6-0.2-7.1-0.3-10.5-0.3C68.9,62.1,59.6,63.1,51.5,69.7z M122.8,120.3
		l-1.4,14.7c-2.8,3.3-13.8,8.3-21.4,11.1c-7.6-2.8-18.6-7.7-21.4-11.1l-1.4-14.7l-0.6-6.3c2.9,3.1,5.4,5.9,6.4,7.6
		c0.2,0.4,0.5,0.8,0.7,1.1l7.3,14.9l-0.5-11c3.4,0.8,7.1,0.8,9.6,0.8c2.5,0,6.2,0,9.6-0.8l-0.5,11l7.3-14.9c0.3-0.3,0.5-0.7,0.7-1.1
		c0.9-1.7,3.5-4.5,6.4-7.6L122.8,120.3z M121.4,95.2c-0.4,5-1.6,12.1-3.5,16.8c-0.4,1-2.5,3.5-2.9,4.2c-2.9,5-8.7,4.3-14,4.3
		c-0.3,0-0.6,0-1-0.1l0,0l0,0c-0.3,0-0.7,0.1-1,0.1c-5.3,0-11.1,0.6-14-4.3c-0.4-0.7-2.5-3.2-2.9-4.2c-1.9-4.6-3.1-11.8-3.5-16.8
		c0,0-0.9-1-2.1-2.5c-1.8-2.3-4.2-5.7-4.9-8.4c0,0,3.6-1.4,10.4-2.3c3.2-0.4,7.2-0.8,11.8-0.8l0.4,5.4l1.7-5.6c0,0,1-2.5,1.6-3.2
		c0.5-0.7,1.9-1,2.4-1c0.5,0,1.8,0.3,2.4,1c0.5,0.7,1.6,3.2,1.6,3.2l1.7,5.6l0.4-5.4c4.6,0.1,8.6,0.4,11.8,0.8
		c6.8,0.9,10.4,2.3,10.4,2.3c-0.6,2.7-3,6.1-4.9,8.4C122.3,94.2,121.4,95.2,121.4,95.2z"/>
	<path class="st4" d="M100,108.7c-2.8-0.1-8.6-0.7-9.6-1.2l-0.5-0.2l2.3,5.7l0.2,0c0,0,4.6-1.1,7.5-1.1l0.1,0l0.1,0
		c2.9,0,7.5,1.1,7.5,1.1l0.2,0l2.3-5.7l-0.5,0.2C108.6,108,102.7,108.6,100,108.7z"/>
	<path class="st4" d="M103.7,100.9L103.7,100.9c-0.9,0-2.7,0.5-3.7,0.8c-1-0.3-2.8-0.8-3.7-0.8h0c-2.1,0-7.7,2.1-7.7,3.6v0.3H100
		h11.4v-0.3C111.3,103,105.7,100.9,103.7,100.9z"/>
	<polygon class="st4" points="47.3,101.2 43.7,93.9 40.1,101.2 32.1,102.4 37.9,108.1 36.5,116.1 43.7,112.3 50.9,116.1 49.5,108.1 
		55.3,102.4 	"/>
	<polygon class="st4" points="160.3,101.2 156.7,93.9 153.1,101.2 145.1,102.4 150.9,108.1 149.5,116.1 156.7,112.3 163.9,116.1 
		162.6,108.1 168.4,102.4 	"/>
</g>
</svg>
