<?xml version="1.0" encoding="UTF-8" standalone="no"?>
<svg
   xmlns:dc="http://purl.org/dc/elements/1.1/"
   xmlns:cc="http://creativecommons.org/ns#"
   xmlns:rdf="http://www.w3.org/1999/02/22-rdf-syntax-ns#"
   xmlns:svg="http://www.w3.org/2000/svg"
   xmlns="http://www.w3.org/2000/svg"
   xmlns:sodipodi="http://sodipodi.sourceforge.net/DTD/sodipodi-0.dtd"
   xmlns:inkscape="http://www.inkscape.org/namespaces/inkscape"
   version="1.1"
   id="Layer_1"
   x="0px"
   y="0px"
   viewBox="0 0 417.29999 360.84323"
   xml:space="preserve"
   sodipodi:docname="atom-icon-white.svg"
   width="417.29999"
   height="360.84323"
   inkscape:version="1.0.1 (3bc2e813f5, 2020-09-07)"><metadata
   id="metadata25"><rdf:RDF><cc:Work
       rdf:about=""><dc:format>image/svg+xml</dc:format><dc:type
         rdf:resource="http://purl.org/dc/dcmitype/StillImage" /><dc:title></dc:title></cc:Work></rdf:RDF></metadata><defs
   id="defs23" /><sodipodi:namedview
   pagecolor="#ffffff"
   bordercolor="#666666"
   borderopacity="1"
   objecttolerance="10"
   gridtolerance="10"
   guidetolerance="10"
   inkscape:pageopacity="0"
   inkscape:pageshadow="2"
   inkscape:window-width="2136"
   inkscape:window-height="1888"
   id="namedview21"
   showgrid="false"
   fit-margin-top="0"
   fit-margin-left="0"
   fit-margin-right="0"
   fit-margin-bottom="0"
   inkscape:zoom="1.26"
   inkscape:cx="88.422222"
   inkscape:cy="207.37162"
   inkscape:window-x="6"
   inkscape:window-y="6"
   inkscape:window-maximized="0"
   inkscape:current-layer="Layer_1" />
<style
   type="text/css"
   id="style2">
	.st0{fill:#FFFFFF;}
</style>
<g
   id="g18"
   transform="translate(-208.8,-192.62838)">
	<path
   class="st0"
   d="m 417.4,299.7 c -115.2,0 -208.6,32.8 -208.6,73.3 0,40.5 93.4,73.3 208.6,73.3 31.5,0 61.3,-2.5 88.1,-6.9 -1.1,-3.6 -2.7,-6.9 -4.8,-9.8 -24.9,4.7 -53.2,7.4 -83.3,7.4 -98.4,0 -178.2,-28.6 -178.2,-64 0,-35.4 79.8,-64 178.2,-64 98.4,0 178.2,28.6 178.2,64 0,2.8 -0.5,5.5 -1.5,8.2 7.5,4.4 13.3,11.4 16.3,19.6 10.1,-8.6 15.7,-18 15.7,-27.9 -0.1,-40.4 -93.5,-73.2 -208.7,-73.2 z"
   id="path4" />
	<path
   class="st0"
   d="m 479.1,333.6 c -14.7,-23.1 -30.4,-44.1 -46.1,-62.5 -2.3,1.5 -4.5,3.2 -6.5,5.1 -0.5,0.5 -0.9,1 -1.4,1.5 15.7,17.3 31.4,37.9 46.1,60.8 53,83 71.7,165.6 41.9,184.6 -29.8,19 -96.9,-32.8 -149.8,-115.8 -52.9,-83 -71.7,-165.6 -41.9,-184.6 4,-2.5 8.6,-3.8 13.7,-3.9 1.6,-7.8 5.6,-14.8 11.2,-20 -16.7,-7.3 -31,-8.3 -41.4,-1.7 -34.1,21.8 -11.5,118.2 50.5,215.3 62,97.1 139.9,158.2 174,136.4 34.3,-21.7 11.7,-118.1 -50.3,-215.2 z"
   id="path6" />
	<circle
   class="st0"
   cx="417.39999"
   cy="373"
   r="35.599998"
   id="circle8" />
	<path
   class="st0"
   d="m 324.1,415 c 9.4,-24.1 22.6,-50.2 39.2,-76.3 52.8,-83 119.8,-135 149.6,-116 29.8,19 11.2,101.7 -41.6,184.7 -52.8,83 -119.8,135 -149.6,116 -0.8,-0.5 -1.6,-1.2 -2.4,-1.8 -5.3,3.3 -11.6,5.4 -18.3,5.7 -3.4,0.1 -6.6,-0.2 -9.7,-0.9 2.4,10.3 6.9,18.2 14,22.7 34.2,21.7 112,-39.5 173.8,-136.7 61.8,-97.2 84.3,-193.7 50.1,-215.4 -34.2,-21.7 -112,39.5 -173.8,136.7 -17,26.7 -30.9,53.3 -41.6,78.3 z"
   id="path10" />
	<circle
   class="st0"
   cx="299.39999"
   cy="489.29999"
   r="28.4"
   id="circle12" />
	<circle
   class="st0"
   cx="574.70001"
   cy="413.79999"
   r="28.4"
   id="circle14" />
	<circle
   class="st0"
   cx="373.70001"
   cy="226.89999"
   r="28.4"
   id="circle16" />
</g>
</svg>
