<?xml version="1.0" encoding="UTF-8" standalone="no"?>
<svg
   xmlns:dc="http://purl.org/dc/elements/1.1/"
   xmlns:cc="http://creativecommons.org/ns#"
   xmlns:rdf="http://www.w3.org/1999/02/22-rdf-syntax-ns#"
   xmlns:svg="http://www.w3.org/2000/svg"
   xmlns="http://www.w3.org/2000/svg"
   xmlns:sodipodi="http://sodipodi.sourceforge.net/DTD/sodipodi-0.dtd"
   xmlns:inkscape="http://www.inkscape.org/namespaces/inkscape"
   version="1.1"
   id="Layer_1"
   x="0px"
   y="0px"
   viewBox="0 0 163.89999 131"
   xml:space="preserve"
   sodipodi:docname="calendar-2020.svg"
   width="163.89999"
   height="131"
   inkscape:version="1.0.1 (3bc2e813f5, 2020-09-07)"><metadata
   id="metadata27"><rdf:RDF><cc:Work
       rdf:about=""><dc:format>image/svg+xml</dc:format><dc:type
         rdf:resource="http://purl.org/dc/dcmitype/StillImage" /><dc:title></dc:title></cc:Work></rdf:RDF></metadata><defs
   id="defs25" /><sodipodi:namedview
   pagecolor="#ffffff"
   bordercolor="#666666"
   borderopacity="1"
   objecttolerance="10"
   gridtolerance="10"
   guidetolerance="10"
   inkscape:pageopacity="0"
   inkscape:pageshadow="2"
   inkscape:window-width="2136"
   inkscape:window-height="1888"
   id="namedview23"
   showgrid="false"
   fit-margin-top="0"
   fit-margin-left="0"
   fit-margin-right="0"
   fit-margin-bottom="0"
   inkscape:zoom="1.2727273"
   inkscape:cx="-19.75"
   inkscape:cy="65"
   inkscape:window-x="6"
   inkscape:window-y="6"
   inkscape:window-maximized="0"
   inkscape:current-layer="Layer_1" />
<style
   type="text/css"
   id="style2">
	.st0{fill-rule:evenodd;clip-rule:evenodd;fill:#004F6E;}
	.st1{fill:#004F6E;}
</style>
<g
   id="g20"
   transform="translate(-224,-331)">
	<g
   id="g6">
		<path
   class="st0"
   d="m 379,440.1 c 0,7.2 -5.8,13 -13,13 H 245.8 c -7.2,0 -13,-5.8 -13,-13 v -56 H 379 Z m -4.1,-94.3 h -9.1 v 8.4 c 1.8,2.1 3,4.8 3,7.8 0,6.5 -5.3,11.8 -11.8,11.8 -6.5,0 -11.8,-5.3 -11.8,-11.8 0,-3 1.1,-5.7 3,-7.8 v -8.4 H 264 v 8.4 c 1.8,2.1 3,4.8 3,7.8 0,6.5 -5.3,11.8 -11.8,11.8 -6.5,0 -11.8,-5.3 -11.8,-11.8 0,-3 1.1,-5.7 3,-7.8 v -8.4 H 237 c -7.2,0 -13,5.8 -13,13 V 449 c 0,7.2 5.8,13 13,13 h 137.9 c 7.2,0 13,-5.8 13,-13 v -90.2 c 0,-7.2 -5.9,-13 -13,-13 M 255,369.4 c 4.1,0 7.4,-3.3 7.4,-7.4 v -23.6 c 0,-4.1 -3.3,-7.4 -7.4,-7.4 -4.1,0 -7.4,3.3 -7.4,7.4 V 362 c 0,4.1 3.3,7.4 7.4,7.4 m 101.9,0 c 4.1,0 7.4,-3.3 7.4,-7.4 v -23.6 c 0,-4.1 -3.3,-7.4 -7.4,-7.4 -4.1,0 -7.4,3.3 -7.4,7.4 V 362 c 0,4.1 3.3,7.4 7.4,7.4"
   id="path4" />
	</g>
	<g
   id="g14">
		<path
   class="st1"
   d="m 257.4,431.4 c 0,-11.1 14.4,-12.9 14.4,-19 0,-2.7 -2.1,-4.3 -4.7,-4.3 -3.6,0 -5.5,3.6 -5.5,3.6 l -4.2,-2.8 c 0,0 2.8,-6.2 10.2,-6.2 5.4,0 10,3.3 10,9.1 0,9.9 -13.8,11.6 -13.9,17.4 h 14.4 v 4.8 h -20.4 c -0.2,-0.9 -0.3,-1.8 -0.3,-2.6 z"
   id="path8" />
		<path
   class="st1"
   d="m 282.9,418.7 c 0,-8.8 2.7,-15.9 11.1,-15.9 8.4,0 11.2,7 11.2,15.9 0,8.9 -2.8,16 -11.2,16 -8.4,-0.1 -11.1,-7.2 -11.1,-16 z m 16.5,0 c 0,-6 -1.2,-10.7 -5.4,-10.7 -4.2,0 -5.4,4.7 -5.4,10.7 0,6.1 1.2,10.8 5.4,10.8 4.2,0 5.4,-4.8 5.4,-10.8 z"
   id="path10" />
		<path
   class="st1"
   d="m 309.8,431.4 c 0,-11.1 14.4,-12.9 14.4,-19 0,-2.7 -2.1,-4.3 -4.7,-4.3 -3.6,0 -5.5,3.6 -5.5,3.6 l -4.2,-2.8 c 0,0 2.8,-6.2 10.2,-6.2 5.4,0 10,3.3 10,9.1 0,9.9 -13.8,11.6 -13.9,17.4 h 14.4 v 4.8 h -20.4 c -0.2,-0.9 -0.3,-1.8 -0.3,-2.6 z"
   id="path12" />
	</g>
	<g
   id="g18">
		<path
   class="st1"
   d="m 333.5,418.7 c 0,-8.8 2.7,-15.9 11.1,-15.9 8.4,0 11.2,7 11.2,15.9 0,8.9 -2.8,16 -11.2,16 -8.3,-0.1 -11.1,-7.2 -11.1,-16 z m 16.6,0 c 0,-6 -1.2,-10.7 -5.4,-10.7 -4.2,0 -5.4,4.7 -5.4,10.7 0,6.1 1.2,10.8 5.4,10.8 4.2,0 5.4,-4.8 5.4,-10.8 z"
   id="path16" />
	</g>
</g>
</svg>
