<?xml version="1.0" encoding="utf-8"?>
<!-- Generator: Adobe Illustrator 24.3.0, SVG Export Plug-In . SVG Version: 6.00 Build 0)  -->
<svg version="1.1" id="Layer_1" xmlns="http://www.w3.org/2000/svg" xmlns:xlink="http://www.w3.org/1999/xlink" x="0px" y="0px"
	 viewBox="0 0 150.1 119.9" style="enable-background:new 0 0 150.1 119.9;" xml:space="preserve">
<style type="text/css">
	.st0{fill-rule:evenodd;clip-rule:evenodd;fill:#004F6E;}
	.st1{fill:#004F6E;}
</style>
<g>
	<path class="st0" d="M142,99.9c0,6.6-5.3,11.9-11.9,11.9H20c-6.6,0-11.9-5.3-11.9-11.9V48.7H142V99.9z M138.2,13.5h-8.4v7.7
		c1.7,1.9,2.7,4.4,2.7,7.1c0,6-4.8,10.8-10.8,10.8c-6,0-10.8-4.8-10.8-10.8c0-2.7,1-5.2,2.7-7.1v-7.7H36.5v7.7
		c1.7,1.9,2.7,4.4,2.7,7.1c0,6-4.8,10.8-10.8,10.8c-6,0-10.8-4.8-10.8-10.8c0-2.7,1-5.2,2.7-7.1v-7.7h-8.4C5.3,13.5,0,18.8,0,25.4
		V108c0,6.6,5.3,11.9,11.9,11.9h126.3c6.6,0,11.9-5.3,11.9-11.9V25.4C150.1,18.8,144.8,13.5,138.2,13.5 M28.4,35.1
		c3.7,0,6.8-3,6.8-6.8V6.8c0-3.7-3-6.8-6.8-6.8c-3.7,0-6.8,3-6.8,6.8v21.6C21.6,32.1,24.6,35.1,28.4,35.1 M121.7,35.1
		c3.7,0,6.8-3,6.8-6.8V6.8c0-3.7-3-6.8-6.8-6.8C118,0,115,3,115,6.8v21.6C115,32.1,118,35.1,121.7,35.1"/>
	<g>
		<path class="st1" d="M31.2,91.9c0-10.2,13.2-11.8,13.2-17.4c0-2.5-1.9-3.9-4.3-3.9c-3.3,0-5.1,3.3-5.1,3.3l-3.8-2.5
			c0,0,2.6-5.6,9.3-5.6c5,0,9.2,3,9.2,8.3c0,9.1-12.6,10.6-12.7,15.9h13.2v4.4H31.4C31.3,93.5,31.2,92.7,31.2,91.9z"/>
		<path class="st1" d="M54.5,80.3c0-8.1,2.5-14.5,10.2-14.5c7.7,0,10.2,6.4,10.2,14.5s-2.5,14.6-10.2,14.6
			C57,94.9,54.5,88.4,54.5,80.3z M69.6,80.3c0-5.5-1.1-9.8-5-9.8s-5,4.3-5,9.8c0,5.6,1.1,9.9,5,9.9S69.6,85.9,69.6,80.3z"/>
		<path class="st1" d="M79.3,90h6.1V74.4c0-1,0-1.9,0-1.9h-0.1c0,0-0.3,0.7-1.2,1.6l-2.3,2.1l-3-3.2l7.1-6.8h4.5V90h6.1v4.4H79.3V90
			z"/>
		<path class="st1" d="M99.2,81.5c0-7.4,4.2-15.8,13-15.8c3.6,0,5.8,1.2,5.8,1.2l-1.5,4.4c0,0-1.8-0.9-4-0.9c-4.4,0-6.8,3.7-7.5,7.5
			h0.1c1-1.2,3.3-2,5.3-2c5.6,0,9.1,4.3,9.1,9.4c0,5.2-3.7,9.4-9.3,9.4C104.2,94.9,99.2,90,99.2,81.5z M114.3,85.5
			c0-2.9-1.8-5.2-5.2-5.2c-2.5,0-4.6,1.3-4.6,3.1c0,3.5,2.6,6.9,5.6,6.9C112.7,90.2,114.3,88.1,114.3,85.5z"/>
	</g>
</g>
</svg>
