<?xml version="1.0" encoding="utf-8"?>
<!-- Generator: Adobe Illustrator 24.2.3, SVG Export Plug-In . SVG Version: 6.00 Build 0)  -->
<svg version="1.1" id="Layer_1" xmlns="http://www.w3.org/2000/svg" xmlns:xlink="http://www.w3.org/1999/xlink" x="0px" y="0px"
	 viewBox="0 0 175 134" style="enable-background:new 0 0 175 134;" xml:space="preserve">
<style type="text/css">
	.st0{fill-rule:evenodd;clip-rule:evenodd;fill:#004F6E;}
	.st1{fill:#004F6E;}
</style>
<g>
	<g>
		<path class="st0" d="M160.5,111.1c0,7.2-5.8,13-13,13H27.3c-7.2,0-13-5.8-13-13v-56h146.2V111.1z M156.4,16.8h-9.1v8.4
			c1.8,2.1,3,4.8,3,7.8c0,6.5-5.3,11.8-11.8,11.8s-11.8-5.3-11.8-11.8c0-3,1.1-5.7,3-7.8v-8.4H45.5v8.4c1.8,2.1,3,4.8,3,7.8
			c0,6.5-5.3,11.8-11.8,11.8c-6.5,0-11.8-5.3-11.8-11.8c0-3,1.1-5.7,3-7.8v-8.4h-9.4c-7.2,0-13,5.8-13,13V120c0,7.2,5.8,13,13,13
			h137.9c7.2,0,13-5.8,13-13V29.8C169.4,22.6,163.5,16.8,156.4,16.8 M36.5,40.4c4.1,0,7.4-3.3,7.4-7.4V9.4c0-4.1-3.3-7.4-7.4-7.4
			s-7.4,3.3-7.4,7.4V33C29.1,37.1,32.4,40.4,36.5,40.4 M138.4,40.4c4.1,0,7.4-3.3,7.4-7.4V9.4c0-4.1-3.3-7.4-7.4-7.4
			S131,5.3,131,9.4V33C131,37.1,134.3,40.4,138.4,40.4"/>
	</g>
	<g>
		<path class="st1" d="M40.9,102.4c0-11.1,14.4-12.9,14.4-19c0-2.7-2.1-4.3-4.7-4.3c-3.6,0-5.5,3.6-5.5,3.6l-4.2-2.8
			c0,0,2.8-6.2,10.2-6.2c5.4,0,10,3.3,10,9.1c0,9.9-13.8,11.6-13.9,17.4h14.4v4.8H41.2C41,104.1,40.9,103.2,40.9,102.4z"/>
		<path class="st1" d="M66.4,89.7c0-8.8,2.7-15.9,11.1-15.9s11.2,7,11.2,15.9s-2.8,16-11.2,16C69.1,105.6,66.4,98.5,66.4,89.7z
			 M82.9,89.7c0-6-1.2-10.7-5.4-10.7c-4.2,0-5.4,4.7-5.4,10.7c0,6.1,1.2,10.8,5.4,10.8C81.7,100.5,82.9,95.7,82.9,89.7z"/>
		<path class="st1" d="M93.5,100.3h6.7V83.2c0-1,0-2.1,0-2.1h-0.1c0,0-0.3,0.7-1.3,1.7l-2.5,2.3L93,81.6l7.7-7.4h4.9v26h6.7v4.8
			H93.5V100.3z"/>
	</g>
	<g>
		<path class="st1" d="M129.1,81.9c1-1.9,1.9-2.8,1.9-2.8V79c0,0-0.6,0.1-2.1,0.1h-13.1v-4.8H137v3.9l-13.5,26.9h-5.8L129.1,81.9z"
			/>
	</g>
</g>
</svg>
