<?xml version="1.0" encoding="utf-8"?>
<!-- Generator: Adobe Illustrator 24.2.3, SVG Export Plug-In . SVG Version: 6.00 Build 0)  -->
<svg version="1.1" id="Layer_1" xmlns="http://www.w3.org/2000/svg" xmlns:xlink="http://www.w3.org/1999/xlink" x="0px" y="0px"
	 viewBox="0 0 6 53.2" style="enable-background:new 0 0 6 53.2;" xml:space="preserve">
<style type="text/css">
	.st0{fill:#737D85;}
</style>
<path class="st0" d="M0,34.5c0-1.7,1.3-3,3-3l0,0c1.7,0,3,1.3,3,3l0,0c0,1.6-1.3,3-3,3l0,0C1.3,37.5,0,36.1,0,34.5z M0,18.8
	c0-1.6,1.3-3,3-3l0,0c1.7,0,3,1.4,3,3l0,0c0,1.7-1.3,3-3,3l0,0C1.3,21.8,0,20.5,0,18.8z M0,3c0-1.6,1.3-3,3-3l0,0c1.7,0,3,1.4,3,3
	l0,0c0,1.7-1.3,3-3,3l0,0C1.3,6,0,4.7,0,3z M0,50.2c0-1.6,1.3-3,3-3l0,0c1.7,0,3,1.4,3,3l0,0c0,1.7-1.3,3-3,3l0,0
	C1.3,53.2,0,51.8,0,50.2z"/>
</svg>
