<?xml version="1.0" encoding="utf-8"?>
<!-- Generator: Adobe Illustrator 24.2.3, SVG Export Plug-In . SVG Version: 6.00 Build 0)  -->
<svg version="1.1" id="Layer_1" xmlns="http://www.w3.org/2000/svg" xmlns:xlink="http://www.w3.org/1999/xlink" x="0px" y="0px"
	 viewBox="0 0 562.7 200" style="enable-background:new 0 0 562.7 200;" xml:space="preserve">
<style type="text/css">
	.st0{fill:#F05325;}
	.st1{fill:#FFFFFF;}
</style>
<path class="st0" d="M402.4,97h1L426,51.4c0.8-1.6,2-2.6,4.2-2.6h7.8c3.4,0,4.2,3.4,3.2,5.8l-24.8,49.6l24.8,50
	c1,2.4,0.2,5.8-3.2,5.8h-7.8c-2.2,0-3.4-1-4.2-2.8l-22.6-45.6h-1v44c0,2.8-1.6,4.4-4.4,4.4h-6.6c-2.8,0-4.4-1.6-4.4-4.4V4.2
	c0-2.8,1.6-4.2,4.4-4.2h6.6c2.8,0,4.4,1.4,4.4,4.2V97z"/>
<path class="st0" d="M522.8,53.1l8,56.2l3.8,35h1l3.8-35l7.8-56.2c0.4-3,1.8-4.2,5-4.2h6.4c2.8,0,4.6,1.6,4,5.2L541,195.8
	c-0.4,2.8-1.6,4.2-4.8,4.2h-6.4c-2.8,0-4.6-1.6-4-5.2l5.8-34.8h-3.4c-3,0-4.4-1.4-5-4.2L507.6,54.1c-0.6-3.6,1.4-5.2,4-5.2h6.4
	C521.2,48.9,522.4,50.1,522.8,53.1z"/>
<path class="st0" d="M500.9,138.3"/>
<path class="st0" d="M441.1,92.4V69.8L424,104l17.1,34.4V116"/>
<path class="st0" d="M495.2,110.6c3,0,4.6-1.6,4.6-4.6V71.6c0-15.4-5.6-23.8-25-23.8s-25,8.4-25,23.8v26.7H433v12h16.8v26.9
	c0,15.4,5.6,23.8,25,23.8s25-8.4,25-23.8v-7.4c0-2.8-1.4-4.2-4.2-4.2h-6.8c-2.8,0-4.2,1.4-4.2,4.2v7.2c0,8.4-3,11.2-9.8,11.2
	c-6.6,0-9.6-2.8-9.6-11.2v-26.4L495.2,110.6L495.2,110.6z M465.2,71.9c0-8.6,3-11.2,9.6-11.2c6.8,0,9.8,2.6,9.8,11.2v26.2h-19.4
	L465.2,71.9L465.2,71.9z"/>
<g>
	<path class="st1" d="M34.5,97.7V71.9c0-8.6-3-11.2-9.7-11.2c-6.5,0-9.5,2.6-9.5,11.2v8.6c0,2.8-1.6,4.2-4.4,4.2H4.4
		c-2.8,0-4.4-1.4-4.4-4.2v-8.8c0-15.4,5.6-23.8,24.8-23.8s24.6,8.4,24.8,23.8v84.1c0,2.6-1.4,4.2-4.2,4.2h-6.7
		c-2.8,0-4.2-1.6-4.2-4.2v-2.6c-5.2,5-12.1,7.8-18.2,7.8C7.6,161,0,155.4,0,142.6v-21.2C0,106,5.6,97.6,24.8,97.6L34.5,97.7
		L34.5,97.7z M24.8,110.3c-6.5,0-9.5,2.8-9.5,11.2v15c0,8.6,2.2,11.2,8.7,11.2c6.7,0,10.5-3.4,10.5-11.8v-25.6L24.8,110.3
		L24.8,110.3z"/>
	<path class="st1" d="M113,174.2c0,16.6-5.9,25.8-26.8,25.8h-9.7c-2.8,0-4.4-1.4-4.4-4.2v-4.2c0-2.8,1.6-4.4,4.4-4.4h9.7
		c9.3,0,11.7-4.8,11.7-13.2v-20.8c-5.2,5-12.1,7.8-18.2,7.8c-8.7,0-16.3-5.6-16.3-18.4V66.3c0-12.8,7.5-18.4,16.3-18.4
		c6.1,0,13.1,2.8,18.2,7.8v-2.5c0-2.8,1.4-4.2,4.2-4.2h6.7c2.8,0,4.2,1.4,4.2,4.2V174.2z M78.7,136.5c0,8.6,2.2,11.2,8.7,11.2
		c6.7,0,10.5-3.4,10.5-11.8V73.2c0-8.4-3.8-12-10.5-12c-6.5,0-8.7,2.8-8.7,11.2V136.5z"/>
	<path class="st1" d="M176.5,106.1c0,3-1.6,4.6-4.6,4.6h-29.7v26.4c0,8.4,3,11.2,9.5,11.2c6.7,0,9.7-2.8,9.7-11.2v-7.2
		c0-2.8,1.4-4.2,4.2-4.2h6.7c2.8,0,4.2,1.4,4.2,4.2v7.4c0,15.4-5.6,23.8-24.8,23.8c-19.2,0-24.8-8.4-24.8-23.8V71.8
		c0-15.4,5.6-23.8,24.8-23.8c19.2,0,24.8,8.4,24.8,23.8L176.5,106.1L176.5,106.1z M142.2,98.1h19.2V71.9c0-8.6-3-11.2-9.7-11.2
		c-6.5,0-9.5,2.6-9.5,11.2V98.1z"/>
	<path class="st1" d="M239.9,155.9c0,2.6-1.4,4.2-4.2,4.2H229c-2.8,0-4.2-1.6-4.2-4.2V72.4c0-8.4-2.4-11.2-8.9-11.2
		c-6.7,0-10.3,3.6-10.3,12v82.7c0,2.6-1.6,4.2-4.4,4.2h-6.5c-2.8,0-4.4-1.6-4.4-4.2V53.2c0-2.8,1.6-4.2,4.4-4.2h6.5
		c2.8,0,4.4,1.4,4.4,4.2v2.6c5-5,11.9-7.8,18-7.8c8.7,0,16.3,5.6,16.3,18.4L239.9,155.9L239.9,155.9z"/>
	<path class="st1" d="M301.4,87.5c0,2.8-1.4,4.2-4.2,4.2h-6.7c-2.8,0-4.2-1.4-4.2-4.2V71.9c0-8.6-3-11.2-9.7-11.2
		c-6.5,0-9.5,2.6-9.5,11.2V137c0,8.4,3,11.2,9.5,11.2c6.7,0,9.7-2.8,9.7-11.2v-15.6c0-2.8,1.4-4.4,4.2-4.4h6.7
		c2.8,0,4.2,1.6,4.2,4.4v15.8c0,15.4-5.6,23.8-24.8,23.8s-24.8-8.4-24.8-23.8V71.7c0-15.4,5.6-23.8,24.8-23.8
		c19.2,0,24.8,8.4,24.8,23.8V87.5z"/>
	<path class="st1" d="M323.6,53.2l7.9,56.1l3.8,35h1l3.8-35l7.7-56.1c0.4-3,1.8-4.2,5-4.2h6.3c2.8,0,4.6,1.6,4,5.2l-21.4,141.6
		c-0.4,2.8-1.6,4.2-4.8,4.2h-6.3c-2.8,0-4.6-1.6-4-5.2l5.8-34.8H329c-3,0-4.4-1.4-5-4.2L308.5,54.2c-0.6-3.6,1.4-5.2,4-5.2h6.3
		C322,49,323.2,50.2,323.6,53.2z"/>
</g>
</svg>
