<?xml version="1.0" encoding="utf-8"?>
<!-- Generator: Adobe Illustrator 24.2.3, SVG Export Plug-In . SVG Version: 6.00 Build 0)  -->
<svg version="1.1" id="Layer_1" xmlns="http://www.w3.org/2000/svg" xmlns:xlink="http://www.w3.org/1999/xlink" x="0px" y="0px"
	 viewBox="0 0 650.5 200" style="enable-background:new 0 0 650.5 200;" xml:space="preserve">
<style type="text/css">
	.st0{fill:#F05325;}
	.st1{fill:#FFFFFF;}
</style>
<path class="st0" d="M490.2,97h1l22.6-45.6c0.8-1.6,2-2.6,4.2-2.6h7.8c3.4,0,4.2,3.4,3.2,5.8l-24.8,49.6l24.8,50
	c1,2.4,0.2,5.8-3.2,5.8H518c-2.2,0-3.4-1-4.2-2.8l-22.6-45.6h-1v44c0,2.8-1.6,4.4-4.4,4.4h-6.6c-2.8,0-4.4-1.6-4.4-4.4V4.2
	c0-2.8,1.6-4.2,4.4-4.2h6.6c2.8,0,4.4,1.4,4.4,4.2V97z"/>
<path class="st0" d="M610.6,53.1l8,56.2l3.8,35h1l3.8-35l7.8-56.2c0.4-3,1.8-4.2,5-4.2h6.4c2.8,0,4.6,1.6,4,5.2l-21.6,141.7
	c-0.4,2.8-1.6,4.2-4.8,4.2h-6.4c-2.8,0-4.6-1.6-4-5.2l5.8-34.8H616c-3,0-4.4-1.4-5-4.2L595.4,54c-0.6-3.6,1.4-5.2,4-5.2h6.4
	C609,48.9,610.2,50.1,610.6,53.1z"/>
<path class="st0" d="M585.7,138.3"/>
<path class="st0" d="M528.9,92.5V69.9l-17.1,34.2l17.1,34.4v-22.4"/>
<path class="st0" d="M582.9,110.7c3,0,4.6-1.6,4.6-4.6V71.7c0-15.4-5.6-23.8-25-23.8s-25,8.4-25,23.8v26.7h-16.8v12h16.8v26.8
	c0,15.4,5.6,23.8,25,23.8s25-8.4,25-23.8v-7.4c0-2.8-1.4-4.2-4.2-4.2h-6.8c-2.8,0-4.2,1.4-4.2,4.2v7.2c0,8.4-3,11.2-9.8,11.2
	c-6.6,0-9.6-2.8-9.6-11.2v-26.4L582.9,110.7L582.9,110.7z M553,71.9c0-8.6,3-11.2,9.6-11.2c6.8,0,9.8,2.6,9.8,11.2v26.2H553
	L553,71.9L553,71.9z"/>
<g>
	<path class="st1" d="M0,4.4c0-2.8,1.6-4.2,4.4-4.2h6.5c2.8,0,4.4,1.4,4.4,4.2v51.3c5-5,11.9-7.8,18-7.8c8.7,0,16.3,5.6,16.3,18.4
		v76.3c0,12.8-7.5,18.4-16.3,18.4c-6.1,0-13.1-2.8-18-7.8v2.6c0,2.6-1.6,4.2-4.4,4.2H4.4c-2.8,0-4.4-1.6-4.4-4.2V4.4z M34.5,72.4
		c0-8.4-2.4-11.2-8.9-11.2c-6.7,0-10.3,3.6-10.3,12v62.7c0,8.4,3.6,11.8,10.3,11.8c6.5,0,8.9-2.6,8.9-11.2V72.4z"/>
	<path class="st1" d="M63.5,53.2c0-2.8,1.6-4.2,4.4-4.2h6.5c2.8,0,4.4,1.4,4.4,4.2v83.3c0,8.6,2.2,11.2,8.7,11.2
		c6.7,0,10.5-3.4,10.5-11.8V53.2c0-2.8,1.4-4.2,4.2-4.2h6.7c2.8,0,4.2,1.4,4.2,4.2v102.7c0,2.6-1.4,4.2-4.2,4.2h-6.7
		c-2.8,0-4.2-1.6-4.2-4.2v-2.6c-5.2,5-12.1,7.8-18.2,7.8c-8.7,0-16.3-5.6-16.3-18.4V53.2z"/>
	<path class="st1" d="M149.4,161.1c-19.2,0-24.8-8.4-24.8-23.8v-12.8c0-2.8,1.4-4.4,4.2-4.4h6.7c2.8,0,4.2,1.6,4.2,4.4v12.6
		c0,8.4,3,11.2,9.7,11.2c6.5,0,9.5-2.8,9.5-11.2c0-12.4-1.6-13.4-8.7-20.6l-15.1-14.8c-7.1-7-10.5-13-10.5-30
		c0-15.4,5.6-23.8,24.8-23.8c19,0,24.8,8.4,24.8,23.8v12.8c0,2.8-1.6,4.2-4.4,4.2h-6.6c-2.8,0-4.4-1.4-4.4-4.2V71.9
		c0-8.6-3-11.2-9.5-11.2c-6.7,0-9.7,2.6-9.7,11.2c0,12.4,1.6,13.2,8.7,20.6l15.1,14.8c7.1,7,10.7,13,10.7,30
		C174.1,152.7,168.4,161.1,149.4,161.1z"/>
	<path class="st1" d="M264.2,155.9c0,2.6-1.4,4.2-4.2,4.2h-6.7c-2.8,0-4.2-1.6-4.2-4.2V72.4c0-8.4-2.4-11.2-8.9-11.2
		c-6.7,0-10.3,3.6-10.3,12v82.7c0,2.6-1.6,4.2-4.4,4.2H219c-2.8,0-4.4-1.6-4.4-4.2V53.2c0-2.8,1.6-4.2,4.4-4.2h6.5
		c2.8,0,4.4,1.4,4.4,4.2v2.6c5-5,11.9-7.8,18-7.8c8.7,0,16.3,5.6,16.3,18.4L264.2,155.9L264.2,155.9z"/>
	<path class="st1" d="M327.6,106.1c0,3-1.6,4.6-4.6,4.6h-29.7v26.4c0,8.4,3,11.2,9.5,11.2c6.7,0,9.7-2.8,9.7-11.2v-7.2
		c0-2.8,1.4-4.2,4.2-4.2h6.7c2.8,0,4.2,1.4,4.2,4.2v7.4c0,15.4-5.6,23.8-24.8,23.8c-19.2,0-24.8-8.4-24.8-23.8V71.8
		c0-15.4,5.6-23.8,24.8-23.8s24.8,8.4,24.8,23.8L327.6,106.1L327.6,106.1z M293.3,98.1h19.2V71.9c0-8.6-3-11.2-9.7-11.2
		c-6.5,0-9.5,2.6-9.5,11.2V98.1z"/>
	<path class="st1" d="M363.9,161.1c-19.2,0-24.8-8.4-24.8-23.8v-12.8c0-2.8,1.4-4.4,4.2-4.4h6.7c2.8,0,4.2,1.6,4.2,4.4v12.6
		c0,8.4,3,11.2,9.7,11.2c6.5,0,9.5-2.8,9.5-11.2c0-12.4-1.6-13.4-8.7-20.6l-15.1-14.8c-7.1-7-10.5-13-10.5-30
		c0-15.4,5.6-23.8,24.8-23.8c19,0,24.8,8.4,24.8,23.8v12.8c0,2.8-1.6,4.2-4.4,4.2h-6.5c-2.8,0-4.4-1.4-4.4-4.2V71.9
		c0-8.6-3-11.2-9.5-11.2c-6.7,0-9.7,2.6-9.7,11.2c0,12.4,1.6,13.2,8.7,20.6l15.1,14.8c7.1,7,10.7,13,10.7,30
		C388.7,152.7,382.9,161.1,363.9,161.1z"/>
	<path class="st1" d="M424.4,161.1c-19.2,0-24.8-8.4-24.8-23.8v-12.8c0-2.8,1.4-4.4,4.2-4.4h6.7c2.8,0,4.2,1.6,4.2,4.4v12.6
		c0,8.4,3,11.2,9.7,11.2c6.5,0,9.5-2.8,9.5-11.2c0-12.4-1.6-13.4-8.7-20.6l-15.1-14.8c-7.1-7-10.5-13-10.5-30
		c0-15.4,5.6-23.8,24.8-23.8c19,0,24.8,8.4,24.8,23.8v12.8c0,2.8-1.6,4.2-4.4,4.2h-6.5c-2.8,0-4.4-1.4-4.4-4.2V71.9
		c0-8.6-3-11.2-9.5-11.2c-6.7,0-9.7,2.6-9.7,11.2c0,12.4,1.6,13.2,8.7,20.6l15.1,14.8c7.1,7,10.7,13,10.7,30
		C449.2,152.7,443.4,161.1,424.4,161.1z"/>
</g>
<g>
	<circle class="st1" cx="194.2" cy="59.6" r="10.8"/>
	<path class="st1" d="M201.9,155.7c0,2.8-1.6,4.4-4.4,4.4H191c-2.8,0-4.4-1.6-4.4-4.4V83.8c0-2.8,1.6-4.2,4.4-4.2h6.5
		c2.8,0,4.4,1.4,4.4,4.2V155.7z"/>
</g>
</svg>
