<?xml version="1.0" encoding="utf-8"?>
<!-- Generator: Adobe Illustrator 24.2.3, SVG Export Plug-In . SVG Version: 6.00 Build 0)  -->
<svg version="1.1" id="Layer_1" xmlns="http://www.w3.org/2000/svg" xmlns:xlink="http://www.w3.org/1999/xlink" x="0px" y="0px"
	 viewBox="0 0 763.3 200.1" style="enable-background:new 0 0 763.3 200.1;" xml:space="preserve">
<style type="text/css">
	.st0{fill:#F05325;}
	.st1{fill:#FFFFFF;}
</style>
<path class="st0" d="M603.1,96.9h1l22.6-45.6c0.8-1.6,2-2.6,4.2-2.6h7.8c3.4,0,4.2,3.4,3.2,5.8l-24.8,49.6l24.8,50
	c1,2.4,0.2,5.8-3.2,5.8h-7.8c-2.2,0-3.4-1-4.2-2.8l-22.6-45.6h-1v44c0,2.8-1.6,4.4-4.4,4.4h-6.6c-2.8,0-4.4-1.6-4.4-4.4V4.2
	c0-2.8,1.6-4.2,4.4-4.2h6.6c2.8,0,4.4,1.4,4.4,4.2V96.9z"/>
<path class="st0" d="M723.4,53.1l8,56.2l3.8,35h1l3.8-35l7.8-56.2c0.4-3,1.8-4.2,5-4.2h6.4c2.8,0,4.6,1.6,4,5.2l-21.6,141.7
	c-0.4,2.8-1.6,4.2-4.8,4.2h-6.4c-2.8,0-4.6-1.6-4-5.2l5.8-34.8h-3.4c-3,0-4.4-1.4-5-4.2L708.2,54.1c-0.6-3.6,1.4-5.2,4-5.2h6.4
	C721.8,48.9,723,50.1,723.4,53.1z"/>
<path class="st0" d="M698.5,138.3"/>
<path class="st0" d="M641.8,92.4V69.8L624.7,104l17.1,34.4V116"/>
<path class="st0" d="M695.8,110.6c3,0,4.6-1.6,4.6-4.6V71.6c0-15.4-5.6-23.8-25-23.8s-25,8.4-25,23.8v26.7h-16.8v12h16.8v26.9
	c0,15.4,5.6,23.8,25,23.8s25-8.4,25-23.8v-7.4c0-2.8-1.4-4.2-4.2-4.2h-6.8c-2.8,0-4.2,1.4-4.2,4.2v7.2c0,8.4-3,11.2-9.8,11.2
	c-6.6,0-9.6-2.8-9.6-11.2v-26.4L695.8,110.6L695.8,110.6z M665.8,71.9c0-8.6,3-11.2,9.6-11.2c6.8,0,9.8,2.6,9.8,11.2v26.2h-19.4
	L665.8,71.9L665.8,71.9z"/>
<path class="st1" d="M49.6,106.1c0,3-1.6,4.6-4.6,4.6H15.3v26.4c0,8.4,3,11.2,9.5,11.2c6.7,0,9.7-2.8,9.7-11.2v-7.2
	c0-2.8,1.4-4.2,4.2-4.2h6.7c2.8,0,4.2,1.4,4.2,4.2v7.4c0,15.4-5.6,23.8-24.8,23.8S0,152.7,0,137.3V71.8C0,56.4,5.6,48,24.8,48
	s24.8,8.4,24.8,23.8C49.6,71.8,49.6,106.1,49.6,106.1z M15.3,98.1h19.2V71.9c0-8.6-3-11.2-9.7-11.2c-6.5,0-9.5,2.6-9.5,11.2
	C15.3,71.9,15.3,98.1,15.3,98.1z"/>
<path class="st1" d="M113,155.9c0,2.6-1.4,4.2-4.2,4.2h-6.7c-2.8,0-4.2-1.6-4.2-4.2V72.3c0-8.4-2.4-11.2-8.9-11.2
	c-6.7,0-10.3,3.6-10.3,12v82.7c0,2.6-1.6,4.2-4.4,4.2h-6.5c-2.8,0-4.4-1.6-4.4-4.2V53.2c0-2.8,1.6-4.2,4.4-4.2h6.5
	c2.8,0,4.4,1.4,4.4,4.2v2.6c5-5,11.9-7.8,18-7.8c8.7,0,16.3,5.6,16.3,18.4L113,155.9L113,155.9z"/>
<path class="st1" d="M132.8,49V19.6c0-2.8,1.6-4.2,4.4-4.2h6.5c2.8,0,4.4,1.4,4.4,4.2V49h12.5c2.8,0,4.4,1.4,4.4,4.2v4.2
	c0,2.8-1.6,4.4-4.4,4.4h-12.5v72.1c0,8.6,2.2,13.4,11.7,13.4h4.8c2.8,0,4.4,1.4,4.4,4.2v4.2c0,2.8-1.6,4.4-4.4,4.4h-4.8
	c-21,0-27-9.2-27-26V61.8h-8.5c-2.8,0-4.4-1.6-4.4-4.4v-4.2c0-2.8,1.6-4.2,4.4-4.2L132.8,49L132.8,49z"/>
<path class="st1" d="M225.4,106.1c0,3-1.6,4.6-4.6,4.6h-29.7v26.4c0,8.4,3,11.2,9.5,11.2c6.7,0,9.7-2.8,9.7-11.2v-7.2
	c0-2.8,1.4-4.2,4.2-4.2h6.7c2.8,0,4.2,1.4,4.2,4.2v7.4c0,15.4-5.6,23.8-24.8,23.8s-24.8-8.4-24.8-23.8V71.8
	c0-15.4,5.6-23.8,24.8-23.8s24.8,8.4,24.8,23.8L225.4,106.1L225.4,106.1z M191.1,98.1h19.2V71.9c0-8.6-3-11.2-9.7-11.2
	c-6.5,0-9.5,2.6-9.5,11.2V98.1z"/>
<path class="st1" d="M286.9,94.9c0,2.6-1.4,4.2-4.2,4.2H276c-2.8,0-4.2-1.6-4.2-4.2V72.3c0-8.4-2.4-11.2-8.9-11.2
	c-6.7,0-10.3,3.6-10.3,12v82.7c0,2.6-1.6,4.2-4.4,4.2h-6.5c-2.8,0-4.4-1.6-4.4-4.2V53.2c0-2.8,1.6-4.2,4.4-4.2h6.5
	c2.8,0,4.4,1.4,4.4,4.2v2.6c5-5,11.9-7.8,18-7.8c8.7,0,16.3,5.6,16.3,18.4L286.9,94.9L286.9,94.9z"/>
<path class="st1" d="M296.8,53.2c0-2.8,1.6-4.2,4.4-4.2h6.5c2.8,0,4.4,1.4,4.4,4.2v2.6c5-5,11.9-7.8,18-7.8
	c8.7,0,16.3,5.6,16.3,18.4v76.3c0,12.8-7.5,18.4-16.3,18.4c-6.1,0-13.1-2.8-18-7.8v42.6c0,2.8-1.6,4.2-4.4,4.2h-6.5
	c-2.8,0-4.4-1.4-4.4-4.2V53.2z M331.3,72.3c0-8.4-2.4-11.2-8.9-11.2c-6.7,0-10.3,3.6-10.3,12v62.7c0,8.4,3.6,11.8,10.3,11.8
	c6.5,0,8.9-2.6,8.9-11.2V72.3z"/>
<path class="st1" d="M407.8,94.9c0,2.6-1.4,4.2-4.2,4.2h-6.7c-2.8,0-4.2-1.6-4.2-4.2V72.3c0-8.4-2.4-11.2-8.9-11.2
	c-6.7,0-10.3,3.6-10.3,12v82.7c0,2.6-1.6,4.2-4.4,4.2h-6.5c-2.8,0-4.4-1.6-4.4-4.2V53.2c0-2.8,1.6-4.2,4.4-4.2h6.5
	c2.8,0,4.4,1.4,4.4,4.2v2.6c5-5,11.9-7.8,18-7.8c8.7,0,16.3,5.6,16.3,18.4V94.9L407.8,94.9z"/>
<path class="st1" d="M471.3,161c-19.2,0-24.8-8.4-24.8-23.8v-12.8c0-2.8,1.4-4.4,4.2-4.4h6.7c2.8,0,4.2,1.6,4.2,4.4V137
	c0,8.4,3,11.2,9.7,11.2c6.5,0,9.5-2.8,9.5-11.2c0-12.4-1.6-13.4-8.7-20.6L457,101.6c-7.1-7-10.5-13-10.5-30
	c0-15.4,5.6-23.8,24.8-23.8c19,0,24.8,8.4,24.8,23.8v12.8c0,2.8-1.6,4.2-4.4,4.2h-6.5c-2.8,0-4.4-1.4-4.4-4.2V71.8
	c0-8.6-3-11.2-9.5-11.2c-6.7,0-9.7,2.6-9.7,11.2c0,12.4,1.6,13.2,8.7,20.6l15.1,14.8c7.1,7,10.7,13,10.7,30
	C496.1,152.7,490.3,161,471.3,161z"/>
<path class="st1" d="M556.9,106.1c0,3-1.6,4.6-4.6,4.6h-29.7v26.4c0,8.4,3,11.2,9.5,11.2c6.7,0,9.7-2.8,9.7-11.2v-7.2
	c0-2.8,1.4-4.2,4.2-4.2h6.7c2.8,0,4.2,1.4,4.2,4.2v7.4c0,15.4-5.6,23.8-24.8,23.8s-24.8-8.4-24.8-23.8V71.8
	c0-15.4,5.6-23.8,24.8-23.8s24.8,8.4,24.8,23.8L556.9,106.1L556.9,106.1z M522.6,98.1h19.2V71.9c0-8.6-3-11.2-9.7-11.2
	c-6.5,0-9.5,2.6-9.5,11.2V98.1L522.6,98.1z"/>
<circle class="st1" cx="427.3" cy="59.6" r="10.8"/>
<path class="st1" d="M435,155.7c0,2.8-1.6,4.4-4.4,4.4h-6.5c-2.8,0-4.4-1.6-4.4-4.4V83.8c0-2.8,1.6-4.2,4.4-4.2h6.5
	c2.8,0,4.4,1.4,4.4,4.2V155.7z"/>
</svg>
