<?xml version="1.0" encoding="utf-8"?>
<!-- Generator: Adobe Illustrator 24.2.3, SVG Export Plug-In . SVG Version: 6.00 Build 0)  -->
<svg version="1.1" id="Layer_1" xmlns="http://www.w3.org/2000/svg" xmlns:xlink="http://www.w3.org/1999/xlink" x="0px" y="0px"
	 viewBox="0 0 137 137" style="enable-background:new 0 0 137 137;" xml:space="preserve">
<style type="text/css">
	.st0{fill:#FFFFFF;}
</style>
<path class="st0" d="M70.2,96.1c-3.3,0.4-7.5,0.3-12.6-0.7c-0.6-0.1-0.9-0.6-0.8-1.2c0.1-0.6,0.6-0.9,1.2-0.8
	c9.3,1.8,15.3-0.3,17.9-2.1c0.5-0.4,1.8-0.3,2.3,0.4c0.5,0.8,0.3,1.6-0.1,2C76.7,94.9,73.8,95.6,70.2,96.1z"/>
<path class="st0" d="M22.3,53.7c-4.9-14.2,1.6-18.6,1.6-18.6l3.9,7.7c0,0,9.6-18.1,13.3-20.8c0,0,6.9,4.7,9.5,4.8
	c0,0,6.5,1.8,12.6-15.3c0,0,2.2,5.6,6.2,6.3c4,0.7,5.9-1.6,5.9-1.6s2.8,5.5,2.6,8.2c0,0,6.1-3.1,12.5-1.9c0,0-0.8,6.2,4.5,7.7
	s6.7-0.3,6.7-0.3s-3.6,4.6-1.3,7.8c2.3,3.2,7.1,2.3,7.1,2.3s3.9-0.8,7.4-0.3c0,0-5.5,8.6-0.4,16.1c0,0-1.3,5.3,2.3,6.1
	c3.4,0.8,4.5-2.3,4.5-2.3s6.1,2.5,5.5,8.8c-0.6,6.3-5.2,8-5.2,8s-2.8,0.9-3.2-1.3c-0.3-1.8-1.5-3.2-4.2-2.1
	c-2.1,0.9-0.8,5.1-0.8,5.1c1,3.4,5.8,3.1,5.8,3.1c14.6-1.6,11.5-17.4,11.5-17.4c-1.4-7-6.9-9.3-9.8-10.1c-4.9-8.4,2.5-17.6,2.5-17.6
	c-2.8-2.8-7.5-3.2-10-3.1c-2,0.1-3.9,0.7-6,0.6c-0.4,0-0.7-0.1-1.1-0.3c-1.8-1.1,0.3-3.7,0.8-4.8c1.1-2.3,1.7-4.9,1.5-7.4
	c-0.3-3.5-1.9-6.8-4.4-9.1c0.1,1.9,0.2,3.8-0.2,5.6c-0.4,1.8-1.4,3.6-3,4.5c-5.1,2.9-5.6-4.7-3.1-7.5c-5.1-1.6-11.6-1.6-16.4,1.7
	c-0.5-4,0.2-8.8-6.8-11.5c1.1,3.3-2.7,7.4-6.1,4.5c-1.8-1.6-1.6-7.1-1.1-9.4c-3.6-0.7-8.2,3-9.2,6.3c-0.4,1.3-0.6,2.8-1.2,4
	c-0.6,1.3-3.8,8-6.2,7.9c-4.1-0.2-7.9-4.4-7.8-8.1c0,0-3.8-0.6-8.4,7.5c-6.5,11.5-6.8,12.6-6.8,12.6c-0.7-2.8-1.3-5.6-2-8.5
	c0,0-18.2,11.2-9,31.9c-3.1,0.6-10.3,3-10.7,12.2c0,0-1.9,12.7,11,14.7c0,0,4.1,0.3,4.7-1.8s0.5-3.4,0.5-3.4s-0.4-2.7-3.3-2.1
	c-2.9,0.6-2.7,3.9-2.7,3.9c-5.4-1.9-6.2-6.8-6.2-6.8S10,68.3,11,63.2s6.7-4.1,6.7-4.1s3.6,4.2,6.2,0.9S22.3,53.7,22.3,53.7z"/>
<path class="st0" d="M77.9,80c-0.2,0-0.5-0.1-0.7-0.3c-0.8-0.8-3-2.4-3.9-2.9c-0.9-0.4-2.4-0.5-3.1-0.2c-0.2,0.1-0.4,0.2-0.5,0.3
	c-0.4,0.2-0.8,0.5-1.3,0.6c-0.7,0.1-1.8,0-2,0l-0.2,0c-0.4-0.1-0.8-0.4-1.1-0.5c-0.2-0.1-0.4-0.2-0.6-0.3c-0.7-0.3-2.2-0.2-3.1,0.2
	c-0.9,0.4-3,2.1-3.9,2.9c-0.4,0.4-1.1,0.4-1.5-0.1c-0.4-0.4-0.4-1.1,0.1-1.5c0.8-0.7,3.1-2.6,4.3-3.2c1.2-0.6,3.4-0.9,4.8-0.3
	c0.3,0.1,0.6,0.3,0.9,0.5c0.2,0.1,0.4,0.3,0.6,0.3c0.4,0,1,0.1,1.2,0c0.2,0,0.4-0.2,0.7-0.3c0.2-0.2,0.5-0.3,0.9-0.5
	c1.4-0.6,3.6-0.3,4.8,0.3c1.2,0.6,3.6,2.5,4.3,3.2c0.4,0.4,0.5,1,0.1,1.5C78.4,79.9,78.2,80,77.9,80z"/>
<path class="st0" d="M118.3,65.9c0,0,3.5-2.2,3.9,1.7c0.4,4-4.3,4.3-4.2,2.8C118.3,68.9,118.3,65.9,118.3,65.9z"/>
<path class="st0" d="M99.9,45.8c0,0-0.1,0-0.1-0.1c-8.9-5.2-20.5-8.2-31.9-8.2c-11.7,0-22.9,2.8-31.6,8c0,0,0,0-0.1,0.1
	c0,0-0.1,0-0.1,0.1c0,0,0,0,0,0.1c0,0,0,0.1-0.1,0.1c0,0,0,0,0,0.1c0,0,0,0.1,0,0.1c0,0,0,0,0,0c0,0,0,0.1,0.1,0.1c0,0,0,0,0,0
	c0,0,0,0,0,0c0,0,0,0,0,0c0,0,0.1,0.1,0.1,0.1c0,0,0,0,0,0c0,0,0.1,0.1,0.1,0.1c0,0,0,0,0.1,0c0,0,0.1,0,0.1,0c0,0,0.1,0,0.1,0
	c0,0,0.1,0,0.1,0c8.7-4.8,19.8-7.2,31.3-6.9c11.4,0.3,22.2,3.4,30.5,8.6c0.1,0.1,0.2,0.1,0.3,0.1c0,0,0,0,0,0
	c0.5,0.1,1.1-0.2,1.4-0.7C100.6,46.9,100.4,46.1,99.9,45.8z M76.4,39.3c-0.1,0-0.3,0-0.4-0.1C76.2,39.2,76.3,39.3,76.4,39.3
	L76.4,39.3z"/>
<path class="st0" d="M67.3,54.8c0.9,0,4.1-1.1,4.7-1.3c0.1,0,10.4-3.4,17.9-0.6c0.3,0.1,0.7,0,0.9-0.4c0.1-0.3,0-0.7-0.4-0.9
	c-8-3-18.4,0.4-18.8,0.6c-1.8,0.6-3.9,1.2-4.3,1.2c-0.4,0-2.5-0.6-4.3-1.2c-0.4-0.1-10.8-3.6-18.8-0.6c-0.3,0.1-0.5,0.5-0.4,0.9
	c0.1,0.3,0.5,0.5,0.9,0.4c7.5-2.8,17.8,0.6,17.9,0.6C63.2,53.7,66.4,54.8,67.3,54.8z"/>
<g>
	<path class="st0" d="M57.9,66c0-0.3,0-0.6,0-0.9c-0.4-3.5-3.2-6.1-6.2-5.7c-3.1,0.3-5.2,3.5-4.8,7c0.1,0.7,0.3,1.4,0.6,2.1
		C49.6,67.2,54.2,65.2,57.9,66z"/>
	<path class="st0" d="M45.1,71.4c0.1,0,0.3-0.1,0.4-0.2c6.2-7.3,16.3-3.7,16.4-3.7c0.3,0.1,0.6,0,0.7-0.3c0.1-0.3,0-0.6-0.3-0.7
		c-0.1,0-10.9-3.8-17.7,4c-0.2,0.2-0.2,0.6,0.1,0.8C44.7,71.4,44.9,71.4,45.1,71.4z"/>
</g>
<g>
	<path class="st0" d="M76.8,66c0-0.3,0-0.6,0-0.9c0.4-3.5,3.2-6.1,6.2-5.7c3.1,0.3,5.2,3.5,4.8,7c-0.1,0.7-0.3,1.4-0.6,2.1
		C85,67.2,80.4,65.2,76.8,66z"/>
	<path class="st0" d="M89.6,71.4c-0.1,0-0.3-0.1-0.4-0.2c-6.2-7.3-16.3-3.7-16.4-3.7c-0.3,0.1-0.6,0-0.7-0.3c-0.1-0.3,0-0.6,0.3-0.7
		c0.1,0,10.9-3.8,17.7,4c0.2,0.2,0.2,0.6-0.1,0.8C89.9,71.4,89.7,71.4,89.6,71.4z"/>
</g>
<path class="st0" d="M19.5,65c0,0-3.5-2.2-3.9,1.7c-0.4,4,4.3,4.3,4.2,2.8S19.5,65,19.5,65z"/>
<path class="st0" d="M45,107.4C30.3,99,28.4,82.7,28.3,81.9c-0.1-1.1-1.2-1.9-2.3-1.8c-1.1,0.1-1.9,1.2-1.8,2.3
	c0,0.2,2.6,17.6,20.1,26.5c0,0,0.8,0.2,1-0.5C45.6,107.7,45,107.4,45,107.4z"/>
<path class="st0" d="M89.6,107.4c14.7-8.5,16.6-24.7,16.7-25.5c0.1-1.1,1.2-1.9,2.3-1.8c1.1,0.1,1.9,1.2,1.8,2.3
	c0,0.2-2.6,17.6-20.1,26.5c0,0-0.8,0.2-1-0.5C89.1,107.7,89.6,107.4,89.6,107.4z"/>
<g>
	<g>
		<g>
			<path class="st0" d="M46.9,113.7l16.1,4l-0.3,5l-10.9,5.5l-7.6-11.1L46.9,113.7 M46.2,111.8l-0.7,0.9l-2.7,3.4l-0.7,1l0.7,1
				l7.6,11.1l0.8,1.2l1.3-0.7l10.9-5.5l0.9-0.4l0.1-1l0.3-5l0.1-1.4l-1.3-0.3l-16.1-4L46.2,111.8L46.2,111.8z"/>
		</g>
	</g>
</g>
<g>
	<g>
		<g>
			<path class="st0" d="M86.8,113.7l2.7,3.4l-7.6,11.1l-10.9-5.5l-0.3-5L86.8,113.7 M87.4,111.8l-1.1,0.3l-16.1,4l-1.3,0.3l0.1,1.4
				l0.3,5l0.1,1l0.9,0.4l10.9,5.5l1.3,0.7l0.8-1.2l7.6-11.1l0.7-1l-0.7-1l-2.7-3.4L87.4,111.8L87.4,111.8z"/>
		</g>
	</g>
</g>
<polygon class="st0" points="68.3,136.9 80,114.1 68.9,116.6 65.8,136.9 "/>
</svg>
