<?xml version="1.0" encoding="utf-8"?>
<!-- Generator: Adobe Illustrator 24.2.3, SVG Export Plug-In . SVG Version: 6.00 Build 0)  -->
<svg version="1.1" id="Layer_1" xmlns="http://www.w3.org/2000/svg" xmlns:xlink="http://www.w3.org/1999/xlink" x="0px" y="0px"
	 viewBox="0 0 137 137" style="enable-background:new 0 0 137 137;" xml:space="preserve">
<style type="text/css">
	.st0{fill:#FFFFFF;}
	.st1{fill:none;}
	.st2{fill:none;stroke:#FFFFFF;stroke-width:1.674;stroke-linecap:round;stroke-miterlimit:10;}
</style>
<path class="st0" d="M69.7,91.5c-3.3-0.4-7.5-0.3-12.6,0.7c-0.6,0.1-0.9,0.6-0.8,1.2c0.1,0.6,0.6,0.9,1.2,0.8
	c9.3-1.8,15.3,0.3,17.9,2.1c0.5,0.4,1.8,0.3,2.3-0.4c0.5-0.8,0.3-1.6-0.1-2C76.3,92.6,73.3,91.9,69.7,91.5z"/>
<path class="st0" d="M21.8,53.8c-4.9-14.2,1.6-18.6,1.6-18.6l3.9,7.7c0,0,9.6-18.1,13.3-20.8c0,0,6.9,4.7,9.5,4.8
	c0,0,6.5,1.8,12.6-15.3c0,0,2.2,5.6,6.2,6.3c4,0.7,5.9-1.6,5.9-1.6s2.8,5.5,2.6,8.2c0,0,6.1-3.1,12.5-1.9c0,0-0.8,6.2,4.5,7.7
	c5.4,1.4,6.7-0.3,6.7-0.3s-3.6,4.6-1.3,7.8c2.3,3.2,7.1,2.3,7.1,2.3s3.9-0.8,7.4-0.3c0,0-5.5,8.6-0.4,16.1c0,0-1.3,5.3,2.3,6.1
	c3.4,0.8,4.5-2.3,4.5-2.3s6.1,2.5,5.5,8.8c-0.6,6.3-5.2,8-5.2,8s-2.8,0.9-3.2-1.3c-0.3-1.8-1.5-3.2-4.2-2.1
	c-2.1,0.9-0.8,5.1-0.8,5.1c1,3.4,5.8,3.1,5.8,3.1c14.6-1.6,11.5-17.4,11.5-17.4c-1.4-7-6.9-9.3-9.8-10.1c-4.9-8.4,2.5-17.6,2.5-17.6
	c-2.8-2.8-7.5-3.2-10-3.1c-2,0.1-3.9,0.7-6,0.6c-0.4,0-0.7-0.1-1.1-0.3c-1.8-1.1,0.3-3.7,0.8-4.8c1.1-2.3,1.7-4.9,1.5-7.4
	c-0.3-3.5-1.9-6.8-4.4-9.1c0.1,1.9,0.2,3.8-0.2,5.6c-0.4,1.8-1.4,3.6-3,4.5c-5.1,2.9-5.6-4.7-3.1-7.5c-5.1-1.6-11.6-1.6-16.4,1.7
	c-0.5-4,0.2-8.8-6.8-11.5c1.1,3.3-2.7,7.4-6.1,4.5c-1.8-1.6-1.6-7.1-1.1-9.4c-3.6-0.7-8.2,3-9.2,6.3c-0.4,1.3-0.6,2.8-1.2,4
	c-0.6,1.3-3.8,8-6.2,7.9c-4.1-0.2-7.9-4.4-7.8-8.1c0,0-3.8-0.6-8.4,7.5c-6.5,11.5-6.8,12.6-6.8,12.6c-0.7-2.8-1.3-5.6-2-8.5
	c0,0-18.2,11.2-9,31.9c-3.1,0.6-10.3,3-10.7,12.2c0,0-1.9,12.7,11,14.7c0,0,4.1,0.3,4.7-1.8c0.6-2.1,0.5-3.4,0.5-3.4
	s-0.4-2.7-3.3-2.1c-2.9,0.6-2.7,3.9-2.7,3.9c-5.4-1.9-6.2-6.8-6.2-6.8s-0.3-2.4,0.7-7.5s6.7-4.1,6.7-4.1s3.6,4.2,6.2,0.9
	C26,56.9,21.8,53.8,21.8,53.8z"/>
<path class="st0" d="M77.4,80.2c-0.2,0-0.5-0.1-0.7-0.3c-0.8-0.8-3-2.4-3.9-2.9c-0.9-0.4-2.4-0.5-3.1-0.2c-0.2,0.1-0.4,0.2-0.5,0.3
	c-0.4,0.2-0.8,0.5-1.3,0.6c-0.7,0.1-1.8,0-2,0l-0.2,0c-0.4-0.1-0.8-0.4-1.1-0.5c-0.2-0.1-0.4-0.2-0.6-0.3c-0.7-0.3-2.2-0.2-3.1,0.2
	c-0.9,0.4-3,2.1-3.9,2.9c-0.4,0.4-1.1,0.4-1.5-0.1c-0.4-0.4-0.4-1.1,0.1-1.5c0.8-0.7,3.1-2.6,4.3-3.2c1.2-0.6,3.4-0.9,4.8-0.3
	c0.3,0.1,0.6,0.3,0.9,0.5c0.2,0.1,0.4,0.3,0.6,0.3c0.4,0,1,0.1,1.2,0c0.2,0,0.4-0.2,0.7-0.3c0.2-0.2,0.5-0.3,0.9-0.5
	c1.4-0.6,3.6-0.3,4.8,0.3c1.2,0.6,3.6,2.5,4.3,3.2c0.4,0.4,0.5,1,0.1,1.5C78,80.1,77.7,80.2,77.4,80.2z"/>
<path class="st0" d="M117.9,66c0,0,3.5-2.2,3.9,1.7c0.4,4-4.3,4.3-4.2,2.8C117.8,69.1,117.9,66,117.9,66z"/>
<path class="st0" d="M99.4,46c0,0-0.1,0-0.1-0.1c-8.9-5.2-20.5-8.2-31.9-8.2c-11.7,0-22.9,2.8-31.6,8c0,0,0,0-0.1,0.1
	c0,0-0.1,0-0.1,0.1c0,0,0,0,0,0.1c0,0,0,0.1-0.1,0.1c0,0,0,0,0,0.1c0,0,0,0.1,0,0.1c0,0,0,0,0,0c0,0,0,0.1,0.1,0.1c0,0,0,0,0,0
	c0,0,0,0,0,0c0,0,0,0,0,0c0,0,0.1,0.1,0.1,0.1c0,0,0,0,0,0c0,0,0.1,0.1,0.1,0.1c0,0,0,0,0.1,0c0,0,0.1,0,0.1,0c0,0,0.1,0,0.1,0
	c0,0,0.1,0,0.1,0c8.7-4.8,19.8-7.2,31.3-6.9c11.4,0.3,22.2,3.4,30.5,8.6c0.1,0.1,0.2,0.1,0.3,0.1c0,0,0,0,0,0
	c0.5,0.1,1.1-0.2,1.4-0.7C100.1,47,100,46.3,99.4,46z M76,39.4c-0.1,0-0.3,0-0.4-0.1C75.7,39.4,75.8,39.4,76,39.4L76,39.4z"/>
<path class="st1" d="M66.8,55c0.9,0,4.1-1.1,4.7-1.3c0.1,0,10.4-3.4,17.9-0.6c0.3,0.1,0.7,0,0.9-0.4c0.1-0.3,0-0.7-0.4-0.9
	c-8-3-18.4,0.4-18.8,0.6c-1.8,0.6-3.9,1.2-4.3,1.2c-0.4,0-2.5-0.6-4.3-1.2c-0.4-0.1-10.8-3.6-18.8-0.6c-0.3,0.1-0.5,0.5-0.4,0.9
	c0.1,0.3,0.5,0.5,0.9,0.4c7.5-2.8,17.8,0.6,17.9,0.6C62.7,53.9,66,55,66.8,55z"/>
<g>
	<path class="st1" d="M57.4,66.1c0-0.3,0-0.6,0-0.9c-0.4-3.5-3.2-6.1-6.2-5.7c-3.1,0.3-5.2,3.5-4.8,7c0.1,0.7,0.3,1.4,0.6,2.1
		C49.1,67.3,53.7,65.4,57.4,66.1z"/>
	<path class="st1" d="M44.6,71.5c0.1,0,0.3-0.1,0.4-0.2c6.2-7.3,16.3-3.7,16.4-3.7c0.3,0.1,0.6,0,0.7-0.3c0.1-0.3,0-0.6-0.3-0.7
		c-0.1,0-10.9-3.8-17.7,4c-0.2,0.2-0.2,0.6,0.1,0.8C44.3,71.5,44.4,71.5,44.6,71.5z"/>
</g>
<g>
	<path class="st1" d="M76.3,66.1c0-0.3,0-0.6,0-0.9c0.4-3.5,3.2-6.1,6.2-5.7c3.1,0.3,5.2,3.5,4.8,7c-0.1,0.7-0.3,1.4-0.6,2.1
		C84.6,67.3,80,65.4,76.3,66.1z"/>
	<path class="st1" d="M89.1,71.5c-0.1,0-0.3-0.1-0.4-0.2c-6.2-7.3-16.3-3.7-16.4-3.7c-0.3,0.1-0.6,0-0.7-0.3c-0.1-0.3,0-0.6,0.3-0.7
		c0.1,0,10.9-3.8,17.7,4c0.2,0.2,0.2,0.6-0.1,0.8C89.4,71.5,89.3,71.5,89.1,71.5z"/>
</g>
<path class="st0" d="M19,65.2c0,0-3.5-2.2-3.9,1.7c-0.4,4,4.3,4.3,4.2,2.8S19,65.2,19,65.2z"/>
<path class="st0" d="M44.6,107.6c-14.7-8.5-16.6-24.7-16.7-25.5c-0.1-1.1-1.2-1.9-2.3-1.8c-1.1,0.1-1.9,1.2-1.8,2.3
	c0,0.2,2.6,17.6,20.1,26.5c0,0,0.8,0.2,1-0.5C45.1,107.9,44.6,107.6,44.6,107.6z"/>
<path class="st0" d="M89.1,107.6c14.7-8.5,16.6-24.7,16.7-25.5c0.1-1.1,1.2-1.9,2.3-1.8c1.1,0.1,1.9,1.2,1.8,2.3
	c0,0.2-2.6,17.6-20.1,26.5c0,0-0.8,0.2-1-0.5C88.6,107.9,89.1,107.6,89.1,107.6z"/>
<path class="st0" d="M100.5,51.4c-3.5-0.9-7.6-1.2-11.6-1.2c-6.2,0-12.1,0.8-15.3,1.9c-2.1,0.7-4.5,1.7-6.6,1.7
	c-2.1,0-4.5-1-6.6-1.7c-3.2-1.1-9.1-1.9-15.3-1.9c-4,0-8.1,0.4-11.6,1.2c-1,0.2-1.7,1.2-1.6,2.2l0.1,1.6c0,0.8,0.5,1.5,1.3,1.8
	c0.4,0.2,0.8,0.6,1,1.3c0.5,1.8,1.8,9.2,4.1,12c2.4,3,7.1,3.6,11,3.6c0.7,0,1.4,0,2.1,0c5.5-0.2,9.2-2.7,10.7-6.9
	c1.6-4.2,2.4-7.7,3.4-8.9c0.5-0.6,1.1-0.7,1.6-0.7c0.5,0,1.1,0,1.6,0.7c1,1.1,1.9,4.7,3.4,8.9c1.5,4.2,5.2,6.6,10.7,6.9
	c0.6,0,1.3,0,2.1,0c3.9,0,8.6-0.6,11-3.6c2.3-2.9,3.5-10.2,4.1-12c0.2-0.7,0.6-1.1,1-1.3c0.7-0.3,1.2-1,1.3-1.8l0.1-1.6
	C102.2,52.6,101.5,51.7,100.5,51.4z M42,57.7c-2.2,1.6-3.1,3.5-3.1,3.5V58c0-1.5,1.2-2.7,2.7-2.7h6.1C47.6,55.4,43.8,56.4,42,57.7z
	 M78,57.7c-2.2,1.6-3.1,3.5-3.1,3.5V58c0-1.5,1.2-2.7,2.7-2.7h6.1C83.7,55.4,79.8,56.4,78,57.7z"/>
<path class="st2" d="M38.1,111.7c0,7.7,12.9,14,28.7,14c15.9,0,28.7-6.2,28.7-14"/>
<path class="st2" d="M50.8,129c4.6,1.5,10.1,2.4,16.1,2.4c5.9,0,11.4-0.9,16-2.4"/>
</svg>
