<?xml version="1.0" encoding="utf-8"?>
<!-- Generator: Adobe Illustrator 25.2.3, SVG Export Plug-In . SVG Version: 6.00 Build 0)  -->
<svg version="1.1" id="white" xmlns="http://www.w3.org/2000/svg" xmlns:xlink="http://www.w3.org/1999/xlink" x="0px" y="0px"
	 viewBox="0 0 200 200" style="enable-background:new 0 0 200 200;" xml:space="preserve">
<style type="text/css">
	.st0{fill:none;stroke:#FFFFFF;stroke-width:1.5956;stroke-miterlimit:10;}
	.st1{fill:none;stroke:#FFFFFF;stroke-width:3;stroke-miterlimit:10;}
	.st2{fill:#FFFFFF;}
	.st3{fill:none;stroke:#FFFFFF;stroke-width:3.5;stroke-linecap:round;stroke-linejoin:round;stroke-miterlimit:10;}
</style>
<g>
	<path class="st0" d="M154.6,39.5c-14.9-12.9-34.4-20.8-55.7-20.8c-21.4,0-40.9,7.9-55.8,20.9"/>
	<path class="st0" d="M152.7,169.6c-14.7,12-33.4,19.2-53.9,19.2c-20.9,0-40.1-7.6-54.9-20.1"/>
	<path class="st0" d="M20.4,70.9c-4.2,10.1-6.6,21.2-6.6,32.9c0,11.4,2.3,22.3,6.3,32.2"/>
	<path class="st0" d="M177.6,135.8c4-9.9,6.3-20.7,6.3-32.1c0-12-2.5-23.5-7-33.8"/>
</g>
<path class="st1" d="M167.6,162H29.9c-1.9,0-3.4-1.5-3.4-3.4V48.9c0-1.9,1.5-3.4,3.4-3.4h137.7c1.9,0,3.4,1.5,3.4,3.4v109.7
	C171,160.5,169.5,162,167.6,162z"/>
<g>
	<path class="st2" d="M167.6,45.5H29.9c-1.9,0-3.4,1.5-3.4,3.4v14H171v-14C171,47.1,169.5,45.5,167.6,45.5z M36.1,56.9
		c-1.9,0-3.5-1.6-3.5-3.5s1.6-3.5,3.5-3.5s3.5,1.6,3.5,3.5S38,56.9,36.1,56.9z M45,56.9c-1.9,0-3.5-1.6-3.5-3.5s1.6-3.5,3.5-3.5
		s3.5,1.6,3.5,3.5S47,56.9,45,56.9z M54.3,56.9c-1.9,0-3.5-1.6-3.5-3.5s1.6-3.5,3.5-3.5s3.5,1.6,3.5,3.5S56.3,56.9,54.3,56.9z
		 M151.5,54.5c0,1.3-1.1,2.4-2.4,2.4H66.6c-1.3,0-2.4-1.1-2.4-2.4v-2.2c0-1.3,1.1-2.4,2.4-2.4h82.5c1.3,0,2.4,1.1,2.4,2.4V54.5z"/>
</g>
<g>
	<polyline class="st3" points="64.9,149.9 64.9,118.3 53.3,118.3 72.5,92.8 91.3,117.8 80.4,117.8 80.4,140 	"/>
	<polyline class="st3" points="116.3,134.8 116.3,105.7 102.2,105.7 125.5,74.9 148.2,105.1 135,105.1 135,146.2 	"/>
	<polyline class="st3" points="82.8,91.1 94.2,76 102.2,86.8 	"/>
	<line class="st3" x1="100.3" y1="117.8" x2="100.3" y2="131.8"/>
</g>
</svg>
