<?xml version="1.0" encoding="utf-8"?>
<!-- Generator: Adobe Illustrator 24.2.3, SVG Export Plug-In . SVG Version: 6.00 Build 0)  -->
<svg version="1.1" xmlns="http://www.w3.org/2000/svg" xmlns:xlink="http://www.w3.org/1999/xlink" x="0px" y="0px"
	 viewBox="0 0 120 120" style="enable-background:new 0 0 120 120;" xml:space="preserve">
<style type="text/css">
	.st0{fill-rule:evenodd;clip-rule:evenodd;fill:#FFFFFF;stroke:#FFFFFF;stroke-width:1.2255;stroke-miterlimit:10;}
	.st1{fill-rule:evenodd;clip-rule:evenodd;fill:#FFFFFF;}
	.st2{fill:#FFFFFF;}
</style>
<g id="Layer_1">
	<path class="st0" d="M19.7,89.8V79.4c0-6.6,2.7-12.5,7-16.9c4.3-4.3,10.3-7,16.9-7c6.6,0,12.5,2.7,16.9,7c4.3,4.3,7,10.3,7,16.9
		v10.4h-1.7V79.4c0-6.1-2.5-11.7-6.5-15.7c-4-4-9.5-6.5-15.7-6.5c-6.1,0-11.7,2.5-15.7,6.5c-4,4-6.5,9.5-6.5,15.7v10.4H19.7
		L19.7,89.8z M24.4,82.9v11.9c0,2.7,2.2,4.9,4.9,4.9c2.7,0,4.9-2.2,4.9-4.9V82.9c0-2.7-2.2-4.9-4.9-4.9C26.6,78,24.4,80.2,24.4,82.9
		L24.4,82.9z M26.1,82.9v11.9c0,1.8,1.4,3.2,3.2,3.2c1.8,0,3.2-1.4,3.2-3.2V82.9c0-1.8-1.4-3.2-3.2-3.2
		C27.5,79.7,26.1,81.2,26.1,82.9L26.1,82.9z M52.9,82.9v11.9c0,2.7,2.2,4.9,4.9,4.9s4.9-2.2,4.9-4.9V82.9c0-2.7-2.2-4.9-4.9-4.9
		C55,78,52.9,80.2,52.9,82.9L52.9,82.9z M54.5,82.9v11.9c0,1.8,1.4,3.2,3.2,3.2s3.2-1.4,3.2-3.2V82.9c0-1.8-1.4-3.2-3.2-3.2
		S54.5,81.2,54.5,82.9z"/>
	<path class="st1" d="M81.3,37.7h10.1V23.5c0-2-1-2.9-2.9-2.9H30.6c-1.9,0-2.9,1-2.9,2.9v39.4h49.2V42.1
		C76.9,39.5,78.7,37.7,81.3,37.7L81.3,37.7z M94,37.7h4.6c2.7,0,4.4,1.7,4.4,4.4v34.2c0,2.7-1.7,4.4-4.4,4.4H81.3
		c-2.7,0-4.4-1.7-4.4-4.4v-2.3H59.5H24.2h-0.3l-0.3-0.1c-3.8-1.8-6.3-5.5-6.5-9.7l-0.1-1.4h1.4h6.6V23.5c0-3.4,2.2-5.6,5.6-5.6h57.8
		c3.4,0,5.6,2.1,5.6,5.6V37.7L94,37.7z M76.9,71.4v-5.9h-57c0.5,2.6,2.2,4.8,4.6,5.9h35H76.9L76.9,71.4z M79.5,71.4V42.1
		c0-1.2,0.6-1.8,1.8-1.8h17.3c1.2,0,1.8,0.5,1.8,1.8v29.4H79.5L79.5,71.4z M100.3,74.1H79.5v2.3c0,1.2,0.6,1.8,1.8,1.8h17.3
		c1.2,0,1.8-0.6,1.8-1.8V74.1z"/>
	<g>
		<path class="st2" d="M95.3,88.2c-0.2-0.1-0.5-0.1-0.7,0l-3.6,1.9v9.2l3.6,1.9c0.1,0.1,0.2,0.1,0.3,0.1c0.1,0,0.3,0,0.4-0.1
			c0.2-0.1,0.4-0.4,0.4-0.7V89C95.7,88.6,95.6,88.4,95.3,88.2L95.3,88.2z"/>
		<path class="st2" d="M85.8,94.7c0,2.7-2.2,4.9-4.9,4.9c-2.7,0-4.9-2.2-4.9-4.9s2.2-4.9,4.9-4.9C83.6,89.8,85.8,92,85.8,94.7
			L85.8,94.7z M86.8,86.1h-12c-1.5,0-2.6,1.2-2.6,2.6v12c0,1.5,1.2,2.6,2.6,2.6h12c1.5,0,2.6-1.2,2.6-2.6v-12
			C89.5,87.3,88.3,86.1,86.8,86.1L86.8,86.1z"/>
		<path class="st2" d="M80.9,91.5c-1.8,0-3.2,1.4-3.2,3.2c0,1.8,1.4,3.2,3.2,3.2c1.8,0,3.2-1.4,3.2-3.2C84.1,93,82.6,91.5,80.9,91.5
			L80.9,91.5z"/>
	</g>
</g>
<g id="border">
	<g>
		<path class="st2" d="M60,2c32,0,58,26,58,58s-26,58-58,58S2,92,2,60S28,2,60,2 M60,0C26.9,0,0,26.9,0,60s26.9,60,60,60
			s60-26.9,60-60S93.1,0,60,0L60,0z"/>
	</g>
</g>
</svg>
