<?xml version="1.0" encoding="utf-8"?>
<!-- Generator: Adobe Illustrator 24.2.3, SVG Export Plug-In . SVG Version: 6.00 Build 0)  -->
<svg version="1.1" xmlns="http://www.w3.org/2000/svg" xmlns:xlink="http://www.w3.org/1999/xlink" x="0px" y="0px"
	 viewBox="0 0 120 120" style="enable-background:new 0 0 120 120;" xml:space="preserve">
<style type="text/css">
	.st0{fill:none;stroke:#FFFFFF;stroke-width:1.8166;stroke-miterlimit:10;}
	.st1{fill:none;stroke:#FFFFFF;stroke-width:1.8166;stroke-linecap:round;stroke-linejoin:round;stroke-miterlimit:10;}
	.st2{fill:#FFFFFF;}
</style>
<g id="Layer_1">
	<g>
		<circle class="st0" cx="50.9" cy="23.6" r="3.7"/>
		<circle class="st0" cx="32.2" cy="34.8" r="3.7"/>
		<circle class="st0" cx="19.1" cy="49.7" r="3.7"/>
		<polyline class="st0" points="54.6,23.6 69.6,23.6 69.6,34.8 93.8,34.8 		"/>
		<polyline class="st0" points="35.9,34.8 60.2,34.8 60.2,42.3 89.3,42.3 		"/>
		<circle class="st0" cx="26.6" cy="69.8" r="3.7"/>
		<polyline class="st0" points="30.3,69.8 39.7,69.8 39.7,58.6 51.8,58.6 		"/>
		<circle class="st0" cx="37.8" cy="81.5" r="3.7"/>
		<polyline class="st0" points="41.6,81.5 50.9,81.5 50.9,63.6 		"/>
		<line class="st0" x1="84.5" y1="49.7" x2="22.9" y2="49.7"/>
		<line class="st1" x1="52.8" y1="42.3" x2="47.2" y2="42.3"/>
		<line class="st1" x1="34.1" y1="57.2" x2="28.5" y2="57.2"/>
		<line class="st1" x1="43.4" y1="42.3" x2="39.7" y2="42.3"/>
		<line class="st1" x1="45.3" y1="90.8" x2="56.5" y2="90.8"/>
		<line class="st1" x1="26.6" y1="90.8" x2="30.3" y2="90.8"/>
		<line class="st1" x1="26.6" y1="79.6" x2="21" y2="79.6"/>
		<path class="st2" d="M100.7,72.9l-6-10.5c-0.5-0.9-0.6-2.1-0.1-3c0.7-1.4,1-3,0.9-4.7l-1.7-20L75.2,53.5l-13.1,5.6L54.9,57
			c-1.4-0.4-2.9-0.1-4.1,0.8c-4.1,3.1-0.4,10.1,1.4,14.5c1.3,3.1,4.8,4.6,7.9,3.6c0,5.9,2.5,11.6,7,15.5l3.6,3.2
			c4,3.6,9.3,5.6,14.7,5.6c2.7,0,5-1.9,5.5-4.6l2.9-15.9l5-1.3c1.4-0.4,2.4-1.6,2.4-3.1C101.3,74.4,101.1,73.6,100.7,72.9z
			 M89.9,64.7c0,0.7-0.5,1.2-1.2,1.2s-1.2-0.5-1.2-1.2v-3.5L79,63.3c-0.7,0.2-1.3-0.2-1.5-0.9c-0.2-0.7,0.2-1.3,0.9-1.5l10-2.5
			c0.4-0.1,0.7,0,1,0.2c0.3,0.2,0.5,0.6,0.5,1V64.7z"/>
	</g>
</g>
<g id="border">
	<g>
		<path class="st2" d="M60,2c32,0,58,26,58,58s-26,58-58,58S2,92,2,60S28,2,60,2 M60,0C26.9,0,0,26.9,0,60s26.9,60,60,60
			s60-26.9,60-60S93.1,0,60,0L60,0z"/>
	</g>
</g>
</svg>
