<?xml version="1.0" encoding="utf-8"?>
<!-- Generator: Adobe Illustrator 24.2.3, SVG Export Plug-In . SVG Version: 6.00 Build 0)  -->
<svg version="1.1" xmlns="http://www.w3.org/2000/svg" xmlns:xlink="http://www.w3.org/1999/xlink" x="0px" y="0px"
	 viewBox="0 0 120 120" style="enable-background:new 0 0 120 120;" xml:space="preserve">
<style type="text/css">
	.st0{fill:none;stroke:#FFFFFF;stroke-miterlimit:10;}
	.st1{fill:#FFFFFF;}
	.st2{fill:#FFFFFF;stroke:#FFFFFF;stroke-miterlimit:10;}
</style>
<g id="Layer_1">
	<g>
		<path class="st0" d="M37,15c-3.7,0-6.7,3-6.7,6.7v39.9c0,3.7,3,6.7,6.7,6.7s6.7-3,6.7-6.7V21.7C43.6,18,40.7,15,37,15z"/>
		<path class="st1" d="M37,30.5c-3.7,0-6.7,3-6.7,6.7v24.4c0,3.7,3,6.7,6.7,6.7s6.7-3,6.7-6.7V37.1C43.6,33.5,40.7,30.5,37,30.5z"/>
	</g>
	<g>
		<path class="st0" d="M58.9,15c-3.7,0-6.7,3-6.7,6.7v39.9c0,3.7,3,6.7,6.7,6.7s6.7-3,6.7-6.7V21.7C65.5,18,62.5,15,58.9,15z"/>
		<path class="st1" d="M58.9,42c-3.7,0-6.7,3-6.7,6.7v12.9c0,3.7,3,6.7,6.7,6.7s6.7-3,6.7-6.7V48.7C65.5,45,62.5,42,58.9,42z"/>
	</g>
	<g>
		<path class="st0" d="M80.7,15c-3.7,0-6.7,3-6.7,6.7v39.9c0,3.7,3,6.7,6.7,6.7s6.7-3,6.7-6.7V21.7C87.4,18,84.4,15,80.7,15z"/>
		<path class="st1" d="M80.7,23.6c-3.7,0-6.7,3-6.7,6.7v31.3c0,3.7,3,6.7,6.7,6.7s6.7-3,6.7-6.7V30.3C87.4,26.6,84.4,23.6,80.7,23.6
			z"/>
	</g>
	<g>
		<path class="st2" d="M24.2,81.7c1.3,1.3,3.4,1.3,4.7,0c1.3-1.3,1.3-3.4,0-4.7c-1.3-1.3-3.4-1.3-4.7,0
			C22.9,78.3,22.9,80.4,24.2,81.7z"/>
		<path class="st2" d="M35.3,81.7c1.3,1.3,3.4,1.3,4.7,0c1.3-1.3,1.3-3.4,0-4.7c-1.3-1.3-3.4-1.3-4.7,0C34,78.3,34,80.4,35.3,81.7z"
			/>
		<path class="st2" d="M46.5,81.7c1.3,1.3,3.4,1.3,4.7,0c1.3-1.3,1.3-3.4,0-4.7s-3.4-1.3-4.7,0C45.2,78.3,45.2,80.4,46.5,81.7z"/>
		<path class="st2" d="M57.7,81.7c1.3,1.3,3.4,1.3,4.7,0c1.3-1.3,1.3-3.4,0-4.7c-1.3-1.3-3.4-1.3-4.7,0
			C56.4,78.3,56.4,80.4,57.7,81.7z"/>
		<path class="st2" d="M68.8,81.7c1.3,1.3,3.4,1.3,4.7,0c1.3-1.3,1.3-3.4,0-4.7c-1.3-1.3-3.4-1.3-4.7,0
			C67.5,78.3,67.5,80.4,68.8,81.7z"/>
		<path class="st0" d="M80,81.7c1.3,1.3,3.4,1.3,4.7,0c1.3-1.3,1.3-3.4,0-4.7c-1.3-1.3-3.4-1.3-4.7,0C78.7,78.3,78.7,80.4,80,81.7z"
			/>
		<path class="st0" d="M91.1,81.7c1.3,1.3,3.4,1.3,4.7,0c1.3-1.3,1.3-3.4,0-4.7c-1.3-1.3-3.4-1.3-4.7,0
			C89.8,78.3,89.8,80.4,91.1,81.7z"/>
	</g>
	<g>
		<path class="st2" d="M24.2,96.2c1.3,1.3,3.4,1.3,4.7,0c1.3-1.3,1.3-3.4,0-4.7c-1.3-1.3-3.4-1.3-4.7,0
			C22.9,92.8,22.9,94.9,24.2,96.2z"/>
		<path class="st2" d="M35.3,96.2c1.3,1.3,3.4,1.3,4.7,0c1.3-1.3,1.3-3.4,0-4.7c-1.3-1.3-3.4-1.3-4.7,0C34,92.8,34,94.9,35.3,96.2z"
			/>
		<path class="st2" d="M46.5,96.2c1.3,1.3,3.4,1.3,4.7,0c1.3-1.3,1.3-3.4,0-4.7c-1.3-1.3-3.4-1.3-4.7,0
			C45.2,92.8,45.2,94.9,46.5,96.2z"/>
		<path class="st0" d="M57.7,96.2c1.3,1.3,3.4,1.3,4.7,0c1.3-1.3,1.3-3.4,0-4.7c-1.3-1.3-3.4-1.3-4.7,0
			C56.4,92.8,56.4,94.9,57.7,96.2z"/>
		<path class="st0" d="M68.8,96.2c1.3,1.3,3.4,1.3,4.7,0c1.3-1.3,1.3-3.4,0-4.7c-1.3-1.3-3.4-1.3-4.7,0
			C67.5,92.8,67.5,94.9,68.8,96.2z"/>
		<path class="st0" d="M80,96.2c1.3,1.3,3.4,1.3,4.7,0c1.3-1.3,1.3-3.4,0-4.7c-1.3-1.3-3.4-1.3-4.7,0C78.7,92.8,78.7,94.9,80,96.2z"
			/>
		<path class="st0" d="M91.1,96.2c1.3,1.3,3.4,1.3,4.7,0c1.3-1.3,1.3-3.4,0-4.7c-1.3-1.3-3.4-1.3-4.7,0
			C89.8,92.8,89.8,94.9,91.1,96.2z"/>
	</g>
</g>
<g id="border">
	<g>
		<path class="st1" d="M60,2c32,0,58,26,58,58s-26,58-58,58S2,92,2,60S28,2,60,2 M60,0C26.9,0,0,26.9,0,60s26.9,60,60,60
			s60-26.9,60-60S93.1,0,60,0L60,0z"/>
	</g>
</g>
</svg>
