<?xml version="1.0" encoding="utf-8"?>
<!-- Generator: Adobe Illustrator 24.2.3, SVG Export Plug-In . SVG Version: 6.00 Build 0)  -->
<svg version="1.1" xmlns="http://www.w3.org/2000/svg" xmlns:xlink="http://www.w3.org/1999/xlink" x="0px" y="0px"
	 viewBox="0 0 120 120" style="enable-background:new 0 0 120 120;" xml:space="preserve">
<style type="text/css">
	.st0{fill:#FFFFFF;}
</style>
<g id="Layer_1">
	<path class="st0" d="M105.1,63.7c0,20.1-16.3,36.4-36.4,36.4c-13.9,0-26.5-7.8-32.6-20.2h-4.2c-1.9,0-3.4-1.5-3.4-3.4
		c0-1.9,1.5-3.4,3.4-3.4h6.3c1.4,0,2.6,0.8,3.1,2.1c4.6,11,15.4,18.1,27.3,18.1c16.3,0,29.6-13.3,29.6-29.6S85,34.1,68.7,34.1
		c-11.9,0-22.6,7.1-27.3,18c-0.5,1.3-1.8,2.1-3.1,2.1H19.7c-1.9,0-3.4-1.5-3.4-3.4c0-1.9,1.5-3.4,3.4-3.4h16.5
		c5.6-11.2,16.6-18.7,29.1-19.9v-0.8h-3.4c-1.9,0-3.4-1.5-3.4-3.4c0-1.9,1.5-3.4,3.4-3.4h13.8c1.9,0,3.4,1.5,3.4,3.4
		c0,1.9-1.5,3.4-3.4,3.4H72v0.8C90.6,29.1,105.1,44.7,105.1,63.7z M38,39c0.6,0,1.2-0.2,1.6-0.7l3.9-3.9c0.9-0.9,0.9-2.3,0-3.2
		c-0.9-0.9-2.3-0.9-3.2,0l-3.9,3.9c-0.9,0.9-0.9,2.3,0,3.2C36.9,38.8,37.5,39,38,39z M37.1,61.2c1.3,0,2.3-1,2.3-2.3
		c0-1.3-1-2.3-2.3-2.3h-9.5c-1.3,0-2.3,1-2.3,2.3c0,1.3,1,2.3,2.3,2.3H37.1z M22.1,67.4c0,1.3,1,2.3,2.3,2.3h12.8
		c1.3,0,2.3-1,2.3-2.3c0-1.3-1-2.3-2.3-2.3H24.3C23.1,65.2,22.1,66.2,22.1,67.4z M13.9,59c0-1.3-1-2.3-2.3-2.3H11
		c-1.3,0-2.3,1-2.3,2.3c0,1.3,1,2.3,2.3,2.3h0.6C12.9,61.2,13.9,60.2,13.9,59z M21.8,59c0-1.3-1-2.3-2.3-2.3h-0.6
		c-1.3,0-2.3,1-2.3,2.3c0,1.3,1,2.3,2.3,2.3h0.6C20.7,61.2,21.8,60.2,21.8,59z M15.6,74.3H15c-1.3,0-2.3,1-2.3,2.3s1,2.3,2.3,2.3
		h0.6c1.3,0,2.3-1,2.3-2.3S16.8,74.3,15.6,74.3z M23.5,74.3h-0.6c-1.3,0-2.3,1-2.3,2.3s1,2.3,2.3,2.3h0.6c1.3,0,2.3-1,2.3-2.3
		S24.7,74.3,23.5,74.3z M71,40.9v-0.6c0-1.3-1-2.3-2.3-2.3c-1.3,0-2.3,1-2.3,2.3v0.6c0,1.3,1,2.3,2.3,2.3C70,43.2,71,42.2,71,40.9z
		 M68.7,84.3c-1.3,0-2.3,1-2.3,2.3v0.6c0,1.3,1,2.3,2.3,2.3c1.3,0,2.3-1,2.3-2.3v-0.6C71,85.3,70,84.3,68.7,84.3z M45.3,61.5
		c-1.3,0-2.3,1-2.3,2.3s1,2.3,2.3,2.3h0.6c1.3,0,2.3-1,2.3-2.3s-1-2.3-2.3-2.3H45.3z M89.2,63.7c0,1.3,1,2.3,2.3,2.3h0.6
		c1.3,0,2.3-1,2.3-2.3s-1-2.3-2.3-2.3h-0.6C90.3,61.5,89.2,62.5,89.2,63.7z M59,42.3c-0.6-1.1-2-1.5-3.1-0.8c-1.1,0.6-1.5,2-0.8,3.1
		l0.3,0.5c0.4,0.7,1.2,1.1,2,1.1c0.4,0,0.8-0.1,1.1-0.3c1.1-0.6,1.5-2,0.8-3.1L59,42.3z M82.1,82.3c-0.6-1.1-2-1.5-3.1-0.8
		c-1.1,0.6-1.5,2-0.8,3.1l0.3,0.5c0.4,0.7,1.2,1.1,2,1.1c0.4,0,0.8-0.1,1.1-0.3c1.1-0.6,1.5-2,0.8-3.1L82.1,82.3z M47.8,73.2
		l-0.5,0.3c-1.1,0.6-1.5,2-0.8,3.1c0.4,0.7,1.2,1.1,2,1.1c0.4,0,0.8-0.1,1.1-0.3l0.5-0.3c1.1-0.6,1.5-2,0.8-3.1
		C50.3,72.9,48.9,72.5,47.8,73.2z M87.9,50l-0.5,0.3c-1.1,0.6-1.5,2-0.8,3.1c0.4,0.7,1.2,1.1,2,1.1c0.4,0,0.8-0.1,1.1-0.3l0.5-0.3
		c1.1-0.6,1.5-2,0.8-3.1C90.3,49.8,89,49.4,87.9,50z M81.6,41.5c-1.1-0.6-2.5-0.3-3.1,0.8l-0.3,0.5c-0.6,1.1-0.3,2.5,0.8,3.1
		c0.4,0.2,0.7,0.3,1.1,0.3c0.8,0,1.5-0.4,2-1.1l0.3-0.5C83,43.5,82.6,42.1,81.6,41.5z M55.9,86c0.4,0.2,0.7,0.3,1.1,0.3
		c0.8,0,1.5-0.4,2-1.1l0.3-0.5c0.6-1.1,0.3-2.5-0.8-3.1c-1.1-0.6-2.5-0.3-3.1,0.8L55,82.9C54.4,84,54.8,85.4,55.9,86z M50.1,50.4
		L49.5,50c-1.1-0.6-2.5-0.3-3.1,0.8c-0.6,1.1-0.3,2.5,0.8,3.1l0.5,0.3c0.4,0.2,0.7,0.3,1.1,0.3c0.8,0,1.5-0.4,2-1.1
		C51.5,52.4,51.2,51,50.1,50.4z M87.3,77.1l0.5,0.3c0.4,0.2,0.7,0.3,1.1,0.3c0.8,0,1.5-0.4,2-1.1c0.6-1.1,0.3-2.5-0.8-3.1l-0.5-0.3
		c-1.1-0.6-2.5-0.3-3.1,0.8C85.9,75.1,86.2,76.5,87.3,77.1z M55.8,50.6c-1.3,1.3-1.3,3.5,0,4.8l10.5,10.7c0.7,0.7,1.5,1,2.4,1
		c0.6,0,1.2-0.1,1.7-0.5l9.8-5.7c1.6-0.9,2.2-3,1.2-4.6c-0.9-1.6-3-2.2-4.6-1.2l-7.5,4.3l-8.7-8.8C59.3,49.3,57.1,49.3,55.8,50.6z"
		/>
</g>
<g id="border">
	<g>
		<path class="st0" d="M60,2c32,0,58,26,58,58s-26,58-58,58S2,92,2,60S28,2,60,2 M60,0C26.9,0,0,26.9,0,60s26.9,60,60,60
			s60-26.9,60-60S93.1,0,60,0L60,0z"/>
	</g>
</g>
</svg>
