<?xml version="1.0" encoding="utf-8"?>
<!-- Generator: Adobe Illustrator 24.2.3, SVG Export Plug-In . SVG Version: 6.00 Build 0)  -->
<svg version="1.1" xmlns="http://www.w3.org/2000/svg" xmlns:xlink="http://www.w3.org/1999/xlink" x="0px" y="0px"
	 viewBox="0 0 120 120" style="enable-background:new 0 0 120 120;" xml:space="preserve">
<style type="text/css">
	.st0{fill:none;stroke:#FFFFFF;stroke-width:2.0141;stroke-miterlimit:10;}
	.st1{fill:#FFFFFF;}
</style>
<g id="Layer_1">
	<g>
		<path class="st0" d="M70.1,76.8v-6c0-2.3-5.5-6-10.1-6c-4.5,0-10.1,3.7-10.1,6v6"/>
		<circle class="st0" cx="60" cy="62.7" r="22.2"/>
		<path class="st0" d="M60,64.6c-3.6,0-6-3.1-6-6.9v-2.3c0-3.8,2.4-6.9,6-6.9c3.6,0,6,3.1,6,6.9v2.3C66,61.5,63.6,64.6,60,64.6z"/>
		<path class="st0" d="M54,36.5c0-2.3-5.5-6-10.1-6c-4.5,0-10.1,3.7-10.1,6v6"/>
		<path class="st0" d="M43.9,30.3c-3.6,0-6-3.1-6-6.9v-2.3c0-3.8,2.4-6.9,6-6.9c3.6,0,6,3.1,6,6.9v2.3
			C49.9,27.3,47.5,30.3,43.9,30.3z"/>
		<path class="st0" d="M66,36.5c0-2.3,5.5-6,10.1-6c4.5,0,10.1,3.7,10.1,6v6"/>
		<path class="st0" d="M76.1,30.3c3.6,0,6-3.1,6-6.9v-2.3c0-3.8-2.4-6.9-6-6.9s-6,3.1-6,6.9v2.3C70.1,27.3,72.5,30.3,76.1,30.3z"/>
		<path class="st0" d="M104.3,74.7v-6c0-2.3-5.5-6-10.1-6c-2.8,0-6,1.4-8.1,3.1"/>
		<path class="st0" d="M94.2,62.6c-3.6,0-6-3.1-6-6.9v-2.3c0-3.8,2.4-6.9,6-6.9c3.6,0,6,3.1,6,6.9v2.3
			C100.3,59.5,97.9,62.6,94.2,62.6z"/>
		<path class="st0" d="M15.7,74.7v-6c0-2.3,5.5-6,10.1-6c2.8,0,6,1.4,8.1,3.1"/>
		<path class="st0" d="M25.8,62.6c3.6,0,6-3.1,6-6.9v-2.3c0-3.8-2.4-6.9-6-6.9c-3.6,0-6,3.1-6,6.9v2.3
			C19.7,59.5,22.1,62.6,25.8,62.6z"/>
		<path class="st0" d="M78.8,74.7l17.1,17.1c1.6,1.6,1.6,4.1,0,5.7L94.4,99c-1.6,1.6-4.1,1.6-5.7,0L71.6,81.9"/>
	</g>
</g>
<g id="border">
	<g>
		<path class="st1" d="M60,2c32,0,58,26,58,58s-26,58-58,58S2,92,2,60S28,2,60,2 M60,0C26.9,0,0,26.9,0,60s26.9,60,60,60
			s60-26.9,60-60S93.1,0,60,0L60,0z"/>
	</g>
</g>
</svg>
