<?xml version="1.0" standalone="no"?>
<!DOCTYPE svg PUBLIC "-//W3C//DTD SVG 1.1//EN" "http://www.w3.org/Graphics/SVG/1.1/DTD/svg11.dtd">
<svg xmlns="http://www.w3.org/2000/svg">
<metadata>Copyright (C) 2017 by original authors @ fontello.com</metadata>
<defs>
<font id="hv-custom" horiz-adv-x="1000" >
<font-face font-family="hv-custom" font-weight="400" font-stretch="normal" units-per-em="1000" ascent="850" descent="-150" />
<missing-glyph horiz-adv-x="1000" />
<glyph glyph-name="phone" unicode="&#xe800;" d="M786 158q0-15-6-39t-12-38q-11-28-68-60-52-28-103-28-15 0-30 2t-32 7-26 8-31 11-28 10q-54 20-97 47-71 44-148 120t-120 148q-27 43-46 97-2 5-10 28t-12 31-8 26-7 32-2 29q0 52 29 104 31 57 59 68 14 6 38 12t39 6q8 0 12-2 10-3 30-42 6-11 16-31t20-35 17-30q2-2 10-14t12-20 4-16q0-11-16-27t-35-31-34-30-16-25q0-5 3-13t4-11 8-14 7-10q42-77 97-132t131-97q1 0 10-6t14-8 11-5 13-2q10 0 25 16t30 34 31 35 28 16q7 0 15-4t20-12 14-10q14-8 30-17t36-20 30-17q39-19 42-29 2-4 2-12z" horiz-adv-x="785.7" />

<glyph glyph-name="425715---access-find-key-magnifier-magnifying-glass-passwor" unicode="&#xe801;" d="M423 541c-42 0-82-17-111-46-30-30-46-70-46-112 0-42 16-82 46-112s69-46 111-46 83 16 112 46c45 45 56 109 37 164l26 27c2 1 3 3 3 5v35h34c5 0 8 3 8 7v35h34c5 0 8 3 8 8v34l35 0c2 0 4 1 6 2l11 11c16 17 16 44 0 61l-35 35c-18 17-45 17-61 0l-164-164c-18 7-36 10-54 10z m101-259c-26-26-62-41-101-41s-73 15-100 41c-27 27-42 63-42 101 0 38 15 73 42 101s62 41 100 41 74-15 101-41c56-56 56-146 0-202z m128 403c11 11 28 11 39 0l35-35c11-11 11-28 0-39l-9-9-39 0c0 0 0 0 0 0-2 0-4 0-5-2-2-2-3-3-3-5v-35h-34c-5 0-8-3-8-8v-34h-34c-5 0-8-3-8-8v-39l-20-19c-7 15-17 30-30 43-13 12-27 22-43 30l159 160z m-286-233c-3 3-8 3-11 0-39-39-39-100 0-139 18-18 43-29 69-29s51 11 70 29c3 3 3 8 0 11l-128 128z m57-151c-21 0-42 8-57 24-31 31-32 78-6 110l116-115c-15-13-33-19-53-19z m431-242l-134 136c-9 9-25 9-35 0l-42-42c-9-9-10-25 0-35l135-134c2-2 3-3 6-3 2 0 4 1 5 3l65 64c3 3 3 8 0 11z m-70-58l-130 128c-4 4-3 9 0 13l42 42c2 1 4 2 6 2 3 0 5-1 7-2l128-130-53-53z m-48 404c0 38-7 75-21 108h-17c14-33 22-70 22-108 0-155-126-281-281-281s-280 126-280 281c0 154 126 280 281 280 42 0 83-9 119-26l2 1 9 10c-39 20-83 31-130 31-163 0-296-133-296-296 0-164 133-296 296-296s296 132 296 296z m-217 93c-3 0-4 0-6 2-3 3-3 8 0 11l149 145c3 3 8 3 11 0 3-4 3-8 0-11l-149-145c-1-2-3-2-5-2z" horiz-adv-x="1000" />

<glyph glyph-name="425716---audio-computer-media-music-play-player-video" unicode="&#xe802;" d="M425 570c-2 2-5 3-8 1-2-1-4-4-4-7v-234c0-3 2-6 4-7 1-1 3-1 4-1 2 0 3 1 5 1l158 118c3 1 4 4 4 6s-2 5-4 6l-159 117z m3-225v203l138-101-138-102z m406 321h-668c-14 0-25-11-25-26v-405-1-50c0-14 11-25 25-25h248c-2-21-11-89-13-111h-34c-4 0-8-3-8-7s4-8 8-8h266c5 0 8 3 8 8s-3 7-8 7h-34c-2 22-10 88-13 111h248c14 0 25 11 25 25v50 1 406c0 14-11 25-25 25z m-418-617c4 24 11 90 14 110h140c3-23 11-86 14-110h-168z m428 136c0-5-5-10-10-10h-668c-5 0-10 5-10 10v43h688v-43z m0 59h-688v397c0 5 5 11 10 11h668c5 0 10-5 10-11v-397z" horiz-adv-x="1000" />

<glyph glyph-name="425717---advertising-click-online-marketing-pay-pay-per-cli" unicode="&#xe803;" d="M855 202l-344 148c-3 2-6 1-9-2-2-2-3-5-1-8l147-344c2-3 4-5 8-5 0 0 0 0 0 0 3 0 6 3 7 5l53 139 139 53c3 1 4 4 4 7 0 3-1 6-4 7z m-149-54c-2 0-4-2-4-4l-47-124-132 307 308-132-125-47z m-206-142c-190 0-344 154-344 344s154 344 344 344 344-154 344-344c0-36-6-70-16-102l14-7c11 35 17 72 17 109 0 198-161 359-359 359s-359-161-359-359 161-359 359-359c38 0 74 6 109 17l-7 14c-32-10-66-16-102-16z m234 282c6 19 8 40 8 62 0 134-108 242-242 242s-242-108-242-242 108-242 242-242c22 0 42 3 63 8l-7 15c-18-5-36-8-56-8-125 0-227 102-227 227s102 227 227 227 227-102 227-227c0-19-3-38-7-56l14-6z m-110 47c1 5 1 10 1 15 0 69-56 125-125 125s-125-56-125-125 56-125 125-125c6 0 10 1 15 1l-6 15c-3 0-6 0-9 0-60 0-109 49-109 109s49 109 109 109 109-49 109-109c0-3 0-5 0-9l15-6z" horiz-adv-x="1000" />

<glyph glyph-name="425718---document-file-gear-page-paper-settings-text" unicode="&#xe804;" d="M676 631h-352c-4 0-8-3-8-8s4-7 8-7h352c5 0 8 3 8 7s-3 8-8 8z m0-78h-352c-4 0-8-3-8-8s4-7 8-7h352c5 0 8 3 8 7s-3 8-8 8z m0-78h-352c-4 0-8-3-8-8s4-8 8-8h352c5 0 8 4 8 8s-3 8-8 8z m0-78h-352c-4 0-8-3-8-8s4-8 8-8h352c5 0 8 3 8 8s-3 8-8 8z m-102-391h-289c-17 0-31 14-31 32v625c0 17 14 31 31 31h430c17 0 31-14 31-31v-319c0-5 3-8 8-8s8 3 8 8v319c0 25-21 46-47 46h-430c-26 0-47-21-47-46v-625c0-26 21-47 47-47h289c5 0 8 3 8 7s-3 8-8 8z m244 140l42 20-12 52-46 0-12 18 16 44-46 29-33-33-22 4-20 42-52-12 0-46-18-12-44 15-29-45 33-33-4-22-42-20 12-52 46 0 12-18-15-44 45-29 33 33 22-4 19-42 53 11 0 46 17 13 44-16 29 46-33 32 5 23z m9-57l-16-24-39 14-31-22 0-42-28-6-18 37-39 7-29-30-25 16 14 39-21 31-43 0-5 29 37 18 7 39-29 29 15 24 39-14 32 22 0 42 28 7 18-38 38-7 30 30 24-16-14-39 22-31 42 0 6-28-37-18-7-38 29-31z m-132 142c-9 0-18-1-26-4-39-14-59-57-45-96 11-30 39-50 71-50 8 0 17 2 25 5 39 14 59 57 45 96-11 30-39 49-70 49z m20-130c-6-3-13-4-20-4-25 0-48 16-56 39-11 30 5 65 35 77 7 2 14 3 21 3 25 0 47-15 55-39 11-31-5-65-35-76z" horiz-adv-x="1000" />

<glyph glyph-name="425719---box-gear-package-preferences-service-settings-tool" unicode="&#xe805;" d="M804 546l-300 163c-2 1-6 1-8 0l-300-163c-2-1-4-4-4-7v-359c0-3 2-6 4-7l300-182c2 0 2 0 4 0s3 0 4 0l300 182c2 1 4 4 4 7v359c0 3-2 6-4 7z m-304-161l-103 55 280 156 106-57-283-154z m162 221l-281-157c-2-1-4-4-4-7v-58l-59 33v58l288 160 56-29z m-162 87l89-48-281-157-94 50 286 155z m-292-170l94-50v-60c0-4 2-6 4-7l75-42c2-1 3-1 4-1 2 0 3 0 4 1 2 2 4 4 4 7v54l99-53v-359l-284 171v339z m300-510v359l284 155v-343l-284-171z m241 253l-1 41-25 4-4 12 13 30-25 28-23-22-7 4-6 32-36-4-5-34-9-5-23 15-22-33 14-27-4-15-25-11 1-41 26-4 3-12-13-29 25-29 23 22 7-3 6-33 36 5 6 34 8 5 23-15 22 33-14 27 4 14 25 11z m-33-51l-8-13-19 13-23-16-4-29-10-1-5 27-24 10-18-18-8 9 12 26-10 27-22 3 0 17 23 10 8 27-13 24 9 12 19-12 22 15 5 29 9 2 6-28 24-9 18 17 8-9-12-26 10-27 21-3 0-17-22-9-8-28 12-23z m-58 105c-3 0-6 0-10-1-20-6-33-31-30-56 2-22 17-36 35-36 3 0 6 0 10 1 20 6 33 31 30 56-3 22-17 36-35 36z m0-77c-12-4-23 6-24 23-3 17 7 35 19 39 2 1 3 1 5 1 10 0 18-10 19-24 2-17-7-35-19-39z" horiz-adv-x="1000" />

<glyph glyph-name="425720---optimization-optimize-search-search-engine-search-" unicode="&#xe806;" d="M854 68l-134 135c-9 10-25 10-35 0l-42-41c-9-10-10-25 0-35l135-135c2-1 3-2 6-2 2 0 4 1 5 2l65 64c3 4 3 9 0 12z m-70-59l-130 129c-4 4-3 10 0 14l42 41c2 2 4 2 6 2 3 0 5 0 7-2l128-130-53-54z m-48 404c0 164-133 296-296 296s-296-132-296-296c0-163 133-296 296-296s296 133 296 296z m-296-280c-155 0-281 126-281 280 0 155 126 281 281 281s280-126 280-281c0-154-125-280-280-280z m-117 276c-10 7-25 11-45 14-11 2-20 6-27 11-9 7-13 14-13 23 0 9 4 16 11 20 7 5 17 8 29 8 10 0 19-3 27-10 7-7 11-16 14-27h22c0 18-6 31-18 42-10 10-26 16-45 16-19 0-33-5-45-14-11-8-17-20-17-34 0-14 6-26 19-36 11-9 26-14 43-17 13-3 23-6 30-10 9-5 14-12 14-22 0-10-4-17-13-24-7-6-18-9-32-9-13 0-24 4-32 12-7 8-12 19-12 32h-22c0-19 6-35 18-46 12-12 28-18 48-18 21 0 36 5 49 15 12 10 18 24 18 40 1 14-6 25-21 34z m48-85h122v21h-100v60h88v21h-88v54h99v21h-121v-177z m276 156c-14 16-34 25-58 25-24 0-44-9-58-25-15-17-22-39-22-67 0-28 7-50 22-66 15-16 34-25 58-25 24 0 43 9 58 25 15 16 22 38 22 66 0 28-8 50-22 67z m-16-119c-11-13-25-20-42-20-17 0-31 7-42 20-10 13-16 30-16 52 0 21 6 39 16 52 10 13 24 19 42 19 17 0 31-6 42-19 10-13 15-31 15-52 0-22-5-39-15-52z" horiz-adv-x="1000" />

<glyph glyph-name="location" unicode="&#xe807;" d="M429 493q0 59-42 101t-101 42-101-42-42-101 42-101 101-42 101 42 42 101z m142 0q0-61-18-100l-203-432q-9-18-27-29t-37-11-38 11-26 29l-204 432q-18 39-18 100 0 118 84 202t202 84 202-84 83-202z" horiz-adv-x="571.4" />

<glyph glyph-name="help-circled" unicode="&#xe808;" d="M500 82v107q0 8-5 13t-13 5h-107q-8 0-13-5t-5-13v-107q0-8 5-13t13-5h107q8 0 13 5t5 13z m143 375q0 49-31 91t-77 65-95 23q-136 0-207-119-9-13 4-24l74-55q4-4 10-4 9 0 14 7 30 38 48 51 19 14 48 14 27 0 48-15t21-33q0-21-11-34t-38-25q-35-15-65-48t-29-70v-20q0-8 5-13t13-5h107q8 0 13 5t5 13q0 10 12 27t30 28q18 10 28 16t25 19 25 27 16 34 7 45z m214-107q0-117-57-215t-156-156-215-58-216 58-155 156-58 215 58 215 155 156 216 58 215-58 156-156 57-215z" horiz-adv-x="857.1" />

<glyph glyph-name="search" unicode="&#xe809;" d="M643 386q0 103-73 176t-177 74-177-74-73-176 73-177 177-73 177 73 73 177z m286-465q0-29-22-50t-50-21q-30 0-50 21l-191 191q-100-69-223-69-80 0-153 31t-125 84-84 125-31 153 31 152 84 126 125 84 153 31 153-31 125-84 84-126 31-152q0-123-69-223l191-191q21-21 21-51z" horiz-adv-x="928.6" />

<glyph glyph-name="425721---chemical-chemistry-creative-experiment-flask-liqui" unicode="&#xe80a;" d="M500-16c-155 0-281 126-281 282 0 121 77 227 193 266v140h-53c-4 0-7 3-7 8s3 8 7 8h61c4 0 7-4 7-8v-153c0-4-2-7-5-8-110-35-188-139-188-253 0-146 120-266 266-266s266 120 266 266c0 114-77 218-187 253-3 1-6 4-6 8v153c0 4 4 8 8 8h60c4 0 7-4 7-8s-3-8-7-8h-52v-140c116-39 192-145 192-266 0-155-125-282-281-282z m141 207c-37 0-67 30-67 67s30 66 67 66 66-29 66-66-30-67-66-67z m0 118c-28 0-51-23-51-51s23-51 51-51 50 23 50 51-22 51-50 51z m-172 62c-22 0-39 17-39 39s17 39 39 39 39-17 39-39-17-39-39-39z m0 63c-13 0-24-11-24-24s11-23 24-23 23 10 23 23-10 24-23 24z m-102-250c-26 0-47 21-47 47s21 46 47 46 47-21 47-46-21-47-47-47z m0 78c-17 0-31-14-31-31s14-32 31-32 31 14 31 32-14 31-31 31z m149 359c-26 0-47 21-47 47s21 47 47 47 47-21 47-47-22-47-47-47z m0 78c-18 0-32-14-32-31s14-31 32-31 31 14 31 31-14 31-31 31z m159-569c-56 0-113 26-169 51-36 15-68 30-100 39-4 0-7 5-6 9 1 4 6 7 9 5 34-9 69-25 103-39 79-36 160-72 233-32 3 2 8 0 11-4 2-3 0-8-4-11-25-13-50-18-77-18z m-441 86c-3 0-5 1-7 3-2 4-1 8 3 11 36 25 82 22 100 19 4-1 7-4 7-8-1-4-5-7-9-7-33 4-67-2-89-18-2 0-4 0-5 0z" horiz-adv-x="1000" />

<glyph glyph-name="425722---brainstorm-content-data-network-part-piece-related" unicode="&#xe80b;" d="M477 707h-250c-48 0-86-38-86-86v-250c0-5 3-8 7-8h110c5 0 8 3 8 8v4c0 28 22 51 50 51l2 0c27-1 49-25 49-53v-2c0-5 3-8 8-8h102c4 0 7 3 7 8v328c0 4-3 8-7 8z m-8-328h-86c-3 34-31 62-64 62l-3 0c-35 0-64-27-66-62h-94v242c0 39 32 70 71 70h242v-312z m413 309c-7 41-42 71-84 71-5 0-10 0-14-1l-247-42c-4 0-7-4-6-9l17-108c1-4 5-7 10-6l4 1c3 1 5 1 8 1 25 0 47-19 50-44 4-27-16-53-44-57l-2 0c-4-1-7-5-6-10l17-100c1-3 4-6 8-6 1 0 1 0 2 0l323 55c4 1 7 5 6 9l-42 246z m-284-294l-14 85c33 9 56 41 51 73-4 33-33 58-65 58-3 0-5 0-7 0l-16 93 239 40c4 1 8 1 12 1 34 0 63-25 69-59l40-239-309-52z m254-62h-110c-4 0-8-3-8-8v-4c0-28-22-50-50-50l-2 0c-27 0-49 25-49 53v1c0 5-3 8-8 8h-102c-4 0-7-3-7-8v-328c0-5 3-8 7-8h250c48 0 86 39 86 86v250c0 4-3 8-7 8z m-8-258c0-39-31-70-71-70h-242v312h86c3-34 31-61 64-62l3 0c35 0 64 27 66 62h94v-242z m-367 258h-329c-4 0-7-3-7-8v-250c0-47 38-86 86-86h250c4 0 7 3 7 8v110c0 4-3 7-7 7h-4c-14 0-27 6-37 16s-15 23-14 37c1 27 25 49 53 49h2c4 0 7 3 7 8v101c0 4-3 8-7 8z m-8-102c-35-3-62-31-63-64 0-18 7-35 19-49 12-11 27-19 44-20v-94h-242c-39 0-71 31-71 70v243h313v-86z" horiz-adv-x="1000" />

<glyph glyph-name="425723---brain-find-head-intelligent-marketing-mind-search" unicode="&#xe80c;" d="M857 388l-67 68c-6 6-17 6-23 0l-21-22c-6-6-6-16 0-23l68-67c2-2 3-3 6-3 2 0 3 1 5 3l32 32c3 4 3 8 0 12z m-37-27l-62 62c0 0 0 0 0 0l21 22-6 5 7-5 61-63-21-21z m-325 197c0-84 68-152 152-152s151 68 151 152-67 151-150 151-153-68-153-151z m153 136c75 0 136-61 136-136s-61-136-136-136-136 61-136 136 60 136 136 136z m49-492c-9-12-16-21-18-29-9-25-6-134-6-167h-263l-1 39c-1 51-62 51-88 51l-11 0c-3 0-5 0-8 0-4 0-7 0-9 0-12 0-23 2-31 10-12 10-12 32-12 32l2 132c0 2 0 4-2 5-2 2-4 2-6 2-10 0-19 0-28 4-9 3-15 13-14 22 4 15 14 30 24 46 12 19 26 39 32 65 7 30 6 49 0 56 3 123 104 222 248 224l18-1c6 5 12 10 18 15l-33 1c-155 0-265-109-265-243 0-2 1-4 3-6 1-1 4-15-2-43-5-22-18-41-30-59-12-17-23-34-26-52-3-17 7-35 24-40 8-3 17-4 25-4l-2-124c0-1 0-29 17-44 13-12 28-13 42-13 3 0 6 0 9 0 2 0 5 0 8 0l10 0c37 0 72-5 73-36l0-47c0-4 4-8 8-8h278c3 0 4 1 6 2s2 4 2 6c-1 40-3 148 4 169 2 6 8 14 16 25 19 26 65 67 87 125l-12 12c-20-59-68-101-87-127z" horiz-adv-x="1000" />

<glyph glyph-name="425724---browser-cloud-computer-connection-monitor-screen-w" unicode="&#xe80d;" d="M834 666h-668c-14 0-25-11-25-26v-405-1-50c0-14 11-25 25-25h248c-2-21-11-89-13-111h-34c-4 0-8-3-8-7s4-8 8-8h266c5 0 8 3 8 8s-3 7-8 7h-34c-2 22-10 88-13 111h248c14 0 25 11 25 25v50 1 406c0 14-11 25-25 25z m-418-617c4 24 11 90 14 110h140c3-23 11-86 14-110h-168z m428 136c0-5-5-10-10-10h-668c-5 0-10 5-10 10v43h688v-43z m0 59h-688v397c0 5 5 11 10 11h668c5 0 10-5 10-11v-397z m-233 279c-5 0-11 0-16-1-24 34-63 55-104 55-60 0-111-42-124-100-1 0-2 0-3 0-42 0-75-32-75-71 0-42 34-75 75-75h248c57 0 101 41 101 96-1 54-46 96-102 96z m0-177h-248c-32 0-59 27-59 60 0 32 26 56 59 56 2 0 4 0 6-1l3-1c5-1 8 3 9 6 8 55 54 94 109 94 38 0 73-19 94-51 1-3 4-4 8-3 7 1 14 2 19 2 48 0 85-36 85-82 0-45-37-80-85-80z" horiz-adv-x="1000" />

<glyph glyph-name="425725---earth-geo-global-globe-grid-search-web" unicode="&#xe80e;" d="M854 68l-134 135c-9 10-25 10-35 0l-42-41c-9-10-10-25 0-35l135-135c2-1 3-2 6-2 2 0 4 1 5 2l65 64c3 4 3 9 0 12z m-70-59l-130 129c-4 3-3 9 0 13l42 41c2 2 4 3 6 3 3 0 5-1 7-3l128-129-53-54z m-48 404c0 164-133 296-296 296-163 0-296-132-296-296 0-163 133-296 296-296 163 0 296 133 296 296z m-296-280c-155 0-281 126-281 280 0 155 126 281 281 281s280-126 280-281c0-154-125-280-280-280z m254 273h-508c-5 0-8 3-8 7s3 8 8 8h508c4 0 8-3 8-8s-4-7-8-7z m-196-246c-1 0-3 1-4 2-3 2-4 8-2 11 53 72 81 156 81 245 0 84-25 166-73 235-2 4-2 9 2 11 4 2 9 2 11-2 50-72 76-156 76-244 0-92-29-180-83-255-3-1-5-3-8-3z m-109-1c-2 0-5 1-6 4-55 74-85 162-85 255 0 88 27 173 77 245 2 4 7 5 11 3 4-3 5-7 2-11-48-70-73-152-73-236 0-90 28-175 81-246 2-3 2-9-1-11-3-3-4-3-6-3z m51 379c-65 0-127 14-185 42-4 1-6 6-4 10 1 4 6 5 10 4 56-27 116-40 178-40 63 0 123 13 179 40 4 1 9 0 10-4 2-4 0-9-4-10-57-28-119-42-184-42z m-180-309c-3 0-5 2-7 5-1 4 0 8 4 10 58 27 119 40 183 40 64 0 125-13 183-40 4-2 5-6 4-10-2-4-7-6-11-4-55 26-114 39-175 39-62 0-121-13-177-39-1 0-2-1-4-1z m180-77c-5 0-8 3-8 7v508c0 5 3 8 8 8s8-3 8-8v-508c0-4-3-7-8-7z" horiz-adv-x="1000" />

<glyph glyph-name="425731---analysis-analytics-chart-diagram-graph-report-stat" unicode="&#xe80f;" d="M723 709h-446c-21 0-39-17-39-39v-640c0-22 18-39 39-39h446c22 0 39 17 39 39v640c0 22-17 39-39 39z m23-679c0-14-10-24-23-24h-446c-13 0-23 10-23 24v640c0 14 10 24 23 24h446c13 0 23-10 23-24v-640z m-422 586h352c5 0 8 3 8 7s-3 8-8 8h-352c-4 0-8-3-8-8s4-7 8-7z m0-78h352c5 0 8 3 8 7s-3 8-8 8h-352c-4 0-8-3-8-8s4-7 8-7z m0-79h352c5 0 8 4 8 8s-3 8-8 8h-352c-4 0-8-3-8-8s4-8 8-8z m0-78h352c5 0 8 3 8 8s-3 8-8 8h-352c-4 0-8-3-8-8s4-8 8-8z m358-138c-17 0-31-14-31-31 0-6 1-11 4-15l-81-77c-4 3-10 5-16 5-3 0-6-1-8-1l-87 157c7 5 10 13 10 22 0 17-14 31-32 31s-31-14-31-31c0-6 2-12 5-16l-82-87c-5 2-10 4-15 4-17 0-31-14-31-31s14-32 31-32 31 15 31 32c0 6-1 11-4 16l82 87c4-3 9-4 14-4 4 0 6 1 8 1l88-157c-6-6-10-14-10-23 0-17 14-31 32-31s31 14 31 31c0 5-2 11-4 15l80 76c5-3 11-4 17-4 17 0 31 14 31 31s-15 32-32 32z m-364-86c-9 0-16 7-16 16s7 15 16 15 16-7 16-15-7-16-16-16z m108 145c0 9 7 16 15 16s16-7 16-16-7-15-16-15-15 7-15 15z m133-225c-9 0-16 7-16 16s7 16 16 16 15-7 15-16-7-16-15-16z m123 119c-9 0-16 7-16 16s7 15 16 15 16-7 16-15-7-16-16-16z" horiz-adv-x="1000" />

<glyph glyph-name="425726---gear-geo-global-options-preferences-settings-web" unicode="&#xe810;" d="M848 263c0 3-3 6-7 6l-51 0-17 24 17 48c1 3 0 7-3 9l-43 27c-3 3-7 2-10 0l-36-36-29 5-22 46c-2 3-6 5-9 4l-50-11c-4-1-6-4-6-8l0-50-24-18-48 18c-3 1-7 0-9-4l-28-42c-2-4-1-8 1-10l36-36-5-29-46-22c-3-2-6-6-4-9l11-50c0-4 4-6 7-6l51 0 17-24-17-48c-1-3 0-7 3-9l43-28c3-2 7-1 10 1l36 36 29-6 22-46c2-3 4-4 7-4 1 0 1 0 2 0l50 11c4 0 6 4 6 7l0 51 24 17 48-17c3-1 7 0 9 3l28 43c2 3 1 7-1 10l-36 36 5 29 47 22c3 2 5 6 3 9l-11 51z m-50-68c-2-1-3-4-4-6l-6-37c-1-3 0-5 2-7l34-35-21-33-46 17c-2 1-5 1-7-1l-31-22c-3-1-3-4-3-6l0-49-38-8-21 44c-1 3-3 4-5 5l-38 6c-1 0-1 0-1 0-3 0-4 0-6-2l-34-34-33 21 16 46c1 2 1 4 0 7l-22 31c-2 2-4 3-7 3l-48 0-9 38 44 21c2 1 4 3 5 5l6 38c1 2 0 4-2 7l-35 34 21 33 47-16c2-1 4-1 7 0l31 22c2 2 3 4 3 6l0 49 37 9 22-44c0-3 3-4 5-5l37-6c3-1 5 0 8 2l34 35 33-22-17-46c0-2 0-4 1-7l22-31c2-2 4-3 6-3l49 0 8-38-44-21z m-290-189v5l-16 10v-15c-19 1-37 3-55 6 0 1 0 1-1 1-29 39-52 81-70 125 21 4 41 8 61 10l-3 16c-21-3-42-6-63-12-23 61-35 125-37 190h151l10 16h-162c0 64 11 127 32 187 44-11 90-18 137-18v-161l16-5v166c50 0 99 7 147 20 18-53 29-109 31-166l2-5 14 13c-4 56-14 110-32 162 28 8 57 19 83 32 55-60 89-138 92-225h-15l-6-16h21c0-14-2-28-4-42l15 0c3 16 4 33 4 50 0 198-161 359-358 359 0 0-1 0-1 0-74 0-146-22-206-64-97-68-154-178-154-295 0-198 161-359 359-359l2 0c12 0 24 0 36 2l-23 14c-2 0-5-1-7-1z m233 589c-25-12-51-22-77-29-14 38-33 75-55 110 50-17 95-45 132-81z m-233 99c26-1 53-4 78-11 26-38 47-79 63-121-46-13-93-19-141-20v152z m-82-8c22 5 44 7 66 8v-152c-45 1-89 6-132 17 17 45 38 87 66 127 0-1 0-1 0 0z m-124-55c32 22 65 39 101 49-24-37-44-76-58-117-29 8-58 19-86 32 14 13 28 25 43 36z m-54-48c29-14 61-26 92-35-21-60-31-125-32-190h-152c3 84 35 164 92 225z m-92-241h152c1-67 14-132 37-194-32-8-64-20-95-34-56 60-91 140-94 228z m107-240c28 14 58 24 88 32 16-40 37-79 63-116-58 14-110 44-151 84z m393 184c-11 0-21-2-31-5-48-18-72-71-55-118 14-36 48-61 86-61 11 0 21 2 32 6 47 17 71 70 54 118-12 36-47 60-86 60z m26-164c-9-3-17-5-26-5-32 0-61 21-72 50-14 40 7 84 46 98 8 3 17 5 26 5 32 0 60-21 71-50 15-39-5-83-45-98z" horiz-adv-x="1000" />

<glyph glyph-name="425727---arrow-decision-plan-problem-solution-solve-strateg" unicode="&#xe811;" d="M227 498l61 91 91-62c2 0 3-1 5-1 2 0 4 1 6 3 2 4 1 9-2 11l-91 62 62 90c2 4 1 9-3 11-4 3-8 2-11-2l-61-91-91 62c-4 2-9 1-11-2-2-4-1-9 2-11l91-62-62-91c-2-4-1-8 3-11 1 0 3-1 4-1 3 1 5 2 7 4z m544-244l-94-57-57 94c-2 4-7 4-11 2s-4-7-2-11l57-94-94-57c-4-2-4-7-2-11 2-2 4-4 7-4 2 0 3 0 4 1l94 57 57-93c1-3 4-4 7-4 1 0 3 0 4 0 4 3 4 7 2 11l-57 94 94 57c4 2 4 7 2 11-2 6-7 6-11 4z m-21 342c-52 0-94-42-94-94s42-93 94-93 94 42 94 93-42 94-94 94z m0-172c-43 0-78 35-78 78s35 79 78 79 78-36 78-79-35-78-78-78z m-131 73c1 1 1 1 1 1 0 0 0 0 0 0 1 1 1 2 1 3 0 0 0 1 0 1 0 0 0 1 0 1 0 0 0 1 0 1 0 0 0 1 0 1 0 1-1 1-1 1 0 0 0 1 0 1 0 1-1 2-2 2 0 0 0 0 0 0l-84 53c-4 2-9 1-11-3-3-3-2-8 2-11l63-39c-88-4-157-33-206-86-74-79-78-188-77-218-48-4-86-45-86-93 0-52 42-94 94-94s93 42 93 94c0 49-38 90-86 94 0 27 3 132 73 207 47 50 113 78 198 82l-65-57c-3-3-4-7-1-11 3-3 8-4 11 0l83 70c0-1 0-1 0 0z m-228-385c0-43-35-78-78-78s-79 35-79 78 36 78 79 78 78-35 78-78z" horiz-adv-x="1000" />

<glyph glyph-name="425728---email-letter-mail-message-monitoring-report-send-r" unicode="&#xe812;" d="M820 437c0 0 0 1 0 1 0 0 0 0 0 0-1 11-14 26-21 32l-244 243c-15 15-35 23-55 23-20 0-40-8-55-23l-259-258c-6-6-6-15-6-18v-426c0-26 21-48 47-48h546c11 0 22 4 30 10 1 0 3 0 3 0 3 0 5 0 7 3 2 2 2 6 0 8 5 8 8 17 8 26l-1 427 0 0z m-20-442l-287 219 292 208v-411c0-5-2-11-5-16z m-344 707c12 12 28 18 44 18 16 0 32-6 44-18l244-243c7-7 13-14 15-19l-303-216-297 226 253 252z m-257-707c-2 5-4 11-4 16v425l292-222-288-219z m28-15c-6 0-11 1-16 4l289 221 289-221c-5-4-10-5-16-5l-546 1 0 0z m78 436c17 0 31 15 31 32 0 4-1 7-2 11l75 51c5-4 12-8 20-8 5 0 11 2 15 4l99-104c-2-5-4-11-4-17 0-17 14-31 31-31s32 14 32 31c0 3-1 6-1 8l72 41c6-7 14-10 23-10 17 0 31 14 31 32s-14 31-31 31-31-14-31-31c0-4 1-6 1-8l-73-41c-5 6-13 9-23 9-5 0-11-1-14-3l-100 104c3 5 5 10 5 17 0 17-14 31-31 31s-32-14-32-31c0-4 1-7 3-11l-75-52c-6 5-13 8-20 8-18 0-32-14-32-31s14-32 31-32z m390 55c9 0 16-7 16-15s-7-16-16-16-15 7-15 16 7 15 15 15z m-109-86c0-8-7-15-16-15s-15 7-15 15 7 16 15 16 16-7 16-16z m-156 164c8 0 15-7 15-15 0-5-1-9-4-11 0 0 0 0 0 0 0 0 0 0 0 0-3-3-7-4-11-4-9 0-16 7-16 15s7 15 16 15z m-125-86c5 0 10-2 12-7l0 0 0 0c2-2 3-5 3-8 0-9-7-16-15-16s-16 7-16 16 7 15 16 15z" horiz-adv-x="1000" />

<glyph glyph-name="425729---analytics-chart-computer-diagram-graph-scale-stati" unicode="&#xe813;" d="M834 666h-668c-14 0-25-11-25-26v-405-1-50c0-14 11-25 25-25h248c-2-21-11-89-13-111h-34c-4 0-8-3-8-7s4-8 8-8h266c5 0 8 3 8 8s-3 7-8 7h-34c-2 22-10 88-13 111h248c14 0 25 11 25 25v50 1 406c0 14-11 25-25 25z m-418-617c4 24 11 90 14 110h140c3-23 11-86 14-110h-168z m428 136c0-5-5-10-10-10h-668c-5 0-10 5-10 10v43h688v-43z m0 59h-688v397c0 5 5 11 10 11h668c5 0 10-5 10-11v-397z m-125 239c-17 0-31-14-31-31 0-4 0-6 1-9l-96-55c-6 5-14 9-23 9-5 0-10-2-14-4l-100 105c3 4 5 10 5 16 0 17-14 31-31 31s-32-14-32-31c0-4 1-8 3-12l-100-73c-6 5-12 7-20 7-17 0-31-14-31-31s14-32 31-32 32 15 32 32c0 4-1 8-3 11l100 74c6-5 12-7 20-7 5 0 11 1 15 4l100-105c-4-5-6-10-6-16 0-18 14-32 31-32s32 14 32 32c0 3-1 5-2 8l96 56c6-6 13-10 22-10 17 0 31 14 31 32s-13 31-30 31z m-438-94c-8 0-15 7-15 16s7 15 15 15 16-7 16-15-7-16-16-16z m133 125c0 9 7 16 16 16s15-7 15-16-7-16-15-16-16 8-16 16z m156-164c-8 0-15 7-15 16s7 15 15 15 16-7 16-15-7-16-16-16z m149 86c-9 0-16 7-16 16s7 15 16 15 15-7 15-15-7-16-15-16z" horiz-adv-x="1000" />

<glyph glyph-name="425732---analysis-analytics-analyze-documents-reporting-rep" unicode="&#xe814;" d="M797 671h-441c-21 0-39-17-39-39v-397c6-1 10-2 16-3v400c0 13 10 24 23 24h441c12 0 23-11 23-24v-634c0-12-10-23-23-23h-441c-12 0-23 10-23 23v141c-6 1-10 2-16 2v-143c0-21 17-38 39-38h441c21 0 38 17 38 38v634c1 22-16 39-38 39z m-395-93h349c4 0 8 3 8 8s-3 8-8 8h-349c-4 0-7-3-7-8s3-8 7-8z m0-77h349c4 0 8 3 8 8s-3 7-8 7h-349c-4 0-7-3-7-7s3-8 7-8z m0-78h349c4 0 8 4 8 8s-3 8-8 8h-349c-4 0-7-3-7-8s3-8 7-8z m0-77h349c4 0 8 3 8 8s-3 8-8 8h-349c-4 0-7-3-7-8s3-8 7-8z m-146-278v92c-6 3-11 6-16 8v-100c0-21 17-39 39-39h8v16h-8c-13 0-23 10-23 23z m0 634c0 12 10 23 23 23h441c12 0 23-10 23-23h16c0 21-18 38-39 38h-441c-21 0-39-17-39-38v-414c5-6 10-11 16-17v431z m116-525c44 3 84 20 116 47l-18-67c-1-4 1-9 5-9 1 0 2 0 2 0 4 0 7 2 8 5l26 95c0 0 0 0 0 0 0 0 0 1 0 1 0 1 0 2 0 2 0 0 0 0 0 1 0 0 0 0 0 0 0 1-1 1-1 2 0 0 0 1-1 1 0 1 0 1-1 1 0 0-1 1-1 1 0 0 0 0 0 0-1 0-1 0-1 1 0 0-1 0-1 0-1 0-2 0-3 0 0 0 0 0 0 0l-95-18c-4-1-7-5-6-9 1-4 4-7 8-7 0 0 0 0 1 0l70 14c-69-61-174-64-245-2-37 32-60 77-64 127-2 50 13 98 46 135 3 4 3 8-1 11-3 4-7 3-10 0-36-41-53-93-49-146 4-54 28-103 69-138 40-35 93-52 146-48z m282 92c-68 0-123-56-123-124s55-123 123-123c34 0 66 14 88 37 0 0 0 0 1 0 0 0 0 1 1 1 21 22 34 53 34 85 0 68-56 124-124 124z m108-116h-100v98c0 1 0 1-1 2 54-4 97-47 101-100z m-25-77l-64 62h89c-2-24-10-45-25-62z m-191 69c0 57 45 104 101 108 0-1-1-1-1-2v-106c0 0 0 0 0 0 0 0 0-1 1-2 0 0 0 0 0-1 0 0 0 0 0-1 0 0 1-1 1-2 0 0 0 0 0 0l78-75c-20-17-45-28-73-28-58 1-107 49-107 109z" horiz-adv-x="1000" />

<glyph glyph-name="425733---audio-find-media-music-note-search-sound" unicode="&#xe815;" d="M854 68l-134 135c-9 10-25 10-35 0l-42-41c-9-10-10-25 0-35l135-135c2-1 3-2 6-2 2 0 4 1 5 2l65 64c3 4 3 9 0 12z m-70-59l-130 129c-4 4-3 10 0 14l42 41c2 2 4 2 6 2 3 0 5 0 7-2l128-130-53-54z m-48 404c0 164-133 296-296 296s-296-132-296-296c0-163 133-296 296-296s296 133 296 296z m-296-280c-155 0-281 126-281 280 0 155 126 281 281 281s280-126 280-281c0-154-125-280-280-280z m128 415l-164 57c-7 2-14 1-20-3-6-4-9-11-9-18v-199c-11 13-27 21-46 21-34 0-62-28-62-62s28-62 62-62c34 0 62 27 62 62v240c0 3 0 4 3 6 1 1 4 1 6 1l164-57c3-1 5-4 5-7v-185c-11 13-28 21-46 21-34 0-62-28-62-62 0-34 27-62 62-62s61 27 61 62v226c0 10-7 18-16 21z m-239-250c-25 0-46 20-46 46s20 46 46 46 46-20 46-46-20-46-46-46z m193-43c-25 0-46 20-46 46s20 46 46 46 46-20 46-46-20-46-46-46z" horiz-adv-x="1000" />

<glyph glyph-name="425734---audience-business-customers-growth-people-team-up" unicode="&#xe816;" d="M431 435c3-12 10-22 17-29 7-5 14-8 20-8 0 0 0 0 0 0l26-55c1-3 3-6 5-9 36-43 46-45 61-44 2 0 3 0 4 0h9c1 0 2 0 4 0 1 0 3 0 4 0 13 0 25 5 57 44 2 3 3 6 5 9l26 56c7 0 14 3 21 8 8 6 14 17 18 29 4 12 5 25 2 36-1 8-4 14-8 19 1 17 4 79-32 117-25 25-60 35-107 30-1 0-43-4-66-18-2-1-3-3-5-4-22-14-65-39-52-125-14-10-16-35-9-56z m67 167c3 1 4 3 6 4 20 12 59 16 59 16 42 5 73-4 93-25 31-32 30-84 28-102-1-1-2-3-3-4-1-4 1-9 6-10 3 0 5-5 7-11 1-9 1-19-3-29-3-9-7-17-13-21-2-3-7-6-12-4-4 1-8 0-10-4l-29-62c0-2-2-4-3-5-33-40-40-39-47-39-2 0-4 0-5 0h-9c-1 0-3 0-4 0-8 0-15 0-48 39-2 1-2 3-3 5l-28 61c-2 4-6 5-10 4-4-2-9 1-12 4-6 4-10 12-13 21-7 20-2 38 3 40 0 0 1 0 1 0 4 1 7 4 6 9 0 2-2 3-3 4-10 76 25 97 46 109z m146-338l-76-106-74 106c-3 3-6 4-9 3l-97-29c-5-1-40-9-52-45-2-7-4-15-5-23-1-4 2-8 6-8 4-1 8 2 8 6 1 7 3 15 5 20 10 29 39 34 40 34 0 0 1 0 1 0l93 29 79-110c1-3 3-3 6-3 2 0 4 1 6 3l79 110 91-28c0 0 1 0 1 0 2 0 31-6 40-34 2-6 3-14 4-21 1-4 5-7 8-6 4 1 8 4 7 8-1 8-3 16-5 24-12 35-47 43-52 44l-96 29c-3 1-6 0-8-3z m-371 2l14-30c1-2 2-4 3-5 13-17 21-23 27-25 2 4 4 8 6 12-3 0-7 2-23 21-1 1-1 2-2 2l-15 34c-2 3-5 4-8 3-3-1-9 4-12 13-1 5-2 11-1 15 1 4 2 6 2 6 0 0 1 0 1 0 3 1 5 4 5 7 0 1-1 1-2 2-6 41 13 52 24 59 1 1 3 1 3 1 9 6 27 9 32 9 23 2 39-2 50-13 17-17 16-44 15-55-1-1-1-2-1-2-1-4 0-7 4-8 0 0 0 0 0 0 0 0 0 0 0 0 2-1 4-10 1-20-3-9-8-14-12-13-3 2-6 0-7-3l-10-20c6 2 11 3 16 4l0 0 2 6c10 0 18 8 22 22 3 10 2 24-3 31 1 11 2 44-19 65-14 14-34 21-60 18-1 0-24-3-37-11-1-1-2-1-4-2-12-7-36-22-29-70-3-3-5-6-6-12-1-6-1-14 2-21 4-11 12-20 22-20z m9-69l-54-16c-3-1-23-6-30-26-1-4-3-9-3-14 0 0 0 0 0 0 0 0 0 0 0-1 0 0 0-1 0-1 0 0 0-1 0-1 0 0 0 0 1 0 0 0 0 0 0 0l11 6c1 3 2 5 2 8 5 14 20 17 21 18 0 0 1 0 1 0l49 14 23-32c1 7 3 18 3 18l-17 25c-1 1-4 3-7 2z m-139 9c2-8 8-14 13-15l8-17c1-1 2-2 2-4 4-4 7-7 9-9 0 0 0 0 0 0l0 1c2 4 3 8 6 11-2 1-3 3-5 5 0 0-1 1-1 1l-9 20c-2 3-4 4-7 3-1 0-3 2-4 7-2 4-1 7 0 9 3 1 4 4 4 7 0 1-1 2-1 2-3 21 7 28 13 32l2 0c4 4 15 5 18 5 12 2 22-1 28-7 8-9 8-23 8-30 0 0 0 0 0 0-1-4 0-7 3-8 1-1 1-5 0-10-1-1-1-2-2-3l15 4c1 6 0 12-3 16 1 8 1 27-12 40-8 10-22 14-38 11-2 0-16-1-24-7l-2 0c-8-4-23-14-19-43-4-5-4-14-2-21z m-34-89c0-1 0-1 0-1 0 0 0 0 1 0 0-1 1-1 1-1 0 0 0 0 0 0l12 6c0 1 0 2 0 3 3 7 11 9 11 9 0 0 0 0 0 0l29 8 6-9 2 13c0 1 1 3 1 5l-2 2c-1 3-4 4-7 3l-32-10c-3-1-15-4-19-18-1-2-2-5-2-7 0 0 0 0 0 0-1-2-1-2-1-3z m748 483l27-49c2-4 7-6 11-3 3 2 5 7 3 11l-42 75c0 0 0 0 0 1 0 0 0 1 0 1 0 0-1 1-1 1 0 0-1 1-1 1-1 0-1 0-2 0 0 0 0 0 0 0 0 0 0 0-1 0-1 0-1 0-2 0-1 0-1 0-1 0 0 0 0 0-1 0 0 0 0 0-1 0-1 0-1 0-1 0 0 0-1-1-1-1 0 0-1-1-1-1 0 0-1-1-1-1 0 0 0 0-1-1l-41-75c-2-4-1-9 3-11 4-3 9-1 11 3l24 43c-15-133-67-225-157-281-4-3-5-7-3-11 2-3 4-4 6-4 2 0 4 0 4 1 78 49 130 121 154 221 1 0 12 39 15 80z m-16-163v-367h-725c-5 0-8-3-8-7s3-8 8-8h733c5 0 8 3 8 8v413" horiz-adv-x="1000" />

<glyph glyph-name="425735---exchange-hierarchy-management-people-profiles-repo" unicode="&#xe817;" d="M214 266l20-45c2-2 4-5 5-7 28-34 38-37 51-37 1 0 1 0 3 0h7c1 0 2 0 3 0 1 0 3 0 3 0 12 0 22 6 48 37 2 2 3 5 5 7l21 45c13 0 26 12 32 31 3 10 4 20 2 30-1 6-4 11-7 15 2 15 4 65-26 96-20 21-50 29-88 25-2 0-36-3-55-15-1-1-2-2-4-3-18-10-53-32-43-102-4-4-7-9-9-16-1-10-1-20 2-30 4-19 18-31 30-31z m27 167c1 1 3 1 4 2 16 10 48 13 48 13 34 4 59-3 75-20 24-25 23-66 23-82-1-1-3-2-3-4-1-4 1-8 6-10 1-1 4-3 4-9 2-6 1-14-1-21-4-14-13-22-18-21 0 0-1 0-1 0-4 2-8 0-10-4l-23-50c-1-1-2-3-3-4-26-32-32-31-37-31-2 0-3 0-4 0h-7c-2 0-3 0-4 0-6-1-12-1-38 31 0 2-1 3-2 4l-23 50c0 1-2 3-4 4-2 0-3 0-6 0-6-1-15 7-19 21-3 7-3 15-2 21 1 6 3 9 4 9 0 0 1 0 1 0 4 1 6 6 5 9 0 2 0 3-1 4-10 61 18 78 36 88z m348 108c6-18 19-30 31-31l21-44c1-3 3-6 4-7 26-32 36-37 48-37 1 0 2 0 3 0 1 0 2 0 3 0h7c1 0 3 0 3 0 14-1 23 2 51 37 2 2 3 4 5 7l21 44c13 0 26 13 32 31 3 11 4 21 2 30-1 6-4 12-7 16 2 15 4 65-26 96-20 21-49 29-88 25-1 0-36-3-54-16-2-1-3-1-4-2-18-10-54-32-44-102-12-9-13-29-8-47z m58 136c1 1 3 2 5 3 15 10 47 13 47 13 33 4 59-3 75-20 24-25 24-67 23-82-1-1-2-3-2-4-2-4 0-9 5-10 2-1 4-4 5-9 1-6 1-15-2-22-4-14-13-22-19-19-3 1-8 0-10-4l-23-50c-1-2-2-3-3-4-25-32-31-31-37-31-2 0-2 0-4 0h-7c-2 0-3 0-4 0-5-1-12-1-37 31-1 1-2 2-3 4l-23 49c-1 1-2 3-5 4-1 1-3 1-5 0-6-2-14 6-19 19-5 17-2 30 2 31 0 0 1 0 1 0 4 1 6 5 6 9 0 2-1 3-3 4-8 61 20 78 37 88z m251-356c0 1 0 1 0 2 0 0 0 0 0 1 0 1 0 1 0 2 0 0 0 0 0 0 0 6-2 12-3 19-11 30-39 36-44 37l-79 24c-3 1-7 0-9-3l-60-85-60 85c-2 3-5 4-9 3l-78-24c-5-1-34-8-44-37-2-6-3-13-4-19 0 0 0 0 0 0 0-1 0-1 0-2 0-1 0-1 0-1 0-1 0-1 1-2 0-1 0-1 0-1 0 0 0 0 0 0 51-57 122-90 196-90 71 0 139 32 191 90 0 0 0 0 0 0 1 0 1 1 2 1z m-192-76c-68 0-133 30-181 82 1 5 2 10 3 13 8 23 31 26 32 26 0 0 1 0 1 0l73 23 63-89c1-2 4-3 6-3 0 0 0 0 0 0 3 0 5 1 6 3l64 89 73-23c0 0 1 0 1 0 0 0 24-3 31-26 2-4 3-9 3-13-47-53-110-82-175-82z m11-56c-1 2-4 4-7 4-3 0-5-2-7-4l-45-76c-2-4-1-9 2-11 2-1 3-1 4-1 2 0 6 1 7 4l31 53v-42c0-60-49-108-108-108h-138c-5 0-8-3-8-8s3-8 8-8h138c69 0 124 56 124 124v42l32-52c2-4 7-5 11-3 4 3 5 7 2 11l-46 75z m-427 313c1-2 4-4 7-4 0 0 0 0 0 0 2 0 5 2 7 4l47 77c2 4 1 9-3 11-3 2-8 1-10-2l-33-54v52c0 59 48 108 108 108h161c5 0 8 3 8 8s-3 7-8 7h-161c-69 0-124-55-124-123v-51l-31 53c-2 3-7 4-11 2-4-2-5-7-2-11l45-77z m200-427c0 0 0 0 0 0 1 1 1 2 1 2 0 0 0 0 0 1 0 1 0 1 0 2 0 1 0 1 0 1 0 0 0 0 0 0 0 7-2 13-3 20-11 30-40 36-44 37l-79 24c-3 1-7 0-9-3l-59-86-60 86c-2 3-6 4-9 3l-79-24c-4-1-33-8-43-38-2-5-4-12-4-19 0 0 0 0 0 0 0 0 0 0 0-1 0-1 0-1 0-2s0-1 0-1c0-1 1-1 1-2 0 0 0 0 0 0 50-55 121-88 195-88 75 0 140 31 192 88z m-191-72c-68 0-134 29-181 80 1 5 2 9 3 12 8 23 31 27 32 27 0 0 1 0 1 0l73 23 63-89c1-3 4-4 6-4 0 0 0 0 0 0 2 0 5 2 6 4l64 89 73-23c0 0 1 0 1 0 0 0 24-4 31-27 2-4 2-8 3-13-47-51-108-79-175-79z" horiz-adv-x="1000" />

<glyph glyph-name="425736---media-multimedia-player-search-video-video-applica" unicode="&#xe818;" d="M854 68l-134 135c-9 10-25 10-35 0l-42-41c-9-10-10-25 0-35l135-135c2-1 3-2 6-2 2 0 4 1 5 2l65 64c3 4 3 9 0 12z m-70-59l-130 129c-4 4-3 10 0 14l42 41c2 2 4 2 6 2 3 0 5 0 7-2l128-130-53-54z m-48 404c0 164-133 296-296 296s-296-132-296-296c0-163 133-296 296-296s296 133 296 296z m-296-280c-155 0-281 126-281 280 0 155 126 281 281 281s280-126 280-281c0-154-125-280-280-280z m188 362c-2 1-5 1-8 0l-89-45v62c0 4-4 8-8 8h-251c-5 0-8-4-8-8v-211c0-5 3-8 8-8h251c4 0 8 3 8 8v62l89-45c1-1 3-1 3-1 2 0 4 1 4 2 3 1 4 4 4 6v163c0 2 0 5-3 7z m-113-186h-235v195h235v-195z m101 29l-85 42v53l85 42v-137z" horiz-adv-x="1000" />

<glyph glyph-name="425737---account-avatar-find-man-profile-search-user" unicode="&#xe819;" d="M854 68l-134 135c-9 10-25 10-35 0l-42-41c-9-10-10-25 0-35l135-135c2-1 3-2 6-2 2 0 4 1 5 2l65 64c3 4 3 9 0 12z m-70-59l-130 129c-4 4-3 10 0 14l42 41c2 2 4 2 6 2 3 0 5 0 7-2l128-130-53-54z m-48 404c0 164-133 296-296 296s-296-132-296-296c0-163 133-296 296-296s296 133 296 296z m-296-280c-155 0-281 126-281 280 0 155 126 281 281 281s280-126 280-281c0-154-125-280-280-280z m-109 331c3-9 7-18 14-23 4-3 10-6 15-6l20-41c1-3 2-5 4-7 27-32 36-35 48-35 1 0 2 0 3 0h6c1 0 2 0 4 0 0 0 2 0 3 0 11 0 20 6 44 35 2 2 3 4 5 7l19 42c13 0 25 12 30 30 5 15 4 33-5 43 2 14 4 61-25 90-18 20-46 28-82 24-2 0-34-3-52-15-1-1-2-2-4-2-16-11-51-31-40-97-11-10-13-29-7-45z m54 127c2 1 3 2 4 3 15 9 45 12 45 12 31 3 54-3 69-18 23-24 22-62 21-76-1-1-1-3-2-3-2-4 1-9 5-11 4 0 7-13 3-28-4-14-13-19-17-18-4 2-8 0-11-4l-21-46c-1-2-2-3-3-4-24-30-30-29-35-29-2 0-2 0-4 0h-6c-2 0-2 0-4 0-6 0-10-1-35 29-1 0-2 2-3 4l-21 46c-1 2-3 4-5 4-2 1-3 1-5 0-2 0-4 0-8 3-4 3-7 8-9 15-5 16-1 28 2 28 0 0 0 0 0 0 4 1 7 6 6 10 0 1-1 2-2 3-6 55 20 71 36 80z m191-276l-74 23c-4 0-7 0-9-4l-55-78-56 78c-2 4-5 4-9 4l-74-23c-4-1-31-7-41-35-2-6-3-12-4-18-1-4 2-9 6-9 5-1 9 3 9 6 1 6 2 11 3 16 7 21 28 24 30 25 0 0 0 0 0 0l69 21 59-83c1-3 4-4 6-4 0 0 0 0 0 0 2 0 5 2 6 4l60 83 68-21c0 0 1 0 1 0 1 0 22-4 30-24 1-5 2-10 3-16 1-4 5-7 9-6 3 1 7 5 6 9-1 6-3 11-4 18-7 27-34 33-39 34z" horiz-adv-x="1000" />

<glyph glyph-name="425738---film-movie-multimedia-player-record-video-video-fo" unicode="&#xe81a;" d="M813 651h-625c-26 0-47-21-47-47v-508c0-26 21-47 47-47h625c25 0 46 21 46 47v508c0 26-21 47-46 47z m-657-156h688v-297h-688v297z m32 140h625c17 0 31-14 31-31v-94h-688v94c0 17 14 31 32 31z m625-570h-625c-18 0-32 14-32 31v86h688v-86c0-17-14-31-31-31z m-561 469h73c13 0 23 10 23 23v31c0 14-10 24-23 24h-73c-13 0-23-10-23-24v-31c0-13 11-23 23-23z m-7 54c0 5 3 8 7 8h73c5 0 8-3 8-8v-31c0-5-3-8-8-8h-73c-4 0-7 3-7 8v31z m216-54h73c13 0 23 10 23 23v31c0 14-10 24-23 24h-73c-13 0-23-10-23-24v-31c0-13 10-23 23-23z m-8 54c0 5 3 8 8 8h73c4 0 7-3 7-8v-31c0-5-3-8-7-8h-73c-5 0-8 3-8 8v31z m217-54h72c14 0 24 10 24 23v31c0 14-10 24-24 24h-72c-14 0-24-10-24-24v-31c0-13 10-23 24-23z m-8 54c0 5 3 8 8 8h72c5 0 8-3 8-8v-31c0-5-3-8-8-8h-72c-5 0-8 3-8 8v31z m-336-426h-73c-13 0-23-10-23-24v-31c0-13 10-23 23-23h73c13 0 23 10 23 23v31c0 14-11 24-23 24z m8-55c0-5-3-8-8-8h-73c-5 0-8 3-8 8v31c0 5 3 8 8 8h73c5 0 8-3 8-8v-31z m200 55h-73c-13 0-23-10-23-24v-31c0-13 10-23 23-23h73c13 0 23 10 23 23v31c0 14-10 24-23 24z m7-55c0-5-3-8-7-8h-73c-5 0-8 3-8 8v31c0 5 3 8 8 8h73c4 0 7-3 7-8v-31z m201 55h-72c-14 0-24-10-24-24v-31c0-13 10-23 24-23h72c14 0 24 10 24 23v31c0 14-10 24-24 24z m8-55c0-5-3-8-8-8h-72c-5 0-8 3-8 8v31c0 5 3 8 8 8h72c5 0 8-3 8-8v-31z m-179 245l-133 98c-2 2-5 2-7 1-3-2-4-4-4-7v-196c0-3 1-5 4-7 0 0 2 0 3 0 1 0 3 0 4 1l132 98c3 1 3 4 3 6s0 5-2 6z m-130-88v164l111-82-111-82z" horiz-adv-x="1000" />

<glyph glyph-name="425739---clock-deadline-document-file-pen-time-write" unicode="&#xe81b;" d="M927 403c-1 7-4 13-10 18l-55 47c-6 5-13 7-20 6-7-1-13-4-18-9l-57-68 0 0-130-156c-1-1-2-3-2-3l-23-110c-1-3 0-7 2-9 2-3 6-4 9-4l0 0c1 0 3 0 4 1l103 42c1 1 2 1 3 2l123 148 0 0 18 22 3 3 0 0 43 51c5 5 7 12 7 19z m-269-258c-6 12-18 17-22 18l12 58 65-54-55-22z m-26 3c2-1 8-3 11-9l-14-5 3 14z m94 28l-73 61 126 151 0 0 9 10 72-61-134-161z m183 218l-39-46-72 61 38 46c2 2 5 3 7 4 3 0 6-1 8-3l55-47c3-1 4-4 4-7 1-4 0-6-1-8z m-163-263v-101c0-14-10-24-23-24h-446c-13 0-23 10-23 24v640c0 14 10 24 23 24h446c13 0 23-10 23-24v-248c0-1 0-1 0-1l16 19v230c0 22-17 39-39 39h-446c-21 0-39-17-39-39v-640c0-22 18-39 39-39h446c22 0 39 17 39 39v115l-10-12-6-2z m-70 500h-352c-4 0-8-3-8-8s4-7 8-7h352c5 0 8 3 8 7s-3 8-8 8z m0-78h-352c-4 0-8-3-8-8s4-7 8-7h352c5 0 8 3 8 7s-3 8-8 8z m0-78h-352c-4 0-8-3-8-8s4-8 8-8h352c5 0 8 4 8 8s-3 8-8 8z m8-86c0 5-3 8-8 8h-352c-4 0-8-3-8-8s4-8 8-8h352c5 0 8 3 8 8z m-376-199c0-69 56-125 125-125s125 56 125 125-56 125-125 125-125-56-125-125z m234 0c0-60-49-109-109-109s-110 49-110 109 50 109 110 109 109-49 109-109z m-117 91v-91c0-5 3-8 8-8h62c5 0 8 3 8 8s-3 8-8 8h-54v83c0 5-3 8-8 8s-8-4-8-8z" horiz-adv-x="1000" />

<glyph glyph-name="425740---http-link-search-url-web-webpages-www" unicode="&#xe81c;" d="M854 68l-134 135c-9 10-25 10-35 0l-42-41c-9-10-10-25 0-35l135-135c2-1 3-2 6-2 2 0 4 1 5 2l65 64c3 4 3 9 0 12z m-70-59l-130 129c-4 4-3 10 0 14l42 41c2 2 4 2 6 2 3 0 5 0 7-2l128-130-53-54z m-69 294c1 4 0 9-5 10-4 2-8 0-10-4-43-107-145-176-260-176-155 0-281 126-281 280 0 155 126 281 281 281 123 0 234-83 269-202 2-4 6-6 10-5 4 1 6 5 5 9-36 126-154 213-284 213-163 0-296-132-296-296 0-163 133-296 296-296 122 0 230 74 275 186z m-406 163h-18l-28-104-31 104h-19l39-131h22l27 99 26-99h22l40 131h-20l-29-104-31 104z m189 0h-18l-29-104-31 104h-20l40-131h22l26 99 28-99h22l40 131h-20l-29-104-31 104z m189 0h-18l-29-104-31 104h-20l40-131h22l26 99 27-99h23l39 131h-20l-29-104-30 104z" horiz-adv-x="1000" />

<glyph glyph-name="425741---click-finger-hand-mobile-phone-smartphone-touch" unicode="&#xe81d;" d="M838 144l-74 90c-3 3-8 4-11 0l-3-1c-5 6-12 19-16 36-8 37-23 72-44 108-9 16-48 57-68 79-4 5-8 8-9 10-10 11-23 17-37 17-6 0-13-1-19-3-42-14-91-32-103-36-17-7-24-20-27-30 0-3-1-6-1-10l-92 109c-14 16-36 19-51 6-9-7-13-16-13-26 0-9 4-18 11-26l137-175c11-14 15-19 20-26l-68 42c0 0 0 1 0 1-22 9-40 2-49-18 0 0 0 0-1-1 0-1-4-24 27-47l66-50c47-41 99-65 158-72 13-1 22-8 27-13l-1-2c-2-1-2-3-3-5s1-4 1-6l74-89c1-2 4-4 6-4 2 0 3 1 5 2l156 129c2 1 2 3 3 5s-1 4-1 6z m-228-27c-7 7-19 17-37 19-56 6-105 28-150 68l-67 50c-19 15-20 28-20 31 5 10 11 11 16 11 3 0 7-1 11-2l69-43c8-4 17-1 21 6 3 6 3 11-1 16-6 8-10 14-21 29l-139 175c-4 5-7 11-7 16 0 5 3 9 7 13 10 8 21 7 30-4l116-136c3-3 7-3 10 0 4 3 4 7 1 11-6 7-10 21-7 33 3 10 8 16 17 19 13 5 61 22 103 35 15 5 29 2 38-9 2-3 6-6 9-10 19-21 57-63 66-78 20-34 34-68 43-104 5-20 13-34 19-42l-86-71-41-33z m66-96l-64 77 1 2c0 0 0 0 0 0l140 115c0 0 0 0 0 0l3 2 64-77-144-119z m-399 651c-7 0-12-6-12-12s5-12 12-12 11 6 11 12-4 12-11 12z m70-654c19 0 34 16 34 34s-15 35-34 35-34-16-34-35 15-34 34-34z m0 52c10 0 19-8 19-18s-9-19-19-19c-10 0-19 8-19 19s9 18 19 18z m30 598h-61c-4 0-7-3-7-8s3-8 7-8h61c5 0 8 4 8 8s-4 8-8 8z m-193-556v497h325v-113c5 2 10 4 15 6v157c0 28-22 50-51 50h-253c-29 0-51-22-51-50v-618c0-28 22-50 51-50h253c29 0 51 22 51 50v57c-15 4-29 8-42 14h-298z m0 547c0 19 16 35 36 35h253c20 0 36-16 36-35v-34h-325v34z m325-618c0-19-15-35-35-35h-254c-20 0-36 16-36 35v55h325l0-55 0 0z" horiz-adv-x="1000" />

<glyph glyph-name="425742---antivirus-data-hardware-security-server-shield-vir" unicode="&#xe81e;" d="M394 639c8 0 15-7 15-16s-7-15-15-15-16 7-16 15 7 16 16 16z m-81 0c8 0 15-7 15-16s-7-15-15-15-16 7-16 15 7 16 16 16z m-82 0c9 0 16-7 16-16s-7-15-16-15-15 7-15 15 7 16 15 16z m535-8h-271c-4 0-7-3-7-8s3-7 7-7h271c4 0 7 3 7 7s-3 8-7 8z m-372-226c8 0 15-7 15-16s-7-16-15-16-16 8-16 16 7 16 16 16z m-81 0c8 0 15-7 15-16s-7-16-15-16-16 8-16 16 7 16 16 16z m-82 0c9 0 16-7 16-16s-7-16-16-16-15 8-15 16 7 16 15 16z m257-16c0-5 3-8 7-8h21c0 7 1 13 1 16h-22c-4 0-7-3-7-8z m-94-226c8 0 15-7 15-16s-7-16-15-16-16 7-16 16 7 16 16 16z m-81 0c8 0 15-7 15-16s-7-16-15-16-16 7-16 16 7 16 16 16z m-82 0c9 0 16-7 16-16s-7-16-16-16-15 7-15 16 7 16 15 16z m257-16c0-5 3-8 7-8h64c-3 5-5 10-8 16h-56c-4 0-7-3-7-8z m325 562h-625c-26 0-47-21-47-46v-79c0-25 21-46 47-46h304v-61c0-1 0-2 1-3h-305c-26 0-47-21-47-47v-78c0-26 21-47 47-47h304v-70h-304c-26 0-47-21-47-47v-78c0-26 21-47 47-47h304v-54h-344c-4 0-7-4-7-8s3-8 7-8h704c4 0 7 3 7 8s-3 8-7 8h-344v54h123c-7 5-14 10-20 16h-423c-18 0-32 14-32 31v79c0 17 14 31 32 31h340c-1 6-2 10-4 16h-16v70h7c0 6-1 11-1 16h-326c-18 0-32 14-32 31v78c0 17 14 31 32 31h421c11 6 23 11 35 16h-137c0 1 1 2 1 2v61h305c25 0 46 21 46 46v79c0 25-21 46-46 46z m31-125c0-17-14-31-31-31h-625c-18 0-32 14-32 31v79c0 17 14 31 32 31h625c17 0 31-14 31-31v-79z m-3-144c8-3 15-6 18-8-2 24-21 43-46 43h-52c12-5 23-10 35-16h17c13 0 24-8 28-19z m3-332c0-17-14-31-31-31h-18c-7-6-14-11-21-16h39c25 0 46 21 46 47v59c-4-11-10-21-15-30v-29z m-144-46c1 0 2-1 2-1 1 0 2 0 3 1 190 62 151 331 151 334-1 2-3 5-5 6-1 1-103 44-145 65-3 1-5 1-8 0-42-21-143-64-145-65-2 0-4-3-5-6 0-3-39-269 152-334z m-136 327c19 8 99 42 138 62 39-20 120-54 139-62 0-7 2-23 3-43h-283c1 20 2 36 3 43z m280-58c-1-80-21-212-142-254-120 43-140 175-141 254h283z" horiz-adv-x="1000" />

<glyph glyph-name="425746---anti-virus-anti-virus-antivirus-firewall-security-" unicode="&#xe81f;" d="M770 586c-1 2-3 5-5 6-2 1-186 79-262 117-2 1-5 1-7 0-76-37-259-116-262-117-2-1-3-3-4-6 0-2-19-120 4-252 32-176 122-295 263-343 1 0 1 0 2 0 1 0 2 0 3 0 139 47 230 165 261 341 25 132 7 252 7 254z m-270-579c-307 108-261 525-255 572 28 12 184 78 255 114 71-35 227-102 255-114 6-47 51-469-255-572z m217 485l-433 1h0c-4 0-8-3-8-8-8-304 136-406 222-440 0 0 1 0 3 0 1 0 1 0 3 0 85 32 227 132 222 439-1 5-5 8-9 8z m-216-431c-82 33-214 130-210 416l418 0c4-289-128-384-208-416z m-25 128c1-1 1-1 0 0 1-1 1-1 1-1 0 0 1 0 1-1 0 0 1 0 1-1 1 0 2-1 3-1h0 0c1 0 2 0 3 1 0 0 1 0 1 1 0 0 1 0 1 1 0 0 1 0 1 0 0 0 0 0 0 1l173 220c2 3 2 7-2 10-3 2-7 1-10-2l-167-212-96 122c-2 4-7 4-10 2-3-2-4-7-2-10l102-130z" horiz-adv-x="1000" />

<glyph glyph-name="425743---fly-racket-rocket-skyrocket-space-speed-startup" unicode="&#xe820;" d="M832 692c0 2-1 3-2 5-1 1-2 1-3 1-7 4-29 11-61 11-52 0-128-19-203-114-29-36-55-75-87-123l-9 3c-14 6-30 4-42-6l-134-113c-3-3-4-7-2-11 2-2 4-4 7-4 1 0 2 0 2 1l77 26c5 2 10 2 15-1l16-6c-6-9-12-18-18-28-1-3-1-7 1-10l27-27-32-34c-3-3-3-8 0-11 1-2 3-3 5-3 2 0 4 1 6 3l32 33 29-28c1-1 3-2 5-2 2 0 3 0 4 1 9 6 19 11 28 17l6-16c3-4 3-10 1-15l-26-76c-1-4 0-8 4-9 2-1 3-1 4-1 2 0 5 1 6 3l114 134c11 12 13 28 7 42l-4 9c51 33 87 59 123 87 149 118 111 244 104 262z m-437-311c-8 3-17 4-25 1l-39-12 104 87c7 6 17 8 26 4l6-3c-15-25-33-52-53-85l-19 8z m199-53c4-8 2-19-4-26l-88-104 13 39c3 8 2 18-1 26l-8 18c33 20 60 38 85 53l3-6z m124 114c-61-48-125-90-255-170l-24 23 103 106c3 3 3 8 0 11-3 3-8 3-11 0l-104-106-22 23c76 124 120 193 169 256 113 142 227 107 244 100 6-17 40-133-100-243z m-29 166c-14 0-26-6-37-16-9-9-14-22-15-36 0-14 4-26 15-36 9-9 21-14 35-14 14 0 26 5 36 15 10 10 15 23 16 36 0 14-5 27-15 36-9 9-22 15-35 15z m24-76c-7-7-17-11-26-11-10 0-18 4-24 10-7 7-11 16-11 25 0 10 4 19 11 25 7 7 17 11 26 11 9 0 18-4 24-10 7-6 10-16 10-25 0-9-3-18-10-25z m-294-276l-81-115c0-1-1-2-1-2-16-6-28-19-33-34-12 1-23-1-34-4-4 15-12 29-24 39 17 13 28 34 28 57 0 1 0 2 0 3l116 84c3 3 4 8 1 11-2 3-7 4-10 2l-110-79c-8 28-33 49-63 49-36 0-66-31-66-69 0-15 5-30 14-42-31-14-52-45-52-80 0-49 38-89 85-89 12 0 24 3 34 7 14-25 42-42 74-42 45 0 83 35 83 77 0 3 0 6-1 9 22 8 37 28 37 51 0 30-25 55-57 55 0 0 0 0-1 0l73 104c3 4 2 9-1 11-4 2-9 1-11-3z m-19-168c0-18-13-33-32-37-2-1-4-2-5-3s-1-4 0-7c0-4 1-8 1-13 0-34-30-61-67-61-28 0-53 17-63 41-1 2-3 4-5 5-1 0-2 0-2 0-2 0-3 0-4 0-10-7-22-10-34-10-38 0-69 33-69 73 0 32 21 61 50 69 3 1 5 3 6 6 1 2 0 5-3 8-10 10-16 24-16 39 0 30 23 54 50 54s50-24 50-54c0-21-12-40-29-49-2-1-4-4-5-6 0-3 1-5 4-7 14-11 25-27 29-46 0-2 1-5 3-6 3 0 5-1 7 0 10 4 19 7 29 7 4 0 8 0 12-1 4-1 9 2 9 6 3 19 20 33 41 33 24-2 43-19 43-41z" horiz-adv-x="1000" />

<glyph glyph-name="425744---click-finger-hand-point-press-push-touch" unicode="&#xe821;" d="M858 153l-74 90c-3 3-7 4-11 1l-2-2c-5 6-12 19-15 36-9 37-24 73-45 108-10 16-48 58-68 80-4 4-7 7-9 10-10 11-22 16-37 16-6 0-13-1-19-3-42-14-90-31-103-36-17-7-24-19-27-30 0-3-1-6-1-10l-92 109c-8 9-18 15-29 15-8 0-17-3-24-9-8-7-12-15-12-26 0-8 4-18 10-25l138-175c10-14 14-19 20-27l-67 42c0 0-1 1-1 1-22 9-40 2-49-17 0-1 0-1 0-2 0-1-4-24 26-47l67-50c47-41 98-64 157-71 13-2 22-9 28-14l-2-1c-3-3-4-7-1-10l74-90c1-2 3-3 5-3 0 0 1 0 1 0 2 0 4 0 5 1l156 129c2 2 2 3 3 5s-1 4-2 5z m-266-8c-55 7-104 28-149 68l-66 51c-20 15-21 28-21 31 5 11 11 11 16 11 3 0 8 0 12-2l68-43c8-4 18-1 21 6 3 6 3 11-1 17-6 7-9 13-21 28l-138 174c-5 5-7 11-7 16 0 6 2 10 7 14 10 7 21 6 29-4l116-136c3-3 8-4 11-1 3 3 4 8 1 11-7 7-11 21-7 34 2 9 7 15 17 18 12 5 60 22 102 35 15 5 29 2 38-9 2-2 6-5 10-10 18-20 57-63 65-77 21-35 35-68 43-104 5-21 14-35 19-42l-126-105c-8 7-20 17-39 19z m104-114l-63 77 1 1c0 0 0 0 0 0l140 115c0 0 0 0 0 0l3 3 64-78-145-118z m-443 555c31 26 78 21 104-10 8-10 13-20 15-31l18-22c1 22-6 45-20 63-32 38-89 44-127 12-38-31-44-88-12-126 15-20 38-31 60-32l-17 20c-11 5-23 12-32 23-25 31-20 77 11 103z m-58-142c-47 58-39 143 19 190s143 39 190-19c32-39 38-91 21-135l6-8c1 1 2 1 3 2 1 2 3 3 4 3 2 1 3 2 4 3 17 47 9 103-26 145-53 64-148 73-213 21s-73-148-21-213c39-47 100-65 156-50l-11 14c-47-9-99 7-132 47z" horiz-adv-x="1000" />

<glyph glyph-name="425745---facebook-finger-hand-like-thumb-thumbs-up-up" unicode="&#xe822;" d="M842 369c-14 16-33 26-54 26l-99 0c-13 2-17 10-22 20-1 4-4 8-6 12-5 8-7 18-4 26l52 138c7 18 6 36-2 53-9 19-27 32-41 36-1 0-2 0-3 0-13 0-37-35-56-65l-56-93c-35-60-70-79-103-96-20-10-40-21-60-40-17-17-40-20-50-21v8c0 4-4 8-8 8h-182c-4 0-7-4-7-8v-317c0-4 3-8 7-8h182c4 0 8 4 8 8v10c11-1 36-3 64-18 44-21 95-24 174-27 0 0 0 0 0 0 0 0 1 0 1 0l171 13c29 3 64 25 69 59l41 218c4 20-2 41-16 58z m-520-306h-166v301h166v-8-283-10z m521 250l-41-218c-4-28-36-43-56-46l-170-12c-77 2-126 5-167 26-31 14-58 18-71 18v267c13 1 40 5 61 26 18 17 36 28 57 38 35 19 71 38 109 102l57 92c26 43 39 54 43 57 10-4 22-13 29-26 6-13 6-26 1-41l-52-137c-5-14-3-28 5-41 2-2 4-6 5-9 6-11 12-27 35-30 0 0 0 0 0 0l99 0c16 0 32-7 43-20 11-13 16-29 13-46z" horiz-adv-x="1000" />

<glyph glyph-name="425747---loud-mic-microphone-speak-speech-talk-voice" unicode="&#xe823;" d="M500 183c69 0 125 53 125 119v289c0 65-56 118-125 118s-125-53-125-118v-289c0-66 56-119 125-119z m-109 408c0 57 49 103 109 103s109-46 109-103v-289c0-57-49-104-109-104s-109 47-109 104c0 0 0 289 0 289z m279-183c-4 0-7-3-7-8v-94c0-90-73-164-163-164s-162 74-162 164v94c0 5-4 8-8 8-5 0-8-3-8-8v-94c0-94 72-171 162-179v-121h-109c-5 0-8-3-8-8s3-7 8-7h234c5 0 8 3 8 7s-3 8-8 8h-109v120c98 0 178 80 178 179v95c0 4-3 8-8 8z" horiz-adv-x="1000" />

<glyph glyph-name="425748---browser-key-lock-locked-password-private-security" unicode="&#xe824;" d="M813 651h-625c-26 0-47-21-47-47v-508c0-26 21-47 47-47h625c25 0 46 21 46 47v508c0 26-21 47-46 47z m-625-16h625c17 0 31-14 31-31v-45h-688v45c0 17 14 31 32 31z m625-570h-625c-18 0-32 14-32 31v448h688v-448c0-17-14-31-31-31z m-196 269h-11v51c0 58-48 106-106 106s-105-48-105-106v-51h-12c-5 0-8-3-8-7v-159c0-24 20-45 45-45h161c25 0 45 21 45 45v159c-1 4-4 7-9 7z m-207 51c0 49 41 90 90 90s90-41 90-90v-51h-180v51z m199-217c0-16-13-29-29-29h-160c-16 0-29 13-29 29v151h218v-151z m-117 69v-28c0-4 3-7 8-7 5 0 8 3 8 7v28c13 3 23 15 23 30 0 17-14 31-31 31s-31-14-31-31c0-15 10-27 23-30z m8 45c9 0 16-7 16-16s-7-15-16-15-16 7-16 15 7 16 16 16z m-308 302c-6 0-11 6-11 12s5 12 11 12 12-6 12-12-6-12-12-12z m0 16c-2 0-4-2-4-4s2-4 4-4 4 2 4 4-2 4-4 4z m42-16c-6 0-11 6-11 12s4 12 11 12 12-6 12-12-5-12-12-12z m0 16c-2 0-3-2-3-4s1-4 3-4 4 2 4 4-2 4-4 4z m43-16c-7 0-12 6-12 12s5 12 12 12 11-6 11-12-5-12-11-12z m0 16c-3 0-4-2-4-4s1-4 4-4 4 2 4 4-3 4-4 4z" horiz-adv-x="1000" />

<glyph glyph-name="425749---anti-virus-data-firewall-hardware-security-server-" unicode="&#xe825;" d="M394 639c8 0 15-7 15-16s-7-15-15-15-16 7-16 15 7 16 16 16z m-81 0c8 0 15-7 15-16s-7-15-15-15-16 7-16 15 7 16 16 16z m-82 0c9 0 16-7 16-16s-7-15-16-15-15 7-15 15 7 16 15 16z m535-8h-271c-4 0-7-3-7-8s3-7 7-7h271c4 0 7 3 7 7s-3 8-7 8z m-372-226c8 0 15-7 15-16s-7-16-15-16-16 8-16 16 7 16 16 16z m-81 0c8 0 15-7 15-16s-7-16-15-16-16 8-16 16 7 16 16 16z m-82 0c9 0 16-7 16-16s-7-16-16-16-15 8-15 16 7 16 15 16z m257-16c0-5 3-8 7-8h21c0 7 1 13 1 16h-22c-4 0-7-3-7-8z m-94-226c8 0 15-7 15-16s-7-16-15-16-16 7-16 16 7 16 16 16z m-81 0c8 0 15-7 15-16s-7-16-15-16-16 7-16 16 7 16 16 16z m-82 0c9 0 16-7 16-16s-7-16-16-16-15 7-15 16 7 16 15 16z m264-8c-4 0-7-3-7-8s3-8 7-8h64c-3 5-5 10-8 16h-56z m-307-78c-18 0-32 14-32 31v78c0 17 14 31 32 31h340c-1 6-2 10-4 16h-16v70h7c0 6-1 11-1 16h-326c-18 0-32 14-32 31v78c0 17 14 31 32 31h421c11 6 23 11 35 16h-137c0 1 1 2 1 2v61h305c25 0 46 21 46 46v79c0 25-21 46-46 46h-625c-26 0-47-21-47-46v-79c0-25 21-46 47-46h304v-61c0-1 0-2 1-3h-305c-26 0-47-21-47-47v-78c0-26 21-47 47-47h304v-70h-304c-26 0-47-21-47-47v-78c0-26 21-47 47-47h304v-54h-344c-4 0-7-4-7-8s3-8 7-8h704c4 0 7 3 7 8s-3 8-7 8h-344v54h123c-7 5-14 10-20 16h-423z m0 476c-18 0-32 14-32 31v79c0 17 14 31 32 31h625c17 0 31-14 31-31v-79c0-17-14-31-31-31h-625z m625-94c13 0 24-8 28-19 8-3 15-6 18-8-2 24-21 43-46 43h-52c12-5 23-10 35-16h17z m31-351c0-17-14-31-31-31h-18c-7-6-14-11-21-16h39c25 0 46 21 46 47v59c-4-11-10-21-15-30v-29z m-142-47c0 0-1 0-2 1-191 65-151 331-151 334 1 2 3 5 5 6 1 1 103 44 145 65 3 1 5 1 7 0 42-21 144-64 146-65 2 0 4-3 4-6 1-2 39-271-150-334-2-1-3-1-4-1z m-138 328c-4-33-25-254 138-312 163 57 143 279 139 312-19 8-100 42-139 62-39-20-119-54-138-62z m146-320l1 301c0 5-3 8-8 8 0 0 0 0 0 0-5 0-8-3-8-8l0-301c0-5 3-8 7-8 0 0 0 0 0 0 5 0 8 3 8 8z" horiz-adv-x="1000" />

<glyph glyph-name="425750---email-letter-mail-message-security-spam-virus" unicode="&#xe826;" d="M851 331c-1 1-103 44-145 65-3 1-5 1-8 0-42-21-143-64-145-65-2 0-4-3-5-6 0-2-40-269 151-334 1 0 2-1 3-1 0 0 1 0 2 1 190 62 152 331 151 334 1 3-2 6-4 6z m-149 50c39-20 120-54 139-62 0-7 2-23 3-43h-283c1 20 2 36 3 43 19 8 99 42 138 62z m0-374c-120 43-140 174-141 253h283c-1-79-21-212-142-253z m111 624h-625c-26 0-47-21-47-47v-468c0-26 21-47 47-47h371c-3 4-5 10-8 15h-363c-7 0-13 3-18 6l251 249 17-17c17-16 39-25 61-25 0 0 0 0 0 0 6 0 10 1 15 1 1 7 1 12 2 17-6-2-11-2-17-2 0 0 0 0 0 0-18 0-36 7-50 20l-278 278c5 3 10 5 17 5h625c5 0 10-2 14-4l-224-225c13 5 27 11 40 18l196 197c3-5 5-11 5-17v-216c7-3 12-6 15-7v222c0 26-21 47-46 47z m-403-281l-251-248c-1 4-3 9-3 14v468c0 6 2 11 4 15l250-249z" horiz-adv-x="1000" />

<glyph glyph-name="425751---eco-ecology-green-leaf-nature-organic-search" unicode="&#xe827;" d="M854 68l-134 135c-9 10-25 10-35 0l-42-41c-9-10-10-25 0-35l135-135c2-1 3-2 6-2 2 0 4 1 5 2l65 64c3 4 3 9 0 12z m-70-59l-130 129c-4 4-3 10 0 14l42 41c2 2 4 2 6 2 3 0 5 0 7-2l128-130-53-54z m-48 404c0 56-16 107-42 152-1-9-2-19-3-28 19-38 29-79 29-124 0-154-125-280-280-280s-281 126-281 280 126 281 281 281c54 0 105-16 148-42 4 4 8 7 12 11-46 29-101 46-160 46-163 0-296-132-296-296 0-163 133-296 296-296s296 133 296 296z m-455 55c-20-41-18-86 3-124 3-4 7-5 11-3 4 2 5 7 3 11-19 33-20 73-2 109 24 49 78 83 149 92 128 17 180 63 204 95 0-81-8-228-63-310-1-2-2-4-3-5-32-45-84-72-138-72-46 0-86 16-116 46 17 51 58 93 113 109 85 18 137 61 158 94 2 4 2 9-2 11-4 2-9 2-11-2-20-31-68-71-149-88 0 0 0 0 0 0 0 0 0 0 0 0-98-29-154-131-126-229 1-4 4-6 8-6 0 0 1 0 2 0 4 2 6 6 5 10-7 28-8 57-2 84 33-29 74-45 120-45 61 0 117 30 152 79 1 2 2 3 3 5 65 95 68 272 66 344 0 3-3 6-6 7-3 1-7-1-8-3-15-25-54-89-207-109-79-9-137-46-164-100z" horiz-adv-x="1000" />

<glyph glyph-name="425752---cloud-gear-marketing-options-preferences-settings-" unicode="&#xe828;" d="M238 163c-65 0-121 57-121 125 0 67 53 119 121 119 6 0 11-1 18-1 4-1 7 2 8 6 17 108 108 186 217 186 76 0 146-39 186-103 2-4 6-4 9-4 13 4 26 5 37 5 94 0 171-76 171-169 0-21-5-43-13-62l17 0c7 19 11 41 11 62 0 102-83 185-186 185-11 0-22-2-35-4-44 66-116 105-196 105-114 0-210-80-231-192-4 1-9 1-13 1-76 0-136-59-136-134 0-76 62-141 136-141h275l-3 16h-272z m650 65c0 4-4 6-7 6l-44 0-14 21 15 41c1 3 0 7-4 10l-37 24c-3 2-7 1-9-1l-32-31-24 4-19 40c-1 3-5 5-8 4l-44-9c-4-1-6-4-6-8l0-44-21-14-41 15c-3 2-7 0-9-3l-25-38c-2-3-1-7 1-9l31-31-4-24-40-19c-3-2-6-6-5-9l10-44c0-3 4-6 7-6l44 0 14-20-15-42c-1-3 0-7 4-9l37-24c3-2 7-2 9 1l32 31 24-5 19-40c1-3 4-4 7-4 0 0 0 0 1 0l44 9c4 1 6 4 6 8l0 44 21 14 41-15c3-2 7 0 9 3l25 37c2 4 1 7-1 10l-32 31 5 24 40 19c3 2 5 6 5 9l-10 44z m-44-58c-3-1-4-4-5-6l-5-33c-1-2 0-4 2-7l30-29-18-28-39 14c-2 1-4 1-7 0l-27-19c-2-2-3-4-3-6l0-42-31-7-18 38c-1 2-3 3-6 4l-33 6c0 0 0 0-1 0-2 0-4-1-6-3l-29-29-28 17 14 39c1 2 1 5 0 7l-19 27c-2 3-4 3-6 3l-42 0-7 32 38 18c2 0 4 3 4 5l6 33c1 2 0 5-2 7l-30 30 17 27 39-14c2-1 5-1 7 1l27 18c3 2 4 4 4 7l0 41 31 7 18-37c1-3 3-4 5-5l33-5c2-1 5 0 7 2l30 30 27-18-14-39c-1-2-1-4 1-7l19-27c1-2 4-3 6-3l41 0 7-31-37-18z m-123 79c-9 0-19-1-27-4-42-16-63-62-49-104 12-32 43-53 76-53 10 0 19 1 27 4 43 16 64 62 49 104-12 31-42 53-76 53z m59-108c-7-16-21-28-37-34-7-2-15-4-23-4-27 0-51 17-61 43-6 17-5 35 3 50 7 16 20 28 36 34 8 2 15 4 23 4 27 0 52-18 61-43 6-17 6-35-2-50z" horiz-adv-x="1000" />

<glyph glyph-name="425753---alert-mobile-mobile-app-mobile-marketing-notificat" unicode="&#xe829;" d="M688 681c-1 3-4 4-6 5-2 1-5 0-7-2l-193-162-21 1c-2 0-5-1-6-3-2-3-2-5-1-7l25-69c1-3 3-4 5-5 1 0 2 0 2 0 2 0 4 1 5 2l16 15 34 0v-13c0-12 10-23 23-23h42c13 0 24 10 24 23v13l130 0c3 0 5 1 6 3 2 2 2 4 1 7l-79 215z m-75-240c0-3-3-7-7-7h-43c-4 0-7 3-7 7v13l57 0c0 0 0-13 0-13z m8 29c0 0 0 0 0 0 0 0 0 0 0 0l-117 0c0 0-1 0-1 0-1 0-1 0-1 0-1 0-1-1-2-1 0 0-1 0-1-1l-9-8-17 47 11-1c0 0 1 0 1 0 1 0 1 0 2 0 0 0 1 0 1 1 0 0 1 1 1 1l187 157 71-195-126 0z m115 170c-4 1-9 0-10-4-2-4 0-9 4-10 16-8 29-21 35-38 6-18 5-36-2-52-2-4 0-9 3-10 1-1 3-1 4-1 3 0 5 2 7 5 9 20 10 43 3 64s-24 37-44 46z m16 34c-4 2-9 0-11-4-1-4 0-8 4-10 53-24 76-87 51-140-1-4 0-8 4-10 1-1 2-1 3-1 3 0 6 2 7 5 28 60 3 132-58 160z m-333-14c0-6 5-12 12-12s11 6 11 12-5 12-11 12-12-6-12-12z m81-642c19 0 34 16 34 34s-15 35-34 35-34-16-34-35 15-34 34-34z m0 52c10 0 19-8 19-18s-9-19-19-19-19 8-19 19 9 18 19 18z m-30 598c-5 0-8-3-8-8s3-8 8-8h61c4 0 7 4 7 8s-3 8-7 8h-61z m193-556h-325v497h200l18 16h-218v34c0 19 15 35 35 35h254c3 0 6-1 9-2l14 12c-7 3-15 5-23 5h-254c-28 0-51-22-51-50v-618c0-28 23-50 51-50h254c28 0 50 22 50 50v382l-15 0v-311z m0-71c0-19-16-35-36-35h-254c-20 0-35 16-35 35v55h324v-55z m187 578c-15 40-44 72-82 90-4 1-9 0-10-4-2-4 0-9 4-10 34-17 61-45 74-81s12-75-5-109c-1-4 0-9 4-10 1-1 3-1 3-1 3 0 6 1 7 4 18 38 19 81 5 121z" horiz-adv-x="1000" />

<glyph glyph-name="425754---eye-lock-observation-protection-secure-security-vi" unicode="&#xe82a;" d="M503 175c-1 0-2 0-3 0 0 0 0 0 0 0-3 0-6 0-9 0-93 5-167 81-167 175 0 93 74 170 166 175 3 0 6 0 10 0 0 0 0 0 0 0 1 0 2 0 2 0 3 0 5 0 7 0 70-4 129-48 154-109 4 2 9 4 14 5-15 38-43 70-78 92 68-17 132-50 185-99 24-21 72-73 72-73 0 1 1 3 2 4 0 0 0 0 0 0 0 0 1 0 1 1 0 1 0 1 0 2 0 0 0 0 0 1 0 1 0 1 0 2 0 1 0 1 0 1 0 1 0 1-1 2 0 0 0 0 0 0-82 114-211 184-347 187-2 0-5 0-8 0-1 0-1 0-2 0 0 0 0 0 0 0-4 0-7 0-11 0-138-3-267-72-348-186-1-1-1-3-1-4 0 0 0-1 0-1 0-1 0-1 0-2 0-1 0-2 1-3 79-115 206-182 347-186 3 0 7 0 10 0 0 0 0 0 1 0 1 0 2 0 2 0 3 0 6 0 8 0 14 0 28 2 42 4v20c-14-4-28-7-43-8-1 0-3 0-6 0z m-345 175c60 82 147 140 243 163-55-33-92-93-92-163 0-70 37-131 93-165-98 23-184 80-244 165z m428 0c0 48-38 86-86 86s-86-38-86-86 38-86 86-86c34 0 64 20 77 49 2 8 4 16 7 23 1 5 2 9 2 14z m-86-70c-39 0-70 31-70 70s31 70 70 70 70-31 70-70-31-70-70-70z m352-57h-14v58c0 64-53 116-117 116s-116-52-116-116v-58h-14c-5 0-8-3-8-7v-177c0-26 22-48 49-48h178c28 0 49 22 49 48v177c0 4-3 7-7 7z m-232 58c0 55 46 100 101 100 56 0 101-45 101-100v-58h-202v58z m224-242c0-18-15-33-34-33h-178c-19 0-34 15-34 33v169h246c0 0 0-169 0-169z m-123 144c-19 0-33-15-33-34 0-15 10-29 25-33v-30c0-5 3-8 8-8s8 3 8 8v30c15 4 26 17 26 32 1 19-15 35-34 35z m0-52c-10 0-18 7-18 17s8 18 18 18c10 0 18-7 18-18s-8-17-18-17z" horiz-adv-x="1000" />

<glyph glyph-name="425755---lock-password-protection-safe-search-secure-securi" unicode="&#xe82b;" d="M854 68l-134 135c-9 10-25 10-35 0l-42-41c-9-10-10-25 0-35l135-135c2-1 3-2 6-2 2 0 4 1 5 2l65 64c3 4 3 9 0 12z m-70-59l-130 129c-4 4-3 10 0 14l42 41c2 2 4 2 6 2 3 0 5 0 7-2l128-130-53-54z m-48 404c0 164-133 296-296 296s-296-132-296-296c0-163 133-296 296-296s296 133 296 296z m-296-280c-155 0-281 126-281 280s126 281 281 281 280-126 280-281-125-280-280-280z m130 325h-14v57c0 64-52 116-116 116s-117-52-117-116v-57h-14c-4 0-7-3-7-8v-177c0-26 21-48 49-48h178c27 0 49 22 49 48v177c0 4-4 8-8 8z m-231 57c0 55 45 101 101 101s101-46 101-101v-57h-202v57z m224-242c0-17-15-32-34-32h-178c-19 0-34 15-34 32v169h246l0-169 0 0z m-123 144c-19 0-34-15-34-33 0-16 11-30 26-33v-31c0-4 3-7 8-7s8 3 8 7v30c15 4 25 17 25 33 0 19-14 34-33 34z m0-52c-10 0-18 8-18 18s8 18 18 18 18-8 18-18-8-18-18-18z" horiz-adv-x="1000" />

<glyph glyph-name="425756---bookmark-browser-favorite-favourite-page-web-web-p" unicode="&#xe82c;" d="M813 651h-625c-26 0-47-21-47-47v-508c0-26 21-47 47-47h625c25 0 46 21 46 47v508c0 26-21 47-46 47z m-625-16h625c17 0 31-14 31-31v-45h-88c-2 0-4 0-5-2s-3-3-3-5v-260l-63 64c-3 3-8 3-11 0l-63-64v260c0 2-1 4-2 5s-3 2-6 2h-447v45c0 17 14 31 32 31z m625-570h-625c-18 0-32 14-32 31v448h439v-271c0-3 2-6 5-7 3-1 6 0 9 2l71 71 71-71c1-2 3-2 5-2 1 0 3 0 3 0 4 2 5 4 5 7v271h80v-448c0-17-14-31-31-31z m-621 519c-6 0-11 6-11 12s5 12 11 12 12-6 12-12-6-12-12-12z m0 16c-2 0-4-2-4-4s2-4 4-4 4 2 4 4-2 4-4 4z m42-16c-6 0-11 6-11 12s4 12 11 12 12-6 12-12-5-12-12-12z m0 16c-2 0-3-2-3-4s1-4 3-4 4 2 4 4-2 4-4 4z m43-16c-7 0-12 6-12 12s5 12 12 12 11-6 11-12-5-12-11-12z m0 16c-3 0-4-2-4-4s1-4 4-4 4 2 4 4-3 4-4 4z" horiz-adv-x="1000" />

<glyph glyph-name="425757---achievement-award-badge-best-favorite-medal-trophy" unicode="&#xe82d;" d="M515 405c-2 4-6 8-11 8s-9-4-11-8l-37-107-112-2c-5 0-10-3-11-8-2-4 0-10 4-12l90-68-33-108c-1-4-1-7 1-10 4-5 11-6 16-2l92 64 92-64c3-2 4-3 7-3 4 0 7 2 9 5 2 3 3 7 2 10l-33 108 90 68c3 3 5 8 3 12s-5 8-10 8l-113 2-35 107z m55-187c-4-3-6-8-4-12l29-100-85 60c-2 1-4 2-6 2s-5-1-6-2l-85-60 29 100c2 4 0 9-4 12l-82 63 103 2c5 0 10 3 11 8l34 98 34-98c2-5 7-8 11-8l104-2-83-63z m282 491c-4 2-9 0-11-3l-169-299c-44 42-102 68-168 68-12 0-23-1-34-2l127 225c2 4 1 8-3 11-4 2-9 0-11-3l-83-147-83 147c-2 3-7 4-11 3-4-3-5-7-3-11l88-155-40-70c-1-1-1-3-1-3-46-11-87-35-119-67l-172 303c-2 4-7 5-11 3s-4-7-3-11l175-308c-36-42-58-98-58-157 0-134 108-242 242-242s242 108 242 242c0 62-23 119-62 162l171 303c1 4 1 8-3 11z m-348-703c-125 0-227 102-227 227s102 226 227 226 227-101 227-226-102-227-227-227z" horiz-adv-x="1000" />

<glyph glyph-name="425758---clock-communication-email-mail-message-reminder-ti" unicode="&#xe82e;" d="M676 366c-102 0-184-82-184-184s82-184 184-184 183 83 183 184-82 184-183 184z m0-352c-93 0-168 75-168 168s75 168 168 168 168-75 168-168-75-168-168-168z m-488 70c-7 0-13 3-18 6l251 249 17-17c14-13 29-21 47-24 3 4 6 10 10 15-17 0-33 7-45 20l-279 278c5 3 10 5 17 5h625c5 0 10-2 14-4l-215-217c9 3 19 5 29 7l198 199c3-5 5-10 5-17v-256c5-6 11-13 15-20v276c0 26-21 47-46 47h-625c-26 0-47-21-47-47v-468c0-26 21-47 47-47h296c-3 5-5 10-8 15h-288z m-32 32v468c0 6 2 11 4 15l250-249-251-248c-1 4-3 9-3 14z m516 199c5 0 8-3 8-8v-117h97c5 0 8-3 8-8s-3-8-8-8h-113v133c0 5 3 8 8 8z" horiz-adv-x="1000" />

<glyph glyph-name="425762---find-racket-researcher-rocket-rocket-science-searc" unicode="&#xe82f;" d="M854 68l-134 135c-9 10-25 10-35 0l-42-41c-9-10-10-25 0-35l135-135c2-1 3-2 6-2 2 0 4 1 5 2l65 64c3 4 3 9 0 12z m-70-59l-130 129c-4 4-3 10 0 14l42 41c2 2 4 2 6 2 3 0 5 0 7-2l128-130-53-54z m-48 404c0 23-2 45-8 67-4-6-8-11-12-17 3-16 4-32 4-50 0-154-125-280-280-280-56 0-106 16-150 44l50 71c2 4 1 8-2 11-4 2-8 1-11-2l-50-71c-18 13-36 30-51 47l71 52c3 3 4 8 1 11-2 3-7 4-10 2l-72-53c-35 46-57 105-57 168 0 155 126 281 281 281 26 0 51-4 76-10 5 4 11 7 15 11-29 10-59 15-91 15-163 0-296-133-296-296 0-69 24-133 64-183 0 0 0 0 0 0 0 0 0 0 0 0 54-68 137-112 231-112 164-2 297 131 297 294z m-266 182c-29-36-54-75-86-123l-8 3c-14 6-31 4-42-6l-135-113c-3-3-4-7-1-11 1-2 4-4 7-4 1 0 1 0 2 1l77 26c4 2 6 5 4 10-1 4-5 6-10 5l-38-13 104 87c7 6 17 8 26 4l6-3c-23-35-48-76-79-126-2-4-1-9 2-11 4-2 9-1 11 2 79 129 122 198 173 262 112 142 226 106 244 100 6-17 39-133-100-243-62-49-128-90-261-173-4-3-5-7-3-11 2-2 4-4 7-4 2 0 3 0 4 2 51 31 92 57 126 78l3-6c4-8 3-19-4-26l-88-104 12 39c2 4 0 8-4 10-4 1-9-1-10-5l-26-76c-2-4 0-8 4-10 1 0 2 0 4 0 2 0 4 0 6 3l114 134c10 12 12 28 6 42l-4 9c51 33 88 58 124 87 151 118 110 246 104 263 0 1-1 2-2 3-1 1-2 2-5 3-16 6-142 48-264-105z m162-74c9 10 15 23 16 36 0 14-5 27-15 36-10 9-22 15-35 15-14 0-27-6-37-16-9-9-15-22-16-36 0-14 5-26 15-36 10-9 22-14 35-14 14 0 27 5 37 15z m-71 35c0 10 4 19 11 25 7 7 16 11 26 11 9 0 18-4 24-10 6-6 10-16 10-25 0-9-4-19-11-25-7-7-16-11-26-11-9 0-18 4-24 10-7 7-11 16-10 25z m-111-143c-3 3-8 3-11 0l-147-151c-3-3-3-8 0-11 2-2 3-3 6-3 2 0 4 1 5 3l147 151c3 3 3 7 0 11z" horiz-adv-x="1000" />

<glyph glyph-name="425759---cloud-communication-connection-databank-files-netw" unicode="&#xe830;" d="M793 133c-20 0-38-9-51-22l-126 114c55 1 99 44 99 98 0 56-45 100-101 100-1 0-1 0-2 0l115 159c11-9 26-15 42-15 38 0 69 31 69 70s-31 69-69 69-70-31-70-69c0-17 7-32 16-45l-120-166c-18 24-43 40-72 47l8 43c19 0 35 15 35 35 0 19-16 35-35 35s-36-16-36-35c0-14 9-27 21-32l-8-43c-5 1-10 1-14 1-20 0-38-5-56-14l-56 129c10 6 18 15 23 26 11 27-2 59-28 70-7 3-14 3-21 3-22 0-40-12-49-32-5-14-5-28 0-41 6-13 16-23 29-29 6-3 13-4 21-4 4 0 8 1 12 2l57-131c-28-18-48-47-55-79-1 0-2 0-3 0-8 0-16-1-23-4l-136 50c0 2 0 4 0 4 0 20-15 36-35 36s-35-16-35-36 16-35 35-35c13 0 24 6 30 17l122-45c-20-13-33-35-33-61 0-42 34-77 75-77h38l-107-108c-3 2-6 3-9 5-5 1-10 2-16 2-21 0-40-13-47-34-4-12-3-25 3-37 5-12 15-20 28-25 5-2 10-2 15-2 22 0 40 13 47 33 6 17 2 35-9 48l117 117h69l19-95c-12-6-21-18-21-32 0-20 16-35 36-35s35 15 35 35c0 19-16 35-35 35l-18 92h79l141-127c-6-10-10-22-10-35 0-38 32-69 70-69s70 31 70 69-32 70-70 70z m-262 437c10 0 19-8 19-19s-9-20-19-20-20 9-20 20 9 19 20 19z m-190 34c-10 4-17 11-21 20s-4 20 0 29c7 14 20 23 35 23 4 0 10-1 15-3 18-8 28-31 20-50-6-14-20-22-34-22-5 0-11 1-15 3z m-168-196c-11 0-20 8-20 19s9 20 20 20 19-9 19-20-8-19-19-19z m133-343c-5-14-18-23-33-23-3 0-7 1-10 2-9 3-16 8-20 17-4 8-5 17-2 26 5 14 18 22 32 22 4 0 8 0 11-1 18-6 28-25 22-43z m244 33c0-11-9-20-19-20s-20 9-20 20 9 19 20 19 19-8 19-19z m220 593c29 0 53-24 53-53 0-30-24-54-53-54s-54 24-54 54 24 53 54 53z m-404-450c-32 0-59 28-59 61 0 33 26 58 59 58 3 0 6 0 9-1 4 0 8 3 9 7 8 54 55 93 109 93 38 0 73-19 94-51 1-2 4-4 8-4 0 0 0 0 0 0 0 0 0 0 0 0 0 0 0 0 0 0 6 1 12 2 19 2 47 0 85-38 85-84 0-46-37-83-85-83h-248z m427-232c-30 0-54 24-54 54 0 29 24 53 54 53s54-24 54-53c0-30-24-54-54-54z" horiz-adv-x="1000" />

<glyph glyph-name="425760---bio-browser-eco-ecology-leaf-nature-website" unicode="&#xe831;" d="M192 584c-6 0-11 6-11 12s5 12 11 12 12-6 12-12-6-12-12-12z m0 16c-2 0-4-2-4-4s2-4 4-4 4 2 4 4-2 4-4 4z m42-16c-6 0-11 6-11 12s4 12 11 12 12-6 12-12-5-12-12-12z m0 16c-2 0-3-2-3-4s1-4 3-4 4 2 4 4-2 4-4 4z m43-16c-7 0-12 6-12 12s5 12 12 12 11-6 11-12-5-12-11-12z m0 16c-3 0-4-2-4-4s1-4 4-4 4 2 4 4-3 4-4 4z m536 51h-625c-26 0-47-21-47-47v-508c0-26 21-47 47-47h625c25 0 46 21 46 47v508c0 26-21 47-46 47z m-625-16h625c17 0 31-14 31-31v-45h-688v45c0 17 14 31 32 31z m625-570h-625c-18 0-32 14-32 31v448h688v-448c0-17-14-31-31-31z m-168 433c-3 1-7 0-8-3-11-18-40-65-154-80-58-8-103-35-124-76-15-31-14-66 3-95 2-4 7-5 11-3 4 2 4 7 3 11-14 25-15 54-3 80 18 36 59 61 112 67 91 12 131 44 151 67 0-60-7-166-48-225 0-1-1-3-2-3-23-33-62-54-102-54-33 0-62 12-85 33 3 7 6 14 9 20 16 29 43 51 75 59 64 14 103 46 119 72 3 4 2 9-2 11-4 2-9 2-11-2-14-23-51-52-110-65 0 0 0 0 0 0s0 0 0 0c-36-10-66-35-84-67-18-33-23-72-12-107 1-4 4-6 8-6 0 0 1 0 2 0 4 2 6 6 5 9-5 20-6 40-2 59 24-20 55-32 89-32 46 0 88 23 115 60 1 1 2 3 2 3 49 72 51 206 50 260-1 4-4 7-7 7z" horiz-adv-x="1000" />

<glyph glyph-name="425761---clock-data-grid-hardware-server-time-timeout" unicode="&#xe832;" d="M394 639c8 0 15-7 15-16s-7-15-15-15-16 7-16 15 7 16 16 16z m-81 0c8 0 15-7 15-16s-7-15-15-15-16 7-16 15 7 16 16 16z m-82 0c9 0 16-7 16-16s-7-15-16-15-15 7-15 15 7 16 15 16z m535-8h-271c-4 0-7-3-7-8s3-7 7-7h271c4 0 7 3 7 7s-3 8-7 8z m-372-226c8 0 15-7 15-16s-7-16-15-16-16 8-16 16 7 16 16 16z m-81 0c8 0 15-7 15-16s-7-16-15-16-16 8-16 16 7 16 16 16z m-82 0c9 0 16-7 16-16s-7-16-16-16-15 8-15 16 7 16 15 16z m276-24c4 6 9 11 13 16h-25c-4 0-7-3-7-8s3-8 7-8h12z m-113-218c8 0 15-7 15-16s-7-16-15-16-16 7-16 16 7 16 16 16z m-81 0c8 0 15-7 15-16s-7-16-15-16-16 7-16 16 7 16 16 16z m-82 0c9 0 16-7 16-16s-7-16-16-16-15 7-15 16 7 16 15 16z m621-157h-344v55h63c-8 5-16 10-24 16h-359c-18 0-32 14-32 31v78c0 17 14 31 32 31h275c0 6-1 10-1 16h-274c-26 0-47-21-47-47v-78c0-26 21-47 47-47h304v-55h-344c-4 0-7-3-7-8s3-7 7-7h704c4 0 7 3 7 7s-3 8-7 8z m-8 102c0-17-14-31-31-31h-8c-8-6-16-11-24-16h32c25 0 46 21 46 47v29c-4-8-10-15-15-22v-7z m-336 430h305c25 0 46 21 46 46v79c0 25-21 46-46 46h-625c-26 0-47-21-47-46v-79c0-25 21-46 47-46h304v-61c0-1 0-2 1-3h-305c-26 0-47-21-47-47v-78c0-26 21-47 47-47h280c2 6 3 11 5 16h-285c-18 0-32 14-32 31v79c0 17 14 31 32 31h447c13 3 27 4 41 4s27-1 40-4h97c17 0 31-14 31-31v-46c5-7 11-15 15-22v68c0 26-21 47-46 47h-306c0 1 1 2 1 2v61z m-320 15c-18 0-32 14-32 31v79c0 17 14 31 32 31h625c17 0 31-14 31-31v-79c0-17-14-31-31-31h-625z m488-121c-102 0-184-82-184-184s82-183 184-183 183 82 183 183-82 184-183 184z m0-351c-93 0-168 75-168 167s75 168 168 168 168-75 168-168-75-167-168-167z m94 175h-86v129c0 5-3 8-8 8s-8-3-8-8v-137c0-4 3-7 8-7h94c4 0 7 3 7 7s-3 8-7 8z" horiz-adv-x="1000" />

<glyph glyph-name="425763---best-competition-first-first-place-medal-number-on" unicode="&#xe833;" d="M852 709c-4 2-9 0-11-3l-169-299c-44 42-102 68-168 68-12 0-23-1-34-2l127 225c2 4 1 8-3 11-4 2-9 0-11-3l-83-147-83 147c-2 3-7 4-11 3-4-3-5-7-3-11l88-155-40-70c-1-1-1-3-1-3-46-11-87-35-119-67l-172 303c-2 4-7 5-11 3-3-2-4-7-3-11l175-308c-36-42-58-98-58-157 0-134 108-242 242-242s242 108 242 242c0 62-23 119-62 162l171 303c1 4 1 8-3 11z m-348-703c-125 0-227 102-227 227s102 226 227 226 227-101 227-226-102-227-227-227z m59 125h-45v219c0 7-5 13-11 15-6 1-13-1-17-6l-52-83c-3-4-2-9 2-11 4-2 8-2 11 2l51 83v-219h-50c-5 0-8-3-8-8s3-7 8-7h111c5 0 8 3 8 7s-3 8-8 8z" horiz-adv-x="1000" />

<glyph glyph-name="425764---browser-optimization-optimize-search-engine-optimi" unicode="&#xe834;" d="M192 584c-6 0-11 6-11 12s5 12 11 12 12-6 12-12-6-12-12-12z m0 16c-2 0-4-2-4-4s2-4 4-4 4 2 4 4-2 4-4 4z m42-16c-6 0-11 6-11 12s4 12 11 12 12-6 12-12-5-12-12-12z m0 16c-2 0-3-2-3-4s1-4 3-4 4 2 4 4-2 4-4 4z m43-16c-7 0-12 6-12 12s5 12 12 12 11-6 11-12-5-12-11-12z m0 16c-3 0-4-2-4-4s1-4 4-4 4 2 4 4-3 4-4 4z m536 51h-625c-26 0-47-21-47-47v-508c0-26 21-47 47-47h625c25 0 46 21 46 47v508c0 26-21 47-46 47z m-625-16h625c17 0 31-14 31-31v-45h-688v45c0 17 14 31 32 31z m625-570h-625c-18 0-32 14-32 31v448h688v-448c0-17-14-31-31-31z m-427 246c-11 7-26 12-45 15-11 1-21 5-28 11-8 6-12 13-12 22 0 9 4 16 11 21 7 4 17 8 29 8 10 0 18-4 26-11 7-7 12-15 14-26h22c0 17-5 30-17 41-11 10-27 16-45 16-19 0-34-5-46-13-11-9-17-21-17-35 0-14 6-26 20-36 11-8 25-14 43-17 13-2 22-5 29-9 10-6 14-13 14-22 0-10-3-18-12-24-8-7-19-10-32-10-13 0-24 4-32 13-8 8-13 18-13 32h-22c0-20 7-35 18-47 13-12 29-17 49-17 20 0 36 4 48 15 12 10 18 23 18 39 1 14-6 25-20 34z m48-84h122v21h-100v60h88v21h-88v54h99v21h-121v-177z m218 180c-25 0-44-9-58-25-15-17-22-39-22-67 0-27 7-49 22-66 15-16 33-25 58-25 24 0 43 9 57 25 15 17 22 39 22 66 0 28-7 50-22 67-14 16-33 25-57 25z m41-144c-10-12-24-19-41-19-18 0-32 6-43 19-10 14-15 31-15 52 0 22 5 39 15 52 11 14 25 20 43 20 17 0 31-6 41-20 10-13 16-30 16-52 0-21-5-38-16-52z" horiz-adv-x="1000" />

<glyph glyph-name="425765---cloud-exchange-refresh-reload-rotate-sync-update" unicode="&#xe835;" d="M713 116h-475c-74 0-136 65-136 142 0 74 61 135 136 135 4 0 8 0 13-1 20 112 115 192 230 192 80 0 153-39 196-105 12 2 24 3 36 3 102 0 185-83 185-184 0-103-81-182-185-182z m-475 261c-66 0-121-54-121-119 0-69 56-127 121-127h475c96 0 171 74 171 167 0 93-77 168-171 168-12 0-25-1-37-3-3-1-6 0-9 3-40 65-110 103-186 103-109 0-200-78-217-186-1-4-5-7-8-6-8 0-13 0-18 0z m400-101c-2 0-4 1-5 2-3 3-3 8 0 11l62 60c3 3 7 3 11 0 3-3 3-8 0-11l-62-60c-2-1-4-2-6-2z m0 0c-2 0-4 1-6 3l-55 66c-4 3-3 9 0 11 4 3 9 3 11 0l56-67c3-3 2-8-1-11-2-1-3-2-5-2z m0 7c0 0 0 0-1 0-4 1-7 5-6 9 1 9 2 18 1 27-1 40-23 77-58 98-54 34-125 19-162-33l-2-1c-2-4-7-5-11-2-4 2-4 7-2 10l1 3c42 58 122 74 183 37 39-25 64-66 65-111 1-11 0-21-2-30 1-5-3-7-6-7z m-127-106c-25 0-49 6-71 20-49 30-73 85-63 141 0 3 4 7 9 6 4-1 7-5 6-10-8-49 14-98 56-124 50-31 118-20 156 25 3 3 8 4 11 1 3-3 4-8 1-11-27-31-66-48-105-48z m-183 94c-1 0-4 1-5 2-3 4-3 8-1 11l58 64c3 3 8 3 11 0 3-3 3-7 0-10l-57-64c-2-2-3-3-6-3z m117 1c-2 0-4 1-5 2l-59 64c-4 3-4 7 0 10 3 4 7 4 10 0l60-63c3-3 3-8 0-11-3-1-4-2-6-2z m-69 19" horiz-adv-x="1000" />

<glyph glyph-name="425766---arrows-exchange-refresh-reload-sync-transfer-updat" unicode="&#xe836;" d="M877 377c-4 3-8 3-11 0l-78-75c3 19 4 39 3 60-3 99-57 189-141 241-133 82-308 47-398-80-1-2-3-3-4-5-2-4-1-9 3-11 4-2 8-1 11 2 1 2 2 4 3 5 86 120 251 154 378 77 80-50 130-135 134-229 0-19-1-38-4-56l-64 85c-3 4-8 4-11 2-3-2-4-8-2-11l78-104c0 0 0 0 0 0 0 0 0 0 0-1 1 0 1 0 2 0 0 0 1-1 1-1 0-1 2-1 3-1 0 0 0 0 0 0l0 0c1 0 1 0 2 1 0 0 1 0 1 1 1 0 1 0 1 0 0 0 0 0 0 0 0 0 0 0 1 0l92 89c3 3 3 7 0 11z m-167-208c-89-106-246-132-364-59-99 60-150 174-130 288l76-102c2-2 4-3 6-3 2 0 4 1 5 2 3 2 4 7 2 11l-87 114c0 0-1 1-1 1 0 0-1 1-1 1 0 0 0 0 0 0 0 0 0 1-1 1-1 0-1 0-2 0 0 0 0 0-1 0-1 0-1 0-2 0-1 0-1 0-1 0-1 0-1-1-2-1 0 0 0 0 0 0 0 0-1-1-1-1 0 0 0-1 0-1l-83-114c-3-4-2-9 1-11 2-1 3-2 5-2 2 0 5 1 6 3l63 87c-13-115 40-225 140-287 48-30 102-44 155-44 86 0 171 37 229 107 3 3 2 8-1 11-3 3-8 2-11-1z" horiz-adv-x="1000" />

<glyph glyph-name="425767---browse-browser-browsers-computer-internet-network-" unicode="&#xe837;" d="M265 466c-6 0-11 5-11 11s5 11 11 11 11-4 11-11-5-11-11-11z m0 16c-2 0-5-1-5-5s2-4 5-4 5 1 5 4-3 5-5 5z m37-16c-6 0-11 5-11 11s5 11 11 11c7 0 11-4 11-11s-4-11-11-11z m0 16c-2 0-4-1-4-5s1-4 4-4c3 0 5 1 5 4s-2 5-5 5z m38-16c-6 0-11 5-11 11s5 11 11 11c6 0 11-4 11-11s-5-11-11-11z m0 16c-2 0-5-1-5-5s2-4 5-4c2 0 5 1 5 4s-3 5-5 5z m473 45h-547c-26 0-47-21-47-46v-443c0-26 21-47 47-47h547c25 0 46 21 46 47v443c0 25-21 46-46 46z m-547-15h547c17 0 31-14 31-31v-35h-610v35c0 17 14 31 32 31z m547-506h-547c-18 0-32 14-32 32v393h610v-393c0-18-14-32-31-32z m-657 214v393h610v-55h15v105c0 25-21 46-47 46h-546c-26 0-47-21-47-46v-443c0-26 21-47 47-47v15c-18 0-32 14-32 32z m0 443c0 17 14 31 32 31h546c18 0 32-14 32-31v-35h-610v35z m31-15c-6 0-11 5-11 11s5 11 11 11 11-4 11-11-5-11-11-11z m0 16c-3 0-5-1-5-5s2-4 5-4 4 1 4 4-2 5-4 5z m37-16c-6 0-11 5-11 11s5 11 11 11c7 0 11-4 11-11s-4-11-11-11z m0 16c-2 0-4-1-4-5s1-4 4-4c3 0 5 1 5 4s-2 5-5 5z m38-16c-6 0-11 5-11 11s5 11 11 11c6 0 11-4 11-11s-5-11-11-11z m0 16c-3 0-5-1-5-5s2-4 5-4c2 0 4 1 4 4s-2 5-4 5z" horiz-adv-x="1000" />

<glyph glyph-name="425768---communication-connection-group-marketing-network-s" unicode="&#xe838;" d="M500 616c26 0 47 21 47 47s-21 46-47 46-47-21-47-46 21-47 47-47z m0 78c17 0 31-14 31-31s-14-32-31-32-31 14-31 32 14 31 31 31z m220-169c13 0 25 5 34 14 9 9 13 20 13 34s-4 24-14 33c-8 8-20 13-33 13-12 0-24-5-33-14-18-18-18-49 0-67 9-8 21-13 33-13z m-22 69c6 6 14 9 22 9 8 0 16-3 21-9 7-6 10-14 10-22 0-9-3-16-10-22-6-6-14-9-21-9-9 0-17 3-22 9-12 12-12 32 0 44z m115-195c-26 0-47-21-47-47 0-25 21-46 47-46 0 0 0 0 0 0 12 0 24 4 32 14 9 8 14 21 14 33 0 25-21 46-46 46z m21-68c-6-7-14-10-21-10l0-8v8c-18 0-32 14-32 31 0 18 14 32 32 32 17 0 31-14 31-32 0-8-3-16-10-21z m-112-154c-13 0-24-5-34-14-8-9-14-21-13-33s5-24 14-33c9-9 20-13 33-13 12 0 24 4 34 14 8 8 14 20 13 33s-5 24-14 32c-9 9-21 14-33 14z m22-69c-6-6-14-10-22-10-9 0-16 4-22 10-6 6-9 14-9 22 0 8 3 16 9 22 6 6 14 9 22 9 9 0 16-3 22-9 6-7 9-14 9-22s-3-17-9-22z m-244-24c-26 0-47-21-47-46 0-13 5-25 14-33 9-9 21-14 33-14l0 0c26 0 47 21 47 47 0 12-5 24-14 32-9 10-20 14-33 14z m0-78l0-8 0 8c-9 0-16 3-22 10-6 6-9 14-9 22 0 17 14 31 31 31 9 0 16-3 22-10 6-6 9-14 9-21 0-18-14-32-31-32z m-221 170c-13 0-24-5-33-14s-14-21-14-33 5-24 14-33 20-14 33-14c12 0 24 5 33 14 18 18 18 48 0 67-9 8-21 13-33 13z m22-69c-12-12-32-12-45 0-12 13-12 32 0 45 7 6 14 9 22 9s17-3 22-9c13-13 13-33 1-45z m-113 290c-13 0-25-5-33-14-10-9-14-20-14-33 0-26 21-47 47-47h0c12 0 24 5 32 14 9 9 14 21 14 33 0 26-21 47-46 47z m21-69c-5-6-13-9-21-9-18 0-32 14-32 31 0 9 3 16 10 22s13 9 22 9c17 0 31-14 31-31 0-9-3-16-10-22z m70 195c12 0 24 5 34 15 18 18 18 48 0 66-9 9-21 13-33 13-13 0-24-4-34-14-8-8-14-20-13-33 0-12 5-24 14-32 8-10 19-15 32-15z m-23 69c7 6 14 10 22 10 9 0 17-4 22-10 13-12 13-32 0-44-6-7-14-10-22-10-8 0-16 3-22 10-6 6-9 14-9 22 1 9 4 17 9 22z m244-156c-48 0-86-38-86-86s38-86 86-86 86 38 86 86-38 86-86 86z m0-156c-39 0-70 31-70 70s31 70 70 70 70-31 70-70-31-70-70-70z m0 195c5 0 8 3 8 8v63l15-19c1-2 4-3 6-3 2 0 3 1 5 2 3 2 4 8 1 11l-29 37c0 0 0 0 0 0 0 1 0 1-1 2 0 0-1 0-1 1 0 0-1 0-1 0 0 0-1 0-1 0 0 0 0 0 0 0-1 0-2 0-3 0 0 0 0 0-1 0 0 0-1-1-2-2 0 0 0 0 0 0 0 0 0 0 0-1 0 0-1-1-1-1l-29-37c-2-3-2-9 2-11 3-2 9-2 11 2l15 18v-62c-2-5 1-8 6-8z m94-39c2 0 4 1 5 2l45 45-3-24c-1-3 2-7 7-8 0 0 0 0 0 0 4 0 8 3 8 7l6 47c0 0 0 0 0 1 0 0 0 1 0 2 0 0 0 1 0 1 0 0 0 0 0 0 0 0-1 1-1 1 0 0 0 1-1 1-1 1-1 1-1 2 0 0 0 0-1 0-1 0-2 0-2 0 0 0 0 0 0 0 0 0 0 0-1 0-1 0-1 0-2 0l-47-6c-4-1-7-5-7-9s5-7 9-7l24 4-44-45c-4-3-4-8 0-11 2-2 3-3 6-3z m82-120c1-2 4-3 6-3 2 0 3 1 5 2l36 29c0 0 0 0 0 0 1 1 1 1 2 1 0 0 0 1 1 1 0 0 0 1 1 1 0 0 0 1 0 1 0 0 0 0 0 0 0 1 0 2 0 3 0 0 0 0 0 1 0 0-1 1-2 2 0 0 0 0 0 0 0 0 0 0-1 0 0 0-1 1-1 1l-37 29c-3 2-9 2-11-2s-2-9 2-11l18-15-62 2c-5 0-8-4-8-8s3-8 8-8c0 0 0 0 0 0l63 0-19-15c-4-2-4-7-1-11z m-13-121c0 0 0 0 0 0 0 1 0 1 0 1 0 1 0 1 0 2l-6 47c-1 3-5 7-9 7-3-1-7-5-7-9l4-24-46 44c-3 3-8 3-11 0-3-3-3-7 0-11l46-44-24 1c-4 1-8-2-8-7-1-4 2-7 7-8l47-6c0 0 0 0 0 0l0 0 0 0h0c1 0 3 0 3 1 0 0 0 0 0 0 1 0 1 1 1 1 0 0 1 0 1 1 1 0 1 1 2 1 0 0 0 0 0 0 0 2 0 3 0 3z m-163 30l0 0c-5 0-8-3-8-8l0-63-15 19c-2 3-7 4-11 1-3-2-3-8-1-11l29-37c0 0 0 0 0 0 1-1 1-2 2-2 0 0 1 0 1 0 0 0 0 0 1 0 0 0 1-1 2-1l0 0 0 0c1 0 2 0 3 1 0 0 1 0 1 1 0 0 1 0 1 1 0 0 1 1 1 1 0 0 0 0 0 0l29 37c3 3 3 9-1 11-3 2-9 2-11-2l-15-19 0 63c0 5-4 8-8 8z m-99 37l-45-45 3 24c1 4-2 8-7 9-4 1-7-2-8-7l-6-47c0 0 0 0 0-1 0 0 0-1 0-2 0 0 0-1 0-1 0 0 0-1 0-1 0 0 0 0 0 0 0 0 0-1 1-1 1-1 2-2 2-2 0 0 0 0 1 0 1 0 2 0 3 0 0 0 0 0 0 0 0 0 0 0 0 0 0 0 0 0 0 0h0 0 0c0 0 1 0 1 0l47 6c4 1 7 4 7 8s-5 7-9 7l-24-3 45 45c3 3 3 8 0 11s-8 3-11 0z m-97 80l63 0c5 0 8 3 8 8 0 5-3 8-8 8 0 0 0 0 0 0l-63 0 19 15c3 2 4 8 1 11-2 3-8 4-11 1l-36-29c0 0 0 0 0 0-1 0-1 0-2-1 0 0 0-1-1-1 0 0 0-1-1-1 0 0 0-1 0-1 0 0 0 0 0 0 0-1 0-2 0-3 0 0 0-1 0-1 0 0 1-1 2-2 0 0 0 0 0 0 0 0 0 0 0 0 0 0 1-1 1-1l37-29c2 0 3-1 5-1 2 0 5 1 6 3 3 3 3 9-1 11l-19 13z m34 164c0 0 0 0 0 0 0-1 0-1 0-1 0-1 0-1 0-2l6-47c1-4 4-7 8-7 4 1 7 5 7 9l-3 25 44-45c2-1 4-2 6-2 2 0 3 1 5 2 3 3 3 8 0 11l-45 45 25-3c0 0 0 0 0 0 4 0 7 3 8 7 1 4-2 8-7 8l-47 6c0 0 0 0 0 0-1 0-2 0-3 0 0 0-1 0-1 0 0 0 0 0 0 0 0 0-1-1-1-1 0 0-1 0-1-1-1-1-1-1-1-1 0 0 0 0 0 0 0-2 0-3 0-3z" horiz-adv-x="1000" />

<glyph glyph-name="425769---buy-ecommerce-online-shop-online-shopping-online-s" unicode="&#xe839;" d="M192 584c-6 0-11 6-11 12s5 12 11 12 12-6 12-12-6-12-12-12z m0 16c-2 0-4-2-4-4s2-4 4-4 4 2 4 4-2 4-4 4z m42-16c-6 0-11 6-11 12s4 12 11 12 12-6 12-12-5-12-12-12z m0 16c-2 0-3-2-3-4s1-4 3-4 4 2 4 4-2 4-4 4z m43-16c-7 0-12 6-12 12s5 12 12 12 11-6 11-12-5-12-11-12z m0 16c-3 0-4-2-4-4s1-4 4-4 4 2 4 4-3 4-4 4z m536 51h-625c-26 0-47-21-47-47v-508c0-26 21-47 47-47h625c25 0 46 21 46 47v508c0 26-21 47-46 47z m-625-16h625c17 0 31-14 31-31v-45h-688v45c0 17 14 31 32 31z m625-570h-625c-18 0-32 14-32 31v448h688v-448c0-17-14-31-31-31z m-145 358h-299l-7 34c-3 13-14 22-27 22h-19c-4 0-7-3-7-8s3-8 7-8h19c6 0 10-4 11-9l9-38c0 0 0 0 0 0 0-1 0-3 1-3l42-193c2-13 13-22 26-22h193c5 0 8 3 8 8s-3 7-8 7h-194c-5 0-10 4-10 10l-4 18 206 18c13 2 23 11 26 22l35 132c1 3 0 5-2 7-1 2-4 3-6 3z m-43-139c-2-7-7-9-12-10l-207-18-34 151h286l-33-123z m-184-107c-14 0-26-12-26-27s12-27 26-27 27 12 27 27-12 27-27 27z m0-39c-6 0-10 5-10 11s4 11 10 11 11-4 11-11-4-11-11-11z m146 39c-15 0-27-12-27-27s12-27 27-27 26 12 26 27-11 27-26 27z m0-39c-6 0-11 5-11 11s5 11 11 11c6 0 11-4 11-11s-5-11-11-11z" horiz-adv-x="1000" />

<glyph glyph-name="425770---coins-currency-dollar-euro-exchange-exchange-rate-" unicode="&#xe83a;" d="M363 436c-122 0-222-100-222-223s100-222 222-222 223 100 223 222-100 223-223 223z m0-430c-114 0-207 93-207 207s93 207 207 207 207-93 207-207-93-207-207-207z m38 203c-6 4-13 7-20 10-7 2-14 4-21 5-6 2-12 4-18 7-4 1-9 4-12 7-3 3-7 7-8 11-2 5-3 11-3 18 0 5 1 10 2 15 2 5 5 9 8 13 3 3 8 7 13 9 6 2 13 4 21 4 7 0 14-2 20-4 5-2 9-6 13-9 3-4 6-9 8-14 2-4 5-7 10-5 4 1 6 5 5 10-3 7-6 14-11 20-5 5-11 10-19 14-5 2-12 3-19 4v10c0 5-3 8-7 8s-8-3-8-8v-10c-7-1-14-2-19-4-8-4-14-8-19-13-4-5-8-11-11-18-2-6-4-13-4-20 0-10 2-18 5-25 3-6 7-13 12-17 4-4 11-7 17-10 6-2 13-4 20-6 7-2 13-4 19-5 6-2 12-5 16-8 5-3 9-7 12-13 3-5 5-12 5-20 0-6-1-12-2-17-2-6-5-10-8-14-3-4-8-7-14-10-5-2-11-3-19-3-6 0-13 1-18 2-6 2-10 5-15 9-5 4-8 9-11 16-1 4-6 5-10 4-4-2-5-7-4-11 4-8 9-15 15-21 6-5 13-9 20-11 4-2 8-3 12-3v-11c0-4 3-7 8-7s8 3 8 7v11c7 0 14 1 20 4 8 3 14 8 19 13 4 6 8 13 11 20 2 7 3 14 3 22 0 11-3 21-7 29-3 5-9 11-15 15z m15 253c5-1 11-3 16-4-1 9-2 19-2 29 0 114 93 207 207 207s207-93 207-207-93-207-207-207c-10 0-20 1-29 2 1-5 3-11 4-16 8-1 16-2 25-2 122 0 222 100 222 223s-100 222-222 222-223-100-223-222c0-9 1-17 2-25z m77 5c0-4 3-8 8-8h15c12-57 63-99 124-99 28 0 55 10 77 27 3 2 4 8 2 11-3 3-8 4-11 1-20-15-43-22-68-22-52 0-95 36-108 83h91c4 0 8 3 8 8s-4 8-8 8h-94c-1 4-1 8-1 12s0 7 1 11h94c4 0 8 3 8 8s-4 8-8 8h-91c13 48 56 83 108 83 24 0 48-7 67-22 3-3 9-2 11 1 2 4 2 9-2 11-21 17-48 26-76 26-61 0-112-43-124-99h-15c-5 0-8-3-8-8s3-8 8-8h12c0-4-1-8-1-11s0-8 1-12h-12c-4-1-8-5-8-9z m-289-47c0 0 0 0 0 0 0 0 0-1 0 0 1-2 2-2 2-3 0 0 0 0 0 0 0 0 0 0 0 0 0 0 0-1 1-1 0 0 1 0 1 0 1 0 1 0 2 0 1 0 1 0 2 0 0 0 1 0 1 0 0 0 0 0 0 0 1 1 2 1 3 2 0 0 0 0 0 0l56 69c2 3 2 8-1 11-3 2-8 2-11-1l-40-50c7 56 39 195 218 200 4 0 7 4 7 8 0 4-4 8-7 8-183-5-223-147-232-210l-25 52c-1 4-6 5-10 4-4-2-5-7-4-11l37-78z m613-122c0 0 0 0 0 0 0 1-1 1-1 1 0 1 0 1-1 2 0 0 0 0 0 0 0 0-1 0-1 0-1 0-1 1-1 1 0 0-1 0-1 0-1 0-1 0-2 0 0 0-1 0-1 0 0 0 0 0 0 0-1 0-1 0-2-1 0 0-1 0-1-1 0-1-1-1-2-2 0 0 0 0 0 0l-56-68c-3-3-3-9 0-11 2-2 4-2 5-2 3 0 5 1 6 3l40 49c-3-21-10-53-26-85-38-72-105-111-200-114-4 0-7-4-7-8 0-4 4-8 7-8 0 0 0 0 0 0 189 7 231 148 241 210l24-52c2-4 7-6 10-4 4 1 6 6 4 10l-35 80z" horiz-adv-x="1000" />

<glyph glyph-name="425771---cloud-connection-data-database-hardware-network-se" unicode="&#xe83b;" d="M394 639c8 0 15-7 15-16s-7-15-15-15-16 7-16 15 7 16 16 16z m-81 0c8 0 15-7 15-16s-7-15-15-15-16 7-16 15 7 16 16 16z m-82 0c9 0 16-7 16-16s-7-15-16-15-15 7-15 15 7 16 15 16z m535-8h-271c-4 0-7-3-7-8s3-7 7-7h271c4 0 7 3 7 7s-3 8-7 8z m-372-226c8 0 15-7 15-16s-7-16-15-16-16 8-16 16 7 16 16 16z m-81 0c8 0 15-7 15-16s-7-16-15-16-16 8-16 16 7 16 16 16z m-82 0c9 0 16-7 16-16s-7-16-16-16-15 8-15 16 7 16 15 16z m542-16c0 5-3 8-7 8h-110c9-5 17-10 25-16h85c4 0 7 3 7 8z m-542-226c9 0 16-7 16-16s-7-16-16-16-15 7-15 16 7 16 15 16z m621-157h-344v24h-16v-24h-344c-4 0-7-3-7-8s3-7 7-7h704c4 0 7 3 7 7s-3 8-7 8z m-344 532h305c25 0 46 21 46 46v79c0 25-21 46-46 46h-625c-26 0-47-21-47-46v-79c0-25 21-46 47-46h304v-61c0-1 0-2 1-3h-305c-26 0-47-21-47-47v-78c0-26 21-47 47-47h193c2 6 4 11 7 16h-200c-18 0-32 14-32 31v79c0 17 14 31 32 31h625c17 0 31-14 31-31v-78c0-14-10-27-24-30 5-3 11-7 14-11 15 8 25 24 25 42v77c0 26-21 47-47 47h-305c0 1 1 2 1 2v61z m-320 15c-18 0-32 14-32 31v79c0 17 14 31 32 31h625c17 0 31-14 31-31v-79c0-17-14-31-31-31h-625z m0-492h118c-5 5-11 10-15 16h-103c-18 0-32 14-32 31v78c0 17 14 31 32 31h86c3 6 7 11 10 16h-96c-26 0-47-21-47-47v-78c0-26 21-47 47-47z m538 256c-7 0-15-1-24-2-32 47-84 74-140 74-81 0-149-56-165-135-2 0-5 1-7 1-56 0-99-42-99-96 0-54 45-99 99-99h335c76 0 134 55 134 127 0 73-58 130-133 130z m0-240h-335c-46 0-83 37-83 83 0 45 37 80 83 80 2 0 5-1 8-1 2 0 3-1 4-1 4 0 8 3 9 7 11 74 74 128 151 128 53 0 100-26 129-71 2-4 6-4 9-4 10 3 18 4 26 4 66 0 118-50 118-114-1-64-52-111-119-111z" horiz-adv-x="1000" />

<glyph glyph-name="425772---analysis-analyze-chart-diagram-graph-pie-pie-chart" unicode="&#xe83c;" d="M781 641c-3 4-8 4-11 0l-249-248c-3-3-3-8 0-11l249-248c1-2 3-3 5-3s4 1 6 3c140 139 140 368 0 507z m-5-491l-238 238 238 237c126-133 126-342 0-475z m-257 291c1-1 2-1 3-1 2 0 4 1 5 2l249 249c1 1 2 3 2 5s-1 4-2 6c-68 68-158 105-253 106 0 0 0 0 0 0-5 0-8-3-8-8l-2-352c0-3 3-6 6-7z m12 351c85-2 166-36 228-95l-229-230 1 325z m-46-418l2 349c0 4-3 8-8 8h-2c-96 0-186-38-254-106-139-140-139-368 0-509 68-68 158-105 254-105s186 37 254 105c3 4 3 8 0 11l-246 247z m-8-347c-92 0-178 36-243 101-134 135-134 353 0 486 64 63 147 99 237 101l-1-344c0-2 0-4 2-5l243-243c-64-62-149-96-238-96z" horiz-adv-x="1000" />

<glyph glyph-name="425773---account-human-man-person-profile-settings-user" unicode="&#xe83d;" d="M854 412c0 3-2 6-6 7l-55 15-15 40 33 47c2 2 2 6 0 9l-35 50c-2 2-6 4-9 3l-55-14-34 28 6 57c0 3-2 6-5 8l-56 26c-3 1-6 0-8-2l-41-41-43 8-24 53c-1 3-5 4-8 4l-61-5c-3 0-6-3-7-6l-15-55-40-15-47 33c-2 1-6 1-9 0l-50-35c-2-2-4-6-3-9l15-55-28-34-57 5c-3 0-6-1-8-4l-26-56c-1-3 0-6 2-8l41-41-8-43-53-24c-3-2-4-5-4-8l5-61c0-3 2-6 6-7l55-15 15-40-33-47c-1-3-1-7 0-9l35-50c2-2 6-4 9-3l55 15 34-28-6-57c0-3 2-7 5-8l56-26c3-1 6-1 8 2l41 40 43-8 24-52c2-3 4-5 7-5 0 0 1 0 1 0l61 6c3 0 6 2 7 5l15 56 40 15 47-33c2-2 6-2 9 0l50 35c2 2 4 6 3 9l-14 54 28 34 57-6c3 0 6 2 8 5l26 56c1 3 0 6-2 8l-41 41 8 43 53 24c3 2 4 5 4 8l-6 61z m-62-81c-2 0-4-3-4-5l-10-51c-1-2 0-5 3-7l39-40-21-45-55 5c-3 0-5-1-7-4l-34-39c-1-3-2-5-1-7l14-54-41-29-46 32c-2 1-5 1-7 1l-49-18c-2-1-3-4-4-6l-14-54-50-4-24 50c0 3-3 4-5 5l-51 9c-1 0-1 0-2 0-2 0-3 0-5-2l-40-40-45 21 5 56c0 2-1 4-4 7l-39 33c-3 2-5 3-7 2l-54-15-29 41 32 47c1 2 1 4 1 7l-18 48c-1 2-4 4-6 5l-53 15-5 50 51 24c2 1 4 3 5 5l8 51c1 2 0 6-2 7l-40 40 21 45 56-4c2 0 4 0 7 3l33 40c2 2 3 4 2 7l-15 53 41 29 47-32c2-1 4-1 7 0l48 18c2 0 4 3 5 5l14 54 50 5 23-51c1-3 3-4 6-5l50-8c3-1 6 0 8 2l39 40 46-21-5-56c0-2 1-5 3-7l40-33c2-2 5-3 7-2l54 15 29-42-32-46c-2-2-2-4-1-7l18-48c1-3 3-4 5-5l54-14 5-50-51-26z m-387 67c4-16 15-26 26-27l17-36c0-2 2-4 4-6 21-27 30-31 39-31 1 0 2 0 4 0 0 0 1 0 2 0h5c1 0 2 0 3 0 11 0 19 3 43 31 1 2 3 4 4 6l17 37c4 0 9 2 14 6 5 5 10 12 12 20 4 14 3 30-4 39 2 13 3 54-22 79-17 18-42 25-74 22-1 0-29-4-46-14-1-1-2-1-3-2-15-9-45-27-37-86-7-7-9-24-4-38z m49 111c2 1 2 2 4 3 11 7 32 10 39 11 27 3 48-3 61-17 19-20 19-53 18-65-1-1-2-2-3-3-1-4 1-9 6-10 0 0 0 0 0 0 2-1 5-11 2-23-2-6-5-10-8-14-3-1-5-2-7-2-3 2-7 0-10-4l-18-43c-1-1-1-2-2-3-21-26-26-25-30-25 0 0-2 0-3 0h-5c-2 0-3 0-3 0-4 0-9-1-30 25-1 1-2 2-2 3l-18 41c-1 2-3 4-5 4-2 1-3 1-5 0-3-1-10 4-14 15-4 14-1 24 1 24 0 0 1 0 1 0 4 1 6 5 5 9 0 2-1 3-1 3-9 50 14 63 27 71z m205-273c0 0 0 1 0 1-8 25-32 30-36 31l-65 20c-3 1-7 0-9-3l-49-69-48 69c-2 3-6 4-9 3l-65-20c-5-1-28-6-37-32l0-3c-2-5-3-10-4-13l0 0c0-1 0-3 0-4s1-1 1-3l0 0c38-50 96-80 159-82 1 0 2 0 3 0 63 0 124 31 162 82l0 0c1 1 1 2 1 3 0 1 0 3 0 4 0 0 0 0 0 0 0 4-2 11-4 16z m-162-88c-57 0-109 27-144 72 1 3 2 6 3 8l0 3c7 18 25 21 25 21 0 0 1 0 1 0l60 19 52-73c1-2 4-3 6-3 0 0 0 0 0 0 2 0 5 2 6 3l52 73 60-19c0 0 1 0 1 0 0 0 19-3 25-21 1-4 2-8 3-11-35-46-91-73-150-72z" horiz-adv-x="1000" />

<glyph glyph-name="425774---browser-page-replay-restart-seo-update-web" unicode="&#xe83e;" d="M676 459c-4 1-9-1-10-5l-18-75c-3 6-7 12-10 17-29 43-78 69-129 69-86 0-156-70-156-156s70-155 156-155c76 0 142 57 154 133 0 4-3 8-7 8-4 1-8-2-8-6-10-68-70-119-139-119-76 0-139 62-139 139s62 140 139 140c47 0 90-22 116-61 4-6 7-12 10-18l-75 26c-4 2-8-1-10-5-2-3 1-8 5-10l93-32c0 0 0 0 0 0 0 0 0 0 0 0 1 0 2 0 2 0 0 0 0 0 0 0 1 0 2 0 2 1 0 0 1 0 1 0 1 0 1 1 2 1 0 0 1 1 1 1 0 0 0 0 0 0 0 0 0 1 1 1 0 0 1 1 1 1 0 0 0 0 0 0 0 0 0 0 0 0l23 95c2 5-1 9-5 10z m137 192h-625c-26 0-47-21-47-47v-508c0-26 21-47 47-47h625c25 0 46 21 46 47v508c0 26-21 47-46 47z m-625-16h625c17 0 31-14 31-31v-45h-688v45c0 17 14 31 32 31z m625-570h-625c-18 0-32 14-32 31v448h688v-448c0-17-14-31-31-31z m-621 519c-6 0-11 6-11 12s5 12 11 12 12-6 12-12-6-12-12-12z m0 16c-2 0-4-2-4-4s2-4 4-4 4 2 4 4-2 4-4 4z m42-16c-6 0-11 6-11 12s4 12 11 12 12-6 12-12-5-12-12-12z m0 16c-2 0-3-2-3-4s1-4 3-4 4 2 4 4-2 4-4 4z m43-16c-7 0-12 6-12 12s5 12 12 12 11-6 11-12-5-12-11-12z m0 16c-3 0-4-2-4-4s1-4 4-4 4 2 4 4-3 4-4 4z" horiz-adv-x="1000" />

<glyph glyph-name="425778---budget-business-calc-calculate-calculator-marketin" unicode="&#xe83f;" d="M813 709h-625c-26 0-47-21-47-46v-625c0-26 21-47 47-47h312 0 313c25 0 46 21 46 47v625c0 25-21 46-46 46z m-657-46c0 17 14 31 32 31h303l0-336h-335v305z m32-657c-18 0-32 14-32 32v304h335l1-336h-304z m656 32c0-18-14-32-31-32h-305l-1 336h337v-304z m0 320h-337l-1 336h307c17 0 31-14 31-31l0-305 0 0z m-442 238c-3 3-7 3-11 0l-63-63-63 63c-3 3-8 3-11 0s-3-8 0-11l63-63-63-63c-3-3-3-8 0-11 2-2 4-3 5-3s4 1 6 3l63 63 63-63c2-2 4-3 6-3s4 1 5 3c4 3 4 8 0 11l-63 63 63 63c4 3 4 9 0 11z m356-66h-156c-5 0-8-3-8-8s3-8 8-8h156c5 0 8 3 8 8s-3 8-8 8z m-352-352h-156c-5 0-8-3-8-8s3-7 8-7h156c5 0 8 3 8 7s-3 8-8 8z m203-15h71v-71c0-4 3-8 8-8s7 4 7 8v71h71c4 0 7 3 7 7s-3 8-7 8h-71v70c0 5-3 8-7 8s-8-3-8-8v-70h-71c-4 0-7-3-7-8s3-7 7-7z m71 390c17 0 31 14 31 31s-14 32-31 32-32-14-32-32 15-31 32-31z m0 47c8 0 15-7 15-16s-7-15-15-15-16 7-16 15 7 16 16 16z m0-109c-17 0-32-14-32-32s15-31 32-31 31 14 31 31-14 32-31 32z m0-47c-9 0-16 7-16 15s7 16 16 16 15-7 15-16-7-15-15-15z" horiz-adv-x="1000" />

<glyph glyph-name="425775---agreement-award-business-contract-document-guarant" unicode="&#xe840;" d="M720 339c-47 0-86-38-86-86s39-86 86-86 86 39 86 86-39 86-86 86z m0-156c-39 0-70 31-70 70s31 70 70 70 71-31 71-70-32-70-71-70z m-443-177c-13 0-23 10-23 24v640c0 14 10 24 23 24h446c13 0 23-10 23-24v-247c6-2 11-4 16-8v255c0 22-17 39-39 39h-446c-21 0-39-17-39-39v-640c0-22 18-39 39-39h422l-16 15h-406z m399 625h-352c-4 0-8-3-8-8s4-7 8-7h352c5 0 8 3 8 7s-3 8-8 8z m0-78h-352c-4 0-8-3-8-8s4-7 8-7h352c5 0 8 3 8 7s-3 8-8 8z m8-86c0 5-3 8-8 8h-352c-4 0-8-3-8-8s4-8 8-8h352c5 0 8 4 8 8z m-368-78c0-5 4-8 8-8h280c5 7 11 12 17 16h-297c-4 0-8-3-8-8z m538-124c5 10 7 22 3 32-3 11-12 19-22 24-8 3-13 11-14 20-2 20-19 36-40 36-3 0-5 0-8-1-9-2-17 1-24 8-8 8-18 13-29 13s-22-5-30-13c-6-7-15-10-24-8-3 1-5 1-8 1-20 0-38-16-40-36-1-9-6-17-14-20-10-5-18-13-22-24-3-11-2-23 3-32 5-8 5-17 0-24-5-10-7-22-3-32 3-11 12-20 22-25 8-3 13-11 14-19 1-8 4-15 9-21l-20-82c-1-3 0-6 2-8 3-2 5-2 8-2l46 15 35-33c2-2 4-3 6-3 2 0 4 1 5 3 4 3 4 7 0 11l-38 36c-2 3-5 3-8 2l-37-12 15 61c5-2 11-4 18-4 3 0 5 0 8 1 9 2 17-1 24-8 4-5 10-8 16-11l25-115c1-3 2-4 6-5 0 0 1 0 2 0 2 0 4 1 5 2l36 34 46-15c2-1 5 0 7 2 3 1 4 4 3 7l-27 121c6 6 10 14 11 23 1 9 6 17 14 20 10 4 18 13 22 24 3 11 2 23-3 32-4 8-4 18 0 25z m-73-222c-4 1-6 0-8-2l-28-27-22 95c11 1 20 6 27 14 6 6 15 9 23 8 4-1 6-1 9-1 6 0 10 1 15 2l22-101-38 12z m60 190c3-6 4-13 2-20-2-6-7-11-13-15-14-5-22-17-24-32-1-14-15-24-29-21-14 3-29-1-38-12-5-6-11-8-18-8-7 0-13 3-18 8-8 8-19 13-30 13-3 0-5 0-8-1-2 0-3 0-6 0-12 0-22 9-24 21-1 15-10 27-23 32-6 4-11 8-14 15-2 7-1 14 3 20 7 12 7 27 0 40-3 6-4 13-3 19 3 6 8 12 14 15 13 6 22 18 23 32 2 13 12 22 24 22 2 0 4 0 6-1 3-1 5-1 8-1 11 0 22 5 30 14 5 5 11 8 18 8 7 0 13-4 18-8 9-10 24-16 38-13 14 3 28-7 29-21 2-14 10-26 24-32 6-3 11-8 13-15 2-6 2-14-2-19-7-12-7-28 0-40z" horiz-adv-x="1000" />

<glyph glyph-name="425776---card-credit-credit-card-creditcard-mastercard-paym" unicode="&#xe841;" d="M770-6h-462c-48 0-86 39-86 87v255c0 48 38 86 86 86h462c47 0 86-38 86-86v-255c0-48-39-87-86-87z m-462 412c-39 0-70-31-70-70v-255c0-40 31-71 70-71h462c39 0 70 31 70 71v255c0 39-31 70-70 70h-462z m276-261h-300c-5 0-8 3-8 8v35c0 4 3 7 8 7h300c5 0 8-3 8-7v-35c0-4-4-8-8-8z m-293 16h286v19h-286v-19z m380 98c-29 0-53 23-53 53s23 53 53 53c17 0 32-8 42-21 3-3 2-7-1-10-3-2-7-1-10 2-7 10-18 16-31 16-22 0-40-18-40-40s18-40 40-40c13 0 26 6 33 17 2 3 6 4 9 2s4-7 2-10c-9-14-26-22-44-22z m77 0c-17 0-32 7-42 21-2 3-1 7 2 9 3 2 7 2 9-1 8-11 20-16 32-16 22 0 40 18 40 40s-18 40-40 40c-13 0-26-7-33-18-2-3-6-3-9-1-3 2-4 6-1 9 10 15 26 24 43 24 29 0 53-24 53-53s-25-54-54-54z m-335-168h-129c-5 0-8 4-8 8s3 8 8 8h129c4 0 7-3 7-8s-4-8-7-8z m107 0h-32c-5 0-8 4-8 8s3 8 8 8h32c4 0 7-3 7-8s-4-8-7-8z m-326 272l-8 25 20 7c5 7 10 14 16 21l-40-13-19 60c0 0 0 1 0 1l576 178c0 0 0-1 0-1l19-60-415-128h52l367 113 36-116c6-2 12-3 18-6l-42 134v0c0 0 0 0 0 0l-21 67c-1 3-1 5-2 7 0 1 0 1 0 2 0 2-1 2-2 3-14 30-43 49-76 49-9 0-17-2-25-4l-443-137c-41-13-66-53-59-95 0-1 0-2 0-4 0 0 1-1 1-1 1-2 1-4 1-6l43-138v17c0 8 1 17 3 25z m15 187l443 137c7 2 13 3 20 3 25 0 48-13 60-34l-572-177c-2 32 17 62 49 71z m425-97l0 0 4 0c-1 0-3 0-4 0z m54 0l50 16 5-17h16l-8 29c-1 2-3 3-4 4s-4 1-6 1l-66-20c-4-2-6-6-5-10l0-3 18 0 0 0z m-107-362h-32c-4 0-8 4-8 8s4 8 8 8h32c5 0 8-3 8-8s-4-8-8-8z" horiz-adv-x="1000" />

<glyph glyph-name="425777---connect-connection-connectivity-internet-network-n" unicode="&#xe842;" d="M500 616c26 0 47 21 47 47s-21 46-47 46-47-21-47-46 21-47 47-47z m0 78c17 0 31-14 31-31s-14-32-31-32-31 14-31 32 14 31 31 31z m267-235c26 0 47 22 47 47s-21 47-47 47-47-21-47-47 21-47 47-47z m0 79c17 0 31-15 31-32s-14-31-31-31-31 14-31 31 14 32 31 32z m0-295c-26 0-47-21-47-47s21-47 47-47 47 21 47 47-21 47-47 47z m0-78c-17 0-31 14-31 31s14 31 31 31 31-14 31-31-14-31-31-31z m-267-78c-26 0-47-21-47-47s21-47 47-47 47 21 47 47-21 47-47 47z m0-78c-17 0-31 14-31 31s14 31 31 31 31-14 31-31-14-31-31-31z m-266 234c-25 0-46-21-46-47s21-47 46-47 47 21 47 47-21 47-47 47z m0-78c-17 0-31 14-31 31s14 31 31 31 32-14 32-31-14-31-32-31z m0 388c-25 0-46-21-46-47s21-47 46-47 47 22 47 47-21 47-47 47z m0-78c-17 0-31 14-31 31s14 32 31 32 32-15 32-32-14-31-32-31z m470 77l-133 78c-2-5-5-10-8-14l133-77c2 5 5 9 8 13z m-267 64c-3 4-6 9-8 14l-132-77c3-4 5-8 8-13l132 76z m324-342c2 0 4 0 6 0 3 0 6 0 10-1v156c-4-1-7-1-10-1-2 0-4 0-6 0v-154z m-66-47c3 5 5 10 8 14l-97 57c-3-5-5-10-8-14l97-57z m-397 14c4-3 6-8 8-13l97 56c-3 5-5 9-8 14l-97-57z m398 232l-99-57c3-5 5-9 8-14l99 58c-3 4-6 9-8 13z m-293-57l-98 57c-3-5-5-10-8-14l98-57c3 5 5 9 8 14z m-108-268l133-78c3 5 5 10 8 14l-132 77c-2-5-6-9-9-13z m-56 126v154c-1 0-3 0-5 0-3 0-7 0-11 1v-156c4 1 8 1 11 1 2 0 4 0 5 0z m326-190c3-3 5-8 8-14l133 78c-3 4-6 9-8 14l-133-78z m-65 332c-37 0-66-29-66-66s29-66 66-66 66 29 66 66-29 66-66 66z m0-117c-28 0-51 23-51 51s23 51 51 51 51-23 51-51-23-51-51-51z" horiz-adv-x="1000" />

<glyph glyph-name="425779---optimization-options-preferences-seo-settings-swit" unicode="&#xe843;" d="M834 663h-668c-14 0-25-11-25-26v-405-1-50c0-14 11-25 25-25h248c-2-22-11-89-13-111h-34c-4 0-8-3-8-7s4-8 8-8h266c5 0 8 3 8 8s-3 7-8 7h-34c-2 21-10 88-13 111h248c14 0 25 11 25 25v50 1 405c0 15-11 26-25 26z m-668-15h668c5 0 10-5 10-11v-397h-688v397c0 6 5 11 10 11z m418-603h-168c4 25 11 90 14 111h140c3-25 11-87 14-111z m250 126h-668c-5 0-10 5-10 10v43h688v-43c0-5-5-10-10-10z m-342 304v-191c0-5 3-8 8-8 5 0 8 3 8 8v191c23 4 40 23 40 47s-17 43-40 47v27c0 5-3 8-8 8s-8-3-8-8v-27c-22-4-40-24-40-47 0-24 18-43 40-47z m8 79c18 0 32-14 32-32s-14-32-32-32-32 14-32 32c0 18 14 32 32 32z m109-248v-22c0-5 3-8 7-8s8 3 8 8v22c23 3 40 23 40 46 0 24-17 43-40 47v197c0 5-3 8-8 8s-7-3-7-8v-197c-23-4-40-23-40-47 0-23 17-43 40-46z m7 78c18 0 32-14 32-32 0-18-14-32-32-32s-32 14-32 32c0 18 15 32 32 32z m-240-78v-22c0-5 3-8 8-8s7 3 7 8v22c23 3 40 23 40 46 0 24-17 43-40 47v197c0 5-3 8-7 8s-8-3-8-8v-197c-23-4-40-23-40-47 0-23 17-43 40-46z m8 78c18 0 32-14 32-32 0-18-14-32-32-32-18 0-32 14-32 32 0 18 14 32 32 32z" horiz-adv-x="1000" />

<glyph glyph-name="425780---access-data-database-lock-security-server-unlock" unicode="&#xe844;" d="M852 294h-232v104c0 55 46 100 101 100s101-45 101-100v-29c0-5 3-8 8-8s8 3 8 8v29c0 64-53 116-117 116s-116-52-116-116v-104h-14c-5 0-8-3-8-8v-177c0-26 22-48 49-48h178c28 0 49 22 49 48v177c0 4-3 8-7 8z m-8-185c0-18-15-32-34-32h-178c-19 0-34 14-34 32v169h246v-169z m-131 83v-29c0-5 3-8 8-8s8 3 8 8v29c12 3 22 14 22 28 0 15-13 28-30 28s-30-13-30-28c1-14 10-25 22-28z m8 40c8 0 14-5 14-12s-6-13-14-13-14 6-14 13c1 6 7 12 14 12z m-327 407c8 0 15-7 15-16s-7-15-15-15-16 7-16 15 7 16 16 16z m-81 0c8 0 15-7 15-16s-7-15-15-15-16 7-16 15 7 16 16 16z m-82 0c9 0 16-7 16-16s-7-15-16-15-15 7-15 15 7 16 15 16z m535-8h-271c-4 0-7-3-7-8s3-7 7-7h271c4 0 7 3 7 7s-3 8-7 8z m-372-226c8 0 15-7 15-16s-7-16-15-16-16 8-16 16 7 16 16 16z m-81 0c8 0 15-7 15-16s-7-16-15-16-16 8-16 16 7 16 16 16z m-82 0c9 0 16-7 16-16s-7-16-16-16-15 8-15 16 7 16 15 16z m257-16c0-5 3-8 7-8h86l0 16h-86c-4 0-7-3-7-8z m-94-226c8 0 15-7 15-16s-7-16-15-16-16 7-16 16 7 16 16 16z m-81 0c8 0 15-7 15-16s-7-16-15-16-16 7-16 16 7 16 16 16z m-82 0c9 0 16-7 16-16s-7-16-16-16-15 7-15 16 7 16 15 16z m257-16c0-5 3-8 7-8h57v16h-57c-4 0-7-3-7-8z m325 562h-625c-26 0-47-21-47-46v-79c0-25 21-46 47-46h304v-61c0-1 0-2 0-3h-304c-26 0-47-21-47-47v-78c0-26 21-47 47-47h304v-70h-304c-26 0-47-21-47-47v-78c0-26 21-47 47-47h304v-54h-344c-4 0-7-4-7-8s3-8 7-8h704c4 0 7 3 7 8s-3 8-7 8h-344v54h61c-4 5-7 10-10 16h-371c-18 0-32 14-32 31v79c0 17 14 31 32 31h364v16h-44v70h44v16h-364c-18 0-32 14-32 31v78c0 17 14 31 32 31l397 0 10 16h-88c0 1 1 2 1 2v61h305c25 0 46 21 46 46v79c0 25-21 46-46 46z m31-125c0-17-14-31-31-31h-625c-18 0-32 14-32 31v79c0 17 14 31 32 31h625c17 0 31-14 31-31v-79z" horiz-adv-x="1000" />

<glyph glyph-name="425781---approve-approved-check-checkmark-cloud-correct-ok" unicode="&#xe845;" d="M713 482c-12 0-24-1-36-3-43 66-117 105-196 105-115 0-210-80-231-191-4 1-9 1-12 1-75 0-137-61-137-135 1-78 63-143 137-143h475c104 0 186 79 186 182-1 101-84 184-186 184z m0-351h-475c-65 0-121 58-121 127 0 65 54 119 121 119 6 0 11 0 18-1 3-1 7 2 8 6 17 109 108 187 217 187 76 0 146-38 186-103 2-3 6-4 9-3 12 3 25 3 37 3 94 0 171-75 171-168-1-93-76-167-171-167z m-97 271l-147-187-84 107c-2 3-8 4-11 1-3-2-4-7-1-10l90-115c2-2 4-3 7-3s4 0 6 3l153 195c2 3 2 9-2 11-3 2-8 2-11-2z" horiz-adv-x="1000" />

<glyph glyph-name="425782---approval-approve-browser-confirm-confirmation-seo-" unicode="&#xe846;" d="M192 584c-6 0-11 6-11 12s5 12 11 12 12-6 12-12-6-12-12-12z m0 16c-2 0-4-2-4-4s2-4 4-4 4 2 4 4-2 4-4 4z m42-16c-6 0-11 6-11 12s4 12 11 12 12-6 12-12-5-12-12-12z m0 16c-2 0-3-2-3-4s1-4 3-4 4 2 4 4-2 4-4 4z m43-16c-7 0-12 6-12 12s5 12 12 12 11-6 11-12-5-12-11-12z m0 16c-3 0-4-2-4-4s1-4 4-4 4 2 4 4-3 4-4 4z m536 51h-625c-26 0-47-21-47-47v-508c0-26 21-47 47-47h625c25 0 46 21 46 47v508c0 26-21 47-46 47z m-625-16h625c17 0 31-14 31-31v-45h-688v45c0 17 14 31 32 31z m625-570h-625c-18 0-32 14-32 31v448h688v-448c0-17-14-31-31-31z m-155 363l-186-233-114 142c-2 3-8 4-11 1-3-3-4-8-1-11l120-149c0 0 1 0 1-1 0 0 0 0 1 0 0 0 1-1 1-1 0 0 1 0 1-1 0-1 2-1 3-1h0 0c0 0 2 0 3 1 0 0 1 0 1 1 0 0 0 0 0 1 0 0 0 0 1 0 0 0 1 0 1 1l192 240c2 3 2 9-1 11-4 3-9 2-12-1z" horiz-adv-x="1000" />

<glyph glyph-name="425783---cloud-connect-connection-data-base-datacenter-netw" unicode="&#xe847;" d="M238 241h475c104 0 186 79 186 182 0 101-83 184-186 184-11 0-23-1-35-3-44 66-118 105-197 105-115 0-210-80-231-192-4 1-9 1-12 1-75 0-137-61-137-135 1-77 63-142 137-142z m0 261c6 0 11 0 18-1 3-1 7 2 8 6 17 109 108 187 217 187 76 0 146-38 186-103 2-3 5-4 9-3 12 3 25 3 37 3 94 0 171-75 171-168 0-93-75-167-171-167h-475c-65 0-121 58-121 127 0 66 54 119 121 119z m653-441h-325c-1 32-26 59-58 62v79c0 4-3 7-8 7s-8-3-8-7v-79c-32-4-56-30-58-62h-325c-4 0-7-3-7-8s3-8 7-8h325c6-31 33-54 66-54s59 23 66 54h325c4 0 7 3 7 8s-3 8-7 8z m-391-55c-28 0-51 23-51 51s23 51 51 51 51-23 51-51-23-51-51-51z" horiz-adv-x="1000" />

<glyph glyph-name="425784---gear-install-seo-set-up-settings-setup-wrench" unicode="&#xe848;" d="M676 56l-49 34-57-20-15-58-50-5-25 55-59 10-42-42-45 21 5 60-46 38-58-15-29 41 35 49-21 56-58 15-5 50 55 25 10 59-42 43 21 45 60-5 38 46-15 58 41 29 49-35 57 21 15 57 50 5 25-55 59-10 42 42 45-21-5-60 46-38 58 15 29-41-35-49 21-56 57-16 5-50-55-25-10-59 42-42-15-34 11-14 24 51-45 45 8 43 57 26-6 72-61 17-15 40 36 52-42 58-61-16-34 28 6 63-66 30-44-44-43 7-25 57-72-6-17-61-40-15-52 36-58-41 16-61-28-34-63 6-30-66 45-44-8-43-57-25 6-72 61-17 15-40-36-52 41-59 61 16 34-28-6-62 66-31 44 45 43-8 27-57 72 6 16 61 41 15 51-36 11 7-12 13 0 0z m121-65c0 0 0 0 0 0-19 0-37 9-49 24l-138 174c-6-1-12-1-18-1-38 0-73 17-97 46-13 17-22 36-25 56-1 2 0 5 2 7 2 1 5 2 8 1l72-23c4-2 9-2 14-2 20 0 38 13 44 32 8 24-5 51-29 58l-72 24c-3 1-5 3-6 5s0 6 3 7c3 3 6 7 9 9 22 17 48 26 77 26 39 0 74-17 98-46 27-36 34-82 18-123l138-174c21-27 17-66-10-88-12-7-25-12-39-12z m-184 215c3 0 5-1 7-4l140-178c9-11 22-18 37-18h0c11 0 20 3 29 10 20 16 23 46 8 66l-141 178c-2 3-2 6-1 8 17 37 11 80-14 111-22 27-52 41-86 41-24 0-47-7-65-22l58-18c33-10 51-46 40-78-9-26-32-43-59-43-7 0-13 0-19 3l-59 18c4-13 10-25 19-36 20-26 52-42 85-42 7 0 14 1 20 2 1 1 1 2 1 2z" horiz-adv-x="1000" />

<glyph glyph-name="425785---browser-brush-design-draw-graphic-design-paint-web" unicode="&#xe849;" d="M192 584c-6 0-11 6-11 12s5 12 11 12 12-6 12-12-6-12-12-12z m0 16c-2 0-4-2-4-4s2-4 4-4 4 2 4 4-2 4-4 4z m42-16c-6 0-11 6-11 12s4 12 11 12 12-6 12-12-5-12-12-12z m0 16c-2 0-3-2-3-4s1-4 3-4 4 2 4 4-2 4-4 4z m43-16c-7 0-12 6-12 12s5 12 12 12 11-6 11-12-5-12-11-12z m0 16c-3 0-4-2-4-4s1-4 4-4 4 2 4 4-3 4-4 4z m582 12c-2-3-3-4-4-6-3-4-7-10-11-15v-32h-24c-4-5-9-10-14-15h37v-448c0-17-14-31-31-31h-624c-18 0-32 14-32 31v448h423c5 5 9 10 14 15h-437v45c0 17 14 31 32 31h482c5 5 11 10 18 16h-500c-26 0-47-21-47-47v-508c0-26 21-47 47-47h625c25 0 46 21 46 47v508c0 3 0 5 0 8z m-343-206c-1-4-3-8-3-11-13 7-28 10-43 7-32-6-49-36-42-75l1-7c0-1-1-3-2-5-4-5-12-9-25-9-4 0-8 0-12 1-3 1-6-1-9-3-1-3-1-6 1-9 15-19 45-31 76-31 18 0 35 4 51 12 34 16 50 43 43 72-2 5-4 10-6 15 2 0 5 1 7 2 40 17 104 68 168 132 59 59 163 178 134 207-3 3-9 5-14 5-32 0-111-57-193-138-63-62-113-126-132-165z m-14-116c-14-6-29-10-44-10-17 0-35 4-47 11 12 2 22 7 28 15 5 5 6 11 6 17l-1 7c-4 23 1 52 29 58 13 2 25 0 36-7l2-1c18-12 23-25 26-35 4-23-8-42-35-55z m45 89c-4-2-6-2-7-2-2 0-2 0-4 3-1 1-2 1-2 2l-3 2c-4 4-5 5 0 15 5 11 13 24 22 39l35-35c-16-11-30-19-41-24z m293 315c1 0 3 0 3-1 9-9-30-82-134-185-37-38-76-71-109-95l-37 37c24 33 57 71 95 109 87 88 158 135 182 135z" horiz-adv-x="1000" />

<glyph glyph-name="425786---database-hardware-optimization-seo-server-settings" unicode="&#xe84a;" d="M394 639c8 0 15-7 15-16s-7-15-15-15-16 7-16 15 7 16 16 16z m-81 0c8 0 15-7 15-16s-7-15-15-15-16 7-16 15 7 16 16 16z m-82 0c9 0 16-7 16-16s-7-15-16-15-15 7-15 15 7 16 15 16z m535-8h-271c-4 0-7-3-7-8s3-7 7-7h271c4 0 7 3 7 7s-3 8-7 8z m-372-226c8 0 15-7 15-16s-7-16-15-16-16 8-16 16 7 16 16 16z m-81 0c8 0 15-7 15-16s-7-16-15-16-16 8-16 16 7 16 16 16z m-82 0c9 0 16-7 16-16s-7-16-16-16-15 8-15 16 7 16 15 16z m257-16c0-5 3-8 7-8h9l10 16h-19c-4 0-7-3-7-8z m-94-226c8 0 15-7 15-16s-7-16-15-16-16 7-16 16 7 16 16 16z m-81 0c8 0 15-7 15-16s-7-16-15-16-16 7-16 16 7 16 16 16z m-82 0c9 0 16-7 16-16s-7-16-16-16-15 7-15 16 7 16 15 16z m264-24h33l5 13-43 0c-2-1-3-3-3-6 1-4 4-7 8-7z m349-31c0-17-14-31-31-31h-38l0-16h38c25 0 46 21 46 47v34l-15-24v-10z m-219-47h31l-8 16h-7l-16-16z m227-55h-344v55h70l-24 16h-366c-18 0-32 14-32 31v78c0 17 14 31 32 31h276l-3 16h-273c-26 0-47-21-47-47v-78c0-26 21-47 47-47h304v-55h-344c-4 0-7-3-7-8s3-7 7-7h704c4 0 7 3 7 7s-3 8-7 8z m-344 532h305c25 0 46 21 46 46v79c0 25-21 46-46 46h-625c-26 0-47-21-47-46v-79c0-25 21-46 47-46h304v-61c0-1 0-2 0-3h-304c-26 0-47-21-47-47v-78c0-26 21-47 47-47h296l-15 16h-281c-18 0-32 14-32 31v79c0 17 14 31 32 31h625c17 0 31-14 31-31v-76l15 0v76c0 26-21 47-46 47h-306c0 1 1 2 1 2v61z m-320 15c-18 0-32 14-32 31v79c0 17 14 31 32 31h625c17 0 31-14 31-31v-79c0-17-14-31-31-31h-625z m605-158l-39 25c-3 2-7 1-9-1l-32-32-26 4-20 42c-1 3-5 5-8 4l-46-10c-4-1-6-4-6-8l0-46-21-15-43 15c-3 2-7 0-9-3l-25-39c-3-3-2-7 0-9l32-32-4-26-42-19c-3-2-5-6-4-9l11-45c0-4 4-7 7-7l46 0 15-21-15-43c-2-4 0-7 3-10l39-25c3-2 7-1 9 1l32 32 26-5 20-41c1-3 4-5 7-5 0 0 0 0 1 0l46 10c3 1 6 4 6 8l0 46 22 16 43-16c3-1 7 0 9 3l25 39c2 4 2 8-1 10l-32 32 5 26 41 19c3 2 6 6 5 9l-10 45c-1 4-4 6-8 6l-45 0-17 22 16 43c1 3-1 7-4 10z m-7-86c2-3 4-3 6-3l43 0 7-33-39-19c-2-1-4-3-5-6l-6-33c-1-2 0-5 3-7l30-31-18-28-41 15c-2 1-4 1-7-1l-28-19c-2-2-3-4-3-6l0-43-33-7-18 39c-1 2-4 4-6 4l-33 7c-1 0-1 0-2 0-2 0-4-1-5-3l-31-30-28 18 15 40c1 3 1 5-1 7l-20 28c-1 3-3 4-6 4l-43 0-7 32 39 19c3 1 4 3 5 6l6 33c1 3 0 5-2 7l-31 31 18 28 41-15c2-1 5-1 7 1l28 19c2 2 3 4 3 7l0 43 33 7 19-39c1-3 3-4 5-5l34-6c2-1 5 0 7 2l30 30 29-18-15-40c-1-3-1-5 0-7l20-28z m-110 27c-10 0-20-2-29-5-21-8-38-23-47-43-9-21-10-43-2-65 11-32 43-54 78-54 9 0 19 1 29 5 21 8 37 23 47 43 9 21 10 43 2 64-12 33-43 55-78 55z m62-113c-8-16-22-28-39-35-8-3-15-4-23-4-28 0-54 18-64 45-6 17-6 35 2 52 8 16 21 28 38 35 8 3 16 4 24 4 28 0 54-18 64-45 5-16 5-35-2-52z" horiz-adv-x="1000" />

<glyph glyph-name="425787---cart-ecommerce-gear-optimization-optimize-seo-shop" unicode="&#xe84b;" d="M413 559l-4-26-42-20c-3-1-5-5-4-8l10-46c1-3 4-6 8-6l46 0 14-21-15-43c-2-3 0-7 3-9l39-25c3-3 7-2 9 1l32 32 26-5 20-42c1-3 4-4 7-4 1 0 1 0 1 0l46 10c4 1 6 4 6 8l0 45 21 15 43-16c3-1 7 0 9 3l25 39c3 4 2 7 0 10l-32 32 4 26 42 19c3 2 5 6 4 9l-11 47c0 4-4 7-7 7l-46 0-15 21 16 43c2 3 0 7-3 9l-39 25c-3 2-7 2-10-1l-32-32-25 5-20 41c-1 4-5 6-8 4l-47-11c-3 0-6-4-6-7l0-46-21-15-43 16c-3 2-7 0-9-3l-25-39c-3-3-2-7 1-10l32-32z m2 67l41-15c2-1 4-1 7 1l28 19c2 2 3 4 3 7l0 43 33 7 18-40c1-2 3-3 6-4l33-6c3-1 5 0 7 2l31 30 28-18-15-40c-1-3-1-5 1-7l20-28c1-3 3-4 6-4l43 0 7-32-39-19c-3-1-4-3-5-6l-4-32c-1-3 0-5 2-7l31-31-18-28-41 15c-2 1-4 1-7-1l-28-19c-2-2-3-4-3-7l0-43-33-7-19 39c0 3-3 4-5 5l-34 5c-1 0-1 0-2 0-2 0-4-1-5-3l-31-30-28 18 15 41c1 2 1 4-1 7l-19 28c-2 2-4 3-7 3l-43 0-7 33 39 18c3 1 4 3 5 6l6 33c1 3 0 5-2 7l-31 31 17 29z m443-62c-2 2-4 3-6 3h-96l3-15h82l-68-257c-3-15-17-23-30-24l-423-39-70 320h125l0 0-16 15h-112l-16 74c-4 22-23 37-45 37h-38c-4 0-7-3-7-8s3-7 7-7h38c14 0 27-11 30-25l17-78c0 0 0 0 0-1 0-1 1-2 1-3l84-387c4-21 23-37 45-37h387c5 0 8 3 8 8s-3 8-8 8h-387c-15 0-27 10-29 25l-11 44 422 39c22 2 40 17 44 36l70 266c0 2 0 5-1 6z m-311-126c9 0 19 2 29 6 21 8 37 22 47 43 9 20 10 43 2 64-12 33-44 55-78 55-9 0-20-2-29-5-21-8-37-23-47-43-9-21-10-44-2-65 12-33 43-55 78-55z m-62 113c8 16 21 29 38 35 8 3 16 4 24 4 28 0 54-18 64-45 6-17 5-35-2-51-8-17-21-29-39-35-7-3-15-4-23-4-28 0-54 18-64 44-6 17-5 35 2 52z m-109-463c-26 0-47-21-47-47s21-47 47-47c26 0 47 22 47 47 0 26-21 47-47 47z m0-78c-17 0-31 14-31 31 0 18 14 32 31 32s31-14 31-32c0-17-14-31-31-31z m343 78c-26 0-47-21-47-47s21-47 47-47c26 0 47 22 47 47 0 26-21 47-47 47z m0-78c-17 0-31 14-31 31 0 18 14 32 31 32s31-14 31-32-14-31-31-31z" horiz-adv-x="1000" />

</font>
</defs>
</svg>
