<?xml version="1.0" encoding="utf-8"?>
<!-- Generator: Adobe Illustrator 24.2.3, SVG Export Plug-In . SVG Version: 6.00 Build 0)  -->
<svg version="1.1" id="Layer_1" xmlns="http://www.w3.org/2000/svg" xmlns:xlink="http://www.w3.org/1999/xlink" x="0px" y="0px"
	 viewBox="0 0 486.7 317.2" style="enable-background:new 0 0 486.7 317.2;" xml:space="preserve">
<style type="text/css">
	.st0{fill:#0C394C;}
</style>
<g>
	<path class="st0" d="M63,208.8c-19-55.6,6.2-72.5,6.2-72.5l15.1,30.2c0,0,37.6-70.5,51.8-81.3c0,0,27.1,18.5,37.1,18.9
		c0,0,25.5,6.9,49.1-59.9c0,0,8.4,21.8,24.4,24.7c15.6,2.8,22.8-6.2,22.8-6.2s10.8,21.7,10.3,32.1c0,0,23.6-12.1,48.7-7.5
		c0,0-3.3,24.4,17.6,30c20.9,5.7,26.3-1.3,26.3-1.3s-14.2,17.8-5.3,30.5s27.9,9.1,27.9,9.1s15.1-3.2,29-1c0,0-21.4,33.5-1.7,63
		c0,0-5.1,20.6,9.2,23.9c13.3,3.1,17.6-9.1,17.6-9.1s23.9,9.8,21.4,34.4s-20.4,31.4-20.4,31.4s-10.8,3.5-12.5-5.1
		c-1.3-7-6-12.6-16.3-8.3c-8.3,3.5-3.2,20.1-3.2,20.1c3.9,13.3,22.6,12.3,22.6,12.3c57-6.1,44.9-67.9,44.9-67.9
		c-5.4-27.2-26.8-36.4-38.1-39.4c-19.2-33,9.9-68.6,9.9-68.6c-10.8-10.8-29.2-12.4-38.9-12.1c-7.8,0.3-15.4,2.9-23.2,2.3
		c-1.4-0.1-2.9-0.3-4.1-1.1c-6.9-4.3,1.2-14.5,3.2-18.6c4.4-9,6.5-19,5.7-29c-1.1-13.6-7.4-26.7-17.3-35.6c0.4,7.4,0.7,14.8-0.9,22
		c-1.6,7.2-5.4,14.1-11.6,17.6c-19.9,11.3-21.9-18.4-12.1-29.2c-20-6.2-45.4-6.4-64.1,6.6c-1.9-15.6,0.6-34.3-26.4-44.8
		c4.2,13-10.6,28.8-23.6,17.6c-7.2-6.2-6.1-27.6-4.2-36.6c-14.1-2.8-32.1,11.7-36,24.4c-1.6,5.3-2.5,10.8-4.8,15.8
		c-2.4,5-14.8,31.3-24.4,31c-16-0.6-30.9-17.3-30.6-31.5c0,0-14.8-2.5-32.7,29.3c-25.2,44.7-26.5,49.2-26.5,49.2
		c-2.6-11-5.2-22-7.9-33c0,0-71.1,43.6-35,124.6C29.8,212.5,1.7,221.8,0.4,258c0,0-7.4,49.6,42.9,57.4c0,0,16.2,1.1,18.5-7.1
		c2.3-8.2,2.1-13.3,2.1-13.3s-1.6-10.7-12.9-8.4c-11.3,2.3-10.4,15.1-10.4,15.1c-21.2-7.4-24.4-26.4-24.4-26.4S15,266,19.1,246
		c4.1-20,26.1-16,26.1-16s13.9,16.2,24.1,3.5S63,208.8,63,208.8z"/>
	<path class="st0" d="M280,311.6c-1,0-2-0.3-2.7-1.1c-3.3-3-11.5-9.5-15.1-11.3c-3.3-1.6-9.2-2.1-12-1c-0.7,0.3-1.4,0.7-2.1,1.2
		c-1.4,0.9-3.1,1.9-5.2,2.4c-2.6,0.6-6.9,0.2-7.7,0.1l-0.9-0.2c-1.7-0.6-3.1-1.4-4.4-2.1c-0.8-0.5-1.6-1-2.5-1.3
		c-2.8-1.1-8.7-0.7-12,1c-3.5,1.7-11.8,8.3-15.1,11.3c-1.7,1.5-4.2,1.4-5.8-0.3c-1.5-1.7-1.4-4.2,0.3-5.8c3-2.7,12.2-10.2,16.9-12.5
		c4.8-2.4,13.1-3.4,18.7-1.2c1.3,0.5,2.5,1.2,3.5,1.8c0.9,0.5,1.7,1,2.5,1.3c1.7,0.1,3.8,0.2,4.6,0c0.7-0.2,1.7-0.7,2.6-1.3
		c1-0.6,2.1-1.3,3.3-1.8c5.6-2.3,13.9-1.2,18.7,1.2c4.8,2.3,13.9,9.8,16.9,12.5c1.7,1.5,1.8,4.1,0.3,5.8
		C282.2,311.2,281.1,311.6,280,311.6z"/>
	<path class="st0" d="M53.8,253c0,0-13.7-8.8-15.3,6.8s17,16.8,16.3,11S53.8,253,53.8,253z"/>
	<path class="st0" d="M439.2,256.3c0,0,13.7-8.8,15.3,6.8c1.5,15.6-17,16.8-16.3,11S439.2,256.3,439.2,256.3z"/>
	<path class="st0" d="M365.8,178.1c-0.2-0.1-0.4-0.1-0.5-0.2c-34.7-20.2-80.1-31.9-124.7-31.9c-45.5,0-89.3,11.1-123.3,31.1
		c-0.1,0.1-0.2,0.2-0.3,0.3c-0.1,0.1-0.2,0.2-0.3,0.3c-0.1,0.1-0.1,0.2-0.1,0.3c-0.1,0.1-0.2,0.3-0.2,0.5c0,0.1,0,0.2,0,0.2
		c0,0.2-0.1,0.4,0,0.6c0,0.1,0,0.1,0.1,0.2c0,0.2,0.1,0.4,0.2,0.6l0,0l0,0c0,0.1,0.1,0.1,0.1,0.1c0.1,0.2,0.3,0.4,0.5,0.5
		c0.1,0,0.1,0.1,0.2,0.1c0.2,0.1,0.4,0.2,0.6,0.2c0.1,0,0.2,0,0.3,0c0.2,0,0.4,0,0.6,0c0.1,0,0.2-0.1,0.3-0.1c0.1,0,0.3-0.1,0.4-0.1
		c33.9-18.7,77.2-28.3,122-27c44.3,1.3,86.6,13.2,119.1,33.5c0.4,0.2,0.8,0.3,1.2,0.3l0,0c2,0.3,4.2-0.8,5.4-2.9
		C368.6,182.3,368,179.3,365.8,178.1z M274.3,152.6c-0.5-0.1-1.1-0.1-1.6-0.2C273.3,152.4,273.8,152.5,274.3,152.6L274.3,152.6z"/>
	<path class="st0" d="M238.8,213.2c3.5,0,16-4.2,18.5-5c0.4-0.1,40.5-13.3,70-2.3c1.3,0.5,2.8-0.2,3.3-1.5s-0.2-2.8-1.5-3.3
		c-31.1-11.6-71.7,1.7-73.4,2.3c-6.9,2.3-15.1,4.7-16.8,4.7s-9.9-2.4-16.8-4.7c-1.7-0.6-42.3-13.9-73.4-2.3c-1.3,0.5-2,2-1.5,3.3
		s2,2,3.3,1.5c29.4-10.9,69.6,2.2,70,2.3C222.8,209,235.3,213.2,238.8,213.2z"/>
	<g>
		<path class="st0" d="M201.9,256.9c0-1.2,0-2.4-0.1-3.6c-1.5-13.7-12.4-23.7-24.4-22.4c-12,1.3-20.4,13.5-18.9,27.1
			c0.3,2.9,1.1,5.5,2.2,8C169.7,261.5,187.5,253.9,201.9,256.9z"/>
		<path class="st0" d="M151.9,277.9c0.5-0.1,1.1-0.3,1.5-0.8c24.4-28.4,63.8-14.6,64.2-14.5c1.2,0.4,2.5-0.2,2.9-1.4
			c0.4-1.2-0.2-2.5-1.4-2.9c-0.4-0.1-42.7-15-69.1,15.8c-0.8,0.9-0.7,2.4,0.2,3.2C150.6,277.7,151.3,277.9,151.9,277.9z"/>
	</g>
	<g>
		<path class="st0" d="M275.7,256.9c0-1.2,0-2.4,0.1-3.6c1.5-13.7,12.4-23.7,24.4-22.4c12,1.3,20.4,13.5,18.9,27.1
			c-0.3,2.9-1.1,5.5-2.2,8C307.9,261.5,290,253.9,275.7,256.9z"/>
		<path class="st0" d="M325.7,277.9c-0.5-0.1-1.1-0.3-1.5-0.8c-24.4-28.4-63.8-14.6-64.2-14.5c-1.2,0.4-2.5-0.2-2.9-1.4
			c-0.4-1.2,0.2-2.5,1.4-2.9c0.4-0.1,42.7-15,69.1,15.8c0.8,0.9,0.7,2.4-0.2,3.2C326.9,277.7,326.3,277.9,325.7,277.9z"/>
	</g>
</g>
</svg>
