<?xml version="1.0" encoding="utf-8"?>
<!-- Generator: Adobe Illustrator 24.2.3, SVG Export Plug-In . SVG Version: 6.00 Build 0)  -->
<svg version="1.1" id="Layer_1" xmlns="http://www.w3.org/2000/svg" xmlns:xlink="http://www.w3.org/1999/xlink" x="0px" y="0px"
	 viewBox="0 0 100 100" style="enable-background:new 0 0 100 100;" xml:space="preserve">
<style type="text/css">
	.st0{fill:#004D71;}
	.st1{fill:#FFFFFF;}
</style>
<g>
	<circle class="st0" cx="50" cy="50" r="50"/>
	<path class="st1" d="M80.5,33.3c-2.2,1-4.5,1.6-6.9,1.9c2.5-1.5,4.4-3.8,5.3-6.6C76.6,30,74,31,71.3,31.5c-2.2-2.3-5.3-3.8-8.8-3.8
		c-6.6,0-12,5.4-12,12c0,0.9,0.1,1.9,0.3,2.7c-10-0.5-18.8-5.3-24.7-12.5c-1,1.8-1.6,3.8-1.6,6c0,4.2,2.1,7.8,5.3,10
		c-2-0.1-3.8-0.6-5.4-1.5c0,0.1,0,0.1,0,0.2c0,5.8,4.1,10.7,9.6,11.8c-1,0.3-2.1,0.4-3.2,0.4c-0.8,0-1.5-0.1-2.3-0.2
		c1.5,4.8,6,8.2,11.2,8.3c-4.1,3.2-9.3,5.1-14.9,5.1c-1,0-1.9-0.1-2.9-0.2c5.3,3.4,11.6,5.4,18.4,5.4c22.1,0,34.1-18.3,34.1-34.1
		c0-0.5,0-1,0-1.6C76.8,37.8,78.9,35.7,80.5,33.3z"/>
</g>
</svg>
