<?xml version="1.0" encoding="utf-8"?>
<!-- Generator: Adobe Illustrator 24.2.3, SVG Export Plug-In . SVG Version: 6.00 Build 0)  -->
<svg version="1.1" id="Layer_1" xmlns="http://www.w3.org/2000/svg" xmlns:xlink="http://www.w3.org/1999/xlink" x="0px" y="0px"
	 viewBox="0 0 100 100" style="enable-background:new 0 0 100 100;" xml:space="preserve">
<style type="text/css">
	.st0{fill:#004D71;}
	.st1{fill:#FFFFFF;}
</style>
<g>
	<circle class="st0" cx="50" cy="50" r="50"/>
	<g>
		<path class="st1" d="M45.5,61.4c-0.1,0.1-0.2,0.3-0.3,0.4c-1.8,1.8-3.5,3.5-5.3,5.3c-1,1-2.1,1.7-3.4,2.1c-3.4,1-6.6-1-7.1-4.4
			c-0.3-2,0.4-3.8,1.6-5.3c0.2-0.2,0.4-0.4,0.6-0.6c3.4-3.4,6.7-6.7,10.1-10.1c2.6-2.6,6.6-3.1,9.2-0.5c1.2,1.2,3.4,1,4.5-0.3
			c1.2-1.3,1.2-3.3-0.1-4.6c-2.4-2.4-5.4-3.5-8.8-3.5c-3.7,0.1-6.9,1.5-9.5,4.2c-3.4,3.4-6.7,6.7-10.1,10.1C25,56.1,23.6,58.4,23,61
			c-0.2,0.7-1.1,3.3,0.5,7.3c2,5.3,7.5,8.5,13.2,7.6c3.1-0.5,5.6-1.9,7.8-4.1c3-3,6-6,9-9c0.1-0.1,0.2-0.2,0.2-0.2
			C50.8,63.3,48.1,62.9,45.5,61.4z"/>
		<path class="st1" d="M74.5,31.1c-2.7-6.6-12.1-11.4-20.6-4c-3.4,2.9-6.3,6.3-9.5,9.5l-0.1,0.1c2.9-0.6,5.5-0.2,8.1,1.3
			c0.1-0.1,0.2-0.3,0.3-0.4c1.8-1.8,3.5-3.5,5.3-5.3c0.7-0.6,1.4-1.2,2.2-1.7c3.6-1.9,7.7,0.1,8.3,4c0.3,2.2-0.5,4.1-2,5.6
			c-3.5,3.6-7,7.1-10.6,10.6c-2.4,2.4-6.3,2.8-8.9,0.3c-1.3-1.3-3.4-1.1-4.6,0.2c-1.2,1.3-1.2,3.4,0.1,4.6c0.6,0.6,1.3,1.2,2,1.6
			c4.8,3.1,11.2,2.3,15.3-1.5c3.9-3.7,8-7.2,11.5-11.4C77.2,37.9,75.5,33.5,74.5,31.1z"/>
	</g>
</g>
</svg>
