<?xml version="1.0" encoding="utf-8"?>
<!-- Generator: Adobe Illustrator 24.2.3, SVG Export Plug-In . SVG Version: 6.00 Build 0)  -->
<svg version="1.1" id="Layer_1" xmlns="http://www.w3.org/2000/svg" xmlns:xlink="http://www.w3.org/1999/xlink" x="0px" y="0px"
	 viewBox="0 0 100 100" style="enable-background:new 0 0 100 100;" xml:space="preserve">
<style type="text/css">
	.st0{fill:#004D71;}
	.st1{fill-rule:evenodd;clip-rule:evenodd;fill:#FFFFFF;}
</style>
<g>
	<circle class="st0" cx="50" cy="50" r="50"/>
	<g>
		<polygon class="st1" points="27.2,38.8 38.2,38.8 38.2,71.7 27.2,71.7 		"/>
		<path class="st1" d="M66.9,54.8c0-5.5-2.2-8.1-5.6-8.1c-3,0-6,2.2-6,7v18h-11V38.8h11V43c2-3,5-5,9.8-5c10.6,0,12.8,8.1,12.8,15.2
			v18.6h-11V54.8L66.9,54.8z"/>
		<path class="st1" d="M32.8,22.6c3.4,0,6.2,2.6,6.2,5.8c0,3.2-2.8,5.8-6.2,5.8c-3.4,0-6.2-2.6-6.2-5.8
			C26.6,25.3,29.4,22.6,32.8,22.6L32.8,22.6z"/>
	</g>
</g>
</svg>
