<?xml version="1.0" encoding="utf-8"?>
<!-- Generator: Adobe Illustrator 25.1.0, SVG Export Plug-In . SVG Version: 6.00 Build 0)  -->
<svg version="1.1" id="white" xmlns="http://www.w3.org/2000/svg" xmlns:xlink="http://www.w3.org/1999/xlink" x="0px" y="0px"
	 viewBox="0 0 200 200" style="enable-background:new 0 0 200 200;" xml:space="preserve">
<style type="text/css">
	.st0{fill:#EE302D;}
	.st1{fill:#E6E6E5;}
	.st2{fill:#FFD160;}
	.st3{fill:none;stroke:#FFFFFF;stroke-width:5;stroke-miterlimit:10;}
	.st4{fill:none;stroke:#FFFFFF;stroke-width:1.5;stroke-miterlimit:10;}
	.st5{clip-path:url(#SVGID_2_);fill:none;stroke:#FFFFFF;stroke-width:1.5956;stroke-miterlimit:10;}
	.st6{clip-path:url(#SVGID_4_);fill:none;stroke:#FFFFFF;stroke-width:1.5956;stroke-miterlimit:10;}
	.st7{fill:#FFFFFF;stroke:#FFFFFF;stroke-miterlimit:10;}
</style>
<path class="st0" d="M98.6,8C98.6,8,98.6,8,98.6,8C98.6,8,98.6,8,98.6,8z"/>
<path class="st0" d="M98.6,7.6C98.6,7.6,98.6,7.6,98.6,7.6C98.6,7.6,98.6,7.6,98.6,7.6z"/>
<path class="st1" d="M98.7,7.6c-0.1,0.1-0.2,0.2-0.3,0.3C98.5,7.9,98.6,7.8,98.7,7.6z"/>
<path class="st2" d="M98.8,73.2c-0.1,0-0.2,0-0.4,0C98.5,73.2,98.6,73.2,98.8,73.2z"/>
<path class="st2" d="M98.4,73.2c0.1,0,0.2,0,0.4,0l0,0C98.6,73.2,98.5,73.2,98.4,73.2z"/>
<polygon class="st2" points="98.6,73.2 98.6,73.2 98.6,73.2 "/>
<path class="st3" d="M146.6,159.1h-96c-3.9,0-7-3.1-7-7V11.2c0-3.9,3.1-7,7-7h96c3.9,0,7,3.1,7,7v140.8
	C153.6,155.9,150.4,159.1,146.6,159.1z"/>
<path class="st4" d="M135.6,36.3H61.5c-4.4,0-7.9-3.6-7.9-7.9v0c0-4.4,3.6-7.9,7.9-7.9h74.1c4.4,0,7.9,3.6,7.9,7.9v0
	C143.6,32.7,140,36.3,135.6,36.3z"/>
<path class="st4" d="M135.6,64.8H61.5c-4.4,0-7.9-3.6-7.9-7.9v0c0-4.4,3.6-7.9,7.9-7.9h74.1c4.4,0,7.9,3.6,7.9,7.9v0
	C143.6,61.2,140,64.8,135.6,64.8z"/>
<path class="st4" d="M135.6,121.8H61.5c-4.4,0-7.9-3.6-7.9-7.9v0c0-4.4,3.6-7.9,7.9-7.9h74.1c4.4,0,7.9,3.6,7.9,7.9v0
	C143.6,118.2,140,121.8,135.6,121.8z"/>
<g>
	<path class="st4" d="M86.9,93.3H61.5c-4.4,0-7.9-3.6-7.9-7.9v0c0-4.4,3.6-7.9,7.9-7.9h25.4c4.4,0,7.9,3.6,7.9,7.9v0
		C94.8,89.7,91.3,93.3,86.9,93.3z"/>
	<path class="st4" d="M135.6,93.3h-25.4c-4.4,0-7.9-3.6-7.9-7.9v0c0-4.4,3.6-7.9,7.9-7.9h25.4c4.4,0,7.9,3.6,7.9,7.9v0
		C143.6,89.7,140,93.3,135.6,93.3z"/>
</g>
<g>
	<defs>
		<polygon id="SVGID_1_" points="43.4,33.5 5.6,33.5 5.6,192 121.4,192 118.3,181.9 83.8,181.5 43.4,160.3 23,108.5 39.4,49.3 
			43.6,43.8 		"/>
	</defs>
	<clipPath id="SVGID_2_">
		<use xlink:href="#SVGID_1_"  style="overflow:visible;"/>
	</clipPath>
	<circle class="st5" cx="100" cy="104.1" r="85"/>
</g>
<g>
	<defs>
		<polygon id="SVGID_3_" points="153.3,34.1 191.6,34.1 191.6,190.1 150.2,190.1 138.2,174.8 162.8,156.5 158,48 153.6,47.2 		"/>
	</defs>
	<clipPath id="SVGID_4_">
		<use xlink:href="#SVGID_3_"  style="overflow:visible;"/>
	</clipPath>
	<circle class="st6" cx="100" cy="104.1" r="85"/>
</g>
<g>
	<g>
		<path class="st7" d="M158.6,182.2l-1-0.9c-0.1-0.1-0.1-0.1-0.2-0.2l-15-13.2l12.2-7.1l0.1-0.1c1.4-1.1,2.1-2.8,1.8-4.6
			c-0.3-1.8-1.6-3.2-3.3-3.7l-49-13.6l0,0c-1.8-0.5-3.7,0-4.9,1.4c-1.2,1.4-1.5,3.3-0.8,5l19.6,47c0.7,1.6,2.3,2.7,4.1,2.8
			c1.8,0.1,3.4-0.8,4.3-2.4l0.1-0.1l5.5-13l16.2,14.3c1.4,1.2,3,1.8,4.7,1.9c2.3,0.1,4.6-0.8,6.2-2.6l0,0c0-0.1,0.1-0.1,0.1-0.2
			c1.2-1.4,1.8-3.2,1.8-4.9C161.3,185.9,160.4,183.7,158.6,182.2z"/>
		<path class="st7" d="M153.5,195.7c-0.1,0-0.3,0-0.4,0c-1.8-0.1-3.4-0.8-4.7-1.9l-16.1-14.3l-5.5,12.9l-0.1,0.1
			c-0.9,1.6-2.6,2.5-4.4,2.4c-1.8-0.1-3.4-1.2-4.1-2.8l-19.6-47c-0.8-1.7-0.5-3.7,0.8-5.1c1.2-1.4,3.1-1.9,4.9-1.4l0,0l49,13.6
			c1.7,0.5,3,1.9,3.3,3.7c0.3,1.8-0.4,3.6-1.8,4.6l-0.1,0.1l-12.1,7.1l15,13.2c0.1,0.1,0.1,0.1,0.2,0.2l1,0.9
			c1.7,1.5,2.6,3.6,2.6,5.9c0,1.8-0.7,3.6-1.8,4.9c0,0.1-0.1,0.1-0.1,0.2C157.9,194.8,155.7,195.7,153.5,195.7z M132.2,179.4
			l16.2,14.3c1.3,1.2,2.9,1.8,4.7,1.9c2.4,0.1,4.6-0.8,6.2-2.6c0-0.1,0.1-0.1,0.1-0.2c1.1-1.4,1.8-3.1,1.8-4.9
			c0-2.2-0.9-4.4-2.6-5.8l-1-0.9c-0.1-0.1-0.1-0.1-0.2-0.2l-15-13.3l0,0l12.2-7.1l0.1-0.1c1.4-1.1,2.1-2.8,1.8-4.6
			c-0.3-1.7-1.6-3.1-3.2-3.7l-49-13.6l0,0c-1.8-0.5-3.6,0-4.9,1.4c-1.2,1.4-1.5,3.3-0.8,5l19.6,47c0.7,1.6,2.3,2.7,4,2.8
			c1.8,0.1,3.4-0.8,4.3-2.3l0.1-0.1L132.2,179.4z"/>
	</g>
	<g>
		<path class="st7" d="M74.1,121.2l12.8,11.3c0.5,0.4,1.1,0.6,1.7,0.6c0.6,0,1.2-0.3,1.7-0.8c0.9-1,0.8-2.5-0.2-3.4l-12.8-11.3h0
			c-1-0.9-2.5-0.8-3.4,0.2C73,118.8,73.1,120.3,74.1,121.2z"/>
		<path class="st7" d="M88.5,133.1c-0.6,0-1.2-0.2-1.6-0.6l-12.8-11.3c-1-0.9-1.1-2.4-0.2-3.5c0.9-1,2.4-1.1,3.5-0.2l12.8,11.3
			c0.5,0.4,0.8,1,0.8,1.7c0,0.7-0.2,1.3-0.6,1.8c-0.4,0.5-1,0.8-1.7,0.8C88.6,133.1,88.5,133.1,88.5,133.1z M75.7,117
			c-0.7,0-1.3,0.3-1.8,0.8c-0.9,1-0.8,2.5,0.2,3.4l12.8,11.3c0.5,0.4,1.1,0.6,1.7,0.6c0.6,0,1.2-0.3,1.6-0.8
			c0.4-0.5,0.6-1.1,0.6-1.7c0-0.6-0.3-1.2-0.8-1.6l-12.8-11.3C76.8,117.2,76.3,117,75.7,117z"/>
	</g>
	<g>
		<path class="st7" d="M101.7,128.9c1.3-0.1,2.3-1.2,2.3-2.6l-1.6-26.4c-0.1-1.3-1.2-2.3-2.6-2.3c-1.3,0.1-2.3,1.2-2.3,2.6l1.6,26.4
			C99.3,128,100.4,129,101.7,128.9z"/>
		<path class="st7" d="M101.6,128.9c-1.3,0-2.4-1-2.4-2.3l-1.6-26.4c0-0.7,0.2-1.3,0.6-1.8c0.4-0.5,1-0.8,1.7-0.8
			c1.3-0.1,2.5,0.9,2.6,2.3l1.6,26.4c0,0.7-0.2,1.3-0.6,1.8c-0.4,0.5-1,0.8-1.7,0.8l0,0l0,0C101.7,128.9,101.6,128.9,101.6,128.9z
			 M100,97.7c0,0-0.1,0-0.1,0c-0.6,0-1.2,0.3-1.6,0.8c-0.4,0.5-0.6,1.1-0.6,1.7l1.6,26.4c0,0.6,0.3,1.2,0.8,1.6
			c0.5,0.4,1.1,0.6,1.7,0.6c0.6,0,1.2-0.3,1.6-0.8c0.4-0.5,0.6-1.1,0.6-1.7l-1.6-26.4c0-0.6-0.3-1.2-0.8-1.6
			C101.1,97.9,100.5,97.7,100,97.7z"/>
	</g>
	<g>
		<path class="st7" d="M113.4,131.1L113.4,131.1c0.5,0.4,1.1,0.6,1.7,0.6c0.6,0,1.2-0.3,1.7-0.8l9.4-10.6c0.4-0.5,0.6-1.1,0.6-1.7
			c0-0.6-0.3-1.2-0.8-1.7c-0.5-0.4-1.1-0.6-1.7-0.6c-0.6,0-1.2,0.3-1.7,0.8l-9.4,10.6C112.3,128.7,112.4,130.2,113.4,131.1z"/>
		<path class="st7" d="M115,131.8c-0.6,0-1.2-0.2-1.6-0.6l0,0c-1-0.9-1.1-2.4-0.2-3.5l9.4-10.6c0.4-0.5,1-0.8,1.7-0.8
			c0.7,0,1.3,0.2,1.8,0.6c0.5,0.4,0.8,1,0.8,1.7c0,0.7-0.2,1.3-0.6,1.8l-9.4,10.6c-0.4,0.5-1,0.8-1.7,0.8
			C115.1,131.8,115.1,131.8,115,131.8z M113.5,131.1c0.5,0.4,1.1,0.6,1.7,0.6c0.6,0,1.2-0.3,1.6-0.8l9.4-10.6
			c0.4-0.5,0.6-1.1,0.6-1.7c0-0.6-0.3-1.2-0.8-1.6c-0.5-0.4-1.1-0.6-1.7-0.6c-0.6,0-1.2,0.3-1.6,0.8l-9.4,10.6
			C112.4,128.7,112.5,130.2,113.5,131.1L113.5,131.1z"/>
	</g>
	<g>
		<path class="st7" d="M91.4,155.4c-0.5-0.4-1.1-0.6-1.7-0.6c-0.6,0-1.2,0.3-1.7,0.8l-9.4,10.6c-0.4,0.5-0.6,1.1-0.6,1.7
			c0,0.6,0.3,1.2,0.8,1.7c0.5,0.4,1.1,0.6,1.7,0.6c0.6,0,1.2-0.3,1.7-0.8l9.4-10.6C92.5,157.8,92.4,156.3,91.4,155.4z"/>
		<path class="st7" d="M80.5,170.3c-0.6,0-1.2-0.2-1.6-0.6c-0.5-0.4-0.8-1-0.8-1.7s0.2-1.3,0.6-1.8l9.4-10.6c0.4-0.5,1-0.8,1.7-0.8
			c0.7,0,1.3,0.2,1.8,0.6l0,0c1,0.9,1.1,2.4,0.2,3.5l-9.4,10.6c-0.4,0.5-1,0.8-1.7,0.8C80.6,170.3,80.5,170.3,80.5,170.3z
			 M89.8,154.9c-0.1,0-0.1,0-0.2,0c-0.6,0-1.2,0.3-1.6,0.8l-9.4,10.6c-0.4,0.5-0.6,1.1-0.6,1.7c0,0.6,0.3,1.2,0.8,1.6
			c0.5,0.4,1.1,0.6,1.7,0.6c0.6,0,1.2-0.3,1.6-0.8l9.4-10.6c0.4-0.5,0.6-1.1,0.6-1.7c0-0.6-0.3-1.2-0.8-1.6l0,0
			C91,155.1,90.4,154.9,89.8,154.9z"/>
	</g>
	<g>
		<path class="st7" d="M88.1,144c-0.1-1.3-1.2-2.3-2.6-2.3l-26.4,1.6c-1.3,0.1-2.3,1.2-2.3,2.6c0.1,1.3,1.2,2.3,2.6,2.3l26.4-1.6
			C87.1,146.4,88.1,145.3,88.1,144z"/>
		<path class="st7" d="M59.3,148.2c-1.3,0-2.4-1-2.4-2.3c-0.1-1.3,0.9-2.5,2.3-2.6l26.4-1.6c0.7,0,1.3,0.2,1.8,0.6
			c0.5,0.4,0.8,1,0.8,1.7c0.1,1.3-0.9,2.5-2.3,2.6l-26.4,1.6C59.4,148.2,59.3,148.2,59.3,148.2z M85.7,141.7c0,0-0.1,0-0.1,0
			l-26.4,1.6c-1.3,0.1-2.3,1.2-2.2,2.5c0.1,1.3,1.2,2.3,2.5,2.2l26.4-1.6c0.6,0,1.2-0.3,1.6-0.8c0.4-0.5,0.6-1.1,0.6-1.7
			c0-0.6-0.3-1.2-0.8-1.6C86.8,141.9,86.2,141.7,85.7,141.7z"/>
	</g>
</g>
<text transform="matrix(1 0 0 1 -164.3996 191.8849)" style="fill:#FFFFFF; font-family:'MuseoSans-700'; font-size:23px;"> </text>
</svg>
