<?xml version="1.0" encoding="utf-8"?>
<!-- Generator: Adobe Illustrator 25.1.0, SVG Export Plug-In . SVG Version: 6.00 Build 0)  -->
<svg version="1.1" id="white" xmlns="http://www.w3.org/2000/svg" xmlns:xlink="http://www.w3.org/1999/xlink" x="0px" y="0px"
	 viewBox="0 0 200 200" style="enable-background:new 0 0 200 200;" xml:space="preserve">
<style type="text/css">
	.st0{fill:#EE302D;}
	.st1{fill:#E6E6E5;}
	.st2{fill:#FFD160;}
	.st3{fill:none;stroke:#FFFFFF;stroke-width:1.5;stroke-miterlimit:10;}
	.st4{fill:#FFFFFF;}
	.st5{clip-path:url(#SVGID_2_);fill:none;stroke:#FFFFFF;stroke-width:1.5956;stroke-miterlimit:10;}
	.st6{clip-path:url(#SVGID_4_);fill:none;stroke:#FFFFFF;stroke-width:1.5956;stroke-miterlimit:10;}
	.st7{clip-path:url(#SVGID_6_);fill:none;stroke:#FFFFFF;stroke-width:1.5956;stroke-miterlimit:10;}
</style>
<path style="display:inline;fill:#EE302D;" d="M94.1,8C94.1,8,94.1,8,94.1,8C94.1,8,94.1,8,94.1,8z"/>
<path style="display:inline;fill:#EE302D;" d="M94.4,7.6C94.4,7.6,94.4,7.6,94.4,7.6C94.4,7.6,94.4,7.6,94.4,7.6z"/>
<path style="display:inline;fill:#E6E6E5;" d="M94.4,7.6c-0.1,0.1-0.2,0.2-0.3,0.3C94.2,7.9,94.3,7.8,94.4,7.6z"/>
<path style="display:inline;fill:#FFD160;" d="M105.1,71.3c-0.1,0-0.2,0-0.4,0C104.9,71.2,105,71.3,105.1,71.3z"/>
<path style="display:inline;fill:#FFD160;" d="M104.4,71.2c0.1,0,0.2,0,0.4,0l0,0C104.6,71.2,104.5,71.2,104.4,71.2z"/>
<polygon style="display:inline;fill:#FFD160;" points="104.8,71.2 104.8,71.2 104.8,71.2 "/>
<path style="display:inline;fill:none;stroke:#FFFFFF;stroke-width:1.5;stroke-miterlimit:10;" d="M35,132.4l-9.9-0.2
	c-1.3,0-2.3-1.1-2.3-2.4l1.7-86.4c0-1.3,1.1-2.3,2.4-2.3l147.9,2.9c1.3,0,2.3,1.1,2.3,2.4l-1,48.9"/>
<path style="display:inline;fill:#FFFFFF;" d="M174.9,44.1L27,41.2c-1.3,0-2.3,1-2.4,2.3l-0.2,11.7l152.5,3l0.2-11.7
	C177.2,45.1,176.1,44.1,174.9,44.1z M32.2,50.8c-1.6,0-2.8-1.3-2.8-2.9c0-1.6,1.3-2.8,2.9-2.8s2.8,1.3,2.8,2.9S33.7,50.8,32.2,50.8z
	 M39.4,50.9c-1.6,0-2.8-1.3-2.8-2.9c0-1.6,1.3-2.8,2.9-2.8c1.6,0,2.8,1.3,2.8,2.9C42.2,49.7,40.9,51,39.4,50.9z M46.8,51.1
	c-1.6,0-2.8-1.3-2.8-2.9c0-1.6,1.3-2.8,2.9-2.8c1.6,0,2.8,1.3,2.8,2.9C49.7,49.9,48.4,51.1,46.8,51.1z M172.8,51.8
	c0,1-0.8,1.7-1.8,1.7L56.5,51.3c-1,0-1.7-0.8-1.7-1.8l0-2.1c0-1,0.8-1.7,1.8-1.7l114.5,2.2c1,0,1.7,0.8,1.7,1.8L172.8,51.8z"/>
<g style="display:inline;">
	<defs>
		<polygon id="SVGID_1_" points="167.4,148.4 175.5,174.3 175.5,196.3 9.6,196.3 9.6,60.9 24.5,61 24.5,70.5 21.5,76.3 19.5,123.5 
			22.2,135.7 38.6,160.1 63.6,176.1 123.7,181.6 		"/>
	</defs>
	<clipPath id="SVGID_2_">
		<use xlink:href="#SVGID_1_"  style="overflow:visible;"/>
	</clipPath>
	<circle class="st5" cx="98.5" cy="104.1" r="85"/>
</g>
<g style="display:inline;">
	<defs>
		<polygon id="SVGID_3_" points="34.6,38.4 34.6,42.8 45.7,42.8 98.9,23.3 151,45.7 165.2,45.7 165.2,12.9 34.4,12.9 		"/>
	</defs>
	<clipPath id="SVGID_4_">
		<use xlink:href="#SVGID_3_"  style="overflow:visible;"/>
	</clipPath>
	<circle class="st6" cx="98.5" cy="104.1" r="85"/>
</g>
<g style="display:inline;">
	<defs>
		<polygon id="SVGID_5_" points="176.8,62.4 176.1,95.3 187.9,99.2 187.4,62.2 		"/>
	</defs>
	<clipPath id="SVGID_6_">
		<use xlink:href="#SVGID_5_"  style="overflow:visible;"/>
	</clipPath>
	<circle class="st7" cx="98.5" cy="104.1" r="85"/>
</g>
<path style="display:inline;fill:#FFFFFF;" d="M158.4,87.7c1.4,1,4.6,3.8,4.6,3.8l-0.2-0.7c0,0,1.3,0.1,1.9-0.3
	c0.6-0.3,0-5.2-2.2-6.9c-0.7-0.6-5.1-0.7-6-0.2c-0.9,0.6-0.3,2.4-0.3,2.4S157,86.7,158.4,87.7z"/>
<path style="display:inline;fill:#FFFFFF;" d="M184.1,113.4l-1.9-8.7c6.3-0.8,9.3-1.9,8.7-3.6c0,0,0.4-2.9-6.1-5
	c-3.9-1.2-15.2-3.1-22.3-3.9c-7.4-0.8-17.4-2-32.5-2c-13.8,0-39.4,0.6-49,1.7c-5.3,0.9-6.5-12.1-7.4-15.1c-2.6-8,55-6.2,61.2-4.4
	c3.2,0.9,14.6,7.4,14.6,7.4s-4.1-4.4-10-7c-3.7-1.7-6.4-3-13.9-3.7c-0.1-0.6-0.4-1.5-1.6-1.8c-2.1-0.6-11.6-1.1-16-0.6
	c-4.5,0.5-6.2,1.1-6.2,1.1s14-0.3,17.4,0.3c0.8,0.2,1.2,0.4,1.6,0.6c-5.6-0.2-13.2-0.1-24.1,0.2c-8.6,0.3-15.5,0.8-21.2,1.4
	c-0.5-0.6-2.1-2.3-3.9-2.5c-4.4-0.7-12,1.4-15.9,3.3c-3.9,2-3.9,2-3.9,2s11.5-3.3,16.3-2.6c0.8,0.1,1.3,0.3,1.6,0.5
	c-11.9,1.7-16.9,4.2-21,6.9c-6.2,4.3-9.7,18.5-11.1,20.3c-0.6,0.8-1.2,2.4-1.7,3.9l1.9-0.3c10.6-1.4,26.6-3.6,36.5-3.8
	c5.7-0.2,9.4,1.8,11.8,4.1l2.2,2.5c0.3,0.4,0.6,0.8,0.8,1.2c0,0,6.5,9.9,8.6,11.1c19.7,11.9,96.7,6,97.7-4.7
	c0.1-1.3,0.2-3.8,0.2-3.8C194.7,111.7,186,113.6,184.1,113.4z M72.1,94.1c-2.4,0.3-4.2,0.5-4.3-0.3c0-0.2,0-0.7,0-1.4l0-1.6
	c-0.1-1.8-0.4-3.7-1.6-4.1c-2.1-0.7-9.9,0.3-10.5,1.1c-0.8,1.2-2.6,6.1-1,7.9c0.4,0.4,2.1,0.7,3.9,0.8c-9.5,1-17.7,1.1-17.9-1.5
	c1.4-3.4,3.6-8.5,7-11.9c3.9-3.8,9.9-5.3,13.9-5.3C67,77.9,73.7,88.5,72.1,94.1z M104.7,116.4c-7.2-1.5-8.8-5.9-9.8-7.2
	c-0.3-0.4-0.9-2.1-0.9-2.5c7.1,0.8,22.2,0,23.2,0c0.5,0,1.1,0,1.9,0l2.3,10.5C116.9,117.3,109.5,117.3,104.7,116.4z M178.4,114.4
	c-1.8,1.2-37.2,3.7-48.6,2.3l-0.5-1.7l0,0l-1.5-4.6l-1.2-3.6c11.6,0,30.3-0.3,41.7-0.9c3.1-0.2,5.9-0.4,8.4-0.6
	c0.2,0.2,0.4,0.5,0.5,0.8c0.2,0.6,0.5,1.7,0.8,2.8l0.5,2.4c0,0,0,0,0,0C178.9,113,178.9,114.1,178.4,114.4z"/>
<path style="display:inline;fill:#FFFFFF;" d="M199.1,128.1c-0.2-5.1-2.2-10.7-2.2-11.7c-9.2,10.7-90.5,12.2-99.2,5.7
	c-6.7-5-7.1-8.1-11.2-12.3c-7.2-7.2-44.6-3.7-50.1-3.4l-1.4,0.1c0,0.2-0.1,0.3-0.1,0.4c-0.1,0.6-0.2,2.6-0.3,4.3
	c-0.4,1.8-0.6,3.3-0.6,3.3c0.9-1.2,7.2-4,9.9,7.1c0.7,3.1,1.2,15.2,3.7,20.3c-1.2-0.9-2.1-3-2.9-6.3c-1.5-5.5-3.9-17.6-6.9-19
	c-2.3-1.1-3.4-0.6-3.9,0.4c-0.4,0.8-1.6,6.4,0.9,17.5l0.6,2.4c-0.1,1-0.1,2.1-0.1,3.2c0,8.7,1.7,14.9,3.8,15.8
	c2.8,1.3,11.6,0.7,13.3-0.2c1.7-0.9,2.1-6.6,2.1-6.6s3.4-1.5,4.7-2c6.7,1,13.8,1.8,14.7,1.9c0,0.1,0,0.3,0,0.4
	c0,12.5,3.7,22.8,8.4,23.9c3.9,1.5,18.3-1,20.2-2.3c1.9-1.3,4.1-11.8,4.6-13.7c7.6-3.2,52.4-6.5,56.8-6.6c0.4,0,0.9,0,1.4,0
	c0.2,0.6,0.4,1.5,0.8,2.6c1.1,3.1,4.8,8.9,7.9,9.8c3.1,0.9,9.5,2.6,17-2.3c4.6-3,5.6-9.1,5.7-13.4l-0.4-0.7c0.6-0.4,1-0.9,1.2-1.3
	C198.3,143.1,199.3,133.2,199.1,128.1z M38.5,152.5c-1.7,0-3.1-5.3-3.1-11.8c0-6.5,1.4-11.8,3.1-11.8c1.7,0,3.1,5.3,3.1,11.8
	C41.6,147.2,40.2,152.5,38.5,152.5z M49.9,142.9l18.9-0.4l1.9-1.7c0,0,1.1,4.9,1.3,5.4C72.4,146.9,49.9,142.9,49.9,142.9z
	 M82.5,168.1c-3.9,0-7-8.4-7-18.7c0-10.3,3.1-18.7,7-18.7c3.4,0,7,8.2,7,18.7C89.6,159.7,86.4,168.1,82.5,168.1z M87.8,125.3
	c-1.5-4.2-3.3-7.2-7-8.1c-10.1-2.3-10.8,4.9-10.1,18.1c0,0-3-14.8,0.3-19.1c1.6-2.1,4.4-4.9,8.5-4.7c3.4,0.1,6.4,2.2,8.3,6.3
	c2.2,4.7,7.8,27,7.8,27C92.7,138.2,88.7,128.1,87.8,125.3z M106.8,140.2l-2.5-10.2c-0.6-0.4-2-1.7-2-1.7s14.8,0.2,18,0.3
	c3.2,0.2,3,1.5,0,7C117.5,140.5,111.6,140.5,106.8,140.2z M185.1,145.4c-16.3,1.4-48.3,4-55.7,4.1c-3.5,0.1-8.1,0.1-12.8,0
	c0,0,0,0,0,0l32-3.9l-27.1,0.3l37.4-4.6l-38.9,0.5l51.9-5.2l-48.7,0.5c7.4-3.3,60.8-4.6,63.1-2.4c1.1,1,2.1,5.3,2.7,8.3
	C189.4,144.7,186.8,145.3,185.1,145.4z M197.3,131.1c-0.2,2.9-3.3,3.7-4.5,2.3c-0.9-1-4.4-8.6-2.9-8.5c4.7,0.1,4.7-0.9,7-2.1
	C196.9,122.9,197.4,130.5,197.3,131.1z"/>
</svg>
