<?xml version="1.0" encoding="utf-8"?>
<!-- Generator: Adobe Illustrator 24.2.3, SVG Export Plug-In . SVG Version: 6.00 Build 0)  -->
<svg version="1.1" id="Layer_4" xmlns="http://www.w3.org/2000/svg" xmlns:xlink="http://www.w3.org/1999/xlink" x="0px" y="0px"
	 viewBox="0 0 200 200" style="enable-background:new 0 0 200 200;" xml:space="preserve">
<style type="text/css">
	.st0{fill:none;stroke:#FFFFFF;stroke-width:1.5956;stroke-miterlimit:10;}
	.st1{clip-path:url(#SVGID_2_);fill:#FFFFFF;}
	.st2{clip-path:url(#SVGID_4_);fill:none;stroke:#FFFFFF;stroke-width:0.798;stroke-miterlimit:10;}
	.st3{fill:#FFFFFF;}
	.st4{fill:#EE302D;}
	.st5{fill:#E6E6E5;}
	.st6{fill:#FFD160;}
</style>
<circle class="st0" cx="98.5" cy="104.1" r="85"/>
<g>
	<defs>
		<circle id="SVGID_1_" cx="98.5" cy="104.1" r="85"/>
	</defs>
	<clipPath id="SVGID_2_">
		<use xlink:href="#SVGID_1_"  style="overflow:visible;"/>
	</clipPath>
	<path class="st1" d="M173.4,137c-2.1,0-4.1,0.3-6.1,0.9c-4.6-6.3-12-10.4-20.4-10.4c-11.9,0-21.8,8.2-24.5,19.2
		c-0.7-0.1-1.5-0.1-2.3-0.1c-9.3,0-17.3,5.4-21.2,13.2c-2.1-0.6-4.2-0.9-6.5-0.9c-8.5,0-15.9,4.5-20,11.1c-2.5-2.9-6.2-4.8-10.4-4.8
		c-6.3,0-11.7,4.3-13.1,10.2c-1.7-0.9-3.6-1.4-5.6-1.4c-6.3,0-11.5,5.1-11.5,11.3c0,0.8,0.1,1.6,0.2,2.3c-1.3-0.4-2.7-0.7-4.1-0.7
		c-6.2,0-11.3,4.3-12.6,10h58.4h24.7H179v-59.2C177.2,137.3,175.3,137,173.4,137z"/>
</g>
<g>
	<defs>
		<circle id="SVGID_3_" cx="98.5" cy="104.1" r="85"/>
	</defs>
	<clipPath id="SVGID_4_">
		<use xlink:href="#SVGID_3_"  style="overflow:visible;"/>
	</clipPath>
	<path class="st2" d="M173.2,128.6c-0.5,0-0.9,0.1-1.4,0.2c0.7-1.4,1.2-3,1.2-4.8c0-5.7-4.6-10.3-10.3-10.3c-2.7,0-5.2,1.1-7.1,2.8
		c0,0,0,0,0,0c-1.2-5.7-6.4-10-12.5-10c-7,0-12.8,5.7-12.8,12.8c0,0.1,0,0.2,0,0.3c-1.1-0.3-2.3-0.4-3.5-0.3c-1.4-1.3-3-2.3-4.8-3
		c-1.4-0.5-2.9-0.8-4.5-0.8c-7.4,0-13.4,6-13.4,13.4c0,2.3,0.6,4.5,1.7,6.4c-2.9,2.2-4.9,5.3-5.6,9c-0.8-0.2-1.6-0.4-2.5-0.5
		c-1.5-5.3-5.5-9.5-10.6-11.4c-1.8-0.6-3.7-1-5.7-1c-5.2,0-9.8,2.3-12.9,6c-0.6,0.7-1.2,1.5-1.7,2.4c-1.6-2.1-4.1-3.5-7-3.5
		c-0.9,0-1.8,0.1-2.6,0.4c-3.6,1.1-6.2,4.4-6.2,8.4c0,0.7,0.1,1.4,0.3,2.1c-3.4,2.1-5.8,5.5-6.3,9.4c-2.7,1.2-4.8,3.4-5.8,6.2
		c-1.8-1.2-3.9-1.9-6.2-1.9c-3.1,0-5.9,1.3-7.9,3.3c-1.6-1.7-3.9-2.8-6.4-2.8c-3.4,0-6.4,2-7.8,4.8c-0.8-0.4-1.7-0.6-2.7-0.6
		c-2.5,0-4.7,1.5-5.6,3.7c-1-0.6-2.1-1-3.3-1c-3.4,0-6.1,2.7-6.1,6.1c0,2.5,1.5,4.6,3.6,5.6c-0.1,0.7-0.2,1.5-0.2,2.3
		c0,3.8,1.6,7.1,4.3,9.4h42.6c2.3-1.6,3.8-4,4.2-6.8c1.8-0.8,3.2-2.2,4.1-3.9c2.5,4.3,7.2,7.1,12.5,7.1c4.1,0,7.8-1.7,10.4-4.4
		c2.1,2.3,5.1,3.7,8.5,3.7c4.5,0,8.4-2.6,10.3-6.3c1.1,0.5,2.3,0.8,3.5,0.8c3.3,0,6.2-2,7.4-4.9c1.3,0.8,2.7,1.3,4.3,1.3
		c4.4,0,8-3.6,8-8c0-3.3-2-6.1-4.8-7.3c0.1-0.6,0.2-1.3,0.2-1.9c1.1,0.2,2.3,0.3,3.4,0.2c1.2-0.1,2.4-0.3,3.6-0.7
		c2.6,3.5,6.8,5.7,11.5,5.4c2.4-0.2,4.6-0.9,6.4-2.2c1.9,2.3,4.8,3.7,8,3.5c3.1-0.2,5.8-1.9,7.4-4.4c3.3,2.7,7.6,4.2,12.2,3.9
		c4.4-0.3,8.4-2.2,11.2-5.2c1,0.5,2.1,0.9,3.2,1.1v-32.6C177.3,129,175.3,128.4,173.2,128.6z"/>
</g>
<g>
	<path class="st3" d="M118.9,55.8c-1.1-4.1-3.1-7.5-5.4-10c-0.8-0.8-2.1-0.3-2.1,0.8c0,0,0,0,0,0c0.1,0.1,0.2,0.3,0.3,0.4
		c0,0.1,0,0.1,0,0.2c-0.1,6.5-1.4,13.3-2.9,19.2c2.1,2,3.9,4.7,5.4,7.9c-0.1,0.1-0.1,0.2-0.1,0.3l0,0c0.1,0.2,0.3,0.3,0.5,0.2
		C119.3,72.4,121.2,64.3,118.9,55.8z"/>
	<path class="st3" d="M88.2,66.4c-1.5-5.9-2.9-12.6-2.9-19.2c0-0.1,0-0.1,0-0.2c0.1-0.1,0.2-0.3,0.3-0.4c0,0,0,0,0,0
		c0-1.1-1.4-1.7-2.1-0.8c-2.3,2.5-4.2,5.9-5.4,10c-2.4,8.5-0.5,16.5,4.2,19.1c0.2,0.1,0.4,0,0.5-0.2l0,0c0-0.1,0-0.2-0.1-0.3
		C84.3,71.2,86.1,68.5,88.2,66.4z"/>
	<path class="st3" d="M110.4,47c0,8.1-1.9,16.6-3.8,23.4c-0.2,0.6-0.7,1-1.3,1H91.7c-0.6,0-1.1-0.4-1.3-1
		c-1.9-6.8-3.8-15.3-3.8-23.4H110.4z"/>
	<path class="st3" d="M99.6,8.7c-0.6-0.6-1.6-0.6-2.2,0c-3.3,3.2-13.2,14-13.2,31.8c0,9.7,2.3,19.9,4.6,28c0.2,0.7,0.8,1.2,1.5,1.2
		h16.4c0.7,0,1.3-0.5,1.5-1.2c2.3-8.1,4.6-18.3,4.6-28C112.8,22.7,102.9,11.9,99.6,8.7z M98.4,39.9c-4.7,0-8.4-3.8-8.4-8.4
		s3.8-8.4,8.4-8.4c4.7,0,8.4,3.8,8.4,8.4S103.1,39.9,98.4,39.9z"/>
</g>
<path class="st4" d="M96.7,5.1C96.6,5.1,96.6,5.1,96.7,5.1C96.6,5.1,96.6,5.1,96.7,5.1z"/>
<path class="st4" d="M96.2,5.5C96.2,5.6,96.2,5.6,96.2,5.5C96.2,5.6,96.2,5.6,96.2,5.5z"/>
<path class="st4" d="M101.4,6.2c-0.1-0.1-0.2-0.2-0.2-0.3C101.3,6.1,101.3,6.1,101.4,6.2z"/>
<path class="st4" d="M96.5,5.3C96.4,5.3,96.4,5.3,96.5,5.3C96.4,5.3,96.4,5.3,96.5,5.3z"/>
<path class="st4" d="M96.9,4.9C96.8,4.9,96.8,4.9,96.9,4.9C96.8,4.9,96.8,4.9,96.9,4.9z"/>
<path class="st4" d="M101.1,5.9c-0.1-0.1-0.2-0.2-0.3-0.3C100.9,5.7,101,5.8,101.1,5.9z"/>
<path class="st4" d="M100.7,5.5c-0.1-0.1-0.2-0.2-0.2-0.2C100.6,5.3,100.7,5.4,100.7,5.5z"/>
<path class="st4" d="M94.1,8C94.1,8,94.1,8,94.1,8C94.1,8,94.1,8,94.1,8z"/>
<path class="st4" d="M100.1,4.9c-0.1-0.1-0.2-0.2-0.2-0.2C100,4.7,100,4.8,100.1,4.9z"/>
<path class="st4" d="M102.2,7.1C102.1,7,102,6.9,102,6.8C102,6.9,102.1,7,102.2,7.1z"/>
<path class="st4" d="M94.4,7.6C94.4,7.6,94.4,7.6,94.4,7.6C94.4,7.6,94.4,7.6,94.4,7.6z"/>
<path class="st4" d="M100.4,5.2c-0.1-0.1-0.2-0.2-0.3-0.3C100.2,5,100.3,5.1,100.4,5.2z"/>
<path class="st4" d="M96,5.8C96,5.8,95.9,5.8,96,5.8C95.9,5.8,96,5.8,96,5.8z"/>
<path class="st4" d="M101.8,6.7c-0.1-0.1-0.2-0.2-0.3-0.4C101.6,6.5,101.7,6.6,101.8,6.7z"/>
<path class="st5" d="M100.5,5.2C100.5,5.2,100.4,5.2,100.5,5.2C100.4,5.2,100.5,5.2,100.5,5.2z"/>
<path class="st5" d="M102.3,7.2C102.3,7.2,102.3,7.2,102.3,7.2C102.2,7.2,102.2,7.1,102.3,7.2C102.2,7.1,102.2,7.2,102.3,7.2z"/>
<path class="st5" d="M102,6.8c0,0-0.1-0.1-0.1-0.1C101.9,6.7,101.9,6.8,102,6.8z"/>
<path class="st5" d="M101.5,6.3c0,0-0.1-0.1-0.1-0.1C101.5,6.3,101.5,6.3,101.5,6.3z"/>
<path class="st5" d="M100.8,5.6C100.8,5.5,100.8,5.5,100.8,5.6C100.8,5.5,100.8,5.5,100.8,5.6z"/>
<path class="st5" d="M101.1,5.9"/>
<path class="st5" d="M100.2,4.9C100.1,4.9,100.1,4.9,100.2,4.9C100.1,4.9,100.1,4.9,100.2,4.9z"/>
<path class="st5" d="M96.2,5.6C96.1,5.7,96,5.7,96,5.8C96,5.7,96.1,5.7,96.2,5.6z"/>
<path class="st5" d="M95.9,5.8c-0.5,0.5-1,1.1-1.6,1.8C94.9,7,95.5,6.4,95.9,5.8z"/>
<path class="st5" d="M96.4,5.4c-0.1,0.1-0.1,0.1-0.2,0.2C96.3,5.5,96.3,5.4,96.4,5.4z"/>
<path class="st5" d="M94.4,7.6c-0.1,0.1-0.2,0.2-0.3,0.3C94.2,7.9,94.3,7.8,94.4,7.6z"/>
<path class="st5" d="M96.6,5.2c0,0-0.1,0.1-0.1,0.1C96.5,5.3,96.5,5.2,96.6,5.2z"/>
<path class="st5" d="M97,4.8c0,0-0.1,0.1-0.1,0.1C96.9,4.8,97,4.8,97,4.8z"/>
<path class="st5" d="M96.8,4.9c0,0-0.1,0.1-0.1,0.1C96.7,5,96.8,5,96.8,4.9z"/>
<path class="st6" d="M98.9,73.2c-0.1,0-0.2,0-0.4,0C98.6,73.2,98.7,73.2,98.9,73.2z"/>
<path class="st6" d="M98.1,73.2c0.1,0,0.2,0,0.4,0l0,0C98.4,73.2,98.3,73.2,98.1,73.2z"/>
<polygon class="st6" points="98.5,73.2 98.5,73.2 98.5,73.2 "/>
<g>
	<path class="st3" d="M106.9,88.8c-0.3,3.7-1.8,7.7-3.5,11.1l3.6,64.6h9.2L106.9,88.8z"/>
	<path class="st3" d="M90.1,88.8l-9.3,75.7H90l3.6-64.6C91.9,96.5,90.3,92.5,90.1,88.8z"/>
</g>
<path class="st3" d="M99,75.1c-0.2,0-0.3,0-0.5,0c-0.2,0-0.3,0-0.5,0c-4.9,0.2-8.8,4.2-8.8,13.8c0,9.9,9.3,22.1,9.3,22.1
	c0,0,9.3-12.2,9.3-22.1C107.8,79.3,103.9,75.3,99,75.1z M98.5,101.5c0,0-5.1-8-5.1-14.5c0-6.5,2.3-9.1,5.1-9.1
	c2.8,0,5.1,2.6,5.1,9.1C103.6,93.5,98.5,101.5,98.5,101.5z"/>
</svg>
