<?xml version="1.0" encoding="utf-8"?>
<!-- Generator: Adobe Illustrator 24.2.3, SVG Export Plug-In . SVG Version: 6.00 Build 0)  -->
<svg version="1.1" id="Orange_Outline" xmlns="http://www.w3.org/2000/svg" xmlns:xlink="http://www.w3.org/1999/xlink" x="0px"
	 y="0px" viewBox="0 0 278 278" style="enable-background:new 0 0 278 278;" xml:space="preserve">
<style type="text/css">
	.st0{fill:none;stroke:#F05325;stroke-width:5;stroke-linecap:round;stroke-linejoin:round;stroke-miterlimit:10;}
	.st1{fill:none;stroke:#F05325;stroke-width:5;stroke-miterlimit:10;}
</style>
<g>
	
		<rect x="204.7" y="83.4" transform="matrix(0.8784 -0.478 0.478 0.8784 -31.2824 119.0874)" class="st0" width="27.3" height="75.1"/>
	<path class="st0" d="M188.4,94.5l35.9,66l-11.9,17.1c-3.6,5.2-8.4,9.5-14,12.6l-60.5,32.9c-5,2.7-11.2,0.9-13.9-4.1l0,0
		c-2.7-5-0.9-11.2,4.1-13.9l21-11.4l-33,18c-5,2.7-11.2,0.9-13.9-4.1l0,0c-2.7-5-0.9-11.2,4.1-13.9l33-18l-45,24.5
		c-5,2.7-11.2,0.9-13.9-4.1l0,0c-2.7-5-0.9-11.2,4.1-13.9l45-24.5l-33,18c-5,2.7-11.2,0.9-13.9-4.1l0,0c-2.7-5-0.9-11.2,4.1-13.9
		l13.5-7.4"/>
	
		<rect x="14.4" y="113.2" transform="matrix(0.2411 -0.9705 0.9705 0.2411 -83.6456 146.7649)" class="st0" width="75.1" height="27.3"/>
	<path class="st0" d="M72.1,180.2l-15.9-13.6l18.1-72.9l20.4-4.6c6.2-1.4,12.7-1.3,18.8,0.2l53.6,13.3c5.5,1.4,8.8,6.9,7.5,12.4l0,0
		c-1.4,5.5-6.9,8.8-12.4,7.5l-29.8-7.4l0,0c-3.6,14.6-18.5,23.6-33.1,19.9l-6.6-1.6"/>
</g>
<circle class="st1" cx="139" cy="139" r="135.3"/>
</svg>
