<?xml version="1.0" encoding="utf-8"?>
<!-- Generator: Adobe Illustrator 24.2.3, SVG Export Plug-In . SVG Version: 6.00 Build 0)  -->
<svg version="1.1" id="Orange_Outline" xmlns="http://www.w3.org/2000/svg" xmlns:xlink="http://www.w3.org/1999/xlink" x="0px"
	 y="0px" viewBox="0 0 278 278" style="enable-background:new 0 0 278 278;" xml:space="preserve">
<style type="text/css">
	.st0{fill:none;stroke:#F05325;stroke-width:5;stroke-miterlimit:10;}
	.st1{fill:#F05325;stroke:#F05325;stroke-width:0.75;stroke-miterlimit:10;}
	.st2{fill:none;stroke:#F05325;stroke-width:5.7;stroke-linecap:round;stroke-linejoin:round;stroke-miterlimit:10;}
	.st3{fill:none;stroke:#F05325;stroke-width:5.7;stroke-linecap:round;stroke-miterlimit:10;}
</style>
<circle class="st0" cx="139" cy="139" r="135.3"/>
<g>
	<g>
		<path class="st1" d="M119.5,177.2c-6.1,0-11.1-5-11.1-11.1c0-2.2,0.7-4.4,1.9-6.2c0.7-1,0.4-2.4-0.6-3.2c-1-0.7-2.4-0.4-3.2,0.6
			c-1.7,2.6-2.7,5.6-2.7,8.7c0,1.9,0.4,3.7,1,5.4c-0.2,0-0.4,0-0.6,0c-7.3,0-13.3-6-13.3-13.3c0-0.6,0-1.1,0.1-1.7c0,0,0-0.1,0-0.1
			c0,0,0,0,0-0.1c0.3-2.2,1.2-4.3,2.5-6.1c0.8-1,0.5-2.4-0.5-3.2c-1-0.8-2.4-0.5-3.2,0.5c-1.4,1.8-2.3,3.8-2.9,6
			c-5.5-1.6-11-7.3-11.1-14.1c0-3.8,1.4-7.5,4.2-10.2c2.8-2.8,6.4-4.3,10.4-4.3c0.3,0,0.6,0,0.9,0c0.9,8.1,7.8,14.4,16.1,14.4
			c8.9,0,16.2-7.3,16.2-16.2c0-2.8-0.7-5.5-2-7.8c1.6-1,2.9-2.4,3.8-4.1c0.6-1.1,0.2-2.5-0.9-3.1c-1.1-0.6-2.5-0.2-3.1,0.9
			c-1.2,2.2-3.5,3.5-5.9,3.5c-3.7,0-6.7-3-6.7-6.7c0-1.3-1-2.3-2.3-2.3s-2.3,1-2.3,2.3c0,6.2,5.1,11.3,11.3,11.3
			c0.6,0,1.2-0.1,1.8-0.2c1.2,1.9,1.8,4,1.8,6.2c0,6.4-5.2,11.6-11.6,11.6c-6.4,0-11.6-5.2-11.6-11.6c0-2.5,0.8-4.9,2.3-7
			c0.8-1,0.5-2.4-0.5-3.2c-1-0.8-2.4-0.5-3.2,0.5c-1.6,2.1-2.6,4.5-3,7c-0.3,0-0.7,0-1,0c-5.2,0-10,2-13.6,5.7
			c-0.6,0.6-1.1,1.2-1.6,1.9c-3.3-2.4-5.3-6.3-5.3-10.5c0-5.4,3.4-10.2,8.4-12.1c0.3,2.7,1.5,5.3,3.4,7.4c0.4,0.5,1.1,0.7,1.7,0.7
			c0.5,0,1.1-0.2,1.5-0.6c0.9-0.8,1-2.3,0.2-3.2c-1.5-1.7-2.3-3.8-2.3-6c0-0.2,0-0.3,0-0.5c0.1-0.4,0.2-0.7,0.1-1.1c0,0,0,0,0,0
			c0.3-1.7,1.1-3.3,2.3-4.5c0.9-0.9,0.8-2.3-0.1-3.2c-0.9-0.9-2.3-0.8-3.2,0.1c-1.7,1.7-2.8,3.9-3.3,6.1c-2.5,0.7-4.8,1.9-6.8,3.5
			c-0.9-2.1-1.4-4.4-1.4-6.7c0-5.6,2.8-10.6,7.1-13.6c0.2-0.1,0.4-0.2,0.6-0.4c2.6-1.7,5.7-2.7,9-2.7c3.5,0,6.8,1.1,9.6,3.1
			c-1,1.8-1.6,4-1.6,6.2c0,2.3,0.6,4.6,1.8,6.6c0.4,0.7,1.2,1.1,1.9,1.1c0.4,0,0.8-0.1,1.2-0.3c1.1-0.7,1.4-2,0.8-3.1
			c-0.8-1.3-1.2-2.7-1.2-4.2c0-1.9,0.6-3.6,1.7-4.9c0.1-0.1,0.1-0.1,0.2-0.2c0.1-0.1,0.2-0.3,0.3-0.4c1.5-1.6,3.6-2.6,6-2.6
			c0.8,0,1.5,0.1,2.2,0.3c1.2,0.3,2.5-0.4,2.8-1.6c0.3-1.2-0.4-2.5-1.6-2.8c-1.1-0.3-2.3-0.5-3.5-0.5c-3.1,0-5.9,1.1-8.1,2.9
			c-3.6-2.7-8-4.1-12.5-4.1c-3.2,0-6.2,0.7-8.9,2c0-0.2,0-0.5,0-0.7c0-5.1,3.2-9.6,7.8-11.4c0.3,1.1,0.7,2.3,1.2,3.4
			c0.4,0.8,1.2,1.3,2,1.3c0.3,0,0.7-0.1,1-0.2c1.1-0.5,1.6-1.9,1.1-3C90.4,65.8,90,64,90,62.2c0-6,4.4-11,10.1-12
			c-0.2,1.1-0.4,2.3-0.3,3.5c0.2,8.4,5.5,14.4,13.1,15.3c1.4,4.3,5.4,7.3,10.1,7.3c1.3,0,2.3-1,2.3-2.3c0-1.3-1-2.3-2.3-2.3
			c-3.3,0-6-2.7-6-6c0-1.4,0.5-2.7,1.4-3.8c0.8-1,0.7-2.4-0.3-3.2c-1-0.8-2.4-0.7-3.2,0.3c-1.3,1.5-2,3.4-2.3,5.3
			c-4.8-1-8-5-8.2-10.7c-0.1-2.6,0.9-5,2.7-7c1.1-1.1,2.5-2.1,4.1-2.7c-0.4,1.7-0.1,3.5,0.8,5c1.5,2.4,4.3,3.8,7.8,3.6
			c1.3,0,2.2-1.1,2.2-2.4c0-1.3-1.1-2.2-2.4-2.2c-1.8,0.1-3.2-0.5-3.8-1.5c-0.4-0.7-0.4-1.6,0-2.4c0.7-1.3,2.5-2,4.8-2
			c5.5,0,10,4.5,10,10v31.1c0,2.9-1.3,5.7-3.6,7.6c-1.9-1-4.1-1.5-6.4-1.5c-3.3,0-6.6,1.2-9.2,3.3c-1,0.8-1.1,2.2-0.3,3.2
			c0.8,1,2.2,1.1,3.2,0.3c1.8-1.5,4-2.3,6.3-2.3c5.5,0,10,4.5,10,10v31.1c0,5.5-4.5,10-10,10c-1.3,0-2.3,1-2.3,2.3s1,2.3,2.3,2.3
			c3.9,0,7.4-1.5,10-4v16.4h4.5v-26.9v-31.1c0-4-1.7-7.7-4.3-10.3c2.7-2.7,4.3-6.4,4.3-10.3V52c0-8-6.5-14.5-14.5-14.5
			c-1.7,0-3.3,0.3-4.6,0.9c-4.6,0-9.1,1.8-12.2,5c-0.6,0.6-1.2,1.3-1.7,2c-9,0-16.3,7.1-16.7,16c-7,2.1-11.9,8.5-11.9,16
			c0,1.1,0.1,2.2,0.3,3.3c-4.9,3.9-8.1,9.9-8.1,16.6c0,3.6,0.9,7.2,2.7,10.3c-1.9,2.8-3.1,6.3-3.1,9.9c0,5.8,2.9,11.1,7.5,14.4
			c-1,2.4-1.6,5-1.5,7.6c0.1,8.5,6.8,16.7,15,18.6c0,0,0,0.1,0,0.1c0,9.8,8,17.8,17.8,17.8c1,0,2.1-0.1,3.1-0.3
			c2.9,3.6,7.3,5.9,12.2,5.9c0.3,0,0.6,0,0.9,0v-4.5C120.1,177.2,119.8,177.2,119.5,177.2z"/>
		<path class="st1" d="M212.5,117.6c0-3.6-1.1-7-3.1-9.9c1.8-3.1,2.7-6.7,2.7-10.3c0-6.7-3.2-12.7-8.1-16.6c0.2-1.1,0.3-2.2,0.3-3.3
			c0-7.5-4.9-13.9-11.9-16c-0.4-8.9-7.7-16-16.7-16c-0.5-0.7-1-1.4-1.7-2c-3.1-3.2-7.5-5-12.2-5c-1.4-0.6-2.9-0.9-4.6-0.9
			c-8,0-14.5,6.5-14.5,14.5v31.1c0,3.9,1.6,7.6,4.3,10.3c-2.7,2.6-4.3,6.3-4.3,10.3v31.1v26.9h4.5v-16.4c2.6,2.5,6.1,4,10,4
			c1.3,0,2.3-1,2.3-2.3s-1-2.3-2.3-2.3c-5.5,0-10-4.5-10-10v-31.1c0-5.5,4.5-10,10-10c2.3,0,4.5,0.8,6.3,2.3c1,0.8,2.4,0.7,3.2-0.3
			c0.8-1,0.7-2.4-0.3-3.2c-2.6-2.1-5.9-3.3-9.2-3.3c-2.3,0-4.5,0.6-6.4,1.5c-2.2-1.9-3.6-4.7-3.6-7.6V52c0-5.5,4.5-10,10-10
			c2.3,0,4,0.7,4.8,2c0.4,0.8,0.4,1.7,0,2.4c-0.6,1-2,1.5-3.8,1.5c-1.3-0.1-2.3,0.9-2.4,2.2c-0.1,1.3,0.9,2.3,2.2,2.4
			c3.5,0.1,6.3-1.2,7.8-3.6c0.9-1.5,1.2-3.3,0.8-5c1.6,0.6,3,1.5,4.1,2.7c1.9,1.9,2.8,4.3,2.7,7c-0.1,5.7-3.3,9.8-8.2,10.7
			c-0.3-1.9-1.1-3.8-2.3-5.3c-0.8-1-2.2-1.1-3.2-0.3c-1,0.8-1.1,2.2-0.3,3.2c0.9,1.1,1.4,2.4,1.4,3.8c0,3.3-2.7,6-6,6
			c-1.3,0-2.3,1-2.3,2.3c0,1.3,1,2.3,2.3,2.3c4.7,0,8.7-3.1,10.1-7.3c7.6-0.8,12.9-6.9,13.1-15.3c0-1.2-0.1-2.3-0.3-3.5
			c5.7,1,10.1,6,10.1,12c0,1.9-0.4,3.6-1.2,5.3c-0.5,1.1-0.1,2.5,1.1,3c0.3,0.2,0.7,0.2,1,0.2c0.8,0,1.7-0.5,2-1.3
			c0.5-1.1,0.9-2.2,1.2-3.4c4.6,1.8,7.8,6.2,7.8,11.4c0,0.2,0,0.5,0,0.7c-2.7-1.3-5.7-2-8.9-2c-4.5,0-8.9,1.5-12.5,4.1
			c-2.2-1.8-5-2.9-8.1-2.9c-1.2,0-2.3,0.2-3.5,0.5c-1.2,0.3-1.9,1.6-1.6,2.8c0.3,1.2,1.6,1.9,2.8,1.6c0.7-0.2,1.5-0.3,2.2-0.3
			c2.4,0,4.5,1,6,2.6c0.1,0.1,0.2,0.3,0.3,0.4c0.1,0.1,0.1,0.1,0.2,0.2c1.1,1.4,1.7,3.1,1.7,5c0,1.5-0.4,2.9-1.2,4.2
			c-0.7,1.1-0.3,2.5,0.8,3.1c0.4,0.2,0.8,0.3,1.2,0.3c0.8,0,1.5-0.4,1.9-1.1c1.2-2,1.8-4.2,1.8-6.6c0-2.3-0.6-4.4-1.6-6.2
			c2.8-2,6.1-3.1,9.6-3.1c3.3,0,6.4,1,9,2.7c0.2,0.1,0.3,0.3,0.6,0.4c4.3,3,7.1,8,7.1,13.6c0,2.3-0.5,4.6-1.4,6.7
			c-2-1.6-4.3-2.8-6.8-3.5c-0.6-2.3-1.7-4.4-3.3-6.1c-0.9-0.9-2.3-0.9-3.2-0.1c-0.9,0.9-0.9,2.3-0.1,3.2c1.2,1.3,2,2.8,2.3,4.5
			c0,0,0,0,0,0c-0.1,0.4,0,0.8,0.1,1.1c0,0.2,0,0.3,0,0.5c0,2.2-0.8,4.4-2.3,6c-0.8,0.9-0.8,2.4,0.2,3.2c0.4,0.4,1,0.6,1.5,0.6
			c0.6,0,1.2-0.3,1.7-0.7c1.9-2.1,3.1-4.7,3.4-7.4c4.9,1.9,8.4,6.7,8.4,12.1c0,4.2-2,8.1-5.3,10.5c-0.5-0.7-1-1.3-1.6-1.9
			c-3.6-3.7-8.5-5.7-13.6-5.7c-0.3,0-0.7,0-1,0c-0.4-2.5-1.4-4.9-3-7c-0.8-1-2.2-1.2-3.2-0.5c-1,0.8-1.2,2.2-0.5,3.2
			c1.5,2,2.3,4.4,2.3,7c0,6.4-5.2,11.6-11.6,11.6s-11.6-5.2-11.6-11.6c0-2.2,0.6-4.3,1.8-6.2c0.6,0.1,1.2,0.2,1.8,0.2
			c6.2,0,11.3-5.1,11.3-11.3c0-1.3-1-2.3-2.3-2.3s-2.3,1-2.3,2.3c0,3.7-3,6.7-6.7,6.7c-2.5,0-4.7-1.4-5.9-3.5
			c-0.6-1.1-2-1.5-3.1-0.9c-1.1,0.6-1.5,2-0.9,3.1c0.9,1.7,2.3,3.1,3.8,4.1c-1.3,2.4-2,5.1-2,7.8c0,8.9,7.3,16.2,16.2,16.2
			c8.3,0,15.2-6.3,16.1-14.4c0.3,0,0.6,0,0.9,0c3.9,0,7.6,1.5,10.4,4.3c2.7,2.7,4.2,6.4,4.2,10.2c-0.1,6.8-5.5,12.6-11.1,14.1
			c-0.6-2.1-1.6-4.2-2.9-6c-0.8-1-2.2-1.2-3.2-0.5c-1,0.8-1.2,2.2-0.5,3.2c1.3,1.8,2.2,3.9,2.5,6.1c0,0,0,0,0,0.1c0,0,0,0.1,0,0.1
			c0.1,0.6,0.1,1.1,0.1,1.7c0,7.3-6,13.3-13.3,13.3c-0.2,0-0.4,0-0.6,0c0.6-1.7,1-3.5,1-5.4c0-3.1-0.9-6.1-2.7-8.7
			c-0.7-1-2.1-1.3-3.2-0.6c-1,0.7-1.3,2.1-0.6,3.2c1.2,1.8,1.9,4,1.9,6.2c0,6.1-5,11.1-11.1,11.1c-0.2,0-0.4,0-0.6,0v4.5
			c0.2,0,0.4,0,0.6,0c4.9,0,9.3-2.3,12.2-5.9c1,0.2,2,0.3,3.1,0.3c9.8,0,17.8-8,17.8-17.8c0,0,0-0.1,0-0.1
			c8.1-1.9,14.9-10.1,15-18.6c0-2.7-0.5-5.2-1.5-7.6C209.6,128.7,212.5,123.4,212.5,117.6z"/>
	</g>
	<line class="st2" x1="114" y1="217" x2="164.8" y2="217"/>
	<line class="st3" x1="132.9" y1="158.5" x2="132.9" y2="204.3"/>
	<line class="st3" x1="145.1" y1="158.5" x2="145.1" y2="204.3"/>
	<line class="st2" x1="121.2" y1="228.2" x2="156.3" y2="228.2"/>
	<path class="st2" d="M170.5,187c0,0-4.3,6.5-7.4,17.3"/>
	<path class="st2" d="M106.1,187c0,0,9.5,6.5,9.5,17.3"/>
	<path class="st2" d="M148.5,231.4c0,5-4.1,9.1-9.1,9.1s-9.1-4.1-9.1-9.1"/>
</g>
</svg>
