<?xml version="1.0" encoding="utf-8"?>
<!-- Generator: Adobe Illustrator 24.2.3, SVG Export Plug-In . SVG Version: 6.00 Build 0)  -->
<svg version="1.1" xmlns="http://www.w3.org/2000/svg" xmlns:xlink="http://www.w3.org/1999/xlink" x="0px" y="0px"
	 viewBox="0 0 600 600" style="enable-background:new 0 0 600 600;" xml:space="preserve">
<style type="text/css">
	.st0{display:none;}
	.st1{display:inline;fill:#004D71;}
	.st2{fill:url(#SVGID_1_);}
	.st3{fill:url(#SVGID_2_);}
	.st4{fill:url(#SVGID_3_);}
	.st5{fill:url(#SVGID_4_);}
	.st6{fill:url(#SVGID_5_);}
	.st7{fill:url(#SVGID_6_);}
	.st8{fill:none;stroke:#F1F2F2;stroke-width:6.757;stroke-linecap:round;stroke-miterlimit:10;}
	.st9{fill:none;stroke:#D1D3D4;stroke-width:4.7299;stroke-linecap:round;stroke-miterlimit:10;}
	.st10{fill:#FFFFFF;}
	.st11{fill:#D1D3D4;}
	.st12{fill:#8B5E3C;}
	.st13{fill:#A78668;}
	.st14{clip-path:url(#SVGID_8_);}
	.st15{fill:#8B5E3C;stroke:#A78668;stroke-width:0.4223;stroke-miterlimit:10;}
	.st16{fill:#4E3920;}
	.st17{fill:#EDEDEE;}
	.st18{fill:#F8F8F9;}
	.st19{fill:#58595B;}
	.st20{fill:#BCBEC0;}
	.st21{fill:#2A3647;}
	.st22{fill:#F6F6F6;}
	.st23{opacity:0.2;}
	.st24{fill:#414042;}
	.st25{fill:#00AEEF;}
	.st26{fill:none;stroke:#000000;stroke-width:2.891061e-02;stroke-miterlimit:10;}
	.st27{fill:#7FC9D0;}
	.st28{fill:#EB7F6F;}
	.st29{fill:#F4BD60;}
	.st30{fill:none;stroke:#F8F8F9;stroke-width:1.6892;stroke-miterlimit:10;}
	.st31{fill:none;stroke:#F8F8F8;stroke-width:1.6892;stroke-miterlimit:10;}
	.st32{fill:none;stroke:#F7F8F8;stroke-width:1.6892;stroke-miterlimit:10;}
	.st33{fill:none;stroke:#F7F7F8;stroke-width:1.6892;stroke-miterlimit:10;}
	.st34{fill:none;stroke:#F7F7F7;stroke-width:1.6892;stroke-miterlimit:10;}
	.st35{fill:none;stroke:#F6F7F7;stroke-width:1.6892;stroke-miterlimit:10;}
	.st36{fill:none;stroke:#F6F6F7;stroke-width:1.6892;stroke-miterlimit:10;}
	.st37{fill:none;stroke:#F6F6F6;stroke-width:1.6892;stroke-miterlimit:10;}
	.st38{fill:none;stroke:#F5F6F6;stroke-width:1.6892;stroke-miterlimit:10;}
	.st39{fill:none;stroke:#F5F5F6;stroke-width:1.6892;stroke-miterlimit:10;}
	.st40{fill:none;stroke:#F5F5F5;stroke-width:1.6892;stroke-miterlimit:10;}
	.st41{fill:none;stroke:#F4F5F5;stroke-width:1.6892;stroke-miterlimit:10;}
	.st42{fill:none;stroke:#F4F4F5;stroke-width:1.6892;stroke-miterlimit:10;}
	.st43{fill:none;stroke:#F4F4F4;stroke-width:1.6892;stroke-miterlimit:10;}
	.st44{fill:none;stroke:#F3F4F4;stroke-width:1.6892;stroke-miterlimit:10;}
	.st45{fill:none;stroke:#F3F3F4;stroke-width:1.6892;stroke-miterlimit:10;}
	.st46{fill:none;stroke:#F3F3F3;stroke-width:1.6892;stroke-miterlimit:10;}
	.st47{fill:none;stroke:#F2F3F3;stroke-width:1.6892;stroke-miterlimit:10;}
	.st48{fill:none;stroke:#F2F2F3;stroke-width:1.6892;stroke-miterlimit:10;}
	.st49{fill:none;stroke:#F1F2F2;stroke-width:1.6892;stroke-miterlimit:10;}
	.st50{fill:#E6E6E5;stroke:#A7A9AC;stroke-width:1.1344;stroke-miterlimit:10;}
	.st51{fill:#E6E6E5;}
	.st52{fill:#F3F3F3;}
	.st53{fill:none;stroke:#A7A9AC;stroke-width:0.4223;stroke-miterlimit:10;}
	.st54{opacity:0.2;fill:#E6E6E5;}
	.st55{fill:#E6E6E5;stroke:#000000;stroke-width:8.507805e-02;stroke-miterlimit:10;}
	.st56{fill:#E6E6E5;stroke:#58595B;stroke-width:0.1702;stroke-miterlimit:10;}
	.st57{fill:#F1F2F2;}
	.st58{fill:#C4C7CB;}
	.st59{opacity:0.2;fill:#58595B;}
	.st60{fill:#476678;}
	.st61{fill:#A7A9AC;}
	.st62{fill:#E6E7E8;}
	.st63{fill:url(#SVGID_9_);}
	.st64{opacity:0;fill:#787878;}
	.st65{opacity:4.761905e-02;fill:#909295;}
	.st66{opacity:9.523810e-02;fill:#949598;}
	.st67{opacity:0.1429;fill:#97999B;}
	.st68{opacity:0.1905;fill:#9B9C9F;}
	.st69{opacity:0.2381;fill:#9EA0A2;}
	.st70{opacity:0.2857;fill:#A2A4A6;}
	.st71{opacity:0.3333;fill:#A6A7A9;}
	.st72{opacity:0.381;fill:#A9ABAC;}
	.st73{opacity:0.4286;fill:#ADAEB0;}
	.st74{opacity:0.4762;fill:#B0B2B3;}
	.st75{opacity:0.5238;fill:#B4B5B7;}
	.st76{opacity:0.5714;fill:#B7B8BA;}
	.st77{opacity:0.619;fill:#BABCBD;}
	.st78{opacity:0.6667;fill:#BDBFC0;}
	.st79{opacity:0.7143;fill:#C0C2C3;}
	.st80{opacity:0.7619;fill:#C3C4C5;}
	.st81{opacity:0.8095;fill:#C6C7C8;}
	.st82{opacity:0.8571;fill:#C8CACA;}
	.st83{opacity:0.9048;fill:#CBCCCD;}
	.st84{opacity:0.9524;fill:#CDCFCF;}
	.st85{fill:#D2D3D4;}
	.st86{fill:#333E48;}
	.st87{fill:#495867;}
	.st88{fill:#607488;}
</style>
<g id="Layer_2" class="st0">
	<rect x="-5.2" y="-9.7" class="st1" width="611.8" height="620.3"/>
</g>
<g id="Layer_1">
	
		<linearGradient id="SVGID_1_" gradientUnits="userSpaceOnUse" x1="283.9535" y1="96.8959" x2="460.6234" y2="96.8959" gradientTransform="matrix(8.600000e-03 -1.4421 2.3355 1.400000e-02 68.5 795.2878)">
		<stop  offset="0" style="stop-color:#FFFFFF"/>
		<stop  offset="0.3573" style="stop-color:#FCFCFC"/>
		<stop  offset="0.5731" style="stop-color:#F4F4F4"/>
		<stop  offset="0.7514" style="stop-color:#E6E6E6"/>
		<stop  offset="0.9082" style="stop-color:#D2D2D2"/>
		<stop  offset="1" style="stop-color:#C2C2C2"/>
	</linearGradient>
	<polygon class="st2" points="495,161.4 570.2,388 24.3,385.5 90.7,131.1 	"/>
	
		<linearGradient id="SVGID_2_" gradientUnits="userSpaceOnUse" x1="113.7299" y1="343.61" x2="363.0709" y2="309.6866" gradientTransform="matrix(-4.400000e-03 -1 1 -4.400000e-03 -51.175 619.1915)">
		<stop  offset="0" style="stop-color:#FFFFFF"/>
		<stop  offset="0.3163" style="stop-color:#FCFCFC"/>
		<stop  offset="0.5073" style="stop-color:#F4F4F4"/>
		<stop  offset="0.6651" style="stop-color:#E6E6E6"/>
		<stop  offset="0.8048" style="stop-color:#D1D1D1"/>
		<stop  offset="0.9312" style="stop-color:#B7B7B7"/>
		<stop  offset="1" style="stop-color:#A6A6A6"/>
	</linearGradient>
	<polygon class="st3" points="376.6,237.9 424.7,485.3 153.9,485.3 188.7,303.9 	"/>
	
		<linearGradient id="SVGID_3_" gradientUnits="userSpaceOnUse" x1="-67.3856" y1="286.9968" x2="-7.8912" y2="286.9968" gradientTransform="matrix(-0.1979 -1.9731 0.995 -9.980000e-02 187.9901 375.9492)">
		<stop  offset="0" style="stop-color:#FFFFFF"/>
		<stop  offset="0.2365" style="stop-color:#FCFCFC"/>
		<stop  offset="0.3795" style="stop-color:#F4F4F4"/>
		<stop  offset="0.4975" style="stop-color:#E6E6E6"/>
		<stop  offset="0.602" style="stop-color:#D1D1D1"/>
		<stop  offset="0.6976" style="stop-color:#B7B7B7"/>
		<stop  offset="0.7867" style="stop-color:#979797"/>
		<stop  offset="0.8708" style="stop-color:#707070"/>
		<stop  offset="0.9488" style="stop-color:#454545"/>
		<stop  offset="1" style="stop-color:#242424"/>
	</linearGradient>
	<polygon class="st4" points="498,360.6 527.6,475.5 446.1,484.4 441,368.9 	"/>
	
		<linearGradient id="SVGID_4_" gradientUnits="userSpaceOnUse" x1="-105.9514" y1="379.7629" x2="55.361" y2="379.7629" gradientTransform="matrix(-0.5311 -0.8473 0.8473 -0.5311 188.1381 730.0529)">
		<stop  offset="0" style="stop-color:#FFFFFF"/>
		<stop  offset="0.255" style="stop-color:#FCFCFC"/>
		<stop  offset="0.4091" style="stop-color:#F4F4F4"/>
		<stop  offset="0.5364" style="stop-color:#E6E6E6"/>
		<stop  offset="0.649" style="stop-color:#D1D1D1"/>
		<stop  offset="0.752" style="stop-color:#B7B7B7"/>
		<stop  offset="0.8465" style="stop-color:#979797"/>
		<stop  offset="0.9048" style="stop-color:#808080"/>
	</linearGradient>
	<polygon class="st5" points="549.6,438.2 596.2,541.9 597,598.8 456.3,591.3 439.2,569.1 	"/>
	
		<linearGradient id="SVGID_5_" gradientUnits="userSpaceOnUse" x1="76.0444" y1="614.7076" x2="162.5953" y2="631.2661" gradientTransform="matrix(-1.1018 -1.1018 0.7071 -0.7071 261.0916 867.6038)">
		<stop  offset="0" style="stop-color:#FFFFFF"/>
		<stop  offset="0.3169" style="stop-color:#FDFDFD"/>
		<stop  offset="0.4767" style="stop-color:#F5F5F5"/>
		<stop  offset="0.6014" style="stop-color:#E8E8E8"/>
		<stop  offset="0.7079" style="stop-color:#D5D5D5"/>
		<stop  offset="0.8029" style="stop-color:#BDBDBD"/>
		<stop  offset="0.8896" style="stop-color:#9E9E9E"/>
		<stop  offset="0.9683" style="stop-color:#7B7B7B"/>
		<stop  offset="1" style="stop-color:#6B6B6B"/>
	</linearGradient>
	<polygon class="st6" points="590.2,221.3 598.6,245.5 596.1,357.7 542.6,360.2 490.1,262.8 	"/>
	
		<linearGradient id="SVGID_6_" gradientUnits="userSpaceOnUse" x1="202.8579" y1="184.0421" x2="341.215" y2="119.6961" gradientTransform="matrix(0.3737 -0.9276 0.9276 0.3737 -72.8315 721.1667)">
		<stop  offset="0" style="stop-color:#FFFFFF"/>
		<stop  offset="0.3444" style="stop-color:#FDFDFD"/>
		<stop  offset="0.5332" style="stop-color:#F5F5F5"/>
		<stop  offset="0.6843" style="stop-color:#E7E7E7"/>
		<stop  offset="0.8154" style="stop-color:#D3D3D3"/>
		<stop  offset="0.9325" style="stop-color:#BBBBBB"/>
		<stop  offset="1" style="stop-color:#A8A8A8"/>
	</linearGradient>
	<polygon class="st7" points="312.8,441.7 341.6,593 208.5,598 5.1,597.2 4.9,470.6 	"/>
	<g>
		<line class="st8" x1="489.8" y1="384.6" x2="497.4" y2="391.3"/>
		<line class="st9" x1="489.8" y1="384.6" x2="497.4" y2="391.3"/>
		<g>
			<g>
				<path class="st10" d="M469.7,342.8c5.6,0,11.3,2,15.8,6.1c9.7,8.7,10.5,23.7,1.8,33.4c-4.7,5.2-11.1,7.8-17.6,7.8
					c-5.6,0-11.3-2-15.8-6.1c-9.7-8.7-10.5-23.7-1.8-33.4C456.8,345.5,463.2,342.8,469.7,342.8 M469.7,337.4L469.7,337.4
					c-8.2,0-16.1,3.5-21.6,9.6c-5.2,5.8-7.8,13.2-7.4,21c0.4,7.7,3.8,14.9,9.6,20.1c5.3,4.8,12.2,7.4,19.4,7.4
					c8.2,0,16.1-3.5,21.6-9.6c10.7-11.9,9.7-30.3-2.2-41C483.8,340.1,476.9,337.4,469.7,337.4L469.7,337.4z"/>
			</g>
		</g>
		<g>
			<g>
				<path class="st11" d="M469.7,342.8c5.6,0,11.3,2,15.8,6.1c9.7,8.7,10.5,23.7,1.8,33.4c-4.7,5.2-11.1,7.8-17.6,7.8
					c-5.6,0-11.3-2-15.8-6.1c-9.7-8.7-10.5-23.7-1.8-33.4C456.8,345.5,463.2,342.8,469.7,342.8 M469.7,340.1L469.7,340.1
					c-7.5,0-14.6,3.2-19.6,8.7c-4.7,5.2-7.1,12-6.7,19c0.4,7,3.5,13.5,8.7,18.2c4.8,4.4,11.1,6.7,17.6,6.7c7.5,0,14.6-3.2,19.6-8.7
					c9.7-10.8,8.8-27.5-2-37.2C482.5,342.5,476.2,340.1,469.7,340.1L469.7,340.1z"/>
			</g>
		</g>
		<g>
			<g>
				<path class="st12" d="M453.9,384.1c-9.7-8.7-10.5-23.7-1.8-33.4c8.7-9.7,23.7-10.5,33.4-1.8c9.7,8.7,10.5,23.7,1.8,33.4
					C478.6,392,463.6,392.8,453.9,384.1z"/>
			</g>
		</g>
		<g>
			<g>
				<path class="st13" d="M482.3,377.8c-8.3,9.3-21.3,11.3-29.7,5c0.4,0.4,0.8,0.9,1.3,1.3c9.7,8.7,24.7,7.9,33.4-1.8
					c8.7-9.7,7.9-24.7-1.8-33.4c-0.5-0.4-0.9-0.8-1.4-1.2C491.3,355.4,490.6,368.5,482.3,377.8z"/>
			</g>
		</g>
		<g>
			<defs>
				<path id="SVGID_7_" d="M453.9,384.1c-9.7-8.7-10.5-23.7-1.8-33.4c8.7-9.7,23.7-10.5,33.4-1.8c9.7,8.7,10.5,23.7,1.8,33.4
					C478.6,392,463.6,392.8,453.9,384.1z"/>
			</defs>
			<clipPath id="SVGID_8_">
				<use xlink:href="#SVGID_7_"  style="overflow:visible;"/>
			</clipPath>
			<g class="st14">
				<circle class="st13" cx="462.1" cy="366.5" r="2.5"/>
				<circle class="st13" cx="465.9" cy="357.2" r="1.3"/>
				<path class="st13" d="M468.9,361.8c-0.5,0-0.8,0.4-0.8,0.8c0,0.5,0.4,0.8,0.8,0.8c0.5,0,0.8-0.4,0.8-0.8
					C469.7,362.2,469.3,361.8,468.9,361.8z"/>
				<path class="st13" d="M460,359.9c1.7,0,3.2-1.4,3.2-3.2c0-0.5-0.1-1-0.4-1.4c0.1-0.4,0.1-0.7,0.1-1.1c0-0.2,0-0.4,0-0.6
					c1.1-0.9,1.7-2.2,1.7-3.6c0-2.6-2.1-4.6-4.6-4.6c-2.6,0-4.6,2.1-4.6,4.6c0,0.2,0,0.4,0,0.6c0,0,0,0,0,0c-0.8-0.7-1.8-1.1-3-1.1
					c-2.6,0-4.6,2.1-4.6,4.6c0,0.5,0.1,0.9,0.2,1.4c-1.6,1.1-2.7,2.9-2.7,5c0,3.3,2.6,5.9,5.9,5.9c3.3,0,5.9-2.6,5.9-5.9
					c0-0.7-0.1-1.4-0.3-2c0.3,0.1,0.6,0.2,0.9,0.2C458.2,359.5,459,359.9,460,359.9z"/>
				<circle class="st15" cx="459.6" cy="358" r="2.5"/>
				<circle class="st15" cx="463.8" cy="366.5" r="1.7"/>
				<path class="st12" d="M462.6,352c0,0,0.3-1.8-0.6-3.2c-0.9-1.3-2.7-1.7-2.7-1.7c1.3-0.9,3.2-0.6,4.1,0.8
					C464.3,349.3,464,351.1,462.6,352z"/>
				<path class="st12" d="M449.5,364.9c0,0,1.5,0.2,3-0.4c1.5-0.6,2.4-1.8,2.4-1.8c0.4,0.9-0.5,2.2-2,2.8
					C451.4,366,449.9,365.8,449.5,364.9z"/>
			</g>
		</g>
		<g>
			<g>
				<path class="st16" d="M469.7,342.8v2h0c5.3,0,10.5,2,14.4,5.5c4.3,3.9,6.8,9.2,7.1,14.9c0.3,5.8-1.6,11.3-5.5,15.6
					c-4.1,4.6-10,7.2-16.1,7.2c-5.3,0-10.5-2-14.4-5.5c-4.3-3.9-6.8-9.2-7.1-14.9c-0.3-5.8,1.6-11.3,5.5-15.6
					c4.1-4.6,10-7.2,16.1-7.2L469.7,342.8 M469.7,342.8c-6.5,0-12.9,2.6-17.6,7.8c-8.7,9.7-7.9,24.7,1.8,33.4
					c4.5,4.1,10.2,6.1,15.8,6.1c6.5,0,12.9-2.6,17.6-7.8c8.7-9.7,7.9-24.7-1.8-33.4C481,344.8,475.3,342.8,469.7,342.8L469.7,342.8z
					"/>
			</g>
		</g>
	</g>
	<g>
		<g>
			<g>
				<path class="st17" d="M368.9,323.3c-0.1,0-0.2,0-0.3,0c-1.3-0.1-175.3-13-176.6-13.1c-1.3-0.1-2.2-0.8-2.6-2.1
					c-0.3-0.9-0.2-1.8-0.2-1.8l5.8-79.2c0-0.5,0.3-3,1.7-3c0,0,179.6,13.3,179.9,13.3c0.5,0,1.1,0.4,1.2,1.8c0.1,0.7,0,1.4,0,1.4
					l-5.9,79.2C372,321.1,371.2,323.3,368.9,323.3C368.9,323.3,368.9,323.3,368.9,323.3z"/>
				<g>
					<path class="st10" d="M196.7,224.6C196.7,224.6,196.7,224.6,196.7,224.6c0.6,0,30.7,2.3,60.5,4.5c29.6,2.2,58.9,4.4,58.9,4.4
						c29.8,2.2,59.9,4.4,60.5,4.5c1.1,0.1,0.9,2.8,0.9,2.8l-5.9,79.2c0,0-0.2,3-2.7,3c-0.1,0-0.2,0-0.2,0
						c-1.3-0.1-30.1-2.2-58.9-4.4c0,0-29.4-2.2-58.9-4.4c-28.8-2.1-57.5-4.3-58.9-4.4c-2.7-0.2-2.5-3.4-2.5-3.4l5.8-79.2
						C195.5,227.3,195.7,224.6,196.7,224.6 M196.7,223.8c-1.7,0-2,2.6-2.1,3.4l-5.8,79.2c0,0.1-0.1,1,0.3,2c0.5,1.4,1.5,2.3,3,2.4
						c1.3,0.1,30.1,2.2,58.9,4.4l58.9,4.4c28.8,2.1,57.5,4.3,58.9,4.4c0.1,0,0.2,0,0.3,0c2.6,0,3.4-2.5,3.5-3.8l5.9-79.2
						c0,0,0.1-0.8,0-1.5c-0.2-1.7-1-2.1-1.6-2.2c-0.3,0-9.7-0.7-23.1-1.7l-37.4-2.8l-58.9-4.4l-37.1-2.7c-13.6-1-23.1-1.7-23.4-1.7
						C196.8,223.8,196.7,223.8,196.7,223.8L196.7,223.8z"/>
				</g>
			</g>
		</g>
		<g>
			<g>
				<path class="st18" d="M218.2,293.4c0,0.6-0.6,1-1.2,1l-22.6-1.7c-0.6,0-1-0.6-1-1.2l0.6-8.1c0-0.6,0.6-1,1.2-1l22.6,1.7
					c0.6,0,1,0.6,1,1.2L218.2,293.4z"/>
			</g>
			<g>
				<g>
					<path class="st18" d="M230.6,294.3c0,0.6-0.6,1-1.2,1l-8.1-0.6c-0.6,0-1-0.6-1-1.2l0.6-8.1c0-0.6,0.6-1,1.2-1l8.1,0.6
						c0.6,0,1,0.6,1,1.2L230.6,294.3z"/>
				</g>
				<g>
					<path class="st18" d="M202.7,305.8c0,0.6-0.6,1-1.2,1l-8.1-0.6c-0.6,0-1-0.6-1-1.2l0.7-9.7c0-0.6,0.6-1,1.2-1l8.1,0.6
						c0.6,0,1,0.6,1,1.2L202.7,305.8z"/>
				</g>
				<g>
					<path class="st18" d="M215.1,306.7c0,0.6-0.6,1-1.2,1l-8.1-0.6c-0.6,0-1-0.6-1-1.2l0.7-9.7c0-0.6,0.6-1,1.2-1l8.1,0.6
						c0.6,0,1,0.6,1,1.2L215.1,306.7z"/>
				</g>
				<g>
					<path class="st18" d="M226.9,307.5c0,0.6-0.6,1-1.2,1l-8.1-0.6c-0.6,0-1-0.6-1-1.2l0.7-9.7c0-0.6,0.6-1,1.2-1l8.1,0.6
						c0.6,0,1,0.6,1,1.2L226.9,307.5z"/>
				</g>
				<g>
					<path class="st18" d="M331.9,315.3c0,0.6-0.6,1-1.2,1l-8.1-0.6c-0.6,0-1-0.6-1-1.2l0.7-9.7c0-0.6,0.6-1,1.2-1l8.1,0.6
						c0.6,0,1,0.6,1,1.2L331.9,315.3z"/>
				</g>
				<g>
					<path class="st18" d="M242.5,308.7c0,0.6-0.6,1-1.2,1l-11.3-0.8c-0.6,0-1-0.6-1-1.2l0.7-9.7c0-0.6,0.6-1,1.2-1l11.3,0.8
						c0.6,0,1,0.6,1,1.2L242.5,308.7z"/>
				</g>
				<g>
					<path class="st18" d="M319.5,314.4c0,0.6-0.6,1-1.2,1l-11.3-0.8c-0.6,0-1-0.6-1-1.2l0.7-9.7c0-0.6,0.6-1,1.2-1l11.3,0.8
						c0.6,0,1,0.6,1,1.2L319.5,314.4z"/>
				</g>
				<g>
					<path class="st18" d="M303.9,313.2c0,0.6-0.6,1-1.2,1l-57.1-4.2c-0.6,0-1-0.6-1-1.2l0.7-9.7c0-0.6,0.6-1,1.2-1l57.1,4.2
						c0.6,0,1,0.6,1,1.2L303.9,313.2z"/>
				</g>
				<g>
					<path class="st18" d="M243,295.2c0,0.6-0.6,1-1.2,1l-8.1-0.6c-0.6,0-1-0.6-1-1.2l0.6-8.1c0-0.6,0.6-1,1.2-1l8.1,0.6
						c0.6,0,1,0.6,1,1.2L243,295.2z"/>
				</g>
				<g>
					<path class="st18" d="M255.4,296.1c0,0.6-0.6,1-1.2,1l-8.1-0.6c-0.6,0-1-0.6-1-1.2l0.6-8.1c0-0.6,0.6-1,1.2-1l8.1,0.6
						c0.6,0,1,0.6,1,1.2L255.4,296.1z"/>
				</g>
				<g>
					<path class="st18" d="M267.7,297c0,0.6-0.6,1-1.2,1l-8.1-0.6c-0.6,0-1-0.6-1-1.2l0.6-8.1c0-0.6,0.6-1,1.2-1l8.1,0.6
						c0.6,0,1,0.6,1,1.2L267.7,297z"/>
				</g>
				<g>
					<path class="st18" d="M280.1,297.9c0,0.6-0.6,1-1.2,1l-8.1-0.6c-0.6,0-1-0.6-1-1.2l0.6-8.1c0-0.6,0.6-1,1.2-1l8.1,0.6
						c0.6,0,1,0.6,1,1.2L280.1,297.9z"/>
				</g>
				<g>
					<path class="st18" d="M292.5,298.9c0,0.6-0.6,1-1.2,1l-8.1-0.6c-0.6,0-1-0.6-1-1.2l0.6-8.1c0-0.6,0.6-1,1.2-1l8.1,0.6
						c0.6,0,1,0.6,1,1.2L292.5,298.9z"/>
				</g>
				<g>
					<path class="st18" d="M304.9,299.8c0,0.6-0.6,1-1.2,1l-8.1-0.6c-0.6,0-1-0.6-1-1.2l0.6-8.1c0-0.6,0.6-1,1.2-1l8.1,0.6
						c0.6,0,1,0.6,1,1.2L304.9,299.8z"/>
				</g>
				<g>
					<path class="st18" d="M317.3,300.7c0,0.6-0.6,1-1.2,1l-8.1-0.6c-0.6,0-1-0.6-1-1.2l0.6-8.1c0-0.6,0.6-1,1.2-1l8.1,0.6
						c0.6,0,1,0.6,1,1.2L317.3,300.7z"/>
				</g>
				<g>
					<path class="st18" d="M329.7,301.6c0,0.6-0.6,1-1.2,1l-8.1-0.6c-0.6,0-1-0.6-1-1.2l0.6-8.1c0-0.6,0.6-1,1.2-1l8.1,0.6
						c0.6,0,1,0.6,1,1.2L329.7,301.6z"/>
				</g>
				<g>
					<path class="st18" d="M342,302.5c0,0.6-0.6,1-1.2,1l-8.1-0.6c-0.6,0-1-0.6-1-1.2l0.6-8.1c0-0.6,0.6-1,1.2-1l8.1,0.6
						c0.6,0,1,0.6,1,1.2L342,302.5z"/>
				</g>
			</g>
			<g>
				<g>
					<path class="st18" d="M226.1,282c0,0.6-0.6,1-1.2,1l-8.1-0.6c-0.6,0-1-0.6-1-1.2l0.6-8.1c0-0.6,0.6-1,1.2-1l8.1,0.6
						c0.6,0,1,0.6,1,1.2L226.1,282z"/>
				</g>
				<g>
					<path class="st18" d="M238.5,283c0,0.6-0.6,1-1.2,1l-8.1-0.6c-0.6,0-1-0.6-1-1.2l0.6-8.1c0-0.6,0.6-1,1.2-1l8.1,0.6
						c0.6,0,1,0.6,1,1.2L238.5,283z"/>
				</g>
				<g>
					<path class="st18" d="M213.7,281.1c0,0.6-0.6,1-1.2,1l-17.2-1.3c-0.6,0-1-0.6-1-1.2l0.6-8.1c0-0.6,0.6-1,1.2-1l17.2,1.3
						c0.6,0,1,0.6,1,1.2L213.7,281.1z"/>
				</g>
				<g>
					<path class="st18" d="M250.8,283.9c0,0.6-0.6,1-1.2,1l-8.1-0.6c-0.6,0-1-0.6-1-1.2l0.6-8.1c0-0.6,0.6-1,1.2-1l8.1,0.6
						c0.6,0,1,0.6,1,1.2L250.8,283.9z"/>
				</g>
				<g>
					<path class="st18" d="M263.2,284.8c0,0.6-0.6,1-1.2,1l-8.1-0.6c-0.6,0-1-0.6-1-1.2l0.6-8.1c0-0.6,0.6-1,1.2-1l8.1,0.6
						c0.6,0,1,0.6,1,1.2L263.2,284.8z"/>
				</g>
				<g>
					<path class="st18" d="M275.6,285.7c0,0.6-0.6,1-1.2,1l-8.1-0.6c-0.6,0-1-0.6-1-1.2l0.6-8.1c0-0.6,0.6-1,1.2-1l8.1,0.6
						c0.6,0,1,0.6,1,1.2L275.6,285.7z"/>
				</g>
				<g>
					<path class="st18" d="M288,286.6c0,0.6-0.6,1-1.2,1l-8.1-0.6c-0.6,0-1-0.6-1-1.2l0.6-8.1c0-0.6,0.6-1,1.2-1l8.1,0.6
						c0.6,0,1,0.6,1,1.2L288,286.6z"/>
				</g>
				<g>
					<path class="st18" d="M300.4,287.5c0,0.6-0.6,1-1.2,1l-8.1-0.6c-0.6,0-1-0.6-1-1.2l0.6-8.1c0-0.6,0.6-1,1.2-1l8.1,0.6
						c0.6,0,1,0.6,1,1.2L300.4,287.5z"/>
				</g>
				<g>
					<path class="st18" d="M312.8,288.4c0,0.6-0.6,1-1.2,1l-8.1-0.6c-0.6,0-1-0.6-1-1.2l0.6-8.1c0-0.6,0.6-1,1.2-1l8.1,0.6
						c0.6,0,1,0.6,1,1.2L312.8,288.4z"/>
				</g>
				<g>
					<path class="st18" d="M325.2,289.4c0,0.6-0.6,1-1.2,1l-8.1-0.6c-0.6,0-1-0.6-1-1.2l0.6-8.1c0-0.6,0.6-1,1.2-1l8.1,0.6
						c0.6,0,1,0.6,1,1.2L325.2,289.4z"/>
				</g>
				<g>
					<path class="st18" d="M337.5,290.3c0,0.6-0.6,1-1.2,1l-8.1-0.6c-0.6,0-1-0.6-1-1.2l0.6-8.1c0-0.6,0.6-1,1.2-1l8.1,0.6
						c0.6,0,1,0.6,1,1.2L337.5,290.3z"/>
				</g>
				<g>
					<path class="st18" d="M349.9,291.2c0,0.6-0.6,1-1.2,1l-8.1-0.6c-0.6,0-1-0.6-1-1.2l0.6-8.1c0-0.6,0.6-1,1.2-1l8.1,0.6
						c0.6,0,1,0.6,1,1.2L349.9,291.2z"/>
				</g>
				<g>
					<path class="st18" d="M370.9,292.7c0,0.6-0.6,1-1.2,1l-16.7-1.2c-0.6,0-1-0.6-1-1.2l0.6-8.1c0-0.6,0.6-1,1.2-1l16.7,1.2
						c0.6,0,1,0.6,1,1.2L370.9,292.7z"/>
				</g>
			</g>
			<g>
				<g>
					<path class="st18" d="M223.2,269.9c0,0.6-0.6,1-1.2,1l-8.1-0.6c-0.6,0-1-0.6-1-1.2l0.6-8.1c0-0.6,0.6-1,1.2-1l8.1,0.6
						c0.6,0,1,0.6,1,1.2L223.2,269.9z"/>
				</g>
				<g>
					<path class="st18" d="M235.6,270.8c0,0.6-0.6,1-1.2,1l-8.1-0.6c-0.6,0-1-0.6-1-1.2l0.6-8.1c0-0.6,0.6-1,1.2-1l8.1,0.6
						c0.6,0,1,0.6,1,1.2L235.6,270.8z"/>
				</g>
				<g>
					<path class="st18" d="M210.8,269c0,0.6-0.6,1-1.2,1l-13.5-1c-0.6,0-1-0.6-1-1.2l0.6-8.1c0-0.6,0.6-1,1.2-1l13.5,1
						c0.6,0,1,0.6,1,1.2L210.8,269z"/>
				</g>
				<g>
					<path class="st18" d="M223.2,269.9c0,0.6-0.6,1-1.2,1l-8.1-0.6c-0.6,0-1-0.6-1-1.2l0.6-8.1c0-0.6,0.6-1,1.2-1l8.1,0.6
						c0.6,0,1,0.6,1,1.2L223.2,269.9z"/>
				</g>
				<g>
					<path class="st18" d="M248,271.7c0,0.6-0.6,1-1.2,1l-8.1-0.6c-0.6,0-1-0.6-1-1.2l0.6-8.1c0-0.6,0.6-1,1.2-1l8.1,0.6
						c0.6,0,1,0.6,1,1.2L248,271.7z"/>
				</g>
				<g>
					<path class="st18" d="M260.3,272.7c0,0.6-0.6,1-1.2,1l-8.1-0.6c-0.6,0-1-0.6-1-1.2l0.6-8.1c0-0.6,0.6-1,1.2-1l8.1,0.6
						c0.6,0,1,0.6,1,1.2L260.3,272.7z"/>
				</g>
				<g>
					<path class="st18" d="M272.7,273.6c0,0.6-0.6,1-1.2,1l-8.1-0.6c-0.6,0-1-0.6-1-1.2l0.6-8.1c0-0.6,0.6-1,1.2-1l8.1,0.6
						c0.6,0,1,0.6,1,1.2L272.7,273.6z"/>
				</g>
				<g>
					<path class="st18" d="M285.1,274.5c0,0.6-0.6,1-1.2,1l-8.1-0.6c-0.6,0-1-0.6-1-1.2l0.6-8.1c0-0.6,0.6-1,1.2-1l8.1,0.6
						c0.6,0,1,0.6,1,1.2L285.1,274.5z"/>
				</g>
				<g>
					<path class="st18" d="M297.5,275.4c0,0.6-0.6,1-1.2,1l-8.1-0.6c-0.6,0-1-0.6-1-1.2l0.6-8.1c0-0.6,0.6-1,1.2-1l8.1,0.6
						c0.6,0,1,0.6,1,1.2L297.5,275.4z"/>
				</g>
				<g>
					<path class="st18" d="M309.9,276.3c0,0.6-0.6,1-1.2,1l-8.1-0.6c-0.6,0-1-0.6-1-1.2l0.6-8.1c0-0.6,0.6-1,1.2-1l8.1,0.6
						c0.6,0,1,0.6,1,1.2L309.9,276.3z"/>
				</g>
				<g>
					<path class="st18" d="M322.3,277.2c0,0.6-0.6,1-1.2,1l-8.1-0.6c-0.6,0-1-0.6-1-1.2l0.6-8.1c0-0.6,0.6-1,1.2-1l8.1,0.6
						c0.6,0,1,0.6,1,1.2L322.3,277.2z"/>
				</g>
				<g>
					<path class="st18" d="M334.6,278.1c0,0.6-0.6,1-1.2,1l-8.1-0.6c-0.6,0-1-0.6-1-1.2l0.6-8.1c0-0.6,0.6-1,1.2-1l8.1,0.6
						c0.6,0,1,0.6,1,1.2L334.6,278.1z"/>
				</g>
				<g>
					<path class="st18" d="M347,279.1c0,0.6-0.6,1-1.2,1l-8.1-0.6c-0.6,0-1-0.6-1-1.2l0.6-8.1c0-0.6,0.6-1,1.2-1l8.1,0.6
						c0.6,0,1,0.6,1,1.2L347,279.1z"/>
				</g>
				<g>
					<path class="st18" d="M359.4,280c0,0.6-0.6,1-1.2,1l-8.1-0.6c-0.6,0-1-0.6-1-1.2l0.6-8.1c0-0.6,0.6-1,1.2-1l8.1,0.6
						c0.6,0,1,0.6,1,1.2L359.4,280z"/>
				</g>
				<g>
					<path class="st18" d="M371.8,280.9c0,0.6-0.6,1-1.2,1l-8.1-0.6c-0.6,0-1-0.6-1-1.2l0.6-8.1c0-0.6,0.6-1,1.2-1l8.1,0.6
						c0.6,0,1,0.6,1,1.2L371.8,280.9z"/>
				</g>
			</g>
			<g>
				<g>
					<path class="st18" d="M206.3,256.8c0,0.6-0.6,1-1.2,1l-8.1-0.6c-0.6,0-1-0.6-1-1.2l0.6-8.1c0-0.6,0.6-1,1.2-1l8.1,0.6
						c0.6,0,1,0.6,1,1.2L206.3,256.8z"/>
				</g>
				<g>
					<path class="st18" d="M218.7,257.7c0,0.6-0.6,1-1.2,1l-8.1-0.6c-0.6,0-1-0.6-1-1.2l0.6-8.1c0-0.6,0.6-1,1.2-1l8.1,0.6
						c0.6,0,1,0.6,1,1.2L218.7,257.7z"/>
				</g>
				<g>
					<path class="st18" d="M231.1,258.6c0,0.6-0.6,1-1.2,1l-8.1-0.6c-0.6,0-1-0.6-1-1.2l0.6-8.1c0-0.6,0.6-1,1.2-1l8.1,0.6
						c0.6,0,1,0.6,1,1.2L231.1,258.6z"/>
				</g>
				<g>
					<path class="st18" d="M243.4,259.5c0,0.6-0.6,1-1.2,1l-8.1-0.6c-0.6,0-1-0.6-1-1.2l0.6-8.1c0-0.6,0.6-1,1.2-1l8.1,0.6
						c0.6,0,1,0.6,1,1.2L243.4,259.5z"/>
				</g>
				<g>
					<path class="st18" d="M255.8,260.4c0,0.6-0.6,1-1.2,1l-8.1-0.6c-0.6,0-1-0.6-1-1.2l0.6-8.1c0-0.6,0.6-1,1.2-1l8.1,0.6
						c0.6,0,1,0.6,1,1.2L255.8,260.4z"/>
				</g>
				<g>
					<path class="st18" d="M268.2,261.3c0,0.6-0.6,1-1.2,1l-8.1-0.6c-0.6,0-1-0.6-1-1.2l0.6-8.1c0-0.6,0.6-1,1.2-1l8.1,0.6
						c0.6,0,1,0.6,1,1.2L268.2,261.3z"/>
				</g>
				<g>
					<path class="st18" d="M280.6,262.2c0,0.6-0.6,1-1.2,1l-8.1-0.6c-0.6,0-1-0.6-1-1.2l0.6-8.1c0-0.6,0.6-1,1.2-1l8.1,0.6
						c0.6,0,1,0.6,1,1.2L280.6,262.2z"/>
				</g>
				<g>
					<path class="st18" d="M293,263.2c0,0.6-0.6,1-1.2,1l-8.1-0.6c-0.6,0-1-0.6-1-1.2l0.6-8.1c0-0.6,0.6-1,1.2-1l8.1,0.6
						c0.6,0,1,0.6,1,1.2L293,263.2z"/>
				</g>
				<g>
					<path class="st18" d="M305.4,264.1c0,0.6-0.6,1-1.2,1l-8.1-0.6c-0.6,0-1-0.6-1-1.2l0.6-8.1c0-0.6,0.6-1,1.2-1l8.1,0.6
						c0.6,0,1,0.6,1,1.2L305.4,264.1z"/>
				</g>
				<g>
					<path class="st18" d="M317.8,265c0,0.6-0.6,1-1.2,1l-8.1-0.6c-0.6,0-1-0.6-1-1.2l0.6-8.1c0-0.6,0.6-1,1.2-1l8.1,0.6
						c0.6,0,1,0.6,1,1.2L317.8,265z"/>
				</g>
				<g>
					<path class="st18" d="M330.1,265.9c0,0.6-0.6,1-1.2,1l-8.1-0.6c-0.6,0-1-0.6-1-1.2l0.6-8.1c0-0.6,0.6-1,1.2-1l8.1,0.6
						c0.6,0,1,0.6,1,1.2L330.1,265.9z"/>
				</g>
				<g>
					<path class="st18" d="M342.5,266.8c0,0.6-0.6,1-1.2,1l-8.1-0.6c-0.6,0-1-0.6-1-1.2l0.6-8.1c0-0.6,0.6-1,1.2-1l8.1,0.6
						c0.6,0,1,0.6,1,1.2L342.5,266.8z"/>
				</g>
				<g>
					<path class="st18" d="M354.9,267.7c0,0.6-0.6,1-1.2,1l-8.1-0.6c-0.6,0-1-0.6-1-1.2l0.6-8.1c0-0.6,0.6-1,1.2-1l8.1,0.6
						c0.6,0,1,0.6,1,1.2L354.9,267.7z"/>
				</g>
				<g>
					<path class="st18" d="M372.7,269c0,0.6-0.6,1-1.2,1l-13.5-1c-0.6,0-1-0.6-1-1.2l0.6-8.1c0-0.6,0.6-1,1.2-1l13.5,1
						c0.6,0,1,0.6,1,1.2L372.7,269z"/>
				</g>
			</g>
			<g>
				<g>
					<path class="st18" d="M207.5,244.9c0,0.6-0.6,1-1.2,1l-8.4-0.6c-0.6,0-1-0.6-1-1.2l0.3-4.3c0-0.6,0.6-1,1.2-1l8.4,0.6
						c0.6,0,1,0.6,1,1.2L207.5,244.9z"/>
				</g>
				<g>
					<path class="st18" d="M220.3,245.9c0,0.6-0.6,1-1.2,1l-8.4-0.6c-0.6,0-1-0.6-1-1.2l0.3-4.3c0-0.6,0.6-1,1.2-1l8.4,0.6
						c0.6,0,1,0.6,1,1.2L220.3,245.9z"/>
				</g>
				<g>
					<path class="st18" d="M233,246.8c0,0.6-0.6,1-1.2,1l-8.4-0.6c-0.6,0-1-0.6-1-1.2l0.3-4.3c0-0.6,0.6-1,1.2-1l8.4,0.6
						c0.6,0,1,0.6,1,1.2L233,246.8z"/>
				</g>
				<g>
					<path class="st18" d="M245.8,247.8c0,0.6-0.6,1-1.2,1l-8.4-0.6c-0.6,0-1-0.6-1-1.2l0.3-4.3c0-0.6,0.6-1,1.2-1l8.4,0.6
						c0.6,0,1,0.6,1,1.2L245.8,247.8z"/>
				</g>
				<g>
					<path class="st18" d="M258.6,248.7c0,0.6-0.6,1-1.2,1l-8.4-0.6c-0.6,0-1-0.6-1-1.2l0.3-4.3c0-0.6,0.6-1,1.2-1l8.4,0.6
						c0.6,0,1,0.6,1,1.2L258.6,248.7z"/>
				</g>
				<g>
					<path class="st18" d="M271.4,249.7c0,0.6-0.6,1-1.2,1l-8.4-0.6c-0.6,0-1-0.6-1-1.2l0.3-4.3c0-0.6,0.6-1,1.2-1l8.4,0.6
						c0.6,0,1,0.6,1,1.2L271.4,249.7z"/>
				</g>
				<g>
					<path class="st18" d="M284.1,250.6c0,0.6-0.6,1-1.2,1l-8.4-0.6c-0.6,0-1-0.6-1-1.2l0.3-4.3c0-0.6,0.6-1,1.2-1l8.4,0.6
						c0.6,0,1,0.6,1,1.2L284.1,250.6z"/>
				</g>
				<g>
					<path class="st18" d="M296.9,251.5c0,0.6-0.6,1-1.2,1l-8.4-0.6c-0.6,0-1-0.6-1-1.2l0.3-4.3c0-0.6,0.6-1,1.2-1l8.4,0.6
						c0.6,0,1,0.6,1,1.2L296.9,251.5z"/>
				</g>
				<g>
					<path class="st18" d="M309.7,252.5c0,0.6-0.6,1-1.2,1l-8.4-0.6c-0.6,0-1-0.6-1-1.2l0.3-4.3c0-0.6,0.6-1,1.2-1l8.4,0.6
						c0.6,0,1,0.6,1,1.2L309.7,252.5z"/>
				</g>
				<g>
					<path class="st18" d="M322.5,253.4c0,0.6-0.6,1-1.2,1l-8.4-0.6c-0.6,0-1-0.6-1-1.2l0.3-4.3c0-0.6,0.6-1,1.2-1l8.4,0.6
						c0.6,0,1,0.6,1,1.2L322.5,253.4z"/>
				</g>
				<g>
					<path class="st18" d="M335.2,254.4c0,0.6-0.6,1-1.2,1l-8.4-0.6c-0.6,0-1-0.6-1-1.2l0.3-4.3c0-0.6,0.6-1,1.2-1l8.4,0.6
						c0.6,0,1,0.6,1,1.2L335.2,254.4z"/>
				</g>
				<g>
					<path class="st18" d="M348,255.3c0,0.6-0.6,1-1.2,1l-8.4-0.6c-0.6,0-1-0.6-1-1.2l0.3-4.3c0-0.6,0.6-1,1.2-1l8.4,0.6
						c0.6,0,1,0.6,1,1.2L348,255.3z"/>
				</g>
				<g>
					<path class="st18" d="M360.8,256.3c0,0.6-0.6,1-1.2,1l-8.4-0.6c-0.6,0-1-0.6-1-1.2l0.3-4.3c0-0.6,0.6-1,1.2-1l8.4,0.6
						c0.6,0,1,0.6,1,1.2L360.8,256.3z"/>
				</g>
				<g>
					<path class="st18" d="M373.5,257.2c0,0.6-0.6,1-1.2,1l-8.4-0.6c-0.6,0-1-0.6-1-1.2l0.3-4.3c0-0.6,0.6-1,1.2-1l8.4,0.6
						c0.6,0,1,0.6,1,1.2L373.5,257.2z"/>
				</g>
			</g>
			<g>
				<path class="st18" d="M370,304.6c0,0.6-0.6,1-1.2,1l-23.7-1.8c-0.6,0-1-0.6-1-1.2l0.6-8.1c0-0.6,0.6-1,1.2-1l23.7,1.8
					c0.6,0,1,0.6,1,1.2L370,304.6z"/>
			</g>
			<g>
				<path class="st18" d="M344.6,312.4c0-0.6-0.4-1.1-1-1.2l-8.6-0.6c-0.6,0-1.1,0.4-1.2,1l-0.3,3.8c0,0.6,0.4,1.1,1,1.2l8.6,0.6
					c0.6,0,1.1-0.4,1.2-1L344.6,312.4z"/>
			</g>
			<g>
				<path class="st18" d="M356.9,313.4c0-0.6-0.4-1.1-1-1.2l-8.6-0.6c-0.6,0-1.1,0.4-1.2,1l-0.3,3.8c0,0.6,0.4,1.1,1,1.2l8.6,0.6
					c0.6,0,1.1-0.4,1.2-1L356.9,313.4z"/>
			</g>
			<g>
				<path class="st18" d="M357.4,307.4c0-0.6-0.4-1.1-1-1.2l-8.6-0.6c-0.6,0-1.1,0.4-1.2,1l-0.2,3.2c0,0.6,0.4,1.1,1,1.2l8.6,0.6
					c0.6,0,1.1-0.4,1.2-1L357.4,307.4z"/>
			</g>
			<g>
				<path class="st18" d="M369.3,314.3c0-0.6-0.4-1.1-1-1.2l-8.6-0.6c-0.6,0-1.1,0.4-1.2,1l-0.3,3.8c0,0.6,0.4,1.1,1,1.2l8.6,0.6
					c0.6,0,1.1-0.4,1.2-1L369.3,314.3z"/>
			</g>
		</g>
	</g>
	<g>
		<g>
			<g>
				<g>
					<path class="st19" d="M443.4,570.9c-2.6,0-4.9-1.7-5.6-4.2L411.2,480c-0.9-3.1,0.8-6.4,3.9-7.3l128-39.2
						c0.6-0.2,1.1-0.3,1.7-0.3c2.6,0,4.9,1.7,5.6,4.2l26.5,86.7c0.5,1.5,0.3,3.1-0.4,4.5c-0.7,1.4-2,2.4-3.5,2.9l-128,39.2
						C444.5,570.8,444,570.9,443.4,570.9z"/>
					<path class="st20" d="M544.8,433.6c2.4,0,4.6,1.5,5.3,3.9l26.5,86.7c0.9,2.9-0.8,6.1-3.7,7l-128,39.2c-0.5,0.2-1.1,0.2-1.6,0.2
						c-2.4,0-4.6-1.5-5.3-3.9l-26.5-86.7c-0.9-2.9,0.8-6.1,3.7-7l128-39.2C543.7,433.6,544.3,433.6,544.8,433.6 M544.8,432.9
						L544.8,432.9c-0.6,0-1.2,0.1-1.8,0.3l-128,39.2c-3.3,1-5.1,4.5-4.1,7.7l26.5,86.7c0.8,2.6,3.2,4.4,5.9,4.4
						c0.6,0,1.2-0.1,1.8-0.3l128-39.2c1.6-0.5,2.9-1.6,3.7-3c0.8-1.5,0.9-3.1,0.5-4.7l-26.5-86.7C550,434.7,547.5,432.9,544.8,432.9
						L544.8,432.9z"/>
				</g>
			</g>
			<g>
				<g>
					<path class="st21" d="M542.7,434.5c2.9-0.9,6,0.8,6.9,3.7l26.3,85.9c0.9,2.9-0.8,6-3.7,6.9l-126.7,38.8c-2.9,0.9-6-0.8-6.9-3.7
						l-26.3-85.9c-0.9-2.9,0.8-6,3.7-6.9L542.7,434.5z"/>
				</g>
			</g>
			
				<rect x="434.7" y="457.2" transform="matrix(0.9562 -0.2926 0.2926 0.9562 -125.2633 166.6697)" class="st22" width="119.5" height="89.7"/>
			<g>
				<g class="st23">
					<path class="st19" d="M559.5,534.8l12.8-3.9c2.9-0.9,4.5-4,3.7-6.9l-26.3-85.9c-0.9-2.9-4-4.5-6.9-3.7l-105.4,32.3L559.5,534.8
						z"/>
				</g>
			</g>
			<g>
				<path class="st24" d="M558.2,483.2c-0.3,0.1-0.7-0.1-0.8-0.4c-0.1-0.3,0.1-0.7,0.4-0.8c0.3-0.1,0.7,0.1,0.8,0.4
					C558.7,482.7,558.5,483.1,558.2,483.2z"/>
				<path d="M558.1,483.1c-0.3,0.1-0.6-0.1-0.6-0.3c-0.1-0.3,0.1-0.6,0.3-0.6c0.3-0.1,0.6,0.1,0.6,0.3
					C558.6,482.7,558.4,483,558.1,483.1z"/>
				<path class="st24" d="M558.1,482.9c-0.2,0.1-0.4-0.1-0.5-0.3c-0.1-0.2,0.1-0.4,0.3-0.5c0.2-0.1,0.4,0.1,0.5,0.3
					C558.4,482.7,558.3,482.9,558.1,482.9z"/>
				<path class="st25" d="M558.1,482.8c-0.1,0-0.3,0-0.3-0.2c0-0.1,0-0.3,0.2-0.3c0.1,0,0.3,0,0.3,0.2
					C558.3,482.6,558.2,482.8,558.1,482.8z"/>
				<g>
					<g>
						<path d="M558,482.4c0.1,0,0.1,0,0.1,0.1c0,0,0,0.1,0,0.1c0,0-0.1,0.1-0.1,0.1c0,0,0,0,0,0c-0.1,0-0.1,0-0.1-0.1
							c0,0,0-0.1,0-0.1C557.9,482.5,557.9,482.4,558,482.4C558,482.4,558,482.4,558,482.4 M558,482.3
							C558,482.3,557.9,482.3,558,482.3c-0.2,0.1-0.3,0.2-0.2,0.3c0,0.1,0.1,0.2,0.2,0.2c0,0,0,0,0.1,0c0.1,0,0.2-0.2,0.2-0.3
							C558.2,482.4,558.1,482.3,558,482.3L558,482.3z"/>
					</g>
				</g>
				<path class="st26" d="M558.1,482.8c-0.1,0-0.3,0-0.3-0.2c0-0.1,0-0.3,0.2-0.3c0.1,0,0.3,0,0.3,0.2
					C558.3,482.6,558.2,482.8,558.1,482.8z"/>
			</g>
		</g>
		<g>
			<path class="st27" d="M551.7,527.7c-0.3,0.1-0.7-0.6-1-1.5L528,451c-0.3-0.9-0.3-1.7,0-1.8l6.3-1.9c0.3-0.1,0.7,0.6,1,1.5
				l22.8,75.1c0.3,0.9,0.3,1.7,0,1.8L551.7,527.7z"/>
			<path class="st11" d="M514.1,539.1c-1.1,0.3-2.3-0.1-2.5-1.1l-22.8-75.1c-0.3-0.9,0.4-2,1.5-2.3l27.8-8.4
				c1.1-0.3,2.3,0.1,2.5,1.1l22.8,75.1c0.3,0.9-0.4,2-1.5,2.3L514.1,539.1z"/>
			<path class="st28" d="M484.3,548.1c-0.7,0.2-1.5-0.4-1.8-1.3l-22.8-75.1c-0.3-0.9,0.1-1.9,0.8-2.1l18-5.5
				c0.7-0.2,1.5,0.4,1.8,1.3l22.8,75.1c0.3,0.9-0.1,1.9-0.8,2.1L484.3,548.1z"/>
			<path class="st29" d="M455.8,556.7c-0.7,0.2-1.6-0.4-1.8-1.3l-22.8-75.1c-0.3-0.9,0.1-1.9,0.8-2.1l18-5.5
				c0.7-0.2,1.5,0.4,1.8,1.3l22.8,75.1c0.3,0.9-0.1,1.9-0.8,2.1L455.8,556.7z"/>
		</g>
	</g>
	<g>
		<path class="st30" d="M470,196.9c49.2-69.2,171.3-37.3,65,25.1s-81,156.6-3.7,95.4"/>
		<path class="st31" d="M469.6,196.4c49.2-69.2,171.3-37.3,65,25.1s-81,156.6-3.7,95.4"/>
		<path class="st31" d="M469.3,196c49.2-69.2,171.3-37.3,65,25.1s-81,156.6-3.7,95.4"/>
		<path class="st31" d="M468.9,195.5c49.2-69.2,171.3-37.3,65,25.1s-81,156.6-3.7,95.4"/>
		<path class="st31" d="M468.6,195c49.2-69.2,171.3-37.3,65,25.1s-81,156.6-3.7,95.4"/>
		<path class="st31" d="M468.3,194.6c49.2-69.2,171.3-37.3,65,25.1s-81,156.6-3.7,95.4"/>
		<path class="st32" d="M467.9,194.1c49.2-69.2,171.3-37.3,65,25.1s-81,156.6-3.7,95.4"/>
		<path class="st32" d="M467.6,193.6c49.2-69.2,171.3-37.3,65,25.1s-81,156.6-3.7,95.4"/>
		<path class="st32" d="M467.2,193.2c49.2-69.2,171.3-37.3,65,25.1s-81,156.6-3.7,95.4"/>
		<path class="st33" d="M466.9,192.7c49.2-69.2,171.3-37.3,65,25.1s-81,156.6-3.7,95.4"/>
		<path class="st33" d="M466.5,192.2c49.2-69.2,171.3-37.3,65,25.1s-81,156.6-3.7,95.4"/>
		<path class="st33" d="M466.2,191.7c49.2-69.2,171.3-37.3,65,25.1s-81,156.6-3.7,95.4"/>
		<path class="st34" d="M465.8,191.3c49.2-69.2,171.3-37.3,65,25.1s-81,156.6-3.7,95.4"/>
		<path class="st34" d="M465.5,190.8c49.2-69.2,171.3-37.3,65,25.1s-81,156.6-3.7,95.4"/>
		<path class="st34" d="M465.2,190.3c49.2-69.2,171.3-37.3,65,25.1s-81,156.6-3.7,95.4"/>
		<path class="st34" d="M464.8,189.9c49.2-69.2,171.3-37.3,65,25.1s-81,156.6-3.7,95.4"/>
		<path class="st35" d="M464.5,189.4c49.2-69.2,171.3-37.3,65,25.1s-81,156.6-3.7,95.4"/>
		<path class="st35" d="M464.1,188.9c49.2-69.2,171.3-37.3,65,25.1s-81,156.6-3.7,95.4"/>
		<path class="st35" d="M463.8,188.5c49.2-69.2,171.3-37.3,65,25.1s-81,156.6-3.7,95.4"/>
		<path class="st35" d="M463.4,188c49.2-69.2,171.3-37.3,65,25.1s-81,156.6-3.7,95.4"/>
		<path class="st36" d="M463.1,187.5c49.2-69.2,171.3-37.3,65,25.1s-81,156.6-3.7,95.4"/>
		<path class="st36" d="M462.7,187.1c49.2-69.2,171.3-37.3,65,25.1s-81,156.6-3.7,95.4"/>
		<path class="st36" d="M462.4,186.6c49.2-69.2,171.3-37.3,65,25.1s-81,156.6-3.7,95.4"/>
		<path class="st36" d="M462.1,186.1c49.2-69.2,171.3-37.3,65,25.1s-81,156.6-3.7,95.4"/>
		<path class="st37" d="M461.7,185.7c49.2-69.2,171.3-37.3,65,25.1s-81,156.6-3.7,95.4"/>
		<path class="st37" d="M461.4,185.2c49.2-69.2,171.3-37.3,65,25.1s-81,156.6-3.7,95.4"/>
		<path class="st37" d="M461,184.7c49.2-69.2,171.3-37.3,65,25.1s-81,156.6-3.7,95.4"/>
		<path class="st37" d="M460.7,184.2c49.2-69.2,171.3-37.3,65,25.1s-81,156.6-3.7,95.4"/>
		<path class="st38" d="M460.3,183.8c49.2-69.2,171.3-37.3,65,25.1s-81,156.6-3.7,95.4"/>
		<path class="st38" d="M460,183.3c49.2-69.2,171.3-37.3,65,25.1s-81,156.6-3.7,95.4"/>
		<path class="st38" d="M459.6,182.8c49.2-69.2,171.3-37.3,65,25.1s-81,156.6-3.7,95.4"/>
		<path class="st38" d="M459.3,182.4c49.2-69.2,171.3-37.3,65,25.1s-81,156.6-3.7,95.4"/>
		<path class="st39" d="M459,181.9c49.2-69.2,171.3-37.3,65,25.1s-81,156.6-3.7,95.4"/>
		<path class="st39" d="M458.6,181.4c49.2-69.2,171.3-37.3,65,25.1s-81,156.6-3.7,95.4"/>
		<path class="st39" d="M458.3,181c49.2-69.2,171.3-37.3,65,25.1s-81,156.6-3.7,95.4"/>
		<path class="st39" d="M457.9,180.5c49.2-69.2,171.3-37.3,65,25.1s-81,156.6-3.7,95.4"/>
		<path class="st40" d="M457.6,180c49.2-69.2,171.3-37.3,65,25.1s-81,156.6-3.7,95.4"/>
		<path class="st40" d="M457.2,179.6c49.2-69.2,171.3-37.3,65,25.1s-81,156.6-3.7,95.4"/>
		<path class="st40" d="M456.9,179.1c49.2-69.2,171.3-37.3,65,25.1s-81,156.6-3.7,95.4"/>
		<path class="st41" d="M456.5,178.6c49.2-69.2,171.3-37.3,65,25.1s-81,156.6-3.7,95.4"/>
		<path class="st41" d="M456.2,178.1c49.2-69.2,171.3-37.3,65,25.1s-81,156.6-3.7,95.4"/>
		<path class="st41" d="M455.8,177.7c49.2-69.2,171.3-37.3,65,25.1s-81,156.6-3.7,95.4"/>
		<path class="st41" d="M455.5,177.2c49.2-69.2,171.3-37.3,65,25.1s-81,156.6-3.7,95.4"/>
		<path class="st41" d="M455.2,176.7c49.2-69.2,171.3-37.3,65,25.1s-81,156.6-3.7,95.4"/>
		<path class="st42" d="M454.8,176.3c49.2-69.2,171.3-37.3,65,25.1s-81,156.6-3.7,95.4"/>
		<path class="st42" d="M454.5,175.8c49.2-69.2,171.3-37.3,65,25.1s-81,156.6-3.7,95.4"/>
		<path class="st42" d="M454.1,175.3c49.2-69.2,171.3-37.3,65,25.1s-81,156.6-3.7,95.4"/>
		<path class="st42" d="M453.8,174.9c49.2-69.2,171.3-37.3,65,25.1s-81,156.6-3.7,95.4"/>
		<path class="st42" d="M453.4,174.4c49.2-69.2,171.3-37.3,65,25.1s-81,156.6-3.7,95.4"/>
		<path class="st43" d="M453.1,173.9c49.2-69.2,171.3-37.3,65,25.1s-81,156.6-3.7,95.4"/>
		<path class="st43" d="M452.7,173.5c49.2-69.2,171.3-37.3,65,25.1s-81,156.6-3.7,95.4"/>
		<path class="st44" d="M452.4,173c49.2-69.2,171.3-37.3,65,25.1s-81,156.6-3.7,95.4"/>
		<path class="st44" d="M452.1,172.5c49.2-69.2,171.3-37.3,65,25.1s-81,156.6-3.7,95.4"/>
		<path class="st44" d="M451.7,172c49.2-69.2,171.3-37.3,65,25.1s-81,156.6-3.7,95.4"/>
		<path class="st44" d="M451.4,171.6c49.2-69.2,171.3-37.3,65,25.1s-81,156.6-3.7,95.4"/>
		<path class="st44" d="M451,171.1c49.2-69.2,171.3-37.3,65,25.1s-81,156.6-3.7,95.4"/>
		<path class="st44" d="M450.7,170.6c49.2-69.2,171.3-37.3,65,25.1s-81,156.6-3.7,95.4"/>
		<path class="st45" d="M450.3,170.2c49.2-69.2,171.3-37.3,65,25.1s-81,156.6-3.7,95.4"/>
		<path class="st45" d="M450,169.7c49.2-69.2,171.3-37.3,65,25.1s-81,156.6-3.7,95.4"/>
		<path class="st45" d="M449.6,169.2c49.2-69.2,171.3-37.3,65,25.1s-81,156.6-3.7,95.4"/>
		<path class="st45" d="M449.3,168.8c49.2-69.2,171.3-37.3,65,25.1s-81,156.6-3.7,95.4"/>
		<path class="st45" d="M449,168.3c49.2-69.2,171.3-37.3,65,25.1s-81,156.6-3.7,95.4"/>
		<path class="st45" d="M448.6,167.8c49.2-69.2,171.3-37.3,65,25.1s-81,156.6-3.7,95.4"/>
		<path class="st46" d="M448.3,167.4c49.2-69.2,171.3-37.3,65,25.1s-81,156.6-3.7,95.4"/>
		<path class="st47" d="M447.9,166.9c49.2-69.2,171.3-37.3,65,25.1s-81,156.6-3.7,95.4"/>
		<path class="st47" d="M447.6,166.4c49.2-69.2,171.3-37.3,65,25.1s-81,156.6-3.7,95.4"/>
		<path class="st47" d="M447.2,165.9c49.2-69.2,171.3-37.3,65,25.1s-81,156.6-3.7,95.4"/>
		<path class="st47" d="M446.9,165.5c49.2-69.2,171.3-37.3,65,25.1s-81,156.6-3.7,95.4"/>
		<path class="st47" d="M446.5,165c49.2-69.2,171.3-37.3,65,25.1s-81,156.6-3.7,95.4"/>
		<path class="st48" d="M446.2,164.5c49.2-69.2,171.3-37.3,65,25.1s-81,156.6-3.7,95.4"/>
		<path class="st48" d="M445.9,164.1c49.2-69.2,171.3-37.3,65,25.1s-81,156.6-3.7,95.4"/>
		<path class="st48" d="M445.5,163.6c49.2-69.2,171.3-37.3,65,25.1s-81,156.6-3.7,95.4"/>
		<path class="st48" d="M445.2,163.1c49.2-69.2,171.3-37.3,65,25.1s-81,156.6-3.7,95.4"/>
		<path class="st48" d="M444.8,162.7c49.2-69.2,171.3-37.3,65,25.1s-81,156.6-3.7,95.4"/>
		<path class="st48" d="M444.5,162.2c49.2-69.2,171.3-37.3,65,25.1s-81,156.6-3.7,95.4"/>
		<path class="st48" d="M444.1,161.7c49.2-69.2,171.3-37.3,65,25.1s-81,156.6-3.7,95.4"/>
		<path class="st49" d="M443.8,161.3c49.2-69.2,171.3-37.3,65,25.1s-81,156.6-3.7,95.4"/>
		<path class="st49" d="M443.4,160.8c49.2-69.2,171.3-37.3,65,25.1s-81,156.6-3.7,95.4"/>
		<path class="st49" d="M443.1,160.3c49.2-69.2,171.3-37.3,65,25.1s-81,156.6-3.7,95.4"/>
		<path class="st49" d="M442.7,159.9c49.2-69.2,171.3-37.3,65,25.1s-81,156.6-3.7,95.4"/>
		<path class="st49" d="M442.4,159.4c49.2-69.2,171.3-37.3,65,25.1s-81,156.6-3.7,95.4"/>
		<path class="st49" d="M442.1,158.9c49.2-69.2,171.3-37.3,65,25.1s-81,156.6-3.7,95.4"/>
	</g>
	<path class="st30" d="M442.1,158.9c49.2-69.2,171.3-37.3,65,25.1s-81,156.6-3.7,95.4"/>
	
		<rect x="534.5" y="279" transform="matrix(0.7573 -0.6531 0.6531 0.7573 -53.6238 420.3661)" class="st18" width="8.4" height="6.8"/>
	<g>
		<path class="st50" d="M561.3,196.9c2.5-2.1,6.3-1.9,8.4,0.6l24.8,28.8c2.1,2.5,1.9,6.3-0.6,8.4l-69.4,59.9
			c-2.5,2.1-6.3,1.9-8.4-0.6l-24.8-28.8c-2.1-2.5-1.9-6.3,0.6-8.4L561.3,196.9z"/>
		<path class="st51" d="M561.3,196.9c2.5-2.1,6.3-1.9,8.4,0.6l24.8,28.8c2.1,2.5,1.9,6.3-0.6,8.4l-69.4,59.9
			c-2.5,2.1-6.3,1.9-8.4-0.6l-24.8-28.8c-2.1-2.5-1.9-6.3,0.6-8.4L561.3,196.9z"/>
		<path class="st51" d="M561.6,197.1c2.5-2.1,6.2-1.9,8.4,0.6l24.5,28.4c2.1,2.5,1.8,6.2-0.7,8.4l-69.4,59.9
			c-2.5,2.1-6.2,1.9-8.4-0.6l-24.5-28.4c-2.1-2.5-1.8-6.2,0.7-8.4L561.6,197.1z"/>
		<path class="st52" d="M561.6,197.6c2.5-2.1,6.2-1.9,8.3,0.5l24.2,28.1c2.1,2.4,1.8,6.1-0.7,8.3l-69,59.5c-2.5,2.1-6.2,1.9-8.3-0.5
			l-24.2-28.1c-2.1-2.4-1.8-6.1,0.7-8.3L561.6,197.6z"/>
		<g>
			<path class="st22" d="M557.7,203c0.4-0.3,0.9-0.3,1.2,0.1l28.6,33.1c0.3,0.4,0.3,0.9-0.1,1.2l-59.7,51.5
				c-0.4,0.3-0.9,0.3-1.2-0.1l-28.6-33.1c-0.3-0.4-0.3-0.9,0.1-1.2L557.7,203z"/>
			<path class="st53" d="M557.7,203c0.4-0.3,0.9-0.3,1.2,0.1l28.6,33.1c0.3,0.4,0.3,0.9-0.1,1.2l-59.7,51.5
				c-0.4,0.3-0.9,0.3-1.2-0.1l-28.6-33.1c-0.3-0.4-0.3-0.9,0.1-1.2L557.7,203z"/>
		</g>
		<path class="st54" d="M580.1,245.9l13.3-11.5c2.5-2.1,2.8-5.9,0.7-8.3l-24.2-28.1c-2.1-2.4-5.8-2.7-8.3-0.5l-50.2,43.3
			L580.1,245.9z"/>
		<g>
			<path class="st55" d="M580.1,214.4c-0.2,0.2-0.6,0.2-0.8-0.1c-0.2-0.2-0.2-0.6,0.1-0.8c0.2-0.2,0.6-0.2,0.8,0.1
				C580.4,213.8,580.3,214.2,580.1,214.4z"/>
		</g>
		<g>
			<path class="st51" d="M579.9,218.7c-0.2,0.2-0.5,0.2-0.7-0.1l-4.2-4.9c-0.2-0.2-0.2-0.5,0.1-0.7l0,0c0.2-0.2,0.5-0.2,0.7,0.1
				l4.2,4.9C580.2,218.2,580.2,218.5,579.9,218.7L579.9,218.7z"/>
			<path class="st56" d="M579.9,218.7c-0.2,0.2-0.5,0.2-0.7-0.1l-4.2-4.9c-0.2-0.2-0.2-0.5,0.1-0.7l0,0c0.2-0.2,0.5-0.2,0.7,0.1
				l4.2,4.9C580.2,218.2,580.2,218.5,579.9,218.7L579.9,218.7z"/>
		</g>
	</g>
	<g>
		<path class="st27" d="M581.8,238.8c-0.1,0.1-0.5-0.1-0.8-0.5l-25.7-29.5c-0.3-0.4-0.5-0.7-0.4-0.8l2.7-2.4
			c0.1-0.1,0.5,0.1,0.8,0.5l25.7,29.5c0.3,0.4,0.5,0.7,0.4,0.8L581.8,238.8z"/>
		<path class="st11" d="M565.5,253c-0.5,0.4-1.1,0.5-1.5,0.1l-25.7-29.5c-0.3-0.4-0.2-1,0.3-1.4l12-10.5c0.5-0.4,1.1-0.5,1.5-0.1
			l25.7,29.5c0.3,0.4,0.2,1-0.3,1.4L565.5,253z"/>
		<path class="st28" d="M552.6,264.3c-0.3,0.3-0.8,0.2-1.1-0.2l-25.7-29.5c-0.3-0.4-0.3-0.9,0-1.2l7.8-6.8c0.3-0.3,0.8-0.2,1.1,0.2
			l25.7,29.5c0.3,0.4,0.3,0.9,0,1.2L552.6,264.3z"/>
		<path class="st29" d="M540.2,275.1c-0.3,0.3-0.8,0.2-1.1-0.2l-25.7-29.5c-0.3-0.4-0.3-0.9,0-1.2l7.8-6.8c0.3-0.3,0.8-0.2,1.1,0.2
			l25.7,29.5c0.3,0.4,0.3,0.9,0,1.2L540.2,275.1z"/>
		<path class="st27" d="M528.4,285.3c-0.3,0.3-0.8,0.2-1.1-0.2l-25.7-29.5c-0.3-0.4-0.3-0.9,0-1.2l7.8-6.8c0.3-0.3,0.8-0.2,1.1,0.2
			l25.7,29.5c0.3,0.4,0.3,0.9,0,1.2L528.4,285.3z"/>
	</g>
	<g>
		<g>
			<path class="st57" d="M202.2,350.4c-1.5,1.7-12.7,13.8-26.9,29.2c0,0-41.5,45-70.2,76.3c-14.2,15.4-25.3,27.5-26.9,29.2
				c-4.7,5.1-6.8,9.6-0.7,15.2c6.2,5.7,85.9,79.1,90.7,83.6c4.8,4.4,9.5,6.3,14.7,0.7c1.7-1.9,13.5-14.7,28.3-30.8
				c29.2-31.7,70.2-76.3,70.2-76.3c14.8-16.1,26.6-28.9,28.3-30.8c5.2-5.6,2.9-10.2-1.9-14.6c-4.8-4.4-84.6-77.9-90.7-83.6
				C211.2,342.8,206.9,345.3,202.2,350.4z"/>
			<g>
				<path class="st58" d="M260.1,406.2c1,0.9,1.1,2.6,0.1,3.6L142,538.2c-0.9,1-2.6,1.1-3.6,0.1l-50-46.1c-1-0.9-1.1-2.6-0.1-3.6
					l118.3-128.5c0.9-1,2.6-1.1,3.6-0.1L260.1,406.2z"/>
			</g>
			<g>
				<path class="st11" d="M262.3,484.9c1,0.9,1.1,2.6,0.1,3.6L220.6,534c-0.9,1-2.6,1.1-3.6,0.1l-32.1-29.6c-1-0.9-1.1-2.6-0.1-3.6
					l41.9-45.5c0.9-1,2.6-1.1,3.6-0.1L262.3,484.9z"/>
			</g>
			<path class="st57" d="M176.4,281.1c-5.3,5.8-66,71.6-82.6,89.7c0,0-1.5,1.7-4.2,4.5C73,393.3,12.4,459.2,7.1,465
				c-5.6,6,0.7,8.9,0.7,8.9l61.1,17.4c0,0,1.6,0.5,3.3-1.4c1.5-1.6,50.3-54.6,65.1-70.7c2.6-2.9,4.2-4.5,4.2-4.5
				c14.8-16,63.6-69.1,65.1-70.7c1.7-1.9,1.1-3.4,1.1-3.4L185,280.4C185,280.4,181.2,275.9,176.4,281.1z"/>
			<path class="st21" d="M177.5,282.1c-5.3,5.8-66,71.6-82.6,89.7c0,0-1.5,1.7-4.2,4.5c-16.6,18-77.3,83.9-82.6,89.7
				c-6.2,6.7,0.1,8,0.1,8L70,492.2c0,0,1.6,0.5,3.3-1.4c1.5-1.6,50.3-54.6,65.1-70.7c2.6-2.9,4.2-4.5,4.2-4.5
				c14.8-16,63.6-69.1,65.1-70.7c1.7-1.9,1.1-3.4,1.1-3.4l-23.3-60.1C185.4,281.5,183.6,275.4,177.5,282.1z"/>
			<polygon class="st22" points="115.7,358.3 78.5,398.7 17.9,464.5 73.2,483.3 117.8,434.9 155.1,394.5 199.7,346.1 176.4,292.4 
							"/>
			<g>
				<g>
					<path class="st21" d="M145.7,507.8c0.4,0.4,0.5,1.1,0.1,1.5l-15,16.3c-0.4,0.4-1.1,0.5-1.5,0.1l-5.8-5.4
						c-0.4-0.4-0.5-1.1-0.1-1.5l15-16.3c0.4-0.4,1.1-0.5,1.5-0.1L145.7,507.8z"/>
				</g>
				<g>
					<g>
						<path class="st21" d="M154,498.9c0.4,0.4,0.5,1.1,0.1,1.5l-5.4,5.8c-0.4,0.4-1.1,0.5-1.5,0.1l-5.8-5.4
							c-0.4-0.4-0.5-1.1-0.1-1.5l5.4-5.8c0.4-0.4,1.1-0.5,1.5-0.1L154,498.9z"/>
					</g>
					<g>
						<path class="st21" d="M145.8,527.2c0.4,0.4,0.5,1.1,0.1,1.5l-5.4,5.8c-0.4,0.4-1.1,0.5-1.5,0.1l-7-6.4
							c-0.4-0.4-0.5-1.1-0.1-1.5l5.4-5.8c0.4-0.4,1.1-0.5,1.5-0.1L145.8,527.2z"/>
					</g>
					<g>
						<path class="st21" d="M154,518.2c0.4,0.4,0.5,1.1,0.1,1.5l-5.4,5.8c-0.4,0.4-1.1,0.5-1.5,0.1l-7-6.4c-0.4-0.4-0.5-1.1-0.1-1.5
							l5.4-5.8c0.4-0.4,1.1-0.5,1.5-0.1L154,518.2z"/>
					</g>
					<g>
						<path class="st21" d="M161.9,509.7c0.4,0.4,0.5,1.1,0.1,1.5l-5.4,5.8c-0.4,0.4-1.1,0.5-1.5,0.1l-7-6.4
							c-0.4-0.4-0.5-1.1-0.1-1.5l5.4-5.8c0.4-0.4,1.1-0.5,1.5-0.1L161.9,509.7z"/>
					</g>
					<g>
						<path class="st21" d="M231.5,434.1c0.4,0.4,0.5,1.1,0.1,1.5l-5.4,5.8c-0.4,0.4-1.1,0.5-1.5,0.1l-7-6.4
							c-0.4-0.4-0.5-1.1-0.1-1.5l5.4-5.8c0.4-0.4,1.1-0.5,1.5-0.1L231.5,434.1z"/>
					</g>
					<g>
						<path class="st21" d="M172.2,498.5c0.4,0.4,0.5,1.1,0.1,1.5l-7.5,8.1c-0.4,0.4-1.1,0.5-1.5,0.1l-7-6.4
							c-0.4-0.4-0.5-1.1-0.1-1.5l7.5-8.1c0.4-0.4,1.1-0.5,1.5-0.1L172.2,498.5z"/>
					</g>
					<g>
						<path class="st21" d="M223.2,443.1c0.4,0.4,0.5,1.1,0.1,1.5l-7.5,8.1c-0.4,0.4-1.1,0.5-1.5,0.1l-7-6.4
							c-0.4-0.4-0.5-1.1-0.1-1.5l7.5-8.1c0.4-0.4,1.1-0.5,1.5-0.1L223.2,443.1z"/>
					</g>
					<g>
						<path class="st21" d="M212.9,454.3c0.4,0.4,0.5,1.1,0.1,1.5l-37.8,41.1c-0.4,0.4-1.1,0.5-1.5,0.1l-7-6.4
							c-0.4-0.4-0.5-1.1-0.1-1.5l37.8-41.1c0.4-0.4,1.1-0.5,1.5-0.1L212.9,454.3z"/>
					</g>
					<g>
						<path class="st21" d="M162.2,489.9c0.4,0.4,0.5,1.1,0.1,1.5l-5.4,5.8c-0.4,0.4-1.1,0.5-1.5,0.1l-5.8-5.4
							c-0.4-0.4-0.5-1.1-0.1-1.5l5.4-5.8c0.4-0.4,1.1-0.5,1.5-0.1L162.2,489.9z"/>
					</g>
					<g>
						<path class="st21" d="M170.4,481c0.4,0.4,0.5,1.1,0.1,1.5l-5.4,5.8c-0.4,0.4-1.1,0.5-1.5,0.1l-5.8-5.4
							c-0.4-0.4-0.5-1.1-0.1-1.5l5.4-5.8c0.4-0.4,1.1-0.5,1.5-0.1L170.4,481z"/>
					</g>
					<g>
						<path class="st21" d="M178.6,472.1c0.4,0.4,0.5,1.1,0.1,1.5l-5.4,5.8c-0.4,0.4-1.1,0.5-1.5,0.1l-5.8-5.4
							c-0.4-0.4-0.5-1.1-0.1-1.5l5.4-5.8c0.4-0.4,1.1-0.5,1.5-0.1L178.6,472.1z"/>
					</g>
					<g>
						<path class="st21" d="M186.8,463.2c0.4,0.4,0.5,1.1,0.1,1.5l-5.4,5.8c-0.4,0.4-1.1,0.5-1.5,0.1l-5.8-5.4
							c-0.4-0.4-0.5-1.1-0.1-1.5l5.4-5.8c0.4-0.4,1.1-0.5,1.5-0.1L186.8,463.2z"/>
					</g>
					<g>
						<path class="st21" d="M195,454.3c0.4,0.4,0.5,1.1,0.1,1.5l-5.4,5.8c-0.4,0.4-1.1,0.5-1.5,0.1l-5.8-5.4
							c-0.4-0.4-0.5-1.1-0.1-1.5l5.4-5.8c0.4-0.4,1.1-0.5,1.5-0.1L195,454.3z"/>
					</g>
					<g>
						<path class="st21" d="M203.2,445.4c0.4,0.4,0.5,1.1,0.1,1.5l-5.4,5.8c-0.4,0.4-1.1,0.5-1.5,0.1l-5.8-5.4
							c-0.4-0.4-0.5-1.1-0.1-1.5l5.4-5.8c0.4-0.4,1.1-0.5,1.5-0.1L203.2,445.4z"/>
					</g>
					<g>
						<path class="st21" d="M211.4,436.5c0.4,0.4,0.5,1.1,0.1,1.5l-5.4,5.8c-0.4,0.4-1.1,0.5-1.5,0.1l-5.8-5.4
							c-0.4-0.4-0.5-1.1-0.1-1.5l5.4-5.8c0.4-0.4,1.1-0.5,1.5-0.1L211.4,436.5z"/>
					</g>
					<g>
						<path class="st21" d="M219.6,427.5c0.4,0.4,0.5,1.1,0.1,1.5l-5.4,5.8c-0.4,0.4-1.1,0.5-1.5,0.1l-5.8-5.4
							c-0.4-0.4-0.5-1.1-0.1-1.5l5.4-5.8c0.4-0.4,1.1-0.5,1.5-0.1L219.6,427.5z"/>
					</g>
					<g>
						<path class="st21" d="M227.8,418.6c0.4,0.4,0.5,1.1,0.1,1.5l-5.4,5.8c-0.4,0.4-1.1,0.5-1.5,0.1l-5.8-5.4
							c-0.4-0.4-0.5-1.1-0.1-1.5l5.4-5.8c0.4-0.4,1.1-0.5,1.5-0.1L227.8,418.6z"/>
					</g>
				</g>
				<g>
					<g>
						<path class="st21" d="M141.9,494.9c0.4,0.4,0.5,1.1,0.1,1.5l-5.4,5.8c-0.4,0.4-1.1,0.5-1.5,0.1l-5.8-5.4
							c-0.4-0.4-0.5-1.1-0.1-1.5l5.4-5.8c0.4-0.4,1.1-0.5,1.5-0.1L141.9,494.9z"/>
					</g>
					<g>
						<path class="st21" d="M150.1,486c0.4,0.4,0.5,1.1,0.1,1.5l-5.4,5.8c-0.4,0.4-1.1,0.5-1.5,0.1l-5.8-5.4
							c-0.4-0.4-0.5-1.1-0.1-1.5l5.4-5.8c0.4-0.4,1.1-0.5,1.5-0.1L150.1,486z"/>
					</g>
					<g>
						<path class="st21" d="M133.6,503.8c0.4,0.4,0.5,1.1,0.1,1.5l-11.4,12.4c-0.4,0.4-1.1,0.5-1.5,0.1l-5.8-5.4
							c-0.4-0.4-0.5-1.1-0.1-1.5l11.4-12.4c0.4-0.4,1.1-0.5,1.5-0.1L133.6,503.8z"/>
					</g>
					<g>
						<path class="st21" d="M158.3,477c0.4,0.4,0.5,1.1,0.1,1.5l-5.4,5.8c-0.4,0.4-1.1,0.5-1.5,0.1l-5.8-5.4
							c-0.4-0.4-0.5-1.1-0.1-1.5l5.4-5.8c0.4-0.4,1.1-0.5,1.5-0.1L158.3,477z"/>
					</g>
					<g>
						<path class="st21" d="M166.5,468.1c0.4,0.4,0.5,1.1,0.1,1.5l-5.4,5.8c-0.4,0.4-1.1,0.5-1.5,0.1l-5.8-5.4
							c-0.4-0.4-0.5-1.1-0.1-1.5l5.4-5.8c0.4-0.4,1.1-0.5,1.5-0.1L166.5,468.1z"/>
					</g>
					<g>
						<path class="st21" d="M174.7,459.2c0.4,0.4,0.5,1.1,0.1,1.5l-5.4,5.8c-0.4,0.4-1.1,0.5-1.5,0.1l-5.8-5.4
							c-0.4-0.4-0.5-1.1-0.1-1.5l5.4-5.8c0.4-0.4,1.1-0.5,1.5-0.1L174.7,459.2z"/>
					</g>
					<g>
						<path class="st21" d="M182.9,450.3c0.4,0.4,0.5,1.1,0.1,1.5l-5.4,5.8c-0.4,0.4-1.1,0.5-1.5,0.1l-5.8-5.4
							c-0.4-0.4-0.5-1.1-0.1-1.5l5.4-5.8c0.4-0.4,1.1-0.5,1.5-0.1L182.9,450.3z"/>
					</g>
					<g>
						<path class="st21" d="M191.1,441.4c0.4,0.4,0.5,1.1,0.1,1.5l-5.4,5.8c-0.4,0.4-1.1,0.5-1.5,0.1l-5.8-5.4
							c-0.4-0.4-0.5-1.1-0.1-1.5l5.4-5.8c0.4-0.4,1.1-0.5,1.5-0.1L191.1,441.4z"/>
					</g>
					<g>
						<path class="st21" d="M199.3,432.5c0.4,0.4,0.5,1.1,0.1,1.5l-5.4,5.8c-0.4,0.4-1.1,0.5-1.5,0.1l-5.8-5.4
							c-0.4-0.4-0.5-1.1-0.1-1.5l5.4-5.8c0.4-0.4,1.1-0.5,1.5-0.1L199.3,432.5z"/>
					</g>
					<g>
						<path class="st21" d="M207.5,423.6c0.4,0.4,0.5,1.1,0.1,1.5l-5.4,5.8c-0.4,0.4-1.1,0.5-1.5,0.1l-5.8-5.4
							c-0.4-0.4-0.5-1.1-0.1-1.5l5.4-5.8c0.4-0.4,1.1-0.5,1.5-0.1L207.5,423.6z"/>
					</g>
					<g>
						<path class="st21" d="M215.7,414.7c0.4,0.4,0.5,1.1,0.1,1.5l-5.4,5.8c-0.4,0.4-1.1,0.5-1.5,0.1l-5.8-5.4
							c-0.4-0.4-0.5-1.1-0.1-1.5l5.4-5.8c0.4-0.4,1.1-0.5,1.5-0.1L215.7,414.7z"/>
					</g>
					<g>
						<path class="st21" d="M223.9,405.7c0.4,0.4,0.5,1.1,0.1,1.5l-5.4,5.8c-0.4,0.4-1.1,0.5-1.5,0.1l-5.8-5.4
							c-0.4-0.4-0.5-1.1-0.1-1.5l5.4-5.8c0.4-0.4,1.1-0.5,1.5-0.1L223.9,405.7z"/>
					</g>
					<g>
						<path class="st21" d="M237.9,390.6c0.4,0.4,0.5,1.1,0.1,1.5l-11.1,12c-0.4,0.4-1.1,0.5-1.5,0.1l-5.8-5.4
							c-0.4-0.4-0.5-1.1-0.1-1.5l11.1-12c0.4-0.4,1.1-0.5,1.5-0.1L237.9,390.6z"/>
					</g>
				</g>
				<g>
					<g>
						<path class="st21" d="M130.8,489.7c0.4,0.4,0.5,1.1,0.1,1.5l-5.4,5.8c-0.4,0.4-1.1,0.5-1.5,0.1l-5.8-5.4
							c-0.4-0.4-0.5-1.1-0.1-1.5l5.4-5.8c0.4-0.4,1.1-0.5,1.5-0.1L130.8,489.7z"/>
					</g>
					<g>
						<path class="st21" d="M139,480.8c0.4,0.4,0.5,1.1,0.1,1.5l-5.4,5.8c-0.4,0.4-1.1,0.5-1.5,0.1l-5.8-5.4
							c-0.4-0.4-0.5-1.1-0.1-1.5l5.4-5.8c0.4-0.4,1.1-0.5,1.5-0.1L139,480.8z"/>
					</g>
					<g>
						<path class="st21" d="M122.6,498.6c0.4,0.4,0.5,1.1,0.1,1.5l-8.9,9.7c-0.4,0.4-1.1,0.5-1.5,0.1l-5.8-5.4
							c-0.4-0.4-0.5-1.1-0.1-1.5l8.9-9.7c0.4-0.4,1.1-0.5,1.5-0.1L122.6,498.6z"/>
					</g>
					<g>
						<path class="st21" d="M130.8,489.7c0.4,0.4,0.5,1.1,0.1,1.5l-5.4,5.8c-0.4,0.4-1.1,0.5-1.5,0.1l-5.8-5.4
							c-0.4-0.4-0.5-1.1-0.1-1.5l5.4-5.8c0.4-0.4,1.1-0.5,1.5-0.1L130.8,489.7z"/>
					</g>
					<g>
						<path class="st21" d="M147.3,471.9c0.4,0.4,0.5,1.1,0.1,1.5l-5.4,5.8c-0.4,0.4-1.1,0.5-1.5,0.1l-5.8-5.4
							c-0.4-0.4-0.5-1.1-0.1-1.5l5.4-5.8c0.4-0.4,1.1-0.5,1.5-0.1L147.3,471.9z"/>
					</g>
					<g>
						<path class="st21" d="M155.5,463c0.4,0.4,0.5,1.1,0.1,1.5l-5.4,5.8c-0.4,0.4-1.1,0.5-1.5,0.1l-5.8-5.4
							c-0.4-0.4-0.5-1.1-0.1-1.5l5.4-5.8c0.4-0.4,1.1-0.5,1.5-0.1L155.5,463z"/>
					</g>
					<g>
						<path class="st21" d="M163.7,454.1c0.4,0.4,0.5,1.1,0.1,1.5l-5.4,5.8c-0.4,0.4-1.1,0.5-1.5,0.1l-5.8-5.4
							c-0.4-0.4-0.5-1.1-0.1-1.5l5.4-5.8c0.4-0.4,1.1-0.5,1.5-0.1L163.7,454.1z"/>
					</g>
					<g>
						<path class="st21" d="M171.9,445.2c0.4,0.4,0.5,1.1,0.1,1.5l-5.4,5.8c-0.4,0.4-1.1,0.5-1.5,0.1l-5.8-5.4
							c-0.4-0.4-0.5-1.1-0.1-1.5l5.4-5.8c0.4-0.4,1.1-0.5,1.5-0.1L171.9,445.2z"/>
					</g>
					<g>
						<path class="st21" d="M180.1,436.3c0.4,0.4,0.5,1.1,0.1,1.5l-5.4,5.8c-0.4,0.4-1.1,0.5-1.5,0.1l-5.8-5.4
							c-0.4-0.4-0.5-1.1-0.1-1.5l5.4-5.8c0.4-0.4,1.1-0.5,1.5-0.1L180.1,436.3z"/>
					</g>
					<g>
						<path class="st21" d="M188.3,427.3c0.4,0.4,0.5,1.1,0.1,1.5l-5.4,5.8c-0.4,0.4-1.1,0.5-1.5,0.1l-5.8-5.4
							c-0.4-0.4-0.5-1.1-0.1-1.5l5.4-5.8c0.4-0.4,1.1-0.5,1.5-0.1L188.3,427.3z"/>
					</g>
					<g>
						<path class="st21" d="M196.5,418.4c0.4,0.4,0.5,1.1,0.1,1.5l-5.4,5.8c-0.4,0.4-1.1,0.5-1.5,0.1l-5.8-5.4
							c-0.4-0.4-0.5-1.1-0.1-1.5l5.4-5.8c0.4-0.4,1.1-0.5,1.5-0.1L196.5,418.4z"/>
					</g>
					<g>
						<path class="st21" d="M204.7,409.5c0.4,0.4,0.5,1.1,0.1,1.5l-5.4,5.8c-0.4,0.4-1.1,0.5-1.5,0.1l-5.8-5.4
							c-0.4-0.4-0.5-1.1-0.1-1.5l5.4-5.8c0.4-0.4,1.1-0.5,1.5-0.1L204.7,409.5z"/>
					</g>
					<g>
						<path class="st21" d="M212.9,400.6c0.4,0.4,0.5,1.1,0.1,1.5l-5.4,5.8c-0.4,0.4-1.1,0.5-1.5,0.1l-5.8-5.4
							c-0.4-0.4-0.5-1.1-0.1-1.5l5.4-5.8c0.4-0.4,1.1-0.5,1.5-0.1L212.9,400.6z"/>
					</g>
					<g>
						<path class="st21" d="M221.1,391.7c0.4,0.4,0.5,1.1,0.1,1.5l-5.4,5.8c-0.4,0.4-1.1,0.5-1.5,0.1l-5.8-5.4
							c-0.4-0.4-0.5-1.1-0.1-1.5l5.4-5.8c0.4-0.4,1.1-0.5,1.5-0.1L221.1,391.7z"/>
					</g>
					<g>
						<path class="st21" d="M229.3,382.8c0.4,0.4,0.5,1.1,0.1,1.5l-5.4,5.8c-0.4,0.4-1.1,0.5-1.5,0.1l-5.8-5.4
							c-0.4-0.4-0.5-1.1-0.1-1.5l5.4-5.8c0.4-0.4,1.1-0.5,1.5-0.1L229.3,382.8z"/>
					</g>
				</g>
				<g>
					<g>
						<path class="st21" d="M110.5,494.7c0.4,0.4,0.5,1.1,0.1,1.5l-5.4,5.8c-0.4,0.4-1.1,0.5-1.5,0.1l-5.8-5.4
							c-0.4-0.4-0.5-1.1-0.1-1.5l5.4-5.8c0.4-0.4,1.1-0.5,1.5-0.1L110.5,494.7z"/>
					</g>
					<g>
						<path class="st21" d="M118.7,485.8c0.4,0.4,0.5,1.1,0.1,1.5l-5.4,5.8c-0.4,0.4-1.1,0.5-1.5,0.1l-5.8-5.4
							c-0.4-0.4-0.5-1.1-0.1-1.5l5.4-5.8c0.4-0.4,1.1-0.5,1.5-0.1L118.7,485.8z"/>
					</g>
					<g>
						<path class="st21" d="M126.9,476.8c0.4,0.4,0.5,1.1,0.1,1.5l-5.4,5.8c-0.4,0.4-1.1,0.5-1.5,0.1l-5.8-5.4
							c-0.4-0.4-0.5-1.1-0.1-1.5l5.4-5.8c0.4-0.4,1.1-0.5,1.5-0.1L126.9,476.8z"/>
					</g>
					<g>
						<path class="st21" d="M135.2,467.9c0.4,0.4,0.5,1.1,0.1,1.5l-5.4,5.8c-0.4,0.4-1.1,0.5-1.5,0.1l-5.8-5.4
							c-0.4-0.4-0.5-1.1-0.1-1.5l5.4-5.8c0.4-0.4,1.1-0.5,1.5-0.1L135.2,467.9z"/>
					</g>
					<g>
						<path class="st21" d="M143.4,459c0.4,0.4,0.5,1.1,0.1,1.5l-5.4,5.8c-0.4,0.4-1.1,0.5-1.5,0.1l-5.8-5.4
							c-0.4-0.4-0.5-1.1-0.1-1.5l5.4-5.8c0.4-0.4,1.1-0.5,1.5-0.1L143.4,459z"/>
					</g>
					<g>
						<path class="st21" d="M151.6,450.1c0.4,0.4,0.5,1.1,0.1,1.5l-5.4,5.8c-0.4,0.4-1.1,0.5-1.5,0.1l-5.8-5.4
							c-0.4-0.4-0.5-1.1-0.1-1.5l5.4-5.8c0.4-0.4,1.1-0.5,1.5-0.1L151.6,450.1z"/>
					</g>
					<g>
						<path class="st21" d="M159.8,441.2c0.4,0.4,0.5,1.1,0.1,1.5l-5.4,5.8c-0.4,0.4-1.1,0.5-1.5,0.1l-5.8-5.4
							c-0.4-0.4-0.5-1.1-0.1-1.5l5.4-5.8c0.4-0.4,1.1-0.5,1.5-0.1L159.8,441.2z"/>
					</g>
					<g>
						<path class="st21" d="M168,432.3c0.4,0.4,0.5,1.1,0.1,1.5l-5.4,5.8c-0.4,0.4-1.1,0.5-1.5,0.1l-5.8-5.4
							c-0.4-0.4-0.5-1.1-0.1-1.5l5.4-5.8c0.4-0.4,1.1-0.5,1.5-0.1L168,432.3z"/>
					</g>
					<g>
						<path class="st21" d="M176.2,423.4c0.4,0.4,0.5,1.1,0.1,1.5l-5.4,5.8c-0.4,0.4-1.1,0.5-1.5,0.1l-5.8-5.4
							c-0.4-0.4-0.5-1.1-0.1-1.5l5.4-5.8c0.4-0.4,1.1-0.5,1.5-0.1L176.2,423.4z"/>
					</g>
					<g>
						<path class="st21" d="M184.4,414.5c0.4,0.4,0.5,1.1,0.1,1.5l-5.4,5.8c-0.4,0.4-1.1,0.5-1.5,0.1l-5.8-5.4
							c-0.4-0.4-0.5-1.1-0.1-1.5l5.4-5.8c0.4-0.4,1.1-0.5,1.5-0.1L184.4,414.5z"/>
					</g>
					<g>
						<path class="st21" d="M192.6,405.5c0.4,0.4,0.5,1.1,0.1,1.5l-5.4,5.8c-0.4,0.4-1.1,0.5-1.5,0.1l-5.8-5.4
							c-0.4-0.4-0.5-1.1-0.1-1.5l5.4-5.8c0.4-0.4,1.1-0.5,1.5-0.1L192.6,405.5z"/>
					</g>
					<g>
						<path class="st21" d="M200.8,396.6c0.4,0.4,0.5,1.1,0.1,1.5l-5.4,5.8c-0.4,0.4-1.1,0.5-1.5,0.1l-5.8-5.4
							c-0.4-0.4-0.5-1.1-0.1-1.5l5.4-5.8c0.4-0.4,1.1-0.5,1.5-0.1L200.8,396.6z"/>
					</g>
					<g>
						<path class="st21" d="M209,387.7c0.4,0.4,0.5,1.1,0.1,1.5l-5.4,5.8c-0.4,0.4-1.1,0.5-1.5,0.1l-5.8-5.4
							c-0.4-0.4-0.5-1.1-0.1-1.5l5.4-5.8c0.4-0.4,1.1-0.5,1.5-0.1L209,387.7z"/>
					</g>
					<g>
						<path class="st21" d="M220.8,374.9c0.4,0.4,0.5,1.1,0.1,1.5l-8.9,9.7c-0.4,0.4-1.1,0.5-1.5,0.1l-5.8-5.4
							c-0.4-0.4-0.5-1.1-0.1-1.5l8.9-9.7c0.4-0.4,1.1-0.5,1.5-0.1L220.8,374.9z"/>
					</g>
				</g>
				<g>
					<g>
						<path class="st21" d="M102.2,486.6c0.4,0.4,0.5,1.1,0.1,1.5l-5.6,6c-0.4,0.4-1.1,0.5-1.5,0.1l-3.1-2.9
							c-0.4-0.4-0.5-1.1-0.1-1.5l5.6-6c0.4-0.4,1.1-0.5,1.5-0.1L102.2,486.6z"/>
					</g>
					<g>
						<path class="st21" d="M110.7,477.4c0.4,0.4,0.5,1.1,0.1,1.5l-5.6,6c-0.4,0.4-1.1,0.5-1.5,0.1l-3.1-2.9
							c-0.4-0.4-0.5-1.1-0.1-1.5l5.6-6c0.4-0.4,1.1-0.5,1.5-0.1L110.7,477.4z"/>
					</g>
					<g>
						<path class="st21" d="M119.2,468.2c0.4,0.4,0.5,1.1,0.1,1.5l-5.6,6c-0.4,0.4-1.1,0.5-1.5,0.1l-3.1-2.9
							c-0.4-0.4-0.5-1.1-0.1-1.5l5.6-6c0.4-0.4,1.1-0.5,1.5-0.1L119.2,468.2z"/>
					</g>
					<g>
						<path class="st21" d="M127.6,459c0.4,0.4,0.5,1.1,0.1,1.5l-5.6,6c-0.4,0.4-1.1,0.5-1.5,0.1l-3.1-2.9c-0.4-0.4-0.5-1.1-0.1-1.5
							l5.6-6c0.4-0.4,1.1-0.5,1.5-0.1L127.6,459z"/>
					</g>
					<g>
						<path class="st21" d="M136.1,449.8c0.4,0.4,0.5,1.1,0.1,1.5l-5.6,6c-0.4,0.4-1.1,0.5-1.5,0.1l-3.1-2.9
							c-0.4-0.4-0.5-1.1-0.1-1.5l5.6-6c0.4-0.4,1.1-0.5,1.5-0.1L136.1,449.8z"/>
					</g>
					<g>
						<path class="st21" d="M144.6,440.6c0.4,0.4,0.5,1.1,0.1,1.5l-5.6,6c-0.4,0.4-1.1,0.5-1.5,0.1l-3.1-2.9
							c-0.4-0.4-0.5-1.1-0.1-1.5l5.6-6c0.4-0.4,1.1-0.5,1.5-0.1L144.6,440.6z"/>
					</g>
					<g>
						<path class="st21" d="M153,431.4c0.4,0.4,0.5,1.1,0.1,1.5l-5.6,6c-0.4,0.4-1.1,0.5-1.5,0.1l-3.1-2.9c-0.4-0.4-0.5-1.1-0.1-1.5
							l5.6-6c0.4-0.4,1.1-0.5,1.5-0.1L153,431.4z"/>
					</g>
					<g>
						<path class="st21" d="M161.5,422.2c0.4,0.4,0.5,1.1,0.1,1.5l-5.6,6c-0.4,0.4-1.1,0.5-1.5,0.1l-3.1-2.9
							c-0.4-0.4-0.5-1.1-0.1-1.5l5.6-6c0.4-0.4,1.1-0.5,1.5-0.1L161.5,422.2z"/>
					</g>
					<g>
						<path class="st21" d="M170,413c0.4,0.4,0.5,1.1,0.1,1.5l-5.6,6c-0.4,0.4-1.1,0.5-1.5,0.1l-3.1-2.9c-0.4-0.4-0.5-1.1-0.1-1.5
							l5.6-6c0.4-0.4,1.1-0.5,1.5-0.1L170,413z"/>
					</g>
					<g>
						<path class="st21" d="M178.4,403.8c0.4,0.4,0.5,1.1,0.1,1.5l-5.6,6c-0.4,0.4-1.1,0.5-1.5,0.1l-3.1-2.9
							c-0.4-0.4-0.5-1.1-0.1-1.5l5.6-6c0.4-0.4,1.1-0.5,1.5-0.1L178.4,403.8z"/>
					</g>
					<g>
						<path class="st21" d="M186.9,394.7c0.4,0.4,0.5,1.1,0.1,1.5l-5.6,6c-0.4,0.4-1.1,0.5-1.5,0.1l-3.1-2.9
							c-0.4-0.4-0.5-1.1-0.1-1.5l5.6-6c0.4-0.4,1.1-0.5,1.5-0.1L186.9,394.7z"/>
					</g>
					<g>
						<path class="st21" d="M195.4,385.5c0.4,0.4,0.5,1.1,0.1,1.5l-5.6,6c-0.4,0.4-1.1,0.5-1.5,0.1l-3.1-2.9
							c-0.4-0.4-0.5-1.1-0.1-1.5l5.6-6c0.4-0.4,1.1-0.5,1.5-0.1L195.4,385.5z"/>
					</g>
					<g>
						<path class="st21" d="M203.8,376.3c0.4,0.4,0.5,1.1,0.1,1.5l-5.6,6c-0.4,0.4-1.1,0.5-1.5,0.1l-3.1-2.9
							c-0.4-0.4-0.5-1.1-0.1-1.5l5.6-6c0.4-0.4,1.1-0.5,1.5-0.1L203.8,376.3z"/>
					</g>
					<g>
						<path class="st21" d="M212.3,367.1c0.4,0.4,0.5,1.1,0.1,1.5l-5.6,6c-0.4,0.4-1.1,0.5-1.5,0.1l-3.1-2.9
							c-0.4-0.4-0.5-1.1-0.1-1.5l5.6-6c0.4-0.4,1.1-0.5,1.5-0.1L212.3,367.1z"/>
					</g>
				</g>
				<g>
					<path class="st21" d="M246.4,398.5c0.4,0.4,0.5,1.1,0.1,1.5L230.8,417c-0.4,0.4-1.1,0.5-1.5,0.1l-5.8-5.4
						c-0.4-0.4-0.5-1.1-0.1-1.5l15.7-17.1c0.4-0.4,1.1-0.5,1.5-0.1L246.4,398.5z"/>
				</g>
				<g>
					<path class="st21" d="M237,422.7c-0.4-0.4-1.1-0.4-1.5,0.1l-5.7,6.2c-0.4,0.4-0.4,1.1,0.1,1.5l2.7,2.5c0.4,0.4,1.1,0.4,1.5-0.1
						l5.7-6.2c0.4-0.4,0.4-1.1-0.1-1.5L237,422.7z"/>
				</g>
				<g>
					<path class="st21" d="M245.2,413.8c-0.4-0.4-1.1-0.4-1.5,0.1l-5.7,6.2c-0.4,0.4-0.4,1.1,0.1,1.5l2.7,2.5
						c0.4,0.4,1.1,0.4,1.5-0.1l5.7-6.2c0.4-0.4,0.4-1.1-0.1-1.5L245.2,413.8z"/>
				</g>
				<g>
					<path class="st21" d="M240.9,409.9c-0.4-0.4-1.1-0.4-1.5,0.1l-5.7,6.2c-0.4,0.4-0.4,1.1,0.1,1.5l2.3,2.1
						c0.4,0.4,1.1,0.4,1.5-0.1l5.7-6.2c0.4-0.4,0.4-1.1-0.1-1.5L240.9,409.9z"/>
				</g>
				<g>
					<path class="st21" d="M253.4,404.9c-0.4-0.4-1.1-0.4-1.5,0.1l-5.7,6.2c-0.4,0.4-0.4,1.1,0.1,1.5l2.7,2.5
						c0.4,0.4,1.1,0.4,1.5-0.1l5.7-6.2c0.4-0.4,0.4-1.1-0.1-1.5L253.4,404.9z"/>
				</g>
			</g>
			<path class="st59" d="M177.5,282.1c-3.7,4-34.5,37.5-58.4,63.4l-14.5,111.4c13.2-14.3,27.1-29.4,33.8-36.7
				c2.6-2.9,4.2-4.5,4.2-4.5c14.8-16,63.6-69.1,65.1-70.7c1.7-1.9,1.1-3.4,1.1-3.4l-23.3-60.1C185.4,281.5,183.6,275.4,177.5,282.1z
				"/>
		</g>
		<g>
			<path class="st27" d="M76.1,414.3c0.4,0.3,0.4,1-0.1,1.5l-41.7,45.6c-0.5,0.6-1.3,0.9-1.9,0.7l-3.9-1.4c-0.5-0.2-0.6-0.8,0-1.4
				l42.7-46.7c0.5-0.6,1.3-0.8,1.8-0.5L76.1,414.3z"/>
			<path class="st28" d="M109.1,437.1c0.3,0.2,0.2,0.7-0.2,1.2l-34.6,37.8c-0.4,0.5-1.1,0.7-1.4,0.6l-9.5-3.4
				c-0.4-0.1-0.4-0.7,0.1-1.2l36.4-39.7c0.4-0.5,1.1-0.7,1.4-0.5L109.1,437.1z"/>
			<path class="st29" d="M150.4,391.9c0.2,0.3,0.1,0.9-0.4,1.4l-34.6,37.8c-0.4,0.5-1,0.7-1.3,0.5l-7.6-5.5
				c-0.3-0.2-0.2-0.8,0.2-1.3l36.4-39.7c0.4-0.5,1-0.6,1.3-0.3L150.4,391.9z"/>
			<path class="st27" d="M192.1,346.4c0.2,0.4-0.1,1-0.5,1.5L157,385.7c-0.4,0.5-1,0.6-1.2,0.3l-5.7-7.6c-0.2-0.3-0.1-1,0.4-1.5
				l36.4-39.7c0.4-0.5,1-0.6,1.1-0.2L192.1,346.4z"/>
			<path class="st11" d="M186.2,332.2c0.2,0.4,0,1.2-0.5,1.6L60.2,470.9c-0.5,0.5-1.2,0.8-1.6,0.6l-19.8-7.2c-0.5-0.2-0.5-0.8,0-1.3
				l137.6-150.4c0.5-0.5,1.1-0.6,1.3-0.1L186.2,332.2z"/>
			<path class="st60" d="M175,306.2c0.2,0.5,0,1.4-0.5,1.9l-91.1,99.6c-0.5,0.6-1.3,0.8-1.7,0.5l-3.1-2.2c-0.4-0.3-0.4-1,0.2-1.6
				L172,302.5c0.5-0.6,1.1-0.6,1.4-0.1L175,306.2z"/>
		</g>
	</g>
	<g>
		<path class="st57" d="M576.2,51.7c-4.5-0.3-109.6-8.1-202.8-15c0,0-67.8-5-143.3-10.6c-93.2-6.9-198.3-14.7-202.8-15
			c-8.1-0.6-9.6,6.2-9.6,6.2l212,14.2L373,42.1l211.8,17C584.8,59.2,584.3,52.3,576.2,51.7z"/>
		<path class="st61" d="M350,169.3l-1.5-16.4l-37.9-2.8l-35.2-2.6l-37.9-2.8l-3.9,16c0,0-7,21.2,14.6,22.8c7,0.5,15.7,1.2,24.3,1.8
			c17.9,1.3,35.2,2.6,35.2,2.6c8.6,0.6,17.3,1.3,24.3,1.8C353.8,191.4,350,169.3,350,169.3z"/>
		<path class="st62" d="M350.1,168.2l-1.5-16.4l-37.9-2.8l-35.2-2.6l-37.9-2.8l-3.9,16c0,0-7,21.2,14.6,22.8
			c7,0.5,15.7,1.2,24.3,1.8c17.9,1.3,35.2,2.6,35.2,2.6c8.6,0.6,17.3,1.3,24.3,1.8C353.9,190.3,350.1,168.2,350.1,168.2z"/>
		<path class="st21" d="M576,54.4c-13-1-255-18.9-273.1-20.2c0,0-0.4,0-1.1-0.1C283.7,32.8,40,14.8,27,13.9c-13.5-1-8.7,7.5-8.7,7.5
			S81.6,121.2,86.6,127c5,5.8,5,5.8,21.2,7c15.5,1.1,355,26.2,370.5,27.4c16.2,1.2,16.2,1.2,22-3.8c5.8-5,83.1-94.5,83.1-94.5
			S589.5,55.4,576,54.4z"/>
		<polygon class="st22" points="339.9,47.9 261.5,42.1 42.5,25.9 95.5,116.8 255.1,128.6 333.5,134.4 493.1,146.2 559,64.1 		"/>
		<path class="st59" d="M576,54.4c-9.8-0.7-148.6-11-224.8-16.6l-215,98.3c84.9,6.3,329.2,24.3,342.3,25.3c16.2,1.2,16.2,1.2,22-3.8
			c5.8-5,83.1-94.5,83.1-94.5S589.5,55.4,576,54.4z"/>
		<g>
			<path class="st57" d="M86.6,127c5,5.8,5,5.8,21.2,7c15.5,1.1,355,26.2,370.5,27.4c16.2,1.2,16.2,1.2,22-3.8
				c0.7-0.6,2.4-2.4,4.9-5.1L82.6,121.3C84.6,124.3,86,126.3,86.6,127z"/>
		</g>
		<path class="st21" d="M300.3,142.8c-0.1,1.5-3.2,2.5-7,2.2c-3.7-0.3-6.7-1.7-6.6-3.2c0.1-1.5,3.2-2.5,7-2.2
			C297.5,139.9,300.4,141.3,300.3,142.8z"/>
	</g>
	<path class="st27" d="M247.3,55c0.1,0.9-0.6,1.6-1.6,1.5l-77-5.7c-0.9-0.1-1.9-0.9-2.3-1.8l-2.3-7c-0.3-1,0.2-1.7,1.2-1.7l79.4,5.9
		c1,0.1,1.8,0.9,1.9,1.9L247.3,55z"/>
	<path class="st28" d="M252.5,122.8c0.1,0.6-0.5,1-1.3,0.9l-60.2-4.5c-0.7-0.1-1.5-0.6-1.7-1.2l-5.1-15.5c-0.2-0.7,0.2-1.2,1-1.1
		l64.3,4.8c0.8,0.1,1.5,0.6,1.5,1.3L252.5,122.8z"/>
	<path class="st29" d="M324.6,128.1c-0.1,0.6-0.8,1-1.5,0.9l-60.2-4.5c-0.7-0.1-1.4-0.6-1.4-1.1l-0.8-15.2c0-0.6,0.6-1.1,1.4-1.1
		l64.3,4.8c0.8,0.1,1.3,0.6,1.2,1.3L324.6,128.1z"/>
	<path class="st27" d="M397.3,133.5c-0.3,0.6-1.1,1-1.8,0.9l-60.2-4.5c-0.7-0.1-1.2-0.6-1.1-1.1l3.5-14.9c0.1-0.6,0.9-1.1,1.7-1.1
		l64.3,4.8c0.8,0.1,1.2,0.6,0.9,1.2L397.3,133.5z"/>
	<path class="st11" d="M408.6,111.6c-0.3,0.7-1.2,1.1-2.1,1.1L183.5,96.2c-0.8-0.1-1.7-0.7-1.9-1.4l-11.3-34.2
		c-0.3-0.9,0.2-1.5,1.1-1.5l252.2,18.6c0.9,0.1,1.3,0.8,0.9,1.6L408.6,111.6z"/>
	<path class="st60" d="M430,68.5c-0.4,0.9-1.6,1.5-2.5,1.5L259.3,57.5c-0.9-0.1-1.7-0.9-1.8-1.8l-0.4-6.9c-0.1-1,0.7-1.7,1.7-1.6
		l173.5,12.8c1,0.1,1.4,0.9,0.9,1.8L430,68.5z"/>
	<linearGradient id="SVGID_9_" gradientUnits="userSpaceOnUse" x1="705.1003" y1="509.2126" x2="705.1003" y2="509.2126">
		<stop  offset="0" style="stop-color:#FFFFFF"/>
		<stop  offset="0.4681" style="stop-color:#FDFDFD"/>
		<stop  offset="0.7041" style="stop-color:#F5F5F5"/>
		<stop  offset="0.8877" style="stop-color:#E8E8E8"/>
		<stop  offset="1" style="stop-color:#DBDBDB"/>
	</linearGradient>
	<path class="st63" d="M705.1,509.2"/>
	<g>
		<path class="st64" d="M148.6,190.9c-2.4-3.7-6-7.1-9.8-8.6c-12.4-4.8-26.3-6.2-40.4-3.4c-14,2.8-26.3,9.5-35.9,18.8
			c-2.9,2.8-4.9,7.3-5.7,11.7c-11,15.2-15.9,34.7-11.9,54.5c2.9,14.4,10.1,27.3,20.9,37.2c1.3,1.2,3.1,1.2,4.5,0.3
			c6.4,11.6,17.6,17.8,26.7,14.3l0-0.1c0.8,2.1,2.4,3.4,3.6,2.9c0.5-0.2,0.8-0.7,1-1.3c0.3-0.1,0.6-0.1,0.9-0.2l4.2-1.7l4.2-1.7
			c2.3-0.9,3.5-3.5,2.6-5.9l-9.8-24.9l-9.8-24.9c-0.9-2.3-3.5-3.5-5.9-2.6l-4.2,1.7l-4.2,1.7c-0.3,0.1-0.6,0.3-0.8,0.4
			c-0.5-0.3-1.1-0.5-1.6-0.3c-1.2,0.5-1.4,2.5-0.6,4.6l0-0.1c-9,3.5-13,15.5-9.9,28.2c-7.3-8.2-12.3-18.1-14.5-29
			c-3-14.8-0.4-29.5,6.3-41.9c1.5,1.4,3.7,0,6.3-3.8c8.3-12.1,21.2-21.1,36.6-24.2c15.5-3.1,30.8,0.2,43.1,8.1
			c3.8,2.5,6.4,2.9,7.3,1c11,8.8,19.1,21.3,22.1,36.2c2.2,10.9,1.5,22-2.1,32.3c-2.1-12.9-10.5-22.4-20.1-22.1l0,0.1
			c-0.1-2.2-1.1-4-2.4-4c-0.5,0-1,0.3-1.3,0.9c-0.3-0.1-0.6-0.1-0.9-0.1l-4.5,0.1l-4.5,0.1c-2.5,0.1-4.5,2.1-4.4,4.6l0.7,26.8
			l0.7,26.8c0.1,2.5,2.1,4.5,4.6,4.4l4.5-0.1l4.5-0.1c0.3,0,0.6,0,0.9-0.1c0.4,0.5,0.9,0.8,1.4,0.8c1.2,0,2.2-1.9,2.2-4.1l0,0.1
			c9.8-0.2,17.7-10.4,19-23.5c0.5,0.1,1,0.1,1.4,0c1.1-0.2,2.1-0.9,2.6-2c6.1-13.3,7.7-28,4.8-42.4
			C176.7,216.7,164.6,200.6,148.6,190.9z"/>
		<path class="st65" d="M147.5,190.2c-2.4-3.7-6-7.1-9.8-8.6c-12.4-4.8-26.3-6.2-40.4-3.4c-14,2.8-26.3,9.5-35.9,18.8
			c-2.9,2.8-4.9,7.3-5.7,11.7c-11,15.2-15.9,34.7-11.9,54.5c2.9,14.4,10.1,27.3,20.9,37.2c1.3,1.2,3.1,1.2,4.5,0.3
			c6.4,11.6,17.6,17.8,26.7,14.3l0-0.1c0.8,2.1,2.4,3.4,3.6,2.9c0.5-0.2,0.8-0.7,1-1.3c0.3-0.1,0.6-0.1,0.9-0.2l4.2-1.7l4.2-1.7
			c2.3-0.9,3.5-3.5,2.6-5.9l-9.8-24.9l-9.8-24.9c-0.9-2.3-3.5-3.5-5.9-2.6l-4.2,1.7l-4.2,1.7c-0.3,0.1-0.6,0.3-0.8,0.4
			c-0.5-0.3-1.1-0.5-1.6-0.3c-1.2,0.5-1.4,2.5-0.6,4.6l0-0.1c-9,3.5-13,15.5-9.9,28.2c-7.3-8.2-12.3-18.1-14.5-29
			c-3-14.8-0.4-29.5,6.3-41.9c1.5,1.4,3.7,0,6.3-3.8c8.3-12.1,21.2-21.1,36.6-24.2c15.5-3.1,30.8,0.2,43.1,8.1
			c3.8,2.5,6.4,2.9,7.3,1c11,8.8,19.1,21.3,22.1,36.2c2.2,10.9,1.5,22-2.1,32.3c-2.1-12.9-10.5-22.4-20.1-22.1l0,0.1
			c-0.1-2.2-1.1-4-2.4-4c-0.5,0-1,0.3-1.3,0.9c-0.3-0.1-0.6-0.1-0.9-0.1l-4.5,0.1l-4.5,0.1c-2.5,0.1-4.5,2.1-4.4,4.6L133,276
			l0.7,26.8c0.1,2.5,2.1,4.5,4.6,4.4l4.5-0.1l4.5-0.1c0.3,0,0.6,0,0.9-0.1c0.4,0.5,0.9,0.8,1.4,0.8c1.2,0,2.2-1.9,2.2-4.1l0,0.1
			c9.8-0.2,17.7-10.4,19-23.5c0.5,0.1,1,0.1,1.4,0c1.1-0.2,2.1-0.9,2.6-2c6.1-13.3,7.7-28,4.8-42.4
			C175.6,216,163.5,199.8,147.5,190.2z"/>
		<path class="st66" d="M146.4,189.4c-2.4-3.7-6-7.1-9.8-8.6c-12.4-4.8-26.3-6.2-40.4-3.4c-14,2.8-26.3,9.5-35.9,18.8
			c-2.9,2.8-4.9,7.3-5.7,11.7c-11,15.2-15.9,34.7-11.9,54.5c2.9,14.4,10.1,27.3,20.9,37.2c1.3,1.2,3.1,1.2,4.5,0.3
			c6.4,11.6,17.6,17.8,26.7,14.3l0-0.1c0.8,2.1,2.4,3.4,3.6,2.9c0.5-0.2,0.8-0.7,1-1.3c0.3-0.1,0.6-0.1,0.9-0.2l4.2-1.7l4.2-1.7
			c2.3-0.9,3.5-3.5,2.6-5.9l-9.8-24.9l-9.8-24.9c-0.9-2.3-3.5-3.5-5.9-2.6l-4.2,1.7l-4.2,1.7c-0.3,0.1-0.6,0.3-0.8,0.4
			c-0.5-0.3-1.1-0.5-1.6-0.3c-1.2,0.5-1.4,2.5-0.6,4.6l0-0.1c-9,3.5-13,15.5-9.9,28.2c-7.3-8.2-12.3-18.1-14.5-29
			c-3-14.8-0.4-29.5,6.3-41.9c1.5,1.4,3.7,0,6.3-3.8c8.3-12.1,21.2-21.1,36.6-24.2c15.5-3.1,30.8,0.2,43.1,8.1
			c3.8,2.5,6.4,2.9,7.3,1c11,8.8,19.1,21.3,22.1,36.2c2.2,10.9,1.5,22-2.1,32.3c-2.1-12.9-10.5-22.4-20.1-22.1l0,0.1
			c-0.1-2.2-1.1-4-2.4-4c-0.5,0-1,0.3-1.3,0.9c-0.3-0.1-0.6-0.1-0.9-0.1l-4.5,0.1l-4.5,0.1c-2.5,0.1-4.5,2.1-4.4,4.6l0.7,26.8
			l0.7,26.8c0.1,2.5,2.1,4.5,4.6,4.4l4.5-0.1l4.5-0.1c0.3,0,0.6,0,0.9-0.1c0.4,0.5,0.9,0.8,1.4,0.8c1.2,0,2.2-1.9,2.2-4.1l0,0.1
			c9.8-0.2,17.7-10.4,19-23.5c0.5,0.1,1,0.1,1.4,0c1.1-0.2,2.1-0.9,2.6-2c6.1-13.3,7.7-28,4.8-42.4
			C174.5,215.2,162.4,199.1,146.4,189.4z"/>
		<path class="st67" d="M145.2,188.7c-2.4-3.7-6-7.1-9.8-8.6c-12.4-4.8-26.3-6.2-40.4-3.4c-14,2.8-26.3,9.5-35.9,18.8
			c-2.9,2.8-4.9,7.3-5.7,11.7c-11,15.2-15.9,34.7-11.9,54.5c2.9,14.4,10.1,27.3,20.9,37.2c1.3,1.2,3.1,1.2,4.5,0.3
			c6.4,11.6,17.6,17.8,26.7,14.3l0-0.1c0.8,2.1,2.4,3.4,3.6,2.9c0.5-0.2,0.8-0.7,1-1.3c0.3-0.1,0.6-0.1,0.9-0.2l4.2-1.7l4.2-1.7
			c2.3-0.9,3.5-3.5,2.6-5.9l-9.8-24.9l-9.8-24.9c-0.9-2.3-3.5-3.5-5.9-2.6l-4.2,1.7l-4.2,1.7c-0.3,0.1-0.6,0.3-0.8,0.4
			c-0.5-0.3-1.1-0.5-1.6-0.3c-1.2,0.5-1.4,2.5-0.6,4.6l0-0.1c-9,3.5-13,15.5-9.9,28.2c-7.3-8.2-12.3-18.1-14.5-29
			c-3-14.8-0.4-29.5,6.3-41.9c1.5,1.4,3.7,0,6.3-3.8c8.3-12.1,21.2-21.1,36.6-24.2c15.5-3.1,30.8,0.2,43.1,8.1
			c3.8,2.5,6.4,2.9,7.3,1c11,8.8,19.1,21.3,22.1,36.2c2.2,10.9,1.5,22-2.1,32.3c-2.1-12.9-10.5-22.4-20.1-22.1l0,0.1
			c-0.1-2.2-1.1-4-2.4-4c-0.5,0-1,0.3-1.3,0.9c-0.3-0.1-0.6-0.1-0.9-0.1L139,243l-4.5,0.1c-2.5,0.1-4.5,2.1-4.4,4.6l0.7,26.8
			l0.7,26.8c0.1,2.5,2.1,4.5,4.6,4.4l4.5-0.1l4.5-0.1c0.3,0,0.6,0,0.9-0.1c0.4,0.5,0.9,0.8,1.4,0.8c1.2,0,2.2-1.9,2.2-4.1l0,0.1
			c9.8-0.2,17.7-10.4,19-23.5c0.5,0.1,1,0.1,1.4,0c1.1-0.2,2.1-0.9,2.6-2c6.1-13.3,7.7-28,4.8-42.4
			C173.4,214.5,161.3,198.4,145.2,188.7z"/>
		<path class="st68" d="M144.1,187.9c-2.4-3.7-6-7.1-9.8-8.6c-12.4-4.8-26.3-6.2-40.4-3.4c-14,2.8-26.3,9.5-35.9,18.8
			c-2.9,2.8-4.9,7.3-5.7,11.7c-11,15.2-15.9,34.7-11.9,54.5c2.9,14.4,10.1,27.3,20.9,37.2c1.3,1.2,3.1,1.2,4.5,0.3
			c6.4,11.6,17.6,17.8,26.7,14.3l0-0.1c0.8,2.1,2.4,3.4,3.6,2.9c0.5-0.2,0.8-0.7,1-1.3c0.3-0.1,0.6-0.1,0.9-0.2l4.2-1.7l4.2-1.7
			c2.3-0.9,3.5-3.5,2.6-5.9l-9.8-24.9L89.3,255c-0.9-2.3-3.5-3.5-5.9-2.6l-4.2,1.7l-4.2,1.7c-0.3,0.1-0.6,0.3-0.8,0.4
			c-0.5-0.3-1.1-0.5-1.6-0.3c-1.2,0.5-1.4,2.5-0.6,4.6l0-0.1c-9,3.5-13,15.5-9.9,28.2c-7.3-8.2-12.3-18.1-14.5-29
			c-3-14.8-0.4-29.5,6.3-41.9c1.5,1.4,3.7,0,6.3-3.8c8.3-12.1,21.2-21.1,36.6-24.2c15.5-3.1,30.8,0.2,43.1,8.1
			c3.8,2.5,6.4,2.9,7.3,1c11,8.8,19.1,21.3,22.1,36.2c2.2,10.9,1.5,22-2.1,32.3c-2.1-12.9-10.5-22.4-20.1-22.1l0,0.1
			c-0.1-2.2-1.1-4-2.4-4c-0.5,0-1,0.3-1.3,0.9c-0.3-0.1-0.6-0.1-0.9-0.1l-4.5,0.1l-4.5,0.1c-2.5,0.1-4.5,2.1-4.4,4.6l0.7,26.8
			l0.7,26.8c0.1,2.5,2.1,4.5,4.6,4.4l4.5-0.1l4.5-0.1c0.3,0,0.6,0,0.9-0.1c0.4,0.5,0.9,0.8,1.4,0.8c1.2,0,2.2-1.9,2.2-4.1l0,0.1
			c9.8-0.2,17.7-10.4,19-23.5c0.5,0.1,1,0.1,1.4,0c1.1-0.2,2.1-0.9,2.6-2c6.1-13.3,7.7-28,4.8-42.4
			C172.3,213.7,160.2,197.6,144.1,187.9z"/>
		<path class="st69" d="M143,187.2c-2.4-3.7-6-7.1-9.8-8.6c-12.4-4.8-26.3-6.2-40.4-3.4c-14,2.8-26.3,9.5-35.9,18.8
			c-2.9,2.8-4.9,7.3-5.7,11.7c-11,15.2-15.9,34.7-11.9,54.5c2.9,14.4,10.1,27.3,20.9,37.2c1.3,1.2,3.1,1.2,4.5,0.3
			c6.4,11.6,17.6,17.8,26.7,14.3l0-0.1c0.8,2.1,2.4,3.4,3.6,2.9c0.5-0.2,0.8-0.7,1-1.3c0.3-0.1,0.6-0.1,0.9-0.2l4.2-1.7l4.2-1.7
			c2.3-0.9,3.5-3.5,2.6-5.9L98,279.2l-9.8-24.9c-0.9-2.3-3.5-3.5-5.9-2.6l-4.2,1.7l-4.2,1.7c-0.3,0.1-0.6,0.3-0.8,0.4
			c-0.5-0.3-1.1-0.5-1.6-0.3c-1.2,0.5-1.4,2.5-0.6,4.6l0-0.1c-9,3.5-13,15.5-9.9,28.2c-7.3-8.2-12.3-18.1-14.5-29
			c-3-14.8-0.4-29.5,6.3-41.9c1.5,1.4,3.7,0,6.3-3.8c8.3-12.1,21.2-21.1,36.6-24.2c15.5-3.1,30.8,0.2,43.1,8.1
			c3.8,2.5,6.4,2.9,7.3,1c11,8.8,19.1,21.3,22.1,36.2c2.2,10.9,1.5,22-2.1,32.3c-2.1-12.9-10.5-22.4-20.1-22.1l0,0.1
			c-0.1-2.2-1.1-4-2.4-4c-0.5,0-1,0.3-1.3,0.9c-0.3-0.1-0.6-0.1-0.9-0.1l-4.5,0.1l-4.5,0.1c-2.5,0.1-4.5,2.1-4.4,4.6l0.7,26.8
			l0.7,26.8c0.1,2.5,2.1,4.5,4.6,4.4l4.5-0.1l4.5-0.1c0.3,0,0.6,0,0.9-0.1c0.4,0.5,0.9,0.8,1.4,0.8c1.2,0,2.2-1.9,2.2-4.1l0,0.1
			c9.8-0.2,17.7-10.4,19-23.5c0.5,0.1,1,0.1,1.4,0c1.1-0.2,2.1-0.9,2.6-2c6.1-13.3,7.7-28,4.8-42.4C171.2,213,159.1,196.9,143,187.2
			z"/>
		<path class="st70" d="M141.9,186.5c-2.4-3.7-6-7.1-9.8-8.6c-12.4-4.8-26.3-6.2-40.4-3.4c-14,2.8-26.3,9.5-35.9,18.8
			c-2.9,2.8-4.9,7.3-5.7,11.7c-11,15.2-15.9,34.7-11.9,54.5c2.9,14.4,10.1,27.3,20.9,37.2c1.3,1.2,3.1,1.2,4.5,0.3
			c6.4,11.6,17.6,17.8,26.7,14.3l0-0.1c0.8,2.1,2.4,3.4,3.6,2.9c0.5-0.2,0.8-0.7,1-1.3c0.3-0.1,0.6-0.1,0.9-0.2l4.2-1.7l4.2-1.7
			c2.3-0.9,3.5-3.5,2.6-5.9l-9.8-24.9l-9.8-24.9c-0.9-2.3-3.5-3.5-5.9-2.6l-4.2,1.7l-4.2,1.7c-0.3,0.1-0.6,0.3-0.8,0.4
			c-0.5-0.3-1.1-0.5-1.6-0.3c-1.2,0.5-1.4,2.5-0.6,4.6l0-0.1c-9,3.5-13,15.5-9.9,28.2c-7.3-8.2-12.3-18.1-14.5-29
			c-3-14.8-0.4-29.5,6.3-41.9c1.5,1.4,3.7,0,6.3-3.8c8.3-12.1,21.2-21.1,36.6-24.2c15.5-3.1,30.8,0.2,43.1,8.1
			c3.8,2.5,6.4,2.9,7.3,1c11,8.8,19.1,21.3,22.1,36.2c2.2,10.9,1.5,22-2.1,32.3c-2.1-12.9-10.5-22.4-20.1-22.1l0,0.1
			c-0.1-2.2-1.1-4-2.4-4c-0.5,0-1,0.3-1.3,0.9c-0.3-0.1-0.6-0.1-0.9-0.1l-4.5,0.1l-4.5,0.1c-2.5,0.1-4.5,2.1-4.4,4.6l0.7,26.8
			l0.7,26.8c0.1,2.5,2.1,4.5,4.6,4.4l4.5-0.1l4.5-0.1c0.3,0,0.6,0,0.9-0.1c0.4,0.5,0.9,0.8,1.4,0.8c1.2,0,2.2-1.9,2.2-4.1l0,0.1
			c9.8-0.2,17.7-10.4,19-23.5c0.5,0.1,1,0.1,1.4,0c1.1-0.2,2.1-0.9,2.6-2c6.1-13.3,7.7-28,4.8-42.4
			C170.1,212.3,158,196.2,141.9,186.5z"/>
		<path class="st71" d="M140.8,185.7c-2.4-3.7-6-7.1-9.8-8.6c-12.4-4.8-26.3-6.2-40.4-3.4c-14,2.8-26.3,9.5-35.9,18.8
			c-2.9,2.8-4.9,7.3-5.7,11.7c-11,15.2-15.9,34.7-11.9,54.5C40,273.2,47.2,286,58,296c1.3,1.2,3.1,1.2,4.5,0.3
			c6.4,11.6,17.6,17.8,26.7,14.3l0-0.1c0.8,2.1,2.4,3.4,3.6,2.9c0.5-0.2,0.8-0.7,1-1.3c0.3-0.1,0.6-0.1,0.9-0.2l4.2-1.7l4.2-1.7
			c2.3-0.9,3.5-3.5,2.6-5.9l-9.8-24.9l-9.8-24.9c-0.9-2.3-3.5-3.5-5.9-2.6l-4.2,1.7l-4.2,1.7c-0.3,0.1-0.6,0.3-0.8,0.4
			c-0.5-0.3-1.1-0.5-1.6-0.3c-1.2,0.5-1.4,2.5-0.6,4.6l0-0.1c-9,3.5-13,15.5-9.9,28.2c-7.3-8.2-12.3-18.1-14.5-29
			c-3-14.8-0.4-29.5,6.3-41.9c1.5,1.4,3.7,0,6.3-3.8c8.3-12.1,21.2-21.1,36.6-24.2c15.5-3.1,30.8,0.2,43.1,8.1
			c3.8,2.5,6.4,2.9,7.3,1c11,8.8,19.1,21.3,22.1,36.2c2.2,10.9,1.5,22-2.1,32.3c-2.1-12.9-10.5-22.4-20.1-22.1l0,0.1
			c-0.1-2.2-1.1-4-2.4-4c-0.5,0-1,0.3-1.3,0.9c-0.3-0.1-0.6-0.1-0.9-0.1l-4.5,0.1l-4.5,0.1c-2.5,0.1-4.5,2.1-4.4,4.6l0.7,26.8
			l0.7,26.8c0.1,2.5,2.1,4.5,4.6,4.4l4.5-0.1l4.5-0.1c0.3,0,0.6,0,0.9-0.1c0.4,0.5,0.9,0.8,1.4,0.8c1.2,0,2.2-1.9,2.2-4.1l0,0.1
			c9.8-0.2,17.7-10.4,19-23.5c0.5,0.1,1,0.1,1.4,0c1.1-0.2,2.1-0.9,2.6-2c6.1-13.3,7.7-28,4.8-42.4
			C169,211.5,156.8,195.4,140.8,185.7z"/>
		<path class="st72" d="M139.7,185c-2.4-3.7-6-7.1-9.8-8.6c-12.4-4.8-26.3-6.2-40.4-3.4c-14,2.8-26.3,9.5-35.9,18.8
			c-2.9,2.8-4.9,7.3-5.7,11.7C36.9,218.7,32,238.3,36,258c2.9,14.4,10.1,27.3,20.9,37.2c1.3,1.2,3.1,1.2,4.5,0.3
			c6.4,11.6,17.6,17.8,26.7,14.3l0-0.1c0.8,2.1,2.4,3.4,3.6,2.9c0.5-0.2,0.8-0.7,1-1.3c0.3-0.1,0.6-0.1,0.9-0.2l4.2-1.7l4.2-1.7
			c2.3-0.9,3.5-3.5,2.6-5.9L94.6,277L84.8,252c-0.9-2.3-3.5-3.5-5.9-2.6l-4.2,1.7l-4.2,1.7c-0.3,0.1-0.6,0.3-0.8,0.4
			c-0.5-0.3-1.1-0.5-1.6-0.3c-1.2,0.5-1.4,2.5-0.6,4.6l0-0.1c-9,3.5-13,15.5-9.9,28.2c-7.3-8.2-12.3-18.1-14.5-29
			c-3-14.8-0.4-29.5,6.3-41.9c1.5,1.4,3.7,0,6.3-3.8c8.3-12.1,21.2-21.1,36.6-24.2c15.5-3.1,30.8,0.2,43.1,8.1
			c3.8,2.5,6.4,2.9,7.3,1c11,8.8,19.1,21.3,22.1,36.2c2.2,10.9,1.5,22-2.1,32.3c-2.1-12.9-10.5-22.4-20.1-22.1l0,0.1
			c-0.1-2.2-1.1-4-2.4-4c-0.5,0-1,0.3-1.3,0.9c-0.3-0.1-0.6-0.1-0.9-0.1l-4.5,0.1l-4.5,0.1c-2.5,0.1-4.5,2.1-4.4,4.6l0.7,26.8
			l0.7,26.8c0.1,2.5,2.1,4.5,4.6,4.4l4.5-0.1l4.5-0.1c0.3,0,0.6,0,0.9-0.1c0.4,0.5,0.9,0.8,1.4,0.8c1.2,0,2.2-1.9,2.2-4.1l0,0.1
			c9.8-0.2,17.7-10.4,19-23.5c0.5,0.1,1,0.1,1.4,0c1.1-0.2,2.1-0.9,2.6-2c6.1-13.3,7.7-28,4.8-42.4
			C167.8,210.8,155.7,194.7,139.7,185z"/>
		<path class="st73" d="M138.6,184.2c-2.4-3.7-6-7.1-9.8-8.6c-12.4-4.8-26.3-6.2-40.4-3.4c-14,2.8-26.3,9.5-35.9,18.8
			c-2.9,2.8-4.9,7.3-5.7,11.7c-11,15.2-15.9,34.7-11.9,54.5c2.9,14.4,10.1,27.3,20.9,37.2c1.3,1.2,3.1,1.2,4.5,0.3
			c6.4,11.6,17.6,17.8,26.7,14.3l0-0.1c0.8,2.1,2.4,3.4,3.6,2.9c0.5-0.2,0.8-0.7,1-1.3c0.3-0.1,0.6-0.1,0.9-0.2l4.2-1.7l4.2-1.7
			c2.3-0.9,3.5-3.5,2.6-5.9l-9.8-24.9l-9.8-24.9c-0.9-2.3-3.5-3.5-5.9-2.6l-4.2,1.7l-4.2,1.7c-0.3,0.1-0.6,0.3-0.8,0.4
			c-0.5-0.3-1.1-0.5-1.6-0.3c-1.2,0.5-1.4,2.5-0.6,4.6l0-0.1c-9,3.5-13,15.5-9.9,28.2c-7.3-8.2-12.3-18.1-14.5-29
			c-3-14.8-0.4-29.5,6.3-41.9c1.5,1.4,3.7,0,6.3-3.8c8.3-12.1,21.2-21.1,36.6-24.2c15.5-3.1,30.8,0.2,43.1,8.1
			c3.8,2.5,6.4,2.9,7.3,1c11,8.8,19.1,21.3,22.1,36.2c2.2,10.9,1.5,22-2.1,32.3c-2.1-12.9-10.5-22.4-20.1-22.1l0,0.1
			c-0.1-2.2-1.1-4-2.4-4c-0.5,0-1,0.3-1.3,0.9c-0.3-0.1-0.6-0.1-0.9-0.1l-4.5,0.1l-4.5,0.1c-2.5,0.1-4.5,2.1-4.4,4.6l0.7,26.8
			l0.7,26.8c0.1,2.5,2.1,4.5,4.6,4.4l4.5-0.1l4.5-0.1c0.3,0,0.6,0,0.9-0.1c0.4,0.5,0.9,0.8,1.4,0.8c1.2,0,2.2-1.9,2.2-4.1l0,0.1
			c9.8-0.2,17.7-10.4,19-23.5c0.5,0.1,1,0.1,1.4,0c1.1-0.2,2.1-0.9,2.6-2c6.1-13.3,7.7-28,4.8-42.4
			C166.7,210,154.6,193.9,138.6,184.2z"/>
		<path class="st74" d="M137.5,183.5c-2.4-3.7-6-7.1-9.8-8.6c-12.4-4.8-26.3-6.2-40.4-3.4c-14,2.8-26.3,9.5-35.9,18.8
			c-2.9,2.8-4.9,7.3-5.7,11.7c-11,15.2-15.9,34.7-11.9,54.5c2.9,14.4,10.1,27.3,20.9,37.2c1.3,1.2,3.1,1.2,4.5,0.3
			c6.4,11.6,17.6,17.8,26.7,14.3l0-0.1c0.8,2.1,2.4,3.4,3.6,2.9c0.5-0.2,0.8-0.7,1-1.3c0.3-0.1,0.6-0.1,0.9-0.2l4.2-1.7l4.2-1.7
			c2.3-0.9,3.5-3.5,2.6-5.9l-9.8-24.9l-9.8-24.9c-0.9-2.3-3.5-3.5-5.9-2.6l-4.2,1.7l-4.2,1.7c-0.3,0.1-0.6,0.3-0.8,0.4
			c-0.5-0.3-1.1-0.5-1.6-0.3c-1.2,0.5-1.4,2.5-0.6,4.6l0-0.1c-9,3.5-13,15.5-9.9,28.2c-7.3-8.2-12.3-18.1-14.5-29
			c-3-14.8-0.4-29.5,6.3-41.9c1.5,1.4,3.7,0,6.3-3.8c8.3-12.1,21.2-21.1,36.6-24.2c15.5-3.1,30.8,0.2,43.1,8.1
			c3.8,2.5,6.4,2.9,7.3,1c11,8.8,19.1,21.3,22.1,36.2c2.2,10.9,1.5,22-2.1,32.3c-2.1-12.9-10.5-22.4-20.1-22.1l0,0.1
			c-0.1-2.2-1.1-4-2.4-4c-0.5,0-1,0.3-1.3,0.9c-0.3-0.1-0.6-0.1-0.9-0.1l-4.5,0.1l-4.5,0.1c-2.5,0.1-4.5,2.1-4.4,4.6l0.7,26.8
			l0.7,26.8c0.1,2.5,2.1,4.5,4.6,4.4l4.5-0.1l4.5-0.1c0.3,0,0.6,0,0.9-0.1c0.4,0.5,0.9,0.8,1.4,0.8c1.2,0,2.2-1.9,2.2-4.1l0,0.1
			c9.8-0.2,17.7-10.4,19-23.5c0.5,0.1,1,0.1,1.4,0c1.1-0.2,2.1-0.9,2.6-2c6.1-13.3,7.7-28,4.8-42.4
			C165.6,209.3,153.5,193.2,137.5,183.5z"/>
		<path class="st75" d="M136.3,182.8c-2.4-3.7-6-7.1-9.8-8.6c-12.4-4.8-26.3-6.2-40.4-3.4c-14,2.8-26.3,9.5-35.9,18.8
			c-2.9,2.8-4.9,7.3-5.7,11.7c-11,15.2-15.9,34.7-11.9,54.5c2.9,14.4,10.1,27.3,20.9,37.2c1.3,1.2,3.1,1.2,4.5,0.3
			c6.4,11.6,17.6,17.8,26.7,14.3l0-0.1c0.8,2.1,2.4,3.4,3.6,2.9c0.5-0.2,0.8-0.7,1-1.3c0.3-0.1,0.6-0.1,0.9-0.2l4.2-1.7l4.2-1.7
			c2.3-0.9,3.5-3.5,2.6-5.9l-9.8-24.9l-9.8-24.9c-0.9-2.3-3.5-3.5-5.9-2.6l-4.2,1.7l-4.2,1.7c-0.3,0.1-0.6,0.3-0.8,0.4
			c-0.5-0.3-1.1-0.5-1.6-0.3c-1.2,0.5-1.4,2.5-0.6,4.6l0-0.1c-9,3.5-13,15.5-9.9,28.2c-7.3-8.2-12.3-18.1-14.5-29
			c-3-14.8-0.4-29.5,6.3-41.9c1.5,1.4,3.7,0,6.3-3.8c8.3-12.1,21.2-21.1,36.6-24.2c15.5-3.1,30.8,0.2,43.1,8.1
			c3.8,2.5,6.4,2.9,7.3,1c11,8.8,19.1,21.3,22.1,36.2c2.2,10.9,1.5,22-2.1,32.3c-2.1-12.9-10.5-22.4-20.1-22.1l0,0.1
			c-0.1-2.2-1.1-4-2.4-4c-0.5,0-1,0.3-1.3,0.9c-0.3-0.1-0.6-0.1-0.9-0.1l-4.5,0.1l-4.5,0.1c-2.5,0.1-4.5,2.1-4.4,4.6l0.7,26.8
			l0.7,26.8c0.1,2.5,2.1,4.5,4.6,4.4l4.5-0.1l4.5-0.1c0.3,0,0.6,0,0.9-0.1c0.4,0.5,0.9,0.8,1.4,0.8c1.2,0,2.2-1.9,2.2-4.1l0,0.1
			c9.8-0.2,17.7-10.4,19-23.5c0.5,0.1,1,0.1,1.4,0c1.1-0.2,2.1-0.9,2.6-2c6.1-13.3,7.7-28,4.8-42.4
			C164.5,208.6,152.4,192.5,136.3,182.8z"/>
		<path class="st76" d="M135.2,182c-2.4-3.7-6-7.1-9.8-8.6c-12.4-4.8-26.3-6.2-40.4-3.4c-14,2.8-26.3,9.5-35.9,18.8
			c-2.9,2.8-4.9,7.3-5.7,11.7c-11,15.2-15.9,34.7-11.9,54.5c2.9,14.4,10.1,27.3,20.9,37.2c1.3,1.2,3.1,1.2,4.5,0.3
			c6.4,11.6,17.6,17.8,26.7,14.3l0-0.1c0.8,2.1,2.4,3.4,3.6,2.9c0.5-0.2,0.8-0.7,1-1.3c0.3-0.1,0.6-0.1,0.9-0.2l4.2-1.7l4.2-1.7
			c2.3-0.9,3.5-3.5,2.6-5.9L90.2,274l-9.8-24.9c-0.9-2.3-3.5-3.5-5.9-2.6l-4.2,1.7l-4.2,1.7c-0.3,0.1-0.6,0.3-0.8,0.4
			c-0.5-0.3-1.1-0.5-1.6-0.3c-1.2,0.5-1.4,2.5-0.6,4.6l0-0.1c-9,3.5-13,15.5-9.9,28.2c-7.3-8.2-12.3-18.1-14.5-29
			c-3-14.8-0.4-29.5,6.3-41.9c1.5,1.4,3.7,0,6.3-3.8c8.3-12.1,21.2-21.1,36.6-24.2c15.5-3.1,30.8,0.2,43.1,8.1
			c3.8,2.5,6.4,2.9,7.3,1c11,8.8,19.1,21.3,22.1,36.2c2.2,10.9,1.5,22-2.1,32.3c-2.1-12.9-10.5-22.4-20.1-22.1l0,0.1
			c-0.1-2.2-1.1-4-2.4-4c-0.5,0-1,0.3-1.3,0.9c-0.3-0.1-0.6-0.1-0.9-0.1l-4.5,0.1l-4.5,0.1c-2.5,0.1-4.5,2.1-4.4,4.6l0.7,26.8
			l0.7,26.8c0.1,2.5,2.1,4.5,4.6,4.4l4.5-0.1l4.5-0.1c0.3,0,0.6,0,0.9-0.1c0.4,0.5,0.9,0.8,1.4,0.8c1.2,0,2.2-1.9,2.2-4.1l0,0.1
			c9.8-0.2,17.7-10.4,19-23.5c0.5,0.1,1,0.1,1.4,0c1.1-0.2,2.1-0.9,2.6-2c6.1-13.3,7.7-28,4.8-42.4
			C163.4,207.8,151.3,191.7,135.2,182z"/>
		<path class="st77" d="M134.1,181.3c-2.4-3.7-6-7.1-9.8-8.6c-12.4-4.8-26.3-6.2-40.4-3.4c-14,2.8-26.3,9.5-35.9,18.8
			c-2.9,2.8-4.9,7.3-5.7,11.7c-11,15.2-15.9,34.7-11.9,54.5c2.9,14.4,10.1,27.3,20.9,37.2c1.3,1.2,3.1,1.2,4.5,0.3
			c6.4,11.6,17.6,17.8,26.7,14.3l0-0.1c0.8,2.1,2.4,3.4,3.6,2.9c0.5-0.2,0.8-0.7,1-1.3c0.3-0.1,0.6-0.1,0.9-0.2l4.2-1.7l4.2-1.7
			c2.3-0.9,3.5-3.5,2.6-5.9l-9.8-24.9l-9.8-24.9c-0.9-2.3-3.5-3.5-5.9-2.6l-4.2,1.7l-4.2,1.7c-0.3,0.1-0.6,0.3-0.8,0.4
			c-0.5-0.3-1.1-0.5-1.6-0.3c-1.2,0.5-1.4,2.5-0.6,4.6l0-0.1c-9,3.5-13,15.5-9.9,28.2c-7.3-8.2-12.3-18.1-14.5-29
			c-3-14.8-0.4-29.5,6.3-41.9c1.5,1.4,3.7,0,6.3-3.8c8.3-12.1,21.2-21.1,36.6-24.2c15.5-3.1,30.8,0.2,43.1,8.1
			c3.8,2.5,6.4,2.9,7.3,1c11,8.8,19.1,21.3,22.1,36.2c2.2,10.9,1.5,22-2.1,32.3c-2.1-12.9-10.5-22.4-20.1-22.1l0,0.1
			c-0.1-2.2-1.1-4-2.4-4c-0.5,0-1,0.3-1.3,0.9c-0.3-0.1-0.6-0.1-0.9-0.1l-4.5,0.1l-4.5,0.1c-2.5,0.1-4.5,2.1-4.4,4.6l0.7,26.8
			l0.7,26.8c0.1,2.5,2.1,4.5,4.6,4.4l4.5-0.1l4.5-0.1c0.3,0,0.6,0,0.9-0.1c0.4,0.5,0.9,0.8,1.4,0.8c1.2,0,2.2-1.9,2.2-4.1l0,0.1
			c9.8-0.2,17.7-10.4,19-23.5c0.5,0.1,1,0.1,1.4,0c1.1-0.2,2.1-0.9,2.6-2c6.1-13.3,7.7-28,4.8-42.4
			C162.3,207.1,150.2,191,134.1,181.3z"/>
		<path class="st78" d="M133,180.6c-2.4-3.7-6-7.1-9.8-8.6c-12.4-4.8-26.3-6.2-40.4-3.4c-14,2.8-26.3,9.5-35.9,18.8
			c-2.9,2.8-4.9,7.3-5.7,11.7c-11,15.2-15.9,34.7-11.9,54.5c2.9,14.4,10.1,27.3,20.9,37.2c1.3,1.2,3.1,1.2,4.5,0.3
			c6.4,11.6,17.6,17.8,26.7,14.3l0-0.1c0.8,2.1,2.4,3.4,3.6,2.9c0.5-0.2,0.8-0.7,1-1.3c0.3-0.1,0.6-0.1,0.9-0.2L91,305l4.2-1.7
			c2.3-0.9,3.5-3.5,2.6-5.9l-9.8-24.9l-9.8-24.9c-0.9-2.3-3.5-3.5-5.9-2.6l-4.2,1.7l-4.2,1.7c-0.3,0.1-0.6,0.3-0.8,0.4
			c-0.5-0.3-1.1-0.5-1.6-0.3c-1.2,0.5-1.4,2.5-0.6,4.6l0-0.1c-9,3.5-13,15.5-9.9,28.2c-7.3-8.2-12.3-18.1-14.5-29
			c-3-14.8-0.4-29.5,6.3-41.9c1.5,1.4,3.7,0,6.3-3.8c8.3-12.1,21.2-21.1,36.6-24.2c15.5-3.1,30.8,0.2,43.1,8.1
			c3.8,2.5,6.4,2.9,7.3,1c11,8.8,19.1,21.3,22.1,36.2c2.2,10.9,1.5,22-2.1,32.3c-2.1-12.9-10.5-22.4-20.1-22.1l0,0.1
			c-0.1-2.2-1.1-4-2.4-4c-0.5,0-1,0.3-1.3,0.9c-0.3-0.1-0.6-0.1-0.9-0.1l-4.5,0.1l-4.5,0.1c-2.5,0.1-4.5,2.1-4.4,4.6l0.7,26.8
			l0.7,26.8c0.1,2.5,2.1,4.5,4.6,4.4l4.5-0.1l4.5-0.1c0.3,0,0.6,0,0.9-0.1c0.4,0.5,0.9,0.8,1.4,0.8c1.2,0,2.2-1.9,2.2-4.1l0,0.1
			c9.8-0.2,17.7-10.4,19-23.5c0.5,0.1,1,0.1,1.4,0c1.1-0.2,2.1-0.9,2.6-2c6.1-13.3,7.7-28,4.8-42.4
			C161.2,206.4,149.1,190.2,133,180.6z"/>
		<path class="st79" d="M131.9,179.8c-2.4-3.7-6-7.1-9.8-8.6c-12.4-4.8-26.3-6.2-40.4-3.4c-14,2.8-26.3,9.5-35.9,18.8
			c-2.9,2.8-4.9,7.3-5.7,11.7c-11,15.2-15.9,34.7-11.9,54.5c2.9,14.4,10.1,27.3,20.9,37.2c1.3,1.2,3.1,1.2,4.5,0.3
			c6.4,11.6,17.6,17.8,26.7,14.3l0-0.1c0.8,2.1,2.4,3.4,3.6,2.9c0.5-0.2,0.8-0.7,1-1.3c0.3-0.1,0.6-0.1,0.9-0.2l4.2-1.7l4.2-1.7
			c2.3-0.9,3.5-3.5,2.6-5.9l-9.8-24.9L77,246.9c-0.9-2.3-3.5-3.5-5.9-2.6L67,246l-4.2,1.7c-0.3,0.1-0.6,0.3-0.8,0.4
			c-0.5-0.3-1.1-0.5-1.6-0.3c-1.2,0.5-1.4,2.5-0.6,4.6l0-0.1c-9,3.5-13,15.5-9.9,28.2c-7.3-8.2-12.3-18.1-14.5-29
			c-3-14.8-0.4-29.5,6.3-41.9c1.5,1.4,3.7,0,6.3-3.8c8.3-12.1,21.2-21.1,36.6-24.2c15.5-3.1,30.8,0.2,43.1,8.1
			c3.8,2.5,6.4,2.9,7.3,1c11,8.8,19.1,21.3,22.1,36.2c2.2,10.9,1.5,22-2.1,32.3c-2.1-12.9-10.5-22.4-20.1-22.1l0,0.1
			c-0.1-2.2-1.1-4-2.4-4c-0.5,0-1,0.3-1.3,0.9c-0.3-0.1-0.6-0.1-0.9-0.1l-4.5,0.1l-4.5,0.1c-2.5,0.1-4.5,2.1-4.4,4.6l0.7,26.8
			l0.7,26.8c0.1,2.5,2.1,4.5,4.6,4.4l4.5-0.1l4.5-0.1c0.3,0,0.6,0,0.9-0.1c0.4,0.5,0.9,0.8,1.4,0.8c1.2,0,2.2-1.9,2.2-4.1l0,0.1
			c9.8-0.2,17.7-10.4,19-23.5c0.5,0.1,1,0.1,1.4,0c1.1-0.2,2.1-0.9,2.6-2c6.1-13.3,7.7-28,4.8-42.4
			C160,205.6,147.9,189.5,131.9,179.8z"/>
		<path class="st80" d="M130.8,179.1c-2.4-3.7-6-7.1-9.8-8.6c-12.4-4.8-26.3-6.2-40.4-3.4c-14,2.8-26.3,9.5-35.9,18.8
			c-2.9,2.8-4.9,7.3-5.7,11.7c-11,15.2-15.9,34.7-11.9,54.5c2.9,14.4,10.1,27.3,20.9,37.2c1.3,1.2,3.1,1.2,4.5,0.3
			c6.4,11.6,17.6,17.8,26.7,14.3l0-0.1c0.8,2.1,2.4,3.4,3.6,2.9c0.5-0.2,0.8-0.7,1-1.3c0.3-0.1,0.6-0.1,0.9-0.2l4.2-1.7l4.2-1.7
			c2.3-0.9,3.5-3.5,2.6-5.9l-9.8-24.9l-9.8-24.9c-0.9-2.3-3.5-3.5-5.9-2.6l-4.2,1.7l-4.2,1.7c-0.3,0.1-0.6,0.3-0.8,0.4
			c-0.5-0.3-1.1-0.5-1.6-0.3c-1.2,0.5-1.4,2.5-0.6,4.6l0-0.1c-9,3.5-13,15.5-9.9,28.2c-7.3-8.2-12.3-18.1-14.5-29
			c-3-14.8-0.4-29.5,6.3-41.9c1.5,1.4,3.7,0,6.3-3.8c8.3-12.1,21.2-21.1,36.6-24.2c15.5-3.1,30.8,0.2,43.1,8.1
			c3.8,2.5,6.4,2.9,7.3,1c11,8.8,19.1,21.3,22.1,36.2c2.2,10.9,1.5,22-2.1,32.3c-2.1-12.9-10.5-22.4-20.1-22.1l0,0.1
			c-0.1-2.2-1.1-4-2.4-4c-0.5,0-1,0.3-1.3,0.9c-0.3-0.1-0.6-0.1-0.9-0.1l-4.5,0.1l-4.5,0.1c-2.5,0.1-4.5,2.1-4.4,4.6l0.7,26.8
			l0.7,26.8c0.1,2.5,2.1,4.5,4.6,4.4l4.5-0.1l4.5-0.1c0.3,0,0.6,0,0.9-0.1c0.4,0.5,0.9,0.8,1.4,0.8c1.2,0,2.2-1.9,2.2-4.1l0,0.1
			c9.8-0.2,17.7-10.4,19-23.5c0.5,0.1,1,0.1,1.4,0c1.1-0.2,2.1-0.9,2.6-2c6.1-13.3,7.7-28,4.8-42.4
			C158.9,204.9,146.8,188.8,130.8,179.1z"/>
		<path class="st81" d="M129.7,178.3c-2.4-3.7-6-7.1-9.8-8.6c-12.4-4.8-26.3-6.2-40.4-3.4c-14,2.8-26.3,9.5-35.9,18.8
			c-2.9,2.8-4.9,7.3-5.7,11.7c-11,15.2-15.9,34.7-11.9,54.5c2.9,14.4,10.1,27.3,20.9,37.2c1.3,1.2,3.1,1.2,4.5,0.3
			c6.4,11.6,17.6,17.8,26.7,14.3l0-0.1c0.8,2.1,2.4,3.4,3.6,2.9c0.5-0.2,0.8-0.7,1-1.3c0.3-0.1,0.6-0.1,0.9-0.2l4.2-1.7l4.2-1.7
			c2.3-0.9,3.5-3.5,2.6-5.9l-9.8-24.9l-9.8-24.9c-0.9-2.3-3.5-3.5-5.9-2.6l-4.2,1.7l-4.2,1.7c-0.3,0.1-0.6,0.3-0.8,0.4
			c-0.5-0.3-1.1-0.5-1.6-0.3c-1.2,0.5-1.4,2.5-0.6,4.6l0-0.1c-9,3.5-13,15.5-9.9,28.2c-7.3-8.2-12.3-18.1-14.5-29
			c-3-14.8-0.4-29.5,6.3-41.9c1.5,1.4,3.7,0,6.3-3.8c8.3-12.1,21.2-21.1,36.6-24.2c15.5-3.1,30.8,0.2,43.1,8.1
			c3.8,2.5,6.4,2.9,7.3,1c11,8.8,19.1,21.3,22.1,36.2c2.2,10.9,1.5,22-2.1,32.3c-2.1-12.9-10.5-22.4-20.1-22.1l0,0.1
			c-0.1-2.2-1.1-4-2.4-4c-0.5,0-1,0.3-1.3,0.9c-0.3-0.1-0.6-0.1-0.9-0.1l-4.5,0.1l-4.5,0.1c-2.5,0.1-4.5,2.1-4.4,4.6l0.7,26.8
			l0.7,26.8c0.1,2.5,2.1,4.5,4.6,4.4l4.5-0.1l4.5-0.1c0.3,0,0.6,0,0.9-0.1c0.4,0.5,0.9,0.8,1.4,0.8c1.2,0,2.2-1.9,2.2-4.1l0,0.1
			c9.8-0.2,17.7-10.4,19-23.5c0.5,0.1,1,0.1,1.4,0c1.1-0.2,2.1-0.9,2.6-2c6.1-13.3,7.7-28,4.8-42.4
			C157.8,204.1,145.7,188,129.7,178.3z"/>
		<path class="st82" d="M128.5,177.6c-2.4-3.7-6-7.1-9.8-8.6c-12.4-4.8-26.3-6.2-40.4-3.4c-14,2.8-26.3,9.5-35.9,18.8
			c-2.9,2.8-4.9,7.3-5.7,11.7c-11,15.2-15.9,34.7-11.9,54.5c2.9,14.4,10.1,27.3,20.9,37.2c1.3,1.2,3.1,1.2,4.5,0.3
			c6.4,11.6,17.6,17.8,26.7,14.3l0-0.1c0.8,2.1,2.4,3.4,3.6,2.9c0.5-0.2,0.8-0.7,1-1.3c0.3-0.1,0.6-0.1,0.9-0.2l4.2-1.7l4.2-1.7
			c2.3-0.9,3.5-3.5,2.6-5.9l-9.8-24.9l-9.8-24.9c-0.9-2.3-3.5-3.5-5.9-2.6l-4.2,1.7l-4.2,1.7c-0.3,0.1-0.6,0.3-0.8,0.4
			c-0.5-0.3-1.1-0.5-1.6-0.3c-1.2,0.5-1.4,2.5-0.6,4.6l0-0.1c-9,3.5-13,15.5-9.9,28.2c-7.3-8.2-12.3-18.1-14.5-29
			c-3-14.8-0.4-29.5,6.3-41.9c1.5,1.4,3.7,0,6.3-3.8c8.3-12.1,21.2-21.1,36.6-24.2c15.5-3.1,30.8,0.2,43.1,8.1
			c3.8,2.5,6.4,2.9,7.3,1c11,8.8,19.1,21.3,22.1,36.2c2.2,10.9,1.5,22-2.1,32.3c-2.1-12.9-10.5-22.4-20.1-22.1l0,0.1
			c-0.1-2.2-1.1-4-2.4-4c-0.5,0-1,0.3-1.3,0.9c-0.3-0.1-0.6-0.1-0.9-0.1l-4.5,0.1l-4.5,0.1c-2.5,0.1-4.5,2.1-4.4,4.6l0.7,26.8
			l0.7,26.8c0.1,2.5,2.1,4.5,4.6,4.4l4.5-0.1l4.5-0.1c0.3,0,0.6,0,0.9-0.1c0.4,0.5,0.9,0.8,1.4,0.8c1.2,0,2.2-1.9,2.2-4.1l0,0.1
			c9.8-0.2,17.7-10.4,19-23.5c0.5,0.1,1,0.1,1.4,0c1.1-0.2,2.1-0.9,2.6-2c6.1-13.3,7.7-28,4.8-42.4
			C156.7,203.4,144.6,187.3,128.5,177.6z"/>
		<path class="st83" d="M127.4,176.9c-2.4-3.7-6-7.1-9.8-8.6c-12.4-4.8-26.3-6.2-40.4-3.4c-14,2.8-26.3,9.5-35.9,18.8
			c-2.9,2.8-4.9,7.3-5.7,11.7c-11,15.2-15.9,34.7-11.9,54.5c2.9,14.4,10.1,27.3,20.9,37.2c1.3,1.2,3.1,1.2,4.5,0.3
			c6.4,11.6,17.6,17.8,26.7,14.3l0-0.1c0.8,2.1,2.4,3.4,3.6,2.9c0.5-0.2,0.8-0.7,1-1.3c0.3-0.1,0.6-0.1,0.9-0.2l4.2-1.7l4.2-1.7
			c2.3-0.9,3.5-3.5,2.6-5.9l-9.8-24.9l-9.8-24.9c-0.9-2.3-3.5-3.5-5.9-2.6l-4.2,1.7l-4.2,1.7c-0.3,0.1-0.6,0.3-0.8,0.4
			c-0.5-0.3-1.1-0.5-1.6-0.3c-1.2,0.5-1.4,2.5-0.6,4.6l0-0.1c-9,3.5-13,15.5-9.9,28.2c-7.3-8.2-12.3-18.1-14.5-29
			c-3-14.8-0.4-29.5,6.3-41.9c1.5,1.4,3.7,0,6.3-3.8c8.3-12.1,21.2-21.1,36.6-24.2c15.5-3.1,30.8,0.2,43.1,8.1
			c3.8,2.5,6.4,2.9,7.3,1c11,8.8,19.1,21.3,22.1,36.2c2.2,10.9,1.5,22-2.1,32.3c-2.1-12.9-10.5-22.4-20.1-22.1l0,0.1
			c-0.1-2.2-1.1-4-2.4-4c-0.5,0-1,0.3-1.3,0.9c-0.3-0.1-0.6-0.1-0.9-0.1l-4.5,0.1l-4.5,0.1c-2.5,0.1-4.5,2.1-4.4,4.6l0.7,26.8
			l0.7,26.8c0.1,2.5,2.1,4.5,4.6,4.4l4.5-0.1l4.5-0.1c0.3,0,0.6,0,0.9-0.1c0.4,0.5,0.9,0.8,1.4,0.8c1.2,0,2.2-1.9,2.2-4.1l0,0.1
			c9.8-0.2,17.7-10.4,19-23.5c0.5,0.1,1,0.1,1.4,0c1.1-0.2,2.1-0.9,2.6-2c6.1-13.3,7.7-28,4.8-42.4
			C155.6,202.7,143.5,186.5,127.4,176.9z"/>
		<path class="st84" d="M126.3,176.1c-2.4-3.7-6-7.1-9.8-8.6c-12.4-4.8-26.3-6.2-40.4-3.4c-14,2.8-26.3,9.5-35.9,18.8
			c-2.9,2.8-4.9,7.3-5.7,11.7c-11,15.2-15.9,34.7-11.9,54.5c2.9,14.4,10.1,27.3,20.9,37.2c1.3,1.2,3.1,1.2,4.5,0.3
			c6.4,11.6,17.6,17.8,26.7,14.3l0-0.1c0.8,2.1,2.4,3.4,3.6,2.9c0.5-0.2,0.8-0.7,1-1.3c0.3-0.1,0.6-0.1,0.9-0.2l4.2-1.7l4.2-1.7
			c2.3-0.9,3.5-3.5,2.6-5.9l-9.8-24.9l-9.8-24.9c-0.9-2.3-3.5-3.5-5.9-2.6l-4.2,1.7l-4.2,1.7c-0.3,0.1-0.6,0.3-0.8,0.4
			c-0.5-0.3-1.1-0.5-1.6-0.3c-1.2,0.5-1.4,2.5-0.6,4.6l0-0.1c-9,3.5-13,15.5-9.9,28.2c-7.3-8.2-12.3-18.1-14.5-29
			c-3-14.8-0.4-29.5,6.3-41.9c1.5,1.4,3.7,0,6.3-3.8c8.3-12.1,21.2-21.1,36.6-24.2c15.5-3.1,30.8,0.2,43.1,8.1
			c3.8,2.5,6.4,2.9,7.3,1c11,8.8,19.1,21.3,22.1,36.2c2.2,10.9,1.5,22-2.1,32.3c-2.1-12.9-10.5-22.4-20.1-22.1l0,0.1
			c-0.1-2.2-1.1-4-2.4-4c-0.5,0-1,0.3-1.3,0.9c-0.3-0.1-0.6-0.1-0.9-0.1l-4.5,0.1l-4.5,0.1c-2.5,0.1-4.5,2.1-4.4,4.6l0.7,26.8
			l0.7,26.8c0.1,2.5,2.1,4.5,4.6,4.4l4.5-0.1l4.5-0.1c0.3,0,0.6,0,0.9-0.1c0.4,0.5,0.9,0.8,1.4,0.8c1.2,0,2.2-1.9,2.2-4.1l0,0.1
			c9.8-0.2,17.7-10.4,19-23.5c0.5,0.1,1,0.1,1.4,0c1.1-0.2,2.1-0.9,2.6-2c6.1-13.3,7.7-28,4.8-42.4
			C154.5,201.9,142.4,185.8,126.3,176.1z"/>
		<path class="st85" d="M125.2,175.4c-2.4-3.7-6-7.1-9.8-8.6c-12.4-4.8-26.3-6.2-40.4-3.4c-14,2.8-26.3,9.5-35.9,18.8
			c-2.9,2.8-4.9,7.3-5.7,11.7c-11,15.2-15.9,34.7-11.9,54.5c2.9,14.4,10.1,27.3,20.9,37.2c1.3,1.2,3.1,1.2,4.5,0.3
			c6.4,11.6,17.6,17.8,26.7,14.3l0-0.1c0.8,2.1,2.4,3.4,3.6,2.9c0.5-0.2,0.8-0.7,1-1.3c0.3-0.1,0.6-0.1,0.9-0.2l4.2-1.7l4.2-1.7
			c2.3-0.9,3.5-3.5,2.6-5.9l-9.8-24.9l-9.8-24.9c-0.9-2.3-3.5-3.5-5.9-2.6l-4.2,1.7l-4.2,1.7c-0.3,0.1-0.6,0.3-0.8,0.4
			c-0.5-0.3-1.1-0.5-1.6-0.3c-1.2,0.5-1.4,2.5-0.6,4.6l0-0.1c-9,3.5-13,15.5-9.9,28.2c-7.3-8.2-12.3-18.1-14.5-29
			c-3-14.8-0.4-29.5,6.3-41.9c1.5,1.4,3.7,0,6.3-3.8c8.3-12.1,21.2-21.1,36.6-24.2c15.5-3.1,30.8,0.2,43.1,8.1
			c3.8,2.5,6.4,2.9,7.3,1c11,8.8,19.1,21.3,22.1,36.2c2.2,10.9,1.5,22-2.1,32.3c-2.1-12.9-10.5-22.4-20.1-22.1l0,0.1
			c-0.1-2.2-1.1-4-2.4-4c-0.5,0-1,0.3-1.3,0.9c-0.3-0.1-0.6-0.1-0.9-0.1l-4.5,0.1l-4.5,0.1c-2.5,0.1-4.5,2.1-4.4,4.6l0.7,26.8
			l0.7,26.8c0.1,2.5,2.1,4.5,4.6,4.4l4.5-0.1l4.5-0.1c0.3,0,0.6,0,0.9-0.1c0.4,0.5,0.9,0.8,1.4,0.8c1.2,0,2.2-1.9,2.2-4.1l0,0.1
			c9.8-0.2,17.7-10.4,19-23.5c0.5,0.1,1,0.1,1.4,0c1.1-0.2,2.1-0.9,2.6-2c6.1-13.3,7.7-28,4.8-42.4
			C153.4,201.2,141.3,185.1,125.2,175.4z"/>
	</g>
	<g>
		<path class="st86" d="M150,265.4c-0.7,0.1-1.5,0.1-2.2-0.3c-1.8-0.8-2.6-3-1.8-4.8c5.4-11.9,6.9-25.1,4.3-38
			c-6.8-33.6-39.6-55.3-73.2-48.6c-33.6,6.8-55.4,39.6-48.6,73.2c2.6,12.9,9.1,24.4,18.7,33.3c1.5,1.3,1.6,3.6,0.2,5.1
			c-1.4,1.5-3.6,1.6-5.1,0.2c-10.8-9.9-18-22.8-20.9-37.2c-7.6-37.5,16.7-74.1,54.2-81.7c37.5-7.6,74.1,16.7,81.7,54.2
			c2.9,14.4,1.2,29.1-4.8,42.4C152,264.5,151.1,265.2,150,265.4z"/>
		<g>
			<path class="st87" d="M87.4,298.2l-4.2,1.7l-4.2,1.7c-2.3,0.9-5-0.2-5.9-2.6L63.3,274L53.5,249c-0.9-2.3,0.2-5,2.6-5.9l4.2-1.7
				l4.2-1.7c2.3-0.9,5,0.2,5.9,2.6l9.8,24.9l9.8,24.9C90.8,294.6,89.7,297.3,87.4,298.2z"/>
			<path class="st10" d="M73.6,300.2c-10.3,4-23.2-4.4-28.9-18.9c-5.7-14.5-2-29.5,8.3-33.5L73.6,300.2z"/>
			<g>
				<path class="st88" d="M77.1,303c-1.2,0.5-2.8-0.9-3.6-2.9L53,247.9c-0.8-2.1-0.5-4.1,0.6-4.6c1.2-0.5,2.8,0.9,3.6,2.9l20.5,52.2
					C78.6,300.5,78.3,302.6,77.1,303z"/>
			</g>
		</g>
		<g>
			<path class="st87" d="M116,292.4l4.5-0.1l4.5-0.1c2.5-0.1,4.5-2.1,4.4-4.6l-0.7-26.8l-0.7-26.8c-0.1-2.5-2.1-4.5-4.6-4.4
				l-4.5,0.1l-4.5,0.1c-2.5,0.1-4.5,2.1-4.4,4.6l0.7,26.8l0.7,26.8C111.4,290.5,113.5,292.5,116,292.4z"/>
			<path class="st10" d="M129.5,288.9c11-0.3,19.6-13.1,19.2-28.7c-0.4-15.6-9.6-27.9-20.7-27.7L129.5,288.9z"/>
			<g>
				<path class="st88" d="M127.3,292.9c1.2,0,2.2-1.9,2.2-4.1l-1.4-56c-0.1-2.2-1.1-4-2.4-4c-1.2,0-2.2,1.9-2.2,4.1l1.4,56
					C125,291.1,126.1,292.9,127.3,292.9z"/>
			</g>
		</g>
		<path class="st87" d="M128.3,182.3c-1.2-5.7-6.7-13.1-12.9-15.5c-12.4-4.8-26.3-6.2-40.4-3.4c-14,2.8-26.3,9.5-35.9,18.8
			c-4.8,4.6-7,13.6-5.8,19.3c1.2,5.7,4.1,5.3,7.9-0.2c8.3-12.1,21.2-21.1,36.6-24.2c15.5-3.1,30.8,0.2,43.1,8.1
			C126.5,188.8,129.4,188,128.3,182.3z"/>
	</g>
</g>
</svg>
