<?xml version="1.0" encoding="utf-8"?>
<!-- Generator: Adobe Illustrator 24.2.3, SVG Export Plug-In . SVG Version: 6.00 Build 0)  -->
<svg version="1.1" id="Orange_Outline" xmlns="http://www.w3.org/2000/svg" xmlns:xlink="http://www.w3.org/1999/xlink" x="0px"
	 y="0px" viewBox="0 0 278 278" style="enable-background:new 0 0 278 278;" xml:space="preserve">
<style type="text/css">
	.st0{fill:none;stroke:#F05325;stroke-width:5;stroke-miterlimit:10;}
	.st1{fill:#F05325;}
	.st2{fill:none;stroke:#F05325;stroke-width:4;stroke-miterlimit:10;}
</style>
<circle class="st0" cx="139" cy="138.5" r="135.3"/>
<g>
	<path class="st1" d="M116.9,179.5c-24.8-5.9-27.2,22.7-35.8,27.8c10.8-0.4,34.3,18.2,45.4-3.3C123.5,196.2,116.9,179.5,116.9,179.5
		z"/>
</g>
<g>
	<path class="st2" d="M154.7,142.5c-7.2,2.9-12.6,6.1-17,9.3c-4.1-3-8.3-5.5-10.7-5.4c-5.7,0.4-24.4,9.3-24.4,9.3l0.7,1.8
		c0,0,8.7-2.2,13.2-0.6c2.4,0.8,5.8,6.1,8.5,10.7c-1,1.7-1.9,3.4-2.7,5l13.8,33.9c1.7,0.5,3.6,1.1,5.7,1.5c1,3.7,1.6,7.7,0.6,9.7
		c-2.2,4.3-9.8,9.5-9.8,9.5l1.1,5c0,0,19.6-6.7,24-10.4c1.8-1.6,3.1-6.3,3.9-11.2c5.6-0.9,11.9-2.5,18.7-5.2L154.7,142.5z"/>
	<path class="st2" d="M160,140.3l25.6,62.9c32.7-13.3,42.8-38.9,44.8-54.6C218.7,139.7,194.7,126.2,160,140.3z"/>
</g>
<rect x="135.3" y="171.2" transform="matrix(0.3771 0.9262 -0.9262 0.3771 266.9376 -49.7778)" class="st1" width="70.3" height="4.8"/>
<ellipse transform="matrix(0.9262 -0.3771 0.3771 0.9262 -46.6647 85.9109)" class="st1" cx="196.1" cy="162.1" rx="11" ry="10.7"/>
<path class="st1" d="M198.2,131.9c-0.2-0.9-4-2.2-7.1-2.7c-3.1-6.9-12.3-14.3-19.8-18.7l1.9-1.3c0,0-3.7-3.7-4.2-4.6
	c-3.9-7.3-7.3-11.8-9.9-14.5l-0.1-1.3l-1.2,0c-0.3-0.3-0.6-0.5-0.9-0.8l29.6-12.6l-0.1-0.3c3.2,1.2,5.4,0,6.1-1.1
	c1.1,0.5,3.1-1.2,3-2.7c0-1.5-0.7-2.1-1.6-2.3c-0.7-0.6-1.7-0.8-2.2-0.9c0.1-0.1,0.2-0.1,0.3-0.2c0.1,0,0.1-0.1,0.1-0.1
	c1.3-0.5,3.8-1.6,3.4-2.8c-0.6-1.7-9.2,2.5-10.9,3.9c-0.3,0.2-0.5,0.6-0.7,0.9l-30.8,14.6l-0.6-0.3c5.6-12.2,5-16.3-6.9-29.3
	c0.2-0.2,0.4-0.4,0.5-0.6c1.5-2.8,1.3-5.3-0.8-7.5c-6-6.3-16.1,3.1-13.6,2.5c2.2-0.5,2.8,1.5,2.1,1.5c-4-0.2-5.1,3.5-4.3,3
	c1.3-0.8,4.9,0.8,0.5,1.3c-9,1.2-13,5.5-10.6,9.8c-2.6,0.8-4.6,3.7,1.3,9.8c0.8,0.9,1.8,1.9,3,2.9c-0.3,0.4-0.6,0.9-0.8,1.6
	c-1.3,4.6,6.5,9.9,9.5,5.3c2.1,2.5,4.1,4.7,5.6,6.2c-0.8,0.1-1.3,0.2-1.3,0.2l-0.1,2.4l1.1,0.1c-5.8,10-19.2,10.5-24.2,9.8
	c-0.3-0.4-0.7-0.8-1-0.9c-4.5-2.5-4.7-5.5-6.1-3.8c-1.2,1.4,0.5,3.2,1.4,4c-0.2,0.1-0.4,0.2-0.7,0.3c-0.5,0.3-4,1.9-3.3,3.7
	c0.7,1.8,2,1.9,2,1.9s1.1,1.9,2.3,3.3c-0.4,0.8,0.5,1.8,1.8,1.8c0.5,0,1-0.1,1.5-0.4c1.6-0.3,3.1-1.7,3.8-3.3
	c4.8,0.2,16.5,1.6,24.7-10.7c2.8,8.2,5.3,14.3,5.3,14.3s-0.5,2-0.9,3.6c0.3,0,0.7,0,1,0c-0.1,0.2-0.3,0.5-0.4,0.7
	c0,0.1-0.1,0.1-0.1,0.2c-0.2,0.3-0.3,0.6-0.5,0.9c-4.8,9.2-1.3,14.1,6.7,19.3c-1.7,1.1-3.4,2.7-4.4,4.5c-0.9,1.6,11.4-0.4,12.4-3.5
	c0.2-0.7-1-2.4-2-2.9c0.4-0.2,0.8-0.3,1.2-0.5c-11.7-6.1-10.7-12.3-8.1-17.4c0.1-0.2,0.2-0.4,0.4-0.7c0,0,0,0,0,0
	c0.1-0.2,0.3-0.4,0.4-0.6c0,0,0,0,0,0c0.1-0.2,0.2-0.4,0.4-0.6c7.1-1.1,12.2-3,12.2-3l0.2-1.8c0,0,0.1,0,0.1,0.1
	c0.4,0.3,0.8,0.5,1.2,0.8c0,0,0,0,0,0c0.4,0.3,0.8,0.5,1.2,0.8c0.1,0,0.1,0.1,0.2,0.1c0.4,0.3,0.8,0.6,1.2,0.9l0,0
	c7.4,5.4,14,12.3,17.1,17.7l0.7-0.3c-0.1,0.4-0.1,0.7,0,0.9C186.3,134.5,198.6,134,198.2,131.9z"/>
<g>
	
		<rect x="106" y="49.2" transform="matrix(0.8334 -0.5526 0.5526 0.8334 -39.6522 76.7103)" class="st1" width="2.8" height="109.9"/>
	<path class="st1" d="M79,61.6c0,0-8.3,0.1-15.6,8.8c-6.1,7.3-7.6,8.2-15.8,8c1.7,15.3,6.8,11,15.1,27.2c8.4-1.9,11.5-4.9,15.6-10.9
		c4.5-6.6,17-8.9,17-8.9L79,61.6z"/>
</g>
</svg>
