<?xml version="1.0" encoding="utf-8"?>
<!-- Generator: Adobe Illustrator 24.2.3, SVG Export Plug-In . SVG Version: 6.00 Build 0)  -->
<svg version="1.1" xmlns="http://www.w3.org/2000/svg" xmlns:xlink="http://www.w3.org/1999/xlink" x="0px" y="0px"
	 viewBox="0 0 600 625" style="enable-background:new 0 0 600 625;" xml:space="preserve">
<style type="text/css">
	.st0{fill:#F2F3F4;}
	.st1{fill:#FFFFFF;}
	.st2{fill:#323E48;}
	.st3{fill:#004D71;}
	.st4{fill:#EF5224;}
	.st5{opacity:0.2;}
	.st6{filter:url(#Adobe_OpacityMaskFilter);}
	.st7{mask:url(#SVGID_1_);}
	.st8{fill:#231F20;}
	.st9{fill:#DFE1DF;}
	.st10{fill:#455058;}
	.st11{fill:#5B6670;}
	.st12{fill:none;stroke:#EAF6FD;stroke-width:2.1455;stroke-linecap:round;stroke-miterlimit:10;}
	.st13{fill:#EAF6FD;}
	.st14{fill:none;stroke:#A1A8AD;stroke-width:3.7514;stroke-linecap:round;stroke-miterlimit:10;}
	.st15{fill:none;stroke:#A1A8AD;stroke-width:3.4531;stroke-linecap:round;stroke-miterlimit:10;}
	.st16{fill:#92C0E9;}
	.st17{fill:#E7E5E4;}
	.st18{fill:#CDC5C3;}
	.st19{fill:#C8D2C8;}
	.st20{fill:#F5F6F8;}
	.st21{fill:#ECECEC;}
	.st22{fill:#F05859;}
	.st23{fill:#EED127;}
	.st24{fill:#75BF47;}
	.st25{fill:none;stroke:#455058;stroke-width:3.6851;stroke-linecap:round;stroke-miterlimit:10;}
	.st26{fill:none;stroke:#455058;stroke-width:3.5087;stroke-linecap:round;stroke-miterlimit:10;}
	
		.st27{fill:none;stroke:#FFFFFF;stroke-width:2.4315;stroke-miterlimit:10;stroke-dasharray:7.8617,5.2412,7.8617,5.2412,7.8617,5.2412;}
	.st28{fill-rule:evenodd;clip-rule:evenodd;fill:#41576E;}
	.st29{fill-rule:evenodd;clip-rule:evenodd;fill:#808080;}
	.st30{fill-rule:evenodd;clip-rule:evenodd;fill:#E7E5E4;}
	.st31{fill-rule:evenodd;clip-rule:evenodd;fill:#CDC5C3;}
	.st32{fill-rule:evenodd;clip-rule:evenodd;fill:#455058;}
	.st33{fill-rule:evenodd;clip-rule:evenodd;fill:#5B6670;}
	.st34{fill-rule:evenodd;clip-rule:evenodd;fill:#F5F6F8;}
	.st35{fill:none;stroke:#FFFFFF;stroke-width:1.2882;stroke-linecap:round;stroke-miterlimit:10;}
	.st36{fill:none;stroke:#5B6670;stroke-width:1.2882;stroke-linecap:round;stroke-miterlimit:10;}
	.st37{clip-path:url(#SVGID_3_);}
	.st38{fill:#E6A882;}
	.st39{fill:#F3BD98;}
	.st40{fill:#D5D2CF;}
	.st41{fill:#644437;}
	.st42{opacity:8.000000e-02;}
	.st43{fill:none;stroke:#FFFFFF;stroke-width:2.6043;stroke-miterlimit:10;}
</style>
<g id="omni">
	<g>
		<g>
			<path class="st0" d="M193,265c-6.4,0-11.6-5.2-11.6-11.6V193c0-6.4,5.2-11.6,11.6-11.6s11.6,5.2,11.6,11.6v60.4
				C204.6,259.8,199.4,265,193,265z"/>
		</g>
		<g>
			<path class="st0" d="M223.2,234.8h-60.4c-6.4,0-11.6-5.2-11.6-11.6s5.2-11.6,11.6-11.6h60.4c6.4,0,11.6,5.2,11.6,11.6
				S229.6,234.8,223.2,234.8z"/>
		</g>
	</g>
	<g>
		
			<ellipse transform="matrix(0.9296 -0.3685 0.3685 0.9296 -123.6295 156.9682)" class="st1" cx="349.1" cy="402.1" rx="7.7" ry="7.7"/>
	</g>
	<g>
		
			<ellipse transform="matrix(0.9175 -0.3977 0.3977 0.9175 -121.3537 181.0873)" class="st1" cx="375.9" cy="383.1" rx="7.7" ry="7.7"/>
	</g>
	<g>
		
			<ellipse transform="matrix(0.9175 -0.3977 0.3977 0.9175 -136.5845 184.2459)" class="st1" cx="375.9" cy="421.4" rx="7.7" ry="7.7"/>
	</g>
	<g>
		<circle class="st1" cx="317.2" cy="512.5" r="7.7"/>
	</g>
	<g>
		
			<ellipse transform="matrix(0.5475 -0.8368 0.8368 0.5475 -315.4906 441.5988)" class="st1" cx="250.6" cy="512.5" rx="7.7" ry="7.7"/>
	</g>
	<g>
		
			<ellipse transform="matrix(0.9175 -0.3977 0.3977 0.9175 -141.7449 120.4465)" class="st1" cx="219.5" cy="402" rx="7.7" ry="7.7"/>
	</g>
	<g>
		
			<ellipse transform="matrix(0.951 -0.3092 0.3092 0.951 -120.7144 80.0723)" class="st1" cx="192.3" cy="420.9" rx="7.7" ry="7.7"/>
	</g>
	<g>
		<circle class="st1" cx="191.8" cy="384.1" r="7.7"/>
	</g>
	<g>
		
			<ellipse transform="matrix(0.9598 -0.2808 0.2808 0.9598 -71.8324 82.0905)" class="st1" cx="250.6" cy="291.8" rx="7.7" ry="7.7"/>
	</g>
	<g>
		<circle class="st1" cx="317.2" cy="291.8" r="7.7"/>
	</g>
	<g>
		<path class="st2" d="M554,349.3L554,349.3c-1.8-0.5-2.8-2.4-2.3-4.2l0,0c0.5-1.8,2.4-2.8,4.2-2.3l0,0l0,0l0,0
			c1.8,0.5,2.8,2.4,2.3,4.2l0,0c-0.4,1.5-1.8,2.4-3.3,2.4l0,0C554.7,349.5,554.4,349.4,554,349.3z M562.8,346.8
			c-0.8-1.7,0-3.7,1.7-4.5l0,0c0,0,0,0,0,0l0,0c1.7-0.8,3.7,0,4.5,1.7l0,0c0.8,1.7,0,3.7-1.7,4.5l0,0c-0.4,0.2-0.9,0.3-1.4,0.3l0,0
			C564.6,348.8,563.4,348.1,562.8,346.8z M543.5,341.3c-1-1.6-0.5-3.7,1.1-4.7l0,0c1.6-1,3.7-0.5,4.7,1.1l0,0c1,1.6,0.5,3.7-1,4.7
			l0,0c-0.6,0.4-1.2,0.5-1.8,0.5l0,0C545.2,342.9,544.1,342.3,543.5,341.3z M572.3,340.8c-1.7-0.8-2.4-2.8-1.6-4.5l0,0
			c0.8-1.7,2.8-2.4,4.5-1.6l0,0c1.7,0.8,2.4,2.8,1.6,4.5l0,0c-0.6,1.2-1.8,2-3.1,2l0,0C573.2,341.2,572.7,341.1,572.3,340.8z
			 M543.6,332.2c-1.9-0.3-3.2-2-2.9-3.9l0,0c0.3-1.9,2-3.1,3.9-2.9l0,0c1.9,0.3,3.1,2,2.9,3.9l0,0c-0.2,1.7-1.7,2.9-3.4,2.9l0,0
			C543.9,332.2,543.7,332.2,543.6,332.2z M571.4,327.8c-0.5-1.8,0.6-3.7,2.4-4.2l0,0c1.8-0.5,3.7,0.6,4.2,2.4l0,0
			c0.5,1.8-0.6,3.7-2.4,4.2l0,0c-0.3,0.1-0.6,0.1-0.9,0.1l0,0C573.2,330.3,571.8,329.3,571.4,327.8z M546.8,321.5
			c-1.2-1.4-1.1-3.6,0.4-4.8l0,0c1.4-1.2,3.6-1.1,4.8,0.4l0,0c1.2,1.4,1.1,3.6-0.4,4.8l0,0c-0.6,0.6-1.4,0.8-2.2,0.8l0,0
			C548.4,322.6,547.4,322.2,546.8,321.5z M566.4,320.9c-1.6-1-2-3.2-0.9-4.7l0,0c1-1.6,3.2-2,4.7-0.9l0,0c1.6,1,2,3.2,0.9,4.7l0,0
			c-0.7,1-1.7,1.5-2.8,1.5l0,0C567.6,321.5,566.9,321.3,566.4,320.9z M556.2,315.4c0-1.9,1.5-3.4,3.4-3.4l0,0c1.9,0,3.4,1.5,3.4,3.4
			l0,0c0,1.9-1.5,3.4-3.4,3.4l0,0l0,0l0,0C557.7,318.8,556.2,317.3,556.2,315.4z"/>
	</g>
	<g>
		<path class="st2" d="M466.3,281.4c-1.9-0.6-3-2.6-2.4-4.4l0,0c0.6-1.9,2.6-3,4.4-2.4l0,0c1.9,0.6,3,2.6,2.4,4.4l0,0
			c-0.5,1.5-1.9,2.5-3.4,2.5l0,0C467,281.5,466.7,281.5,466.3,281.4z M475.5,278.7c-0.8-1.8,0-3.9,1.8-4.7l0,0
			c1.8-0.8,3.9,0,4.7,1.8l0,0c0.8,1.8,0,3.9-1.8,4.7h0c-0.5,0.2-1,0.3-1.4,0.3l0,0C477.4,280.8,476.1,280,475.5,278.7z M455.2,272.9
			c-1.1-1.7-0.6-3.9,1.1-4.9l0,0c1.7-1.1,3.9-0.6,4.9,1.1l0,0c1.1,1.7,0.6,3.9-1.1,4.9l0,0c-0.6,0.4-1.3,0.6-1.9,0.6l0,0
			C457.1,274.6,455.9,274,455.2,272.9z M485.4,272.5c-1.8-0.8-2.5-3-1.7-4.8l0,0c0.8-1.8,3-2.5,4.8-1.7l0,0c1.8,0.8,2.5,3,1.7,4.7
			l0,0c-0.6,1.3-1.9,2-3.2,2l0,0C486.4,272.8,485.9,272.7,485.4,272.5z M455.4,263.4c-1.9-0.3-3.3-2.1-3-4l0,0c0.3-1.9,2.1-3.3,4-3
			l0,0c1.9,0.3,3.3,2.1,3,4.1l0,0c0,0,0,0,0,0l0,0c-0.3,1.8-1.8,3.1-3.5,3.1l0,0C455.7,263.4,455.5,263.4,455.4,263.4z M484.5,258.8
			L484.5,258.8L484.5,258.8c-0.5-1.9,0.6-3.9,2.5-4.4l0,0c1.9-0.5,3.9,0.6,4.4,2.5l0,0c0.5,1.9-0.6,3.9-2.5,4.4l0,0
			c-0.3,0.1-0.6,0.1-1,0.1l0,0C486.3,261.4,484.9,260.4,484.5,258.8z M458.7,252.2c-1.3-1.5-1.1-3.7,0.4-5l0,0
			c1.5-1.3,3.7-1.1,5,0.4l0,0c1.3,1.5,1.1,3.7-0.4,5l0,0c-0.7,0.6-1.5,0.9-2.3,0.9l0,0C460.4,253.4,459.4,253,458.7,252.2z
			 M479.2,251.6c-1.6-1.1-2.1-3.3-1-4.9l0,0c1.1-1.6,3.3-2.1,4.9-1l0,0c1.6,1.1,2.1,3.3,1,4.9l0,0c-0.7,1-1.8,1.6-3,1.6l0,0
			C480.5,252.2,479.8,252,479.2,251.6z M468.5,245.9c0-2,1.6-3.6,3.6-3.6l0,0c2,0,3.6,1.6,3.6,3.6l0,0c0,2-1.6,3.6-3.6,3.6l0,0
			C470.1,249.4,468.5,247.8,468.5,245.9z"/>
	</g>
	<g>
		<path class="st0" d="M439.6,233.2c-10.8-3.3-16.8-14.6-13.6-25.4l0,0c3.3-10.8,14.6-16.8,25.4-13.6l0,0
			c10.8,3.3,16.8,14.6,13.6,25.4l0,0c-2.7,8.8-10.7,14.5-19.5,14.5l0,0C443.5,234.1,441.6,233.8,439.6,233.2z M492,217.9
			c-4.6-10.3,0.1-22.3,10.3-26.9l0,0c10.3-4.6,22.3,0.1,26.9,10.3l0,0c4.6,10.3,0,22.3-10.3,26.9h0c-2.7,1.2-5.5,1.8-8.3,1.8l0,0
			C502.8,230,495.4,225.5,492,217.9z M376.4,185.1c-6-9.5-3.2-22.1,6.3-28.1l0,0c9.5-6,22.1-3.2,28.1,6.3l0,0
			c6,9.5,3.2,22.1-6.3,28.1l0,0c-3.4,2.1-7.2,3.2-10.9,3.2l0,0C386.8,194.6,380.3,191.2,376.4,185.1z M548.5,182.5
			c-10.2-4.8-14.5-17-9.7-27.1l0,0c4.8-10.2,16.9-14.5,27.1-9.7l0,0c10.2,4.8,14.5,16.9,9.7,27.1l0,0c-3.5,7.4-10.8,11.7-18.4,11.7
			l0,0C554.3,184.4,551.3,183.8,548.5,182.5z M377.1,130.6c-11.1-1.6-18.8-12-17.2-23.1l0,0c1.6-11.1,12-18.8,23.1-17.2l0,0
			c11.1,1.6,18.8,12,17.2,23.1l0,0c0,0,0,0,0,0l0,0c-1.5,10.1-10.2,17.4-20.1,17.4l0,0C379.1,130.8,378.1,130.7,377.1,130.6z
			 M543.1,104.5L543.1,104.5L543.1,104.5c-3-10.8,3.3-22,14.2-25.1l0,0c10.8-3,22.1,3.4,25.1,14.2l0,0c3,10.8-3.4,22-14.2,25l0,0
			c-1.8,0.5-3.6,0.8-5.5,0.8l0,0C553.8,119.5,545.6,113.5,543.1,104.5z M396.1,66.6c-7.3-8.5-6.4-21.4,2.1-28.7l0,0
			c8.5-7.3,21.4-6.4,28.7,2.1l0,0c7.3,8.5,6.4,21.4-2.1,28.7l0,0c-3.8,3.3-8.6,4.9-13.3,4.9l0,0C405.8,73.7,400.1,71.3,396.1,66.6z
			 M513.2,63.2c-9.3-6.2-11.9-18.9-5.6-28.2l0,0c6.2-9.3,18.9-11.9,28.2-5.6l0,0c9.4,6.3,11.9,18.9,5.6,28.2l0,0
			c-3.9,5.9-10.4,9.1-17,9.1l0,0C520.6,66.6,516.7,65.5,513.2,63.2z M452.2,30.6c0-11.2,9.1-20.4,20.4-20.4l0,0
			c11.3,0,20.4,9.1,20.4,20.4l0,0c0,11.3-9.1,20.4-20.4,20.4l0,0C461.4,50.9,452.2,41.8,452.2,30.6z"/>
	</g>
	<g>
		<path class="st2" d="M360.2,602.8c-1.8-0.5-2.8-2.4-2.3-4.2l0,0c0.5-1.8,2.4-2.8,4.2-2.3l0,0c1.8,0.5,2.8,2.4,2.3,4.3l0,0
			c-0.4,1.5-1.8,2.4-3.3,2.4l0,0C360.9,603,360.6,602.9,360.2,602.8z M369,600.3c-0.8-1.7,0-3.7,1.7-4.5l0,0c1.7-0.8,3.7,0,4.5,1.7
			l0,0c0.8,1.7,0,3.7-1.7,4.5l0,0c-0.5,0.2-0.9,0.3-1.4,0.3l0,0C370.8,602.3,369.6,601.5,369,600.3z M349.6,594.8
			c-1-1.6-0.5-3.7,1-4.7l0,0c1.6-1,3.7-0.5,4.7,1.1l0,0c1,1.6,0.5,3.7-1.1,4.7l0,0c-0.6,0.4-1.2,0.5-1.8,0.5l0,0
			C351.4,596.3,350.3,595.8,349.6,594.8z M378.5,594.3c-1.7-0.8-2.4-2.8-1.6-4.5l0,0c0.8-1.7,2.8-2.4,4.5-1.6l0,0
			c1.7,0.8,2.4,2.8,1.6,4.5l0,0c-0.6,1.2-1.8,2-3.1,2l0,0C379.4,594.7,378.9,594.5,378.5,594.3z M349.8,585.6
			c-1.9-0.3-3.1-2-2.9-3.9l0,0c0.3-1.9,2-3.2,3.9-2.9l0,0c1.9,0.3,3.2,2,2.9,3.9l0,0l0,0l0,0c-0.2,1.7-1.7,2.9-3.4,2.9l0,0
			C350.1,585.7,349.9,585.7,349.8,585.6z M377.6,581.3c-0.5-1.8,0.6-3.7,2.4-4.2l0,0c1.8-0.5,3.7,0.6,4.2,2.4l0,0
			c0.5,1.8-0.6,3.7-2.4,4.2l0,0c-0.3,0.1-0.6,0.1-0.9,0.1l0,0C379.3,583.8,378,582.8,377.6,581.3z M352.9,574.9
			c-1.2-1.4-1.1-3.6,0.4-4.8l0,0c1.4-1.2,3.6-1.1,4.8,0.4l0,0c1.2,1.4,1.1,3.6-0.4,4.8l0,0c-0.6,0.6-1.4,0.8-2.2,0.8l0,0
			C354.6,576.1,353.6,575.7,352.9,574.9z M372.5,574.4c-1.6-1-2-3.2-0.9-4.7l0,0c1-1.6,3.2-2,4.7-0.9l0,0c1.6,1,2,3.2,0.9,4.7l0,0
			c-0.7,1-1.7,1.5-2.8,1.5l0,0C373.8,574.9,373.1,574.8,372.5,574.4z M362.3,568.9c0-1.9,1.5-3.4,3.4-3.4l0,0c1.9,0,3.4,1.5,3.4,3.4
			l0,0c0,1.9-1.5,3.4-3.4,3.4l0,0l0,0l0,0C363.9,572.3,362.3,570.8,362.3,568.9z"/>
	</g>
	<g>
		<path class="st2" d="M32,332.1c-1.8-0.5-2.8-2.4-2.3-4.2l0,0c0.5-1.8,2.4-2.8,4.3-2.3l0,0c1.8,0.5,2.8,2.4,2.3,4.3l0,0
			c-0.4,1.5-1.8,2.4-3.3,2.4l0,0C32.7,332.3,32.4,332.2,32,332.1z M40.8,329.6c-0.8-1.7,0-3.7,1.7-4.5l0,0c1.7-0.8,3.7,0,4.5,1.7
			l0,0c0.8,1.7,0,3.7-1.7,4.5l0,0c-0.5,0.2-0.9,0.3-1.4,0.3l0,0C42.6,331.6,41.4,330.8,40.8,329.6z M21.5,324.1L21.5,324.1
			c-1-1.6-0.5-3.7,1-4.7l0,0c1.6-1,3.7-0.5,4.7,1.1l0,0c1,1.6,0.5,3.7-1.1,4.7l0,0c-0.6,0.4-1.2,0.5-1.8,0.5l0,0
			C23.2,325.7,22.1,325.1,21.5,324.1z M50.3,323.6c-1.7-0.8-2.4-2.8-1.6-4.5l0,0c0.8-1.7,2.8-2.4,4.5-1.6l0,0
			c1.7,0.8,2.4,2.8,1.6,4.5l0,0c-0.6,1.2-1.8,2-3.1,2l0,0C51.2,324,50.8,323.8,50.3,323.6z M21.6,314.9c-1.9-0.3-3.1-2-2.9-3.9l0,0
			c0.3-1.9,2-3.2,3.9-2.9l0,0c1.9,0.3,3.2,2,2.9,3.9l0,0c-0.3,1.7-1.7,2.9-3.4,2.9l0,0C21.9,315,21.8,315,21.6,314.9z M49.4,310.6
			c-0.5-1.8,0.6-3.7,2.4-4.2l0,0c1.8-0.5,3.7,0.6,4.2,2.4l0,0c0.5,1.8-0.6,3.7-2.4,4.2l0,0c-0.3,0.1-0.6,0.1-0.9,0.1l0,0
			C51.2,313.1,49.8,312.1,49.4,310.6z M24.8,304.2c-1.2-1.4-1.1-3.6,0.4-4.8l0,0c1.4-1.2,3.6-1.1,4.8,0.4l0,0
			c1.2,1.4,1.1,3.6-0.4,4.8l0,0c-0.6,0.6-1.4,0.8-2.2,0.8l0,0C26.4,305.4,25.4,305,24.8,304.2z M44.4,303.7L44.4,303.7L44.4,303.7
			c-1.6-1-2-3.2-0.9-4.7l0,0c1-1.6,3.2-2,4.7-0.9l0,0c1.6,1,2,3.2,0.9,4.7l0,0c-0.7,1-1.7,1.5-2.8,1.5l0,0
			C45.6,304.2,44.9,304.1,44.4,303.7z M34.2,298.2c0-1.9,1.5-3.4,3.4-3.4l0,0c1.9,0,3.4,1.5,3.4,3.4l0,0c0,1.9-1.5,3.4-3.4,3.4l0,0
			C35.7,301.6,34.2,300.1,34.2,298.2z"/>
	</g>
	<g>
		<path class="st2" d="M146,254.8c-1.8-0.5-2.8-2.4-2.3-4.2l0,0c0.5-1.8,2.4-2.8,4.3-2.3l0,0c1.8,0.5,2.8,2.4,2.3,4.2l0,0
			c-0.4,1.5-1.8,2.4-3.3,2.4l0,0C146.7,255,146.3,254.9,146,254.8z M154.8,252.3c-0.8-1.7,0-3.7,1.7-4.5l0,0c1.7-0.8,3.7,0,4.5,1.7
			l0,0c0.8,1.7,0,3.7-1.7,4.5l0,0c-0.5,0.2-0.9,0.3-1.4,0.3l0,0C156.6,254.3,155.3,253.5,154.8,252.3z M135.4,246.8
			c-1-1.6-0.5-3.7,1-4.7l0,0c1.6-1,3.7-0.5,4.7,1.1l0,0l0,0l0,0c1,1.6,0.5,3.7-1.1,4.7l0,0c-0.6,0.4-1.2,0.5-1.8,0.5l0,0
			C137.2,248.3,136.1,247.8,135.4,246.8z M164.2,246.3c-1.7-0.8-2.4-2.8-1.6-4.5l0,0c0.8-1.7,2.8-2.4,4.5-1.6l0,0
			c1.7,0.8,2.4,2.8,1.6,4.5l0,0c-0.6,1.2-1.8,2-3.1,2l0,0C165.2,246.6,164.7,246.5,164.2,246.3z M135.5,237.6
			c-1.9-0.3-3.1-2-2.9-3.9l0,0c0.3-1.9,2-3.2,3.9-2.9l0,0c1.9,0.3,3.2,2,2.9,3.9l0,0c-0.3,1.7-1.7,2.9-3.4,2.9l0,0
			C135.9,237.7,135.7,237.7,135.5,237.6z M163.3,233.3c-0.5-1.8,0.6-3.7,2.4-4.2l0,0c1.8-0.5,3.7,0.6,4.2,2.4l0,0
			c0.5,1.8-0.6,3.7-2.4,4.2l0,0c-0.3,0.1-0.6,0.1-0.9,0.1l0,0C165.1,235.8,163.7,234.8,163.3,233.3z M138.7,226.9
			c-1.2-1.4-1.1-3.6,0.4-4.8l0,0c1.4-1.2,3.6-1.1,4.8,0.4l0,0c1.2,1.4,1.1,3.6-0.4,4.8l0,0c-0.6,0.6-1.4,0.8-2.2,0.8l0,0
			C140.3,228.1,139.4,227.7,138.7,226.9z M158.3,226.4L158.3,226.4L158.3,226.4c-1.6-1-2-3.2-0.9-4.7l0,0c1-1.6,3.2-2,4.7-0.9l0,0
			c1.6,1,2,3.2,0.9,4.7l0,0c-0.7,1-1.7,1.5-2.8,1.5l0,0C159.6,226.9,158.9,226.7,158.3,226.4z M148.1,220.9c0-1.9,1.5-3.4,3.4-3.4
			l0,0c1.9,0,3.4,1.5,3.4,3.4l0,0c0,1.9-1.5,3.4-3.4,3.4l0,0c0,0,0,0,0,0l0,0C149.6,224.3,148.1,222.8,148.1,220.9z"/>
	</g>
	<g>
		<g>
			<path class="st2" d="M404.7,271c-1.3,0-2.4-1.1-2.4-2.4v-12.6c0-1.3,1.1-2.4,2.4-2.4c1.3,0,2.4,1.1,2.4,2.4v12.6
				C407.2,269.9,406.1,271,404.7,271z"/>
		</g>
		<g>
			<path class="st2" d="M411.1,264.6h-12.6c-1.3,0-2.4-1.1-2.4-2.4s1.1-2.4,2.4-2.4h12.6c1.3,0,2.4,1.1,2.4,2.4
				S412.4,264.6,411.1,264.6z"/>
		</g>
	</g>
	<g>
		<g>
			<path class="st2" d="M475.4,371.8c-1.3,0-2.4-1.1-2.4-2.4v-12.6c0-1.3,1.1-2.4,2.4-2.4c1.3,0,2.4,1.1,2.4,2.4v12.6
				C477.9,370.7,476.8,371.8,475.4,371.8z"/>
		</g>
		<g>
			<path class="st2" d="M481.8,365.5h-12.6c-1.3,0-2.4-1.1-2.4-2.4c0-1.3,1.1-2.4,2.4-2.4h12.6c1.3,0,2.4,1.1,2.4,2.4
				C484.2,364.4,483.1,365.5,481.8,365.5z"/>
		</g>
	</g>
	<g>
		<g>
			<path class="st0" d="M66.6,610.8c-8.7,0-15.8-7.1-15.8-15.8v-82.3c0-8.7,7.1-15.8,15.8-15.8s15.8,7.1,15.8,15.8V595
				C82.5,603.7,75.4,610.8,66.6,610.8z"/>
		</g>
		<g>
			<path class="st0" d="M107.8,569.7H25.5c-8.7,0-15.8-7.1-15.8-15.8S16.8,538,25.5,538h82.3c8.7,0,15.8,7.1,15.8,15.8
				S116.5,569.7,107.8,569.7z"/>
		</g>
	</g>
	<g>
		<g>
			<path class="st2" d="M64.2,467.9c-1.3,0-2.3-1-2.3-2.3v-12.1c0-1.3,1-2.3,2.3-2.3c1.3,0,2.3,1,2.3,2.3v12.1
				C66.5,466.9,65.5,467.9,64.2,467.9z"/>
		</g>
		<g>
			<path class="st2" d="M70.2,461.9H58.1c-1.3,0-2.3-1-2.3-2.3c0-1.3,1-2.3,2.3-2.3h12.1c1.3,0,2.3,1,2.3,2.3
				C72.5,460.9,71.5,461.9,70.2,461.9z"/>
		</g>
	</g>
	<g>
		<g>
			<path class="st3" d="M128.1,552.8c-1.3,0-2.4-1.1-2.4-2.4v-12.6c0-1.3,1.1-2.4,2.4-2.4c1.3,0,2.4,1.1,2.4,2.4v12.6
				C130.6,551.7,129.5,552.8,128.1,552.8z"/>
		</g>
		<g>
			<path class="st3" d="M134.4,546.5h-12.6c-1.3,0-2.4-1.1-2.4-2.4s1.1-2.4,2.4-2.4h12.6c1.3,0,2.4,1.1,2.4,2.4
				S135.8,546.5,134.4,546.5z"/>
		</g>
	</g>
	<g>
		<g>
			<path class="st2" d="M119.5,304.4c-1.3,0-2.3-1-2.3-2.3V290c0-1.3,1-2.3,2.3-2.3c1.3,0,2.3,1,2.3,2.3V302
				C121.8,303.3,120.8,304.4,119.5,304.4z"/>
		</g>
		<g>
			<path class="st2" d="M125.6,298.3h-12.1c-1.3,0-2.3-1-2.3-2.3c0-1.3,1-2.3,2.3-2.3h12.1c1.3,0,2.3,1,2.3,2.3
				C127.9,297.3,126.8,298.3,125.6,298.3z"/>
		</g>
	</g>
	<g>
		<g>
			<path class="st4" d="M273.7,535.3c-1.3,0-2.4-1.1-2.4-2.4V271.4c0-1.3,1.1-2.4,2.4-2.4s2.4,1.1,2.4,2.4v261.4
				C276.2,534.2,275.1,535.3,273.7,535.3z"/>
		</g>
		<g>
			<path class="st4" d="M274.2,274c-1.3,0-2.4-1.1-2.4-2.4c0-11.9-9.7-21.6-21.6-21.6c-11.9,0-21.6,9.7-21.6,21.6
				c0,1.3-1.1,2.4-2.4,2.4s-2.4-1.1-2.4-2.4c0-14.6,11.9-26.5,26.5-26.5c14.6,0,26.5,11.9,26.5,26.5
				C276.7,272.9,275.6,274,274.2,274z"/>
		</g>
		<g>
			<path class="st4" d="M254.6,559.2c-12.2,0-22.1-11.9-22.1-26.5c0-1.3,1.1-2.4,2.4-2.4s2.4,1.1,2.4,2.4c0,11.9,7.7,21.6,17.2,21.6
				c9.5,0,17.2-9.7,17.2-21.6c0-1.3,1.1-2.4,2.4-2.4s2.4,1.1,2.4,2.4C276.7,547.3,266.7,559.2,254.6,559.2z"/>
		</g>
		<g>
			<path class="st4" d="M190.7,304.4c-1.1,0-2.1-0.7-2.3-1.8c-2.9-11.1,1.3-23,10.6-29.7c6-4.3,13.4-6.1,20.7-4.9
				c7.3,1.2,13.7,5.2,18.1,11.2c0.8,1.1,0.5,2.6-0.6,3.4c-1.1,0.8-2.6,0.5-3.4-0.6c-3.6-5-8.9-8.2-14.9-9.2c-6-1-12.1,0.4-17,4
				c-7.7,5.5-11.2,15.4-8.7,24.5c0.3,1.3-0.4,2.6-1.7,3C191.1,304.4,190.9,304.4,190.7,304.4z"/>
		</g>
		<g>
			<path class="st4" d="M157.1,381.9c-0.4,0-0.7-0.1-1-0.2c-18.9-9.1-25.9-34-15.6-55.6c5-10.4,13.2-18.5,23.1-22.8
				c10.1-4.4,20.7-4.3,29.9,0.1c4.7,2.2,8.7,5.5,12,9.6c0.8,1.1,0.7,2.6-0.4,3.4c-1.1,0.8-2.6,0.7-3.4-0.4
				c-2.8-3.5-6.3-6.3-10.3-8.2c-7.9-3.8-17.1-3.8-25.9,0c-8.9,3.9-16.2,11.1-20.7,20.5c-9.2,19.2-3.2,41.2,13.3,49.1
				c1.2,0.6,1.7,2,1.1,3.2C158.9,381.3,158,381.9,157.1,381.9z"/>
		</g>
		<g>
			<path class="st4" d="M154.1,443.3c-0.2,0-0.5,0-0.7-0.1c-8.1-2.5-15.3-7.7-20.4-14.5c-5.3-7.1-8.1-15.4-8.1-24.3
				c0-13.9,7-26.7,18.7-34.2c1.1-0.7,2.6-0.4,3.4,0.7c0.7,1.1,0.4,2.6-0.7,3.4c-10.3,6.6-16.5,17.9-16.5,30.1
				c0,15.7,10.1,29.4,25.1,34.1c1.3,0.4,2,1.8,1.6,3C156.1,442.6,155.2,443.3,154.1,443.3z"/>
		</g>
		<g>
			<path class="st4" d="M198.6,516.2c-28.3,0-51.4-23-51.4-51.4c0-14.5,6.2-28.4,16.9-38.1c1-0.9,2.5-0.8,3.4,0.2
				c0.9,1,0.8,2.5-0.2,3.4c-9.7,8.8-15.3,21.4-15.3,34.5c0,25.6,20.9,46.5,46.5,46.5c1.3,0,2.4,1.1,2.4,2.4
				C201,515.2,199.9,516.2,198.6,516.2z"/>
		</g>
		<g>
			<path class="st4" d="M217.2,548.4c-17.7,0-32.2-14.4-32.2-32.2c0-1.3,1.1-2.4,2.4-2.4s2.4,1.1,2.4,2.4
				c0,15.1,12.3,27.3,27.3,27.3c5.9,0,11.5-1.8,16.2-5.3c1.1-0.8,2.6-0.6,3.4,0.5c0.8,1.1,0.6,2.6-0.5,3.4
				C230.8,546.2,224.2,548.4,217.2,548.4z"/>
		</g>
		<g>
			<path class="st4" d="M293.2,535.3c-1.3,0-2.4-1.1-2.4-2.4V271.4c0-1.3,1.1-2.4,2.4-2.4s2.4,1.1,2.4,2.4v261.4
				C295.6,534.2,294.5,535.3,293.2,535.3z"/>
		</g>
		<g>
			<path class="st4" d="M341.6,274c-1.3,0-2.4-1.1-2.4-2.4c0-11.9-9.7-21.6-21.6-21.6c-11.9,0-21.6,9.7-21.6,21.6
				c0,1.3-1.1,2.4-2.4,2.4s-2.4-1.1-2.4-2.4c0-14.6,11.9-26.5,26.5-26.5S344,257,344,271.5C344,272.9,342.9,274,341.6,274z"/>
		</g>
		<g>
			<path class="st4" d="M313.2,559.2c-12.2,0-22.1-11.9-22.1-26.5c0-1.3,1.1-2.4,2.4-2.4s2.4,1.1,2.4,2.4c0,11.9,7.7,21.6,17.2,21.6
				c9.5,0,17.2-9.7,17.2-21.6c0-1.3,1.1-2.4,2.4-2.4c1.3,0,2.4,1.1,2.4,2.4C335.3,547.3,325.4,559.2,313.2,559.2z"/>
		</g>
		<g>
			<path class="st4" d="M377.1,304.4c-0.2,0-0.4,0-0.6-0.1c-1.3-0.3-2.1-1.7-1.7-3c2.4-9.1-1.1-19-8.7-24.5c-5-3.6-11-5-17-4
				c-6,1-11.3,4.3-14.9,9.2c-0.8,1.1-2.3,1.3-3.4,0.6c-1.1-0.8-1.3-2.3-0.6-3.4c4.3-6,10.7-10,18.1-11.2c7.3-1.2,14.7,0.5,20.7,4.9
				c9.3,6.7,13.5,18.6,10.6,29.7C379.1,303.7,378.1,304.4,377.1,304.4z"/>
		</g>
		<g>
			<path class="st4" d="M410.6,381.9c-0.9,0-1.8-0.5-2.2-1.4c-0.6-1.2-0.1-2.7,1.1-3.2c7.9-3.8,13.7-11,16.3-20.2
				c2.6-9.3,1.5-19.6-2.9-29c-4.5-9.4-11.8-16.6-20.7-20.5c-8.8-3.8-18-3.8-25.9,0c-4,1.9-7.5,4.7-10.3,8.2
				c-0.8,1.1-2.4,1.2-3.4,0.4c-1.1-0.8-1.2-2.4-0.4-3.4c3.3-4.1,7.3-7.3,12-9.6c9.2-4.4,19.9-4.4,29.9-0.1
				c10,4.3,18.2,12.4,23.1,22.8c5,10.4,6.1,21.9,3.2,32.4c-2.9,10.6-9.6,18.8-18.8,23.2C411.3,381.8,411,381.9,410.6,381.9z"/>
		</g>
		<g>
			<path class="st4" d="M413.6,443.3c-1,0-2-0.7-2.3-1.7c-0.4-1.3,0.3-2.6,1.6-3c15-4.7,25.1-18.4,25.1-34.1
				c0-12.2-6.2-23.5-16.5-30.1c-1.1-0.7-1.5-2.2-0.7-3.4c0.7-1.1,2.2-1.5,3.4-0.7c11.7,7.5,18.7,20.3,18.7,34.2
				c0,8.8-2.8,17.2-8.1,24.3c-5.1,6.8-12.4,12-20.4,14.5C414.1,443.2,413.9,443.3,413.6,443.3z"/>
		</g>
		<g>
			<path class="st4" d="M369.2,516.2c-1.3,0-2.4-1.1-2.4-2.4c0-1.3,1.1-2.4,2.4-2.4c25.6,0,46.5-20.9,46.5-46.5
				c0-13.1-5.6-25.7-15.3-34.5c-1-0.9-1.1-2.4-0.2-3.4c0.9-1,2.4-1.1,3.4-0.2c10.8,9.7,16.9,23.6,16.9,38.1
				C420.5,493.2,397.5,516.2,369.2,516.2z"/>
		</g>
		<g>
			<path class="st4" d="M350.6,548.4c-6.9,0-13.6-2.2-19.1-6.3c-1.1-0.8-1.3-2.3-0.5-3.4c0.8-1.1,2.3-1.3,3.4-0.5
				c4.7,3.5,10.3,5.3,16.2,5.3c15.1,0,27.3-12.3,27.3-27.3c0-1.3,1.1-2.4,2.4-2.4s2.4,1.1,2.4,2.4
				C382.7,533.9,368.3,548.4,350.6,548.4z"/>
		</g>
	</g>
	<g>
		<path class="st4" d="M218.6,412.3c-5.6,0-10.1-4.5-10.1-10.1s4.5-10.1,10.1-10.1c5.6,0,10.1,4.5,10.1,10.1
			S224.2,412.3,218.6,412.3z M218.6,396.9c-2.9,0-5.2,2.4-5.2,5.2s2.4,5.2,5.2,5.2c2.9,0,5.2-2.4,5.2-5.2S221.5,396.9,218.6,396.9z"
			/>
	</g>
	<g>
		<g>
			<g>
				<path class="st4" d="M191.8,431.3c-5.6,0-10.1-4.5-10.1-10.1s4.5-10.1,10.1-10.1c5.6,0,10.1,4.5,10.1,10.1
					S197.4,431.3,191.8,431.3z M191.8,415.9c-2.9,0-5.2,2.4-5.2,5.2s2.4,5.2,5.2,5.2c2.9,0,5.2-2.4,5.2-5.2S194.7,415.9,191.8,415.9
					z"/>
			</g>
			<g>
				<path class="st4" d="M250.6,522.6c-5.6,0-10.1-4.5-10.1-10.1s4.5-10.1,10.1-10.1c5.6,0,10.1,4.5,10.1,10.1
					S256.2,522.6,250.6,522.6z M250.6,507.3c-2.9,0-5.2,2.4-5.2,5.2s2.4,5.2,5.2,5.2c2.9,0,5.2-2.4,5.2-5.2S253.5,507.3,250.6,507.3
					z"/>
			</g>
			<g>
				<path class="st4" d="M250.4,507.4c-1.3,0-2.4-1.1-2.4-2.4v-81.1h-48c-1.3,0-2.4-1.1-2.4-2.4s1.1-2.4,2.4-2.4h50.4
					c1.3,0,2.4,1.1,2.4,2.4v83.5C252.8,506.3,251.7,507.4,250.4,507.4z"/>
			</g>
		</g>
		<g>
			<g>
				<path class="st4" d="M191.8,393.2c-5.6,0-10.1-4.5-10.1-10.1c0-5.6,4.5-10.1,10.1-10.1c5.6,0,10.1,4.5,10.1,10.1
					C201.9,388.7,197.4,393.2,191.8,393.2z M191.8,377.9c-2.9,0-5.2,2.4-5.2,5.2c0,2.9,2.4,5.2,5.2,5.2c2.9,0,5.2-2.4,5.2-5.2
					C197.1,380.2,194.7,377.9,191.8,377.9z"/>
			</g>
			<g>
				<path class="st4" d="M250.6,301.9c-5.6,0-10.1-4.5-10.1-10.1c0-5.6,4.5-10.1,10.1-10.1c5.6,0,10.1,4.5,10.1,10.1
					C260.7,297.3,256.2,301.9,250.6,301.9z M250.6,286.5c-2.9,0-5.2,2.4-5.2,5.2c0,2.9,2.4,5.2,5.2,5.2c2.9,0,5.2-2.4,5.2-5.2
					C255.8,288.9,253.5,286.5,250.6,286.5z"/>
			</g>
			<g>
				<path class="st4" d="M250.4,385.3H200c-1.3,0-2.4-1.1-2.4-2.4s1.1-2.4,2.4-2.4h48v-81.1c0-1.3,1.1-2.4,2.4-2.4
					c1.3,0,2.4,1.1,2.4,2.4v83.5C252.8,384.2,251.7,385.3,250.4,385.3z"/>
			</g>
		</g>
	</g>
	<g>
		<g>
			<path class="st4" d="M259.6,404.7h-33.4c-1.3,0-2.4-1.1-2.4-2.4c0-1.3,1.1-2.4,2.4-2.4h33.4c1.3,0,2.4,1.1,2.4,2.4
				C262.1,403.6,261,404.7,259.6,404.7z"/>
		</g>
		<g>
			<path class="st4" d="M260.1,467.8c-1.3,0-2.4-1.1-2.4-2.4V339.6c0-1.3,1.1-2.4,2.4-2.4s2.4,1.1,2.4,2.4v125.8
				C262.5,466.7,261.5,467.8,260.1,467.8z"/>
		</g>
	</g>
	<g>
		<g>
			<path class="st4" d="M349.1,412.3c-5.6,0-10.1-4.5-10.1-10.1s4.5-10.1,10.1-10.1c5.6,0,10.1,4.5,10.1,10.1
				S354.7,412.3,349.1,412.3z M349.1,396.9c-2.9,0-5.2,2.4-5.2,5.2s2.4,5.2,5.2,5.2s5.2-2.4,5.2-5.2S352,396.9,349.1,396.9z"/>
		</g>
		<g>
			<g>
				<g>
					<g>
						<path class="st4" d="M375.9,393.2c-5.6,0-10.1-4.5-10.1-10.1c0-5.6,4.5-10.1,10.1-10.1c5.6,0,10.1,4.5,10.1,10.1
							C386,388.7,381.5,393.2,375.9,393.2z M375.9,377.9c-2.9,0-5.2,2.4-5.2,5.2c0,2.9,2.4,5.2,5.2,5.2c2.9,0,5.2-2.4,5.2-5.2
							C381.2,380.2,378.8,377.9,375.9,377.9z"/>
					</g>
					<g>
						<path class="st4" d="M317.2,301.9c-5.6,0-10.1-4.5-10.1-10.1c0-5.6,4.5-10.1,10.1-10.1c5.6,0,10.1,4.5,10.1,10.1
							C327.3,297.3,322.7,301.9,317.2,301.9z M317.2,286.5c-2.9,0-5.2,2.4-5.2,5.2c0,2.9,2.4,5.2,5.2,5.2c2.9,0,5.2-2.4,5.2-5.2
							C322.4,288.9,320.1,286.5,317.2,286.5z"/>
					</g>
					<g>
						<path class="st4" d="M367.6,385.3h-50.4c-1.3,0-2.4-1.1-2.4-2.4v-83.5c0-1.3,1.1-2.4,2.4-2.4c1.3,0,2.4,1.1,2.4,2.4v81.1h48
							c1.3,0,2.4,1.1,2.4,2.4S369,385.3,367.6,385.3z"/>
					</g>
				</g>
				<g>
					<g>
						<path class="st4" d="M375.9,431.3c-5.6,0-10.1-4.5-10.1-10.1s4.5-10.1,10.1-10.1c5.6,0,10.1,4.5,10.1,10.1
							S381.5,431.3,375.9,431.3z M375.9,415.9c-2.9,0-5.2,2.4-5.2,5.2s2.4,5.2,5.2,5.2c2.9,0,5.2-2.4,5.2-5.2
							S378.8,415.9,375.9,415.9z"/>
					</g>
					<g>
						<path class="st4" d="M317.2,522.6c-5.6,0-10.1-4.5-10.1-10.1s4.5-10.1,10.1-10.1c5.6,0,10.1,4.5,10.1,10.1
							S322.7,522.6,317.2,522.6z M317.2,507.3c-2.9,0-5.2,2.4-5.2,5.2s2.4,5.2,5.2,5.2c2.9,0,5.2-2.4,5.2-5.2
							S320.1,507.3,317.2,507.3z"/>
					</g>
					<g>
						<path class="st4" d="M317.2,507.4c-1.3,0-2.4-1.1-2.4-2.4v-83.5c0-1.3,1.1-2.4,2.4-2.4h50.4c1.3,0,2.4,1.1,2.4,2.4
							s-1.1,2.4-2.4,2.4h-48v81.1C319.6,506.3,318.5,507.4,317.2,507.4z"/>
					</g>
				</g>
			</g>
			<g>
				<g>
					<path class="st4" d="M341.3,404.4h-32.8c-1.3,0-2.4-1.1-2.4-2.4s1.1-2.4,2.4-2.4h32.8c1.3,0,2.4,1.1,2.4,2.4
						S342.7,404.4,341.3,404.4z"/>
				</g>
				<g>
					<path class="st4" d="M307.5,467.2c-1.3,0-2.4-1.1-2.4-2.4V338.9c0-1.3,1.1-2.4,2.4-2.4s2.4,1.1,2.4,2.4v125.8
						C309.9,466.1,308.8,467.2,307.5,467.2z"/>
				</g>
			</g>
		</g>
	</g>
	<g>
		<g>
			<path class="st3" d="M503.2,454.6L503.2,454.6L503.2,454.6z"/>
		</g>
	</g>
	<g>
		<path class="st3" d="M283.5,591.5H88.6c-1.3,0-2.4-1.1-2.4-2.4V224c2.1-2.4,4.9-1,4.9,1.2v361.5h190v-20.9c0-1.3,0.9-2.4,2.2-2.6
			c1.5-0.1,2.7,1,2.7,2.4v23.5C285.9,590.4,284.8,591.5,283.5,591.5z"/>
	</g>
	<g>
		<path class="st3" d="M511.4,419.4c-1.3,0-2.4-1.1-2.4-2.4V228.6H285.6v22.7c0,1.3-1.1,2.4-2.4,2.4s-2.4-1.1-2.4-2.4v-25.1
			c0-1.3,1.1-2.4,2.4-2.4h228.3c1.3,0,2.4,1.1,2.4,2.4v190.7C513.9,418.3,512.8,419.4,511.4,419.4z"/>
	</g>
	<g>
		
			<ellipse transform="matrix(0.9598 -0.2808 0.2808 0.9598 -58.9296 33.8234)" class="st1" cx="88.6" cy="222.6" rx="7.7" ry="7.7"/>
	</g>
	<g>
		<path class="st3" d="M88.6,232.7c-5.6,0-10.1-4.5-10.1-10.1s4.5-10.1,10.1-10.1c5.6,0,10.1,4.5,10.1,10.1S94.2,232.7,88.6,232.7z
			 M88.6,217.3c-2.9,0-5.2,2.4-5.2,5.2c0,2.9,2.4,5.2,5.2,5.2c2.9,0,5.2-2.4,5.2-5.2C93.8,219.7,91.5,217.3,88.6,217.3z"/>
	</g>
	<g>
		<g>
			
				<ellipse transform="matrix(0.9598 -0.2808 0.2808 0.9598 -96.9863 160.3993)" class="st1" cx="511.3" cy="418.7" rx="7.7" ry="7.7"/>
		</g>
		<g>
			<path class="st3" d="M511.3,428.8c-5.6,0-10.1-4.5-10.1-10.1c0-5.6,4.5-10.1,10.1-10.1c5.6,0,10.1,4.5,10.1,10.1
				C521.4,424.3,516.9,428.8,511.3,428.8z M511.3,413.5c-2.9,0-5.2,2.4-5.2,5.2c0,2.9,2.4,5.2,5.2,5.2c2.9,0,5.2-2.4,5.2-5.2
				C516.6,415.8,514.2,413.5,511.3,413.5z"/>
		</g>
	</g>
</g>
<g id="computer">
	<g>
		<g class="st5">
			<defs>
				<filter id="Adobe_OpacityMaskFilter" filterUnits="userSpaceOnUse" x="361.4" y="190.3" width="104.8" height="9.3">
					<feFlood  style="flood-color:white;flood-opacity:1" result="back"/>
					<feBlend  in="SourceGraphic" in2="back" mode="normal"/>
				</filter>
			</defs>
			<mask maskUnits="userSpaceOnUse" x="361.4" y="190.3" width="104.8" height="9.3" id="SVGID_1_">
				<g class="st6">
					
						<image style="overflow:visible;" width="455" height="57" xlink:href="A9A96245C45AE68F.html"  transform="matrix(0.24 0 0 0.24 359.1955 188.14)">
					</image>
				</g>
			</mask>
			<g class="st7">
				<ellipse class="st8" cx="413.8" cy="194.9" rx="52.4" ry="4.7"/>
			</g>
		</g>
		<g>
			<path class="st9" d="M377.6,45.9l64,0c2.1,0,3.8,1.7,3.8,3.8v131.1c0,2.1-1.7,3.8-3.8,3.8l-64,0c-2.1,0-3.8-1.7-3.8-3.8V49.6
				C373.8,47.5,375.5,45.9,377.6,45.9z"/>
			<path class="st10" d="M451,49.6v131.1c0,2.1-1.7,3.8-3.8,3.8l-65.2,0c-1.3,0-2.5-0.7-3.2-1.8c-0.3-0.5-0.6-1.2-0.6-1.9
				c0-0.1,0-0.1,0-0.1V49.6c0-2.1,1.7-3.8,3.8-3.8l65.2,0C449.3,45.9,451,47.5,451,49.6z"/>
			<path class="st11" d="M447.2,48.1l-65.2,0c-1,0-1.8,0.8-1.8,1.8v129.5c0,1.6,1.3,2.9,2.9,2.9l63,0c1.6,0,2.9-1.3,2.9-2.9V49.9
				C449,48.9,448.2,48.1,447.2,48.1z"/>
			<line class="st12" x1="433.3" y1="52.6" x2="438.2" y2="52.6"/>
			<line class="st12" x1="383.9" y1="52.6" x2="385.9" y2="52.6"/>
			<polygon class="st13" points="441.7,54.4 446.6,54.4 446.6,51.1 			"/>
			<path class="st10" d="M412.3,49.6c0,1.3,1,2.3,2.3,2.3s2.3-1,2.3-2.3v-2.1h-4.7V49.6z"/>
			<g>
				<g>
					<g>
						<path class="st11" d="M375.1,100.1c-0.6,0-1.1-0.5-1.1-1.1V73.2c0-0.6,0.5-1.1,1.1-1.1h0.3c0.6,0,1.1,0.5,1.1,1.1V99
							c0,0.6-0.5,1.1-1.1,1.1H375.1z"/>
						<path class="st10" d="M375.4,71.8h-0.3c-0.7,0-1.4,0.6-1.4,1.4V99c0,0.7,0.6,1.4,1.4,1.4h0.3c0.7,0,1.4-0.6,1.4-1.4V73.2
							C376.8,72.4,376.2,71.8,375.4,71.8L375.4,71.8z"/>
					</g>
				</g>
				<path class="st10" d="M373.4,73.2V99c0,0.5,0.4,0.9,0.9,0.9h0.3c0.5,0,0.9-0.4,0.9-0.9V73.2c0-0.5-0.4-0.9-0.9-0.9h-0.3
					C373.7,72.3,373.4,72.7,373.4,73.2z"/>
				<g>
					<g>
						<path class="st11" d="M375.1,114c-0.6,0-1.1-0.5-1.1-1.1v-6.7c0-0.6,0.5-1.1,1.1-1.1h0.3c0.6,0,1.1,0.5,1.1,1.1v6.7
							c0,0.6-0.5,1.1-1.1,1.1H375.1z"/>
						<path class="st10" d="M375.4,104.8h-0.3c-0.7,0-1.4,0.6-1.4,1.4v6.7c0,0.7,0.6,1.4,1.4,1.4h0.3c0.7,0,1.4-0.6,1.4-1.4v-6.7
							C376.8,105.5,376.2,104.8,375.4,104.8L375.4,104.8z"/>
					</g>
				</g>
				<path class="st10" d="M373.4,106.2v6.7c0,0.5,0.4,0.9,0.9,0.9h0.3c0.5,0,0.9-0.4,0.9-0.9v-6.7c0-0.5-0.4-0.9-0.9-0.9h-0.3
					C373.7,105.3,373.4,105.7,373.4,106.2z"/>
			</g>
		</g>
		<g>
			<rect x="385.3" y="63.3" class="st4" width="58.6" height="68.4"/>
			<g>
				<path class="st1" d="M398.1,71.8c0.3,0,0.5,0.1,0.6,0.4l1.5,4.9l1.1,4.2h0.1l1.1-4.2l1.4-4.9c0.1-0.3,0.3-0.4,0.6-0.4h1.2
					c0.4,0,0.6,0.4,0.5,0.8l-3.8,11.9v7.4c0,0.4-0.2,0.6-0.6,0.6h-1.2c-0.4,0-0.6-0.2-0.6-0.6v-7.4l-3.8-11.9
					c-0.1-0.4,0.1-0.8,0.5-0.8H398.1z"/>
				<path class="st1" d="M413.8,79.9v9.4c0,2.2-0.8,3.4-3.6,3.4s-3.6-1.2-3.6-3.4v-9.4c0-2.2,0.8-3.4,3.6-3.4S413.8,77.7,413.8,79.9
					z M408.8,79.9v9.3c0,1.2,0.4,1.6,1.4,1.6c1,0,1.4-0.4,1.4-1.6v-9.3c0-1.2-0.4-1.6-1.4-1.6C409.2,78.3,408.8,78.7,408.8,79.9z"/>
				<path class="st1" d="M416,77.2c0-0.4,0.2-0.6,0.6-0.6h0.9c0.4,0,0.6,0.2,0.6,0.6v11.9c0,1.2,0.3,1.6,1.3,1.6
					c1,0,1.5-0.5,1.5-1.7V77.2c0-0.4,0.2-0.6,0.6-0.6h1c0.4,0,0.6,0.2,0.6,0.6v14.7c0,0.4-0.2,0.6-0.6,0.6h-1
					c-0.4,0-0.6-0.2-0.6-0.6v-0.4c-0.7,0.7-1.7,1.1-2.6,1.1c-1.3,0-2.3-0.8-2.3-2.6V77.2z"/>
				<path class="st1" d="M432.7,83.2c0,0.4-0.2,0.6-0.6,0.6h-1c-0.4,0-0.6-0.2-0.6-0.6V80c0-1.2-0.3-1.6-1.3-1.6
					c-1,0-1.5,0.5-1.5,1.7v11.9c0,0.4-0.2,0.6-0.6,0.6h-0.9c-0.4,0-0.6-0.2-0.6-0.6V77.2c0-0.4,0.2-0.6,0.6-0.6h0.9
					c0.4,0,0.6,0.2,0.6,0.6v0.4c0.7-0.7,1.7-1.1,2.6-1.1c1.3,0,2.3,0.8,2.3,2.6V83.2z"/>
				<path class="st1" d="M412.5,120.6l-0.6-3.9h-4l-0.6,3.9c-0.1,0.4-0.3,0.6-0.6,0.6h-1.2c-0.4,0-0.6-0.3-0.5-0.7l3-19.4
					c0.1-0.4,0.3-0.6,0.7-0.6h2.6c0.4,0,0.6,0.2,0.7,0.6l3,19.4c0.1,0.4-0.1,0.7-0.5,0.7h-1.2C412.8,121.2,412.5,121,412.5,120.6z
					 M408.2,114.7h3.4l-1-6.7l-0.7-5.6h-0.1l-0.7,5.6L408.2,114.7z"/>
				<path class="st1" d="M423.5,120.6c0,0.4-0.2,0.6-0.6,0.6h-1c-0.4,0-0.6-0.2-0.6-0.6v-0.4c-0.7,0.7-1.7,1.1-2.6,1.1
					c-1.3,0-2.3-0.8-2.3-2.6v-10.9c0-1.8,1.1-2.6,2.3-2.6c0.9,0,1.9,0.4,2.6,1.1v-7.4c0-0.4,0.2-0.6,0.6-0.6h1
					c0.4,0,0.6,0.2,0.6,0.6V120.6z M418.5,117.8c0,1.2,0.3,1.6,1.3,1.6c1,0,1.5-0.5,1.5-1.7v-9c0-1.2-0.5-1.7-1.5-1.7
					c-0.9,0-1.3,0.4-1.3,1.6V117.8z"/>
			</g>
			<line class="st14" x1="388.1" y1="140.7" x2="441.2" y2="140.7"/>
			<line class="st15" x1="388.1" y1="149.6" x2="433.1" y2="149.6"/>
		</g>
	</g>
	<g>
		<g>
			<path class="st10" d="M280.4,188V34.1c0-5.6-4.6-10.3-10.3-10.3H42.7c-5.6,0-10.3,4.6-10.3,10.3V188H280.4z"/>
			<rect x="44.2" y="34.2" class="st16" width="224.5" height="143.3"/>
			<g>
				<rect x="4.3" y="188" class="st17" width="304.3" height="7.4"/>
				<path class="st18" d="M156.5,195.4H4.3v0c2.4,3.4,10.9,3.4,13.9,3.4h138.2h138.2c3,0,11.5,0,13.9-3.4v0H156.5z"/>
				<path class="st19" d="M133.7,188c0,2.4,2,4.4,4.5,4.4h36.7c2.4,0,4.4-2,4.5-4.4H133.7z"/>
			</g>
			<path class="st20" d="M158.3,29c0,1-0.8,1.8-1.8,1.8c-1,0-1.8-0.8-1.8-1.8c0-1,0.8-1.8,1.8-1.8C157.5,27.2,158.3,28,158.3,29z"/>
		</g>
		<g>
			<path class="st21" d="M254.7,167.5H58.2V12.9c0-5.6,4.6-10.2,10.2-10.2h176c5.6,0,10.2,4.6,10.2,10.2V167.5z"/>
		</g>
		<g>
			<rect x="61.1" y="17.6" class="st11" width="190.8" height="147"/>
		</g>
		<path class="st10" d="M254.7,14.8V7.7c0-2.8-2.2-5-5-5H63.3c-2.8,0-5,2.2-5,5v7.1H254.7z"/>
		<g>
			<g>
				<path class="st22" d="M68.2,9c0,1.7-1.3,3-3,3c-1.7,0-3-1.3-3-3c0-1.7,1.3-3,3-3C66.9,5.9,68.2,7.3,68.2,9z"/>
			</g>
			<g>
				<path class="st23" d="M77.1,9c0,1.7-1.3,3-3,3c-1.7,0-3-1.3-3-3s1.3-3,3-3C75.8,6,77.1,7.3,77.1,9z"/>
			</g>
			<g>
				<path class="st24" d="M86.2,8.9c0,1.7-1.3,3-3,3c-1.7,0-3-1.3-3-3c0-1.7,1.3-3,3-3C84.8,5.9,86.2,7.3,86.2,8.9z"/>
			</g>
		</g>
		<rect x="188.1" y="29.7" class="st4" width="50.4" height="123.4"/>
		<rect x="74.1" y="29.7" class="st10" width="95.5" height="60.5"/>
		<g>
			<path class="st1" d="M196.9,65.7c0.3,0,0.5,0.1,0.6,0.4l1.4,4.8l1,4.2h0.1l1-4.2l1.4-4.8c0.1-0.3,0.3-0.4,0.6-0.4h1.2
				c0.4,0,0.6,0.4,0.5,0.8l-3.7,11.7v7.3c0,0.4-0.2,0.6-0.6,0.6h-1.2c-0.4,0-0.6-0.2-0.6-0.6v-7.3l-3.7-11.7
				c-0.1-0.4,0.1-0.8,0.5-0.8H196.9z"/>
			<path class="st1" d="M212.3,73.6v9.2c0,2.2-0.8,3.3-3.5,3.3s-3.5-1.2-3.5-3.3v-9.2c0-2.2,0.8-3.3,3.5-3.3S212.3,71.4,212.3,73.6z
				 M207.5,73.6v9.2c0,1.2,0.4,1.6,1.4,1.6c1,0,1.4-0.4,1.4-1.6v-9.2c0-1.2-0.4-1.6-1.4-1.6C207.9,72.1,207.5,72.4,207.5,73.6z"/>
			<path class="st1" d="M214.6,71c0-0.4,0.2-0.6,0.6-0.6h0.9c0.4,0,0.6,0.2,0.6,0.6v11.7c0,1.2,0.3,1.6,1.2,1.6c1,0,1.5-0.5,1.5-1.7
				V71c0-0.4,0.2-0.6,0.6-0.6h1c0.4,0,0.6,0.2,0.6,0.6v14.5c0,0.4-0.2,0.6-0.6,0.6h-1c-0.4,0-0.6-0.2-0.6-0.6v-0.4
				c-0.7,0.7-1.7,1.1-2.6,1.1c-1.2,0-2.3-0.8-2.3-2.6V71z"/>
			<path class="st1" d="M230.9,76.9c0,0.4-0.2,0.6-0.6,0.6h-1c-0.4,0-0.6-0.2-0.6-0.6v-3.2c0-1.2-0.3-1.6-1.3-1.6
				c-1,0-1.5,0.5-1.5,1.7v11.6c0,0.4-0.2,0.6-0.6,0.6h-0.9c-0.4,0-0.6-0.2-0.6-0.6V71c0-0.4,0.2-0.6,0.6-0.6h0.9
				c0.4,0,0.6,0.2,0.6,0.6v0.4c0.7-0.7,1.7-1.1,2.6-1.1c1.2,0,2.3,0.8,2.3,2.6V76.9z"/>
			<path class="st1" d="M211.1,113.6l-0.6-3.9h-3.9l-0.6,3.9c-0.1,0.4-0.3,0.6-0.6,0.6h-1.2c-0.4,0-0.6-0.3-0.5-0.7l2.9-19
				c0.1-0.4,0.3-0.6,0.7-0.6h2.5c0.4,0,0.6,0.2,0.6,0.6l2.9,19c0.1,0.4-0.1,0.7-0.5,0.7h-1.2C211.4,114.2,211.1,114,211.1,113.6z
				 M206.8,107.8h3.4l-1-6.6l-0.6-5.5h-0.1l-0.6,5.5L206.8,107.8z"/>
			<path class="st1" d="M221.9,113.6c0,0.4-0.2,0.6-0.6,0.6h-1c-0.4,0-0.6-0.2-0.6-0.6v-0.4c-0.7,0.7-1.7,1.1-2.6,1.1
				c-1.2,0-2.3-0.8-2.3-2.6V101c0-1.8,1.1-2.6,2.3-2.6c0.9,0,1.9,0.4,2.6,1.1v-7.2c0-0.4,0.2-0.6,0.6-0.6h1c0.4,0,0.6,0.2,0.6,0.6
				V113.6z M217,110.9c0,1.2,0.3,1.6,1.2,1.6c1,0,1.5-0.5,1.5-1.7v-8.8c0-1.2-0.5-1.7-1.5-1.7c-0.9,0-1.2,0.4-1.2,1.6V110.9z"/>
		</g>
		<line class="st25" x1="75.7" y1="101.6" x2="166.6" y2="101.6"/>
		<line class="st26" x1="75.7" y1="114.3" x2="158.1" y2="114.3"/>
		<rect x="182.2" y="23.5" class="st27" width="62.6" height="136.1"/>
	</g>
	<g>
		<g>
			<g>
				<g>
					<polygon class="st28" points="275,149.7 285.6,143.7 286.3,143.4 287.1,143.2 287.9,143.1 288.8,143 289.6,143 290.5,143.1 
						291.4,143.2 292.4,143.3 293.3,143.6 294.3,143.9 295.3,144.3 296.3,144.7 297.3,145.2 298.3,145.8 299.4,146.4 300.4,147.1 
						301.4,147.8 302.4,148.6 303.4,149.4 304.3,150.2 305.2,151.2 306.2,152.1 307.1,153.1 307.9,154.1 308.8,155.1 309.6,156.2 
						310.4,157.3 311.1,158.4 311.9,159.6 312.6,160.8 313.2,161.9 313.8,163.2 314.4,164.4 315,165.6 315.5,166.8 316,168.1 
						316.5,169.4 316.9,170.6 317.2,171.9 317.5,173.1 317.8,174.4 318,175.6 318.2,176.9 318.3,178.1 318.4,179.4 318.4,180.6 
						318.4,181.7 318.3,182.9 318.2,184 318,185 317.8,186 317.5,186.9 317.2,187.8 316.9,188.7 316.5,189.5 316,190.2 315.5,190.9 
						315,191.6 314.4,192.1 313.8,192.7 303.3,198.7 303.9,198.2 304.5,197.6 305,197 305.5,196.3 305.9,195.5 306.3,194.8 
						306.7,193.9 307,193 307.3,192.1 307.5,191.1 307.7,190 307.8,188.9 307.9,187.8 307.9,186.6 307.9,185.4 307.8,184.2 
						307.7,183 307.5,181.7 307.3,180.5 307,179.2 306.7,177.9 306.3,176.7 305.9,175.4 305.5,174.2 305,172.9 304.5,171.7 
						303.9,170.4 303.3,169.2 302.7,168 302,166.8 301.3,165.7 300.6,164.5 299.8,163.4 299.1,162.3 298.2,161.2 297.4,160.2 
						296.5,159.1 295.6,158.2 294.7,157.2 293.8,156.3 292.8,155.5 291.9,154.6 290.9,153.9 289.9,153.1 288.9,152.5 287.8,151.8 
						286.8,151.3 285.8,150.8 284.8,150.3 283.8,150 282.8,149.7 281.9,149.4 280.9,149.2 280,149.1 279.1,149.1 278.2,149.1 
						277.4,149.2 276.6,149.3 275.8,149.5 					"/>
					<path class="st29" d="M287.8,198.2c-11.1-6.4-20.1-22-20.1-34.8c0-12.8,9-18,20.1-11.6c11.1,6.4,20.1,22,20.1,34.8
						C307.9,199.5,298.9,204.6,287.8,198.2z"/>
				</g>
				<g>
					<polygon class="st30" points="346.8,105.8 358.1,99.3 358.9,99 359.8,98.8 360.7,98.6 361.6,98.6 362.5,98.5 363.5,98.6 
						364.5,98.7 365.5,98.9 366.5,99.2 367.5,99.5 368.6,99.9 369.7,100.3 370.8,100.9 371.9,101.5 373,102.2 374.1,102.9 
						375.2,103.7 376.3,104.5 377.3,105.4 378.3,106.3 379.3,107.3 380.3,108.3 381.3,109.4 382.2,110.5 383.1,111.6 384,112.7 
						384.8,113.9 385.7,115.1 386.5,116.4 387.2,117.7 387.9,118.9 388.6,120.2 389.2,121.5 389.8,122.9 390.4,124.2 390.9,125.6 
						391.4,126.9 391.8,128.3 392.2,129.6 392.6,131 392.9,132.3 393.1,133.7 393.3,135 393.4,136.4 393.5,137.7 393.5,139 
						393.5,140.3 393.4,141.5 393.3,142.7 393.1,143.8 392.9,144.8 392.6,145.9 392.2,146.8 391.8,147.7 391.4,148.6 390.9,149.4 
						390.4,150.1 389.8,150.8 389.2,151.5 388.6,152 377.3,158.6 377.9,158 378.5,157.4 379.1,156.7 379.6,155.9 380.1,155.1 
						380.5,154.3 380.9,153.4 381.2,152.4 381.5,151.4 381.8,150.3 382,149.2 382.1,148 382.2,146.8 382.2,145.5 382.2,144.2 
						382.1,142.9 382,141.6 381.8,140.2 381.5,138.9 381.2,137.5 380.9,136.2 380.5,134.8 380.1,133.5 379.6,132.1 379.1,130.8 
						378.5,129.4 377.9,128.1 377.3,126.8 376.6,125.5 375.9,124.2 375.1,122.9 374.3,121.7 373.5,120.5 372.7,119.3 371.8,118.1 
						370.9,117 370,115.9 369,114.9 368,113.8 367,112.9 366,111.9 364.9,111.1 363.9,110.2 362.8,109.4 361.7,108.7 360.6,108 
						359.5,107.4 358.4,106.9 357.3,106.4 356.2,106 355.2,105.7 354.1,105.4 353.1,105.3 352.1,105.1 351.2,105.1 350.3,105.1 
						349.3,105.2 348.5,105.3 347.6,105.5 					"/>
					<path class="st31" d="M360.6,158c-12-6.9-21.6-23.7-21.6-37.5c0-13.8,9.7-19.4,21.6-12.5c12,6.9,21.7,23.7,21.7,37.5
						C382.2,159.3,372.5,164.9,360.6,158z"/>
				</g>
				<polygon class="st30" points="269.1,150.7 280.4,144.1 281.2,143.9 282.1,143.6 283,143.5 283.9,143.4 284.8,143.4 285.8,143.5 
					286.7,143.6 287.7,143.8 288.8,144 289.8,144.4 290.9,144.7 292,145.2 293.1,145.8 294.2,146.4 295.3,147 296.4,147.8 
					297.5,148.6 298.5,149.4 299.6,150.3 300.6,151.2 301.6,152.2 302.6,153.2 303.6,154.2 304.5,155.3 305.4,156.5 306.3,157.6 
					307.1,158.8 307.9,160 308.7,161.3 309.5,162.5 310.2,163.8 310.9,165.1 311.5,166.4 312.1,167.7 312.7,169.1 313.2,170.4 
					313.7,171.8 314.1,173.1 314.5,174.5 314.9,175.9 315.1,177.2 315.4,178.6 315.6,179.9 315.7,181.2 315.8,182.6 315.8,183.9 
					315.8,185.1 315.7,186.4 315.6,187.5 315.4,188.6 315.1,189.7 314.9,190.7 314.5,191.7 314.1,192.6 313.7,193.5 313.2,194.3 
					312.7,195 312.1,195.7 311.5,196.3 310.9,196.9 299.6,203.4 300.2,202.9 300.8,202.2 301.4,201.6 301.9,200.8 302.4,200 
					302.8,199.1 303.2,198.2 303.5,197.3 303.8,196.3 304.1,195.2 304.3,194.1 304.4,192.9 304.5,191.7 304.5,190.4 304.5,189.1 
					304.4,187.8 304.3,186.5 304.1,185.1 303.8,183.8 303.5,182.4 303.2,181 302.8,179.7 302.4,178.3 301.9,177 301.4,175.6 
					300.8,174.3 300.2,173 299.6,171.6 298.9,170.3 298.2,169.1 297.4,167.8 296.6,166.6 295.8,165.3 295,164.2 294.1,163 
					293.2,161.9 292.2,160.8 291.3,159.7 290.3,158.7 289.3,157.7 288.3,156.8 287.2,155.9 286.1,155.1 285.1,154.3 284,153.6 
					282.8,152.9 281.7,152.3 280.6,151.8 279.6,151.3 278.5,150.9 277.4,150.6 276.4,150.3 275.4,150.1 274.4,150 273.5,150 
					272.5,150 271.6,150 270.7,150.2 269.9,150.4 				"/>
				<path class="st31" d="M282.8,202.9c-12-6.9-21.6-23.7-21.6-37.5c0-13.8,9.7-19.4,21.6-12.5c12,6.9,21.7,23.7,21.7,37.5
					C304.5,204.2,294.8,209.8,282.8,202.9z"/>
				<path class="st32" d="M351.7,81.5l-0.5-1.6l-0.5-1.5l-0.6-1.4l-0.7-1.3l-0.7-1.2l-0.8-1.2l-0.9-1.1l-0.3-0.3l0,0
					c8,1.8,13.5,9,14.3,20.3c0.1,1,0.1,10.5,0.1,11.6c0,1.5-0.1,2.8-0.2,4.4l0,0l0,0.1l-0.4-0.2c-3-1.7-5.9-2.7-8.5-2.9l0,0
					C353.3,99.7,352.9,87.1,351.7,81.5z"/>
				<path class="st32" d="M319.2,62.2l2.1-1.2l2.1-1l2.1-0.9l2-0.8l2-0.6l2-0.5l1.9-0.4l1.9-0.2l1.8-0.1l1.8,0l1.7,0.1l1.7,0.3
					l1.6,0.4l1.6,0.5l1.5,0.6l1.4,0.8l8.4,4.9l-1.4-0.8l-1.5-0.6l-1.6-0.5l-1.6-0.4l-1.7-0.3l-1.7-0.1l-1.8,0l-1.8,0.1l-1.9,0.2
					l-1.9,0.4l-2,0.5l-2,0.6l-2,0.8l-2.1,0.9l-2.1,1l-2.1,1.2l-2.1,1.3l-2.1,1.4l-2.1,1.5l-2,1.6l-2,1.7l-2,1.8l-1.9,1.9l-1.9,1.9
					l-1.8,2l-1.8,2.1l-1.7,2.2l-1.7,2.2l-1.6,2.3l-1.6,2.3l-1.5,2.4l-1.4,2.4l-1.4,2.5l-1.3,2.5l-1.2,2.5l-1.2,2.5l-1.1,2.6l-1,2.6
					l-0.9,2.6l-0.8,2.6l-0.7,2.6l-0.7,2.6l-0.6,2.6l-0.5,2.6l-0.4,2.6l-0.3,2.5l-0.2,10.9l-0.1,2.5l0,0.6l0,0.6l0,0.6l0,0.6l0,0.6
					l0,0.6c-3-1.7-5.8-2.7-8.4-2.9l0-2.6l0-0.6l0-0.6l0-0.6l0-0.6l0-0.6l0.1-10.8l0.2-2.5l0.3-2.5l0.4-2.6l0.5-2.6l0.6-2.6l0.7-2.6
					l0.7-2.6l0.8-2.6l0.9-2.6l1-2.6l1.1-2.6l1.2-2.5l1.2-2.5l1.3-2.5l1.4-2.4l1.4-2.4l1.5-2.4l1.6-2.3l1.6-2.3l1.7-2.2l1.7-2.2
					l1.8-2.1l1.8-2l1.9-1.9l1.9-1.9l2-1.8l2-1.7l2-1.6l2.1-1.5l2.1-1.4L319.2,62.2z"/>
				<polygon class="st33" points="345.3,110 347.7,108.6 348.5,108.3 349.2,108.1 350,108 350.8,107.9 351.7,107.9 352.6,108 
					353.4,108.1 354.4,108.3 355.3,108.5 356.2,108.8 357.2,109.1 358.2,109.6 359.2,110 360.2,110.6 361.2,111.2 362.2,111.9 
					363.2,112.6 364.1,113.3 365.1,114.1 366,115 366.9,115.9 367.8,116.8 368.7,117.7 369.5,118.7 370.4,119.8 371.2,120.8 
					371.9,121.9 372.7,123 373.4,124.1 374.1,125.2 374.7,126.4 375.3,127.6 375.9,128.8 376.5,130 377,131.2 377.4,132.4 
					377.9,133.6 378.3,134.9 378.6,136.1 378.9,137.3 379.2,138.6 379.4,139.8 379.6,141 379.7,142.2 379.8,143.4 379.8,144.6 
					379.8,145.7 379.7,146.8 379.6,147.9 379.4,148.9 379.2,149.9 378.9,150.8 378.6,151.7 378.3,152.5 377.9,153.3 377.4,154 
					377,154.7 376.5,155.3 375.9,155.9 375.3,156.4 372.9,157.8 373.5,157.3 374,156.7 374.5,156.1 375,155.4 375.4,154.7 
					375.8,153.9 376.2,153.1 376.5,152.2 376.7,151.3 377,150.3 377.1,149.3 377.3,148.2 377.3,147.1 377.4,146 377.3,144.8 
					377.3,143.6 377.1,142.4 377,141.2 376.7,140 376.5,138.7 376.2,137.5 375.8,136.3 375.4,135 375,133.8 374.5,132.6 374,131.4 
					373.5,130.2 372.9,129 372.3,127.8 371.6,126.7 370.9,125.5 370.2,124.4 369.5,123.3 368.7,122.2 367.9,121.2 367.1,120.1 
					366.2,119.2 365.4,118.2 364.5,117.3 363.6,116.4 362.6,115.6 361.7,114.8 360.7,114 359.8,113.3 358.8,112.6 357.7,112 
					356.7,111.5 355.7,111 354.8,110.5 353.8,110.2 352.8,109.9 351.9,109.7 351,109.5 350.1,109.4 349.2,109.3 348.4,109.3 
					347.6,109.4 346.8,109.5 346,109.7 				"/>
				<path class="st32" d="M357.7,157.3c-10.8-6.3-19.6-21.5-19.6-34c0-12.5,8.8-17.6,19.6-11.3c10.8,6.3,19.6,21.5,19.6,34
					C377.4,158.5,368.6,163.6,357.7,157.3z"/>
				<path class="st33" d="M357.7,151.4c-8-4.6-14.5-15.8-14.5-25.1c0-9.2,6.5-13,14.5-8.4c8,4.6,14.5,15.8,14.5,25.1
					C372.2,152.2,365.7,156,357.7,151.4z"/>
				<polygon class="st32" points="346.4,117.8 346.6,117.6 345.9,118.5 345.3,119.6 344.8,120.8 344.5,122.2 344.3,123.7 
					344.2,125.4 344.2,126.3 344.3,127.2 344.4,128.1 344.5,128.9 344.6,129.8 344.8,130.8 345.1,131.7 345.3,132.6 345.6,133.5 
					345.9,134.4 346.3,135.3 346.7,136.2 347.1,137.1 347.5,137.9 347.9,138.8 348.4,139.7 348.9,140.5 349.4,141.3 350,142.1 
					350.6,142.9 351.1,143.7 351.8,144.5 352.4,145.2 353,145.9 353.7,146.6 354.3,147.2 355,147.8 355.7,148.4 356.4,149 
					357.2,149.5 357.9,150 358.6,150.5 360.1,151.2 361.6,151.8 363,152.2 364.3,152.4 365.5,152.4 366.7,152.3 367.9,152 
					368.9,151.5 369.8,150.8 369.9,150.8 369.7,150.9 368.9,151.7 368,152.4 366.9,152.9 365.8,153.2 364.6,153.3 363.4,153.3 
					362,153.1 360.7,152.7 359.2,152.1 357.7,151.4 357,150.9 356.3,150.4 355.5,149.9 354.8,149.3 354.1,148.8 353.4,148.1 
					352.8,147.5 352.1,146.8 351.5,146.1 350.9,145.4 350.2,144.6 349.7,143.8 349.1,143.1 348.5,142.2 348,141.4 347.5,140.6 
					347,139.7 346.6,138.8 346.2,138 345.8,137.1 345.4,136.2 345,135.3 344.7,134.4 344.4,133.5 344.2,132.6 343.9,131.7 
					343.7,130.8 343.6,129.8 343.5,129 343.4,128.1 343.3,127.2 343.3,126.3 343.4,124.6 343.6,123.1 343.9,121.7 344.4,120.5 
					345,119.4 345.8,118.4 				"/>
				<path class="st33" d="M327.6,67.1C350.4,53.9,369,64.6,369,91l0,10.1c0,1-0.1,1.7-0.1,2.7l-7.8,4.5c0.2-1.6,0.2-2.9,0.2-4.5
					c0-1.1,0-10.5-0.1-11.6c-1.5-19-15.9-26.3-33.5-16.1c-17.9,10.3-32.4,34.8-33.5,55.7c0,0.8-0.1,10-0.1,10.8
					c0,1.3,0.1,2.6,0.2,3.8l-0.6,0.4l-7.3,3.8c-0.1-1.2-0.1-2.3-0.1-3.6c0-1.3,0-11,0.1-12.3C288.1,109.2,305.9,79.6,327.6,67.1z"/>
				<polygon class="st33" points="271.1,159.9 272.1,159.3 272.7,159 273.2,158.8 273.8,158.6 274.4,158.5 275,158.4 275.6,158.3 
					276.3,158.3 277,158.3 277.7,158.4 278.4,158.6 279.1,158.7 279.8,159 280.6,159.2 281.3,159.6 282.1,159.9 282.9,160.4 
					283.6,160.8 284.4,161.4 285.2,161.9 285.9,162.5 286.7,163.1 287.4,163.8 288.1,164.4 288.8,165.1 289.4,165.9 290.1,166.7 
					290.7,167.4 291.3,168.2 291.9,169.1 292.5,169.9 293.1,170.8 293.6,171.7 294.1,172.6 294.6,173.5 295,174.4 295.4,175.3 
					295.8,176.3 296.2,177.2 296.5,178.2 296.8,179.1 297.1,180.1 297.3,181 297.5,182 297.7,182.9 297.8,183.9 297.9,184.8 
					298,185.7 298,186.6 298,187.5 297.9,188.4 297.8,189.2 297.7,190 297.5,190.7 297.3,191.4 297.1,192.1 296.8,192.7 
					296.5,193.3 296.2,193.9 295.8,194.4 295.4,194.9 295,195.4 294.6,195.8 294.1,196.1 293.6,196.4 292.5,197.1 293,196.7 
					293.5,196.4 293.9,196 294.4,195.5 294.7,195 295.1,194.5 295.4,194 295.7,193.4 296,192.7 296.3,192.1 296.5,191.3 
					296.6,190.6 296.8,189.8 296.9,189 296.9,188.1 296.9,187.2 296.9,186.3 296.9,185.4 296.8,184.5 296.6,183.5 296.5,182.6 
					296.3,181.6 296,180.7 295.7,179.7 295.4,178.8 295.1,177.8 294.7,176.9 294.4,176 293.9,175 293.5,174.1 293,173.2 
					292.5,172.3 292,171.4 291.4,170.6 290.9,169.7 290.3,168.9 289.6,168.1 289,167.3 288.4,166.5 287.7,165.8 287,165.1 
					286.3,164.4 285.6,163.7 284.8,163.1 284.1,162.5 283.3,162 282.6,161.5 281.8,161 281,160.6 280.2,160.2 279.5,159.9 
					278.7,159.6 278,159.4 277.3,159.2 276.6,159 275.9,159 275.2,158.9 274.6,158.9 273.9,159 273.3,159.1 272.7,159.2 
					272.1,159.4 271.6,159.7 				"/>
				<path class="st34" d="M281.8,196c-8.4-4.8-15.2-16.6-15.2-26.2c0-9.7,6.8-13.6,15.2-8.8c8.4,4.8,15.2,16.6,15.2,26.3
					C296.9,196.9,290.2,200.8,281.8,196z"/>
			</g>
		</g>
		<path class="st35" d="M348.1,132.6c-2.1,3.1-2.2,7.3,0,10.6c2.2,3.2,6,4.6,9.5,3.9"/>
		<path class="st36" d="M335.1,131c-3.7,6.8-3.5,15.3,1.1,22.1c4.6,6.7,12.4,9.9,19.9,9.1"/>
		<path class="st36" d="M322.2,180.1c4.5-6.2,5.5-14.7,1.7-22.1c-3.7-7.2-11-11.4-18.6-11.5"/>
	</g>
</g>
<g id="head">
	<g>
		<g>
			<defs>
				<circle id="SVGID_2_" cx="508.5" cy="533.1" r="88.7"/>
			</defs>
			<clipPath id="SVGID_3_">
				<use xlink:href="#SVGID_2_"  style="overflow:visible;"/>
			</clipPath>
			<g class="st37">
				<polygon id="XMLID_24_" class="st4" points="603.1,434.5 603.1,623.3 414.3,623.3 414.3,434.5 508.7,434.5 				"/>
				<g id="XMLID_1_">
					<g id="XMLID_15_">
						<g id="XMLID_17_">
							<g id="XMLID_20_">
								<path id="XMLID_23_" class="st38" d="M591.4,613.1v10.1H426v-10.1c0-0.4,0-0.9,0.1-1.3c0-0.2,0.1-0.4,0.1-0.6
									c1.9-12.6,18.1-17,18.1-17l10.2-2.9l27.5-7.8c5.9-1.3,9.2-3.9,10.9-7.2c0.5-0.9,0.8-1.8,1.1-2.8c1.1-4,0.3-8.4-0.6-11.6
									c0,0,0-0.1,0-0.1c-0.7-2.5-1.6-4.3-1.7-4.5c0,0,0,0,0,0h0l17,4.9l17-4.9h0c0,0-10.7,21.8,9.7,26.1l37.7,10.8
									c0,0,16.2,4.4,18.1,17c0,0.2,0.1,0.4,0.1,0.6C591.4,612.3,591.4,612.7,591.4,613.1z"/>
								<path id="XMLID_21_" class="st39" d="M545,512.8c-1.7-0.6-4.2-0.1-4.9,0.7l1.1-8.7c0.2-7.4-1.4-13.9-4.7-19.3
									c-2.7-4.3-6.4-7.9-11.2-10.7c-0.1,0-0.2-0.1-0.2-0.1c-2.1-1.2-4.3-2.1-6.5-2.8c0,0,0,0-0.1,0l-0.1,0c-1-0.3-1.8-0.8-2.7-0.9
									c-2.6-0.3-4.7-0.7-6.9-0.7c-2.1,0-4.2,0.1-6.9,0.7c-0.9,0.2-1.8,0.6-2.7,0.9c0,0,0,0-0.1,0c-2.3,0.7-4.5,1.7-6.6,2.9
									c-0.1,0-0.2,0.1-0.2,0.1c-4.8,2.8-8.6,6.4-11.2,10.7c-3.3,5.4-4.9,11.8-4.7,19.3l1.1,8.7c-0.7-0.8-3.2-1.3-4.9-0.7
									c-0.9,0.3-1.3,1.3-1.5,3.2c0,0.4,0.5,10.6,4.1,14.1c0.2,0.2,3,3.5,5,2.3c0.2,0.9,1.4,6.7,3.9,13c0.7,1.8,1.5,3.5,2.5,5.1
									c0.8,1.3,1.6,2.6,2.6,3.8c0.1,0.2,0.3,0.4,0.4,0.6c0.1,0.1,0.2,0.2,0.2,0.3c0.6,0.7,1.2,1.5,1.9,2.2c0,0,0,0,0,0h0
									c2.6,2.8,5.7,5.2,9.1,7c2.7,1.5,5.5,2.2,7.9,2.2h0c2.4,0,5.2-0.8,7.9-2.2c3.4-1.9,6.5-4.2,9.1-7h0c0.5-0.5,0.9-1,1.4-1.6
									l0,0c2.6-3.1,4.7-6.6,6.3-10.4c2.5-6.3,3.8-12.1,3.9-13c2,1.2,4.6-2.7,4.8-2.9c4-4.8,4.4-13.1,4.4-13.6
									C546.3,514.1,545.8,513,545,512.8z"/>
							</g>
							<path id="XMLID_19_" class="st40" d="M591.4,613.1v10.2H426v-10.2c0-0.4,0-0.9,0.1-1.3c0-0.2,0.1-0.4,0.1-0.6
								c2-12.5,18.1-16.9,18.1-16.9l10.2-2.9l27.5-7.9c4.2,6.7,7.9,12.4,11.1,17.2c10.1,15,15.6,21.4,15.6,21.4s12.9-20,26.7-38.6
								l37.7,10.8c0,0,16.2,4.4,18.1,16.9c0,0.2,0.1,0.4,0.1,0.6C591.4,612.3,591.4,612.7,591.4,613.1z"/>
							<path id="XMLID_18_" class="st41" d="M548.1,516.4c-1.7,27.4-21,39.3-21,39.3l0,0l6.3-13.2c2.2-4.6,3.6-9.4,4.4-14.4
								c4.3-29.5-4.7-26.2-4.7-26.2c-4.8,0-6.4-4.4-6.8-5.8c2.1,9.1-7.9,6.8-7.9,6.8c-3.7-0.4-5.1-3-5.6-5.2
								c-0.1,3.3-2.1,4.3-4.1,4.5c-2.1,0.2-4.2-0.4-4.2-0.4c-3.3-1.4-3.2-3.4-3.1-3.7l-0.3,1.2c-0.5,2-2.3,3.3-4.4,3.2
								c-3.8-0.3-4.1-1.9-3.9-2.9c-1.6,3.6-7.5,1.8-7.5,1.8c-7.3-1-6.2,16.6-6.2,16.6c-1,11.8,7.5,32.5,7.5,32.5
								c1,1.6,1.9,2.9,2.6,3.8c0.1,0.2,0.3,0.4,0.4,0.6c0.1,0.1,0.2,0.2,0.2,0.3c1.2,1.5,1.8,2.1,1.9,2.2c0,0,0,0,0,0c0,0,0,0,0,0
								c0.7,1.7,1.2,3.2,1.7,4.5c0,0,0,0.1,0,0.1c2.1,6.4,1.6,9.1,0.6,11.6c-0.3,0.9-0.7,1.8-1.1,2.8c-2.2,6.5-2.9,13.1-0.8,19.6
								c0.5,1.6,0.8,3.2,1,4.7c0.7,6.5-1.1,12.3-1.1,12.3c-9,17.9-34.3,5.4-34.3,5.4c21-1.4,0.3-16.2-1.6-21c-0.4-1.1-1.2-2.5-1.6-6
								v0c0-0.1,0-0.2,0-0.3c-2.3-18.9,30.8-31.5,30.8-31.5c-17.7-15.1-15.6-58.7-15-62.3c5.3-37,34.4-30.1,38.4-29
								c0.3,0.1,0.5,0.1,0.5,0.1C553.1,455.5,548.1,516.4,548.1,516.4z"/>
						</g>
						<path id="XMLID_16_" class="st42" d="M591.4,613.1v10.2h-82.7V468.3c0.3,0.1,0.5,0.1,0.5,0.1c43.9-12.9,38.9,48,38.9,48
							c-1.7,27.4-21,39.3-21,39.3c-0.4,0.5-0.9,1.1-1.4,1.6c0,0-10.7,21.8,9.7,26.1l37.7,10.8c0,0,16.2,4.4,18.1,17
							c0,0.2,0.1,0.4,0.1,0.6C591.4,612.3,591.4,612.7,591.4,613.1z"/>
					</g>
					<path id="XMLID_14_" class="st40" d="M483,557.4c0,0-2,1.3-0.7,3.4c0,0,6.5,2.9,11,1.3l-1-3C492.3,559.1,488.7,557.5,483,557.4
						z"/>
				</g>
			</g>
		</g>
		<circle class="st43" cx="508.5" cy="533.1" r="88.7"/>
	</g>
</g>
</svg>
