<?xml version="1.0" encoding="utf-8"?>
<!-- Generator: Adobe Illustrator 24.2.3, SVG Export Plug-In . SVG Version: 6.00 Build 0)  -->
<svg version="1.1" id="Orange_Outline" xmlns="http://www.w3.org/2000/svg" xmlns:xlink="http://www.w3.org/1999/xlink" x="0px"
	 y="0px" viewBox="0 0 278 278" style="enable-background:new 0 0 278 278;" xml:space="preserve">
<style type="text/css">
	.st0{fill:none;stroke:#F05325;stroke-width:5;stroke-miterlimit:10;}
	.st1{fill:#F05325;stroke:#F05325;stroke-width:2;stroke-miterlimit:10;}
	.st2{fill:#004D71;stroke:#F05325;stroke-width:2;stroke-miterlimit:10;}
</style>
<circle class="st0" cx="139" cy="138.5" r="135.3"/>
<g>
	<g>
		<path class="st1" d="M133,217.4c-0.8,0-1.4-0.6-1.4-1.4V61.2c0-0.8,0.6-1.4,1.4-1.4s1.4,0.6,1.4,1.4v154.7
			C134.4,216.7,133.8,217.4,133,217.4z"/>
	</g>
	<g>
		<path class="st1" d="M133.3,62.7c-0.8,0-1.4-0.6-1.4-1.4c0-7-5.7-12.8-12.8-12.8c-7,0-12.8,5.7-12.8,12.8c0,0.8-0.6,1.4-1.4,1.4
			s-1.4-0.6-1.4-1.4c0-8.6,7-15.7,15.7-15.7c8.6,0,15.7,7,15.7,15.7C134.7,62,134.1,62.7,133.3,62.7z"/>
	</g>
	<g>
		<path class="st1" d="M121.6,231.5c-7.2,0-13.1-7-13.1-15.7c0-0.8,0.6-1.4,1.4-1.4s1.4,0.6,1.4,1.4c0,7,4.6,12.8,10.2,12.8
			c5.6,0,10.2-5.7,10.2-12.8c0-0.8,0.6-1.4,1.4-1.4s1.4,0.6,1.4,1.4C134.7,224.5,128.9,231.5,121.6,231.5z"/>
	</g>
	<g>
		<path class="st1" d="M83.8,80.7c-0.6,0-1.2-0.4-1.4-1.1C80.7,73.1,83.2,66,88.7,62c3.6-2.6,7.9-3.6,12.2-2.9
			c4.3,0.7,8.1,3.1,10.7,6.6c0.5,0.6,0.3,1.5-0.3,2c-0.6,0.5-1.5,0.3-2-0.3c-2.1-2.9-5.2-4.9-8.8-5.5c-3.6-0.6-7.2,0.3-10.1,2.4
			c-4.5,3.3-6.6,9.1-5.2,14.5c0.2,0.8-0.3,1.6-1,1.8C84.1,80.7,84,80.7,83.8,80.7z"/>
	</g>
	<g>
		<path class="st1" d="M64,126.5c-0.2,0-0.4,0-0.6-0.1C52.1,121,48,106.3,54.1,93.5c2.9-6.2,7.8-11,13.7-13.5c6-2.6,12.3-2.6,17.7,0
			c2.8,1.3,5.2,3.2,7.1,5.7c0.5,0.6,0.4,1.5-0.2,2c-0.6,0.5-1.5,0.4-2-0.2c-1.7-2.1-3.7-3.7-6.1-4.9c-4.7-2.2-10.1-2.2-15.3,0
			c-5.3,2.3-9.6,6.6-12.3,12.1c-5.4,11.4-1.9,24.4,7.9,29.1c0.7,0.3,1,1.2,0.7,1.9C65,126.2,64.5,126.5,64,126.5z"/>
	</g>
	<g>
		<path class="st1" d="M62.2,162.9c-0.1,0-0.3,0-0.4-0.1c-4.8-1.5-9.1-4.5-12.1-8.6c-3.1-4.2-4.8-9.1-4.8-14.4
			c0-8.2,4.1-15.8,11.1-20.2c0.7-0.4,1.6-0.2,2,0.4c0.4,0.7,0.2,1.6-0.4,2c-6.1,3.9-9.8,10.6-9.8,17.8c0,9.3,6,17.4,14.9,20.2
			c0.8,0.2,1.2,1,0.9,1.8C63.4,162.5,62.8,162.9,62.2,162.9z"/>
	</g>
	<g>
		<path class="st1" d="M88.5,206.1c-16.8,0-30.4-13.6-30.4-30.4c0-8.6,3.7-16.8,10-22.6c0.6-0.5,1.5-0.5,2,0.1
			c0.5,0.6,0.5,1.5-0.1,2c-5.8,5.2-9.1,12.7-9.1,20.4c0,15.2,12.3,27.5,27.5,27.5c0.8,0,1.4,0.6,1.4,1.4S89.3,206.1,88.5,206.1z"/>
	</g>
	<g>
		<path class="st1" d="M99.5,225.1c-10.5,0-19.1-8.5-19.1-19.1c0-0.8,0.6-1.4,1.4-1.4c0.8,0,1.4,0.6,1.4,1.4
			c0,8.9,7.3,16.2,16.2,16.2c3.5,0,6.8-1.1,9.6-3.2c0.6-0.5,1.5-0.3,2,0.3c0.5,0.6,0.3,1.5-0.3,2
			C107.6,223.8,103.6,225.1,99.5,225.1z"/>
	</g>
	<g>
		<path class="st1" d="M144.5,217.4c-0.8,0-1.4-0.6-1.4-1.4V61.2c0-0.8,0.6-1.4,1.4-1.4s1.4,0.6,1.4,1.4v154.7
			C146,216.7,145.3,217.4,144.5,217.4z"/>
	</g>
	<g>
		<path class="st1" d="M173.2,62.7c-0.8,0-1.4-0.6-1.4-1.4c0-7-5.7-12.8-12.8-12.8c-7,0-12.8,5.7-12.8,12.8c0,0.8-0.6,1.4-1.4,1.4
			s-1.4-0.6-1.4-1.4c0-8.6,7-15.7,15.7-15.7c8.6,0,15.7,7,15.7,15.7C174.6,62,174,62.7,173.2,62.7z"/>
	</g>
	<g>
		<path class="st1" d="M156.4,231.5c-7.2,0-13.1-7-13.1-15.7c0-0.8,0.6-1.4,1.4-1.4s1.4,0.6,1.4,1.4c0,7,4.6,12.8,10.2,12.8
			c5.6,0,10.2-5.7,10.2-12.8c0-0.8,0.6-1.4,1.4-1.4c0.8,0,1.4,0.6,1.4,1.4C169.4,224.5,163.6,231.5,156.4,231.5z"/>
	</g>
	<g>
		<path class="st1" d="M194.2,80.7c-0.1,0-0.2,0-0.4,0c-0.8-0.2-1.2-1-1-1.8c1.4-5.4-0.6-11.2-5.2-14.5c-2.9-2.1-6.5-3-10.1-2.4
			c-3.6,0.6-6.7,2.5-8.8,5.5c-0.5,0.6-1.4,0.8-2,0.3c-0.6-0.5-0.8-1.4-0.3-2c2.6-3.6,6.4-5.9,10.7-6.6c4.3-0.7,8.7,0.3,12.2,2.9
			c5.5,4,8,11,6.3,17.6C195.4,80.2,194.8,80.7,194.2,80.7z"/>
	</g>
	<g>
		<path class="st1" d="M214,126.5c-0.5,0-1.1-0.3-1.3-0.8c-0.3-0.7,0-1.6,0.7-1.9c4.7-2.2,8.1-6.5,9.6-11.9
			c1.5-5.5,0.9-11.6-1.7-17.1c-2.6-5.5-7-9.8-12.3-12.1c-5.2-2.2-10.6-2.3-15.3,0c-2.4,1.1-4.4,2.8-6.1,4.9c-0.5,0.6-1.4,0.7-2,0.2
			c-0.6-0.5-0.7-1.4-0.2-2c1.9-2.4,4.3-4.3,7.1-5.7c5.5-2.6,11.8-2.6,17.7,0c5.9,2.6,10.8,7.4,13.7,13.5c2.9,6.2,3.6,13,1.9,19.2
			c-1.7,6.3-5.7,11.2-11.2,13.8C214.5,126.5,214.2,126.5,214,126.5z"/>
	</g>
	<g>
		<path class="st1" d="M215.8,162.9c-0.6,0-1.2-0.4-1.4-1c-0.2-0.8,0.2-1.6,0.9-1.8c8.9-2.8,14.9-10.9,14.9-20.2
			c0-7.2-3.6-13.9-9.8-17.8c-0.7-0.4-0.9-1.3-0.4-2c0.4-0.7,1.3-0.9,2-0.4c6.9,4.4,11.1,12,11.1,20.2c0,5.2-1.7,10.2-4.8,14.4
			c-3,4-7.3,7.1-12.1,8.6C216.1,162.9,215.9,162.9,215.8,162.9z"/>
	</g>
	<g>
		<path class="st1" d="M189.5,206.1c-0.8,0-1.4-0.6-1.4-1.4s0.6-1.4,1.4-1.4c15.2,0,27.5-12.3,27.5-27.5c0-7.8-3.3-15.2-9.1-20.4
			c-0.6-0.5-0.6-1.4-0.1-2c0.5-0.6,1.4-0.6,2-0.1c6.4,5.8,10,14,10,22.6C219.9,192.5,206.3,206.1,189.5,206.1z"/>
	</g>
	<g>
		<path class="st1" d="M178.5,225.1c-4.1,0-8-1.3-11.3-3.7c-0.6-0.5-0.8-1.4-0.3-2c0.5-0.6,1.4-0.8,2-0.3c2.8,2.1,6.1,3.2,9.6,3.2
			c8.9,0,16.2-7.3,16.2-16.2c0-0.8,0.6-1.4,1.4-1.4s1.4,0.6,1.4,1.4C197.5,216.6,189,225.1,178.5,225.1z"/>
	</g>
</g>
<g>
	<path class="st1" d="M101.5,143.9c-2.9,0-5.3-2.4-5.3-5.3c0-2.9,2.4-5.3,5.3-5.3c2.9,0,5.3,2.4,5.3,5.3
		C106.8,141.5,104.4,143.9,101.5,143.9z M101.5,135.8c-1.5,0-2.8,1.2-2.8,2.8s1.2,2.8,2.8,2.8c1.5,0,2.8-1.2,2.8-2.8
		S103,135.8,101.5,135.8z"/>
</g>
<g>
	<g>
		<g>
			<path class="st1" d="M84.3,153.9c-2.9,0-5.3-2.4-5.3-5.3c0-2.9,2.4-5.3,5.3-5.3s5.3,2.4,5.3,5.3
				C89.7,151.5,87.3,153.9,84.3,153.9z M84.3,145.8c-1.5,0-2.8,1.2-2.8,2.8s1.2,2.8,2.8,2.8s2.8-1.2,2.8-2.8S85.8,145.8,84.3,145.8z
				"/>
		</g>
		<g>
			<path class="st1" d="M115.4,202.3c-2.9,0-5.3-2.4-5.3-5.3c0-2.9,2.4-5.3,5.3-5.3c2.9,0,5.3,2.4,5.3,5.3
				C120.7,199.9,118.3,202.3,115.4,202.3z M115.4,194.2c-1.5,0-2.8,1.2-2.8,2.8s1.2,2.8,2.8,2.8c1.5,0,2.8-1.2,2.8-2.8
				S116.9,194.2,115.4,194.2z"/>
		</g>
		<g>
			<path class="st1" d="M115.3,194.2c-0.7,0-1.3-0.6-1.3-1.3V150H88.6c-0.7,0-1.3-0.6-1.3-1.3c0-0.7,0.6-1.3,1.3-1.3h26.7
				c0.7,0,1.3,0.6,1.3,1.3v44.2C116.6,193.6,116,194.2,115.3,194.2z"/>
		</g>
	</g>
	<g>
		<g>
			<path class="st1" d="M84.3,133.8c-2.9,0-5.3-2.4-5.3-5.3c0-2.9,2.4-5.3,5.3-5.3s5.3,2.4,5.3,5.3
				C89.7,131.4,87.3,133.8,84.3,133.8z M84.3,125.7c-1.5,0-2.8,1.2-2.8,2.8c0,1.5,1.2,2.8,2.8,2.8s2.8-1.2,2.8-2.8
				C87.1,127,85.8,125.7,84.3,125.7z"/>
		</g>
		<g>
			<path class="st1" d="M115.4,85.5c-2.9,0-5.3-2.4-5.3-5.3s2.4-5.3,5.3-5.3c2.9,0,5.3,2.4,5.3,5.3S118.3,85.5,115.4,85.5z
				 M115.4,77.4c-1.5,0-2.8,1.2-2.8,2.8c0,1.5,1.2,2.8,2.8,2.8c1.5,0,2.8-1.2,2.8-2.8C118.2,78.6,116.9,77.4,115.4,77.4z"/>
		</g>
		<g>
			<path class="st1" d="M115.3,129.6H88.6c-0.7,0-1.3-0.6-1.3-1.3c0-0.7,0.6-1.3,1.3-1.3H114V84.2c0-0.7,0.6-1.3,1.3-1.3
				s1.3,0.6,1.3,1.3v44.2C116.6,129,116,129.6,115.3,129.6z"/>
		</g>
	</g>
</g>
<g>
	<g>
		<path class="st1" d="M123.2,139.9h-17.7c-0.7,0-1.3-0.6-1.3-1.3s0.6-1.3,1.3-1.3h17.7c0.7,0,1.3,0.6,1.3,1.3
			S123.9,139.9,123.2,139.9z"/>
	</g>
	<g>
		<path class="st1" d="M123.4,173.3c-0.7,0-1.3-0.6-1.3-1.3v-66.6c0-0.7,0.6-1.3,1.3-1.3c0.7,0,1.3,0.6,1.3,1.3V172
			C124.7,172.7,124.1,173.3,123.4,173.3z"/>
	</g>
</g>
<g>
	<path class="st1" d="M176.5,143.9c-2.9,0-5.3-2.4-5.3-5.3c0-2.9,2.4-5.3,5.3-5.3c2.9,0,5.3,2.4,5.3,5.3
		C181.9,141.5,179.5,143.9,176.5,143.9z M176.5,135.8c-1.5,0-2.8,1.2-2.8,2.8s1.2,2.8,2.8,2.8c1.5,0,2.8-1.2,2.8-2.8
		S178,135.8,176.5,135.8z"/>
</g>
<g>
	<g>
		<g>
			<path class="st1" d="M193.7,133.8c-2.9,0-5.3-2.4-5.3-5.3c0-2.9,2.4-5.3,5.3-5.3c2.9,0,5.3,2.4,5.3,5.3
				C199,131.4,196.6,133.8,193.7,133.8z M193.7,125.7c-1.5,0-2.8,1.2-2.8,2.8c0,1.5,1.2,2.8,2.8,2.8c1.5,0,2.8-1.2,2.8-2.8
				C196.5,127,195.2,125.7,193.7,125.7z"/>
		</g>
		<g>
			<path class="st1" d="M162.6,85.5c-2.9,0-5.3-2.4-5.3-5.3s2.4-5.3,5.3-5.3c2.9,0,5.3,2.4,5.3,5.3S165.6,85.5,162.6,85.5z
				 M162.6,77.4c-1.5,0-2.8,1.2-2.8,2.8c0,1.5,1.2,2.8,2.8,2.8c1.5,0,2.8-1.2,2.8-2.8C165.4,78.6,164.1,77.4,162.6,77.4z"/>
		</g>
		<g>
			<path class="st1" d="M189.3,129.6h-26.7c-0.7,0-1.3-0.6-1.3-1.3V84.2c0-0.7,0.6-1.3,1.3-1.3s1.3,0.6,1.3,1.3v42.9h25.4
				c0.7,0,1.3,0.6,1.3,1.3C190.6,129,190,129.6,189.3,129.6z"/>
		</g>
	</g>
	<g>
		<g>
			<path class="st1" d="M193.7,153.9c-2.9,0-5.3-2.4-5.3-5.3c0-2.9,2.4-5.3,5.3-5.3c2.9,0,5.3,2.4,5.3,5.3
				C199,151.5,196.6,153.9,193.7,153.9z M193.7,145.8c-1.5,0-2.8,1.2-2.8,2.8s1.2,2.8,2.8,2.8c1.5,0,2.8-1.2,2.8-2.8
				S195.2,145.8,193.7,145.8z"/>
		</g>
		<g>
			<path class="st1" d="M162.6,202.3c-2.9,0-5.3-2.4-5.3-5.3c0-2.9,2.4-5.3,5.3-5.3c2.9,0,5.3,2.4,5.3,5.3
				C168,199.9,165.6,202.3,162.6,202.3z M162.6,194.2c-1.5,0-2.8,1.2-2.8,2.8s1.2,2.8,2.8,2.8c1.5,0,2.8-1.2,2.8-2.8
				S164.1,194.2,162.6,194.2z"/>
		</g>
		<g>
			<path class="st1" d="M162.6,194.2c-0.7,0-1.3-0.6-1.3-1.3v-44.2c0-0.7,0.6-1.3,1.3-1.3h26.7c0.7,0,1.3,0.6,1.3,1.3
				c0,0.7-0.6,1.3-1.3,1.3h-25.4v42.9C163.9,193.6,163.3,194.2,162.6,194.2z"/>
		</g>
	</g>
</g>
<g>
	<g>
		<path class="st1" d="M172.4,139.7h-17.3c-0.7,0-1.3-0.6-1.3-1.3s0.6-1.3,1.3-1.3h17.3c0.7,0,1.3,0.6,1.3,1.3
			S173.1,139.7,172.4,139.7z"/>
	</g>
	<g>
		<path class="st1" d="M154.5,172.9c-0.7,0-1.3-0.6-1.3-1.3v-66.6c0-0.7,0.6-1.3,1.3-1.3c0.7,0,1.3,0.6,1.3,1.3v66.6
			C155.8,172.4,155.2,172.9,154.5,172.9z"/>
	</g>
</g>
</svg>
