<?xml version="1.0" encoding="utf-8"?>
<!-- Generator: Adobe Illustrator 25.2.3, SVG Export Plug-In . SVG Version: 6.00 Build 0)  -->
<svg version="1.1" id="Layer_1" xmlns="http://www.w3.org/2000/svg" xmlns:xlink="http://www.w3.org/1999/xlink" x="0px" y="0px"
	 viewBox="0 0 179.8 129.9" style="enable-background:new 0 0 179.8 129.9;" xml:space="preserve">
<style type="text/css">
	.st0{fill:#D64141;}
	.st1{fill:#C7DEF2;}
	.st2{fill:#DD5A5D;}
	.st3{fill:#985E36;}
	.st4{fill:#E19263;}
	.st5{fill:#B57B53;}
	.st6{fill:#151515;}
	.st7{fill:none;}
	.st8{fill:#343B44;}
	.st9{fill:#474E56;}
	.st10{fill:none;stroke:#F36745;stroke-width:1.3454;stroke-miterlimit:10;}
	.st11{fill:#F36745;}
	.st12{fill:#FFFFFF;stroke:#F36745;stroke-width:1.1043;stroke-miterlimit:10;}
	.st13{fill:#D9D0CF;}
	.st14{fill:#E2A242;}
	.st15{fill:#F6C546;}
	.st16{fill:#3B4459;}
	.st17{fill:#D8813C;}
	.st18{fill:#EBD5D5;}
	.st19{fill:#A2CDD8;}
	.st20{fill:#D93832;}
	.st21{clip-path:url(#SVGID_4_);fill:#52607A;}
	.st22{clip-path:url(#SVGID_6_);fill:#52607A;}
	.st23{fill:#FFFFFF;stroke:#F36745;stroke-width:0.7;stroke-miterlimit:10;}
</style>
<g>
	<path class="st0" d="M82.6,114.4c0.3-0.5,0.6-0.9,0.8-1.4c-0.4,0.2-0.7,0.5-1.1,0.7C82.4,114,82.5,114.2,82.6,114.4z"/>
	
		<ellipse transform="matrix(0.7071 -0.7071 0.7071 0.7071 -29.3913 74.5835)" class="st1" cx="75.3" cy="72.8" rx="56.5" ry="56.5"/>
	<path class="st2" d="M76.2,112.1c1.5-1.3,10.4-9.9,10.4-9.9l4.9,2.7l-11.7,24.3H76c0,0-2.5-8.9-2.2-13.7
		C73.9,114.2,75.8,112.4,76.2,112.1z"/>
	<path class="st0" d="M62.3,87.8c-0.3-0.1-0.5-0.2-0.8-0.2c0,0,0,0.1,0.1,0.1c0.4,1.1,0.8,2.2,1.1,3.4c-0.1-1-0.1-2-0.2-3
		C62.3,88,62.3,87.9,62.3,87.8z"/>
	<path class="st3" d="M76.9,78.3c-0.4,0.1-0.8,0.3-1.1,0.6c-0.3,0.2-0.4,0.6-0.5,0.9c-0.1-0.3-0.3-0.7-0.5-0.9
		c-0.3-0.3-0.7-0.4-1.1-0.6c-4.5-1.7-9.1-3.1-13.8-4.2c1,4.5,1.8,9.1,2.3,13.7c0,0,0,0,0,0c0,0.1,0,0.2,0,0.3c0.1,1,0.2,2,0.2,3
		c0.3,1.2,0.6,2.4,1,3.6c2.3,6.9,7.7,12.4,10.6,19c0.4-0.2,0.7-0.5,1.1-0.7c0.7-1.1,1.5-2.1,2.3-3.2c1.9-2.6,3.7-5.3,5.4-8.1
		c2-3.2,3.8-6.6,4.5-10.3c0.2-1.1,0.3-2.1,0.7-3.1c0.1-0.2,0.1-0.4,0.2-0.5c0.6-4.6,1.3-9.2,2.3-13.7C86.1,75.2,81.5,76.7,76.9,78.3
		z"/>
	<path class="st4" d="M93.3,72.7c-0.3,0.1-0.7,0.1-1-0.2c-0.2-0.3-0.2-0.6-0.2-1c0.2-3.8,0.4-7.5,0.6-11.3c0.1-1.1,0.1-2.2,0.8-3.1
		c0.6-0.9,2.1-1.3,2.8-0.5c0.6,0.6,0.5,1.6,0.4,2.4c-0.1,0.7-0.2,1.4-0.3,2.1c-0.3,1.9-0.5,3.7-1.1,5.5c-0.3,0.8-0.6,1.5-0.7,2.3
		c-0.1,0.7,0,1.4-0.2,2.1C94.4,71.8,94,72.5,93.3,72.7z"/>
	<path class="st4" d="M57.4,72.7c0.3,0.1,0.7,0.1,1-0.2c0.2-0.3,0.2-0.6,0.2-1c-0.2-3.8-0.4-7.5-0.6-11.3c-0.1-1.1-0.1-2.2-0.8-3.1
		c-0.6-0.9-2.1-1.3-2.8-0.5c-0.6,0.6-0.5,1.6-0.4,2.4c0.1,0.7,0.2,1.4,0.3,2.1c0.3,1.9,0.5,3.7,1.1,5.5c0.3,0.8,0.6,1.5,0.7,2.3
		c0.1,0.7,0,1.4,0.2,2.1C56.3,71.8,56.7,72.5,57.4,72.7z"/>
	<path class="st5" d="M88.2,36.8c1.8,0.9,3,2.8,3.5,4.7c0.5,2,0.5,4,0.4,6c-0.1,3.3-0.1,6.6-0.2,9.9c0,1.4-0.1,2.9-1.2,3.8
		c-0.6,0.5-1.4,0.7-2.1,0.9c-9.1,2.1-18.6,2.6-27.9,1.4c0.1-2.5-2.3-4.4-3.5-6.6c-1.2-2.2-1.3-4.8-1.2-7.4c0.1-2.3,0.3-4.8,1.6-6.8
		c1.3-2,3.5-3.2,5.7-4.1c6.4-2.5,13.5-2.8,20.4-2.7C85.2,36.1,86.8,36.1,88.2,36.8z"/>
	<ellipse class="st5" cx="75.3" cy="63.2" rx="18.4" ry="26.3"/>
	<path class="st0" d="M50.6,109.9c4.1-3,7.9-6.3,11.3-10c0.7,5.1,4.8,8.9,8,12.9c2.7,3.4,4.9,7.2,6.5,11.3c-0.2-3.1-0.7-6.1-1.7-9
		c-2.6-7.3-8.7-13-11.1-20.4c-0.8-2.3-1.1-4.8-2.1-7c0,0,0-0.1-0.1-0.1c-1,0-2.1,0.8-3,1.4c-0.8,0.5-1.6,0.9-2.4,1.3
		c-0.2,1-0.3,2.1-0.4,3.2C55.2,99.2,53.5,104.9,50.6,109.9z"/>
	<path class="st0" d="M91.1,88.3c-0.9-0.5-1.8-0.9-2.7-0.5c0,0,0,0,0,0c-0.1,0.2-0.2,0.3-0.2,0.5c-0.4,1-0.5,2.1-0.7,3.1
		c-0.7,3.7-2.5,7.1-4.5,10.3c-1.7,2.8-3.5,5.5-5.4,8.1c-0.8,1-1.6,2.1-2.3,3.2c1.3-0.9,2.7-1.7,4.1-2.5c2.9-1.9,5.7-4.1,7.3-7.2
		c3.8,2.3,7.7,4.6,11.5,6.9C96,102.8,93.6,95.5,91.1,88.3z"/>
	<path class="st6" d="M77.9,28.6c-0.4-0.2-0.8,0-1.2-0.1c-0.9-0.1-1.4-0.8-2.1-1.2c-0.9-0.6-2.2-0.8-3.3-0.4
		c-1.1,0.4-1.8,1.5-1.5,2.5c-1.8,0.6-4-0.6-5.6,0.3c-1,0.6-1.6,2-2.8,1.9c-0.5,0-1-0.3-1.4-0.1c-0.8,0.3-0.3,1.5-1,2
		c-0.2,0.2-0.6,0.3-0.9,0.4c-2.3,0.7-3.5,3.5-2.2,5.3c-1.5,0-2.7,1.5-2.1,2.8c0.2,0.4,0.5,0.7,0.4,1.1c0,0.6-0.7,0.9-1.2,1.3
		c-0.9,0.8-0.9,2.1-0.7,3.2s0.7,2.2,0.6,3.3c-0.1,1.8-1.4,3.6-0.9,5.4c0.6,1.8,2.9,2.7,3.7,4.5c0.7,1.7,0,4,1.5,5.1
		c1-2.2,0.3-4.6,0.8-6.9c0.3-1.4,1.2-2.7,1.6-4.1c0.5-1.8,0.4-3.6,0.5-5.4c0.1-1.8,0.3-3.7,1.5-5.2c1.2-1.5,3.4-2.4,5.3-1.7
		c0.8,0.3,1.5,1,2.4,1.1c1.1,0.1,2.1-0.7,3.2-0.4c0.7,0.2,1.1,0.8,1.8,1.1c1.5,0.8,3.7-0.8,3.3-2.3c0.8,0.2,1.4,1,1.4,1.7
		c1.6-0.5,3.4-0.5,5.1-0.2c0.6,0.1,1.2,0.2,1.7,0c0.5-0.2,0.8-0.9,0.3-1.2c0.7-0.1,1.4,0.4,1.7,1c0.4,0.6,0.6,1.2,1,1.7
		c0.5,0.4,1.1,0.7,1.6,1.1c1.5,1.3,0.8,3.5,0.6,5.4c-0.2,1.7,0.2,3.3,0.5,4.9c0.6,3.3,1.3,6.6,1.9,9.9c1-1.4,0.1-3.4,0.6-5
		c0.5-1.7,2.7-2.8,3.2-4.5c0.2-0.7,0.1-1.4,0.1-2.1c-0.1-2.5,0.4-5,1.6-7.2c-1.1-0.4-0.8-1.8-0.4-2.8c-0.5,0.2-0.9-0.5-0.9-1
		c0-1.9,0.4-4-0.9-5.5c-1.1-1.2-3.2-1.9-3.3-3.5c0-0.7,0.3-1.6-0.2-2.1c-0.2-0.2-0.5-0.2-0.8-0.3c-1.3-0.3-2.6-0.3-3.9-0.1
		c-0.3,0.1-0.7,0.1-1,0.1c-0.8-0.2-1.1-1-1.4-1.8c-0.4-1-1-1.9-2-2.5c-1-0.6-2.4-0.6-3.2,0.1c-0.6,0.5-1.2,1.4-2,1.1
		C78.4,29,78.2,28.8,77.9,28.6z"/>
	<path class="st7" d="M54,107.3c0.4-2.7,0.6-5.4,0.8-8.1c-0.9,3.7-2.2,7.3-4.1,10.7C51.8,109.1,52.9,108.2,54,107.3z"/>
	<path class="st8" d="M54.8,99.2c0.4-1.9,0.7-3.8,0.9-5.7c0.1-1,0.2-2,0.3-3c-0.8,1.9-1,4.3-1.1,6.4C54.9,97.7,54.8,98.5,54.8,99.2z
		"/>
	<path class="st7" d="M94.9,99.7c-1-3.2-2.1-6.3-3.2-9.5c0.7,4.9-0.8,9.8-2.7,14.6c2.3,1.4,4.6,2.7,6.9,4.1
		C95.5,105.8,95.2,102.8,94.9,99.7z"/>
	<path class="st7" d="M98.1,110.2c-1-3.5-2.1-7-3.2-10.5c0.2,3.1,0.6,6.1,1,9.2C96.7,109.3,97.4,109.7,98.1,110.2z"/>
	<path class="st8" d="M94.7,96.9c-0.1-2.5-0.3-5.2-1.5-7.3c-0.4-0.2-0.7-0.4-1-0.6c-0.2-0.2-0.5-0.4-0.8-0.5
		c0.1,0.6,0.2,1.1,0.3,1.7c1.1,3.2,2.2,6.3,3.2,9.5C94.9,98.8,94.8,97.9,94.7,96.9z"/>
	<path class="st8" d="M91.1,88.3c0.2,0.6,0.4,1.3,0.7,1.9c-0.1-0.6-0.2-1.1-0.3-1.7C91.3,88.4,91.2,88.3,91.1,88.3z"/>
	<path class="st2" d="M70,112.8c-3.2-4-7.4-7.8-8-12.9c-0.7,0.8-1.5,1.5-2.3,2.3c0.9,2.6,2.1,5.2,3.2,7.7c2.9,6.3,5.6,12.7,8,19.2
		c1.4,0.1,2.9,0.2,4.4,0.2c0.4,0,0.8,0,1.2,0c0-1.7,0-3.4-0.2-5.1C74.9,120.1,72.7,116.2,70,112.8z"/>
	<path class="st9" d="M61.9,127.6c-2-2.8-4.1-5.6-6.1-8.5c-0.2-0.3-0.5-0.7-0.4-1.1c0.1-0.4,0.5-0.7,0.8-1c1.2-0.8,2.3-1.6,3.5-2.3
		c-2.3,0.1-4.6,0-6.8-0.6c0.4-2.3,0.7-4.5,1-6.8c-1.1,0.9-2.2,1.7-3.3,2.6c1.9-3.3,3.3-6.9,4.1-10.7c0.1-0.8,0.1-1.5,0.2-2.3
		c0.1-2.1,0.3-4.5,1.1-6.4c0-0.1,0-0.1,0-0.2c-1.2,0.5-2.5,0.9-3.8,1.3c-3.5,1.1-7.1,2.1-10.6,3.2c-4.1,1.3-8.3,2.5-12,4.7
		c-0.8,0.5-1.7,1.1-2.2,1.9c-0.1,0.2-0.3,0.4-0.4,0.7C34.8,114.7,47.2,124,61.9,127.6z"/>
	<path class="st8" d="M59.7,114.7c-1.2,0.8-2.3,1.6-3.5,2.3c-0.4,0.2-0.8,0.5-0.8,1c-0.1,0.4,0.2,0.8,0.4,1.1c2,2.8,4.1,5.7,6.1,8.5
		c2.9,0.7,5.9,1.2,9,1.4c-2.5-6.5-5.2-12.9-8-19.2c-1.1-2.5-2.3-5.1-3.2-7.7c-1.8,1.8-3.7,3.5-5.7,5.1c-0.3,2.3-0.6,4.6-1,6.8
		C55.1,114.7,57.4,114.9,59.7,114.7z"/>
	<path class="st8" d="M93.9,119.2c0.2-0.3,0.5-0.7,0.4-1.1c-0.1-0.4-0.5-0.7-0.8-1c-1.2-0.8-2.3-1.6-3.5-2.3c2.3,0.1,4.6,0,6.8-0.6
		c-0.3-1.8-0.6-3.5-0.8-5.3c-2.3-1.4-4.6-2.7-6.9-4.1c-0.7,1.7-1.5,3.5-2.3,5.2c-2.9,6.3-5.6,12.7-8.1,19.2c3-0.2,6-0.6,8.9-1.2
		C89.7,125,91.8,122.1,93.9,119.2z"/>
	<path class="st9" d="M90,114.7c1.2,0.8,2.3,1.6,3.5,2.3c0.4,0.2,0.8,0.5,0.8,1c0.1,0.4-0.2,0.8-0.4,1.1c-2.1,2.9-4.2,5.8-6.3,8.7
		c15.2-3.4,28.1-12.9,36-25.8c-0.1-0.2-0.2-0.5-0.4-0.7c-0.5-0.8-1.4-1.4-2.2-1.9c-3.7-2.2-7.9-3.5-12-4.7
		c-3.5-1.1-7.1-2.1-10.6-3.2c-1.8-0.5-3.6-1.1-5.2-2c1.2,2.1,1.4,4.8,1.5,7.3c0.1,0.9,0.1,1.8,0.2,2.8c1.1,3.5,2.2,7,3.2,10.5
		c-0.7-0.4-1.5-0.9-2.2-1.3c0.3,1.8,0.5,3.6,0.8,5.3C94.6,114.7,92.3,114.9,90,114.7z"/>
	
		<ellipse transform="matrix(0.7071 -0.7071 0.7071 0.7071 -29.3913 74.5835)" class="st10" cx="75.3" cy="72.8" rx="56.5" ry="56.5"/>
	
		<rect x="108.8" y="52.1" transform="matrix(-2.541903e-02 0.9997 -0.9997 -2.541903e-02 181.0367 -55.1452)" class="st11" width="17.1" height="17.1"/>
	<circle class="st12" cx="142.8" cy="37" r="36.4"/>
	<g>
		<path class="st13" d="M153.8,30.4c0-0.1,0-0.3,0-0.4c0.1,0.1,0.2,0.2,0.3,0.2c0.6,0.3,2.5,0.8,2.5,0.8s0-1.2-0.4-1.5
			c-0.4-0.3-1.5-0.6-2-0.8c-0.1,0-0.2-0.1-0.3-0.1c0.2-1.3,0.6-2.4,0.7-4.2c0.1-2.5-0.4-8.8-3.1-11.1c-0.3-0.3-0.8-0.6-1.4-0.9
			c-5.4-3-11.9-3-17.3,0c-0.6,0.3-1,0.6-1.4,0.9c-2.7,2.3-3.2,8.6-3.1,11.1c0.1,1.8,0.4,2.9,0.7,4.2c-0.1,0.1-0.2,0.1-0.3,0.2
			c-0.4,0.2-1.5,0.5-2,0.8c-0.4,0.3-0.4,1.5-0.4,1.5s1.9-0.6,2.5-0.8c0.2-0.1,0.3-0.2,0.4-0.3c0,0.2,0,0.3,0,0.5
			c0,2.3,0.6,11.2,0.2,14.2c-0.4,3-1,7.5-1,11.1c0,3.6,1.9,8.5,5.6,8.5h7.5h0h7.5c3.7,0,5.6-4.9,5.6-8.5c0-3.6-0.5-8.1-1-11.1
			S153.8,32.7,153.8,30.4z"/>
		<g>
			<path class="st14" d="M156.3,22.8c0.1-2.5-0.4-8.8-3.1-11.1c-0.3-0.3-0.8-0.6-1.4-0.9c-5.4-3-11.9-3-17.3,0
				c-0.6,0.3-1,0.6-1.4,0.9c-2.7,2.3-3.2,8.6-3.1,11.1c0.1,2.5,0.8,3.7,0.8,6s0.6,11.2,0.2,14.2c-0.4,3-1,7.5-1,11.1
				c0,3.6,1.9,8.5,5.6,8.5h7.5h0h7.5c3.7,0,5.6-4.9,5.6-8.5c0-3.6-0.5-8.1-1-11.1c-0.4-3,0.2-11.9,0.2-14.2S156.2,25.4,156.3,22.8z"
				/>
			<path class="st15" d="M135.7,61c-1.7,0-2.8-1.3-3.4-2.4c-0.8-1.4-1.3-2.6-1.3-4.4c0-4,0.7-9.2,0.9-11c0.3-2.2,0.1-7.2-0.1-10.8
				c-0.1-1.5-0.1-2.8-0.1-3.5c0-1.3-0.2-2.3-0.4-3.2c-0.2-0.8-0.4-1.7-0.4-2.8c-0.1-2.5,0.5-8.1,2.8-10.1c0.3-0.2,0.7-0.5,1.2-0.8
				c2.5-1.4,5.3-2.1,8.2-2.1c2.9,0,5.7,0.7,8.2,2.1c0.5,0.3,0.9,0.6,1.2,0.8c2.4,2,2.9,7.6,2.8,10.1c0,1.1-0.2,2-0.4,2.8
				c-0.2,0.9-0.4,1.9-0.4,3.2c0,0.7-0.1,2-0.1,3.5c-0.2,3.7-0.4,8.7-0.1,10.8c0.2,1.7,0.9,7,0.9,11c0,1.8-0.5,3-1.3,4.4
				c-0.6,1.1-1.7,2.4-3.4,2.4H135.7z"/>
			<path class="st15" d="M143.2,33.3l-6.5-0.6l-1.8,2.3c0,0-0.4,0.3-0.7,0.8c-0.3,0.4-0.2,9.8-0.2,9.8s0.3,0.9,1.1,1.2
				c0.8,0.4,5.9,2.5,5.9,2.5l2.2-0.9V33.3z"/>
			<path class="st15" d="M143.1,33.3l6.5-0.6l1.8,2.3c0,0,0.4,0.3,0.7,0.8c0.3,0.4,0.2,9.8,0.2,9.8s-0.3,0.9-1.1,1.2
				c-0.8,0.4-5.9,2.5-5.9,2.5l-2.2-0.9V33.3z"/>
			<path class="st16" d="M143.2,23.8L143.2,23.8c-6.6,0-11.3,2.4-11.3,2.4l3,8.8c0,0,3.2-1.6,8.2-1.6h0.1c5,0,8.3,1.6,8.3,1.6l3-8.8
				C154.5,26.2,149.8,23.8,143.2,23.8z"/>
			<path class="st16" d="M143.2,48.3c-4.6,0-8.1-1.5-8.1-1.5l1.3,8.2c0,0,3,1.9,6.8,1.9c3.9,0,6.8-1.9,6.8-1.9l1.3-8.2
				C151.3,46.8,147.7,48.3,143.2,48.3z"/>
			<path class="st16" d="M131.4,27c0,0,1.6,4.9,2.7,8.7c0,5.2,0,8.4,0.1,11.1c0.1,2.6,0.6,8,0.6,8s-3.3-4.2-3.1-9.6
				C132,39.9,131.4,27,131.4,27z"/>
			<path class="st16" d="M154.9,27c0,0-1.6,4.9-2.7,8.7c0,5.2,0,8.4-0.1,11.1c-0.1,2.6-0.6,8-0.6,8s3.3-4.2,3.1-9.6
				C154.3,39.9,154.9,27,154.9,27z"/>
			<g>
				<defs>
					<path id="SVGID_1_" d="M131.4,27c0,0,1.6,4.9,2.7,8.7c0,5.2,0,8.4,0.1,11.1c0.1,2.6,0.6,8,0.6,8s-3.3-4.2-3.1-9.6
						C132,39.9,131.4,27,131.4,27z"/>
				</defs>
				<clipPath id="SVGID_2_">
					<use xlink:href="#SVGID_1_"  style="overflow:visible;"/>
				</clipPath>
			</g>
			<path class="st14" d="M143.1,11.3c0,0-0.1,0-0.2,0.1c-0.1,0-0.1,0-0.2,0.1c-0.1,0-0.2,0.1-0.3,0.1c-0.5,0.1-1.1,0.3-1.9,0.5
				c-0.1,0-0.2,0-0.3,0.1c-0.1,0-0.1,0-0.2,0l0,0l0,0c0,0-0.1,0-0.1,0c-0.1,0-0.2,0.1-0.3,0.1c-0.1,0-0.2,0.1-0.2,0.1
				c-0.2,0.1-0.3,0.3-0.4,0.4c-0.1,0.1-0.1,0.2-0.2,0.3c-0.1,0.1-0.1,0.2-0.2,0.3c-0.2,0.4-0.4,0.9-0.6,1.4
				c-0.1,0.2-0.2,0.5-0.3,0.7c-0.1,0.2-0.2,0.5-0.3,0.7c-0.1,0.3-0.2,0.5-0.2,0.8c-0.1,0.3-0.1,0.5-0.2,0.8
				c-0.1,0.3-0.1,0.5-0.2,0.7c0,0.1-0.1,0.2-0.1,0.4c0,0.1,0,0.1,0,0.2c0,0.1,0,0.1,0,0.2c0,0.2-0.1,0.5-0.1,0.7
				c0,0.2-0.1,0.5-0.1,0.7c0,0.1,0,0.1,0,0.2c0,0.1,0,0.1,0,0.2c0,0.1,0,0.2,0,0.3c0,0.2-0.1,0.4-0.1,0.6c0,0.2,0,0.4,0,0.6
				c0,0,0,0.1,0,0.1c0,0,0,0.1,0,0.1c0,0.1,0,0.2,0,0.2c0,0.3,0,0.6,0,0.8c0,0.5,0,0.7,0,0.7l-0.1,0c0,0,0-0.3-0.1-0.7
				c0-0.2,0-0.5,0-0.8c0-0.1,0-0.2,0-0.3c0,0,0-0.1,0-0.1c0,0,0-0.1,0-0.1c0-0.2,0-0.4,0-0.6c0-0.2,0-0.4,0-0.6c0-0.1,0-0.2,0-0.3
				c0-0.1,0-0.1,0-0.2c0-0.1,0-0.1,0-0.2c0-0.2,0-0.5,0.1-0.7c0-0.2,0.1-0.5,0.1-0.7c0-0.1,0-0.1,0-0.2c0-0.1,0-0.1,0-0.2
				c0-0.1,0-0.3,0.1-0.4c0-0.3,0.1-0.5,0.2-0.8c0-0.1,0.1-0.3,0.1-0.4c0-0.1,0.1-0.3,0.1-0.4c0.1-0.3,0.1-0.5,0.2-0.8
				c0.2-0.5,0.3-1,0.5-1.5c0.2-0.5,0.4-1,0.6-1.4c0.1-0.1,0.1-0.2,0.2-0.3c0-0.1,0.1-0.2,0.2-0.4c0.1-0.2,0.3-0.4,0.6-0.6
				c0.1-0.1,0.2-0.1,0.3-0.2c0.1-0.1,0.2-0.1,0.4-0.1c0,0,0.1,0,0.1,0l0,0l0,0c0.1,0,0.1,0,0.2,0c0.1,0,0.2,0,0.3,0
				c0.8-0.1,1.5-0.2,1.9-0.2c0.1,0,0.2,0,0.3,0c0.1,0,0.2,0,0.2,0C143,11.2,143.1,11.2,143.1,11.3L143.1,11.3z"/>
			<path class="st14" d="M143.1,11.2c0,0,0.1,0,0.2,0c0.1,0,0.1,0,0.2,0c0.1,0,0.2,0,0.3,0c0.5,0,1.1,0.1,1.9,0.2c0.1,0,0.2,0,0.3,0
				c0.1,0,0.1,0,0.2,0l0,0l0,0c0,0,0.1,0,0.1,0c0.1,0,0.2,0.1,0.4,0.1c0.1,0.1,0.2,0.1,0.3,0.2c0.2,0.1,0.4,0.3,0.6,0.6
				c0.1,0.1,0.1,0.3,0.2,0.4c0.1,0.1,0.1,0.2,0.2,0.3c0.2,0.5,0.4,0.9,0.6,1.4c0.2,0.5,0.4,1,0.5,1.5c0.1,0.3,0.2,0.5,0.2,0.8
				c0,0.1,0.1,0.3,0.1,0.4c0,0.1,0.1,0.3,0.1,0.4c0.1,0.3,0.1,0.5,0.2,0.8c0,0.1,0,0.3,0.1,0.4c0,0.1,0,0.1,0,0.2c0,0.1,0,0.1,0,0.2
				c0,0.2,0.1,0.5,0.1,0.7c0,0.2,0,0.5,0.1,0.7c0,0.1,0,0.1,0,0.2c0,0.1,0,0.1,0,0.2c0,0.1,0,0.2,0,0.3c0,0.2,0,0.4,0,0.6
				c0,0.2,0,0.4,0,0.6c0,0,0,0.1,0,0.1c0,0,0,0.1,0,0.1c0,0.1,0,0.2,0,0.3c0,0.3,0,0.6,0,0.8c0,0.5-0.1,0.7-0.1,0.7l-0.1,0
				c0,0,0-0.3,0-0.7c0-0.2,0-0.5,0-0.8c0-0.1,0-0.2,0-0.2c0,0,0-0.1,0-0.1c0,0,0-0.1,0-0.1c0-0.2,0-0.4,0-0.6c0-0.2,0-0.4-0.1-0.6
				c0-0.1,0-0.2,0-0.3c0-0.1,0-0.1,0-0.2c0-0.1,0-0.1,0-0.2c0-0.2-0.1-0.5-0.1-0.7c0-0.2-0.1-0.5-0.1-0.7c0-0.1,0-0.1,0-0.2
				c0-0.1,0-0.1,0-0.2c0-0.1-0.1-0.2-0.1-0.4c-0.1-0.2-0.1-0.5-0.2-0.7c-0.1-0.3-0.1-0.5-0.2-0.8c-0.1-0.3-0.2-0.5-0.2-0.8
				c-0.1-0.3-0.2-0.5-0.3-0.7c-0.1-0.2-0.2-0.5-0.3-0.7c-0.2-0.5-0.4-1-0.6-1.4c0-0.1-0.1-0.2-0.2-0.3c-0.1-0.1-0.1-0.2-0.2-0.3
				c-0.1-0.2-0.3-0.3-0.4-0.4c-0.1-0.1-0.2-0.1-0.2-0.1c-0.1,0-0.2-0.1-0.3-0.1c0,0-0.1,0-0.1,0l0,0l0,0c-0.1,0-0.1,0-0.2,0
				c-0.1,0-0.2,0-0.3-0.1c-0.8-0.2-1.4-0.3-1.9-0.5c-0.1,0-0.2-0.1-0.3-0.1c-0.1,0-0.2,0-0.2-0.1C143.2,11.3,143.1,11.3,143.1,11.2
				L143.1,11.2z"/>
			<g>
				<path class="st17" d="M135.9,18.5l-1.2,0.5c-0.1,0.3-0.2,0.6-0.3,0.9c0.4-0.2,0.9-0.4,1.4-0.5C135.8,19.1,135.9,18.8,135.9,18.5
					z"/>
				<path class="st17" d="M136,18.1c0.2-0.9,0.3-1.6,0.3-1.6c-0.6,0.5-1.1,1.3-1.4,2L136,18.1z"/>
				<path class="st17" d="M134.3,20.4c-0.1,0.4-0.1,0.6-0.1,0.6l1.3,0c0-0.3,0.1-0.7,0.2-1.1L134.3,20.4z"/>
			</g>
			<g>
				<path class="st17" d="M150.4,18.5l1.2,0.5c0.1,0.3,0.2,0.6,0.3,0.9c-0.4-0.2-0.9-0.4-1.4-0.5C150.5,19.1,150.4,18.8,150.4,18.5z
					"/>
				<path class="st17" d="M150.3,18.1c-0.2-0.9-0.3-1.6-0.3-1.6c0.6,0.5,1.1,1.3,1.4,2L150.3,18.1z"/>
				<path class="st17" d="M152,20.4c0.1,0.4,0.1,0.6,0.1,0.6l-1.3,0c0-0.3-0.1-0.7-0.2-1.1L152,20.4z"/>
			</g>
			<path class="st18" d="M144.3,9.2c0,0.1-0.5,0.3-1.1,0.3c-0.6,0-1.1-0.1-1.1-0.3s0.5-0.3,1.1-0.3C143.8,9,144.3,9.1,144.3,9.2z"/>
			<path class="st19" d="M136.5,11.2c0,0-2.5,0.5-3.4,1.1c-0.9,0.6-1,3-1,3.2c0,0.2,1.5-0.2,3.2-1.2
				C136.2,13.7,136.5,11.2,136.5,11.2z"/>
			<path class="st19" d="M150,11.2c0,0,2.5,0.5,3.4,1.1c0.9,0.6,1,3,1,3.2c0,0.2-1.5-0.2-3.2-1.2C150.3,13.7,150,11.2,150,11.2z"/>
			<g>
				<path class="st20" d="M139.1,61.3h-3.4c-1.8,0-3-1.4-3.7-2.6c-0.4-0.7-0.7-1.3-0.8-1.8h-0.4c0.6,2.7,2.3,5.4,4.9,5.4h3.4V61.3z"
					/>
				<path class="st20" d="M155.1,56.9c-0.2,0.5-0.5,1.1-0.8,1.8c-0.7,1.2-1.8,2.6-3.7,2.6h-3.5v1h3.5c2.7,0,4.3-2.7,4.9-5.4H155.1z"
					/>
			</g>
			<g>
				<defs>
					<path id="SVGID_3_" d="M143.2,23.8L143.2,23.8c-6.6,0-11.3,2.4-11.3,2.4l3,8.8c0,0,3.2-1.6,8.2-1.6h0.1c5,0,8.3,1.6,8.3,1.6
						l3-8.8C154.5,26.2,149.8,23.8,143.2,23.8z"/>
				</defs>
				<clipPath id="SVGID_4_">
					<use xlink:href="#SVGID_3_"  style="overflow:visible;"/>
				</clipPath>
				<rect x="143.2" y="18.8" class="st21" width="13.2" height="43.9"/>
			</g>
			<g>
				<defs>
					<path id="SVGID_5_" d="M143.2,48.3c-4.6,0-8.1-1.5-8.1-1.5l1.3,8.2c0,0,3,1.9,6.8,1.9c3.9,0,6.8-1.9,6.8-1.9l1.3-8.2
						C151.3,46.8,147.7,48.3,143.2,48.3z"/>
				</defs>
				<clipPath id="SVGID_6_">
					<use xlink:href="#SVGID_5_"  style="overflow:visible;"/>
				</clipPath>
				<rect x="143.2" y="18.8" class="st22" width="13.2" height="43.9"/>
			</g>
			<path class="st15" d="M131.2,26.6c0,0-0.4,0.4-0.8,0.6c-0.4,0.2-1.5,0.5-2,0.8c-0.4,0.3-0.4,1.5-0.4,1.5s1.9-0.6,2.5-0.8
				c0.6-0.3,0.4-0.8,0.6-1c0.2-0.2,0.2-0.2,0.3-0.4C131.5,26.9,131.2,26.6,131.2,26.6z"/>
			<path class="st15" d="M155.1,26.6c0,0,0.4,0.4,0.8,0.6c0.4,0.2,1.5,0.5,2,0.8c0.4,0.3,0.4,1.5,0.4,1.5s-1.9-0.6-2.5-0.8
				c-0.6-0.3-0.4-0.8-0.6-1c-0.2-0.2-0.2-0.2-0.3-0.4C154.7,26.9,155.1,26.6,155.1,26.6z"/>
		</g>
	</g>
	
		<rect x="29.2" y="42.2" transform="matrix(2.541903e-02 0.9997 -0.9997 2.541903e-02 87.5194 11.7036)" class="st11" width="17.1" height="17.1"/>
	<circle class="st23" cx="23.4" cy="37.2" r="23.1"/>
	<g>
		<path class="st11" d="M41.5,47H26c0,0.2-0.2,0.4-0.5,0.4h-4.7c-0.2,0-0.4-0.2-0.5-0.4H5C5,47,4.9,47,4.9,47.1v0.4
			c0,0.5,0.4,0.9,0.9,0.9h34.8c0.5,0,0.9-0.4,0.9-0.9v-0.4C41.7,47,41.6,47,41.5,47z"/>
		<g>
			<path class="st11" d="M39,23.5H7.5c-0.8,0-1.5,0.7-1.5,1.5v20.2c0,0.5,0.4,0.9,0.9,0.9h32.8c0.5,0,0.9-0.4,0.9-0.9V25
				C40.5,24.2,39.8,23.5,39,23.5z M23.2,23.8c0.2,0,0.4,0.2,0.4,0.4c0,0.2-0.2,0.4-0.4,0.4s-0.4-0.2-0.4-0.4
				C22.9,23.9,23,23.8,23.2,23.8z M39.2,44.9H7.2V25c0-0.2,0.1-0.3,0.3-0.3H39c0.2,0,0.3,0.1,0.3,0.3V44.9z"/>
			<path class="st11" d="M23.4,24.1c0,0.1-0.1,0.2-0.2,0.2c-0.1,0-0.2-0.1-0.2-0.2c0-0.1,0.1-0.2,0.2-0.2C23.3,24,23.4,24,23.4,24.1
				z"/>
		</g>
	</g>
</g>
</svg>
