<?xml version="1.0" encoding="utf-8"?>
<!-- Generator: Adobe Illustrator 25.2.3, SVG Export Plug-In . SVG Version: 6.00 Build 0)  -->
<svg version="1.1" id="Layer_1" xmlns="http://www.w3.org/2000/svg" xmlns:xlink="http://www.w3.org/1999/xlink" x="0px" y="0px"
	 viewBox="0 0 179.8 129.9" style="enable-background:new 0 0 179.8 129.9;" xml:space="preserve">
<style type="text/css">
	.st0{fill:none;stroke:#F36745;stroke-width:1.3454;stroke-miterlimit:10;}
	.st1{fill:none;}
	.st2{fill:#4B171A;}
	.st3{fill:#C7DEF2;}
	.st4{fill:#BB915F;}
	.st5{fill:#602329;}
	.st6{fill:#985E36;}
	.st7{fill:#180F0F;}
	.st8{fill:#B57B53;}
	.st9{fill:#F36745;}
	.st10{fill:#FFFFFF;stroke:#F36745;stroke-width:1.1043;stroke-miterlimit:10;}
	.st11{fill-rule:evenodd;clip-rule:evenodd;fill:#E5E9EA;}
	.st12{fill-rule:evenodd;clip-rule:evenodd;fill:#FFFFFF;}
	.st13{fill-rule:evenodd;clip-rule:evenodd;fill:#2A80B8;}
	.st14{fill-rule:evenodd;clip-rule:evenodd;fill:#4B85C2;}
	.st15{fill-rule:evenodd;clip-rule:evenodd;fill:#2C3E50;}
	.st16{fill-rule:evenodd;clip-rule:evenodd;fill:#5297C6;}
	.st17{fill-rule:evenodd;clip-rule:evenodd;fill:#64AEDF;}
	.st18{fill-rule:evenodd;clip-rule:evenodd;fill:#42576F;}
	.st19{fill-rule:evenodd;clip-rule:evenodd;fill:#ECB043;}
	.st20{fill-rule:evenodd;clip-rule:evenodd;fill:#F4BF45;}
	.st21{fill-rule:evenodd;clip-rule:evenodd;fill:#FADC96;}
	.st22{fill-rule:evenodd;clip-rule:evenodd;fill:#3D566E;}
	.st23{fill-rule:evenodd;clip-rule:evenodd;fill:#4A6681;}
	.st24{fill-rule:evenodd;clip-rule:evenodd;fill:#9A9A9A;}
	.st25{fill-rule:evenodd;clip-rule:evenodd;fill:#A7A4A5;}
	.st26{fill-rule:evenodd;clip-rule:evenodd;fill:#C1C1C1;}
	.st27{fill-rule:evenodd;clip-rule:evenodd;fill:#D93832;}
	.st28{fill-rule:evenodd;clip-rule:evenodd;fill:#EAEAEA;}
	.st29{fill-rule:evenodd;clip-rule:evenodd;fill:#DBDADA;}
	.st30{fill-rule:evenodd;clip-rule:evenodd;fill:#F4F5F5;}
	.st31{fill-rule:evenodd;clip-rule:evenodd;fill:#ECECEC;}
	.st32{fill-rule:evenodd;clip-rule:evenodd;fill:#D44F3E;}
	.st33{fill-rule:evenodd;clip-rule:evenodd;fill:#C14633;}
	.st34{fill-rule:evenodd;clip-rule:evenodd;fill:#DE5B49;}
	.st35{fill-rule:evenodd;clip-rule:evenodd;fill:#DE5E4F;}
	.st36{fill:#FFFFFF;stroke:#F36745;stroke-width:0.7;stroke-miterlimit:10;}
</style>
<g>
	<g>
		
			<ellipse transform="matrix(0.7071 -0.7071 0.7071 0.7071 -29.3803 74.5789)" class="st0" cx="75.3" cy="72.8" rx="56.5" ry="56.5"/>
		<g>
			<path class="st1" d="M75.3,119.5c0-0.1,0-0.1,0-0.2C75.3,119.4,75.3,119.4,75.3,119.5z"/>
			<path class="st2" d="M75.1,122.9c0.2-1.1,0.3-2.3,0.5-3.4C75.4,120.6,75.3,121.8,75.1,122.9z"/>
			<g>
				
					<ellipse transform="matrix(0.7071 -0.7071 0.7071 0.7071 -29.1211 74.4715)" class="st3" cx="75.3" cy="72.4" rx="56.5" ry="56.5"/>
				<path class="st4" d="M66,96.8c0.1,0.4,0.3,0.9,0.4,1.3c0.4,1.3,0.9,2.6,1.3,3.9c0.1,0.5,0.3,0.9,0.4,1.4
					c0.4,1.2,0.8,2.4,1.1,3.6c0.1,0.2,0.1,0.5,0.2,0.7c0.4,1.4,0.9,2.8,1.3,4.2c0.1,0.4,0.2,0.7,0.3,1.1c0.4,1.5,0.8,2.9,1.2,4.4
					c1,3.7,2,7.4,2.6,11.3c0,0,0,0.1,0,0.1c0.1,0,0.2,0,0.3,0c2.4,0,4.7-0.1,7-0.4c0.1-0.5,0.1-0.9,0.2-1.4c0-0.2,0-0.4,0.1-0.6
					c0.1-1.1,0.3-2.2,0.4-3.3c0-0.1,0-0.2,0-0.3c0.2-1.1,0.3-2.3,0.5-3.4c0-0.1,0-0.1,0-0.2c0.2-1.2,0.3-2.4,0.5-3.5c0,0,0,0,0-0.1
					c1.2-8.4,2.7-16.7,4.4-25c0,0,0,0,0,0c-1.3,0.9-2.8,1.4-4.3,1.8c-2.5,0.6-5.1,0.6-7.7,0.6c-4,0-8.2-0.2-12-1.2
					c0.1,0.1,0.1,0.3,0.2,0.4c0.2,0.5,0.4,1.1,0.5,1.6C65.4,94.9,65.7,95.8,66,96.8z"/>
				<path class="st5" d="M95,95.9c2.3,1.3,4.6,2.5,7,3.8c0.5,0.2,0.9,0.5,1.2,0.9c0.5,0.9,0.1,2-0.4,2.9c-3.5,7.3-6.5,14.7-9.3,22.3
					c12-4.1,22.2-12.2,29.1-22.6c-0.8-6-2.2-12.1-6.5-16.3c-4-3.9-9.6-5.2-14.8-7.2c1.9,4.5,3.4,9.2,4.3,14
					C102.1,94.3,98.5,95,95,95.9z"/>
				<path class="st2" d="M55.8,95.4c-1.8,1.9-3.7,3.8-5.5,5.7c-0.3,0.3-0.5,0.6-0.6,0.9c0,0.3,0.1,0.6,0.2,0.9
					c1,2.3,2.2,4.5,3.4,6.7c2.2,3.8,4.8,7.3,7.1,11.1c1.4,2.3,2.7,4.6,3.9,7c3.5,0.7,7,1.1,10.7,1.1c0,0,0-0.1,0-0.1
					c-0.6-3.8-1.6-7.5-2.6-11.3c-0.4-1.5-0.8-2.9-1.2-4.4c-0.1-0.4-0.2-0.7-0.3-1.1c-0.4-1.4-0.8-2.8-1.3-4.2
					c-0.1-0.2-0.1-0.5-0.2-0.7c-0.4-1.2-0.7-2.4-1.1-3.6c-0.1-0.5-0.3-0.9-0.4-1.4c-0.4-1.3-0.8-2.6-1.3-3.9
					c-0.1-0.4-0.3-0.9-0.4-1.3c-0.3-1-0.7-2-1-2.9c-0.2-0.5-0.4-1.1-0.5-1.6c-1.6-4.6-3.3-9.3-5.1-13.9c-0.7,0.6-1.4,1.2-2.2,1.7
					c-2.9,2.1-6.1,3.8-9.3,5.4c-0.2,3.7-0.3,7.4-0.5,11.2C49.9,95.2,53,94.7,55.8,95.4z"/>
				<path class="st5" d="M64.3,127.8c-1.2-2.4-2.5-4.7-3.9-7c-2.3-3.7-4.8-7.3-7.1-11.1c-1.3-2.2-2.4-4.4-3.4-6.7
					c-0.1-0.3-0.3-0.6-0.2-0.9c0.1-0.4,0.3-0.7,0.6-0.9c1.8-1.9,3.7-3.8,5.5-5.7c-2.8-0.7-5.9-0.2-8.4,1.3c0.2-3.7,0.3-7.4,0.5-11.2
					c-1.4,0.7-2.9,1.4-4.3,2.1c-3.4,1.6-6.9,3.3-9.4,6.1c-2.3,2.4-3.7,5.4-5.1,8.4c-0.3,0.6-0.5,1.1-0.7,1.6
					C36.6,116,49.4,124.8,64.3,127.8z"/>
				<path class="st2" d="M84,115.8c-0.2,1.2-0.3,2.4-0.5,3.5c0,0.1,0,0.1,0,0.2c-0.2,1.1-0.3,2.3-0.5,3.4c0,0.1,0,0.2,0,0.3
					c-0.1,1.1-0.3,2.2-0.4,3.3c0,0.2,0,0.4-0.1,0.6c-0.1,0.5-0.1,0.9-0.2,1.4c3.9-0.5,7.6-1.4,11.2-2.6c2.7-7.6,5.8-15.1,9.3-22.3
					c0.4-0.9,0.9-2,0.4-2.9c-0.3-0.4-0.7-0.7-1.2-0.9c-2.3-1.3-4.6-2.5-7-3.8c3.5-0.9,7-1.6,10.6-2.2c-0.9-4.8-2.4-9.5-4.3-14
					c-1.7-0.6-3.4-1.3-4.9-2.2c-1.9-1.1-3.7-2.5-5.1-4.2c-0.5,5.6-1.9,12.7-2.8,16.9c0,0.2-0.1,0.3-0.1,0.5
					C86.7,99,85.3,107.3,84,115.8C84.1,115.7,84,115.7,84,115.8z"/>
				<path class="st6" d="M76.4,93c-4,0-8.2-0.2-12-1.2c-1.6-4.5-3.2-9-4.9-13.4c3.3-2.8,6-6.1,7.5-10.1c0.6-1.7,1.1-3.5,2.4-4.8
					c1.7-1.6,4.4-1.6,6.8-1.4c4.5,0.4,9.4,1.6,12,5.3c1,1.4,1.6,3.1,2.5,4.6c0.2,0.4,0.5,0.8,0.8,1.1c-0.5,5.6-1.9,12.7-2.8,16.9
					c0,0.2-0.1,0.3-0.1,0.5c-1.3,0.9-2.8,1.4-4.3,1.8C81.6,93.1,79,93.1,76.4,93z"/>
				<path class="st7" d="M103.2,87.1c-1,2.2-3.1,3.8-3.8,6.1c-1.7,5.4,4.9,10.5,4.1,16.1c-1.5-3.2-4.1-5.7-5.9-8.8
					c-1.7-3.1-2.3-7.3,0.2-9.8c-4,2.8-5.7,8.5-3.9,13c-1.8-2.2-2.5-5.2-1.8-7.9c0.3-1.4,1-2.6,1.1-4c0.1-3.3-3-5.7-4.3-8.8
					c-1.8-4.2-0.1-9,1.2-13.4c1.6-5.3,2.5-10.7,2.7-16.2c0.2-3.7,0-7.7-1.9-10.9c-1.7-2.8-4.4-4.8-6.9-7c-2.5-2.2-4.8-4.9-5.1-8.1
					c5.7-0.3,11.4,1.4,16.1,4.6c1.5,1.1,2.9,2.3,3.9,3.9c1,1.7,1.6,3.6,2,5.5c1.9,8,3.2,16.9-0.7,24.2c-0.7,1.4-1.7,2.7-1.7,4.3
					c-0.1,1.7,0.9,3.2,1.9,4.6C102.7,78.3,105,83,103.2,87.1z"/>
				<path class="st8" d="M83.8,76.5c-3-1.2-5.9-2.5-8.7-4c-1.3-0.6-2.6-1.3-3.6-2.4c-0.9-0.9-1.5-2.1-1.9-3.3
					c-1.4-3.7-1.7-7.7-1.5-11.6c0.1-2.1,0.4-4.3,1.2-6.2c0.9-2.1,2.4-3.9,3.9-5.7c1.8-2.1,3.6-4.2,5.7-5.9c1.8-1.4,3.7-2.6,5.8-3.4
					c1.2-0.5,2.6-0.9,3.9-0.5c0.4,0.1,0.7,0.3,1,0.4c1,0.5,2,0.9,3,1.4c1.1,0.5,2.3,1.1,3.1,2c0.8,0.9,1.1,2,1.5,3.1
					c1,3.3,2,6.8,1.5,10.3c-0.3,2.3-1.3,4.6-1.4,6.9c-0.1,1.5,0.2,2.9,0,4.4c-0.2,1.6-1,3-1.7,4.4c-1,2-2.1,4-3.1,5.9
					c-1.1,2.1-2.6,4.5-4.9,4.7C86.1,77.4,84.9,77,83.8,76.5z"/>
				<path class="st7" d="M52.3,113.9c-0.1-0.8-0.8-1.4-1.3-2c-3.3-3.4-4.1-8.9-2-13.1c1.1-2.3,3.1-4.6,2.4-7.1c0.3,2.4-2,4.2-4,5.5
					c-2,1.3-4.2,3.3-3.8,5.6c-0.6-2.5,0.1-5.4,2-7.2c0.6-0.6,1.2-1.1,1.6-1.8c1.1-2-0.6-4.4-0.8-6.7c-0.1-1.6,0.6-3.2,1.8-4.1
					c-1.4,1.1-2.9,2.2-4.3,3.3c-1,0.8-2,1.5-2.6,2.7c-0.9,1.8-0.5,3.9-0.7,5.9c-0.2,2-1.6,4.3-3.6,4c3.3-3.4-0.7-10.1,2.6-13.5
					c1.8-1.9,5.3-1.9,6.8-4.1c1.5-2.2,0.1-5.2-0.3-7.9c-0.5-2.9,0.4-6,2.4-8.2c1.6-1.8,3.8-3.1,5.3-5c2.4-3.1,2.3-7.4,2.7-11.3
					c0.5-4.1,1.6-8.1,3.3-11.8c2.3-4.9,6.1-9.5,11.4-10.6c2.2-0.4,4.4-0.2,6.6,0.2c4.6,0.8,9,2.5,13,4.8c0.5,0.3,0.9,0.6,1.1,1.1
					c0.1,0.4,0,0.8-0.2,1.2c-0.8,2.2-1.7,4.4-2.5,6.6c-1.3,3.6-2.9,7.4-6,9.6c-2.7,1.8-6.5,2.5-8,5.4c-2.3,4.4,2.8,9.6,1.6,14.5
					c-1,4.3-6.7,7-6,11.3c0.3,1.7,1.5,3,2.6,4.4c1.3,1.7,2.5,3.5,3.1,5.6c0.5,2.1,0.3,4.4-0.9,6.2c-1.3,1.9-3.5,2.8-5.7,3.4
					c-2.1,0.5-4.8,1.1-5.5,3.2c-0.8,2.4,1.5,4.8,1.2,7.2c-0.3,2.4-2.9,3.6-5.1,4.6c-2.2,1-4.7,2.5-4.7,4.9c-0.3-1.9,0.6-3.9,2.1-5.1
					c1.1-0.8,2.7-1.4,2.9-2.8c0.3-2-2.5-2.8-3.5-4.5c-1-1.8,0.2-4,1.6-5.6c1.4-1.6,3-3.2,2.9-5.3c-1.3,3.1-5.7,3.6-7.9,6.2
					c-1.6,1.9-1.7,4.7-0.9,7.1c0.3,0.8,0.7,1.6,0.6,2.5c-0.1,2.3-3,3.3-5.3,3.4c0.9,0,1.9,0,2.7-0.4
					C51.7,115.6,52.4,114.8,52.3,113.9z"/>
				<path class="st1" d="M69.3,107c-0.4-1.2-0.7-2.4-1.1-3.6C68.6,104.7,68.9,105.8,69.3,107z"/>
				<path class="st1" d="M72.4,117.5c-0.4-1.5-0.8-2.9-1.2-4.4C71.5,114.5,71.9,116,72.4,117.5z"/>
				<path class="st1" d="M67.7,102.1c-0.4-1.3-0.8-2.6-1.3-3.9C66.9,99.4,67.3,100.8,67.7,102.1z"/>
				<path class="st1" d="M70.8,112c-0.4-1.4-0.8-2.8-1.3-4.2C69.9,109.2,70.4,110.6,70.8,112z"/>
				<path class="st1" d="M66,96.8c-0.3-1-0.7-2-1-2.9C65.4,94.9,65.7,95.8,66,96.8z"/>
				<path class="st1" d="M84,115.8C84,115.7,84.1,115.7,84,115.8C84.1,115.7,84,115.7,84,115.8z"/>
				<path class="st2" d="M64.5,92.3c0.2,0.5,0.4,1.1,0.5,1.6C64.9,93.4,64.7,92.8,64.5,92.3z"/>
				<path class="st2" d="M71.1,113.1c-0.1-0.4-0.2-0.7-0.3-1.1C70.9,112.4,71,112.7,71.1,113.1z"/>
				<path class="st2" d="M69.5,107.7c-0.1-0.2-0.1-0.5-0.2-0.7C69.4,107.3,69.4,107.5,69.5,107.7z"/>
				<path class="st2" d="M68.2,103.5c-0.1-0.5-0.3-0.9-0.4-1.4C67.9,102.5,68,103,68.2,103.5z"/>
				<path class="st2" d="M66.5,98.1c-0.1-0.4-0.3-0.9-0.4-1.3C66.2,97.3,66.3,97.7,66.5,98.1z"/>
				<path class="st2" d="M83.5,119.3c0.2-1.2,0.3-2.4,0.5-3.5C83.9,116.9,83.7,118.1,83.5,119.3z"/>
				<path class="st2" d="M88.4,90.7c-1.7,8.3-3.1,16.6-4.4,25C85.3,107.3,86.7,99,88.4,90.7z"/>
				
					<ellipse transform="matrix(0.7071 -0.7071 0.7071 0.7071 -29.1211 74.4715)" class="st0" cx="75.3" cy="72.4" rx="56.5" ry="56.5"/>
			</g>
		</g>
		
			<rect x="108.8" y="52.1" transform="matrix(-2.541902e-02 0.9997 -0.9997 -2.541902e-02 181.0367 -55.1452)" class="st9" width="17.1" height="17.1"/>
		<circle class="st10" cx="142.8" cy="37" r="36.4"/>
		<g>
			<path class="st11" d="M122.8,46.5c-1.3,0-2.3-1.1-2.3-2.3s1.1-2.3,2.3-2.3c1.3,0,2.3,1.1,2.3,2.3S124.1,46.5,122.8,46.5z"/>
			<path class="st12" d="M121,42.9c0.5-0.6,1.1-0.5,1.3,0c-0.4-0.3-1.1-0.1-1.3,0.2c-0.2,0.2-0.2,0.2-0.2,0.3
				C120.8,43.3,120.9,43.1,121,42.9L121,42.9z M122.3,43C122.3,43,122.3,43,122.3,43C122.3,43,122.3,43,122.3,43L122.3,43z
				 M120.9,44L120.9,44L120.9,44L120.9,44L120.9,44z M120.8,43.5C120.8,43.5,120.8,43.5,120.8,43.5
				C120.8,43.5,120.8,43.5,120.8,43.5z"/>
			<path class="st13" d="M121,45.1c-0.4-0.6-0.4-1.4,0-1.9c0.5-0.5,1.2-0.4,1.7,0.1c0.4,0.6,0.4,1.4,0,1.9
				C122.2,45.7,121.4,45.6,121,45.1z"/>
			<path class="st14" d="M121.1,44.9c-0.4-0.5-0.3-1.1,0-1.5c0.4-0.4,1-0.3,1.3,0.1c0.4,0.5,0.3,1.1,0,1.5S121.5,45.3,121.1,44.9z"
				/>
			<path class="st15" d="M121.4,44.6c-0.2-0.3-0.2-0.7,0-1c0.2-0.2,0.6-0.2,0.8,0.1c0.2,0.3,0.2,0.7,0,1
				C122,44.9,121.6,44.9,121.4,44.6z"/>
			<path class="st11" d="M121.9,45c-0.1-0.1,0-0.2,0-0.2c0.1-0.1,0.1,0,0.2,0c0.1,0.1,0,0.2,0,0.2C122.1,45.1,122,45.1,121.9,45z"/>
			<g>
				<path class="st16" d="M122.3,43c0,0.1,0.1,0.2,0.1,0.3l0,0c-0.4-0.3-0.9-0.2-1.2,0c-0.2,0.3-0.3,0.4-0.3,0.7
					c-0.1-0.1-0.1-0.3-0.1-0.5c0.1-0.1,0-0.1,0.2-0.3C121.2,42.9,121.9,42.7,122.3,43L122.3,43z M122.3,43.8L122.3,43.8L122.3,43.8z
					 M122.3,43.8L122.3,43.8L122.3,43.8L122.3,43.8L122.3,43.8z"/>
			</g>
			<path class="st17" d="M122.4,43.3c0,0.1,0,0.3-0.1,0.4c0,0,0.1,0.1,0,0c-0.1-0.1-0.6-0.3-0.8-0.1c-0.2,0.2-0.2,0.4-0.2,0.6l0,0
				c-0.2,0-0.3-0.1-0.3-0.2c0-0.2,0-0.4,0.3-0.7C121.4,43.1,122,43,122.4,43.3z"/>
			<path class="st18" d="M122.3,43.8c-0.2,0.3-0.5,0.5-0.8,0.5c-0.1,0-0.2,0-0.2,0c0-0.2,0-0.4,0.2-0.6
				C121.6,43.5,122.1,43.6,122.3,43.8C122.4,43.9,122.2,43.7,122.3,43.8z"/>
			<path class="st11" d="M121,43.7c0-0.1,0.1-0.3,0.2-0.3c0.1,0,0.2,0,0.3,0.2c0,0.1-0.1,0.3-0.2,0.3
				C121.2,43.9,121.1,43.9,121,43.7z"/>
			<path class="st19" d="M120.4,48.1c0-1.3,1.1-2.4,2.4-2.4c1.3,0,2.4,1.1,2.4,2.4h0l0,6c0,0.3,0,0.5-0.7,0.9
				c-0.7,0.4-2.7,0.4-3.4,0c-0.7-0.4-0.7-0.6-0.7-0.9L120.4,48.1L120.4,48.1z"/>
			<path class="st20" d="M125.2,48.1L125.2,48.1l0,4.3L125.2,48.1L125.2,48.1z M120.4,48.1c0-0.7,0.7-2.1,2.2-2.2
				c1.4,0,2.1,0.9,2.1,2.1c0,1.7,0,5.2,0,6.9c0,0,0.4-0.2-0.1,0.1c-0.5,0.3-2.7,0.4-3.4,0c-0.7-0.4-0.7-0.6-0.7-0.9L120.4,48.1z"/>
			<path class="st19" d="M122.8,46.5c-1.3,0-2.3-1.1-2.3-2.3s1.1-2.3,2.3-2.3c1.3,0,2.3,1.1,2.3,2.3S124.1,46.5,122.8,46.5z"/>
			<path class="st20" d="M122.5,46c-1.1,0-2-0.9-2-2c0-1.1,0.9-2,2-2c1.1,0,2,0.9,2,2C124.6,45.1,123.7,46,122.5,46z"/>
			<path class="st21" d="M122.3,43c-0.2-0.6-0.8-0.6-1.3,0c-0.1,0.2-0.2,0.3-0.2,0.5c0,0.2,0,0.4,0.1,0.5c0.1,0.1,0.2,0.2,0.3,0.2
				c0,0,0,0,0,0c0.1,0,0.1,0,0.2,0c0.4,0,0.7-0.2,0.8-0.5c0.1-0.1,0.1-0.3,0.1-0.4L122.3,43z"/>
			<polygon class="st22" points="156.9,25.4 156.9,37.6 156.8,38 156.7,38.4 156.5,38.8 156.4,39.2 156.2,39.5 155.9,39.9 
				155.6,40.3 155.3,40.6 155,41 154.6,41.3 154.2,41.7 153.8,42 153.3,42.3 152.8,42.6 152.3,42.9 151.7,43.2 151.1,43.4 
				150.6,43.7 150,43.9 149.3,44.1 148.7,44.3 148.1,44.4 147.4,44.6 146.8,44.7 146.1,44.8 145.5,44.9 144.8,45 144.1,45 143.4,45 
				142.7,45 142.1,45 141.4,45 140.7,45 140,44.9 139.3,44.8 138.7,44.7 138,44.6 137.4,44.4 136.7,44.3 136.1,44.1 135.5,43.9 
				134.9,43.7 134.3,43.4 133.8,43.2 133.2,42.9 132.7,42.6 132.2,42.3 131.7,42 131.3,41.7 130.9,41.3 130.5,41 130.1,40.6 
				129.8,40.3 129.6,39.9 129.3,39.5 129.1,39.2 128.9,38.8 128.8,38.4 128.7,38 128.6,37.6 128.6,25.4 128.7,25.8 128.8,26.2 
				128.9,26.6 129.1,27 129.3,27.4 129.6,27.7 129.8,28.1 130.1,28.5 130.5,28.8 130.9,29.2 131.3,29.5 131.7,29.8 132.2,30.1 
				132.7,30.4 133.2,30.7 133.8,31 134.3,31.3 134.9,31.5 135.5,31.7 136.1,31.9 136.7,32.1 137.4,32.2 138,32.4 138.7,32.5 
				139.3,32.6 140,32.7 140.7,32.8 141.4,32.8 142.1,32.8 142.7,32.8 143.4,32.8 144.1,32.8 144.8,32.8 145.5,32.7 146.1,32.6 
				146.8,32.5 147.4,32.4 148.1,32.2 148.7,32.1 149.3,31.9 150,31.7 150.6,31.5 151.1,31.3 151.7,31 152.3,30.7 152.8,30.4 
				153.3,30.1 153.8,29.8 154.2,29.5 154.6,29.2 155,28.8 155.3,28.5 155.6,28.1 155.9,27.7 156.2,27.4 156.4,27 156.5,26.6 
				156.7,26.2 156.8,25.8 			"/>
			<polygon class="st15" points="155.2,40.8 155,41 154.6,41.3 154.2,41.7 153.8,42 153.3,42.3 152.8,42.6 152.3,42.9 151.7,43.2 
				151.1,43.4 150.6,43.7 150,43.9 149.3,44.1 149.3,44.1 149.3,31.9 149.3,31.9 150,31.7 150.6,31.5 151.1,31.3 151.7,31 
				152.3,30.7 152.8,30.4 153.3,30.1 153.8,29.8 154.2,29.5 154.6,29.2 155,28.8 155.2,28.6 			"/>
			<polygon class="st23" points="136.1,44.1 136.1,44.1 135.5,43.9 134.9,43.7 134.3,43.4 133.8,43.2 133.2,42.9 132.7,42.6 
				132.2,42.3 131.7,42 131.3,41.7 130.9,41.3 130.5,41 130.2,40.7 130.2,28.6 130.5,28.8 130.9,29.2 131.3,29.5 131.7,29.8 
				132.2,30.1 132.7,30.4 133.2,30.7 133.8,31 134.3,31.3 134.9,31.5 135.5,31.7 136.1,31.9 136.1,31.9 			"/>
			<g>
				<polygon class="st23" points="117.8,24.7 117.8,25.8 142.7,40.2 142.7,39.1 				"/>
				<polygon class="st22" points="142.7,39.1 142.7,40.2 167.7,25.8 167.7,24.7 				"/>
			</g>
			<polygon class="st15" points="142.7,10.3 117.8,24.7 142.7,39.1 167.7,24.7 			"/>
			<path class="st19" d="M142.8,24.2l-14.1,2.1c-3.6,0.5-6.2,3.6-6.2,7.3v8.6c0,0.3,0.7,0.2,0.7,0v-8c0-3.7,2.6-6.7,6.2-7.3
				l13.9-2.1L142.8,24.2z"/>
			<polygon class="st22" points="145.8,24.2 145.8,24.6 145.7,25 145.6,25.3 145.3,25.6 144.9,25.9 144.7,26 144.4,26.1 144.2,26.2 
				143.9,26.3 143.6,26.3 143.3,26.4 143,26.4 142.7,26.4 142.4,26.4 142.1,26.4 141.9,26.3 141.6,26.3 141.3,26.2 141.1,26.1 
				140.8,26 140.6,25.9 140.2,25.6 139.9,25.3 139.7,25 139.7,24.6 139.7,24.2 139.7,24.5 139.9,24.8 140.2,25.1 140.6,25.4 
				140.8,25.5 141.1,25.6 141.3,25.7 141.6,25.8 141.9,25.9 142.1,25.9 142.4,25.9 142.7,25.9 143,25.9 143.3,25.9 143.6,25.9 
				143.9,25.8 144.2,25.7 144.4,25.6 144.7,25.5 144.9,25.4 145.3,25.1 145.6,24.8 145.7,24.5 			"/>
			<path class="st23" d="M140.6,22.9c1.2-0.7,3.1-0.7,4.3,0c1.2,0.7,1.2,1.8,0,2.5c-1.2,0.7-3.1,0.7-4.3,0
				C139.4,24.7,139.4,23.6,140.6,22.9z"/>
			<path class="st21" d="M120.8,54.9c0.1,0,0.1,0.1,0.2,0.1l0,0l0,0l0,0l0,0l0,0l0,0l0,0l0,0l0,0l0,0l0,0l0,0l0,0l0,0
				c0.2,0.1,0.4,0.2,0.7,0.2l0-6.6c0.1-0.7,0.1-0.7,0.6-1.5c0.2-0.2,0.1-0.4-0.1-0.5c-0.3-0.2-0.7-0.1-1,0.1c-0.4,0.3-0.5,1-0.5,1.4
				C120.8,49.8,120.8,53.2,120.8,54.9z"/>
		</g>
		<g>
			<path class="st24" d="M153.6,25.9v1.4l0.2,0.1l0.1,0l0.1,0l0.1,0l0.1,0l0.1,0l0.1,0l0.1-0.1l0.1-0.1l0.1-0.1l0.1-0.1l0-0.1l0-0.1
				l0-0.1l0-0.1l0-0.1l0-0.1l0-0.1l0-0.1l0-0.1l0-0.1l0-0.1l0-0.1l0-0.1l0-0.1l0-0.1l0-0.1l0-0.1l0-0.1v32l0,0.1l0,0.1l0,0.1l0,0.1
				l0,0.1l0,0.1l0,0.1l0,0.1l0,0.1l0,0.1l0,0.1l0,0.1l0,0.1l0,0.1l0,0.1l0,0.1l0,0.1l0,0.1l-0.1,0.1l-0.1,0.1l-0.1,0.1l-0.1,0.1
				l-0.1,0l-0.1,0l-0.1,0l-0.1,0l-0.1,0l-0.1,0l-0.9-0.5v-2.2l0,0l-0.1,0l-0.1,0l-0.1,0l-0.1,0l-0.1,0l-0.1,0l-0.1,0l-0.1,0l-0.1,0
				l-0.1,0l-0.1,0l-0.1,0l-0.1,0l-0.1,0l-0.1,0l-0.1,0l-0.1,0l-0.1,0l-0.1,0l-0.1,0l-0.1,0l-0.1,0l-0.1,0l-0.1,0l-0.1,0l-0.1,0
				l-0.1,0l-0.1,0l-0.1,0l-0.1,0l-0.1,0l-0.1,0l-0.1,0l-0.1,0l-0.1,0l-0.1,0l-0.1,0l-0.1,0l-0.1,0l-0.1,0l-0.1,0l-0.1,0l-0.1,0
				l-0.1,0l-0.1,0l-0.1,0l-0.1,0l-0.1,0l-0.1,0l-0.1,0l-0.1,0l-0.1,0l-0.1,0l-0.1,0l-0.1,0l-0.1,0l-0.1,0l-0.1,0l-0.1,0l-0.1,0
				l-0.1,0l-0.1,0l-0.1,0l-0.1,0l-0.1,0l-0.1,0l-0.1,0l-0.1,0l-0.1,0l-0.1,0l-0.1,0l-0.1,0l-0.1,0l-0.1,0.1l-0.1,0.1l-0.1,0.1
				l-0.1,0.1l-0.1,0.1l-0.1,0.1l-0.1,0.1l-0.1,0.1l-0.1,0.1l-0.1,0.1l0,0.1l0,0.1l0,0.1l0,0.1l0,0.1l0,0.1l0,0.1l0,0.1l0,0.1l0,0.1
				l0,0.1l0,0.1l0,0.1l0,0.1l0,0.1l0,0.1l0,0.1v-32l0-0.1l0-0.1l0-0.1l0-0.1l0-0.1l0-0.1l0-0.1l0-0.1l0-0.1l0-0.1l0-0.1l0-0.1l0-0.1
				l0-0.1l0-0.1l0-0.1l0-0.1l0.1-0.1l0.1-0.1l0.1-0.1l0.1-0.1l0.1-0.1l0.1-0.1l0.1-0.1l0.1-0.1l0.1-0.1l0.1,0l0.1,0l0.1,0l0.1,0
				l0.1,0l0.1,0l0.1,0l0.1,0l0.1,0l0.1,0l0.1,0l0.1,0l0.1,0l0.1,0l0.1,0l0.1,0l0.1,0l0.1,0l0.1,0l0.1,0l0.1,0l0.1,0l0.1,0l0.1,0
				l0.1,0l0.1,0l0.1,0l0.1,0l0.1,0l0.1,0l0.1,0l0.1,0l0.1,0l0.1,0l0.1,0l0.1,0l0.1,0l0.1,0l0.1,0l0.1,0l0.1,0l0.1,0l0.1,0l0.1,0
				l0.1,0l0.1,0l0.1,0l0.1,0l0.1,0l0.1,0l0.1,0l0.1,0l0.1,0l0.1,0l0.1,0l0.1,0l0.1,0l0.1,0l0.1,0l0.1,0l0.1,0l0.1,0l0.1,0l0.1,0
				l0.1,0l0.1,0l0.1,0l0.1,0l0.1,0l0.1,0l0.1,0l0.1,0l0.1,0l0.1,0l0.1,0l0,0l0,0l0,0l0,0l0,0l0,0l0,0l0,0l0,0l0,0l0,0l0,0l0,0l0,0
				l0,0l0,0l0,0l0,0l0,0l0,0l0,0l0,0l0,0L153.6,25.9L153.6,25.9L153.6,25.9z M158.6,26v32l0-0.1l0-0.1l0-0.1l0-0.1l0-0.1l0-0.1
				l0-0.1l0-0.1l0-0.1l0-0.1l-0.1-0.1l-0.1-0.1l-0.1-0.1l-0.1-0.1l-0.1-0.1l-0.1-0.1l-0.1-0.1l-0.1-0.1l-0.1-0.1l-0.1-0.1l-0.1-0.1
				l-0.1-0.1l-0.1-0.1l-0.1-0.1l-0.1-0.1l-0.1-0.1l-0.1-0.1l-0.1-0.1l-0.1-0.1l-0.1-0.1l-0.1-0.1l-0.1-0.1v-32l0.1,0.1l0.1,0.1
				l0.1,0.1l0.1,0.1l0.1,0.1l0.1,0.1l0.1,0.1l0.1,0.1l0.1,0.1l0.1,0.1l0.1,0.1l0.1,0.1l0.1,0.1l0.1,0.1l0.1,0.1l0.1,0.1l0.1,0.1
				l0.1,0.1l0.1,0.1l0.1,0.1l0.1,0.1l0.1,0.1l0,0.1l0,0.1l0,0.1l0,0.1l0,0.1l0,0.1l0,0.1l0,0.1l0,0.1L158.6,26z"/>
			<polygon class="st25" points="153.6,57.7 153.6,57.7 153.5,57.6 153.5,57.6 153.5,57.6 153.5,57.5 153.5,57.5 153.5,57.4 
				153.5,57.4 153.4,57.3 153.4,57.3 153.4,57.3 153.4,57.2 153.3,57.2 153.3,57.1 153.3,57.1 153.2,57 153.2,57 153.1,56.9 
				153.1,56.9 153.1,56.9 153,56.8 153,56.8 152.9,56.7 152.9,56.7 152.8,56.6 152.8,56.6 152.7,56.6 152.6,56.5 152.6,56.5 
				152.5,56.4 152.4,56.4 152.4,56.4 152.4,24.4 152.4,24.4 152.5,24.5 152.6,24.5 152.6,24.6 152.7,24.6 152.8,24.6 152.8,24.7 
				152.9,24.7 152.9,24.8 153,24.8 153,24.8 153.1,24.9 153.1,24.9 153.1,25 153.2,25 153.2,25.1 153.3,25.1 153.3,25.2 153.3,25.2 
				153.4,25.2 153.4,25.3 153.4,25.3 153.4,25.4 153.5,25.4 153.5,25.5 153.5,25.5 153.5,25.6 153.5,25.6 153.5,25.6 153.5,25.7 
				153.6,25.7 153.6,25.8 153.6,25.9 153.6,25.9 153.6,57.9 153.6,57.8 			"/>
			<polygon class="st24" points="152.4,24.4 152.4,56.4 152.3,56.3 152.2,56.3 152.1,56.2 152,56.2 151.9,56.1 151.8,56.1 151.8,56 
				151.7,56 151.6,56 151.5,55.9 151.4,55.9 151.3,55.9 151.2,55.8 151.1,55.8 151,55.8 150.9,55.7 150.8,55.7 150.7,55.7 
				150.6,55.7 150.5,55.6 150.4,55.6 150.3,55.6 150.2,55.6 150.1,55.6 150,55.5 149.9,55.5 149.7,55.5 149.6,55.5 149.5,55.5 
				149.4,55.5 149.3,55.5 149.2,55.5 149.2,23.5 149.3,23.5 149.4,23.5 149.5,23.5 149.6,23.5 149.7,23.5 149.9,23.6 150,23.6 
				150.1,23.6 150.2,23.6 150.3,23.6 150.4,23.6 150.5,23.7 150.6,23.7 150.7,23.7 150.8,23.7 150.9,23.8 151,23.8 151.1,23.8 
				151.2,23.9 151.3,23.9 151.4,23.9 151.5,24 151.6,24 151.7,24 151.8,24.1 151.8,24.1 151.9,24.2 152,24.2 152.1,24.3 152.2,24.3 
				152.3,24.3 			"/>
			<polygon class="st26" points="149.2,23.5 149.2,55.5 149.1,55.5 149,55.4 148.9,55.4 148.9,55.4 148.8,55.4 148.7,55.4 
				148.6,55.5 148.5,55.5 148.4,55.5 148.3,55.5 148.2,55.5 148.1,55.5 148,55.5 147.9,55.5 147.9,55.5 147.8,55.5 147.7,55.6 
				147.6,55.6 147.5,55.6 147.4,55.6 147.3,55.6 147.3,55.7 147.2,55.7 147.1,55.7 147,55.7 147,55.8 146.9,55.8 146.8,55.8 
				146.7,55.9 146.7,55.9 146.6,55.9 146.5,56 146.5,24 146.6,24 146.7,23.9 146.7,23.9 146.8,23.9 146.9,23.8 147,23.8 147,23.8 
				147.1,23.7 147.2,23.7 147.3,23.7 147.3,23.7 147.4,23.6 147.5,23.6 147.6,23.6 147.7,23.6 147.8,23.6 147.9,23.6 147.9,23.5 
				148,23.5 148.1,23.5 148.2,23.5 148.3,23.5 148.4,23.5 148.5,23.5 148.6,23.5 148.7,23.5 148.8,23.5 148.9,23.5 148.9,23.5 
				149,23.5 149.1,23.5 			"/>
			<polygon class="st25" points="146.5,24 146.5,56 146.4,56 146.4,56.1 146.3,56.1 146.2,56.2 146.1,56.2 146.1,56.3 146,56.3 
				146,56.4 145.9,56.4 145.8,56.5 145.8,56.6 145.7,56.6 145.7,56.7 145.7,56.8 145.6,56.8 145.6,56.9 145.5,56.9 145.5,57 
				145.5,57.1 145.5,57.1 145.4,57.2 145.4,57.3 145.4,57.4 145.4,57.4 145.4,57.5 145.4,57.6 145.4,57.6 145.4,57.7 145.4,25.7 
				145.4,25.7 145.4,25.6 145.4,25.5 145.4,25.5 145.4,25.4 145.4,25.3 145.4,25.3 145.5,25.2 145.5,25.1 145.5,25 145.5,25 
				145.6,24.9 145.6,24.9 145.7,24.8 145.7,24.7 145.7,24.7 145.8,24.6 145.8,24.5 145.9,24.5 146,24.4 146,24.4 146.1,24.3 
				146.1,24.3 146.2,24.2 146.3,24.2 146.4,24.1 146.4,24.1 			"/>
			<polygon class="st27" points="158.6,26.3 158.6,58.2 158.6,58.1 158.6,58 158.6,57.9 158.6,26 158.6,26.1 158.6,26.2 			"/>
			<polygon class="st25" points="158.6,26 158.6,57.9 158.6,57.8 158.6,57.7 158.6,57.6 158.5,57.5 158.5,57.4 158.5,57.3 
				158.4,57.2 158.4,57.1 158.4,57 158.3,56.9 158.3,56.7 158.2,56.6 158.1,56.5 158.1,56.4 158,56.3 157.9,56.2 157.8,56.1 
				157.8,56 157.7,55.9 157.6,55.8 157.5,55.7 157.4,55.6 157.3,55.5 157.2,55.3 157.1,55.2 157,55.1 156.8,55 156.7,54.9 
				156.6,54.8 156.5,54.7 156.3,54.6 156.2,54.5 156.2,22.6 156.3,22.7 156.5,22.8 156.6,22.9 156.7,23 156.8,23.1 157,23.2 
				157.1,23.3 157.2,23.4 157.3,23.5 157.4,23.6 157.5,23.7 157.6,23.8 157.7,23.9 157.8,24 157.8,24.1 157.9,24.2 158,24.3 
				158.1,24.5 158.1,24.6 158.2,24.7 158.3,24.8 158.3,24.9 158.4,25 158.4,25.1 158.4,25.2 158.5,25.3 158.5,25.4 158.5,25.5 
				158.6,25.6 158.6,25.8 158.6,25.9 			"/>
			<polygon class="st28" points="160,26.3 160,58.3 159.9,58.4 159.9,58.5 159.9,58.6 159.9,58.8 159.9,58.9 159.8,59 159.8,59.1 
				159.8,59.2 159.7,59.3 159.7,59.5 159.6,59.6 159.6,59.7 159.5,59.8 159.4,59.9 159.3,60 159.3,60.1 159.2,60.2 159.1,60.3 
				159,60.4 158.9,60.5 158.8,60.6 158.7,60.7 158.6,60.8 158.4,60.9 158.3,61 158.2,61.1 158.1,61.2 157.9,61.3 157.8,61.4 
				157.6,61.5 157.5,61.5 157.3,61.6 157.2,61.7 157,61.7 156.9,61.8 156.7,61.9 156.6,61.9 156.4,62 156.3,62 156.1,62.1 
				155.9,62.1 155.8,62.2 155.6,62.2 155.4,62.2 155.2,62.3 155.1,62.3 154.9,62.3 154.7,62.4 154.5,62.4 154.3,62.4 154.2,62.4 
				154,62.4 153.8,62.5 153.6,62.5 153.4,62.5 153.2,62.5 153,62.5 152.8,62.5 152.6,62.5 152.5,62.5 152.3,62.5 152.1,62.4 
				151.9,62.4 151.7,62.4 151.5,62.4 151.3,62.4 151.1,62.4 150.9,62.3 150.7,62.3 150.5,62.3 150.3,62.2 150.2,62.2 150,62.2 
				149.8,62.1 149.6,62.1 149.4,62 149.2,62 149,61.9 148.9,61.9 148.7,61.8 148.5,61.7 148.3,61.7 148.1,61.6 148,61.6 147.8,61.5 
				147.6,61.4 147.4,61.3 147.3,61.3 147.1,61.2 146.9,61.1 146.8,61 146.6,60.9 146.5,60.8 146.3,60.8 146.2,60.7 146.1,60.6 
				146,60.5 145.8,60.4 145.7,60.4 145.6,60.3 145.5,60.2 145.4,60.1 145.3,60 145.2,59.9 145.1,59.9 145,59.8 145,59.7 144.9,59.6 
				144.8,59.5 144.7,59.4 144.7,59.3 144.6,59.2 144.5,59.2 144.5,59.1 144.4,59 144.4,58.9 144.3,58.8 144.3,58.7 144.2,58.6 
				144.2,58.5 144.2,58.4 144.2,58.3 144.1,58.3 144.1,58.2 144.1,58.1 144.1,58 144.1,57.9 144.1,57.8 144.1,25.8 144.1,25.9 
				144.1,26 144.1,26.1 144.1,26.2 144.1,26.3 144.2,26.4 144.2,26.5 144.2,26.6 144.2,26.6 144.3,26.7 144.3,26.8 144.4,26.9 
				144.4,27 144.5,27.1 144.5,27.2 144.6,27.3 144.7,27.4 144.7,27.5 144.8,27.5 144.9,27.6 145,27.7 145,27.8 145.1,27.9 145.2,28 
				145.3,28.1 145.4,28.1 145.5,28.2 145.6,28.3 145.7,28.4 145.8,28.5 146,28.6 146.1,28.6 146.2,28.7 146.3,28.8 146.5,28.9 
				146.6,29 146.8,29 146.9,29.1 147.1,29.2 147.3,29.3 147.4,29.4 147.6,29.4 147.8,29.5 148,29.6 148.1,29.7 148.3,29.7 
				148.5,29.8 148.7,29.8 148.9,29.9 149,30 149.2,30 149.4,30.1 149.6,30.1 149.8,30.1 150,30.2 150.2,30.2 150.3,30.3 150.5,30.3 
				150.7,30.3 150.9,30.4 151.1,30.4 151.3,30.4 151.5,30.4 151.7,30.5 151.9,30.5 152.1,30.5 152.3,30.5 152.5,30.5 152.6,30.5 
				152.8,30.5 153,30.5 153.2,30.5 153.4,30.5 153.6,30.5 153.8,30.5 154,30.5 154.2,30.5 154.3,30.4 154.5,30.4 154.7,30.4 
				154.9,30.4 155.1,30.3 155.2,30.3 155.4,30.3 155.6,30.2 155.8,30.2 155.9,30.2 156.1,30.1 156.3,30.1 156.4,30 156.6,30 
				156.7,29.9 156.9,29.8 157,29.8 157.2,29.7 157.3,29.6 157.5,29.6 157.6,29.5 157.8,29.4 157.9,29.3 158.1,29.2 158.2,29.2 
				158.3,29.1 158.4,29 158.6,28.9 158.7,28.8 158.8,28.7 158.9,28.6 159,28.5 159.1,28.4 159.2,28.3 159.3,28.2 159.3,28.1 
				159.4,27.9 159.5,27.8 159.6,27.7 159.6,27.6 159.7,27.5 159.7,27.4 159.8,27.3 159.8,27.1 159.8,27 159.9,26.9 159.9,26.8 
				159.9,26.7 159.9,26.5 159.9,26.4 			"/>
			<polygon class="st28" points="160,26.3 160,58.3 159.9,58.4 159.9,58.5 159.9,58.6 159.9,58.8 159.9,58.9 159.8,59 159.8,59.1 
				159.8,59.2 159.7,59.3 159.7,59.5 159.6,59.6 159.6,59.7 159.5,59.8 159.4,59.9 159.3,60 159.3,60.1 159.2,60.2 159.1,60.3 
				159,60.4 158.9,60.5 158.8,60.6 158.7,60.7 158.6,60.8 158.4,60.9 158.3,61 158.2,61.1 158.1,61.2 157.9,61.3 157.8,61.4 
				157.8,29.4 157.9,29.3 158.1,29.2 158.2,29.2 158.3,29.1 158.4,29 158.6,28.9 158.7,28.8 158.8,28.7 158.9,28.6 159,28.5 
				159.1,28.4 159.2,28.3 159.3,28.2 159.3,28.1 159.4,27.9 159.5,27.8 159.6,27.7 159.6,27.6 159.7,27.5 159.7,27.4 159.8,27.3 
				159.8,27.1 159.8,27 159.9,26.9 159.9,26.8 159.9,26.7 159.9,26.5 159.9,26.4 			"/>
			<polygon class="st26" points="154.9,26 154.9,57.9 154.9,58 154.9,58.1 154.9,58.1 154.9,58.2 154.9,58.2 154.9,58.3 154.8,58.4 
				154.8,58.4 154.8,58.5 154.8,58.5 154.7,58.6 154.7,58.7 154.7,58.7 154.6,58.8 154.6,58.8 154.5,58.9 154.5,58.9 154.5,59 
				154.4,59.1 154.3,59.1 154.3,59.2 154.2,59.2 154.2,59.3 154.1,59.3 154,59.3 154,59.4 153.9,59.4 153.8,59.5 153.8,27.5 
				153.9,27.5 154,27.4 154,27.4 154.1,27.3 154.2,27.3 154.2,27.2 154.3,27.2 154.3,27.1 154.4,27.1 154.5,27 154.5,27 154.5,26.9 
				154.6,26.9 154.6,26.8 154.7,26.8 154.7,26.7 154.7,26.6 154.8,26.6 154.8,26.5 154.8,26.5 154.8,26.4 154.9,26.3 154.9,26.3 
				154.9,26.2 154.9,26.2 154.9,26.1 154.9,26 			"/>
			<polygon class="st28" points="152.3,30.5 152.3,62.5 152.1,62.4 151.9,62.4 151.7,62.4 151.5,62.4 151.3,62.4 151.1,62.4 
				150.9,62.3 150.7,62.3 150.5,62.3 150.3,62.2 150.2,62.2 150,62.2 149.8,62.1 149.6,62.1 149.4,62 149.2,62 149,61.9 148.9,61.9 
				148.7,61.8 148.5,61.7 148.3,61.7 148.1,61.6 148,61.6 147.8,61.5 147.6,61.4 147.4,61.3 147.3,61.3 147.1,61.2 146.9,61.1 
				146.8,61 146.6,60.9 146.5,60.8 146.5,28.9 146.6,29 146.8,29 146.9,29.1 147.1,29.2 147.3,29.3 147.4,29.4 147.6,29.4 
				147.8,29.5 148,29.6 148.1,29.7 148.3,29.7 148.5,29.8 148.7,29.8 148.9,29.9 149,30 149.2,30 149.4,30.1 149.6,30.1 149.8,30.1 
				150,30.2 150.2,30.2 150.3,30.3 150.5,30.3 150.7,30.3 150.9,30.4 151.1,30.4 151.3,30.4 151.5,30.4 151.7,30.5 151.9,30.5 
				152.1,30.5 			"/>
			<polygon class="st29" points="146.5,28.9 146.5,60.8 146.3,60.8 146.2,60.7 146.1,60.6 146,60.5 145.8,60.4 145.7,60.4 
				145.6,60.3 145.5,60.2 145.4,60.1 145.3,60 145.2,59.9 145.1,59.9 145,59.8 145,59.7 144.9,59.6 144.8,59.5 144.7,59.4 
				144.7,59.3 144.6,59.2 144.5,59.2 144.5,59.1 144.4,59 144.4,58.9 144.3,58.8 144.3,58.7 144.2,58.6 144.2,58.5 144.2,58.4 
				144.2,58.3 144.1,58.3 144.1,58.2 144.1,58.1 144.1,58 144.1,57.9 144.1,57.8 144.1,25.8 144.1,25.9 144.1,26 144.1,26.1 
				144.1,26.2 144.1,26.3 144.2,26.4 144.2,26.5 144.2,26.6 144.2,26.6 144.3,26.7 144.3,26.8 144.4,26.9 144.4,27 144.5,27.1 
				144.5,27.2 144.6,27.3 144.7,27.4 144.7,27.5 144.8,27.5 144.9,27.6 145,27.7 145,27.8 145.1,27.9 145.2,28 145.3,28.1 
				145.4,28.1 145.5,28.2 145.6,28.3 145.7,28.4 145.8,28.5 146,28.6 146.1,28.6 146.2,28.7 146.3,28.8 			"/>
			<polygon class="st24" points="153.8,27.5 153.8,59.5 152.9,58.9 152.9,27 			"/>
			<polygon class="st30" points="157.8,29.4 157.8,61.4 157.6,61.5 157.5,61.5 157.3,61.6 157.2,61.7 157,61.7 156.9,61.8 
				156.7,61.9 156.6,61.9 156.4,62 156.3,62 156.1,62.1 155.9,62.1 155.8,62.2 155.6,62.2 155.4,62.2 155.2,62.3 155.1,62.3 
				154.9,62.3 154.7,62.4 154.5,62.4 154.3,62.4 154.2,62.4 154,62.4 153.8,62.5 153.6,62.5 153.4,62.5 153.2,62.5 153,62.5 
				152.8,62.5 152.6,62.5 152.5,62.5 152.3,62.5 152.3,30.5 152.5,30.5 152.6,30.5 152.8,30.5 153,30.5 153.2,30.5 153.4,30.5 
				153.6,30.5 153.8,30.5 154,30.5 154.2,30.5 154.3,30.4 154.5,30.4 154.7,30.4 154.9,30.4 155.1,30.3 155.2,30.3 155.4,30.3 
				155.6,30.2 155.8,30.2 155.9,30.2 156.1,30.1 156.3,30.1 156.4,30 156.6,30 156.7,29.9 156.9,29.8 157,29.8 157.2,29.7 
				157.3,29.6 157.5,29.6 157.6,29.5 			"/>
			<path class="st31" d="M152.9,27c0.5-0.3,0.8-0.7,0.7-1.2c-0.1-0.5-0.5-1-1.2-1.4c-0.9-0.5-2-0.8-3.1-0.9c-1-0.1-2,0.1-2.7,0.5
				c-0.9,0.5-1.3,1.2-1.1,2c0.1,0.8,0.8,1.6,2,2.3c1.4,0.8,3.2,1.3,5,1.4c1.7,0.1,3.3-0.2,4.4-0.9c1.3-0.7,1.9-1.8,1.8-2.9
				c-0.1-1.1-0.9-2.3-2.4-3.4l1-0.5c1.7,1.2,2.6,2.6,2.7,3.8c0.1,1.3-0.6,2.6-2.2,3.5c-1.5,0.8-3.5,1.2-5.5,1.1
				c-2-0.1-4.1-0.7-5.8-1.6c-1.4-0.8-2.2-1.8-2.4-2.8c-0.2-1,0.3-2,1.5-2.6c1-0.6,2.4-0.8,3.8-0.7c1.4,0.1,2.8,0.5,4,1.1
				c1,0.6,1.5,1.2,1.6,1.8c0.1,0.7-0.3,1.4-1.1,1.8L152.9,27z"/>
			<g>
				<polygon class="st32" points="160.1,42.5 160.1,47.1 160.1,47.2 160.1,47.4 160.1,47.5 160.1,47.6 160,47.7 160,47.8 160,48 
					159.9,48.1 159.9,48.2 159.8,48.3 159.8,48.4 159.7,48.6 159.6,48.7 159.6,48.8 159.5,48.9 159.4,49 159.3,49.1 159.2,49.2 
					159.1,49.3 159,49.4 158.9,49.5 158.8,49.6 158.7,49.7 158.6,49.8 158.5,49.9 158.3,50 158.2,50.1 158,50.2 157.9,50.3 
					157.7,50.4 157.6,50.4 157.5,50.5 157.3,50.6 157.2,50.7 157,50.7 156.8,50.8 156.7,50.8 156.5,50.9 156.4,50.9 156.2,51 
					156,51 155.8,51.1 155.7,51.1 155.5,51.2 155.3,51.2 155.1,51.2 154.9,51.3 154.8,51.3 154.6,51.3 154.4,51.3 154.2,51.4 
					154,51.4 153.8,51.4 153.6,51.4 153.4,51.4 153.2,51.4 153,51.4 152.9,51.4 152.7,51.4 152.5,51.4 152.3,51.4 152.1,51.4 
					151.9,51.4 151.7,51.3 151.5,51.3 151.3,51.3 151.1,51.3 150.9,51.3 150.7,51.2 150.5,51.2 150.3,51.2 150.1,51.1 149.9,51.1 
					149.7,51 149.5,51 149.4,50.9 149.2,50.9 149,50.8 148.8,50.8 148.6,50.7 148.4,50.7 148.2,50.6 148.1,50.5 147.9,50.5 
					147.7,50.4 147.5,50.3 147.3,50.2 147.2,50.2 147,50.1 146.8,50 146.7,49.9 146.5,49.8 146.3,49.7 146.2,49.7 146.1,49.6 
					146,49.5 145.8,49.4 145.7,49.3 145.6,49.2 145.5,49.2 145.4,49.1 145.3,49 145.2,48.9 145.1,48.8 145,48.7 144.9,48.6 
					144.8,48.6 144.7,48.5 144.7,48.4 144.6,48.3 144.5,48.2 144.4,48.1 144.4,48 144.3,47.9 144.3,47.8 144.2,47.7 144.2,47.6 
					144.1,47.6 144.1,47.5 144,47.4 144,47.3 144,47.2 144,47.1 143.9,47 143.9,46.9 143.9,46.8 143.9,46.7 143.9,46.6 143.9,42 
					143.9,42.1 143.9,42.2 143.9,42.3 143.9,42.4 144,42.5 144,42.6 144,42.6 144,42.7 144.1,42.8 144.1,42.9 144.2,43 144.2,43.1 
					144.3,43.2 144.3,43.3 144.4,43.4 144.4,43.5 144.5,43.6 144.6,43.7 144.7,43.7 144.7,43.8 144.8,43.9 144.9,44 145,44.1 
					145.1,44.2 145.2,44.3 145.3,44.4 145.4,44.4 145.5,44.5 145.6,44.6 145.7,44.7 145.8,44.8 146,44.9 146.1,44.9 146.2,45 
					146.3,45.1 146.5,45.2 146.7,45.3 146.8,45.4 147,45.5 147.2,45.5 147.3,45.6 147.5,45.7 147.7,45.8 147.9,45.8 148.1,45.9 
					148.2,46 148.4,46 148.6,46.1 148.8,46.1 149,46.2 149.2,46.3 149.4,46.3 149.5,46.4 149.7,46.4 149.9,46.4 150.1,46.5 
					150.3,46.5 150.5,46.6 150.7,46.6 150.9,46.6 151.1,46.7 151.3,46.7 151.5,46.7 151.7,46.7 151.9,46.7 152.1,46.7 152.3,46.8 
					152.5,46.8 152.7,46.8 152.9,46.8 153,46.8 153.2,46.8 153.4,46.8 153.6,46.8 153.8,46.8 154,46.7 154.2,46.7 154.4,46.7 
					154.6,46.7 154.8,46.7 154.9,46.6 155.1,46.6 155.3,46.6 155.5,46.5 155.7,46.5 155.8,46.5 156,46.4 156.2,46.4 156.4,46.3 
					156.5,46.3 156.7,46.2 156.8,46.2 157,46.1 157.2,46 157.3,46 157.5,45.9 157.6,45.8 157.7,45.7 157.9,45.7 158,45.6 
					158.2,45.5 158.3,45.4 158.5,45.3 158.6,45.2 158.7,45.1 158.8,45 158.9,44.9 159,44.8 159.1,44.7 159.2,44.6 159.3,44.5 
					159.4,44.4 159.5,44.3 159.6,44.2 159.6,44 159.7,43.9 159.8,43.8 159.8,43.7 159.9,43.6 159.9,43.5 160,43.3 160,43.2 
					160,43.1 160.1,43 160.1,42.9 160.1,42.7 160.1,42.6 				"/>
				<polygon class="st32" points="160.1,42.5 160.1,47.1 160.1,47.2 160.1,47.4 160.1,47.5 160.1,47.6 160,47.7 160,47.8 160,48 
					159.9,48.1 159.9,48.2 159.8,48.3 159.8,48.4 159.7,48.6 159.6,48.7 159.6,48.8 159.5,48.9 159.4,49 159.3,49.1 159.2,49.2 
					159.1,49.3 159,49.4 158.9,49.5 158.8,49.6 158.7,49.7 158.6,49.8 158.5,49.9 158.3,50 158.2,50.1 158,50.2 157.9,50.3 
					157.9,45.7 158,45.6 158.2,45.5 158.3,45.4 158.5,45.3 158.6,45.2 158.7,45.1 158.8,45 158.9,44.9 159,44.8 159.1,44.7 
					159.2,44.6 159.3,44.5 159.4,44.4 159.5,44.3 159.6,44.2 159.6,44 159.7,43.9 159.8,43.8 159.8,43.7 159.9,43.6 159.9,43.5 
					160,43.3 160,43.2 160,43.1 160.1,43 160.1,42.9 160.1,42.7 160.1,42.6 				"/>
				<polygon class="st32" points="152.3,46.8 152.3,51.4 152.1,51.4 151.9,51.4 151.7,51.3 151.5,51.3 151.3,51.3 151.1,51.3 
					150.9,51.3 150.7,51.2 150.5,51.2 150.3,51.2 150.1,51.1 149.9,51.1 149.7,51 149.5,51 149.4,50.9 149.2,50.9 149,50.8 
					148.8,50.8 148.6,50.7 148.4,50.7 148.2,50.6 148.1,50.5 147.9,50.5 147.7,50.4 147.5,50.3 147.3,50.2 147.2,50.2 147,50.1 
					146.8,50 146.7,49.9 146.5,49.8 146.3,49.7 146.3,45.1 146.5,45.2 146.7,45.3 146.8,45.4 147,45.5 147.2,45.5 147.3,45.6 
					147.5,45.7 147.7,45.8 147.9,45.8 148.1,45.9 148.2,46 148.4,46 148.6,46.1 148.8,46.1 149,46.2 149.2,46.3 149.4,46.3 
					149.5,46.4 149.7,46.4 149.9,46.4 150.1,46.5 150.3,46.5 150.5,46.6 150.7,46.6 150.9,46.6 151.1,46.7 151.3,46.7 151.5,46.7 
					151.7,46.7 151.9,46.7 152.1,46.7 				"/>
				<polygon class="st33" points="146.3,45.1 146.3,49.7 146.2,49.7 146.1,49.6 146,49.5 145.8,49.4 145.7,49.3 145.6,49.2 
					145.5,49.2 145.4,49.1 145.3,49 145.2,48.9 145.1,48.8 145,48.7 144.9,48.6 144.8,48.6 144.7,48.5 144.7,48.4 144.6,48.3 
					144.5,48.2 144.4,48.1 144.4,48 144.3,47.9 144.3,47.8 144.2,47.7 144.2,47.6 144.1,47.6 144.1,47.5 144,47.4 144,47.3 
					144,47.2 144,47.1 143.9,47 143.9,46.9 143.9,46.8 143.9,46.7 143.9,46.6 143.9,42 143.9,42.1 143.9,42.2 143.9,42.3 
					143.9,42.4 144,42.5 144,42.6 144,42.6 144,42.7 144.1,42.8 144.1,42.9 144.2,43 144.2,43.1 144.3,43.2 144.3,43.3 144.4,43.4 
					144.4,43.5 144.5,43.6 144.6,43.7 144.7,43.7 144.7,43.8 144.8,43.9 144.9,44 145,44.1 145.1,44.2 145.2,44.3 145.3,44.4 
					145.4,44.4 145.5,44.5 145.6,44.6 145.7,44.7 145.8,44.8 146,44.9 146.1,44.9 146.2,45 				"/>
				<polygon class="st34" points="157.9,45.7 157.9,50.3 157.7,50.4 157.6,50.4 157.5,50.5 157.3,50.6 157.2,50.7 157,50.7 
					156.8,50.8 156.7,50.8 156.5,50.9 156.4,50.9 156.2,51 156,51 155.8,51.1 155.7,51.1 155.5,51.2 155.3,51.2 155.1,51.2 
					154.9,51.3 154.8,51.3 154.6,51.3 154.4,51.3 154.2,51.4 154,51.4 153.8,51.4 153.6,51.4 153.4,51.4 153.2,51.4 153,51.4 
					152.9,51.4 152.7,51.4 152.5,51.4 152.3,51.4 152.3,46.8 152.5,46.8 152.7,46.8 152.9,46.8 153,46.8 153.2,46.8 153.4,46.8 
					153.6,46.8 153.8,46.8 154,46.7 154.2,46.7 154.4,46.7 154.6,46.7 154.8,46.7 154.9,46.6 155.1,46.6 155.3,46.6 155.5,46.5 
					155.7,46.5 155.8,46.5 156,46.4 156.2,46.4 156.4,46.3 156.5,46.3 156.7,46.2 156.8,46.2 157,46.1 157.2,46 157.3,46 
					157.5,45.9 157.6,45.8 157.7,45.7 				"/>
				<path class="st35" d="M160,41.4c0.1,0.3,0.1,0.5,0.2,0.8c0.1,1.4-0.6,2.6-2.2,3.6c-1.5,0.9-3.5,1.2-5.6,1.1
					c-2.1-0.1-4.2-0.7-5.9-1.7c-1.4-0.8-2.3-1.8-2.4-2.8c-0.1-0.4,0-0.9,0.1-1.2v0.6c0,0.2,0,0.3,0,0.5c0.2,1,1,1.9,2.4,2.8
					c1.7,1,3.8,1.5,5.8,1.6c2.1,0.1,4.1-0.2,5.5-1.1c1.5-0.9,2.2-2,2.2-3.3V41.4z"/>
				<g>
					<polygon class="st32" points="152.4,54.9 152.2,54.7 152.2,54.7 152.2,54.8 152.2,54.8 152.2,54.8 152.2,54.8 152.2,54.8 
						152.2,54.8 152.2,54.8 152.4,54.9 152.4,54.9 152.4,54.9 152.4,54.9 152.4,54.9 152.4,54.9 152.4,54.9 152.4,54.9 					"/>
					<polygon class="st32" points="152.4,54.9 152.2,54.8 151.6,56.3 151.8,56.4 					"/>
					<polygon class="st32" points="153.7,55 153.5,54.9 153.6,54.9 153.6,54.9 153.8,55.1 153.8,55 					"/>
					<polygon class="st32" points="153.8,55.1 153.6,54.9 154.1,56.5 154.3,56.6 					"/>
					
						<rect x="156.5" y="50.4" transform="matrix(0.4992 -0.8665 0.8665 0.4992 34.6012 160.9562)" class="st32" width="0" height="0.3"/>
					<polygon class="st32" points="156.7,50.6 156.4,50.5 156.4,50.5 156.6,50.6 					"/>
					<polygon class="st32" points="156.6,50.6 156.4,50.5 156.4,50.5 156.6,50.6 					"/>
					<polygon class="st32" points="156.6,50.6 156.4,50.5 156.4,50.5 156.6,50.6 					"/>
					<polygon class="st32" points="156.6,50.6 156.4,50.5 156.4,50.5 156.6,50.6 					"/>
					
						<rect x="156.5" y="50.4" transform="matrix(0.5003 -0.8658 0.8658 0.5003 34.3994 160.7475)" class="st32" width="0" height="0.3"/>
					<polygon class="st32" points="156.6,50.6 156.4,50.5 156.3,50.5 156.5,50.6 					"/>
					
						<rect x="156.4" y="50.5" transform="matrix(0.4992 -0.8665 0.8665 0.4992 34.5117 160.8766)" class="st32" width="0" height="0.3"/>
					<polygon class="st32" points="156.5,50.6 156.3,50.5 156.3,50.5 156.5,50.7 					"/>
					
						<rect x="156.4" y="50.5" transform="matrix(0.5001 -0.8659 0.8659 0.5001 34.3685 160.7226)" class="st32" width="0" height="0.3"/>
					<polygon class="st32" points="156.5,50.7 156.3,50.5 156.3,50.5 156.5,50.7 					"/>
					
						<rect x="156.4" y="50.5" transform="matrix(0.4989 -0.8667 0.8667 0.4989 34.4987 160.8701)" class="st32" width="0" height="0.3"/>
					<polygon class="st32" points="156.5,50.7 156.2,50.5 156.2,50.5 156.4,50.7 					"/>
					<polygon class="st32" points="156.4,50.7 156.2,50.5 156.2,50.5 156.4,50.7 					"/>
					<polygon class="st32" points="156.4,50.7 156.2,50.5 156.2,50.6 156.4,50.7 					"/>
					<polygon class="st32" points="156.4,50.7 156.2,50.6 156.2,50.6 156.4,50.7 					"/>
					<polygon class="st32" points="156.4,50.7 156.2,50.6 156.1,50.6 156.3,50.7 					"/>
					<polygon class="st32" points="156.3,50.7 156.1,50.6 156.1,50.6 156.3,50.7 					"/>
					<polygon class="st32" points="156.3,50.7 156.1,50.6 156.1,50.6 156.3,50.7 					"/>
					<polygon class="st32" points="156.3,50.7 156.1,50.6 156.1,50.6 156.3,50.7 					"/>
					<polygon class="st32" points="156.3,50.7 156.1,50.6 156,50.6 156.3,50.7 					"/>
					
						<rect x="156.1" y="50.5" transform="matrix(0.4994 -0.8664 0.8664 0.4994 34.282 160.6371)" class="st32" width="0" height="0.3"/>
					<polygon class="st32" points="156.3,50.7 156,50.6 156,50.6 156.2,50.7 					"/>
					
						<rect x="156.1" y="50.5" transform="matrix(0.5003 -0.8658 0.8658 0.5003 34.1433 160.4819)" class="st32" width="0" height="0.3"/>
					<polygon class="st32" points="156.2,50.7 156,50.6 156,50.6 156.2,50.7 					"/>
					<polygon class="st32" points="156.2,50.7 156,50.6 155.9,50.6 156.2,50.7 					"/>
					
						<rect x="156" y="50.5" transform="matrix(0.4989 -0.8667 0.8667 0.4989 34.2793 160.6268)" class="st32" width="0" height="0.3"/>
					<polygon class="st32" points="156.2,50.7 155.9,50.6 155.9,50.6 156.1,50.7 					"/>
					
						<rect x="156" y="50.5" transform="matrix(0.4991 -0.8666 0.8666 0.4991 34.2373 160.5758)" class="st32" width="0" height="0.3"/>
					<polygon class="st32" points="156.1,50.7 155.9,50.6 155.9,50.6 156.1,50.7 					"/>
					<polygon class="st32" points="156.1,50.7 155.9,50.6 155.9,50.6 156.1,50.7 					"/>
					<polygon class="st32" points="156.1,50.7 155.9,50.6 155.8,50.6 156.1,50.7 					"/>
					<polygon class="st32" points="156.1,50.7 155.8,50.6 155.8,50.6 156,50.7 					"/>
					<polygon class="st32" points="156,50.7 155.8,50.6 155.8,50.6 156,50.7 					"/>
					<polygon class="st32" points="156,50.7 155.8,50.6 155.8,50.6 156,50.8 					"/>
					<polygon class="st32" points="156,50.8 155.8,50.6 155.8,50.6 156,50.8 					"/>
					<polygon class="st32" points="156,50.8 155.8,50.6 155.7,50.6 156,50.8 					"/>
					<polygon class="st32" points="156,50.8 155.7,50.6 155.7,50.6 156,50.8 					"/>
					<polygon class="st32" points="156,50.8 155.7,50.6 155.7,50.6 155.9,50.8 					"/>
					
						<rect x="155.8" y="50.6" transform="matrix(0.4994 -0.8664 0.8664 0.4994 34.0806 160.3603)" class="st32" width="0" height="0.3"/>
					<polygon class="st32" points="155.9,50.8 155.7,50.6 155.7,50.6 155.9,50.8 					"/>
					
						<rect x="155.8" y="50.6" transform="matrix(0.4994 -0.8664 0.8664 0.4994 34.0646 160.3329)" class="st32" width="0" height="0.3"/>
					<polygon class="st32" points="155.9,50.8 155.7,50.6 155.6,50.6 155.9,50.8 					"/>
					
						<rect x="155.7" y="50.6" transform="matrix(0.5003 -0.8658 0.8658 0.5003 33.9332 160.177)" class="st32" width="0" height="0.3"/>
					
						<rect x="155.7" y="50.6" transform="matrix(0.4994 -0.8664 0.8664 0.4994 34.0482 160.3039)" class="st32" width="0" height="0.3"/>
					<polygon class="st32" points="155.9,50.8 155.6,50.6 155.6,50.6 155.8,50.8 					"/>
					<polygon class="st32" points="155.8,50.8 155.6,50.6 155.6,50.6 155.8,50.8 					"/>
					<polygon class="st32" points="155.8,50.8 155.6,50.6 155.6,50.6 155.8,50.8 					"/>
					<polygon class="st32" points="155.8,50.8 155.6,50.6 155.5,50.6 155.8,50.8 					"/>
					<polygon class="st32" points="155.8,50.8 155.5,50.6 155.5,50.6 155.8,50.8 					"/>
					<polygon class="st32" points="155.8,50.8 155.5,50.6 155.5,50.6 155.7,50.8 					"/>
					<polygon class="st32" points="155.7,50.8 155.5,50.6 155.5,50.6 155.7,50.7 					"/>
					<polygon class="st32" points="155.7,50.7 155.5,50.6 155.5,50.6 155.7,50.7 					"/>
					<polygon class="st32" points="155.7,50.7 155.5,50.6 155.5,50.6 155.7,50.7 					"/>
					<polygon class="st32" points="155.7,50.7 155.5,50.6 155.5,50.6 155.7,50.7 					"/>
					<polygon class="st32" points="155.7,50.7 155.5,50.6 155.4,50.6 155.7,50.7 					"/>
					
						<rect x="155.5" y="50.5" transform="matrix(0.4998 -0.8661 0.8661 0.4998 33.9075 160.0681)" class="st32" width="0" height="0.3"/>
					<polygon class="st32" points="155.7,50.7 155.4,50.6 155.4,50.6 155.6,50.7 					"/>
					
						<rect x="155.5" y="50.5" transform="matrix(0.4991 -0.8666 0.8666 0.4991 33.9899 160.1451)" class="st32" width="0" height="0.3"/>
					<polygon class="st32" points="155.6,50.7 155.4,50.6 155.4,50.6 155.6,50.7 					"/>
					
						<rect x="155.5" y="50.5" transform="matrix(0.4994 -0.8664 0.8664 0.4994 33.9402 160.0745)" class="st32" width="0" height="0.3"/>
					<polygon class="st32" points="155.6,50.7 155.4,50.6 155.3,50.6 155.6,50.7 					"/>
					<polygon class="st32" points="155.6,50.7 155.3,50.6 155.3,50.6 155.5,50.7 					"/>
					
						<rect x="155.4" y="50.5" transform="matrix(0.5003 -0.8658 0.8658 0.5003 33.8046 159.8898)" class="st32" width="0" height="0.3"/>
					<polygon class="st32" points="155.5,50.7 155.3,50.6 155.3,50.6 155.5,50.7 					"/>
					
						<rect x="155.4" y="50.5" transform="matrix(0.4994 -0.8664 0.8664 0.4994 33.9115 159.9912)" class="st32" width="0" height="0.3"/>
					<polygon class="st32" points="155.5,50.7 155.3,50.6 155.3,50.6 155.5,50.7 					"/>
					<polygon class="st32" points="155.5,50.7 155.3,50.6 155.3,50.6 155.5,50.7 					"/>
					<polygon class="st32" points="155.5,50.7 155.3,50.6 155.2,50.6 155.5,50.7 					"/>
					<polygon class="st32" points="155.5,50.7 155.2,50.6 155.2,50.6 155.5,50.7 					"/>
					<polygon class="st32" points="155.5,50.7 155.2,50.6 155.2,50.6 155.4,50.7 					"/>
					<polygon class="st32" points="155.4,50.7 155.2,50.6 155.2,50.6 155.4,50.7 					"/>
					<polygon class="st32" points="155.4,50.7 155.2,50.6 155.2,50.6 155.4,50.7 					"/>
					<polygon class="st32" points="155.4,50.7 155.2,50.6 155.2,50.6 155.4,50.7 					"/>
					<polygon class="st32" points="155.4,50.7 155.2,50.6 155.2,50.6 155.4,50.7 					"/>
					<polygon class="st32" points="155.4,50.7 155.2,50.6 155.1,50.5 155.4,50.7 					"/>
					
						<rect x="155.2" y="50.5" transform="matrix(0.5003 -0.8658 0.8658 0.5003 33.7552 159.7092)" class="st32" width="0" height="0.3"/>
					<polygon class="st32" points="155.4,50.7 155.1,50.5 155.1,50.5 155.3,50.7 					"/>
					
						<rect x="155.2" y="50.5" transform="matrix(0.5003 -0.8658 0.8658 0.5003 33.7498 159.681)" class="st32" width="0" height="0.3"/>
					<polygon class="st32" points="155.3,50.7 155.1,50.5 155.1,50.5 155.3,50.7 					"/>
					<path class="st32" d="M155.1,50.5L155.1,50.5L155.1,50.5z M155.3,50.7"/>
					<polygon class="st32" points="155.3,50.7 155.1,50.5 155.1,50.5 155.3,50.6 					"/>
					<polygon class="st32" points="155.3,50.6 155.1,50.5 155,50.5 155.3,50.6 					"/>
					
						<rect x="155.1" y="50.4" transform="matrix(0.5003 -0.8658 0.8658 0.5003 33.7367 159.5974)" class="st32" width="0" height="0.3"/>
					<polygon class="st32" points="155.3,50.6 155,50.5 155,50.5 155.2,50.6 					"/>
					<polygon class="st32" points="155.2,50.6 155,50.5 155,50.5 155.2,50.6 					"/>
					<polygon class="st32" points="155.2,50.6 155,50.5 155,50.5 155.2,50.6 					"/>
					<polygon class="st32" points="155.2,50.6 155,50.5 155,50.5 155.2,50.6 					"/>
					<polygon class="st32" points="155.2,50.6 155,50.5 155,50.5 155.2,50.6 					"/>
					<polygon class="st32" points="155.2,50.6 155,50.5 154.9,50.4 155.1,50.6 					"/>
					<polygon class="st32" points="155.1,50.6 154.9,50.4 154.9,50.4 155.1,50.6 					"/>
					<polygon class="st32" points="155.1,50.6 154.9,50.4 154.9,50.4 155.1,50.6 					"/>
					
						<rect x="155" y="50.4" transform="matrix(0.4991 -0.8666 0.8666 0.4991 33.8803 159.5842)" class="st32" width="0" height="0.3"/>
					
						<rect x="155" y="50.3" transform="matrix(0.4991 -0.8666 0.8666 0.4991 33.8802 159.5558)" class="st32" width="0" height="0.3"/>
					
						<rect x="154.9" y="50.3" transform="matrix(0.5003 -0.8658 0.8658 0.5003 33.7256 159.381)" class="st32" width="0" height="0.3"/>
					<polygon class="st32" points="154.4,49.7 154.2,49.6 152.2,54.7 152.4,54.9 					"/>
					<polygon class="st32" points="157.8,50 157.6,49.8 159.9,53.1 160.1,53.2 					"/>
					<polygon class="st32" points="160.1,46.5 159.8,46.3 159.8,46.5 159.7,46.7 159.6,46.9 159.5,47.1 159.5,47.4 159.4,47.6 
						159.3,47.8 159.1,48 159.4,48.1 159.5,47.9 159.6,47.7 159.7,47.5 159.8,47.3 159.9,47.1 159.9,46.9 160,46.7 					"/>
					
						<rect x="159.3" y="47.9" transform="matrix(0.4992 -0.8665 0.8665 0.4992 38.1489 162.0403)" class="st32" width="0" height="0.3"/>
					<polygon class="st32" points="159.4,48.1 159.1,48 159,48.2 158.8,48.5 158.6,48.7 158.4,49 158.2,49.2 158,49.4 157.8,49.6 
						157.6,49.8 157.8,50 158,49.8 158.2,49.6 158.5,49.3 158.7,49.1 158.9,48.9 159,48.6 159.2,48.4 					"/>
				</g>
				<path class="st35" d="M157.8,50l2.3,3.3l0.5-2.2c0-0.2,0.2-0.4,0.3-0.4l1.6-0.6l-0.6-0.8c0,0,0,0,0,0l-2-2.8
					c-0.2,0.6-0.4,1.1-0.7,1.6h0C159,48.8,158.4,49.5,157.8,50L157.8,50z M152.4,54.9C152.4,54.9,152.4,54.9,152.4,54.9l-0.6,1.5
					l1.6-1.3c0.1-0.1,0.3-0.1,0.3,0l0.5,1.6l2.3-6l0,0l0,0l0,0l0,0l0,0l0,0l0,0l0,0l0,0l0,0l0,0l0,0l0,0l0,0l0,0l0,0l-0.1,0l0,0l0,0
					l0,0l0,0l0,0l0,0h0l0,0l0,0l0,0l0,0l0,0l0,0l0,0l0,0l0,0l0,0l0,0l0,0l0,0l0,0l0,0h0h0l0,0l0,0h0h0l0,0h0l0,0l0,0l0,0l0,0l0,0
					l0,0l0,0l0,0l0,0l0,0l0,0l0,0l0,0h0l0,0l0,0l0,0l0,0l0,0l0,0l0,0l0,0l0,0l0,0l0,0l0,0l0,0l0,0l0,0l0,0l0,0l0,0l0,0l0,0l0,0l0,0
					l0,0l0,0l0,0l0,0l0,0l0,0l0,0l0,0l0,0l0,0l0,0l0,0l0,0l0,0l0,0l0,0l0,0c-0.2-0.1-0.4-0.3-0.5-0.6l0,0c0,0,0-0.1-0.1-0.1l0,0l0,0
					l0,0l0,0l0,0l0,0l0,0l0,0v0l0,0L152.4,54.9z"/>
				<path class="st19" d="M159.6,43.8l-0.4-0.2l-0.2-0.1l-0.2-0.1l-0.2,0l-0.3,0l-0.3,0l-0.3,0.1l-0.3,0.1l-0.3,0.2l-0.3,0.2
					l-0.3,0.2l-0.3,0.2l-0.3,0.3l-0.3,0.3l-0.2,0.3l-0.2,0.3L155,46l0,0l-0.1,0.2l-0.1,0.2l-0.1,0.2l-0.1,0.2l-0.1,0.2l-0.1,0.2
					l-0.1,0.2l-0.1,0.2l-0.1,0.2l0,0.2l0,0.2l0,0.2l0,0.2l0,0.2l0,0.2l0,0.2l0,0.1l0,0.1l0,0.1l0,0.1l0,0.1l0,0.1l0,0.1l0,0.1l0,0
					l0,0l0,0l0,0l0,0l0,0l0,0l0,0l0,0l0,0l0,0l0,0l0,0l0,0l0,0l0,0l0,0l0,0l0,0l0,0l0,0l0,0l0,0l0,0l0,0l0,0l0,0l0,0l0,0l0,0l0,0
					l0,0l0,0v0l0,0l0,0l0,0l0,0l0,0l0,0l0,0l0,0l0,0l0,0l0,0l0,0l0,0l0,0l0,0l0,0l0,0l0.1,0.1l0.1,0.1l0.1,0.1l0.1,0.1l0.1,0.1
					l0.1,0.1l0.1,0.1L155,51l0,0l0,0l0,0l0,0l0.4,0.2l0,0l0,0l0,0l0,0l0,0l-0.1-0.1l-0.1-0.1l-0.1-0.1l-0.1-0.1l-0.1-0.1l-0.1-0.1
					l-0.1-0.1l-0.1-0.1l0,0l0,0l0,0l0,0l0,0l0,0l0,0l0,0l0,0l0,0l0,0l0,0l0,0l0,0l0,0l0,0l0,0v0l0,0l0,0l0,0l0,0l0,0l0,0l0,0l0,0
					l0,0l0,0l0,0l0,0l0,0l0,0l0,0l0,0l0,0l0,0l0,0l0,0l0,0l0,0l0,0l0,0l0,0l0,0l0,0l0,0l0,0l0,0l0,0l0,0l0,0l0-0.1l0-0.1l0-0.1
					l0-0.1l0-0.1l0-0.1l0-0.1l0-0.1l0-0.2l0-0.2l0-0.2l0-0.2l0-0.2l0-0.2l0-0.2l0.1-0.2l0.1-0.2l0.1-0.2l0.1-0.2L155,47l0.1-0.2
					l0.1-0.2l0.1-0.2l0.1-0.2l0,0l0.2-0.3l0.2-0.3l0.2-0.3l0.3-0.3l0.3-0.3l0.3-0.2l0.3-0.2l0.3-0.2l0.3-0.2l0.3-0.1l0.3-0.1l0.3,0
					l0.3,0l0.2,0l0.2,0.1L159.6,43.8L159.6,43.8z M159.6,48.7L159.6,48.7l-0.3-0.2l0,0L159.6,48.7L159.6,48.7z M155.8,51.4l-0.4-0.2
					l0,0L155.8,51.4L155.8,51.4L155.8,51.4z M155.2,51.1L155.2,51.1L155.2,51.1z M155.6,51.3L155.6,51.3L155.6,51.3z M155.5,51.3
					L155.5,51.3l-0.3-0.2l0,0L155.5,51.3L155.5,51.3z M154.2,49.8l0.4,0.2l0,0L154.2,49.8z"/>
				<path class="st20" d="M159.6,43.8c-0.5-0.3-1.3-0.3-2.1,0.2c-0.8,0.5-1.6,1.3-2.1,2.2l0,0c-0.5,0.9-0.9,2-0.9,3
					c0,0.2,0,0.4,0,0.5l0,0l0,0l0,0l0,0l0,0l0,0l0,0l0,0l0,0l0,0l0,0l0,0l0,0l0,0l0,0l0,0l0,0l0,0l0,0l0,0l0,0l0,0l0,0l0,0l0,0l0,0
					l0,0l0,0l0,0l0,0l0,0l0,0l0,0v0l0,0l0,0l0,0l0,0l0,0l0,0l0,0l0,0c0,0,0,0.1,0.1,0.1l0,0c0.1,0.2,0.3,0.4,0.5,0.6l0,0l0,0l0,0
					l0,0l0,0l0,0l0,0l0,0l0,0l0,0l0,0l0,0l0,0l0,0l0,0l0,0l0,0l0,0l0,0l0,0l0,0l0,0l0,0l0,0l0,0l0,0l0,0l0,0l0,0l0,0l0,0l0,0l0,0
					l0,0l0,0l0,0l0,0l0,0l0,0l0,0l0,0l0,0l0,0l0,0l0,0l0,0l0,0l0,0l0,0l0,0l0,0l0,0l0,0l0,0l0,0h0h0l0,0h0l0,0h0l0,0l0,0l0,0l0,0
					l0,0l0,0l0,0l0,0l0,0l0,0l0,0l0,0l0,0l0,0l0,0l0,0l0,0l0,0l0,0l0,0l0,0l0,0l0.1,0l0,0l0,0l0,0l0,0l0,0l0,0h0l0,0l0,0l0,0l0,0
					l0,0l0,0l0,0l0,0l0,0l0,0l0,0l0,0l0,0l0,0l0,0l0,0l0,0l0,0l0,0l0,0l0,0l0,0l0,0l0,0l0,0l0,0l0,0l0,0l0,0l0,0l0,0l0,0l0,0l0,0
					l0,0l0,0l0,0l0,0l0,0l0,0l0,0l0,0l0,0l0,0l0,0l0,0l0,0l0,0l0,0l0,0l0,0l0,0l0,0l0,0l0,0l0,0l0,0l0,0l0,0l0,0l0,0l0,0l0,0l0,0
					l0,0c0.6-0.5,1.2-1.2,1.6-1.9l0,0c0.3-0.6,0.6-1.2,0.8-1.9l0,0l0,0l0,0l0,0l0,0l0,0l0,0l0,0l0,0l0,0v0c0-0.1,0-0.1,0-0.2l0,0
					l0,0l0,0l0,0l0,0l0,0c0-0.2,0-0.4,0-0.5C160.5,44.8,160.2,44.1,159.6,43.8z"/>
			</g>
		</g>
	</g>
	
		<rect x="29.2" y="41.1" transform="matrix(2.541902e-02 0.9997 -0.9997 2.541902e-02 86.4393 10.6505)" class="st9" width="17.1" height="17.1"/>
	<circle class="st36" cx="23.4" cy="36.1" r="23.1"/>
	<g>
		<path class="st9" d="M28.9,18.5H16.7c-1.6,0-2.9,1.2-2.9,2.6v30.1c0,1.4,1.3,2.6,2.9,2.6h12.2c1.6,0,2.9-1.2,2.9-2.6V21.1
			C31.8,19.7,30.5,18.5,28.9,18.5z M26,20.9c0.2,0,0.3,0.1,0.3,0.3c0,0.1-0.1,0.3-0.3,0.3c-0.2,0-0.3-0.1-0.3-0.3
			C25.7,21.1,25.8,20.9,26,20.9z M20.7,20.9h4c0.2,0,0.3,0.1,0.3,0.3c0,0.1-0.1,0.3-0.3,0.3h-4c-0.2,0-0.3-0.1-0.3-0.3
			C20.4,21.1,20.6,20.9,20.7,20.9z M25,51.7h-4.6c-0.3,0-0.5-0.2-0.5-0.4c0-0.2,0.2-0.4,0.5-0.4H25c0.3,0,0.5,0.2,0.5,0.4
			C25.6,51.6,25.3,51.7,25,51.7z M30.8,48.5H14.9V23.4h15.9V48.5z"/>
	</g>
</g>
</svg>
