<?xml version="1.0" encoding="utf-8"?>
<!-- Generator: Adobe Illustrator 25.2.3, SVG Export Plug-In . SVG Version: 6.00 Build 0)  -->
<svg version="1.1" id="Layer_1" xmlns="http://www.w3.org/2000/svg" xmlns:xlink="http://www.w3.org/1999/xlink" x="0px" y="0px"
	 viewBox="0 0 130.9 113.2" style="enable-background:new 0 0 130.9 113.2;" xml:space="preserve">
<style type="text/css">
	.st0{fill:#AAAFB3;}
	.st1{fill:#D93832;}
	.st2{filter:url(#Adobe_OpacityMaskFilter);}
	.st3{fill:#FFFFFF;}
	.st4{opacity:0.45;mask:url(#SVGID_1_);fill:#231F20;}
</style>
<g>
	<g>
		<path class="st0" d="M65.5,33.6C29.3,33.6,0,43.9,0,56.6c0,12.7,29.3,23,65.5,23c9.9,0,19.2-0.8,27.6-2.2
			c-0.4-1.1-0.9-2.2-1.5-3.1c-7.8,1.5-16.7,2.3-26.1,2.3c-30.9,0-55.9-9-55.9-20.1c0-11.1,25-20.1,55.9-20.1
			c30.9,0,55.9,9,55.9,20.1c0,0.9-0.2,1.7-0.5,2.6c2.3,1.4,4.2,3.6,5.1,6.2c3.2-2.7,4.9-5.6,4.9-8.7
			C130.9,43.9,101.6,33.6,65.5,33.6z"/>
		<path class="st0" d="M84.8,44.2c-4.6-7.2-9.5-13.8-14.5-19.6c-0.7,0.5-1.4,1-2,1.6c-0.2,0.2-0.3,0.3-0.4,0.5
			c4.9,5.4,9.9,11.9,14.5,19.1c16.6,26,22.5,52,13.2,57.9s-30.4-10.3-47-36.3S26,15.5,35.4,9.5c1.2-0.8,2.7-1.2,4.3-1.2
			c0.5-2.4,1.8-4.6,3.5-6.3c-5.2-2.3-9.7-2.6-13-0.5C19.5,8.3,26.6,38.5,46.1,69c19.5,30.5,43.9,49.6,54.6,42.8
			C111.4,104.9,104.3,74.7,84.8,44.2z"/>
		<circle class="st0" cx="65.5" cy="56.6" r="11.2"/>
		<path class="st0" d="M36.2,69.8c2.9-7.6,7.1-15.7,12.3-23.9C65.1,19.8,86.1,3.5,95.5,9.4c9.4,6,3.5,31.9-13.1,58
			c-16.6,26.1-37.6,42.4-46.9,36.4c-0.3-0.2-0.5-0.4-0.7-0.6c-1.7,1-3.6,1.7-5.7,1.8c-1.1,0-2.1-0.1-3.1-0.3
			c0.7,3.2,2.2,5.7,4.4,7.1c10.7,6.8,35.1-12.4,54.5-42.9c19.4-30.5,26.4-60.8,15.7-67.6S65.4,13.8,46.1,44.3
			c-5.3,8.4-9.7,16.7-13,24.6L36.2,69.8z"/>
		<circle class="st0" cx="28.5" cy="93.1" r="8.9"/>
		<circle class="st0" cx="114.8" cy="69.4" r="8.9"/>
		<circle class="st0" cx="51.8" cy="10.8" r="8.9"/>
	</g>
	<g>
		<circle class="st1" cx="65.5" cy="56.6" r="17.3"/>
		<defs>
			<filter id="Adobe_OpacityMaskFilter" filterUnits="userSpaceOnUse" x="48.1" y="39.3" width="34.6" height="34.6">
				<feColorMatrix  type="matrix" values="1 0 0 0 0  0 1 0 0 0  0 0 1 0 0  0 0 0 1 0"/>
			</filter>
		</defs>
		<mask maskUnits="userSpaceOnUse" x="48.1" y="39.3" width="34.6" height="34.6" id="SVGID_1_">
			<g class="st2">
				<polygon class="st3" points="74.3,47.8 56.7,65.5 65.6,74.4 82,73.2 83.3,56.8 				"/>
			</g>
		</mask>
		<circle class="st4" cx="65.5" cy="56.6" r="17.3"/>
		<path class="st3" d="M69.2,56.6l5.1-5.1c1-1,1-2.7,0-3.7l-0.1-0.1c-1-1-2.7-1-3.7,0l-5.1,5.1l-5.1-5.1c-1-1-2.7-1-3.7,0l-0.1,0.1
			c-1,1-1,2.7,0,3.7l5.1,5.1l-5.1,5.1c-1,1-1,2.7,0,3.7l0.1,0.1c1,1,2.7,1,3.7,0l5.1-5.1l5.1,5.1c1,1,2.7,1,3.7,0l0.1-0.1
			c1-1,1-2.7,0-3.7L69.2,56.6z"/>
	</g>
</g>
</svg>
