<?xml version="1.0" encoding="utf-8"?>
<!-- Generator: Adobe Illustrator 25.2.3, SVG Export Plug-In . SVG Version: 6.00 Build 0)  -->
<svg version="1.1" id="Layer_1" xmlns="http://www.w3.org/2000/svg" xmlns:xlink="http://www.w3.org/1999/xlink" x="0px" y="0px"
	 viewBox="0 0 179.8 130.1" style="enable-background:new 0 0 179.8 130.1;" xml:space="preserve">
<style type="text/css">
	.st0{fill:#C7DEF2;}
	.st1{fill:#ADB7D0;}
	.st2{fill:#A5AEC5;}
	.st3{fill:#D2AA6E;}
	.st4{fill:#312C29;}
	.st5{fill:#ECC88E;}
	.st6{fill:#1E1E24;}
	.st7{fill:#CAD1E3;}
	.st8{fill:#726767;}
	.st9{fill:#5C4E4E;}
	.st10{fill:none;stroke:#F36745;stroke-width:1.3454;stroke-miterlimit:10;}
	.st11{fill:#F36745;}
	.st12{fill:#FFFFFF;stroke:#F36745;stroke-width:1.1043;stroke-miterlimit:10;}
	.st13{fill:#808080;}
	.st14{fill:#BABEC2;}
	.st15{fill:#FFFFFF;}
	.st16{fill:#942A34;}
	.st17{clip-path:url(#SVGID_2_);}
	.st18{fill:#412C2D;}
	.st19{fill:#957454;}
	.st20{fill:#979692;}
	.st21{fill:#745A41;}
	.st22{fill:#FFFFFF;stroke:#F36745;stroke-width:0.7;stroke-miterlimit:10;}
	.st23{fill:none;}
</style>
<g>
	<g>
		<g>
			
				<ellipse transform="matrix(0.7071 -0.7071 0.7071 0.7071 -29.5641 74.6551)" class="st0" cx="75.3" cy="73" rx="56.5" ry="56.5"/>
			<path class="st1" d="M84.4,123.3c-0.9,1.8-1.9,3.7-3.7,4.6c-1.3,0.7-2.9,0.6-4.4,0.6c-2,0-4-0.1-6-0.1c-0.3,0-0.7,0-1-0.2
				c-0.4-0.2-0.7-0.6-0.9-1c-1.6-2.8-3.2-5.6-4-8.7c-0.4-1.7-0.6-3.4-0.8-5.2c-0.5-5.4-1.1-10.7-1.6-16.1c1.8-0.2,3.6-0.5,5.3-0.7
				c1.2-0.2,2.4-0.3,3.6-0.4c1.2-0.1,2.5,0,3.7,0c0.5,0,1,0,1.5,0.1c2.3,0.1,4.5,0.2,6.8,0.3c1.8,0.1,3.8,0.3,4.9,1.6
				c1,1.1,1,2.7,1.1,4.1c0.1,2.5,0.2,5.2-0.7,7.5c-0.5,1.4-1.3,2.6-1.5,4.1c-0.1,0.9-0.1,1.7-0.1,2.6
				C86.6,118.9,85.4,121.1,84.4,123.3z"/>
			<polygon class="st2" points="60.4,107.2 60.4,107.3 60.5,107.2 			"/>
			<rect x="62.7" y="73.4" class="st3" width="25.2" height="24.1"/>
			<path class="st4" d="M58.5,69.4c1.1,3.4,4.5,5.9,8,6c0.3-0.2,0.1-0.6-0.1-0.9c-3.1-4.6-6.4-9-8.5-14.1
				C58.2,63.5,57.6,66.6,58.5,69.4z"/>
			<path class="st4" d="M95.5,68.6c-0.4,2.3-1.7,4.4-3.4,5.9c-0.3,0.3-0.6,0.5-1,0.6c-0.6,0.1-1.3-0.2-1.8-0.6c-1-0.8-1.6-2-1.9-3.2
				C87,70,87,68.7,86.9,67.4c0-0.8-0.1-1.6-0.1-2.4c0-0.7-0.1-1.4,0.3-2.1c0.5-1.1,1.8-1.5,2.9-1.9c0.7-0.2,1.5-0.4,2.2-0.5
				c0.6,0,1.3,0,1.8,0.5c0.6,0.6,0.6,1.5,0.5,2.4c-0.1,1.2,0,2.3,0.1,3.5c0,0.3,0.1,0.7,0.4,0.9c0.2,0.1,0.4,0.1,0.5,0.3
				C95.6,68.3,95.6,68.4,95.5,68.6z"/>
			<path class="st3" d="M95.6,60c-0.7,3.9-2.7,6.7-4.6,6.4c-1.8-0.3-2.7-3.7-2-7.6c0.7-3.9,2.7-6.7,4.6-6.4
				C95.4,52.8,96.3,56.2,95.6,60z"/>
			<path class="st3" d="M63.1,59.2c0.3,3.9-0.9,7.2-2.7,7.4c-1.8,0.2-3.6-2.9-3.9-6.8c-0.3-3.9,0.9-7.2,2.7-7.4
				C61,52.2,62.7,55.2,63.1,59.2z"/>
			<ellipse class="st5" cx="75.3" cy="59.6" rx="16" ry="25.5"/>
			<path class="st5" d="M61.2,35.9c1.8-0.7,3.9,0.1,5.2,1.5c1.3,1.4,1.9,3.3,2,5.2c0.2,1.9,0,3.8,0,5.7c0,0.9,0,1.9-0.1,2.8
				C68,53,67,54.5,66,56c-0.7,1-1.4,2.1-2.5,2.6c-1.7,0.9-4,0-5.1-1.6c-1-1.4-1-3.3-1.1-5c-0.1-3.5-0.2-7,0.4-10.5
				C58.1,39.3,59.1,36.8,61.2,35.9z"/>
			<path class="st4" d="M62.8,31.8c-0.2,0.3-0.3,0.6-0.6,0.8c-0.2,0.1-0.5,0.1-0.8,0.1c-1.1,0-2.1,0.8-2.8,1.6
				c-1.5,1.8-2.1,4.2-2.6,6.6c-0.7,3.3-1.1,6.7-0.9,10.1c0.2,3.4,1,6.8,2.8,9.6c1.2,0.3,1.7,1.7,2.2,1.7c0.3-0.9,0-5.3-0.4-8.1
				c-0.1-0.6-0.2-1.3,0-1.9c0.3-1,1.4-1.7,1.6-2.7c0.1-0.7-0.1-1.3-0.1-2c0-1.2,0.7-2.4,0.7-3.6c0-1.3-0.7-2.9,0.2-3.8
				c0.7,2.5,1.6,5.1,3.8,6.4c1.3,0.8,2.9,1,4.4,1.1c3.5,0.2,7.1-0.2,10.3,0.9c-0.7-1.6-2.6-2.1-4.3-2.4c1.2,0.4,2.3,0.7,3.5,1
				c1.7,0.3,3.4,0.3,5,0.6c1.7,0.3,3.3,1,4.4,2.3c-0.6-1.3-1.8-2.4-3.2-2.9c1.5-0.1,2.8,1,3.5,2.3C90,51,90,52.6,89.7,54
				c-0.2,1.1-0.5,2.2-0.3,3.2c0.3,1.1,1.3,2.1,1.1,3.3c0.7,0,1.3-0.5,1.7-1.1c0.3-0.6,0.5-1.3,0.7-2c0.3-1,0.8-1.9,1.1-2.8
				c1.4-3.6,0.9-7.7,0.4-11.6c-0.4-3-0.9-6.2-2.8-8.6c-0.5-0.6-1.1-1.2-1.7-1.7c-2.2-2-4.5-4-7.1-5.4c-2.6-1.4-5.7-2.2-8.6-1.8
				c-1.2,0.2-2.3,0.5-3.4,0.9C67.7,27.5,64.4,28.9,62.8,31.8z"/>
			<polygon class="st6" points="69.7,100.4 73.3,104.6 77.2,104.6 80.5,100.4 78,96.5 73.2,96.5 			"/>
			<path class="st7" d="M62.9,83.3c0,0-2.2,3.8,12.4,13.2c0,0-6.1,5.4-8,9.7s-1.5,3.3-1.5,3.3l-5.4-17.7
				C60.4,91.8,60.1,84,62.9,83.3z"/>
			<path class="st7" d="M87.8,83.3c0,0,2.2,3.8-12.4,13.2c0,0,6.1,5.4,8,9.7c1.9,4.3,1.5,3.3,1.5,3.3l5.4-17.7
				C90.3,91.8,90.5,84,87.8,83.3z"/>
			<path class="st8" d="M62,127.9c-3.6-7.5-6.2-13.5-6.2-13.5l4.6-7l0-0.1l-0.1,0l-5.6,0.7c0,0-1.3-2.1-1.3-9.1
				c0-3.3,1.9-6.8,3.8-9.6C51.7,91.1,33,97.6,31,100.8c-0.4,0.7-1.1,2.4-1.9,4.8C36.9,116.5,48.5,124.6,62,127.9z"/>
			<path class="st8" d="M95.8,107.9l-5.6-0.7l4.6,7.1c0,0-2.5,6.1-6.2,13.5c13.5-3.3,25.1-11.4,32.8-22.3c-0.8-2.3-1.4-4-1.9-4.8
				c-2-3.2-20.7-9.6-26.3-11.5c2,2.8,3.8,6.2,3.8,9.6C97.2,105.7,95.8,107.9,95.8,107.9z"/>
			<path class="st6" d="M75.3,129.5c1.1,0,2.1,0,3.2-0.1c0.7-2.4,1.4-4.7,2.1-6.9l-3.4-17.9h-3.8l-3,18.8c0.6,1.9,1.2,3.9,1.8,6
				C73.2,129.4,74.3,129.5,75.3,129.5z"/>
			<path class="st9" d="M54.8,107.9l5.6-0.7l0.1,0l0,0.1l-4.6,7c0,0,2.5,6.1,6.2,13.5c3.3,0.8,6.7,1.3,10.2,1.5
				c-0.6-2.1-1.3-4.1-1.8-6c-3.4-11.3-5.4-19.3-6.7-25.1c-2.7-12.3-1.8-14.2-1.8-14.2s-2.3,2.1-4.4,5.2c-2,2.8-3.8,6.2-3.8,9.6
				C53.5,105.7,54.8,107.9,54.8,107.9z"/>
			<path class="st9" d="M88.7,127.9c3.6-7.5,6.2-13.5,6.2-13.5l-4.6-7.1l5.6,0.7c0,0,1.3-2.1,1.3-9.1c0-3.3-1.9-6.8-3.8-9.6
				c-2.2-3-4.4-5.2-4.4-5.2s0.8,1.7-1.5,12.6c-1.2,5.7-3.3,14-6.8,25.8c-0.6,2.2-1.3,4.5-2.1,6.9C82,129.2,85.4,128.7,88.7,127.9z"
				/>
			
				<ellipse transform="matrix(0.7071 -0.7071 0.7071 0.7071 -29.5641 74.6551)" class="st10" cx="75.3" cy="73" rx="56.5" ry="56.5"/>
		</g>
		
			<rect x="108.8" y="52.1" transform="matrix(-2.541903e-02 0.9997 -0.9997 -2.541903e-02 181.0367 -55.1452)" class="st11" width="17.1" height="17.1"/>
		<circle class="st12" cx="142.8" cy="37" r="36.4"/>
		<g>
			<g>
				<circle class="st13" cx="139.3" cy="30.5" r="18.1"/>
				<circle class="st14" cx="139.3" cy="30.5" r="17"/>
				<circle class="st15" cx="137.6" cy="29.1" r="14.9"/>
			</g>
			<g>
				<path class="st16" d="M128.7,29.5c0,0.4,0.1,0.9,0.1,1.3c0.5,0.2,0.9,0.4,1.4,0.7c0.2,0.1,0.5,0.2,0.7,0.4
					c0.2,0.1,0.4,0.3,0.7,0.4c0.2-0.1,0.5-0.2,0.7-0.4c0.2-0.1,0.4-0.3,0.7-0.4c0.4-0.3,0.9-0.6,1.3-0.9c0-0.6-0.1-1.2-0.1-1.7
					c-0.8,0.7-1.7,1.3-2.5,1.8C130.5,30.2,129.6,29.8,128.7,29.5z"/>
				<path class="st16" d="M128.3,26.9c0.1,0.2,0.1,0.4,0.2,0.6l0.1,0.6c0.4,0.1,0.9,0.3,1.3,0.4c0.2,0.1,0.4,0.2,0.7,0.2
					c0.2,0.1,0.4,0.2,0.7,0.3c0.2-0.1,0.4-0.3,0.6-0.4c0.2-0.2,0.4-0.3,0.6-0.5c0.4-0.3,0.7-0.7,1.1-1l-0.2-0.8
					c-0.1-0.3-0.1-0.5-0.2-0.8c-0.3,0.4-0.7,0.7-1,1.1c-0.3,0.3-0.7,0.7-1.1,1c-0.5-0.1-0.9-0.3-1.4-0.4
					C129.2,27.1,128.8,27,128.3,26.9z"/>
				<path class="st16" d="M128.9,32.3c0,0.1,0,0.2,0,0.3l0,0.3c0,0.2,0,0.4-0.1,0.6c0.2,0.1,0.4,0.3,0.6,0.4
					c0.2,0.1,0.4,0.3,0.6,0.4c0.4,0.3,0.8,0.6,1.1,0.9c0.5-0.2,0.9-0.3,1.4-0.5c0.2-0.1,0.5-0.2,0.7-0.3c0.2-0.1,0.4-0.2,0.7-0.3
					c0-0.3,0.1-0.5,0.1-0.8l0-0.4c0-0.1,0-0.3,0-0.4c-0.2,0.1-0.4,0.2-0.6,0.4c-0.2,0.1-0.4,0.2-0.7,0.3c-0.4,0.2-0.9,0.4-1.3,0.6
					c-0.4-0.3-0.8-0.6-1.2-0.8c-0.2-0.1-0.4-0.3-0.6-0.4C129.3,32.5,129.1,32.4,128.9,32.3z"/>
				<path class="st16" d="M127.6,24.5c0,0.1,0.1,0.2,0.1,0.3l0.1,0.3c0.1,0.2,0.2,0.3,0.2,0.5c0.4,0,0.9,0.1,1.3,0.2
					c0.4,0.1,0.9,0.2,1.3,0.3c0.3-0.3,0.6-0.7,0.9-1c0.3-0.4,0.6-0.7,0.8-1.1c-0.1-0.2-0.2-0.5-0.3-0.7l-0.2-0.4
					c-0.1-0.1-0.1-0.2-0.2-0.3c-0.1,0.2-0.2,0.4-0.4,0.6c-0.1,0.2-0.3,0.4-0.4,0.6c-0.3,0.4-0.5,0.7-0.8,1.1
					c-0.4-0.1-0.9-0.1-1.3-0.1c-0.2,0-0.4,0-0.7,0C128,24.5,127.8,24.5,127.6,24.5z"/>
				<path class="st16" d="M128.7,35.1c0,0.2-0.1,0.4-0.1,0.6l-0.1,0.3c0,0.1-0.1,0.2-0.1,0.3c0.2,0.1,0.3,0.3,0.5,0.5
					c0.2,0.2,0.3,0.3,0.5,0.5c0.3,0.3,0.6,0.7,0.9,1c0.4-0.1,0.9-0.2,1.3-0.3c0.2,0,0.4-0.1,0.7-0.2c0.2-0.1,0.4-0.1,0.7-0.2
					c0-0.1,0.1-0.2,0.1-0.4l0.1-0.4c0.1-0.2,0.1-0.5,0.2-0.7c-0.4,0.2-0.9,0.3-1.3,0.4c-0.2,0.1-0.4,0.1-0.7,0.2
					c-0.2,0.1-0.4,0.1-0.7,0.2c-0.2-0.2-0.3-0.3-0.5-0.5c-0.2-0.2-0.3-0.3-0.5-0.5C129.4,35.6,129.1,35.4,128.7,35.1z"/>
				<path class="st16" d="M126.5,22.5l0.3,0.4l0.3,0.4c0.4,0,0.8-0.1,1.2-0.1c0.2,0,0.4,0,0.6,0c0.2,0,0.4,0,0.6,0
					c0.1-0.2,0.2-0.4,0.3-0.5c0.1-0.2,0.2-0.4,0.3-0.5c0.2-0.4,0.4-0.8,0.6-1.2l-0.4-0.6l-0.4-0.6c-0.1,0.4-0.3,0.8-0.5,1.2
					c-0.2,0.4-0.4,0.8-0.6,1.1c-0.4,0-0.8,0-1.2,0.1C127.3,22.4,126.9,22.4,126.5,22.5z"/>
				<path class="st16" d="M128.1,37.6l-0.1,0.2L128,38l-0.1,0.1l-0.2,0.5c0.2,0.3,0.5,0.6,0.7,1l0.2,0.3l0.2,0.3
					c0.1,0.2,0.2,0.4,0.3,0.5c0.2,0,0.4,0,0.6,0l0.3,0l0.3,0c0.4,0,0.9-0.1,1.3-0.1l0.3-0.6l0.1-0.2l0.1-0.2l0.1-0.3
					c-0.2,0-0.4,0.1-0.6,0.1l-0.3,0l-0.3,0c-0.4,0.1-0.8,0.1-1.3,0.1c-0.2-0.4-0.5-0.7-0.7-1l-0.2-0.2l-0.2-0.2
					C128.4,37.9,128.3,37.8,128.1,37.6z"/>
				<path class="st16" d="M125.3,20.9c0.2,0.2,0.5,0.4,0.7,0.7c0.7-0.2,1.4-0.4,2.2-0.5c0.3-0.7,0.5-1.5,0.7-2.2
					c-0.3-0.3-0.6-0.6-1-0.9c-0.1,0.8-0.3,1.6-0.5,2.3C126.7,20.4,125.9,20.6,125.3,20.9z"/>
				<path class="st16" d="M127.2,39.8l-0.3,0.4c-0.1,0.1-0.2,0.3-0.3,0.4c0.3,0.7,0.6,1.4,0.8,2.1c0.7,0.2,1.5,0.3,2.3,0.4
					c0.1-0.2,0.3-0.3,0.4-0.5c0.1-0.2,0.3-0.4,0.4-0.5c-0.4,0-0.8,0-1.2,0c-0.4,0-0.8-0.1-1.2-0.1c-0.1-0.4-0.3-0.7-0.5-1
					C127.6,40.4,127.4,40.1,127.2,39.8z"/>
			</g>
			<g>
				<path class="st16" d="M144.6,28.8c-0.1,0.6-0.1,1.2-0.1,1.7c0.4,0.3,0.9,0.6,1.3,0.9c0.2,0.1,0.4,0.3,0.7,0.4
					c0.2,0.1,0.5,0.3,0.7,0.4c0.2-0.1,0.4-0.3,0.7-0.4c0.2-0.1,0.4-0.2,0.7-0.4c0.4-0.2,0.9-0.5,1.4-0.7c0-0.4,0.1-0.9,0.1-1.3
					c-0.9,0.3-1.9,0.7-2.8,1.2C146.3,30.1,145.4,29.5,144.6,28.8z"/>
				<path class="st16" d="M145.4,25.5c-0.1,0.3-0.1,0.5-0.2,0.8l-0.2,0.8c0.4,0.3,0.7,0.7,1.1,1c0.2,0.2,0.4,0.3,0.6,0.5
					c0.2,0.2,0.4,0.3,0.6,0.4c0.2-0.1,0.4-0.2,0.7-0.3c0.2-0.1,0.4-0.2,0.7-0.2c0.5-0.2,0.9-0.3,1.3-0.4l0.1-0.6
					c0-0.2,0.1-0.4,0.2-0.6c-0.5,0.1-0.9,0.2-1.4,0.3c-0.5,0.1-0.9,0.3-1.4,0.4c-0.4-0.3-0.7-0.6-1.1-1
					C146.1,26.2,145.8,25.9,145.4,25.5z"/>
				<path class="st16" d="M144.6,32.5c0,0.1,0,0.3,0,0.4l0,0.4c0,0.3,0.1,0.5,0.1,0.8c0.2,0.1,0.4,0.2,0.7,0.3
					c0.2,0.1,0.5,0.2,0.7,0.3c0.5,0.2,0.9,0.4,1.4,0.5c0.4-0.3,0.7-0.6,1.1-0.9c0.2-0.1,0.4-0.3,0.6-0.4c0.2-0.1,0.4-0.3,0.6-0.4
					c0-0.2-0.1-0.4-0.1-0.6l0-0.3c0-0.1,0-0.2,0-0.3c-0.2,0.1-0.4,0.2-0.6,0.4c-0.2,0.1-0.4,0.2-0.6,0.4c-0.4,0.3-0.8,0.5-1.2,0.8
					c-0.4-0.2-0.9-0.4-1.3-0.6c-0.2-0.1-0.4-0.2-0.7-0.3C145.1,32.8,144.8,32.7,144.6,32.5z"/>
				<path class="st16" d="M146.8,22.5c-0.1,0.1-0.1,0.2-0.2,0.3l-0.2,0.4c-0.1,0.2-0.2,0.5-0.3,0.7c0.3,0.4,0.5,0.7,0.8,1.1
					c0.3,0.4,0.6,0.7,0.9,1c0.4-0.1,0.9-0.2,1.3-0.3c0.4-0.1,0.9-0.1,1.3-0.2c0.1-0.2,0.1-0.4,0.2-0.5l0.1-0.3
					c0-0.1,0.1-0.2,0.1-0.3c-0.2,0-0.4,0-0.7,0c-0.2,0-0.4,0-0.7,0c-0.4,0-0.9,0.1-1.3,0.1c-0.3-0.4-0.6-0.7-0.8-1.1
					c-0.1-0.2-0.3-0.4-0.4-0.6C147,22.9,146.9,22.7,146.8,22.5z"/>
				<path class="st16" d="M145.3,36.1c0,0.2,0.1,0.5,0.2,0.7l0.1,0.4c0,0.1,0.1,0.2,0.1,0.4c0.2,0.1,0.4,0.1,0.7,0.2
					c0.2,0.1,0.4,0.1,0.7,0.2c0.4,0.1,0.9,0.2,1.3,0.3c0.3-0.3,0.6-0.7,0.9-1c0.1-0.2,0.3-0.3,0.5-0.5c0.2-0.2,0.3-0.3,0.5-0.5
					c0-0.1-0.1-0.2-0.1-0.3l-0.1-0.3c0-0.2-0.1-0.4-0.1-0.6c-0.3,0.3-0.7,0.6-1,0.9c-0.2,0.1-0.3,0.3-0.5,0.5
					c-0.2,0.2-0.3,0.3-0.5,0.5c-0.2-0.1-0.4-0.1-0.7-0.2c-0.2-0.1-0.4-0.1-0.7-0.2C146.1,36.4,145.7,36.2,145.3,36.1z"/>
				<path class="st16" d="M148.6,19.9l-0.4,0.6l-0.4,0.6c0.2,0.4,0.4,0.8,0.6,1.2c0.1,0.2,0.2,0.4,0.3,0.5c0.1,0.2,0.2,0.4,0.3,0.5
					c0.2,0,0.4,0,0.6,0c0.2,0,0.4,0,0.6,0c0.4,0,0.8,0,1.2,0.1l0.3-0.4l0.3-0.4c-0.4-0.1-0.8-0.1-1.2-0.2c-0.4,0-0.8-0.1-1.2-0.1
					c-0.2-0.4-0.4-0.7-0.6-1.1C148.9,20.7,148.7,20.3,148.6,19.9z"/>
				<path class="st16" d="M146.4,39.2l0.1,0.3l0.1,0.2l0.1,0.2l0.3,0.6c0.4,0,0.9,0.1,1.3,0.1l0.3,0l0.3,0c0.2,0,0.4,0,0.6,0
					c0.1-0.2,0.2-0.4,0.3-0.5l0.2-0.3l0.2-0.3c0.2-0.3,0.5-0.7,0.7-1l-0.2-0.5l-0.1-0.1l-0.1-0.1l-0.1-0.2c-0.1,0.2-0.3,0.3-0.4,0.5
					l-0.2,0.2l-0.2,0.2c-0.2,0.3-0.5,0.7-0.7,1c-0.4,0-0.8-0.1-1.3-0.1l-0.3,0l-0.3,0C146.8,39.3,146.6,39.3,146.4,39.2z"/>
				<path class="st16" d="M150.7,17.9c-0.3,0.3-0.7,0.6-1,0.9c0.2,0.8,0.4,1.5,0.7,2.2c0.8,0.1,1.5,0.3,2.2,0.5
					c0.2-0.2,0.5-0.4,0.7-0.7c-0.7-0.3-1.4-0.5-2.1-0.7C150.9,19.4,150.8,18.7,150.7,17.9z"/>
				<path class="st16" d="M148,42c0.1,0.2,0.3,0.4,0.4,0.5c0.1,0.2,0.3,0.4,0.4,0.5c0.8-0.1,1.6-0.2,2.3-0.4
					c0.2-0.7,0.5-1.4,0.8-2.1c-0.1-0.1-0.2-0.2-0.3-0.4l-0.3-0.4c-0.2,0.3-0.4,0.6-0.5,1c-0.2,0.3-0.3,0.7-0.5,1
					c-0.4,0.1-0.8,0.1-1.2,0.1C148.8,42,148.4,42,148,42z"/>
			</g>
		</g>
		<g>
			<defs>
				<circle id="SVGID_1_" cx="142.8" cy="37" r="36.4"/>
			</defs>
			<clipPath id="SVGID_2_">
				<use xlink:href="#SVGID_1_"  style="overflow:visible;"/>
			</clipPath>
			<g class="st17">
				<path class="st18" d="M109,84.9c2.6,2.4,4.7,2.1,5.4,1.6c0.4-0.3,1.1-1,1.8-1.8l0.1-0.1c0.4-0.4,0.5-1,0.5-1.8l0-0.1
					c-0.1-0.8-0.1-1.3-0.1-1.5c2.1-2.3,16.3-17.3,18.2-18.9l0,0l0,0c1.5-1.4,11.5-8.8,12.7-9.6c0.2-0.1,3.8-2.7,5.6-4.5
					c0.2-0.2,17.3-18,19.5-20.6c0.9-0.9,0.3-2.7-0.1-3.6c-0.7-1.6-1.9-3.2-3.4-4.5c-1.5-1.4-3.2-2.4-4.8-3c-1-0.3-2.8-0.7-3.6,0.2
					c-2.4,2.4-18.7,21-18.8,21.2c-1.6,1.9-3.9,5.8-4,5.9c-0.7,1.2-7.2,11.8-8.5,13.5l0,0l0,0c-1.5,2-15.1,17.5-17.3,19.8
					c-0.3,0-0.7,0-1.6,0l-0.1,0c-0.8,0-1.3,0.2-1.7,0.6l-0.1,0.1c-0.7,0.7-1.4,1.5-1.6,1.9C106.5,80.4,106.4,82.5,109,84.9z"/>
				<path class="st19" d="M161.4,17.3c0.7-0.7,4,0,7.1,2.8c3.1,2.9,4.1,6.1,3.4,6.9c-2.1,2.4-18,19-19.5,20.6
					c-1.5,1.5-4.5,3.7-5.4,4.4c-1,0.7-11.2,8.2-12.8,9.7c-2.1,1.8-17.6,18.1-18.6,19.2c-0.1,0.6,0.1,1.9,0.1,2.1
					c0,0.1,0.1,0.7-0.2,1.1c-0.3,0.3-1.3,1.4-1.7,1.7c-0.4,0.3-2,0.5-4.2-1.5c-2.3-2.1-2.1-3.7-1.9-4.1c0.3-0.4,1.3-1.5,1.6-1.9
					c0.3-0.3,0.9-0.3,1-0.3c0.1,0,1.5,0.1,2.1-0.1c1.1-1.1,15.9-17.9,17.6-20.1c1.4-1.7,8-12.5,8.6-13.6c0.6-1,2.5-4.2,3.9-5.8
					C143.9,36.8,159.1,19.6,161.4,17.3z"/>
				<path class="st20" d="M134.2,61.6c-2.1,1.8-17.6,18.1-18.6,19.2c-0.1,0.6-3.8-2.9-3.2-3c1.1-1.1,15.9-17.9,17.6-20.1
					C131.2,59.1,133.5,61,134.2,61.6z"/>
				<path class="st21" d="M167.3,23.9c-3.5,3.8-16.5,18.3-20.5,22.6c-2.7,2.9-12.6,10.9-14.8,12.8c0.8,1.1,1.5,1.4,1.9,1.6
					c3-2.3,14.6-11,15.3-11.4c0.7-0.5,2.7-2.2,3.3-3c0.6-0.7,18.4-19.5,18.4-19.5L167.3,23.9z"/>
				<path class="st21" d="M115.2,80.9l-1.6-1.5l-0.2,2.7c0,0-2,2.9-3.8,2.2c0.7,0.5,3.4,1.6,3.8,1.4c0.4-0.3,2.1-1.8,2.1-2.5
					C115.5,82.4,115.2,80.9,115.2,80.9z"/>
				<path class="st18" d="M116.2,83.6c-1.3-0.4-4.5-2.7-6.1-4.2c1.4,2.6,3.7,5.1,5.1,5.7C115.4,84.8,116.2,83.7,116.2,83.6z"/>
				<g>
					<path class="st18" d="M134.5,62.4c-1-0.3-3.9-2.5-5.3-4.7l1-0.6c1.4,2.2,4.1,4,4.6,4.2L134.5,62.4z"/>
				</g>
				<g>
					<path class="st18" d="M116,81.6c-1.2-0.6-3.2-2.3-4.2-3.9l1-0.6c0.8,1.4,2.7,2.9,3.8,3.5L116,81.6z"/>
				</g>
				<path class="st18" d="M172.1,27.1c0.7-0.7-0.3-4.6-3.6-7c0,0,4.2,4.4,2.8,6.3C169,29,152,46.7,151.8,46.9
					c-1.3,1.3-4,3.4-5.3,4.3c-0.9,0.6-11.2,8.2-12.9,9.8c-2.2,1.9-17.6,18.1-18.6,19.3l-0.2,0.2l0,0.3c0,0.4,0,1.2,0.1,2.2l0,0.1
					c0,0.2,0,0.3,0,0.4l-0.1,0.1c-0.8,0.8-1.3,1.4-1.5,1.5c-0.8,0.8-3.8-0.8-3.8-0.8c1.7,2.1,4,2,4.4,1.7c0.4-0.3,1.4-1.4,1.7-1.7
					c0.3-0.3,0.2-0.9,0.2-1.1c0-0.1-0.2-1.5-0.1-2.1c1-1.1,16.4-17.4,18.6-19.2c1.6-1.5,11.8-9,12.8-9.7c0.9-0.7,4-2.9,5.4-4.4
					C154.1,46.1,170,29.5,172.1,27.1z"/>
				<path class="st18" d="M172,26.1c-0.8-0.1-6.6-5-8-6.3c2.9,4.2,5.6,6.9,6.9,7.8C171.5,27.1,172,26.4,172,26.1z"/>
				<path class="st18" d="M169.5,25.9c-3.7,4.1-12,12.2-13.3,13.3c2.6-3.1,11.3-13.8,12-14.8C168.7,24.5,169.3,25.6,169.5,25.9z"/>
				<path class="st18" d="M157.9,26.3c-1.5,2.1-10.4,12.7-13.1,16c-1.7,2-3.8,5-6,8.3c1.8-3.6,3.7-7.1,5.2-9.4
					C146.5,38.1,155.3,28.4,157.9,26.3z"/>
				<polygon class="st18" points="133,62.8 127.9,62.8 130.7,65.3 				"/>
				<polygon class="st15" points="126.9,62.4 127.2,65.8 125.3,64.1 				"/>
				<polygon class="st15" points="123,66.6 123.3,70 121.5,68.3 				"/>
				<polygon class="st15" points="119.2,70.8 119.5,74.2 117.6,72.5 				"/>
				<polygon class="st15" points="115.3,75 115.6,78.4 113.8,76.7 				"/>
				<polygon class="st18" points="129.1,67 124,67 126.7,69.6 				"/>
				<polygon class="st18" points="125.1,71.3 120,71.3 122.8,73.9 				"/>
				<polygon class="st18" points="121.2,75.6 116.1,75.6 118.9,78.2 				"/>
				<path class="st15" d="M161.4,17.3c0.7-0.7,4,0,7.1,2.8c0,0-3.4-2.3-6.5-2.1c-2.4,2.5-18.6,20.9-18.8,21.1
					c-1.2,1.4-3,4.3-3.8,5.6c-0.5,0.9-7.2,11.8-8.7,13.7c-1.7,2.3-16.5,19-17.7,20.2l-0.2,0.2l-0.3,0.1c-0.4,0.1-1.2,0.1-2.2,0.1
					l-0.1,0c-0.2,0-0.3,0-0.3,0l-0.1,0.1c-0.9,1-1.3,1.4-1.4,1.6c-0.6,1.5,1.1,3.6,1.1,3.6c-2.3-2.1-2.1-3.7-1.9-4.1
					c0.3-0.4,1.3-1.5,1.6-1.9c0.3-0.3,0.9-0.3,1-0.3c0.1,0,1.5,0.1,2.1-0.1c1.1-1.1,15.9-17.9,17.6-20.1c1.4-1.7,8-12.5,8.6-13.6
					c0.6-1,2.5-4.2,3.9-5.8C143.9,36.8,159.1,19.6,161.4,17.3z"/>
				<path class="st18" d="M133.1,60.5c0.5-0.6,3.7-4.1,4.1-4.6c-1.5,1.2-4.6,3.4-5.1,3.8C132.4,60,133,60.4,133.1,60.5z"/>
				<path class="st18" d="M154.9,40.8c-2.2,2.2-6.8,6.1-7.7,7c-1,0.9-7.2,6.9-8.1,7.4c3.6-2.1,8.9-6.1,9.5-6.7
					C149.1,47.9,153.8,42.3,154.9,40.8z"/>
			</g>
		</g>
	</g>
	
		<rect x="29.2" y="42" transform="matrix(2.541903e-02 0.9997 -0.9997 2.541903e-02 87.3943 11.5816)" class="st11" width="17.1" height="17.1"/>
	<circle class="st22" cx="23.4" cy="37.1" r="23.1"/>
	<g>
		<path class="st23" d="M39.9,26H7c0,0,0,0,0,0v8.5v0.1v10.6h4.6h0.1h23.7h0.3h4.2v-8v-1.7L39.9,26C39.9,26.1,39.9,26,39.9,26z"/>
		<path class="st11" d="M39.9,24.9H7c-0.6,0-1.2,0.5-1.2,1.2v8.5v0.1v12.2c0,0.6,0.5,1.2,1.2,1.2h4.5h9.1v1.3c0,0.2-0.1,0.3-0.3,0.3
			h-2.3c-0.2,0-0.4,0.2-0.4,0.4v0.4H29v-0.4c0-0.2-0.2-0.4-0.4-0.4h-2.3c-0.2,0-0.3-0.1-0.3-0.3v-1.3h9.5h4.2c0.6,0,1.2-0.5,1.2-1.2
			v-9.6v-1.7v-9.6C41,25.4,40.5,24.9,39.9,24.9z M39.9,37.3v8h-4.2h-0.3H11.6h-0.1H7V34.7v-0.1v-8.5c0,0,0,0,0,0h32.8c0,0,0,0,0,0
			v9.6V37.3z"/>
	</g>
</g>
</svg>
