<?xml version="1.0" encoding="utf-8"?>
<!-- Generator: Adobe Illustrator 24.2.3, SVG Export Plug-In . SVG Version: 6.00 Build 0)  -->
<svg version="1.1" id="Layer_1" xmlns="http://www.w3.org/2000/svg" xmlns:xlink="http://www.w3.org/1999/xlink" x="0px" y="0px"
	 viewBox="0 0 1150 370" style="enable-background:new 0 0 1150 370;" xml:space="preserve">
<style type="text/css">
	.st0{fill:#004D71;}
	.st1{fill:none;stroke:#5B6670;}
	.st2{fill:#FFFFFF;}
	.st3{fill:none;stroke:#9D9FA2;stroke-width:2;stroke-miterlimit:10;}
	.st4{fill:#EF5224;}
	.st5{fill:#C7DFF4;}
	.st6{fill:#BC9260;}
	.st7{fill:#602329;}
	.st8{fill:#4D1216;}
	.st9{fill:#995E36;}
	.st10{fill:#150909;}
	.st11{fill:#B67B53;}
	.st12{fill:none;stroke:#F05325;stroke-width:1.276;stroke-miterlimit:10;}
	.st13{fill:#5B6670;}
	.st14{fill:#FF5C35;}
	.st15{fill-rule:evenodd;clip-rule:evenodd;fill:#FFFFFF;}
	.st16{clip-path:url(#SVGID_2_);fill:none;stroke:#F05325;stroke-width:2;stroke-miterlimit:10;}
</style>
<g>
	<path class="st0" d="M834,74.5h-5.5l-1.3,4h-2.9l5.5-15.6h3l5.5,15.6h-2.9L834,74.5z M831.2,65.6c0,0-0.4,1.5-0.7,2.4l-1.4,4.2h4.1
		l-1.4-4.2C831.6,67.1,831.3,65.6,831.2,65.6L831.2,65.6z"/>
	<path class="st0" d="M840.2,62.9h5.3c4.8,0,8,2.9,8,7.8s-3.1,7.8-8,7.8h-5.3V62.9z M845.4,76.1c3.2,0,5.2-1.9,5.2-5.4
		c0-3.5-2.1-5.3-5.2-5.3h-2.3v10.7H845.4z"/>
	<path class="st0" d="M861.8,62.9h9.4v2.4h-6.5v4.1h5.3v2.4h-5.3v4.2h6.9v2.4h-9.7V62.9z"/>
	<path class="st0" d="M877.7,70.6l-4.7-7.7h3.2l2.1,3.8c0.5,0.9,1,1.9,1,1.9h0c0,0,0.4-1,0.9-1.9l2.2-3.8h3.3l-4.7,7.7l4.9,7.9h-3.2
		l-2.4-4.2c-0.5-0.9-1-1.8-1-1.8h0c0,0-0.4,0.9-1,1.8l-2.4,4.2h-3.2L877.7,70.6z"/>
	<path class="st0" d="M888.4,62.9h6c2.9,0,5,2,5,5.1s-2,5.1-5,5.1h-3.2v5.4h-2.8V62.9z M893.9,70.6c1.6,0,2.6-1.1,2.6-2.7
		c0-1.6-1-2.6-2.6-2.6h-2.7v5.3H893.9z"/>
	<path class="st0" d="M901.9,62.9h9.4v2.4h-6.5v4.1h5.3v2.4h-5.3v4.2h6.9v2.4h-9.7V62.9z"/>
	<path class="st0" d="M914.6,62.9h5c1.7,0,2.5,0.1,3.1,0.4c1.6,0.7,2.6,2.2,2.6,4.3c0,1.9-1,3.6-2.6,4.3v0c0,0,0.2,0.2,0.5,0.8
		l3.2,5.8h-3.2l-3.1-5.8h-2.7v5.8h-2.8V62.9z M919.9,70.2c1.5,0,2.5-0.9,2.5-2.5c0-1.5-0.6-2.4-2.9-2.4h-2.2v4.9H919.9z"/>
	<path class="st0" d="M929,62.9h2.8v15.6H929V62.9z"/>
	<path class="st0" d="M935.8,62.9h9.4v2.4h-6.5v4.1h5.3v2.4h-5.3v4.2h6.9v2.4h-9.7V62.9z"/>
	<path class="st0" d="M948.5,62.9h2.8l5.9,9c0.6,0.9,1.3,2.4,1.3,2.4h0c0,0-0.2-1.5-0.2-2.4v-9h2.8v15.6h-2.8l-5.9-9
		c-0.6-0.9-1.3-2.4-1.3-2.4h0c0,0,0.2,1.5,0.2,2.4v9h-2.8V62.9z"/>
	<path class="st0" d="M972.2,62.6c3.8,0,5.8,2.1,5.8,2.1l-1.4,2.1c0,0-1.8-1.7-4.3-1.7c-3.3,0-5.2,2.5-5.2,5.4c0,3,2,5.6,5.3,5.6
		c2.7,0,4.5-2,4.5-2l1.5,2c0,0-2.2,2.5-6.1,2.5c-4.8,0-8.1-3.5-8.1-8.1C964.1,66.1,967.6,62.6,972.2,62.6z"/>
	<path class="st0" d="M981,62.9h9.4v2.4h-6.5v4.1h5.3v2.4h-5.3v4.2h6.9v2.4H981V62.9z"/>
	<path class="st0" d="M1000.6,70.2L1000.6,70.2c0,0-2-0.8-2-3.5c0-2.8,2.2-4.1,4.9-4.1c1,0,2,0.3,2,0.3l-0.7,2.2c0,0-0.5-0.1-1-0.1
		c-1.3,0-2.4,0.7-2.4,2.1c0,0.9,0.5,2.1,2.4,2.1h2.5v-2h2.8v2h2v2.5h-2v1.8c0,3.2-2.1,5.3-5.6,5.3c-3.4,0-5.6-2-5.6-4.7
		C998,72.4,999,70.8,1000.6,70.2z M1003.5,76.2c1.8,0,2.8-1,2.8-2.9v-1.7h-2.6c-1.7,0-2.9,0.8-2.9,2.3
		C1000.9,75.2,1001.9,76.2,1003.5,76.2z"/>
	<path class="st0" d="M1022.6,65.3h-5.1v-2.4h13.1v2.4h-5.1v13.2h-2.8V65.3z"/>
	<path class="st0" d="M1032.7,62.9h5c1.7,0,2.5,0.1,3.1,0.4c1.6,0.7,2.6,2.2,2.6,4.3c0,1.9-1,3.6-2.6,4.3v0c0,0,0.2,0.2,0.5,0.8
		l3.2,5.8h-3.2l-3.1-5.8h-2.7v5.8h-2.8V62.9z M1038.1,70.2c1.5,0,2.5-0.9,2.5-2.5c0-1.5-0.6-2.4-2.9-2.4h-2.2v4.9H1038.1z"/>
	<path class="st0" d="M1054.9,74.5h-5.5l-1.3,4h-2.9l5.5-15.6h3l5.5,15.6h-2.9L1054.9,74.5z M1052.2,65.6c0,0-0.4,1.5-0.7,2.4
		l-1.4,4.2h4.1l-1.4-4.2C1052.5,67.1,1052.2,65.6,1052.2,65.6L1052.2,65.6z"/>
	<path class="st0" d="M1068.1,62.6c3.8,0,5.8,2.1,5.8,2.1l-1.4,2.1c0,0-1.8-1.7-4.3-1.7c-3.3,0-5.2,2.5-5.2,5.4c0,3,2,5.6,5.3,5.6
		c2.7,0,4.5-2,4.5-2l1.5,2c0,0-2.2,2.5-6.1,2.5c-4.8,0-8.1-3.5-8.1-8.1C1060.1,66.1,1063.5,62.6,1068.1,62.6z"/>
	<path class="st0" d="M1076.9,62.9h2.8v6.4h2l3.7-6.4h3.1l-4.4,7.4v0l4.7,8.1h-3.2l-3.8-6.8h-2v6.8h-2.8V62.9z"/>
	<path class="st0" d="M1091.1,62.9h2.8v15.6h-2.8V62.9z"/>
	<path class="st0" d="M1097.9,62.9h2.8l5.9,9c0.6,0.9,1.3,2.4,1.3,2.4h0c0,0-0.2-1.5-0.2-2.4v-9h2.8v15.6h-2.8l-5.9-9
		c-0.6-0.9-1.3-2.4-1.3-2.4h0c0,0,0.2,1.5,0.2,2.4v9h-2.8V62.9z"/>
	<path class="st0" d="M1121.7,62.6c3.8,0,5.8,2,5.8,2l-1.4,2.1c0,0-1.7-1.5-4.2-1.5c-3.5,0-5.4,2.4-5.4,5.4c0,3.4,2.3,5.6,5.2,5.6
		c2.4,0,3.9-1.6,3.9-1.6v-1.8h-2.4v-2.4h5v8.2h-2.4v-0.7c0-0.3,0-0.7,0-0.7h0c0,0-1.6,1.7-4.5,1.7c-4.1,0-7.7-3.2-7.7-8.1
		C1113.6,66.1,1117,62.6,1121.7,62.6z"/>
</g>
<g>
	<path d="M832.5,102.7c0,0-0.2,1.1-0.4,1.9l-2.4,8.9h-1.5l-3.3-12.7h1.3l2.4,9.8c0.2,0.6,0.3,1.4,0.3,1.4h0c0,0,0.1-0.7,0.3-1.4
		l2.7-9.8h1.2l2.7,9.8c0.2,0.6,0.3,1.4,0.3,1.4h0c0,0,0.1-0.7,0.3-1.4l2.5-9.8h1.3l-3.4,12.7h-1.5l-2.4-8.9
		C832.8,103.8,832.6,102.7,832.5,102.7L832.5,102.7z"/>
	<path d="M842.3,100.9h1.3v1.5h-1.3V100.9z M842.4,104.5h1.2v9.1h-1.2V104.5z"/>
	<path d="M846.9,105.6h-1.2v-1h1.2v-2.6h1.2v2.6h2.3v1h-2.3v4.5c0,2.1,1.4,2.4,2,2.4c0.3,0,0.4,0,0.4,0v1.1c0,0-0.2,0-0.5,0
		c-1,0-3.2-0.3-3.2-3.4V105.6z"/>
	<path d="M852.6,100.9h1.2v4.9c0,0.4,0,0.7,0,0.7h0c0.3-0.9,1.5-2.3,3.6-2.3c2.2,0,3,1.3,3,3.5v5.8h-1.2v-5.4c0-1.4-0.2-2.7-2-2.7
		c-1.5,0-2.9,1.1-3.3,2.6c-0.1,0.4-0.1,0.8-0.1,1.2v4.3h-1.2V100.9z"/>
	<path d="M867.2,115.8c0,0,0.5,0.4,1.1,0.4c0.8,0,1.3-0.6,1.7-1.5l0.6-1.3l-3.8-9h1.4l2.7,6.6c0.2,0.5,0.3,1,0.3,1h0
		c0,0,0.1-0.5,0.3-1l2.6-6.6h1.3l-4.5,10.9c-0.5,1.2-1.4,1.9-2.6,1.9c-0.9,0-1.6-0.5-1.6-0.5L867.2,115.8z"/>
	<path d="M881.2,104.2c2.6,0,4.8,2,4.8,4.7c0,2.7-2.1,4.8-4.8,4.8s-4.8-2.1-4.8-4.8C876.4,106.3,878.6,104.2,881.2,104.2z
		 M881.2,112.6c1.9,0,3.5-1.6,3.5-3.7c0-2.1-1.6-3.6-3.5-3.6s-3.5,1.5-3.5,3.6C877.7,111,879.3,112.6,881.2,112.6z"/>
	<path d="M888.2,104.5h1.2v5.4c0,1.4,0.2,2.7,2,2.7c2.1,0,3.3-1.8,3.3-3.8v-4.3h1.2v9.1h-1.2v-1.4c0-0.4,0-0.7,0-0.7h0
		c-0.4,0.9-1.5,2.3-3.5,2.3c-2.1,0-3-1.2-3-3.5V104.5z"/>
	<path d="M898.9,104.5h1.2v1.6c0,0.4,0,0.7,0,0.7h0c0.4-1.4,1.4-2.4,2.9-2.4c0.3,0,0.5,0.1,0.5,0.1v1.2c0,0-0.2,0-0.5,0
		c-1.3,0-2.2,1-2.6,2.3c-0.2,0.6-0.3,1.2-0.3,1.8v3.8h-1.2V104.5z"/>
	<path d="M914.9,107.9h0.5v-0.2c0-1.7-1-2.3-2.3-2.3c-1.5,0-2.6,0.9-2.6,0.9l-0.6-0.9c0,0,1.2-1,3.2-1c2.2,0,3.4,1.2,3.4,3.5v5.8
		h-1.2v-1c0-0.5,0-0.8,0-0.8h0c0,0-0.8,2-3,2c-1.5,0-3.1-0.9-3.1-2.7C909.4,108,913.4,107.9,914.9,107.9z M912.7,112.7
		c1.7,0,2.8-1.8,2.8-3.4v-0.4h-0.5c-1.4,0-4.3,0.1-4.3,2.1C910.6,111.8,911.3,112.7,912.7,112.7z"/>
	<path d="M923,104.2c2.2,0,3,1.7,3,1.7h0c0,0,0-0.3,0-0.7v-4.4h1.2v12.7h-1.2v-1c0-0.4,0-0.6,0-0.6h0c0,0-0.7,1.8-3.1,1.8
		c-2.4,0-3.9-1.9-3.9-4.8C918.9,106.1,920.6,104.2,923,104.2z M923,112.6c1.5,0,2.9-1.1,2.9-3.7c0-1.8-0.9-3.6-2.9-3.6
		c-1.6,0-2.9,1.4-2.9,3.6C920.1,111.2,921.3,112.6,923,112.6z"/>
	<path d="M934.9,104.5h1.2v0.9c0,0.4,0,0.7,0,0.7h0c0,0,0.7-1.8,3.1-1.8c2.4,0,3.9,1.9,3.9,4.8c0,2.9-1.7,4.7-4.1,4.7
		c-2.2,0-3-1.7-3-1.7h0c0,0,0,0.3,0,0.8v4.3h-1.2V104.5z M939,112.6c1.6,0,2.9-1.4,2.9-3.7c0-2.2-1.2-3.6-2.9-3.6
		c-1.5,0-2.9,1.1-2.9,3.7C936.1,110.8,937.1,112.6,939,112.6z"/>
	<path d="M945.4,100.9h1.2v10.2c0,1.2,0.5,1.4,1,1.4c0.2,0,0.3,0,0.3,0v1.1c0,0-0.2,0-0.5,0c-0.8,0-2.1-0.2-2.1-2.2V100.9z"/>
	<path d="M954.8,107.9h0.5v-0.2c0-1.7-1-2.3-2.3-2.3c-1.5,0-2.6,0.9-2.6,0.9l-0.6-0.9c0,0,1.2-1,3.2-1c2.2,0,3.4,1.2,3.4,3.5v5.8
		h-1.2v-1c0-0.5,0-0.8,0-0.8h0c0,0-0.8,2-3,2c-1.5,0-3.1-0.9-3.1-2.7C949.2,108,953.2,107.9,954.8,107.9z M952.5,112.7
		c1.7,0,2.8-1.8,2.8-3.4v-0.4h-0.5c-1.4,0-4.3,0.1-4.3,2.1C950.5,111.8,951.2,112.7,952.5,112.7z"/>
	<path d="M963.5,104.2c2.2,0,3.3,1.3,3.3,1.3l-0.6,0.9c0,0-1-1.1-2.6-1.1c-2,0-3.5,1.5-3.5,3.6c0,2.1,1.6,3.6,3.6,3.6
		c1.8,0,2.9-1.3,2.9-1.3l0.6,1c0,0-1.2,1.4-3.5,1.4c-2.7,0-4.8-1.9-4.8-4.7C958.7,106.2,960.8,104.2,963.5,104.2z"/>
	<path d="M973,104.2c2.5,0,3.8,1.9,3.8,4.2c0,0.2,0,0.6,0,0.6h-7c0.1,2.3,1.6,3.6,3.5,3.6c1.7,0,2.8-1.1,2.8-1.1l0.6,0.9
		c0,0-1.3,1.3-3.3,1.3c-2.7,0-4.7-1.9-4.7-4.7C968.6,106,970.6,104.2,973,104.2z M975.6,108c-0.1-1.9-1.2-2.8-2.6-2.8
		c-1.5,0-2.8,1-3.1,2.8H975.6z"/>
	<path d="M982.6,104.2c2.2,0,3,1.7,3,1.7h0c0,0,0-0.3,0-0.7v-4.4h1.2v12.7h-1.2v-1c0-0.4,0-0.6,0-0.6h0c0,0-0.7,1.8-3.1,1.8
		c-2.4,0-3.9-1.9-3.9-4.8C978.6,106.1,980.3,104.2,982.6,104.2z M982.7,112.6c1.5,0,2.9-1.1,2.9-3.7c0-1.8-0.9-3.6-2.9-3.6
		c-1.6,0-2.9,1.4-2.9,3.6C979.8,111.2,981,112.6,982.7,112.6z"/>
	<path d="M999.4,107.9h0.5v-0.2c0-1.7-1-2.3-2.3-2.3c-1.5,0-2.6,0.9-2.6,0.9l-0.6-0.9c0,0,1.2-1,3.2-1c2.2,0,3.4,1.2,3.4,3.5v5.8
		h-1.2v-1c0-0.5,0-0.8,0-0.8h0c0,0-0.8,2-3,2c-1.5,0-3.1-0.9-3.1-2.7C993.9,108,997.9,107.9,999.4,107.9z M997.1,112.7
		c1.7,0,2.8-1.8,2.8-3.4v-0.4h-0.5c-1.4,0-4.3,0.1-4.3,2.1C995.1,111.8,995.8,112.7,997.1,112.7z"/>
	<path d="M1003.9,100.9h1.2v10.2c0,1.2,0.5,1.4,1,1.4c0.2,0,0.3,0,0.3,0v1.1c0,0-0.2,0-0.5,0c-0.8,0-2.1-0.2-2.1-2.2V100.9z"/>
	<path d="M1008.4,104.5h1.2v1.4c0,0.4,0,0.7,0,0.7h0c0.4-1.2,1.9-2.3,3.3-2.3c1.7,0,2.5,0.8,2.8,2.3h0c0.5-1.2,1.8-2.3,3.3-2.3
		c2.2,0,3,1.3,3,3.5v5.8h-1.2v-5.5c0-1.5-0.3-2.7-2-2.7c-1.4,0-2.5,1.2-2.9,2.6c-0.1,0.4-0.2,0.8-0.2,1.3v4.3h-1.2v-5.5
		c0-1.4-0.2-2.7-1.9-2.7c-1.5,0-2.6,1.3-3,2.7c-0.1,0.4-0.1,0.8-0.1,1.2v4.3h-1.2V104.5z"/>
	<path d="M1029,104.2c2.6,0,4.8,2,4.8,4.7c0,2.7-2.1,4.8-4.8,4.8s-4.8-2.1-4.8-4.8C1024.2,106.3,1026.4,104.2,1029,104.2z
		 M1029,112.6c1.9,0,3.5-1.6,3.5-3.7c0-2.1-1.6-3.6-3.5-3.6s-3.5,1.5-3.5,3.6C1025.5,111,1027.1,112.6,1029,112.6z"/>
	<path d="M1036,111.5c0,0,1,1.1,2.7,1.1c1,0,1.8-0.5,1.8-1.4c0-2-4.9-1.5-4.9-4.4c0-1.6,1.5-2.5,3.1-2.5c1.9,0,2.8,1,2.8,1l-0.6,0.9
		c0,0-0.8-0.8-2.3-0.8c-0.9,0-1.8,0.4-1.8,1.4c0,2,4.9,1.5,4.9,4.4c0,1.5-1.3,2.5-3.1,2.5c-2.2,0-3.3-1.3-3.3-1.3L1036,111.5z"/>
	<path d="M1044.4,105.6h-1.2v-1h1.2v-2.6h1.2v2.6h2.3v1h-2.3v4.5c0,2.1,1.4,2.4,2,2.4c0.3,0,0.4,0,0.4,0v1.1c0,0-0.2,0-0.5,0
		c-1,0-3.2-0.3-3.2-3.4V105.6z"/>
	<path d="M1054.9,100.9h1.3v1.5h-1.3V100.9z M1054.9,104.5h1.2v9.1h-1.2V104.5z"/>
	<path d="M1059.1,104.5h1.2v1.4c0,0.4,0,0.7,0,0.7h0c0.3-0.8,1.5-2.3,3.6-2.3c2.2,0,3,1.3,3,3.5v5.8h-1.2v-5.4c0-1.4-0.2-2.7-2-2.7
		c-1.5,0-2.9,1.1-3.3,2.6c-0.1,0.4-0.1,0.8-0.1,1.2v4.3h-1.2V104.5z"/>
	<path d="M1069.7,111.5c0,0,1,1.1,2.7,1.1c1,0,1.8-0.5,1.8-1.4c0-2-4.9-1.5-4.9-4.4c0-1.6,1.5-2.5,3.1-2.5c1.9,0,2.8,1,2.8,1
		l-0.6,0.9c0,0-0.8-0.8-2.3-0.8c-0.9,0-1.8,0.4-1.8,1.4c0,2,4.9,1.5,4.9,4.4c0,1.5-1.3,2.5-3.1,2.5c-2.2,0-3.3-1.3-3.3-1.3
		L1069.7,111.5z"/>
	<path d="M1078.1,105.6h-1.2v-1h1.2v-2.6h1.2v2.6h2.3v1h-2.3v4.5c0,2.1,1.4,2.4,2,2.4c0.3,0,0.4,0,0.4,0v1.1c0,0-0.2,0-0.5,0
		c-1,0-3.2-0.3-3.2-3.4V105.6z"/>
	<path d="M1088.6,107.9h0.5v-0.2c0-1.7-1-2.3-2.3-2.3c-1.5,0-2.6,0.9-2.6,0.9l-0.6-0.9c0,0,1.2-1,3.2-1c2.2,0,3.4,1.2,3.4,3.5v5.8
		h-1.2v-1c0-0.5,0-0.8,0-0.8h0c0,0-0.8,2-3,2c-1.5,0-3.1-0.9-3.1-2.7C1083.1,108,1087,107.9,1088.6,107.9z M1086.3,112.7
		c1.7,0,2.8-1.8,2.8-3.4v-0.4h-0.5c-1.4,0-4.3,0.1-4.3,2.1C1084.3,111.8,1085,112.7,1086.3,112.7z"/>
	<path d="M1093.2,104.5h1.2v1.4c0,0.4,0,0.7,0,0.7h0c0.3-0.8,1.5-2.3,3.6-2.3c2.2,0,3,1.3,3,3.5v5.8h-1.2v-5.4c0-1.4-0.2-2.7-2-2.7
		c-1.5,0-2.9,1.1-3.3,2.6c-0.1,0.4-0.1,0.8-0.1,1.2v4.3h-1.2V104.5z"/>
	<path d="M1104.2,105.6h-1.2v-1h1.2v-2.6h1.2v2.6h2.3v1h-2.3v4.5c0,2.1,1.4,2.4,2,2.4c0.3,0,0.4,0,0.4,0v1.1c0,0-0.2,0-0.5,0
		c-1,0-3.2-0.3-3.2-3.4V105.6z"/>
	<path d="M1109.8,100.9h1.2v10.2c0,1.2,0.5,1.4,1,1.4c0.2,0,0.3,0,0.3,0v1.1c0,0-0.2,0-0.5,0c-0.8,0-2.1-0.2-2.1-2.2V100.9z"/>
	<path d="M1113.4,115.8c0,0,0.5,0.4,1.1,0.4c0.8,0,1.4-0.6,1.7-1.5l0.6-1.3l-3.8-9h1.4l2.7,6.6c0.2,0.5,0.3,1,0.3,1h0
		c0,0,0.1-0.5,0.3-1l2.6-6.6h1.3l-4.5,10.9c-0.5,1.2-1.4,1.9-2.6,1.9c-0.9,0-1.6-0.5-1.6-0.5L1113.4,115.8z"/>
</g>
<g>
	<path d="M1123,112h1.4l-1.3,3.2h-1L1123,112z"/>
</g>
<g>
	<path d="M826,135.6h-1.2v-1h1.2v-2.6h1.2v2.6h2.3v1h-2.3v4.5c0,2.1,1.4,2.4,2,2.4c0.3,0,0.4,0,0.4,0v1.1c0,0-0.2,0-0.5,0
		c-1,0-3.2-0.3-3.2-3.4V135.6z"/>
	<path d="M831.7,130.9h1.2v4.9c0,0.4,0,0.7,0,0.7h0c0.3-0.9,1.5-2.3,3.6-2.3c2.2,0,3,1.3,3,3.5v5.8h-1.2v-5.4c0-1.4-0.2-2.7-2-2.7
		c-1.5,0-2.9,1.1-3.3,2.6c-0.1,0.4-0.1,0.8-0.1,1.2v4.3h-1.2V130.9z"/>
	<path d="M846.2,134.2c2.5,0,3.8,1.9,3.8,4.2c0,0.2,0,0.6,0,0.6h-7c0.1,2.3,1.6,3.6,3.5,3.6c1.7,0,2.8-1.1,2.8-1.1l0.6,0.9
		c0,0-1.3,1.3-3.3,1.3c-2.7,0-4.7-1.9-4.7-4.7C841.8,136,843.8,134.2,846.2,134.2z M848.8,138c-0.1-1.9-1.2-2.8-2.6-2.8
		c-1.5,0-2.8,1-3.1,2.8H848.8z"/>
	<path d="M857.1,134.5h1.2v5.4c0,1.4,0.2,2.7,2,2.7c2.1,0,3.3-1.8,3.3-3.8v-4.3h1.2v9.1h-1.2v-1.4c0-0.4,0-0.7,0-0.7h0
		c-0.4,0.9-1.5,2.3-3.5,2.3c-2.1,0-3-1.2-3-3.5V134.5z"/>
	<path d="M867.7,141.5c0,0,1,1.1,2.7,1.1c1,0,1.8-0.5,1.8-1.4c0-2-4.9-1.5-4.9-4.4c0-1.6,1.5-2.5,3.1-2.5c1.9,0,2.8,1,2.8,1
		l-0.6,0.9c0,0-0.8-0.8-2.3-0.8c-0.9,0-1.8,0.4-1.8,1.4c0,2,4.9,1.5,4.9,4.4c0,1.5-1.3,2.5-3.1,2.5c-2.2,0-3.3-1.3-3.3-1.3
		L867.7,141.5z"/>
	<path d="M879.6,134.2c2.5,0,3.8,1.9,3.8,4.2c0,0.2,0,0.6,0,0.6h-7c0.1,2.3,1.6,3.6,3.5,3.6c1.7,0,2.8-1.1,2.8-1.1l0.6,0.9
		c0,0-1.3,1.3-3.3,1.3c-2.7,0-4.7-1.9-4.7-4.7C875.1,136,877.1,134.2,879.6,134.2z M882.1,138c-0.1-1.9-1.2-2.8-2.6-2.8
		c-1.5,0-2.8,1-3.1,2.8H882.1z"/>
	<path d="M885.7,134.5h1.2v1.6c0,0.4,0,0.7,0,0.7h0c0.4-1.4,1.4-2.4,2.9-2.4c0.3,0,0.5,0.1,0.5,0.1v1.2c0,0-0.2,0-0.5,0
		c-1.3,0-2.2,1-2.6,2.3c-0.2,0.6-0.3,1.2-0.3,1.8v3.8h-1.2V134.5z"/>
	<path d="M896.9,130.9h1.3v1.5h-1.3V130.9z M897,134.5h1.2v9.1H897V134.5z"/>
	<path d="M901.1,141.5c0,0,1,1.1,2.7,1.1c1,0,1.8-0.5,1.8-1.4c0-2-4.9-1.5-4.9-4.4c0-1.6,1.5-2.5,3.1-2.5c1.9,0,2.8,1,2.8,1
		l-0.6,0.9c0,0-0.8-0.8-2.3-0.8c-0.9,0-1.8,0.4-1.8,1.4c0,2,4.9,1.5,4.9,4.4c0,1.5-1.3,2.5-3.1,2.5c-2.2,0-3.3-1.3-3.3-1.3
		L901.1,141.5z"/>
	<path d="M913.9,141.5c0,0,1,1.1,2.7,1.1c1,0,1.8-0.5,1.8-1.4c0-2-4.9-1.5-4.9-4.4c0-1.6,1.5-2.5,3.1-2.5c1.9,0,2.8,1,2.8,1
		l-0.6,0.9c0,0-0.8-0.8-2.3-0.8c-0.9,0-1.8,0.4-1.8,1.4c0,2,4.9,1.5,4.9,4.4c0,1.5-1.3,2.5-3.1,2.5c-2.2,0-3.3-1.3-3.3-1.3
		L913.9,141.5z"/>
	<path d="M920.8,134.5h1.3l2.2,6.8c0.1,0.4,0.3,1,0.3,1h0c0,0,0.1-0.5,0.3-1l2.2-6.7h1.2l2.2,6.7c0.1,0.4,0.3,1,0.3,1h0
		c0,0,0.1-0.5,0.3-1l2.2-6.8h1.3l-3.1,9.1h-1.3l-2.2-6.4c-0.2-0.5-0.3-1-0.3-1h0c0,0-0.1,0.5-0.3,1l-2.2,6.4h-1.3L920.8,134.5z"/>
	<path d="M936.3,130.9h1.3v1.5h-1.3V130.9z M936.3,134.5h1.2v9.1h-1.2V134.5z"/>
	<path d="M940.9,135.6h-1.1v-1h1.1v-0.4c0-3,2.1-3.4,3.1-3.4c0.3,0,0.6,0,0.6,0v1.1c0,0-0.2,0-0.4,0c-0.7,0-2,0.3-2,2.3v0.4h2.3v1
		h-2.3v7.9h-1.2V135.6z"/>
	<path d="M946.6,135.6h-1.2v-1h1.2v-2.6h1.2v2.6h2.3v1h-2.3v4.5c0,2.1,1.4,2.4,2,2.4c0.3,0,0.4,0,0.4,0v1.1c0,0-0.2,0-0.5,0
		c-1,0-3.2-0.3-3.2-3.4V135.6z"/>
	<path d="M952.2,130.9h1.2v10.2c0,1.2,0.5,1.4,1,1.4c0.2,0,0.3,0,0.3,0v1.1c0,0-0.2,0-0.5,0c-0.8,0-2.1-0.2-2.1-2.2V130.9z"/>
	<path d="M955.9,145.8c0,0,0.5,0.4,1.1,0.4c0.8,0,1.3-0.6,1.7-1.5l0.6-1.3l-3.8-9h1.4l2.7,6.6c0.2,0.5,0.3,1,0.3,1h0
		c0,0,0.1-0.5,0.3-1l2.6-6.6h1.3l-4.5,10.9c-0.5,1.2-1.4,1.9-2.6,1.9c-0.9,0-1.6-0.5-1.6-0.5L955.9,145.8z"/>
	<path d="M974.7,134.2c2.6,0,4.8,2,4.8,4.7c0,2.7-2.1,4.8-4.8,4.8s-4.8-2.1-4.8-4.8C969.9,136.3,972.1,134.2,974.7,134.2z
		 M974.7,142.6c1.9,0,3.5-1.6,3.5-3.7c0-2.1-1.6-3.6-3.5-3.6s-3.5,1.5-3.5,3.6C971.2,141,972.8,142.6,974.7,142.6z"/>
	<path d="M981.8,134.5h1.2v1.4c0,0.4,0,0.7,0,0.7h0c0.3-0.8,1.5-2.3,3.6-2.3c2.2,0,3,1.3,3,3.5v5.8h-1.2v-5.4c0-1.4-0.2-2.7-2-2.7
		c-1.5,0-2.9,1.1-3.3,2.6c-0.1,0.4-0.1,0.8-0.1,1.2v4.3h-1.2V134.5z"/>
	<path d="M997.6,135.6h-1.2v-1h1.2v-2.6h1.2v2.6h2.3v1h-2.3v4.5c0,2.1,1.4,2.4,2,2.4c0.3,0,0.4,0,0.4,0v1.1c0,0-0.2,0-0.5,0
		c-1,0-3.2-0.3-3.2-3.4V135.6z"/>
	<path d="M1003.3,130.9h1.2v4.9c0,0.4,0,0.7,0,0.7h0c0.3-0.9,1.5-2.3,3.6-2.3c2.2,0,3,1.3,3,3.5v5.8h-1.2v-5.4c0-1.4-0.2-2.7-2-2.7
		c-1.5,0-2.9,1.1-3.3,2.6c-0.1,0.4-0.1,0.8-0.1,1.2v4.3h-1.2V130.9z"/>
	<path d="M1017.8,134.2c2.5,0,3.8,1.9,3.8,4.2c0,0.2,0,0.6,0,0.6h-7c0.1,2.3,1.6,3.6,3.5,3.6c1.7,0,2.8-1.1,2.8-1.1l0.6,0.9
		c0,0-1.3,1.3-3.3,1.3c-2.7,0-4.7-1.9-4.7-4.7C1013.4,136,1015.4,134.2,1017.8,134.2z M1020.4,138c-0.1-1.9-1.2-2.8-2.6-2.8
		c-1.5,0-2.8,1-3.1,2.8H1020.4z"/>
	<path d="M1023.9,130.9h1.3v1.5h-1.3V130.9z M1023.9,134.5h1.2v9.1h-1.2V134.5z"/>
	<path d="M1028.1,134.5h1.2v1.6c0,0.4,0,0.7,0,0.7h0c0.4-1.4,1.4-2.4,2.9-2.4c0.3,0,0.5,0.1,0.5,0.1v1.2c0,0-0.2,0-0.5,0
		c-1.3,0-2.2,1-2.6,2.3c-0.2,0.6-0.3,1.2-0.3,1.8v3.8h-1.2V134.5z"/>
	<path d="M1038.2,134.5h1.3l2.2,6.8c0.1,0.4,0.3,1,0.3,1h0c0,0,0.1-0.5,0.3-1l2.2-6.7h1.2l2.2,6.7c0.1,0.4,0.3,1,0.3,1h0
		c0,0,0.1-0.5,0.3-1l2.2-6.8h1.3l-3.1,9.1h-1.3l-2.2-6.4c-0.2-0.5-0.3-1-0.3-1h0c0,0-0.1,0.5-0.3,1l-2.2,6.4h-1.3L1038.2,134.5z"/>
	<path d="M1058.6,137.9h0.5v-0.2c0-1.7-1-2.3-2.3-2.3c-1.5,0-2.6,0.9-2.6,0.9l-0.6-0.9c0,0,1.2-1,3.2-1c2.2,0,3.4,1.2,3.4,3.5v5.8
		h-1.2v-1c0-0.5,0-0.8,0-0.8h0c0,0-0.8,2-3,2c-1.5,0-3.1-0.9-3.1-2.7C1053.1,138,1057,137.9,1058.6,137.9z M1056.3,142.7
		c1.7,0,2.8-1.8,2.8-3.4v-0.4h-0.5c-1.4,0-4.3,0.1-4.3,2.1C1054.3,141.8,1055,142.7,1056.3,142.7z"/>
	<path d="M1062.3,145.8c0,0,0.5,0.4,1.1,0.4c0.8,0,1.3-0.6,1.7-1.5l0.6-1.3l-3.8-9h1.4l2.7,6.6c0.2,0.5,0.3,1,0.3,1h0
		c0,0,0.1-0.5,0.3-1l2.6-6.6h1.3l-4.5,10.9c-0.5,1.2-1.4,1.9-2.6,1.9c-0.9,0-1.6-0.5-1.6-0.5L1062.3,145.8z"/>
	<path d="M1077.3,135.6h-1.2v-1h1.2v-2.6h1.2v2.6h2.3v1h-2.3v4.5c0,2.1,1.4,2.4,2,2.4c0.3,0,0.4,0,0.4,0v1.1c0,0-0.2,0-0.5,0
		c-1,0-3.2-0.3-3.2-3.4V135.6z"/>
	<path d="M1087.1,134.2c2.6,0,4.8,2,4.8,4.7c0,2.7-2.1,4.8-4.8,4.8s-4.8-2.1-4.8-4.8C1082.3,136.3,1084.5,134.2,1087.1,134.2z
		 M1087.1,142.6c1.9,0,3.5-1.6,3.5-3.7c0-2.1-1.6-3.6-3.5-3.6s-3.5,1.5-3.5,3.6C1083.6,141,1085.2,142.6,1087.1,142.6z"/>
</g>
<g>
	<path d="M829.8,164.2c2.2,0,3.3,1.3,3.3,1.3l-0.6,0.9c0,0-1-1.1-2.6-1.1c-2,0-3.5,1.5-3.5,3.6c0,2.1,1.6,3.6,3.6,3.6
		c1.8,0,2.9-1.3,2.9-1.3l0.6,1c0,0-1.2,1.4-3.5,1.4c-2.7,0-4.8-1.9-4.8-4.7C825.1,166.2,827.2,164.2,829.8,164.2z"/>
	<path d="M839.7,164.2c2.6,0,4.8,2,4.8,4.7c0,2.7-2.1,4.8-4.8,4.8s-4.8-2.1-4.8-4.8C834.9,166.3,837.1,164.2,839.7,164.2z
		 M839.7,172.6c1.9,0,3.5-1.6,3.5-3.7c0-2.1-1.6-3.6-3.5-3.6s-3.5,1.5-3.5,3.6C836.2,171,837.8,172.6,839.7,172.6z"/>
	<path d="M846.8,164.5h1.2v1.4c0,0.4,0,0.7,0,0.7h0c0.3-0.8,1.5-2.3,3.6-2.3c2.2,0,3,1.3,3,3.5v5.8h-1.2v-5.4c0-1.4-0.2-2.7-2-2.7
		c-1.5,0-2.9,1.1-3.3,2.6c-0.1,0.4-0.1,0.8-0.1,1.2v4.3h-1.2V164.5z"/>
	<path d="M856.2,164.5h1.3l2.5,6.6c0.2,0.5,0.3,1.1,0.3,1.1h0c0,0,0.1-0.6,0.3-1.1l2.5-6.6h1.3l-3.5,9.1h-1.3L856.2,164.5z"/>
	<path d="M870,164.2c2.5,0,3.8,1.9,3.8,4.2c0,0.2,0,0.6,0,0.6h-7c0.1,2.3,1.6,3.6,3.5,3.6c1.7,0,2.8-1.1,2.8-1.1l0.6,0.9
		c0,0-1.3,1.3-3.3,1.3c-2.7,0-4.7-1.9-4.7-4.7C865.6,166,867.6,164.2,870,164.2z M872.6,168c-0.1-1.9-1.2-2.8-2.6-2.8
		c-1.5,0-2.8,1-3.1,2.8H872.6z"/>
	<path d="M876.1,164.5h1.2v1.6c0,0.4,0,0.7,0,0.7h0c0.4-1.4,1.4-2.4,2.9-2.4c0.3,0,0.5,0.1,0.5,0.1v1.2c0,0-0.2,0-0.5,0
		c-1.3,0-2.2,1-2.6,2.3c-0.2,0.6-0.3,1.2-0.3,1.8v3.8h-1.2V164.5z"/>
	<path d="M882.5,171.5c0,0,1,1.1,2.7,1.1c1,0,1.8-0.5,1.8-1.4c0-2-4.9-1.5-4.9-4.4c0-1.6,1.5-2.5,3.1-2.5c1.9,0,2.8,1,2.8,1
		l-0.6,0.9c0,0-0.8-0.8-2.3-0.8c-0.9,0-1.8,0.4-1.8,1.4c0,2,4.9,1.5,4.9,4.4c0,1.5-1.3,2.5-3.1,2.5c-2.2,0-3.3-1.3-3.3-1.3
		L882.5,171.5z"/>
	<path d="M890.5,160.9h1.3v1.5h-1.3V160.9z M890.5,164.5h1.2v9.1h-1.2V164.5z"/>
	<path d="M898.8,164.2c2.6,0,4.8,2,4.8,4.7c0,2.7-2.1,4.8-4.8,4.8s-4.8-2.1-4.8-4.8C894,166.3,896.2,164.2,898.8,164.2z
		 M898.8,172.6c1.9,0,3.5-1.6,3.5-3.7c0-2.1-1.6-3.6-3.5-3.6s-3.5,1.5-3.5,3.6C895.3,171,896.9,172.6,898.8,172.6z"/>
	<path d="M905.9,164.5h1.2v1.4c0,0.4,0,0.7,0,0.7h0c0.3-0.8,1.5-2.3,3.6-2.3c2.2,0,3,1.3,3,3.5v5.8h-1.2v-5.4c0-1.4-0.2-2.7-2-2.7
		c-1.5,0-2.9,1.1-3.3,2.6c-0.1,0.4-0.1,0.8-0.1,1.2v4.3h-1.2V164.5z"/>
	<path d="M916.6,172.1h1.4v1.4h-1.4V172.1z"/>
	<path d="M929.1,162h-4.6v-1.1h10.3v1.1h-4.5v11.5h-1.2V162z"/>
	<path d="M936.4,160.9h1.2v4.9c0,0.4,0,0.7,0,0.7h0c0.3-0.9,1.5-2.3,3.6-2.3c2.2,0,3,1.3,3,3.5v5.8h-1.2v-5.4c0-1.4-0.2-2.7-2-2.7
		c-1.5,0-2.9,1.1-3.3,2.6c-0.1,0.4-0.1,0.8-0.1,1.2v4.3h-1.2V160.9z"/>
	<path d="M947.1,160.9h1.3v1.5h-1.3V160.9z M947.1,164.5h1.2v9.1h-1.2V164.5z"/>
	<path d="M951.2,171.5c0,0,1,1.1,2.7,1.1c1,0,1.8-0.5,1.8-1.4c0-2-4.9-1.5-4.9-4.4c0-1.6,1.5-2.5,3.1-2.5c1.9,0,2.8,1,2.8,1
		l-0.6,0.9c0,0-0.8-0.8-2.3-0.8c-0.9,0-1.8,0.4-1.8,1.4c0,2,4.9,1.5,4.9,4.4c0,1.5-1.3,2.5-3.1,2.5c-2.2,0-3.3-1.3-3.3-1.3
		L951.2,171.5z"/>
	<path d="M964.1,160.9h1.3v1.5h-1.3V160.9z M964.1,164.5h1.2v9.1h-1.2V164.5z"/>
	<path d="M968.2,171.5c0,0,1,1.1,2.7,1.1c1,0,1.8-0.5,1.8-1.4c0-2-4.9-1.5-4.9-4.4c0-1.6,1.5-2.5,3.1-2.5c1.9,0,2.8,1,2.8,1
		l-0.6,0.9c0,0-0.8-0.8-2.3-0.8c-0.9,0-1.8,0.4-1.8,1.4c0,2,4.9,1.5,4.9,4.4c0,1.5-1.3,2.5-3.1,2.5c-2.2,0-3.3-1.3-3.3-1.3
		L968.2,171.5z"/>
	<path d="M979.9,164.5h1.3l2.2,6.8c0.1,0.4,0.3,1,0.3,1h0c0,0,0.1-0.5,0.3-1l2.2-6.7h1.2l2.2,6.7c0.1,0.4,0.3,1,0.3,1h0
		c0,0,0.1-0.5,0.3-1l2.2-6.8h1.3l-3.1,9.1h-1.3l-2.2-6.4c-0.2-0.5-0.3-1-0.3-1h0c0,0-0.1,0.5-0.3,1l-2.2,6.4H983L979.9,164.5z"/>
	<path d="M995.5,160.9h1.2v4.9c0,0.4,0,0.7,0,0.7h0c0.3-0.9,1.5-2.3,3.6-2.3c2.2,0,3,1.3,3,3.5v5.8h-1.2v-5.4c0-1.4-0.2-2.7-2-2.7
		c-1.5,0-2.9,1.1-3.3,2.6c-0.1,0.4-0.1,0.8-0.1,1.2v4.3h-1.2V160.9z"/>
	<path d="M1005.3,175.8c0,0,0.5,0.4,1.1,0.4c0.8,0,1.3-0.6,1.7-1.5l0.6-1.3l-3.8-9h1.4l2.7,6.6c0.2,0.5,0.3,1,0.3,1h0
		c0,0,0.1-0.5,0.3-1l2.6-6.6h1.3l-4.5,10.9c-0.5,1.2-1.4,1.9-2.6,1.9c-0.9,0-1.6-0.5-1.6-0.5L1005.3,175.8z"/>
	<path d="M1018.8,164.5h1.3l2.2,6.8c0.1,0.4,0.3,1,0.3,1h0c0,0,0.1-0.5,0.3-1l2.2-6.7h1.2l2.2,6.7c0.1,0.4,0.3,1,0.3,1h0
		c0,0,0.1-0.5,0.3-1l2.2-6.8h1.3l-3.1,9.1h-1.3l-2.2-6.4c-0.2-0.5-0.3-1-0.3-1h0c0,0-0.1,0.5-0.3,1l-2.2,6.4h-1.3L1018.8,164.5z"/>
	<path d="M1038.3,164.2c2.5,0,3.8,1.9,3.8,4.2c0,0.2,0,0.6,0,0.6h-7c0.1,2.3,1.6,3.6,3.5,3.6c1.7,0,2.8-1.1,2.8-1.1l0.6,0.9
		c0,0-1.3,1.3-3.3,1.3c-2.7,0-4.7-1.9-4.7-4.7C1033.8,166,1035.8,164.2,1038.3,164.2z M1040.8,168c-0.1-1.9-1.2-2.8-2.6-2.8
		c-1.5,0-2.8,1-3.1,2.8H1040.8z"/>
	<path d="M1049.1,171.5c0,0,1,1.1,2.7,1.1c1,0,1.8-0.5,1.8-1.4c0-2-4.9-1.5-4.9-4.4c0-1.6,1.5-2.5,3.1-2.5c1.9,0,2.8,1,2.8,1
		l-0.6,0.9c0,0-0.8-0.8-2.3-0.8c-0.9,0-1.8,0.4-1.8,1.4c0,2,4.9,1.5,4.9,4.4c0,1.5-1.3,2.5-3.1,2.5c-2.2,0-3.3-1.3-3.3-1.3
		L1049.1,171.5z"/>
	<path d="M1057.5,165.6h-1.2v-1h1.2v-2.6h1.2v2.6h2.3v1h-2.3v4.5c0,2.1,1.4,2.4,2,2.4c0.3,0,0.4,0,0.4,0v1.1c0,0-0.2,0-0.5,0
		c-1,0-3.2-0.3-3.2-3.4V165.6z"/>
	<path d="M1068,167.9h0.5v-0.2c0-1.7-1-2.3-2.3-2.3c-1.5,0-2.6,0.9-2.6,0.9l-0.6-0.9c0,0,1.2-1,3.2-1c2.2,0,3.4,1.2,3.4,3.5v5.8
		h-1.2v-1c0-0.5,0-0.8,0-0.8h0c0,0-0.8,2-3,2c-1.5,0-3.1-0.9-3.1-2.7C1062.5,168,1066.5,167.9,1068,167.9z M1065.8,172.7
		c1.7,0,2.8-1.8,2.8-3.4v-0.4h-0.5c-1.4,0-4.3,0.1-4.3,2.1C1063.7,171.8,1064.4,172.7,1065.8,172.7z"/>
	<path d="M1072.6,164.5h1.2v1.6c0,0.4,0,0.7,0,0.7h0c0.4-1.4,1.4-2.4,2.9-2.4c0.3,0,0.5,0.1,0.5,0.1v1.2c0,0-0.2,0-0.5,0
		c-1.3,0-2.2,1-2.6,2.3c-0.2,0.6-0.3,1.2-0.3,1.8v3.8h-1.2V164.5z"/>
	<path d="M1079.3,165.6h-1.2v-1h1.2v-2.6h1.2v2.6h2.3v1h-2.3v4.5c0,2.1,1.4,2.4,2,2.4c0.3,0,0.4,0,0.4,0v1.1c0,0-0.2,0-0.5,0
		c-1,0-3.2-0.3-3.2-3.4V165.6z"/>
</g>
<g>
	<path d="M826,195.6h-1.2v-1h1.2v-2.6h1.2v2.6h2.3v1h-2.3v4.5c0,2.1,1.4,2.4,2,2.4c0.3,0,0.4,0,0.4,0v1.1c0,0-0.2,0-0.5,0
		c-1,0-3.2-0.3-3.2-3.4V195.6z"/>
	<path d="M831.7,194.5h1.2v1.6c0,0.4,0,0.7,0,0.7h0c0.4-1.4,1.4-2.4,2.9-2.4c0.3,0,0.5,0.1,0.5,0.1v1.2c0,0-0.2,0-0.5,0
		c-1.3,0-2.2,1-2.6,2.3c-0.2,0.6-0.3,1.2-0.3,1.8v3.8h-1.2V194.5z"/>
	<path d="M842.9,197.9h0.5v-0.2c0-1.7-1-2.3-2.3-2.3c-1.5,0-2.6,0.9-2.6,0.9l-0.6-0.9c0,0,1.2-1,3.2-1c2.2,0,3.4,1.2,3.4,3.5v5.8
		h-1.2v-1c0-0.5,0-0.8,0-0.8h0c0,0-0.8,2-3,2c-1.5,0-3.1-0.9-3.1-2.7C837.4,198,841.4,197.9,842.9,197.9z M840.7,202.7
		c1.7,0,2.8-1.8,2.8-3.4v-0.4h-0.5c-1.4,0-4.3,0.1-4.3,2.1C838.7,201.8,839.3,202.7,840.7,202.7z"/>
	<path d="M851.6,194.2c2.2,0,3.3,1.3,3.3,1.3l-0.6,0.9c0,0-1-1.1-2.6-1.1c-2,0-3.5,1.5-3.5,3.6c0,2.1,1.6,3.6,3.6,3.6
		c1.8,0,2.9-1.3,2.9-1.3l0.6,1c0,0-1.2,1.4-3.5,1.4c-2.7,0-4.8-1.9-4.8-4.7C846.9,196.2,849,194.2,851.6,194.2z"/>
	<path d="M857.4,190.8h1.2v7.1h1.4l2.7-3.5h1.5l-3.2,3.9v0l3.5,5.1h-1.5l-3-4.5h-1.5v4.5h-1.2V190.8z"/>
	<path d="M866.4,190.8h1.3v1.5h-1.3V190.8z M866.4,194.5h1.2v9.1h-1.2V194.5z"/>
	<path d="M870.6,194.5h1.2v1.4c0,0.4,0,0.7,0,0.7h0c0.3-0.8,1.5-2.3,3.6-2.3c2.2,0,3,1.3,3,3.5v5.8h-1.2v-5.4c0-1.4-0.2-2.7-2-2.7
		c-1.5,0-2.9,1.1-3.3,2.6c-0.1,0.4-0.1,0.8-0.1,1.2v4.3h-1.2V194.5z"/>
	<path d="M884.4,206.2c1.8,0,3.2-0.8,3.2-2.8v-0.8c0-0.3,0-0.6,0-0.6h0c-0.5,1-1.5,1.6-2.9,1.6c-2.4,0-4-1.9-4-4.6s1.5-4.6,3.9-4.6
		c2.4,0,3,1.5,3,1.5h0c0,0,0-0.1,0-0.3v-1h1.2v8.8c0,2.9-2.1,4-4.3,4c-1,0-2.1-0.3-3-0.7l0.5-1C882,205.6,883.1,206.2,884.4,206.2z
		 M887.6,198.8c0-2.6-1.3-3.5-2.9-3.5c-1.8,0-2.8,1.3-2.8,3.4c0,2.2,1.2,3.6,3,3.6C886.3,202.4,887.6,201.5,887.6,198.8z"/>
	<path d="M896.9,195.6h-1.2v-1h1.2v-2.6h1.2v2.6h2.3v1h-2.3v4.5c0,2.1,1.4,2.4,2,2.4c0.3,0,0.4,0,0.4,0v1.1c0,0-0.2,0-0.5,0
		c-1,0-3.2-0.3-3.2-3.4V195.6z"/>
	<path d="M902.6,190.8h1.2v4.9c0,0.4,0,0.7,0,0.7h0c0.3-0.9,1.5-2.2,3.6-2.2c2.2,0,3,1.3,3,3.5v5.8h-1.2v-5.4c0-1.4-0.2-2.7-2-2.7
		c-1.5,0-2.9,1.1-3.3,2.6c-0.1,0.4-0.1,0.8-0.1,1.2v4.3h-1.2V190.8z"/>
	<path d="M917.1,194.2c2.5,0,3.8,1.9,3.8,4.2c0,0.2,0,0.6,0,0.6h-7c0.1,2.3,1.6,3.6,3.5,3.6c1.7,0,2.8-1.1,2.8-1.1l0.6,0.9
		c0,0-1.3,1.3-3.3,1.3c-2.7,0-4.7-1.9-4.7-4.7C912.7,196,914.7,194.2,917.1,194.2z M919.7,198c-0.1-1.9-1.2-2.8-2.6-2.8
		c-1.5,0-2.8,1-3.1,2.8H919.7z"/>
	<path d="M923.2,190.8h1.3v1.5h-1.3V190.8z M923.2,194.5h1.2v9.1h-1.2V194.5z"/>
	<path d="M927.4,194.5h1.2v1.6c0,0.4,0,0.7,0,0.7h0c0.4-1.4,1.4-2.4,2.9-2.4c0.3,0,0.5,0.1,0.5,0.1v1.2c0,0-0.2,0-0.5,0
		c-1.3,0-2.2,1-2.6,2.3c-0.2,0.6-0.3,1.2-0.3,1.8v3.8h-1.2V194.5z"/>
	<path d="M938.7,194.5h1.2v0.9c0,0.4,0,0.7,0,0.7h0c0,0,0.7-1.8,3.1-1.8c2.4,0,3.9,1.9,3.9,4.8c0,2.9-1.7,4.7-4.1,4.7
		c-2.2,0-3-1.7-3-1.7h0c0,0,0,0.3,0,0.8v4.3h-1.2V194.5z M942.7,202.6c1.6,0,2.9-1.4,2.9-3.7c0-2.2-1.2-3.6-2.9-3.6
		c-1.5,0-2.9,1.1-2.9,3.7C939.9,200.8,940.9,202.6,942.7,202.6z"/>
	<path d="M953.4,194.2c2.6,0,4.8,2,4.8,4.7c0,2.7-2.1,4.8-4.8,4.8s-4.8-2.1-4.8-4.8C948.6,196.3,950.7,194.2,953.4,194.2z
		 M953.4,202.6c1.9,0,3.5-1.6,3.5-3.7c0-2.1-1.6-3.6-3.5-3.6s-3.5,1.5-3.5,3.6C949.9,201,951.4,202.6,953.4,202.6z"/>
	<path d="M960.4,201.5c0,0,1,1.1,2.7,1.1c1,0,1.8-0.5,1.8-1.4c0-2-4.9-1.5-4.9-4.4c0-1.6,1.5-2.5,3.1-2.5c1.9,0,2.8,1,2.8,1
		l-0.6,0.9c0,0-0.8-0.8-2.3-0.8c-0.9,0-1.8,0.4-1.8,1.4c0,2,4.9,1.5,4.9,4.4c0,1.5-1.3,2.5-3.1,2.5c-2.2,0-3.3-1.3-3.3-1.3
		L960.4,201.5z"/>
	<path d="M968.8,195.6h-1.2v-1h1.2v-2.6h1.2v2.6h2.3v1H970v4.5c0,2.1,1.4,2.4,2,2.4c0.3,0,0.4,0,0.4,0v1.1c0,0-0.2,0-0.5,0
		c-1,0-3.2-0.3-3.2-3.4V195.6z"/>
	<path d="M979.3,190.8h1.3v1.5h-1.3V190.8z M979.3,194.5h1.2v9.1h-1.2V194.5z"/>
	<path d="M983.5,194.5h1.2v1.4c0,0.4,0,0.7,0,0.7h0c0.4-1.2,1.9-2.3,3.3-2.3c1.7,0,2.5,0.8,2.8,2.3h0c0.5-1.2,1.8-2.3,3.3-2.3
		c2.2,0,3,1.3,3,3.5v5.8h-1.2v-5.5c0-1.5-0.3-2.7-2-2.7c-1.4,0-2.5,1.2-2.9,2.6c-0.1,0.4-0.2,0.8-0.2,1.3v4.3h-1.2v-5.5
		c0-1.4-0.2-2.7-1.9-2.7c-1.5,0-2.6,1.3-3,2.7c-0.1,0.4-0.1,0.8-0.1,1.2v4.3h-1.2V194.5z"/>
	<path d="M1000,194.5h1.2v0.9c0,0.4,0,0.7,0,0.7h0c0,0,0.7-1.8,3.1-1.8c2.4,0,3.9,1.9,3.9,4.8c0,2.9-1.7,4.7-4.1,4.7
		c-2.2,0-3-1.7-3-1.7h0c0,0,0,0.3,0,0.8v4.3h-1.2V194.5z M1004,202.6c1.6,0,2.9-1.4,2.9-3.7c0-2.2-1.2-3.6-2.9-3.6
		c-1.5,0-2.9,1.1-2.9,3.7C1001.2,200.8,1002.2,202.6,1004,202.6z"/>
	<path d="M1010.6,194.5h1.2v1.6c0,0.4,0,0.7,0,0.7h0c0.4-1.4,1.4-2.4,2.9-2.4c0.3,0,0.5,0.1,0.5,0.1v1.2c0,0-0.2,0-0.5,0
		c-1.3,0-2.2,1-2.6,2.3c-0.2,0.6-0.3,1.2-0.3,1.8v3.8h-1.2V194.5z"/>
	<path d="M1020.8,194.2c2.5,0,3.8,1.9,3.8,4.2c0,0.2,0,0.6,0,0.6h-7c0.1,2.3,1.6,3.6,3.5,3.6c1.7,0,2.8-1.1,2.8-1.1l0.6,0.9
		c0,0-1.3,1.3-3.3,1.3c-2.7,0-4.7-1.9-4.7-4.7C1016.4,196,1018.4,194.2,1020.8,194.2z M1023.4,198c-0.1-1.9-1.2-2.8-2.6-2.8
		c-1.5,0-2.8,1-3.1,2.8H1023.4z"/>
	<path d="M1026.9,201.5c0,0,1,1.1,2.7,1.1c1,0,1.8-0.5,1.8-1.4c0-2-4.9-1.5-4.9-4.4c0-1.6,1.5-2.5,3.1-2.5c1.9,0,2.8,1,2.8,1
		l-0.6,0.9c0,0-0.8-0.8-2.3-0.8c-0.9,0-1.8,0.4-1.8,1.4c0,2,4.9,1.5,4.9,4.4c0,1.5-1.3,2.5-3.1,2.5c-2.2,0-3.3-1.3-3.3-1.3
		L1026.9,201.5z"/>
	<path d="M1034.8,201.5c0,0,1,1.1,2.7,1.1c1,0,1.8-0.5,1.8-1.4c0-2-4.9-1.5-4.9-4.4c0-1.6,1.5-2.5,3.1-2.5c1.9,0,2.8,1,2.8,1
		l-0.6,0.9c0,0-0.8-0.8-2.3-0.8c-0.9,0-1.8,0.4-1.8,1.4c0,2,4.9,1.5,4.9,4.4c0,1.5-1.3,2.5-3.1,2.5c-2.2,0-3.3-1.3-3.3-1.3
		L1034.8,201.5z"/>
	<path d="M1042.8,190.8h1.3v1.5h-1.3V190.8z M1042.9,194.5h1.2v9.1h-1.2V194.5z"/>
	<path d="M1051.2,194.2c2.6,0,4.8,2,4.8,4.7c0,2.7-2.1,4.8-4.8,4.8s-4.8-2.1-4.8-4.8C1046.4,196.3,1048.5,194.2,1051.2,194.2z
		 M1051.2,202.6c1.9,0,3.5-1.6,3.5-3.7c0-2.1-1.6-3.6-3.5-3.6s-3.5,1.5-3.5,3.6C1047.7,201,1049.2,202.6,1051.2,202.6z"/>
	<path d="M1058.3,194.5h1.2v1.4c0,0.4,0,0.7,0,0.7h0c0.3-0.8,1.5-2.3,3.6-2.3c2.2,0,3,1.3,3,3.5v5.8h-1.2v-5.4c0-1.4-0.2-2.7-2-2.7
		c-1.5,0-2.9,1.1-3.3,2.6c-0.1,0.4-0.1,0.8-0.1,1.2v4.3h-1.2V194.5z"/>
	<path d="M1078.6,197.9h0.5v-0.2c0-1.7-1-2.3-2.3-2.3c-1.5,0-2.6,0.9-2.6,0.9l-0.6-0.9c0,0,1.2-1,3.2-1c2.2,0,3.4,1.2,3.4,3.5v5.8
		h-1.2v-1c0-0.5,0-0.8,0-0.8h0c0,0-0.8,2-3,2c-1.5,0-3.1-0.9-3.1-2.7C1073,198,1077,197.9,1078.6,197.9z M1076.3,202.7
		c1.7,0,2.8-1.8,2.8-3.4v-0.4h-0.5c-1.4,0-4.3,0.1-4.3,2.1C1074.3,201.8,1075,202.7,1076.3,202.7z"/>
	<path d="M1087.3,194.2c2.2,0,3.3,1.3,3.3,1.3l-0.6,0.9c0,0-1-1.1-2.6-1.1c-2,0-3.5,1.5-3.5,3.6c0,2.1,1.6,3.6,3.6,3.6
		c1.8,0,2.9-1.3,2.9-1.3l0.6,1c0,0-1.2,1.4-3.5,1.4c-2.7,0-4.8-1.9-4.8-4.7C1082.5,196.2,1084.6,194.2,1087.3,194.2z"/>
	<path d="M1093.4,195.6h-1.2v-1h1.2v-2.6h1.2v2.6h2.3v1h-2.3v4.5c0,2.1,1.4,2.4,2,2.4c0.3,0,0.4,0,0.4,0v1.1c0,0-0.2,0-0.5,0
		c-1,0-3.2-0.3-3.2-3.4V195.6z"/>
	<path d="M1099,190.8h1.3v1.5h-1.3V190.8z M1099,194.5h1.2v9.1h-1.2V194.5z"/>
	<path d="M1107.3,194.2c2.6,0,4.8,2,4.8,4.7c0,2.7-2.1,4.8-4.8,4.8s-4.8-2.1-4.8-4.8C1102.6,196.3,1104.7,194.2,1107.3,194.2z
		 M1107.3,202.6c1.9,0,3.5-1.6,3.5-3.7c0-2.1-1.6-3.6-3.5-3.6s-3.5,1.5-3.5,3.6C1103.8,201,1105.4,202.6,1107.3,202.6z"/>
	<path d="M1114.4,194.5h1.2v1.4c0,0.4,0,0.7,0,0.7h0c0.3-0.8,1.5-2.3,3.6-2.3c2.2,0,3,1.3,3,3.5v5.8h-1.2v-5.4c0-1.4-0.2-2.7-2-2.7
		c-1.5,0-2.9,1.1-3.3,2.6c-0.1,0.4-0.1,0.8-0.1,1.2v4.3h-1.2V194.5z"/>
	<path d="M1125,201.5c0,0,1,1.1,2.7,1.1c1,0,1.8-0.5,1.8-1.4c0-2-4.9-1.5-4.9-4.4c0-1.6,1.5-2.5,3.1-2.5c1.9,0,2.8,1,2.8,1l-0.6,0.9
		c0,0-0.8-0.8-2.3-0.8c-0.9,0-1.8,0.4-1.8,1.4c0,2,4.9,1.5,4.9,4.4c0,1.5-1.3,2.5-3.1,2.5c-2.2,0-3.3-1.3-3.3-1.3L1125,201.5z"/>
</g>
<g>
	<path d="M825.7,220.8h1.3v1.5h-1.3V220.8z M825.7,224.5h1.2v9.1h-1.2V224.5z"/>
	<path d="M829.9,224.5h1.2v1.4c0,0.4,0,0.7,0,0.7h0c0.4-1.2,1.9-2.3,3.3-2.3c1.7,0,2.5,0.8,2.8,2.3h0c0.5-1.2,1.8-2.3,3.3-2.3
		c2.2,0,3,1.3,3,3.5v5.8h-1.2v-5.5c0-1.5-0.3-2.7-2-2.7c-1.4,0-2.5,1.2-2.9,2.6c-0.1,0.4-0.2,0.8-0.2,1.3v4.3h-1.2v-5.5
		c0-1.4-0.2-2.7-1.9-2.7c-1.5,0-2.6,1.3-3,2.7c-0.1,0.4-0.1,0.8-0.1,1.2v4.3h-1.2V224.5z"/>
	<path d="M846.4,224.5h1.2v1.4c0,0.4,0,0.7,0,0.7h0c0.4-1.2,1.9-2.3,3.3-2.3c1.7,0,2.5,0.8,2.8,2.3h0c0.5-1.2,1.8-2.3,3.3-2.3
		c2.2,0,3,1.3,3,3.5v5.8h-1.2v-5.5c0-1.5-0.3-2.7-2-2.7c-1.4,0-2.5,1.2-2.9,2.6c-0.1,0.4-0.2,0.8-0.2,1.3v4.3h-1.2v-5.5
		c0-1.4-0.2-2.7-1.9-2.7c-1.5,0-2.6,1.3-3,2.7c-0.1,0.4-0.1,0.8-0.1,1.2v4.3h-1.2V224.5z"/>
	<path d="M866.7,224.2c2.5,0,3.8,1.9,3.8,4.2c0,0.2,0,0.6,0,0.6h-7c0.1,2.3,1.6,3.6,3.5,3.6c1.7,0,2.8-1.1,2.8-1.1l0.6,0.9
		c0,0-1.3,1.3-3.3,1.3c-2.7,0-4.7-1.9-4.7-4.7C862.2,226,864.2,224.2,866.7,224.2z M869.2,228c-0.1-1.9-1.2-2.8-2.6-2.8
		c-1.5,0-2.8,1-3.1,2.8H869.2z"/>
	<path d="M876.3,224.2c2.2,0,3,1.7,3,1.7h0c0,0,0-0.3,0-0.7v-4.4h1.2v12.7h-1.2v-1c0-0.4,0-0.6,0-0.6h0c0,0-0.7,1.8-3.1,1.8
		c-2.4,0-3.9-1.9-3.9-4.8C872.2,226.1,873.9,224.2,876.3,224.2z M876.3,232.6c1.5,0,2.9-1.1,2.9-3.7c0-1.8-0.9-3.6-2.9-3.6
		c-1.6,0-2.9,1.4-2.9,3.6C873.5,231.2,874.6,232.6,876.3,232.6z"/>
	<path d="M883.4,220.8h1.3v1.5h-1.3V220.8z M883.4,224.5h1.2v9.1h-1.2V224.5z"/>
	<path d="M892.4,227.9h0.5v-0.2c0-1.7-1-2.3-2.3-2.3c-1.5,0-2.6,0.9-2.6,0.9l-0.6-0.9c0,0,1.2-1,3.2-1c2.2,0,3.4,1.2,3.4,3.5v5.8
		h-1.2v-1c0-0.5,0-0.8,0-0.8h0c0,0-0.8,2-3,2c-1.5,0-3.1-0.9-3.1-2.7C886.8,228,890.8,227.9,892.4,227.9z M890.1,232.7
		c1.7,0,2.8-1.8,2.8-3.4v-0.4h-0.5c-1.4,0-4.3,0.1-4.3,2.1C888.1,231.8,888.8,232.7,890.1,232.7z"/>
	<path d="M897.3,225.6h-1.2v-1h1.2v-2.6h1.2v2.6h2.3v1h-2.3v4.5c0,2.1,1.4,2.4,2,2.4c0.3,0,0.4,0,0.4,0v1.1c0,0-0.2,0-0.5,0
		c-1,0-3.2-0.3-3.2-3.4V225.6z"/>
	<path d="M906.8,224.2c2.5,0,3.8,1.9,3.8,4.2c0,0.2,0,0.6,0,0.6h-7c0.1,2.3,1.6,3.6,3.5,3.6c1.7,0,2.8-1.1,2.8-1.1l0.6,0.9
		c0,0-1.3,1.3-3.3,1.3c-2.7,0-4.7-1.9-4.7-4.7C902.3,226,904.4,224.2,906.8,224.2z M909.3,228c-0.1-1.9-1.2-2.8-2.6-2.8
		c-1.5,0-2.8,1-3.1,2.8H909.3z"/>
	<path d="M912.8,220.8h1.2v10.2c0,1.2,0.5,1.4,1,1.4c0.2,0,0.3,0,0.3,0v1.1c0,0-0.2,0-0.5,0c-0.8,0-2.1-0.2-2.1-2.2V220.8z"/>
	<path d="M916.5,235.8c0,0,0.5,0.4,1.1,0.4c0.8,0,1.3-0.6,1.7-1.5l0.6-1.3l-3.8-9h1.4l2.7,6.6c0.2,0.5,0.3,1,0.3,1h0
		c0,0,0.1-0.5,0.3-1l2.6-6.6h1.3l-4.5,10.9c-0.5,1.2-1.4,1.9-2.6,1.9c-0.9,0-1.6-0.5-1.6-0.5L916.5,235.8z"/>
</g>
<g>
	<path d="M925.9,232.1h1.4v1.4h-1.4V232.1z"/>
	<path d="M946.6,229.5h-5.1l-1.4,4h-1.3l4.6-12.7h1.3l4.6,12.7h-1.3L946.6,229.5z M944,222.2c0,0-0.3,1-0.5,1.6l-1.7,4.6h4.4
		l-1.7-4.6C944.4,223.2,944.1,222.2,944,222.2L944,222.2z"/>
	<path d="M951,220.8h1.2v10.2c0,1.2,0.5,1.4,1,1.4c0.2,0,0.3,0,0.3,0v1.1c0,0-0.2,0-0.5,0c-0.8,0-2.1-0.2-2.1-2.2V220.8z"/>
	<path d="M955.4,220.8h1.2v10.2c0,1.2,0.5,1.4,1,1.4c0.2,0,0.3,0,0.3,0v1.1c0,0-0.2,0-0.5,0c-0.8,0-2.1-0.2-2.1-2.2V220.8z"/>
	<path d="M965.2,225.6H964v-1h1.2v-2.6h1.2v2.6h2.3v1h-2.3v4.5c0,2.1,1.4,2.4,2,2.4c0.3,0,0.4,0,0.4,0v1.1c0,0-0.2,0-0.5,0
		c-1,0-3.2-0.3-3.2-3.4V225.6z"/>
	<path d="M970.8,220.8h1.2v4.9c0,0.4,0,0.7,0,0.7h0c0.3-0.9,1.5-2.2,3.6-2.2c2.2,0,3,1.3,3,3.5v5.8h-1.2v-5.4c0-1.4-0.2-2.7-2-2.7
		c-1.5,0-2.9,1.1-3.3,2.6c-0.1,0.4-0.1,0.8-0.1,1.2v4.3h-1.2V220.8z"/>
	<path d="M981.5,220.8h1.3v1.5h-1.3V220.8z M981.5,224.5h1.2v9.1h-1.2V224.5z"/>
	<path d="M985.6,231.5c0,0,1,1.1,2.7,1.1c1,0,1.8-0.5,1.8-1.4c0-2-4.9-1.5-4.9-4.4c0-1.6,1.5-2.5,3.1-2.5c1.9,0,2.8,1,2.8,1
		l-0.6,0.9c0,0-0.8-0.8-2.3-0.8c-0.9,0-1.8,0.4-1.8,1.4c0,2,4.9,1.5,4.9,4.4c0,1.5-1.3,2.5-3.1,2.5c-2.2,0-3.3-1.3-3.3-1.3
		L985.6,231.5z"/>
	<path d="M998.5,220.8h1.2v4.9c0,0.4,0,0.7,0,0.7h0c0.3-0.9,1.5-2.2,3.6-2.2c2.2,0,3,1.3,3,3.5v5.8h-1.2v-5.4c0-1.4-0.2-2.7-2-2.7
		c-1.5,0-2.9,1.1-3.3,2.6c-0.1,0.4-0.1,0.8-0.1,1.2v4.3h-1.2V220.8z"/>
	<path d="M1014,227.9h0.5v-0.2c0-1.7-1-2.3-2.3-2.3c-1.5,0-2.6,0.9-2.6,0.9l-0.6-0.9c0,0,1.2-1,3.2-1c2.2,0,3.4,1.2,3.4,3.5v5.8
		h-1.2v-1c0-0.5,0-0.8,0-0.8h0c0,0-0.8,2-3,2c-1.5,0-3.1-0.9-3.1-2.7C1008.4,228,1012.4,227.9,1014,227.9z M1011.7,232.7
		c1.7,0,2.8-1.8,2.8-3.4v-0.4h-0.5c-1.4,0-4.3,0.1-4.3,2.1C1009.7,231.8,1010.4,232.7,1011.7,232.7z"/>
	<path d="M1018.5,224.5h1.2v0.9c0,0.4,0,0.7,0,0.7h0c0,0,0.7-1.8,3.1-1.8c2.4,0,3.9,1.9,3.9,4.8c0,2.9-1.7,4.7-4.1,4.7
		c-2.2,0-3-1.7-3-1.7h0c0,0,0,0.3,0,0.8v4.3h-1.2V224.5z M1022.6,232.6c1.6,0,2.9-1.4,2.9-3.7c0-2.2-1.2-3.6-2.9-3.6
		c-1.5,0-2.9,1.1-2.9,3.7C1019.7,230.8,1020.7,232.6,1022.6,232.6z"/>
	<path d="M1029.1,224.5h1.2v0.9c0,0.4,0,0.7,0,0.7h0c0,0,0.7-1.8,3.1-1.8c2.4,0,3.9,1.9,3.9,4.8c0,2.9-1.7,4.7-4.1,4.7
		c-2.2,0-3-1.7-3-1.7h0c0,0,0,0.3,0,0.8v4.3h-1.2V224.5z M1033.2,232.6c1.6,0,2.9-1.4,2.9-3.7c0-2.2-1.2-3.6-2.9-3.6
		c-1.5,0-2.9,1.1-2.9,3.7C1030.3,230.8,1031.3,232.6,1033.2,232.6z"/>
	<path d="M1043.6,224.2c2.5,0,3.8,1.9,3.8,4.2c0,0.2,0,0.6,0,0.6h-7c0.1,2.3,1.6,3.6,3.5,3.6c1.7,0,2.8-1.1,2.8-1.1l0.6,0.9
		c0,0-1.3,1.3-3.3,1.3c-2.7,0-4.7-1.9-4.7-4.7C1039.1,226,1041.1,224.2,1043.6,224.2z M1046.1,228c-0.1-1.9-1.2-2.8-2.6-2.8
		c-1.5,0-2.8,1-3.1,2.8H1046.1z"/>
	<path d="M1049.7,224.5h1.2v1.4c0,0.4,0,0.7,0,0.7h0c0.3-0.8,1.5-2.3,3.6-2.3c2.2,0,3,1.3,3,3.5v5.8h-1.2v-5.4c0-1.4-0.2-2.7-2-2.7
		c-1.5,0-2.9,1.1-3.3,2.6c-0.1,0.4-0.1,0.8-0.1,1.2v4.3h-1.2V224.5z"/>
	<path d="M1060.3,231.5c0,0,1,1.1,2.7,1.1c1,0,1.8-0.5,1.8-1.4c0-2-4.9-1.5-4.9-4.4c0-1.6,1.5-2.5,3.1-2.5c1.9,0,2.8,1,2.8,1
		l-0.6,0.9c0,0-0.8-0.8-2.3-0.8c-0.9,0-1.8,0.4-1.8,1.4c0,2,4.9,1.5,4.9,4.4c0,1.5-1.3,2.5-3.1,2.5c-2.2,0-3.3-1.3-3.3-1.3
		L1060.3,231.5z"/>
	<path d="M1073.2,220.8h1.3v1.5h-1.3V220.8z M1073.2,224.5h1.2v9.1h-1.2V224.5z"/>
	<path d="M1077.4,224.5h1.2v1.4c0,0.4,0,0.7,0,0.7h0c0.3-0.8,1.5-2.3,3.6-2.3c2.2,0,3,1.3,3,3.5v5.8h-1.2v-5.4c0-1.4-0.2-2.7-2-2.7
		c-1.5,0-2.9,1.1-3.3,2.6c-0.1,0.4-0.1,0.8-0.1,1.2v4.3h-1.2V224.5z"/>
</g>
<g>
	<path d="M830.5,257.9h0.5v-0.2c0-1.7-1-2.3-2.3-2.3c-1.5,0-2.6,0.9-2.6,0.9l-0.6-0.9c0,0,1.2-1,3.2-1c2.2,0,3.4,1.2,3.4,3.5v5.8
		h-1.2v-1c0-0.5,0-0.8,0-0.8h0c0,0-0.8,2-3,2c-1.5,0-3.1-0.9-3.1-2.7C825,258,828.9,257.9,830.5,257.9z M828.2,262.7
		c1.7,0,2.8-1.8,2.8-3.4v-0.4h-0.5c-1.4,0-4.3,0.1-4.3,2.1C826.2,261.8,826.9,262.7,828.2,262.7z"/>
	<path d="M839.9,254.5h1.2v1.4c0,0.4,0,0.7,0,0.7h0c0.4-1.2,1.9-2.3,3.3-2.3c1.7,0,2.5,0.8,2.8,2.3h0c0.5-1.2,1.8-2.3,3.3-2.3
		c2.2,0,3,1.3,3,3.5v5.8h-1.2v-5.5c0-1.5-0.3-2.7-2-2.7c-1.4,0-2.5,1.2-2.9,2.6c-0.1,0.4-0.2,0.8-0.2,1.3v4.3h-1.2v-5.5
		c0-1.4-0.2-2.7-1.9-2.7c-1.5,0-2.6,1.3-3,2.7c-0.1,0.4-0.1,0.8-0.1,1.2v4.3h-1.2V254.5z"/>
	<path d="M861.2,257.9h0.5v-0.2c0-1.7-1-2.3-2.3-2.3c-1.5,0-2.6,0.9-2.6,0.9l-0.6-0.9c0,0,1.2-1,3.2-1c2.2,0,3.4,1.2,3.4,3.5v5.8
		h-1.2v-1c0-0.5,0-0.8,0-0.8h0c0,0-0.8,2-3,2c-1.5,0-3.1-0.9-3.1-2.7C855.7,258,859.6,257.9,861.2,257.9z M858.9,262.7
		c1.7,0,2.8-1.8,2.8-3.4v-0.4h-0.5c-1.4,0-4.3,0.1-4.3,2.1C856.9,261.8,857.6,262.7,858.9,262.7z"/>
	<path d="M866.1,255.6h-1.2v-1h1.2v-2.6h1.2v2.6h2.3v1h-2.3v4.5c0,2.1,1.4,2.4,2,2.4c0.3,0,0.4,0,0.4,0v1.1c0,0-0.2,0-0.5,0
		c-1,0-3.2-0.3-3.2-3.4V255.6z"/>
	<path d="M872.1,255.6h-1.2v-1h1.2v-2.6h1.2v2.6h2.3v1h-2.3v4.5c0,2.1,1.4,2.4,2,2.4c0.3,0,0.4,0,0.4,0v1.1c0,0-0.2,0-0.5,0
		c-1,0-3.2-0.3-3.2-3.4V255.6z"/>
	<path d="M881.6,254.2c2.5,0,3.8,1.9,3.8,4.2c0,0.2,0,0.6,0,0.6h-7c0.1,2.3,1.6,3.6,3.5,3.6c1.7,0,2.8-1.1,2.8-1.1l0.6,0.9
		c0,0-1.3,1.3-3.3,1.3c-2.7,0-4.7-1.9-4.7-4.7C877.2,256,879.2,254.2,881.6,254.2z M884.2,258c-0.1-1.9-1.2-2.8-2.6-2.8
		c-1.5,0-2.8,1-3.1,2.8H884.2z"/>
	<path d="M887.8,254.5h1.2v1.6c0,0.4,0,0.7,0,0.7h0c0.4-1.4,1.4-2.4,2.9-2.4c0.3,0,0.5,0.1,0.5,0.1v1.2c0,0-0.2,0-0.5,0
		c-1.3,0-2.2,1-2.6,2.3c-0.2,0.6-0.3,1.2-0.3,1.8v3.8h-1.2V254.5z"/>
	<path d="M903.1,254.2c2.6,0,4.8,2,4.8,4.7c0,2.7-2.1,4.8-4.8,4.8s-4.8-2.1-4.8-4.8C898.3,256.3,900.5,254.2,903.1,254.2z
		 M903.1,262.6c1.9,0,3.5-1.6,3.5-3.7c0-2.1-1.6-3.6-3.5-3.6s-3.5,1.5-3.5,3.6C899.6,261,901.2,262.6,903.1,262.6z"/>
	<path d="M910.6,255.6h-1.1v-1h1.1v-0.4c0-3,2.1-3.4,3.1-3.4c0.3,0,0.6,0,0.6,0v1.1c0,0-0.2,0-0.4,0c-0.7,0-2,0.3-2,2.3v0.4h2.3v1
		h-2.3v7.9h-1.2V255.6z"/>
	<path d="M920.7,261.5c0,0,1,1.1,2.7,1.1c1,0,1.8-0.5,1.8-1.4c0-2-4.9-1.5-4.9-4.4c0-1.6,1.5-2.5,3.1-2.5c1.9,0,2.8,1,2.8,1
		l-0.6,0.9c0,0-0.8-0.8-2.3-0.8c-0.9,0-1.8,0.4-1.8,1.4c0,2,4.9,1.5,4.9,4.4c0,1.5-1.3,2.5-3.1,2.5c-2.2,0-3.3-1.3-3.3-1.3
		L920.7,261.5z"/>
	<path d="M932.6,254.2c2.5,0,3.8,1.9,3.8,4.2c0,0.2,0,0.6,0,0.6h-7c0.1,2.3,1.6,3.6,3.5,3.6c1.7,0,2.8-1.1,2.8-1.1l0.6,0.9
		c0,0-1.3,1.3-3.3,1.3c-2.7,0-4.7-1.9-4.7-4.7C928.2,256,930.2,254.2,932.6,254.2z M935.2,258c-0.1-1.9-1.2-2.8-2.6-2.8
		c-1.5,0-2.8,1-3.1,2.8H935.2z"/>
	<path d="M942.9,254.2c2.2,0,3.3,1.3,3.3,1.3l-0.6,0.9c0,0-1-1.1-2.6-1.1c-2,0-3.5,1.5-3.5,3.6c0,2.1,1.6,3.6,3.6,3.6
		c1.8,0,2.9-1.3,2.9-1.3l0.6,1c0,0-1.2,1.4-3.5,1.4c-2.7,0-4.8-1.9-4.8-4.7C938.1,256.2,940.2,254.2,942.9,254.2z"/>
	<path d="M952.7,254.2c2.6,0,4.8,2,4.8,4.7c0,2.7-2.1,4.8-4.8,4.8s-4.8-2.1-4.8-4.8C948,256.3,950.1,254.2,952.7,254.2z
		 M952.7,262.6c1.9,0,3.5-1.6,3.5-3.7c0-2.1-1.6-3.6-3.5-3.6s-3.5,1.5-3.5,3.6C949.2,261,950.8,262.6,952.7,262.6z"/>
	<path d="M959.8,254.5h1.2v1.4c0,0.4,0,0.7,0,0.7h0c0.3-0.8,1.5-2.3,3.6-2.3c2.2,0,3,1.3,3,3.5v5.8h-1.2v-5.4c0-1.4-0.2-2.7-2-2.7
		c-1.5,0-2.9,1.1-3.3,2.6c-0.1,0.4-0.1,0.8-0.1,1.2v4.3h-1.2V254.5z"/>
	<path d="M974,254.2c2.2,0,3,1.7,3,1.7h0c0,0,0-0.3,0-0.7v-4.4h1.2v12.7H977v-1c0-0.4,0-0.6,0-0.6h0c0,0-0.7,1.8-3.1,1.8
		c-2.4,0-3.9-1.9-3.9-4.8C969.9,256.1,971.6,254.2,974,254.2z M974,262.6c1.5,0,2.9-1.1,2.9-3.7c0-1.8-0.9-3.6-2.9-3.6
		c-1.6,0-2.9,1.4-2.9,3.6C971.2,261.2,972.3,262.6,974,262.6z"/>
	<path d="M981,261.5c0,0,1,1.1,2.7,1.1c1,0,1.8-0.5,1.8-1.4c0-2-4.9-1.5-4.9-4.4c0-1.6,1.5-2.5,3.1-2.5c1.9,0,2.8,1,2.8,1l-0.6,0.9
		c0,0-0.8-0.8-2.3-0.8c-0.9,0-1.8,0.4-1.8,1.4c0,2,4.9,1.5,4.9,4.4c0,1.5-1.3,2.5-3.1,2.5c-2.2,0-3.3-1.3-3.3-1.3L981,261.5z"/>
	<path d="M989.3,262h1.4l-1.3,3.2h-1L989.3,262z"/>
	<path d="M1003.1,257.9h0.5v-0.2c0-1.7-1-2.3-2.3-2.3c-1.5,0-2.6,0.9-2.6,0.9l-0.6-0.9c0,0,1.2-1,3.2-1c2.2,0,3.4,1.2,3.4,3.5v5.8
		h-1.2v-1c0-0.5,0-0.8,0-0.8h0c0,0-0.8,2-3,2c-1.5,0-3.1-0.9-3.1-2.7C997.6,258,1001.5,257.9,1003.1,257.9z M1000.8,262.7
		c1.7,0,2.8-1.8,2.8-3.4v-0.4h-0.5c-1.4,0-4.3,0.1-4.3,2.1C998.8,261.8,999.5,262.7,1000.8,262.7z"/>
	<path d="M1007.7,254.5h1.2v1.4c0,0.4,0,0.7,0,0.7h0c0.3-0.8,1.5-2.3,3.6-2.3c2.2,0,3,1.3,3,3.5v5.8h-1.2v-5.4c0-1.4-0.2-2.7-2-2.7
		c-1.5,0-2.9,1.1-3.3,2.6c-0.1,0.4-0.1,0.8-0.1,1.2v4.3h-1.2V254.5z"/>
	<path d="M1021.8,254.2c2.2,0,3,1.7,3,1.7h0c0,0,0-0.3,0-0.7v-4.4h1.2v12.7h-1.2v-1c0-0.4,0-0.6,0-0.6h0c0,0-0.7,1.8-3.1,1.8
		c-2.4,0-3.9-1.9-3.9-4.8C1017.7,256.1,1019.4,254.2,1021.8,254.2z M1021.9,262.6c1.5,0,2.9-1.1,2.9-3.7c0-1.8-0.9-3.6-2.9-3.6
		c-1.6,0-2.9,1.4-2.9,3.6C1019,261.2,1020.2,262.6,1021.9,262.6z"/>
	<path d="M1032.6,254.5h1.3l2.2,6.8c0.1,0.4,0.3,1,0.3,1h0c0,0,0.1-0.5,0.3-1l2.2-6.7h1.2l2.2,6.7c0.1,0.4,0.3,1,0.3,1h0
		c0,0,0.1-0.5,0.3-1l2.2-6.8h1.3l-3.1,9.1h-1.3l-2.2-6.4c-0.2-0.5-0.3-1-0.3-1h0c0,0-0.1,0.5-0.3,1l-2.2,6.4h-1.3L1032.6,254.5z"/>
	<path d="M1052,254.2c2.5,0,3.8,1.9,3.8,4.2c0,0.2,0,0.6,0,0.6h-7c0.1,2.3,1.6,3.6,3.5,3.6c1.7,0,2.8-1.1,2.8-1.1l0.6,0.9
		c0,0-1.3,1.3-3.3,1.3c-2.7,0-4.7-1.9-4.7-4.7C1047.6,256,1049.6,254.2,1052,254.2z M1054.6,258c-0.1-1.9-1.2-2.8-2.6-2.8
		c-1.5,0-2.8,1-3.1,2.8H1054.6z"/>
	<path d="M1067.1,254.2c2.2,0,3.3,1.3,3.3,1.3l-0.6,0.9c0,0-1-1.1-2.6-1.1c-2,0-3.5,1.5-3.5,3.6c0,2.1,1.6,3.6,3.6,3.6
		c1.8,0,2.9-1.3,2.9-1.3l0.6,1c0,0-1.2,1.4-3.5,1.4c-2.7,0-4.8-1.9-4.8-4.7C1062.4,256.2,1064.4,254.2,1067.1,254.2z"/>
	<path d="M1077.7,257.9h0.5v-0.2c0-1.7-1-2.3-2.3-2.3c-1.5,0-2.6,0.9-2.6,0.9l-0.6-0.9c0,0,1.2-1,3.2-1c2.2,0,3.4,1.2,3.4,3.5v5.8
		h-1.2v-1c0-0.5,0-0.8,0-0.8h0c0,0-0.8,2-3,2c-1.5,0-3.1-0.9-3.1-2.7C1072.1,258,1076.1,257.9,1077.7,257.9z M1075.4,262.7
		c1.7,0,2.8-1.8,2.8-3.4v-0.4h-0.5c-1.4,0-4.3,0.1-4.3,2.1C1073.4,261.8,1074.1,262.7,1075.4,262.7z"/>
	<path d="M1082.2,254.5h1.2v1.4c0,0.4,0,0.7,0,0.7h0c0.3-0.8,1.5-2.3,3.6-2.3c2.2,0,3,1.3,3,3.5v5.8h-1.2v-5.4c0-1.4-0.2-2.7-2-2.7
		c-1.5,0-2.9,1.1-3.3,2.6c-0.1,0.4-0.1,0.8-0.1,1.2v4.3h-1.2V254.5z"/>
</g>
<g>
	<path d="M830.5,287.9h0.5v-0.2c0-1.7-1-2.3-2.3-2.3c-1.5,0-2.6,0.9-2.6,0.9l-0.6-0.9c0,0,1.2-1,3.2-1c2.2,0,3.4,1.2,3.4,3.5v5.8
		h-1.2v-1c0-0.5,0-0.8,0-0.8h0c0,0-0.8,2-3,2c-1.5,0-3.1-0.9-3.1-2.7C825,288,828.9,287.9,830.5,287.9z M828.2,292.7
		c1.7,0,2.8-1.8,2.8-3.4v-0.4h-0.5c-1.4,0-4.3,0.1-4.3,2.1C826.2,291.8,826.9,292.7,828.2,292.7z"/>
	<path d="M834.9,284.5h1.2v5.4c0,1.4,0.2,2.7,2,2.7c2.1,0,3.3-1.8,3.3-3.8v-4.3h1.2v9.1h-1.2v-1.4c0-0.4,0-0.7,0-0.7h0
		c-0.4,0.9-1.5,2.3-3.5,2.3c-2.1,0-3-1.2-3-3.5V284.5z"/>
	<path d="M846,285.6h-1.2v-1h1.2v-2.6h1.2v2.6h2.3v1h-2.3v4.5c0,2.1,1.4,2.4,2,2.4c0.3,0,0.4,0,0.4,0v1.1c0,0-0.2,0-0.5,0
		c-1,0-3.2-0.3-3.2-3.4V285.6z"/>
	<path d="M855.8,284.2c2.6,0,4.8,2,4.8,4.7c0,2.7-2.1,4.8-4.8,4.8s-4.8-2.1-4.8-4.8C851,286.3,853.2,284.2,855.8,284.2z
		 M855.8,292.6c1.9,0,3.5-1.6,3.5-3.7c0-2.1-1.6-3.6-3.5-3.6s-3.5,1.5-3.5,3.6C852.3,291,853.9,292.6,855.8,292.6z"/>
	<path d="M862.9,284.5h1.2v1.4c0,0.4,0,0.7,0,0.7h0c0.4-1.2,1.9-2.3,3.3-2.3c1.7,0,2.5,0.8,2.8,2.3h0c0.5-1.2,1.8-2.3,3.3-2.3
		c2.2,0,3,1.3,3,3.5v5.8h-1.2v-5.5c0-1.5-0.3-2.7-2-2.7c-1.4,0-2.5,1.2-2.9,2.6c-0.1,0.4-0.2,0.8-0.2,1.3v4.3h-1.2v-5.5
		c0-1.4-0.2-2.7-1.9-2.7c-1.5,0-2.6,1.3-3,2.7c-0.1,0.4-0.1,0.8-0.1,1.2v4.3h-1.2V284.5z"/>
	<path d="M884.2,287.9h0.5v-0.2c0-1.7-1-2.3-2.3-2.3c-1.5,0-2.6,0.9-2.6,0.9l-0.6-0.9c0,0,1.2-1,3.2-1c2.2,0,3.4,1.2,3.4,3.5v5.8
		h-1.2v-1c0-0.5,0-0.8,0-0.8h0c0,0-0.8,2-3,2c-1.5,0-3.1-0.9-3.1-2.7C878.6,288,882.6,287.9,884.2,287.9z M881.9,292.7
		c1.7,0,2.8-1.8,2.8-3.4v-0.4h-0.5c-1.4,0-4.3,0.1-4.3,2.1C879.9,291.8,880.5,292.7,881.9,292.7z"/>
	<path d="M889.1,285.6h-1.2v-1h1.2v-2.6h1.2v2.6h2.3v1h-2.3v4.5c0,2.1,1.4,2.4,2,2.4c0.3,0,0.4,0,0.4,0v1.1c0,0-0.2,0-0.5,0
		c-1,0-3.2-0.3-3.2-3.4V285.6z"/>
	<path d="M898.6,284.2c2.5,0,3.8,1.9,3.8,4.2c0,0.2,0,0.6,0,0.6h-7c0.1,2.3,1.6,3.6,3.5,3.6c1.7,0,2.8-1.1,2.8-1.1l0.6,0.9
		c0,0-1.3,1.3-3.3,1.3c-2.7,0-4.7-1.9-4.7-4.7C894.1,286,896.1,284.2,898.6,284.2z M901.1,288c-0.1-1.9-1.2-2.8-2.6-2.8
		c-1.5,0-2.8,1-3.1,2.8H901.1z"/>
	<path d="M914.4,287.9h0.5v-0.2c0-1.7-1-2.3-2.3-2.3c-1.5,0-2.6,0.9-2.6,0.9l-0.6-0.9c0,0,1.2-1,3.2-1c2.2,0,3.4,1.2,3.4,3.5v5.8
		h-1.2v-1c0-0.5,0-0.8,0-0.8h0c0,0-0.8,2-3,2c-1.5,0-3.1-0.9-3.1-2.7C908.8,288,912.8,287.9,914.4,287.9z M912.1,292.7
		c1.7,0,2.8-1.8,2.8-3.4v-0.4h-0.5c-1.4,0-4.3,0.1-4.3,2.1C910.1,291.8,910.7,292.7,912.1,292.7z"/>
	<path d="M918.9,284.5h1.2v1.4c0,0.4,0,0.7,0,0.7h0c0.3-0.8,1.5-2.3,3.6-2.3c2.2,0,3,1.3,3,3.5v5.8h-1.2v-5.4c0-1.4-0.2-2.7-2-2.7
		c-1.5,0-2.9,1.1-3.3,2.6c-0.1,0.4-0.1,0.8-0.1,1.2v4.3h-1.2V284.5z"/>
	<path d="M933.1,284.2c2.2,0,3,1.7,3,1.7h0c0,0,0-0.3,0-0.7v-4.4h1.2v12.7H936v-1c0-0.4,0-0.6,0-0.6h0c0,0-0.7,1.8-3.1,1.8
		c-2.4,0-3.9-1.9-3.9-4.8C929,286.1,930.7,284.2,933.1,284.2z M933.1,292.6c1.5,0,2.9-1.1,2.9-3.7c0-1.8-0.9-3.6-2.9-3.6
		c-1.6,0-2.9,1.4-2.9,3.6C930.2,291.2,931.4,292.6,933.1,292.6z"/>
	<path d="M949.1,284.2c2.6,0,4.8,2,4.8,4.7c0,2.7-2.1,4.8-4.8,4.8s-4.8-2.1-4.8-4.8C944.4,286.3,946.5,284.2,949.1,284.2z
		 M949.1,292.6c1.9,0,3.5-1.6,3.5-3.7c0-2.1-1.6-3.6-3.5-3.6s-3.5,1.5-3.5,3.6C945.6,291,947.2,292.6,949.1,292.6z"/>
	<path d="M956.2,284.5h1.2v0.9c0,0.4,0,0.7,0,0.7h0c0,0,0.7-1.8,3.1-1.8c2.4,0,3.9,1.9,3.9,4.8c0,2.9-1.7,4.7-4.1,4.7
		c-2.2,0-3-1.7-3-1.7h0c0,0,0,0.3,0,0.8v4.3h-1.2V284.5z M960.3,292.6c1.6,0,2.9-1.4,2.9-3.7c0-2.2-1.2-3.6-2.9-3.6
		c-1.5,0-2.9,1.1-2.9,3.7C957.4,290.8,958.4,292.6,960.3,292.6z"/>
	<path d="M967.2,285.6H966v-1h1.2v-2.6h1.2v2.6h2.3v1h-2.3v4.5c0,2.1,1.4,2.4,2,2.4c0.3,0,0.4,0,0.4,0v1.1c0,0-0.2,0-0.5,0
		c-1,0-3.2-0.3-3.2-3.4V285.6z"/>
	<path d="M972.8,280.8h1.3v1.5h-1.3V280.8z M972.8,284.5h1.2v9.1h-1.2V284.5z"/>
	<path d="M977,284.5h1.2v1.4c0,0.4,0,0.7,0,0.7h0c0.4-1.2,1.9-2.3,3.3-2.3c1.7,0,2.5,0.8,2.8,2.3h0c0.5-1.2,1.8-2.3,3.3-2.3
		c2.2,0,3,1.3,3,3.5v5.8h-1.2v-5.5c0-1.5-0.3-2.7-2-2.7c-1.4,0-2.5,1.2-2.9,2.6c-0.1,0.4-0.2,0.8-0.2,1.3v4.3h-1.2v-5.5
		c0-1.4-0.2-2.7-1.9-2.7c-1.5,0-2.6,1.3-3,2.7c-0.1,0.4-0.1,0.8-0.1,1.2v4.3H977V284.5z"/>
	<path d="M993.5,280.8h1.3v1.5h-1.3V280.8z M993.5,284.5h1.2v9.1h-1.2V284.5z"/>
	<path d="M997,292.7l5.1-6.4c0.3-0.4,0.7-0.8,0.7-0.8v0c0,0-0.3,0-0.9,0h-4.7v-1.1h7.2v0.8l-5.1,6.3c-0.3,0.4-0.7,0.8-0.7,0.8v0
		c0,0,0.3,0,0.9,0h5.1v1.1H997V292.7z"/>
	<path d="M1010.7,284.2c2.5,0,3.8,1.9,3.8,4.2c0,0.2,0,0.6,0,0.6h-7c0.1,2.3,1.6,3.6,3.5,3.6c1.7,0,2.8-1.1,2.8-1.1l0.6,0.9
		c0,0-1.3,1.3-3.3,1.3c-2.7,0-4.7-1.9-4.7-4.7C1006.2,286,1008.2,284.2,1010.7,284.2z M1013.2,288c-0.1-1.9-1.2-2.8-2.6-2.8
		c-1.5,0-2.8,1-3.1,2.8H1013.2z"/>
	<path d="M1025.8,284.2c2.6,0,4.8,2,4.8,4.7c0,2.7-2.1,4.8-4.8,4.8s-4.8-2.1-4.8-4.8C1021,286.3,1023.1,284.2,1025.8,284.2z
		 M1025.8,292.6c1.9,0,3.5-1.6,3.5-3.7c0-2.1-1.6-3.6-3.5-3.6s-3.5,1.5-3.5,3.6C1022.2,291,1023.8,292.6,1025.8,292.6z"/>
	<path d="M1032.8,284.5h1.2v1.4c0,0.4,0,0.7,0,0.7h0c0.3-0.8,1.5-2.3,3.6-2.3c2.2,0,3,1.3,3,3.5v5.8h-1.2v-5.4c0-1.4-0.2-2.7-2-2.7
		c-1.5,0-2.9,1.1-3.3,2.6c-0.1,0.4-0.1,0.8-0.1,1.2v4.3h-1.2V284.5z"/>
	<path d="M1048.7,285.6h-1.2v-1h1.2v-2.6h1.2v2.6h2.3v1h-2.3v4.5c0,2.1,1.4,2.4,2,2.4c0.3,0,0.4,0,0.4,0v1.1c0,0-0.2,0-0.5,0
		c-1,0-3.2-0.3-3.2-3.4V285.6z"/>
	<path d="M1054.4,280.8h1.2v4.9c0,0.4,0,0.7,0,0.7h0c0.3-0.9,1.5-2.2,3.6-2.2c2.2,0,3,1.3,3,3.5v5.8h-1.2v-5.4c0-1.4-0.2-2.7-2-2.7
		c-1.5,0-2.9,1.1-3.3,2.6c-0.1,0.4-0.1,0.8-0.1,1.2v4.3h-1.2V280.8z"/>
	<path d="M1068.9,284.2c2.5,0,3.8,1.9,3.8,4.2c0,0.2,0,0.6,0,0.6h-7c0.1,2.3,1.6,3.6,3.5,3.6c1.7,0,2.8-1.1,2.8-1.1l0.6,0.9
		c0,0-1.3,1.3-3.3,1.3c-2.7,0-4.7-1.9-4.7-4.7C1064.4,286,1066.4,284.2,1068.9,284.2z M1071.4,288c-0.1-1.9-1.2-2.8-2.6-2.8
		c-1.5,0-2.8,1-3.1,2.8H1071.4z"/>
</g>
<g>
	<path d="M1080.1,285.6h-1.1v-1h1.1v-0.4c0-3,2.1-3.4,3.1-3.4c0.3,0,0.6,0,0.6,0v1.1c0,0-0.2,0-0.4,0c-0.7,0-2,0.3-2,2.3v0.4h2.3v1
		h-2.3v7.9h-1.2V285.6z M1085.4,280.8h1.2v10.2c0,1.2,0.5,1.4,1,1.4c0.2,0,0.3,0,0.3,0v1.1c0,0-0.2,0-0.5,0c-0.8,0-2.1-0.2-2.1-2.2
		V280.8z"/>
</g>
<g>
	<path d="M1089,295.8c0,0,0.5,0.4,1.1,0.4c0.8,0,1.4-0.6,1.7-1.5l0.6-1.3l-3.8-9h1.4l2.7,6.6c0.2,0.5,0.3,1,0.3,1h0
		c0,0,0.1-0.5,0.3-1l2.6-6.6h1.3l-4.5,10.9c-0.5,1.2-1.4,1.9-2.6,1.9c-0.9,0-1.6-0.5-1.6-0.5L1089,295.8z"/>
	<path d="M1099.5,292.1h1.4v1.4h-1.4V292.1z M1099.5,280.8h1.3l-0.1,9.3h-1.2L1099.5,280.8z"/>
</g>
<polyline class="st1" points="735.9,140.3 824.2,40 987.9,40 "/>
<path class="st2" d="M741.5,185c0,94.4-76.6,171-171,171c-94.4,0-171-76.6-171-171c0-94.4,76.6-171,171-171
	C665,14,741.5,90.6,741.5,185"/>
<path class="st3" d="M576.5,192.4l118.3-20.9 M581.7,178.4l-105.2,76.1 M574.3,185l62.3,90.7 M694.8,171.5l-40.6-84.3 M571.3,181.2
	c-2,4.2,0.6-119.4,0.6-119.4 M573.7,58.5L525.6,111l-69.8,47.5 M537.7,300.5l-71.2-49.1 M459,154.1l-35.5,31.1 M696.1,175.8l17,45.6
	 M690.5,181.5l-12,32.8 M411.4,190.3c0,4.1,3.3,7.4,7.4,7.4c4.1,0,7.4-3.3,7.4-7.4c0-4.1-3.3-7.4-7.4-7.4
	C414.7,182.9,411.4,186.2,411.4,190.3L411.4,190.3z M670.6,219.3c0,3.3,2.7,5.9,5.9,5.9s5.9-2.7,5.9-5.9c0-3.3-2.7-5.9-5.9-5.9
	S670.6,216.1,670.6,219.3L670.6,219.3z M707.9,228.6c0,4.3,3.5,7.8,7.8,7.8s7.8-3.5,7.8-7.8c0-4.3-3.5-7.8-7.8-7.8
	S707.9,224.3,707.9,228.6L707.9,228.6z M635.9,282.4L596,330.2 M588.4,333.8c0,2.7,2.2,4.8,4.8,4.8c2.7,0,4.8-2.2,4.8-4.8
	c0-2.7-2.2-4.8-4.8-4.8C590.6,328.9,588.4,331.1,588.4,333.8L588.4,333.8z M521.5,109.9l-11.2-36.7 M500.1,66.4c0,4.4,3.6,8,8,8
	c4.4,0,8-3.6,8-8c0-4.4-3.6-8-8-8C503.7,58.5,500.1,62,500.1,66.4L500.1,66.4z M461.8,133.4l-8-21.5 M448.3,108.3
	c0,2.3,1.9,4.2,4.2,4.2c2.3,0,4.2-1.9,4.2-4.2c0-2.3-1.9-4.2-4.2-4.2C450.2,104.1,448.3,106,448.3,108.3L448.3,108.3z M648.5,89.6
	L608.9,112 M598.1,115.5c0,3.5,2.9,6.4,6.4,6.4c3.5,0,6.4-2.9,6.4-6.4c0-3.5-2.9-6.4-6.4-6.4C600.9,109.1,598.1,112,598.1,115.5
	L598.1,115.5z"/>
<path class="st4" d="M431,154.4c0,17.3,14,31.4,31.4,31.4c17.3,0,31.4-14,31.4-31.4c0-17.3-14-31.4-31.4-31.4
	C445,123,431,137.1,431,154.4"/>
<path class="st4" d="M536,57.6c0,19.9,16.1,36,36,36c19.9,0,36-16.1,36-36c0-19.9-16.1-36-36-36C552.1,21.6,536,37.7,536,57.6"/>
<path class="st5" d="M519.5,187.5c0,29.6,24,53.6,53.6,53.6c29.6,0,53.6-24,53.6-53.6s-24-53.6-53.6-53.6
	C543.4,133.9,519.5,157.9,519.5,187.5"/>
<path class="st6" d="M564.2,210.7c0.1,0.4,0.3,0.8,0.4,1.2c0.4,1.2,0.8,2.5,1.2,3.7c0.1,0.4,0.3,0.9,0.4,1.3
	c0.4,1.1,0.7,2.3,1.1,3.4c0.1,0.2,0.1,0.4,0.2,0.7c0.4,1.3,0.8,2.7,1.2,4c0.1,0.4,0.2,0.7,0.3,1.1c0.4,1.4,0.8,2.8,1.2,4.1
	c1,3.5,1.9,7.1,2.5,10.7c0,0,0,0.1,0,0.1c0.1,0,0.2,0,0.3,0c2.3,0,4.5-0.1,6.7-0.4c0.1-0.4,0.1-0.9,0.2-1.3c0-0.2,0-0.4,0.1-0.5
	c0.1-1,0.3-2.1,0.4-3.1c0-0.1,0-0.2,0-0.3c0.1-1.1,0.3-2.2,0.4-3.2c0-0.1,0-0.1,0-0.2c0.2-1.1,0.3-2.2,0.5-3.3c0,0,0,0,0-0.1
	c1.2-7.9,2.6-15.9,4.1-23.7c0,0,0,0,0,0c-1.2,0.8-2.6,1.4-4.1,1.7c-2.4,0.6-4.9,0.6-7.3,0.5c-3.8,0-7.8-0.2-11.4-1.1
	c0,0.1,0.1,0.3,0.1,0.4c0.2,0.5,0.3,1,0.5,1.5C563.6,208.8,563.9,209.8,564.2,210.7"/>
<path class="st7" d="M591.7,209.8c2.2,1.2,4.4,2.4,6.6,3.6c0.4,0.2,0.9,0.5,1.1,0.9c0.5,0.8,0.1,1.9-0.3,2.7
	c-3.3,6.9-6.2,14-8.8,21.2c11.4-3.9,21.1-11.5,27.6-21.4c-0.8-5.7-2.1-11.5-6.1-15.4c-3.8-3.7-9.1-5-14.1-6.9
	c1.8,4.3,3.2,8.7,4.1,13.3C598.4,208.3,595,209,591.7,209.8"/>
<path class="st8" d="M554.5,209.3c-1.8,1.8-3.5,3.6-5.3,5.4c-0.2,0.3-0.5,0.5-0.6,0.9c0,0.3,0.1,0.6,0.2,0.9c1,2.2,2.1,4.3,3.3,6.3
	c2.1,3.6,4.5,7,6.7,10.5c1.3,2.2,2.6,4.4,3.7,6.7c3.3,0.7,6.7,1,10.2,1c0,0,0-0.1,0-0.1c-0.6-3.6-1.5-7.2-2.5-10.7
	c-0.4-1.4-0.8-2.8-1.2-4.1c-0.1-0.4-0.2-0.7-0.3-1.1c-0.4-1.3-0.8-2.7-1.2-4c-0.1-0.2-0.1-0.4-0.2-0.7c-0.3-1.1-0.7-2.3-1.1-3.4
	c-0.1-0.4-0.3-0.9-0.4-1.3c-0.4-1.2-0.8-2.5-1.2-3.7c-0.1-0.4-0.3-0.8-0.4-1.2c-0.3-0.9-0.6-1.9-0.9-2.8c-0.2-0.5-0.3-1-0.5-1.5
	c-1.5-4.4-3.1-8.8-4.8-13.1c-0.7,0.6-1.4,1.1-2.1,1.6c-2.8,2-5.7,3.6-8.8,5.1c-0.2,3.5-0.3,7.1-0.5,10.6
	C548.9,209.1,551.8,208.7,554.5,209.3"/>
<path class="st7" d="M562.6,240c-1.1-2.3-2.4-4.5-3.7-6.7c-2.2-3.5-4.6-6.9-6.7-10.5c-1.2-2-2.3-4.2-3.3-6.3
	c-0.1-0.3-0.3-0.6-0.2-0.9c0-0.4,0.3-0.6,0.6-0.9c1.8-1.8,3.5-3.6,5.3-5.4c-2.7-0.7-5.6-0.2-8,1.2c0.2-3.5,0.3-7.1,0.5-10.6
	c-1.4,0.7-2.7,1.3-4.1,2c-3.2,1.5-6.5,3.2-9,5.8c-2.2,2.3-3.5,5.2-4.9,8c-0.3,0.5-0.5,1-0.6,1.5C536.2,228.8,548.4,237.2,562.6,240"
	/>
<path class="st8" d="M581.3,228.6c-0.2,1.1-0.3,2.2-0.5,3.4c0,0.1,0,0.1,0,0.2c-0.1,1.1-0.3,2.2-0.4,3.2c0,0.1,0,0.2,0,0.3
	c-0.1,1-0.3,2.1-0.4,3.1c0,0.2,0,0.4-0.1,0.5c-0.1,0.4-0.1,0.9-0.2,1.3c3.7-0.5,7.2-1.3,10.6-2.4c2.6-7.2,5.5-14.3,8.8-21.2
	c0.4-0.9,0.8-1.9,0.3-2.7c-0.3-0.4-0.7-0.7-1.1-0.9c-2.2-1.2-4.4-2.4-6.6-3.6c3.3-0.8,6.7-1.5,10.1-2c-0.9-4.6-2.3-9-4.1-13.3
	c-1.6-0.6-3.2-1.3-4.7-2.1c-1.8-1-3.6-2.4-4.8-4c-0.5,5.3-1.8,12-2.6,16c0,0.2-0.1,0.3-0.1,0.5C583.8,212.7,582.5,220.6,581.3,228.6
	C581.3,228.6,581.3,228.6,581.3,228.6"/>
<path class="st9" d="M574,207.1c-3.8,0-7.8-0.2-11.4-1.1c-1.5-4.3-3-8.5-4.7-12.7c3.1-2.6,5.7-5.8,7.1-9.6c0.6-1.6,1-3.3,2.3-4.5
	c1.6-1.5,4.2-1.5,6.4-1.3c4.3,0.4,8.9,1.6,11.4,5.1c1,1.4,1.5,3,2.3,4.4c0.2,0.4,0.5,0.7,0.7,1.1c-0.5,5.3-1.8,12-2.6,16
	c0,0.2-0.1,0.3-0.1,0.5c-1.2,0.8-2.6,1.4-4.1,1.7C579,207.1,576.5,207.1,574,207.1"/>
<path class="st10" d="M599.4,201.5c-0.9,2.1-2.9,3.6-3.6,5.8c-1.6,5.1,4.6,10,3.9,15.3c-1.4-3-3.9-5.4-5.6-8.3
	c-1.7-2.9-2.2-7,0.1-9.3c-3.8,2.7-5.4,8-3.7,12.4c-1.7-2.1-2.4-4.9-1.7-7.5c0.3-1.3,0.9-2.5,1-3.8c0.1-3.1-2.8-5.4-4.1-8.3
	c-1.8-4-0.1-8.5,1.1-12.7c1.5-5,2.3-10.2,2.6-15.4c0.2-3.6,0-7.3-1.8-10.4c-1.6-2.7-4.2-4.6-6.6-6.6c-2.3-2.1-4.6-4.6-4.9-7.7
	c5.4-0.3,10.8,1.3,15.3,4.4c1.4,1,2.8,2.2,3.7,3.7c1,1.6,1.5,3.4,1.9,5.2c1.8,7.6,3,16-0.7,22.9c-0.7,1.3-1.6,2.6-1.6,4
	c0,1.6,0.9,3,1.8,4.4C599,193.1,601.2,197.6,599.4,201.5"/>
<path class="st11" d="M581,191.4c-2.8-1.2-5.6-2.4-8.3-3.8c-1.2-0.6-2.5-1.3-3.4-2.3c-0.8-0.9-1.4-2-1.8-3.1
	c-1.4-3.5-1.6-7.3-1.4-11c0.1-2,0.3-4,1.1-5.9c0.8-2,2.3-3.7,3.7-5.4c1.7-2,3.4-3.9,5.4-5.6c1.7-1.3,3.5-2.4,5.5-3.2
	c1.2-0.5,2.5-0.8,3.7-0.5c0.3,0.1,0.6,0.2,1,0.4l2.8,1.3c1.1,0.5,2.1,1,2.9,1.9c0.7,0.8,1.1,1.9,1.4,3c1,3.2,1.9,6.5,1.4,9.8
	c-0.3,2.2-1.2,4.3-1.3,6.6c-0.1,1.4,0.2,2.8,0,4.1c-0.2,1.5-0.9,2.9-1.6,4.2c-1,1.9-2,3.8-3,5.6c-1.1,2-2.4,4.2-4.7,4.5
	C583.2,192.3,582.1,191.8,581,191.4"/>
<path class="st10" d="M551.1,226.8c-0.1-0.8-0.7-1.3-1.3-1.9c-3.1-3.2-3.9-8.4-1.9-12.4c1.1-2.2,3-4.4,2.3-6.7
	c0.3,2.3-1.9,4-3.8,5.2c-1.9,1.3-4,3.1-3.6,5.3c-0.6-2.4,0.1-5.1,1.9-6.9c0.5-0.5,1.1-1,1.5-1.7c1-1.9-0.6-4.2-0.8-6.3
	c-0.1-1.5,0.6-3,1.7-3.9c-1.4,1-2.7,2.1-4.1,3.1c-1,0.7-1.9,1.5-2.5,2.5c-0.9,1.7-0.5,3.7-0.6,5.6c-0.2,1.9-1.5,4.1-3.4,3.8
	c3.2-3.2-0.6-9.6,2.5-12.8c1.8-1.8,5-1.8,6.5-3.9c1.5-2.1,0.1-5-0.3-7.5c-0.4-2.8,0.4-5.7,2.2-7.8c1.5-1.8,3.6-2.9,5-4.8
	c2.2-3,2.2-7,2.6-10.7c0.4-3.9,1.5-7.6,3.2-11.2c2.2-4.6,5.8-9.1,10.8-10.1c2.1-0.4,4.2-0.2,6.3,0.2c4.3,0.8,8.5,2.3,12.4,4.6
	c0.4,0.3,0.9,0.6,1,1c0.1,0.4,0,0.8-0.2,1.1c-0.8,2.1-1.6,4.2-2.4,6.3c-1.3,3.4-2.7,7-5.7,9.1c-2.5,1.8-6.1,2.3-7.6,5.1
	c-2.2,4.2,2.7,9.1,1.5,13.7c-1,4-6.3,6.6-5.7,10.7c0.3,1.6,1.4,2.9,2.4,4.1c1.3,1.6,2.4,3.4,2.9,5.3c0.5,2,0.3,4.2-0.8,5.9
	c-1.2,1.8-3.4,2.7-5.4,3.2c-2,0.5-4.5,1-5.2,3c-0.8,2.2,1.5,4.5,1.1,6.9c-0.3,2.3-2.8,3.5-4.9,4.4c-2.1,0.9-4.5,2.4-4.4,4.7
	c-0.2-1.8,0.6-3.7,2-4.8c1.1-0.8,2.5-1.4,2.7-2.7c0.2-1.9-2.4-2.7-3.3-4.3c-1-1.7,0.2-3.8,1.5-5.3c1.3-1.5,2.8-3.1,2.7-5
	c-1.2,3-5.4,3.4-7.5,5.9c-1.5,1.8-1.7,4.5-0.9,6.7c0.3,0.8,0.6,1.5,0.6,2.4c-0.1,2.2-2.8,3.1-5,3.2c0.9,0,1.8,0,2.6-0.4
	C550.6,228.5,551.3,227.7,551.1,226.8"/>
<path class="st8" d="M562.7,206.4c0.2,0.5,0.3,1,0.5,1.5C563.1,207.4,562.9,206.9,562.7,206.4"/>
<path class="st8" d="M569,226.1c-0.1-0.4-0.2-0.7-0.3-1.1C568.8,225.4,568.9,225.8,569,226.1"/>
<path class="st8" d="M567.5,221c-0.1-0.2-0.1-0.4-0.2-0.7C567.4,220.6,567.4,220.8,567.5,221"/>
<path class="st8" d="M566.2,217c-0.1-0.4-0.3-0.9-0.4-1.3C566,216.1,566.1,216.5,566.2,217"/>
<path class="st8" d="M564.6,211.9c-0.1-0.4-0.3-0.8-0.4-1.2C564.3,211.1,564.5,211.5,564.6,211.9"/>
<path class="st8" d="M579.7,240.6L579.7,240.6c0.1-0.4,0.1-0.9,0.2-1.3C579.8,239.8,579.7,240.2,579.7,240.6"/>
<path class="st8" d="M579.9,238.8c0.1-1,0.3-2.1,0.4-3.1C580.2,236.7,580,237.8,579.9,238.8"/>
<path class="st8" d="M580.8,232c0.2-1.1,0.3-2.2,0.5-3.4C581.1,229.8,581,230.9,580.8,232"/>
<path class="st8" d="M585.4,204.9c-1.6,7.9-3,15.8-4.1,23.7C582.5,220.6,583.8,212.7,585.4,204.9"/>
<path class="st8" d="M580.3,235.4c0.1-1.1,0.3-2.2,0.4-3.2C580.6,233.3,580.5,234.3,580.3,235.4"/>
<path class="st12" d="M519.5,187.5c0,29.6,24,53.6,53.6,53.6c29.6,0,53.6-24,53.6-53.6s-24-53.6-53.6-53.6
	C543.4,133.9,519.5,157.9,519.5,187.5L519.5,187.5z"/>
<path class="st2" d="M480.2,162.7h-35.8v-24.3h35.8V162.7z M482.5,137.5c0-0.8-0.6-1.4-1.4-1.4h-37.6c-0.8,0-1.4,0.6-1.4,1.4v27.7
	c0,0.8,0.6,1.4,1.4,1.4h37.6c0.8,0,1.4-0.6,1.4-1.4V137.5z"/>
<path class="st2" d="M487.7,166c0,0.8-0.6,1.6-1.4,1.6h-47.8c-0.8,0-1.4-0.8-1.4-1.6c0-0.8,0.6-1.6,1.4-1.6h47.8
	C487,164.3,487.7,165.2,487.7,166"/>
<path class="st13" d="M429,250.2c0,23.6,19.1,42.7,42.7,42.7c23.6,0,42.7-19.1,42.7-42.7c0-23.6-19.1-42.7-42.7-42.7
	C448.1,207.5,429,226.6,429,250.2"/>
<path class="st13" d="M662.6,171c0,15.4,12.5,27.9,27.9,27.9c15.4,0,27.9-12.5,27.9-27.9s-12.5-27.9-27.9-27.9
	C675.1,143.1,662.6,155.6,662.6,171"/>
<path class="st0" d="M623.3,89.8c0,17.3,14,31.3,31.3,31.3s31.3-14,31.3-31.3c0-17.3-14-31.3-31.3-31.3S623.3,72.6,623.3,89.8"/>
<path class="st0" d="M502.8,111c0,12.6,10.2,22.8,22.8,22.8c12.6,0,22.8-10.2,22.8-22.8c0-12.6-10.2-22.8-22.8-22.8
	C513,88.2,502.8,98.4,502.8,111"/>
<path class="st0" d="M593.4,278.2c0,25.2,20.4,45.6,45.6,45.6c25.2,0,45.6-20.4,45.6-45.6c0-25.2-20.4-45.6-45.6-45.6
	C613.8,232.6,593.4,253,593.4,278.2"/>
<path class="st2" d="M665,290.3h-52v-35.3h52V290.3z M668.4,253.6c0-1.1-0.9-2-2-2h-54.6c-1.1,0-2,0.9-2,2V294c0,1.1,0.9,2,2,2h54.6
	c1.1,0,2-0.9,2-2V253.6z"/>
<path class="st2" d="M675.9,295c0,1.2-0.9,2.4-2,2.4h-69.5c-1.1,0-2-1.2-2-2.4s0.9-2.4,2-2.4h69.5
	C674.9,292.7,675.9,293.9,675.9,295"/>
<path class="st2" d="M654.3,70.7c-6.6,0-11.9,5.3-11.9,11.9c0,2.8,1,5.5,2.8,7.7l9.4,11.2l9.4-11.2c1.8-2.1,2.8-4.9,2.8-7.7
	c0-6.6-5.3-11.9-11.9-11.9H654.3z M654.6,103.2c-0.2,0-0.4-0.1-0.5-0.2l-9.9-11.8c-2-2.4-3.1-5.4-3.1-8.5c0-7.3,5.9-13.2,13.2-13.2
	h0.6c7.3,0,13.2,5.9,13.2,13.2c0,3.1-1.1,6.1-3.1,8.5l-9.9,11.8C655,103.1,654.8,103.2,654.6,103.2"/>
<path class="st2" d="M654.6,75.9c-3.7,0-6.7,3-6.7,6.7c0,3.7,3,6.7,6.7,6.7s6.7-3,6.7-6.7C661.3,78.9,658.3,75.9,654.6,75.9
	 M654.6,90.6c-4.4,0-8-3.6-8-8c0-4.4,3.6-8,8-8c4.4,0,8,3.6,8,8C662.6,87,659,90.6,654.6,90.6"/>
<path class="st2" d="M654.6,106.7h16.2c0.2,0,0.4-0.1,0.6-0.3c0.1-0.2,0.1-0.4,0-0.6L666,95.5c-0.1-0.2-0.3-0.4-0.6-0.4h-4.6
	c-0.4,0-0.7,0.3-0.7,0.7c0,0.4,0.3,0.7,0.7,0.7h4.2l4.7,8.9h-30.3l4.7-8.9h4.3c0.4,0,0.7-0.3,0.7-0.7c0-0.4-0.3-0.7-0.7-0.7h-4.7
	c-0.2,0-0.5,0.1-0.6,0.4l-5.4,10.2c-0.1,0.2-0.1,0.4,0,0.6c0.1,0.2,0.3,0.3,0.6,0.3H654.6"/>
<path class="st2" d="M467.7,252.1c-0.7,0.4-1.2,0.1-1.2-0.7l0-5.8c0-0.8,0-2,0-2.8l0-5.8c0-0.8,0.5-1.1,1.2-0.7l8.7,7.2
	c0.7,0.4,0.7,1,0,1.4L467.7,252.1z"/>
<path class="st2" d="M496.6,256.8h-49.8v-25.1h49.8V256.8z M496.2,266.1h-34.7v2.1h-4.5v-2.1h-10.2v-3.9h10.2V260h4.5v2.1h34.7
	V266.1z M443.1,228.2v31.1v12.9H500v-11.8h0.1v-32.2H443.1z"/>
<path class="st2" d="M582.3,71.2h-22.4V38.7h22.4V71.2z M579.3,77.9c-1.3,0-2.4-1.1-2.4-2.4s1.1-2.4,2.4-2.4c1.3,0,2.4,1.1,2.4,2.4
	S580.6,77.9,579.3,77.9 M571.1,77.9c-1.3,0-2.4-1.1-2.4-2.4s1.1-2.4,2.4-2.4s2.4,1.1,2.4,2.4S572.4,77.9,571.1,77.9 M562.9,77.9
	c-1.3,0-2.4-1.1-2.4-2.4s1.1-2.4,2.4-2.4c1.3,0,2.4,1.1,2.4,2.4S564.2,77.9,562.9,77.9 M582,35.3h-1.6l-20.2,0
	c-0.8,0-1.5,0.7-1.5,1.6v40.7c0,0.5,0.2,0.9,0.4,1.2c0-0.1-0.1-0.1-0.1-0.2c0.3,0.5,0.7,0.8,1.3,0.8h2.1H582c0.8,0,1.5-0.8,1.5-1.7
	V37C583.4,36,582.8,35.3,582,35.3"/>
<path class="st14" d="M516.8,300.5c0,11.5,9.4,20.9,20.9,20.9c11.5,0,20.9-9.4,20.9-20.9c0-11.5-9.4-20.9-20.9-20.9
	C526.1,279.6,516.8,289,516.8,300.5"/>
<path class="st2" d="M545.2,309.7h-15V288h15V309.7z M545,285.7h-1l-13.5,0c-0.5,0-1,0.4-1,1.1V314c0,0.3,0.1,0.6,0.3,0.8
	c0,0,0-0.1-0.1-0.1c0.2,0.3,0.5,0.6,0.8,0.6h1.4H545c0.5,0,1-0.5,1-1.2v-27.2C546,286.3,545.5,285.7,545,285.7"/>
<path class="st14" d="M533.8,312.6c0,0.9-0.7,1.6-1.6,1.6c-0.9,0-1.6-0.7-1.6-1.6c0-0.9,0.7-1.6,1.6-1.6
	C533.1,311,533.8,311.7,533.8,312.6"/>
<path class="st14" d="M544.8,312.6c0,0.9-0.7,1.6-1.6,1.6c-0.9,0-1.6-0.7-1.6-1.6c0-0.9,0.7-1.6,1.6-1.6
	C544.1,311,544.8,311.7,544.8,312.6"/>
<path class="st14" d="M539.3,312.6c0,0.9-0.7,1.6-1.6,1.6c-0.9,0-1.6-0.7-1.6-1.6c0-0.9,0.7-1.6,1.6-1.6
	C538.6,311,539.3,311.7,539.3,312.6"/>
<path class="st2" d="M697.6,172.6h-0.8c-0.1,0-0.2,0.1-0.2,0.2v0.2c0,0.1,0.1,0.2,0.2,0.2h0v0v2.7c0,3.5-2.8,6.3-6.3,6.3h0
	c-3.5,0-6.3-2.8-6.3-6.3v-2.7v0c0.1,0,0.2-0.1,0.2-0.2v-0.2c0-0.1-0.1-0.2-0.2-0.2h-0.8c-0.1,0-0.2,0.1-0.2,0.2v0.2
	c0,0.1,0.1,0.2,0.2,0.2h0v2.8c0,3.5,2.5,6.4,5.9,6.9c0.2,0,0.3,0.1,0.4,0.3l0,0.1c0.1,0.1,0.1,0.2,0.1,0.3v1.1
	c0,0.2-0.1,0.5-0.4,0.6l-0.2,0.1c-0.2,0.1-0.5,0.2-0.7,0.2h-1.9c-0.5,0-0.9,0.4-0.9,0.9v0.1h9.5v-0.1c0-0.5-0.4-0.9-0.9-0.9h-1.9
	c-0.3,0-0.5-0.1-0.7-0.2l-0.2-0.1c-0.2-0.1-0.4-0.3-0.4-0.6v-1.1c0-0.1,0-0.2,0.1-0.3l0-0.1c0.1-0.2,0.3-0.3,0.4-0.3
	c3.3-0.5,5.9-3.4,5.9-6.9v-2.8c0.1,0,0.2-0.1,0.2-0.2v-0.2C697.8,172.7,697.7,172.6,697.6,172.6"/>
<path class="st2" d="M694.1,161.6c0-0.4,0.3-0.7,0.7-0.7h1.3c-0.1-3-2.6-5.5-5.6-5.5c-3.1,0-5.6,2.5-5.6,5.5h1.3
	c0.4,0,0.7,0.3,0.7,0.7c0,0.4-0.3,0.7-0.7,0.7h-1.3v1h1.3c0.4,0,0.7,0.3,0.7,0.7c0,0.4-0.3,0.7-0.7,0.7h-1.3v1h1.3
	c0.4,0,0.7,0.3,0.7,0.7s-0.3,0.7-0.7,0.7h-1.3v1h1.3c0.4,0,0.7,0.3,0.7,0.7c0,0.4-0.3,0.7-0.7,0.7h-1.3v1h1.3c0.4,0,0.7,0.3,0.7,0.7
	c0,0.4-0.3,0.7-0.7,0.7h-1.3v4.3c0,3.1,2.5,5.6,5.6,5.6c3.1,0,5.6-2.5,5.6-5.6v-4.3h-1.3c-0.4,0-0.7-0.3-0.7-0.7
	c0-0.4,0.3-0.7,0.7-0.7h1.3v-1h-1.3c-0.4,0-0.7-0.3-0.7-0.7c0-0.4,0.3-0.7,0.7-0.7h1.3v-1h-1.3c-0.4,0-0.7-0.3-0.7-0.7
	s0.3-0.7,0.7-0.7h1.3v-1h-1.3c-0.4,0-0.7-0.3-0.7-0.7c0-0.4,0.3-0.7,0.7-0.7h1.3v-1h-1.3C694.4,162.2,694.1,162,694.1,161.6"/>
<path class="st2" d="M684.8,160.9v0.1C684.8,161,684.8,161,684.8,160.9L684.8,160.9z"/>
<path class="st2" d="M696.1,160.9c0,0,0,0.1,0,0.1L696.1,160.9L696.1,160.9z"/>
<path class="st2" d="M671.9,173L671.9,173c-0.5,0-0.9-0.4-0.9-0.9V171c0-0.5,0.4-0.9,0.9-0.9c0.5,0,0.9,0.4,0.9,0.9v1.2
	C672.8,172.7,672.4,173,671.9,173"/>
<path class="st2" d="M674.9,176.4L674.9,176.4c-0.5,0-0.9-0.4-0.9-0.9v-8c0-0.5,0.4-0.9,0.9-0.9c0.5,0,0.9,0.4,0.9,0.9v8
	C675.7,176.1,675.3,176.4,674.9,176.4"/>
<path class="st2" d="M677.9,181.2L677.9,181.2c-0.5,0-0.9-0.4-0.9-0.9v-17.5c0-0.5,0.4-0.9,0.9-0.9c0.5,0,0.9,0.4,0.9,0.9v17.5
	C678.7,180.8,678.3,181.2,677.9,181.2"/>
<path class="st2" d="M680.9,179.2L680.9,179.2c-0.5,0-0.9-0.4-0.9-0.9v-13.6c0-0.5,0.4-0.9,0.9-0.9c0.5,0,0.9,0.4,0.9,0.9v13.6
	C681.7,178.9,681.3,179.2,680.9,179.2"/>
<path class="st2" d="M709.1,173L709.1,173c0.5,0,0.9-0.4,0.9-0.9V171c0-0.5-0.4-0.9-0.9-0.9c-0.5,0-0.9,0.4-0.9,0.9v1.2
	C708.2,172.7,708.6,173,709.1,173"/>
<path class="st2" d="M706.1,176.4L706.1,176.4c0.5,0,0.9-0.4,0.9-0.9v-8c0-0.5-0.4-0.9-0.9-0.9c-0.5,0-0.9,0.4-0.9,0.9v8
	C705.3,176.1,705.7,176.4,706.1,176.4"/>
<path class="st2" d="M703.1,181.2L703.1,181.2c0.5,0,0.9-0.4,0.9-0.9v-17.5c0-0.5-0.4-0.9-0.9-0.9c-0.5,0-0.9,0.4-0.9,0.9v17.5
	C702.3,180.8,702.7,181.2,703.1,181.2"/>
<path class="st2" d="M700.1,179.2L700.1,179.2c0.5,0,0.9-0.4,0.9-0.9v-13.6c0-0.5-0.4-0.9-0.9-0.9c-0.5,0-0.9,0.4-0.9,0.9v13.6
	C699.2,178.9,699.6,179.2,700.1,179.2"/>
<path class="st15" d="M530.9,115.7c0,0,4.8,0.4,5-6.6c0.2-7-6.4-8.3-7.7-9.4c-1.9-1.6-2.2-4.6-3.7-4.6c-0.8,0-1.5,0.7-1.5,1.5v18.9
	c-1.2-0.3-2.6-0.2-4,0.4c-3,1.2-4.8,4.1-4.1,6.5c0.8,2.3,3.8,3.2,6.8,2c2.2-0.9,4-2.6,4.2-5.8v-13.5c0,0,3.6-1.2,5.7,3.3
	C533.7,113,529.6,115.6,530.9,115.7"/>
<g>
	<defs>
		<rect id="SVGID_1_" x="398.5" y="13" width="344" height="344"/>
	</defs>
	<clipPath id="SVGID_2_">
		<use xlink:href="#SVGID_1_"  style="overflow:visible;"/>
	</clipPath>
	<path class="st16" d="M741.5,185c0,94.4-76.6,171-171,171c-94.4,0-171-76.6-171-171c0-94.4,76.6-171,171-171
		C665,14,741.5,90.6,741.5,185L741.5,185z"/>
</g>
</svg>
