<?xml version="1.0" encoding="utf-8"?>
<!-- Generator: Adobe Illustrator 24.2.3, SVG Export Plug-In . SVG Version: 6.00 Build 0)  -->
<svg version="1.1" id="Layer_1" xmlns="http://www.w3.org/2000/svg" xmlns:xlink="http://www.w3.org/1999/xlink" x="0px" y="0px"
	 viewBox="0 0 1150 370" style="enable-background:new 0 0 1150 370;" xml:space="preserve">
<style type="text/css">
	.st0{fill:#004D71;}
	.st1{fill:none;stroke:#5B6670;}
	.st2{fill:#FFFFFF;}
	.st3{fill:#455057;}
	.st4{fill:#CCC4C2;}
	.st5{fill:#EF5224;}
	.st6{fill:none;stroke:#E7E5E3;stroke-width:1.902;stroke-miterlimit:10;}
	.st7{fill:none;stroke:#CCC4C2;stroke-width:1.425;stroke-miterlimit:10;}
	.st8{fill:#A6A8AB;}
	.st9{fill:#A39E9D;}
	.st10{fill:#5B6670;}
	.st11{fill:none;stroke:#5B6670;stroke-width:0.678;stroke-miterlimit:10;}
	.st12{fill:none;stroke:#FF5C35;stroke-width:2.536;stroke-linecap:round;stroke-miterlimit:10;}
	.st13{fill-rule:evenodd;clip-rule:evenodd;fill:#41576E;}
	.st14{fill-rule:evenodd;clip-rule:evenodd;fill:#808080;}
	.st15{fill-rule:evenodd;clip-rule:evenodd;fill:#E7E5E4;}
	.st16{fill-rule:evenodd;clip-rule:evenodd;fill:#CDC5C3;}
	.st17{fill-rule:evenodd;clip-rule:evenodd;fill:#455057;}
	.st18{fill-rule:evenodd;clip-rule:evenodd;fill:#5B6670;}
	.st19{fill-rule:evenodd;clip-rule:evenodd;fill:#F5F6F8;}
	.st20{fill:none;stroke:#FFFFFF;stroke-width:1.195;stroke-linecap:round;stroke-miterlimit:10;}
	.st21{clip-path:url(#SVGID_2_);fill:none;stroke:#5B6670;stroke-width:1.195;stroke-linecap:round;stroke-miterlimit:10;}
	.st22{clip-path:url(#SVGID_2_);fill:none;stroke:#F05325;stroke-width:2;stroke-miterlimit:10;}
</style>
<g>
	<path class="st0" d="M830.7,62.9h6c2.9,0,5,2,5,5.1s-2,5.1-5,5.1h-3.2v5.4h-2.8V62.9z M836.2,70.6c1.6,0,2.6-1.1,2.6-2.7
		c0-1.6-1-2.6-2.6-2.6h-2.7v5.3H836.2z"/>
	<path class="st0" d="M844.2,62.9h2.8v13.2h6.8v2.4h-9.6V62.9z"/>
</g>
<g>
	<path class="st0" d="M864.3,74.5h-5.5l-1.3,4h-2.9l5.5-15.6h3l5.5,15.6h-2.9L864.3,74.5z M861.6,65.6c0,0-0.4,1.5-0.7,2.4l-1.4,4.2
		h4.1l-1.4-4.2C861.9,67.1,861.6,65.6,861.6,65.6L861.6,65.6z"/>
	<path class="st0" d="M877.5,62.6c3.8,0,5.8,2.1,5.8,2.1l-1.4,2.1c0,0-1.8-1.7-4.3-1.7c-3.3,0-5.2,2.5-5.2,5.4c0,3,2,5.6,5.3,5.6
		c2.7,0,4.5-2,4.5-2l1.5,2c0,0-2.2,2.5-6.1,2.5c-4.8,0-8.1-3.5-8.1-8.1C869.5,66.1,872.9,62.6,877.5,62.6z"/>
	<path class="st0" d="M886.3,62.9h9.4v2.4h-6.5v4.1h5.3v2.4h-5.3v4.2h6.9v2.4h-9.7V62.9z"/>
	<path class="st0" d="M899.8,62.9h3l3.1,7.7c0.4,0.9,0.8,2.3,0.8,2.3h0c0,0,0.4-1.4,0.8-2.3l3.1-7.7h3l1.3,15.6H912l-0.7-8.7
		c-0.1-1,0-2.4,0-2.4h0c0,0-0.5,1.5-0.8,2.4l-2.5,6.1h-2.5l-2.5-6.1c-0.4-0.9-0.9-2.4-0.9-2.4h0c0,0,0,1.4,0,2.4l-0.7,8.7h-2.8
		L899.8,62.9z"/>
	<path class="st0" d="M918.3,62.9h9.4v2.4h-6.5v4.1h5.3v2.4h-5.3v4.2h6.9v2.4h-9.7V62.9z"/>
	<path class="st0" d="M930.9,62.9h2.8l5.9,9c0.6,0.9,1.3,2.4,1.3,2.4h0c0,0-0.2-1.5-0.2-2.4v-9h2.8v15.6h-2.8l-5.9-9
		c-0.6-0.9-1.3-2.4-1.3-2.4h0c0,0,0.2,1.5,0.2,2.4v9h-2.8V62.9z"/>
	<path class="st0" d="M950.9,65.3h-5.1v-2.4h13.1v2.4h-5.1v13.2h-2.8V65.3z"/>
	<path class="st0" d="M966.3,62.9h5c1.7,0,2.5,0.1,3.1,0.4c1.6,0.7,2.6,2.2,2.6,4.3c0,1.9-1,3.6-2.6,4.3v0c0,0,0.2,0.2,0.5,0.8
		l3.2,5.8h-3.2l-3.1-5.8h-2.7v5.8h-2.8V62.9z M971.7,70.2c1.5,0,2.5-0.9,2.5-2.5c0-1.5-0.6-2.4-2.9-2.4h-2.2v4.9H971.7z"/>
	<path class="st0" d="M980.7,62.9h9.4v2.4h-6.5v4.1h5.3v2.4h-5.3v4.2h6.9v2.4h-9.7V62.9z"/>
	<path class="st0" d="M1000.3,62.6c3.8,0,5.8,2.1,5.8,2.1l-1.4,2.1c0,0-1.8-1.7-4.3-1.7c-3.3,0-5.2,2.5-5.2,5.4c0,3,2,5.6,5.3,5.6
		c2.7,0,4.5-2,4.5-2l1.5,2c0,0-2.2,2.5-6.1,2.5c-4.8,0-8.1-3.5-8.1-8.1C992.3,66.1,995.7,62.6,1000.3,62.6z"/>
	<path class="st0" d="M1016.1,62.6c4.6,0,8.1,3.5,8.1,8c0,4.6-3.5,8.2-8.1,8.2s-8.1-3.6-8.1-8.2
		C1008.1,66.1,1011.5,62.6,1016.1,62.6z M1016.1,76.2c2.9,0,5.1-2.4,5.1-5.6c0-3.1-2.3-5.4-5.1-5.4s-5.1,2.3-5.1,5.4
		C1011,73.8,1013.3,76.2,1016.1,76.2z"/>
	<path class="st0" d="M1034.1,62.6c3.8,0,5.8,2,5.8,2l-1.4,2.1c0,0-1.7-1.5-4.2-1.5c-3.5,0-5.4,2.4-5.4,5.4c0,3.4,2.3,5.6,5.2,5.6
		c2.4,0,3.9-1.6,3.9-1.6v-1.8h-2.4v-2.4h5v8.2h-2.4v-0.7c0-0.3,0-0.7,0-0.7h0c0,0-1.6,1.7-4.5,1.7c-4.1,0-7.7-3.2-7.7-8.1
		C1026,66.1,1029.4,62.6,1034.1,62.6z"/>
	<path class="st0" d="M1043.8,62.9h2.8l5.9,9c0.6,0.9,1.3,2.4,1.3,2.4h0c0,0-0.2-1.5-0.2-2.4v-9h2.8v15.6h-2.8l-5.9-9
		c-0.6-0.9-1.3-2.4-1.3-2.4h0c0,0,0.2,1.5,0.2,2.4v9h-2.8V62.9z"/>
	<path class="st0" d="M1060.5,62.9h2.8v15.6h-2.8V62.9z"/>
	<path class="st0" d="M1070.6,65.3h-5.1v-2.4h13.1v2.4h-5.1v13.2h-2.8V65.3z"/>
	<path class="st0" d="M1080.6,62.9h2.8v15.6h-2.8V62.9z"/>
	<path class="st0" d="M1094.4,62.6c4.6,0,8.1,3.5,8.1,8c0,4.6-3.5,8.2-8.1,8.2s-8.1-3.6-8.1-8.2
		C1086.3,66.1,1089.8,62.6,1094.4,62.6z M1094.4,76.2c2.9,0,5.1-2.4,5.1-5.6c0-3.1-2.3-5.4-5.1-5.4s-5.1,2.3-5.1,5.4
		C1089.2,73.8,1091.5,76.2,1094.4,76.2z"/>
	<path class="st0" d="M1105.3,62.9h2.8l5.9,9c0.6,0.9,1.3,2.4,1.3,2.4h0c0,0-0.2-1.5-0.2-2.4v-9h2.8v15.6h-2.8l-5.9-9
		c-0.6-0.9-1.3-2.4-1.3-2.4h0c0,0,0.2,1.5,0.2,2.4v9h-2.8V62.9z"/>
</g>
<g>
	<path d="M837,102.7c0,0-0.2,1.1-0.4,1.9l-2.4,8.9h-1.5l-3.3-12.7h1.3l2.4,9.8c0.2,0.6,0.3,1.4,0.3,1.4h0c0,0,0.1-0.7,0.3-1.4
		l2.7-9.8h1.2l2.7,9.8c0.2,0.6,0.3,1.4,0.3,1.4h0c0,0,0.1-0.7,0.3-1.4l2.5-9.8h1.3l-3.4,12.7h-1.5l-2.4-8.9
		C837.2,103.8,837,102.7,837,102.7L837,102.7z"/>
	<path d="M850.4,104.2c2.5,0,3.8,1.9,3.8,4.2c0,0.2,0,0.6,0,0.6h-7c0.1,2.3,1.6,3.6,3.5,3.6c1.7,0,2.8-1.1,2.8-1.1l0.6,0.9
		c0,0-1.3,1.3-3.3,1.3c-2.7,0-4.7-1.9-4.7-4.7C845.9,106,847.9,104.2,850.4,104.2z M852.9,108c-0.1-1.9-1.2-2.8-2.6-2.8
		c-1.5,0-2.8,1-3.1,2.8H852.9z"/>
</g>
<g>
	<path d="M861.7,105.6h-1.2v-1h1.2v-2.6h1.2v2.6h2.3v1h-2.3v4.5c0,2.1,1.4,2.4,2,2.4c0.3,0,0.4,0,0.4,0v1.1c0,0-0.2,0-0.5,0
		c-1,0-3.2-0.3-3.2-3.4V105.6z"/>
	<path d="M867.3,100.9h1.2v4.9c0,0.4,0,0.7,0,0.7h0c0.3-0.9,1.5-2.3,3.6-2.3c2.2,0,3,1.3,3,3.5v5.8H874v-5.4c0-1.4-0.2-2.7-2-2.7
		c-1.5,0-2.9,1.1-3.3,2.6c-0.1,0.4-0.1,0.8-0.1,1.2v4.3h-1.2V100.9z"/>
	<path d="M881.9,104.2c2.5,0,3.8,1.9,3.8,4.2c0,0.2,0,0.6,0,0.6h-7c0.1,2.3,1.6,3.6,3.5,3.6c1.7,0,2.8-1.1,2.8-1.1l0.6,0.9
		c0,0-1.3,1.3-3.3,1.3c-2.7,0-4.7-1.9-4.7-4.7C877.4,106,879.4,104.2,881.9,104.2z M884.4,108c-0.1-1.9-1.2-2.8-2.6-2.8
		c-1.5,0-2.8,1-3.1,2.8H884.4z"/>
	<path d="M888,104.5h1.2v1.4c0,0.4,0,0.7,0,0.7h0c0.3-0.8,1.5-2.3,3.6-2.3c2.2,0,3,1.3,3,3.5v5.8h-1.2v-5.4c0-1.4-0.2-2.7-2-2.7
		c-1.5,0-2.9,1.1-3.3,2.6c-0.1,0.4-0.1,0.8-0.1,1.2v4.3H888V104.5z"/>
	<path d="M907,104.2c2.2,0,3,1.7,3,1.7h0c0,0,0-0.3,0-0.7v-4.4h1.2v12.7H910v-1c0-0.4,0-0.6,0-0.6h0c0,0-0.7,1.8-3.1,1.8
		c-2.4,0-3.9-1.9-3.9-4.8C902.9,106.1,904.6,104.2,907,104.2z M907,112.6c1.5,0,2.9-1.1,2.9-3.7c0-1.8-0.9-3.6-2.9-3.6
		c-1.6,0-2.9,1.4-2.9,3.6C904.2,111.2,905.3,112.6,907,112.6z"/>
	<path d="M917.9,104.2c2.5,0,3.8,1.9,3.8,4.2c0,0.2,0,0.6,0,0.6h-7c0.1,2.3,1.6,3.6,3.5,3.6c1.7,0,2.8-1.1,2.8-1.1l0.6,0.9
		c0,0-1.3,1.3-3.3,1.3c-2.7,0-4.7-1.9-4.7-4.7C913.5,106,915.5,104.2,917.9,104.2z M920.5,108c-0.1-1.9-1.2-2.8-2.6-2.8
		c-1.5,0-2.8,1-3.1,2.8H920.5z"/>
	<path d="M924,100.9h1.2v10.2c0,1.2,0.5,1.4,1,1.4c0.2,0,0.3,0,0.3,0v1.1c0,0-0.2,0-0.5,0c-0.8,0-2.1-0.2-2.1-2.2V100.9z"/>
	<path d="M928.5,100.9h1.3v1.5h-1.3V100.9z M928.5,104.5h1.2v9.1h-1.2V104.5z"/>
	<path d="M931.4,104.5h1.3l2.5,6.6c0.2,0.5,0.3,1.1,0.3,1.1h0c0,0,0.1-0.6,0.3-1.1l2.5-6.6h1.3l-3.5,9.1h-1.3L931.4,104.5z"/>
	<path d="M945.2,104.2c2.5,0,3.8,1.9,3.8,4.2c0,0.2,0,0.6,0,0.6h-7c0.1,2.3,1.6,3.6,3.5,3.6c1.7,0,2.8-1.1,2.8-1.1l0.6,0.9
		c0,0-1.3,1.3-3.3,1.3c-2.7,0-4.7-1.9-4.7-4.7C940.8,106,942.8,104.2,945.2,104.2z M947.8,108c-0.1-1.9-1.2-2.8-2.6-2.8
		c-1.5,0-2.8,1-3.1,2.8H947.8z"/>
	<path d="M951.4,104.5h1.2v1.6c0,0.4,0,0.7,0,0.7h0c0.4-1.4,1.4-2.4,2.9-2.4c0.3,0,0.5,0.1,0.5,0.1v1.2c0,0-0.2,0-0.5,0
		c-1.3,0-2.2,1-2.6,2.3c-0.2,0.6-0.3,1.2-0.3,1.8v3.8h-1.2V104.5z"/>
	<path d="M961.7,115.8c0,0,0.5,0.4,1.1,0.4c0.8,0,1.3-0.6,1.7-1.5l0.6-1.3l-3.8-9h1.4l2.7,6.6c0.2,0.5,0.3,1,0.3,1h0
		c0,0,0.1-0.5,0.3-1l2.6-6.6h1.3l-4.5,10.9c-0.5,1.2-1.4,1.9-2.6,1.9c-0.9,0-1.6-0.5-1.6-0.5L961.7,115.8z"/>
	<path d="M975.7,104.2c2.6,0,4.8,2,4.8,4.7c0,2.7-2.1,4.8-4.8,4.8s-4.8-2.1-4.8-4.8C970.9,106.3,973.1,104.2,975.7,104.2z
		 M975.7,112.6c1.9,0,3.5-1.6,3.5-3.7c0-2.1-1.6-3.6-3.5-3.6s-3.5,1.5-3.5,3.6C972.2,111,973.8,112.6,975.7,112.6z"/>
	<path d="M982.7,104.5h1.2v5.4c0,1.4,0.2,2.7,2,2.7c2.1,0,3.3-1.8,3.3-3.8v-4.3h1.2v9.1h-1.2v-1.4c0-0.4,0-0.7,0-0.7h0
		c-0.4,0.9-1.5,2.3-3.5,2.3c-2.1,0-3-1.2-3-3.5V104.5z"/>
	<path d="M993.4,104.5h1.2v1.6c0,0.4,0,0.7,0,0.7h0c0.4-1.4,1.4-2.4,2.9-2.4c0.3,0,0.5,0.1,0.5,0.1v1.2c0,0-0.2,0-0.5,0
		c-1.3,0-2.2,1-2.6,2.3c-0.2,0.6-0.3,1.2-0.3,1.8v3.8h-1.2V104.5z"/>
	<path d="M1009.4,107.9h0.5v-0.2c0-1.7-1-2.3-2.3-2.3c-1.5,0-2.6,0.9-2.6,0.9l-0.6-0.9c0,0,1.2-1,3.2-1c2.2,0,3.4,1.2,3.4,3.5v5.8
		h-1.2v-1c0-0.5,0-0.8,0-0.8h0c0,0-0.8,2-3,2c-1.5,0-3.1-0.9-3.1-2.7C1003.9,108,1007.9,107.9,1009.4,107.9z M1007.2,112.7
		c1.7,0,2.8-1.8,2.8-3.4v-0.4h-0.5c-1.4,0-4.3,0.1-4.3,2.1C1005.1,111.8,1005.8,112.7,1007.2,112.7z"/>
	<path d="M1017.4,104.2c2.2,0,3,1.7,3,1.7h0c0,0,0-0.3,0-0.7v-4.4h1.2v12.7h-1.2v-1c0-0.4,0-0.6,0-0.6h0c0,0-0.7,1.8-3.1,1.8
		c-2.4,0-3.9-1.9-3.9-4.8C1013.4,106.1,1015.1,104.2,1017.4,104.2z M1017.5,112.6c1.5,0,2.9-1.1,2.9-3.7c0-1.8-0.9-3.6-2.9-3.6
		c-1.6,0-2.9,1.4-2.9,3.6C1014.6,111.2,1015.8,112.6,1017.5,112.6z"/>
	<path d="M1029.8,105.6h-1.2v-1h1.2v-2.6h1.2v2.6h2.3v1h-2.3v4.5c0,2.1,1.4,2.4,2,2.4c0.3,0,0.4,0,0.4,0v1.1c0,0-0.2,0-0.5,0
		c-1,0-3.2-0.3-3.2-3.4V105.6z"/>
	<path d="M1039.6,104.2c2.6,0,4.8,2,4.8,4.7c0,2.7-2.1,4.8-4.8,4.8s-4.8-2.1-4.8-4.8C1034.8,106.3,1036.9,104.2,1039.6,104.2z
		 M1039.6,112.6c1.9,0,3.5-1.6,3.5-3.7c0-2.1-1.6-3.6-3.5-3.6s-3.5,1.5-3.5,3.6C1036,111,1037.6,112.6,1039.6,112.6z"/>
	<path d="M1056.3,107.9h0.5v-0.2c0-1.7-1-2.3-2.3-2.3c-1.5,0-2.6,0.9-2.6,0.9l-0.6-0.9c0,0,1.2-1,3.2-1c2.2,0,3.4,1.2,3.4,3.5v5.8
		h-1.2v-1c0-0.5,0-0.8,0-0.8h0c0,0-0.8,2-3,2c-1.5,0-3.1-0.9-3.1-2.7C1050.7,108,1054.7,107.9,1056.3,107.9z M1054,112.7
		c1.7,0,2.8-1.8,2.8-3.4v-0.4h-0.5c-1.4,0-4.3,0.1-4.3,2.1C1052,111.8,1052.7,112.7,1054,112.7z"/>
	<path d="M1060.8,100.9h1.2v10.2c0,1.2,0.5,1.4,1,1.4c0.2,0,0.3,0,0.3,0v1.1c0,0-0.2,0-0.5,0c-0.8,0-2.1-0.2-2.1-2.2V100.9z"/>
	<path d="M1065.2,100.9h1.2v10.2c0,1.2,0.5,1.4,1,1.4c0.2,0,0.3,0,0.3,0v1.1c0,0-0.2,0-0.5,0c-0.8,0-2.1-0.2-2.1-2.2V100.9z"/>
</g>
<g>
	<path d="M830.2,134.5h1.2v1.4c0,0.4,0,0.7,0,0.7h0c0.3-0.8,1.5-2.3,3.6-2.3c2.2,0,3,1.3,3,3.5v5.8h-1.2v-5.4c0-1.4-0.2-2.7-2-2.7
		c-1.5,0-2.9,1.1-3.3,2.6c-0.1,0.4-0.1,0.8-0.1,1.2v4.3h-1.2V134.5z"/>
	<path d="M844.7,134.2c2.5,0,3.8,1.9,3.8,4.2c0,0.2,0,0.6,0,0.6h-7c0.1,2.3,1.6,3.6,3.5,3.6c1.7,0,2.8-1.1,2.8-1.1l0.6,0.9
		c0,0-1.3,1.3-3.3,1.3c-2.7,0-4.7-1.9-4.7-4.7C840.2,136,842.2,134.2,844.7,134.2z M847.2,138c-0.1-1.9-1.2-2.8-2.6-2.8
		c-1.5,0-2.8,1-3.1,2.8H847.2z"/>
	<path d="M851.1,135.6H850v-1h1.2v-2.6h1.2v2.6h2.3v1h-2.3v4.5c0,2.1,1.4,2.4,2,2.4c0.3,0,0.4,0,0.4,0v1.1c0,0-0.2,0-0.5,0
		c-1,0-3.2-0.3-3.2-3.4V135.6z"/>
	<path d="M855.7,134.5h1.3l2.2,6.8c0.1,0.4,0.3,1,0.3,1h0c0,0,0.1-0.5,0.3-1l2.2-6.7h1.2l2.2,6.7c0.1,0.4,0.3,1,0.3,1h0
		c0,0,0.1-0.5,0.3-1l2.2-6.8h1.3l-3.1,9.1h-1.3l-2.2-6.4c-0.2-0.5-0.3-1-0.3-1h0c0,0-0.1,0.5-0.3,1l-2.2,6.4h-1.3L855.7,134.5z"/>
	<path d="M875.4,134.2c2.6,0,4.8,2,4.8,4.7c0,2.7-2.1,4.8-4.8,4.8s-4.8-2.1-4.8-4.8C870.6,136.3,872.7,134.2,875.4,134.2z
		 M875.4,142.6c1.9,0,3.5-1.6,3.5-3.7c0-2.1-1.6-3.6-3.5-3.6s-3.5,1.5-3.5,3.6C871.8,141,873.4,142.6,875.4,142.6z"/>
	<path d="M882.5,134.5h1.2v1.6c0,0.4,0,0.7,0,0.7h0c0.4-1.4,1.4-2.4,2.9-2.4c0.3,0,0.5,0.1,0.5,0.1v1.2c0,0-0.2,0-0.5,0
		c-1.3,0-2.2,1-2.6,2.3c-0.2,0.6-0.3,1.2-0.3,1.8v3.8h-1.2V134.5z"/>
	<path d="M888.9,130.9h1.2v7.1h1.4l2.7-3.5h1.5l-3.2,3.9v0l3.5,5.1h-1.5l-3-4.5h-1.5v4.5h-1.2V130.9z"/>
	<path d="M897.8,141.5c0,0,1,1.1,2.7,1.1c1,0,1.8-0.5,1.8-1.4c0-2-4.9-1.5-4.9-4.4c0-1.6,1.5-2.5,3.1-2.5c1.9,0,2.8,1,2.8,1
		l-0.6,0.9c0,0-0.8-0.8-2.3-0.8c-0.9,0-1.8,0.4-1.8,1.4c0,2,4.9,1.5,4.9,4.4c0,1.5-1.3,2.5-3.1,2.5c-2.2,0-3.3-1.3-3.3-1.3
		L897.8,141.5z"/>
	<path d="M906.1,142h1.3l-1.3,3.2h-1L906.1,142z"/>
	<path d="M915.1,134.5h1.2v0.9c0,0.4,0,0.7,0,0.7h0c0,0,0.7-1.8,3.1-1.8c2.4,0,3.9,1.9,3.9,4.8c0,2.9-1.7,4.7-4.1,4.7
		c-2.2,0-3-1.7-3-1.7h0c0,0,0,0.3,0,0.8v4.3h-1.2V134.5z M919.2,142.6c1.6,0,2.9-1.4,2.9-3.7c0-2.2-1.2-3.6-2.9-3.6
		c-1.5,0-2.9,1.1-2.9,3.7C916.3,140.8,917.3,142.6,919.2,142.6z"/>
	<path d="M925.7,134.5h1.2v1.6c0,0.4,0,0.7,0,0.7h0c0.4-1.4,1.4-2.4,2.9-2.4c0.3,0,0.5,0.1,0.5,0.1v1.2c0,0-0.2,0-0.5,0
		c-1.3,0-2.2,1-2.6,2.3c-0.2,0.6-0.3,1.2-0.3,1.8v3.8h-1.2V134.5z"/>
	<path d="M936.2,134.2c2.6,0,4.8,2,4.8,4.7c0,2.7-2.1,4.8-4.8,4.8s-4.8-2.1-4.8-4.8C931.4,136.3,933.6,134.2,936.2,134.2z
		 M936.2,142.6c1.9,0,3.5-1.6,3.5-3.7c0-2.1-1.6-3.6-3.5-3.6s-3.5,1.5-3.5,3.6C932.7,141,934.3,142.6,936.2,142.6z"/>
	<path d="M946.8,134.2c2.2,0,3,1.7,3,1.7h0c0,0,0-0.3,0-0.7v-4.4h1.2v12.7h-1.2v-1c0-0.4,0-0.6,0-0.6h0c0,0-0.7,1.8-3.1,1.8
		c-2.4,0-3.9-1.9-3.9-4.8C942.7,136.1,944.4,134.2,946.8,134.2z M946.8,142.6c1.5,0,2.9-1.1,2.9-3.7c0-1.8-0.9-3.6-2.9-3.6
		c-1.6,0-2.9,1.4-2.9,3.6C944,141.2,945.1,142.6,946.8,142.6z"/>
	<path d="M953.8,134.5h1.2v5.4c0,1.4,0.2,2.7,2,2.7c2.1,0,3.3-1.8,3.3-3.8v-4.3h1.2v9.1h-1.2v-1.4c0-0.4,0-0.7,0-0.7h0
		c-0.4,0.9-1.5,2.3-3.5,2.3c-2.1,0-3-1.2-3-3.5V134.5z"/>
	<path d="M968.6,134.2c2.2,0,3.3,1.3,3.3,1.3l-0.6,0.9c0,0-1-1.1-2.6-1.1c-2,0-3.5,1.5-3.5,3.6c0,2.1,1.6,3.6,3.6,3.6
		c1.8,0,2.9-1.3,2.9-1.3l0.6,1c0,0-1.2,1.4-3.5,1.4c-2.7,0-4.8-1.9-4.8-4.7C963.9,136.2,966,134.2,968.6,134.2z"/>
	<path d="M974.3,130.9h1.3v1.5h-1.3V130.9z M974.4,134.5h1.2v9.1h-1.2V134.5z"/>
	<path d="M978.6,134.5h1.2v1.4c0,0.4,0,0.7,0,0.7h0c0.3-0.8,1.5-2.3,3.6-2.3c2.2,0,3,1.3,3,3.5v5.8h-1.2v-5.4c0-1.4-0.2-2.7-2-2.7
		c-1.5,0-2.9,1.1-3.3,2.6c-0.1,0.4-0.1,0.8-0.1,1.2v4.3h-1.2V134.5z"/>
	<path d="M992.4,146.2c1.8,0,3.2-0.8,3.2-2.8v-0.8c0-0.3,0-0.6,0-0.6h0c-0.5,1-1.5,1.6-2.9,1.6c-2.4,0-4-1.9-4-4.6s1.5-4.6,3.9-4.6
		c2.4,0,3,1.5,3,1.5h0c0,0,0-0.1,0-0.3v-1h1.2v8.8c0,2.9-2.1,4-4.3,4c-1,0-2.1-0.3-3-0.7l0.5-1C989.9,145.6,991,146.2,992.4,146.2z
		 M995.5,138.8c0-2.6-1.3-3.5-2.9-3.5c-1.8,0-2.8,1.3-2.8,3.4s1.2,3.6,3,3.6C994.3,142.4,995.5,141.5,995.5,138.8z"/>
	<path d="M1009.4,137.9h0.5v-0.2c0-1.7-1-2.3-2.3-2.3c-1.5,0-2.6,0.9-2.6,0.9l-0.6-0.9c0,0,1.2-1,3.2-1c2.2,0,3.4,1.2,3.4,3.5v5.8
		h-1.2v-1c0-0.5,0-0.8,0-0.8h0c0,0-0.8,2-3,2c-1.5,0-3.1-0.9-3.1-2.7C1003.8,138,1007.8,137.9,1009.4,137.9z M1007.1,142.7
		c1.7,0,2.8-1.8,2.8-3.4v-0.4h-0.5c-1.4,0-4.3,0.1-4.3,2.1C1005.1,141.8,1005.7,142.7,1007.1,142.7z"/>
	<path d="M1018.7,130.9h1.2v10.2c0,1.2,0.5,1.4,1,1.4c0.2,0,0.3,0,0.3,0v1.1c0,0-0.2,0-0.5,0c-0.8,0-2.1-0.2-2.1-2.2V130.9z"/>
	<path d="M1028,137.9h0.5v-0.2c0-1.7-1-2.3-2.3-2.3c-1.5,0-2.6,0.9-2.6,0.9l-0.6-0.9c0,0,1.2-1,3.2-1c2.2,0,3.4,1.2,3.4,3.5v5.8
		h-1.2v-1c0-0.5,0-0.8,0-0.8h0c0,0-0.8,2-3,2c-1.5,0-3.1-0.9-3.1-2.7C1022.5,138,1026.4,137.9,1028,137.9z M1025.7,142.7
		c1.7,0,2.8-1.8,2.8-3.4v-0.4h-0.5c-1.4,0-4.3,0.1-4.3,2.1C1023.7,141.8,1024.4,142.7,1025.7,142.7z"/>
	<path d="M1032.6,134.5h1.2v1.6c0,0.4,0,0.7,0,0.7h0c0.4-1.4,1.4-2.4,2.9-2.4c0.3,0,0.5,0.1,0.5,0.1v1.2c0,0-0.2,0-0.5,0
		c-1.3,0-2.2,1-2.6,2.3c-0.2,0.6-0.3,1.2-0.3,1.8v3.8h-1.2V134.5z"/>
	<path d="M1042.1,146.2c1.8,0,3.2-0.8,3.2-2.8v-0.8c0-0.3,0-0.6,0-0.6h0c-0.5,1-1.5,1.6-2.9,1.6c-2.4,0-4-1.9-4-4.6s1.5-4.6,3.9-4.6
		c2.4,0,3,1.5,3,1.5h0c0,0,0-0.1,0-0.3v-1h1.2v8.8c0,2.9-2.1,4-4.3,4c-1,0-2.1-0.3-3-0.7l0.5-1
		C1039.6,145.6,1040.8,146.2,1042.1,146.2z M1045.3,138.8c0-2.6-1.3-3.5-2.9-3.5c-1.8,0-2.8,1.3-2.8,3.4s1.2,3.6,3,3.6
		C1044,142.4,1045.3,141.5,1045.3,138.8z"/>
	<path d="M1053.3,134.2c2.5,0,3.8,1.9,3.8,4.2c0,0.2,0,0.6,0,0.6h-7c0.1,2.3,1.6,3.6,3.5,3.6c1.7,0,2.8-1.1,2.8-1.1l0.6,0.9
		c0,0-1.3,1.3-3.3,1.3c-2.7,0-4.7-1.9-4.7-4.7C1048.8,136,1050.8,134.2,1053.3,134.2z M1055.8,138c-0.1-1.9-1.2-2.8-2.6-2.8
		c-1.5,0-2.8,1-3.1,2.8H1055.8z"/>
	<path d="M1069,137.9h0.5v-0.2c0-1.7-1-2.3-2.3-2.3c-1.5,0-2.6,0.9-2.6,0.9l-0.6-0.9c0,0,1.2-1,3.2-1c2.2,0,3.4,1.2,3.4,3.5v5.8
		h-1.2v-1c0-0.5,0-0.8,0-0.8h0c0,0-0.8,2-3,2c-1.5,0-3.1-0.9-3.1-2.7C1063.5,138,1067.5,137.9,1069,137.9z M1066.8,142.7
		c1.7,0,2.8-1.8,2.8-3.4v-0.4h-0.5c-1.4,0-4.3,0.1-4.3,2.1C1064.8,141.8,1065.4,142.7,1066.8,142.7z"/>
	<path d="M1073.6,134.5h1.2v1.4c0,0.4,0,0.7,0,0.7h0c0.4-1.2,1.9-2.3,3.3-2.3c1.7,0,2.5,0.8,2.8,2.3h0c0.5-1.2,1.8-2.3,3.3-2.3
		c2.2,0,3,1.3,3,3.5v5.8h-1.2v-5.5c0-1.5-0.3-2.7-2-2.7c-1.4,0-2.5,1.2-2.9,2.6c-0.1,0.4-0.2,0.8-0.2,1.3v4.3h-1.2v-5.5
		c0-1.4-0.2-2.7-1.9-2.7c-1.5,0-2.6,1.3-3,2.7c-0.1,0.4-0.1,0.8-0.1,1.2v4.3h-1.2V134.5z"/>
	<path d="M1094.2,134.2c2.6,0,4.8,2,4.8,4.7c0,2.7-2.1,4.8-4.8,4.8s-4.8-2.1-4.8-4.8C1089.4,136.3,1091.6,134.2,1094.2,134.2z
		 M1094.2,142.6c1.9,0,3.5-1.6,3.5-3.7c0-2.1-1.6-3.6-3.5-3.6s-3.5,1.5-3.5,3.6C1090.7,141,1092.3,142.6,1094.2,142.6z"/>
	<path d="M1101.1,134.5h1.2v5.4c0,1.4,0.2,2.7,2,2.7c2.1,0,3.3-1.8,3.3-3.8v-4.3h1.2v9.1h-1.2v-1.4c0-0.4,0-0.7,0-0.7h0
		c-0.4,0.9-1.5,2.3-3.5,2.3c-2.1,0-3-1.2-3-3.5V134.5z"/>
	<path d="M1111.9,134.5h1.2v1.4c0,0.4,0,0.7,0,0.7h0c0.3-0.8,1.5-2.3,3.6-2.3c2.2,0,3,1.3,3,3.5v5.8h-1.2v-5.4c0-1.4-0.2-2.7-2-2.7
		c-1.5,0-2.9,1.1-3.3,2.6c-0.1,0.4-0.1,0.8-0.1,1.2v4.3h-1.2V134.5z"/>
	<path d="M1122.9,135.6h-1.2v-1h1.2v-2.6h1.2v2.6h2.3v1h-2.3v4.5c0,2.1,1.4,2.4,2,2.4c0.3,0,0.4,0,0.4,0v1.1c0,0-0.2,0-0.5,0
		c-1,0-3.2-0.3-3.2-3.4V135.6z"/>
</g>
<g>
	<path d="M834.3,164.2c2.6,0,4.8,2,4.8,4.7c0,2.7-2.1,4.8-4.8,4.8s-4.8-2.1-4.8-4.8C829.5,166.3,831.7,164.2,834.3,164.2z
		 M834.3,172.6c1.9,0,3.5-1.6,3.5-3.7c0-2.1-1.6-3.6-3.5-3.6s-3.5,1.5-3.5,3.6C830.8,171,832.4,172.6,834.3,172.6z"/>
	<path d="M841.8,165.6h-1.1v-1h1.1v-0.4c0-3,2.1-3.4,3.1-3.4c0.3,0,0.6,0,0.6,0v1.1c0,0-0.2,0-0.4,0c-0.7,0-2,0.3-2,2.3v0.4h2.3v1
		H843v7.9h-1.2V165.6z"/>
	<path d="M852,160.9h1.2v4.9c0,0.4,0,0.7,0,0.7h0c0.3-0.9,1.5-2.3,3.6-2.3c2.2,0,3,1.3,3,3.5v5.8h-1.2v-5.4c0-1.4-0.2-2.7-2-2.7
		c-1.5,0-2.9,1.1-3.3,2.6c-0.1,0.4-0.1,0.8-0.1,1.2v4.3H852V160.9z"/>
	<path d="M862.6,160.9h1.3v1.5h-1.3V160.9z M862.7,164.5h1.2v9.1h-1.2V164.5z"/>
	<path d="M870,176.2c1.8,0,3.2-0.8,3.2-2.8v-0.8c0-0.3,0-0.6,0-0.6h0c-0.5,1-1.5,1.6-2.9,1.6c-2.4,0-4-1.9-4-4.6s1.5-4.6,3.9-4.6
		c2.4,0,3,1.5,3,1.5h0c0,0,0-0.1,0-0.3v-1h1.2v8.8c0,2.9-2.1,4-4.3,4c-1,0-2.1-0.3-3-0.7l0.5-1C867.5,175.6,868.6,176.2,870,176.2z
		 M873.1,168.8c0-2.6-1.3-3.5-2.9-3.5c-1.8,0-2.8,1.3-2.8,3.4s1.2,3.6,3,3.6C871.9,172.4,873.1,171.5,873.1,168.8z"/>
	<path d="M877.3,160.9h1.2v4.9c0,0.4,0,0.7,0,0.7h0c0.3-0.9,1.5-2.3,3.6-2.3c2.2,0,3,1.3,3,3.5v5.8h-1.2v-5.4c0-1.4-0.2-2.7-2-2.7
		c-1.5,0-2.9,1.1-3.3,2.6c-0.1,0.4-0.1,0.8-0.1,1.2v4.3h-1.2V160.9z"/>
	<path d="M887.9,160.9h1.2v10.2c0,1.2,0.5,1.4,1,1.4c0.2,0,0.3,0,0.3,0v1.1c0,0-0.2,0-0.5,0c-0.8,0-2.1-0.2-2.1-2.2V160.9z"/>
	<path d="M891.5,175.8c0,0,0.5,0.4,1.1,0.4c0.8,0,1.3-0.6,1.7-1.5l0.6-1.3l-3.8-9h1.4l2.7,6.6c0.2,0.5,0.3,1,0.3,1h0
		c0,0,0.1-0.5,0.3-1l2.6-6.6h1.3l-4.5,10.9c-0.5,1.2-1.4,1.9-2.6,1.9c-0.9,0-1.6-0.5-1.6-0.5L891.5,175.8z"/>
	<path d="M906.6,165.6h-1.2v-1h1.2v-2.6h1.2v2.6h2.3v1h-2.3v4.5c0,2.1,1.4,2.4,2,2.4c0.3,0,0.4,0,0.4,0v1.1c0,0-0.2,0-0.5,0
		c-1,0-3.2-0.3-3.2-3.4V165.6z"/>
	<path d="M917.1,167.9h0.5v-0.2c0-1.7-1-2.3-2.3-2.3c-1.5,0-2.6,0.9-2.6,0.9l-0.6-0.9c0,0,1.2-1,3.2-1c2.2,0,3.4,1.2,3.4,3.5v5.8
		h-1.2v-1c0-0.5,0-0.8,0-0.8h0c0,0-0.8,2-3,2c-1.5,0-3.1-0.9-3.1-2.7C911.5,168,915.5,167.9,917.1,167.9z M914.8,172.7
		c1.7,0,2.8-1.8,2.8-3.4v-0.4h-0.5c-1.4,0-4.3,0.1-4.3,2.1C912.8,171.8,913.5,172.7,914.8,172.7z"/>
	<path d="M921.6,164.5h1.2v1.6c0,0.4,0,0.7,0,0.7h0c0.4-1.4,1.4-2.4,2.9-2.4c0.3,0,0.5,0.1,0.5,0.1v1.2c0,0-0.2,0-0.5,0
		c-1.3,0-2.2,1-2.6,2.3c-0.2,0.6-0.3,1.2-0.3,1.8v3.8h-1.2V164.5z"/>
	<path d="M931.2,176.2c1.8,0,3.2-0.8,3.2-2.8v-0.8c0-0.3,0-0.6,0-0.6h0c-0.5,1-1.5,1.6-2.9,1.6c-2.4,0-4-1.9-4-4.6s1.5-4.6,3.9-4.6
		c2.4,0,3,1.5,3,1.5h0c0,0,0-0.1,0-0.3v-1h1.2v8.8c0,2.9-2.1,4-4.3,4c-1,0-2.1-0.3-3-0.7l0.5-1C928.7,175.6,929.8,176.2,931.2,176.2
		z M934.4,168.8c0-2.6-1.3-3.5-2.9-3.5c-1.8,0-2.8,1.3-2.8,3.4s1.2,3.6,3,3.6C933.1,172.4,934.4,171.5,934.4,168.8z"/>
	<path d="M942.4,164.2c2.5,0,3.8,1.9,3.8,4.2c0,0.2,0,0.6,0,0.6h-7c0.1,2.3,1.6,3.6,3.5,3.6c1.7,0,2.8-1.1,2.8-1.1l0.6,0.9
		c0,0-1.3,1.3-3.3,1.3c-2.7,0-4.7-1.9-4.7-4.7C937.9,166,939.9,164.2,942.4,164.2z M944.9,168c-0.1-1.9-1.2-2.8-2.6-2.8
		c-1.5,0-2.8,1-3.1,2.8H944.9z"/>
	<path d="M948.8,165.6h-1.2v-1h1.2v-2.6h1.2v2.6h2.3v1H950v4.5c0,2.1,1.4,2.4,2,2.4c0.3,0,0.4,0,0.4,0v1.1c0,0-0.2,0-0.5,0
		c-1,0-3.2-0.3-3.2-3.4V165.6z"/>
	<path d="M958.3,164.2c2.5,0,3.8,1.9,3.8,4.2c0,0.2,0,0.6,0,0.6h-7c0.1,2.3,1.6,3.6,3.5,3.6c1.7,0,2.8-1.1,2.8-1.1l0.6,0.9
		c0,0-1.3,1.3-3.3,1.3c-2.7,0-4.7-1.9-4.7-4.7C953.9,166,955.9,164.2,958.3,164.2z M960.9,168c-0.1-1.9-1.2-2.8-2.6-2.8
		c-1.5,0-2.8,1-3.1,2.8H960.9z"/>
	<path d="M967.9,164.2c2.2,0,3,1.7,3,1.7h0c0,0,0-0.3,0-0.7v-4.4h1.2v12.7h-1.2v-1c0-0.4,0-0.6,0-0.6h0c0,0-0.7,1.8-3.1,1.8
		c-2.4,0-3.9-1.9-3.9-4.8C963.9,166.1,965.6,164.2,967.9,164.2z M968,172.6c1.5,0,2.9-1.1,2.9-3.7c0-1.8-0.9-3.6-2.9-3.6
		c-1.6,0-2.9,1.4-2.9,3.6C965.1,171.2,966.3,172.6,968,172.6z"/>
	<path d="M979.9,160.9h1.3v1.5h-1.3V160.9z M979.9,164.5h1.2v9.1h-1.2V164.5z"/>
	<path d="M984.1,164.5h1.2v1.4c0,0.4,0,0.7,0,0.7h0c0.4-1.2,1.9-2.3,3.3-2.3c1.7,0,2.5,0.8,2.8,2.3h0c0.5-1.2,1.8-2.3,3.3-2.3
		c2.2,0,3,1.3,3,3.5v5.8h-1.2v-5.5c0-1.5-0.3-2.7-2-2.7c-1.4,0-2.5,1.2-2.9,2.6c-0.1,0.4-0.2,0.8-0.2,1.3v4.3h-1.2v-5.5
		c0-1.4-0.2-2.7-1.9-2.7c-1.5,0-2.6,1.3-3,2.7c-0.1,0.4-0.1,0.8-0.1,1.2v4.3h-1.2V164.5z"/>
	<path d="M1000.6,164.5h1.2v0.9c0,0.4,0,0.7,0,0.7h0c0,0,0.7-1.8,3.1-1.8c2.4,0,3.9,1.9,3.9,4.8c0,2.9-1.7,4.7-4.1,4.7
		c-2.2,0-3-1.7-3-1.7h0c0,0,0,0.3,0,0.8v4.3h-1.2V164.5z M1004.6,172.6c1.6,0,2.9-1.4,2.9-3.7c0-2.2-1.2-3.6-2.9-3.6
		c-1.5,0-2.9,1.1-2.9,3.7C1001.8,170.8,1002.8,172.6,1004.6,172.6z"/>
	<path d="M1011.2,164.5h1.2v1.6c0,0.4,0,0.7,0,0.7h0c0.4-1.4,1.4-2.4,2.9-2.4c0.3,0,0.5,0.1,0.5,0.1v1.2c0,0-0.2,0-0.5,0
		c-1.3,0-2.2,1-2.6,2.3c-0.2,0.6-0.3,1.2-0.3,1.8v3.8h-1.2V164.5z"/>
	<path d="M1021.4,164.2c2.5,0,3.8,1.9,3.8,4.2c0,0.2,0,0.6,0,0.6h-7c0.1,2.3,1.6,3.6,3.5,3.6c1.7,0,2.8-1.1,2.8-1.1l0.6,0.9
		c0,0-1.3,1.3-3.3,1.3c-2.7,0-4.7-1.9-4.7-4.7C1016.9,166,1019,164.2,1021.4,164.2z M1023.9,168c-0.1-1.9-1.2-2.8-2.6-2.8
		c-1.5,0-2.8,1-3.1,2.8H1023.9z"/>
	<path d="M1027.5,171.5c0,0,1,1.1,2.7,1.1c1,0,1.8-0.5,1.8-1.4c0-2-4.9-1.5-4.9-4.4c0-1.6,1.5-2.5,3.1-2.5c1.9,0,2.8,1,2.8,1
		l-0.6,0.9c0,0-0.8-0.8-2.3-0.8c-0.9,0-1.8,0.4-1.8,1.4c0,2,4.9,1.5,4.9,4.4c0,1.5-1.3,2.5-3.1,2.5c-2.2,0-3.3-1.3-3.3-1.3
		L1027.5,171.5z"/>
	<path d="M1035.4,171.5c0,0,1,1.1,2.7,1.1c1,0,1.8-0.5,1.8-1.4c0-2-4.9-1.5-4.9-4.4c0-1.6,1.5-2.5,3.1-2.5c1.9,0,2.8,1,2.8,1
		l-0.6,0.9c0,0-0.8-0.8-2.3-0.8c-0.9,0-1.8,0.4-1.8,1.4c0,2,4.9,1.5,4.9,4.4c0,1.5-1.3,2.5-3.1,2.5c-2.2,0-3.3-1.3-3.3-1.3
		L1035.4,171.5z"/>
	<path d="M1043.4,160.9h1.3v1.5h-1.3V160.9z M1043.5,164.5h1.2v9.1h-1.2V164.5z"/>
	<path d="M1051.8,164.2c2.6,0,4.8,2,4.8,4.7c0,2.7-2.1,4.8-4.8,4.8s-4.8-2.1-4.8-4.8C1047,166.3,1049.1,164.2,1051.8,164.2z
		 M1051.8,172.6c1.9,0,3.5-1.6,3.5-3.7c0-2.1-1.6-3.6-3.5-3.6s-3.5,1.5-3.5,3.6C1048.2,171,1049.8,172.6,1051.8,172.6z"/>
	<path d="M1058.8,164.5h1.2v1.4c0,0.4,0,0.7,0,0.7h0c0.3-0.8,1.5-2.3,3.6-2.3c2.2,0,3,1.3,3,3.5v5.8h-1.2v-5.4c0-1.4-0.2-2.7-2-2.7
		c-1.5,0-2.9,1.1-3.3,2.6c-0.1,0.4-0.1,0.8-0.1,1.2v4.3h-1.2V164.5z"/>
	<path d="M1069.4,171.5c0,0,1,1.1,2.7,1.1c1,0,1.8-0.5,1.8-1.4c0-2-4.9-1.5-4.9-4.4c0-1.6,1.5-2.5,3.1-2.5c1.9,0,2.8,1,2.8,1
		l-0.6,0.9c0,0-0.8-0.8-2.3-0.8c-0.9,0-1.8,0.4-1.8,1.4c0,2,4.9,1.5,4.9,4.4c0,1.5-1.3,2.5-3.1,2.5c-2.2,0-3.3-1.3-3.3-1.3
		L1069.4,171.5z"/>
	<path d="M1077.7,172h1.3l-1.3,3.2h-1L1077.7,172z"/>
	<path d="M1091.5,167.9h0.5v-0.2c0-1.7-1-2.3-2.3-2.3c-1.5,0-2.6,0.9-2.6,0.9l-0.6-0.9c0,0,1.2-1,3.2-1c2.2,0,3.4,1.2,3.4,3.5v5.8
		h-1.2v-1c0-0.5,0-0.8,0-0.8h0c0,0-0.8,2-3,2c-1.5,0-3.1-0.9-3.1-2.7C1086,168,1090,167.9,1091.5,167.9z M1089.3,172.7
		c1.7,0,2.8-1.8,2.8-3.4v-0.4h-0.5c-1.4,0-4.3,0.1-4.3,2.1C1087.3,171.8,1087.9,172.7,1089.3,172.7z"/>
	<path d="M1096.1,164.5h1.2v1.4c0,0.4,0,0.7,0,0.7h0c0.3-0.8,1.5-2.3,3.6-2.3c2.2,0,3,1.3,3,3.5v5.8h-1.2v-5.4c0-1.4-0.2-2.7-2-2.7
		c-1.5,0-2.9,1.1-3.3,2.6c-0.1,0.4-0.1,0.8-0.1,1.2v4.3h-1.2V164.5z"/>
	<path d="M1110.2,164.2c2.2,0,3,1.7,3,1.7h0c0,0,0-0.3,0-0.7v-4.4h1.2v12.7h-1.2v-1c0-0.4,0-0.6,0-0.6h0c0,0-0.7,1.8-3.1,1.8
		c-2.4,0-3.9-1.9-3.9-4.8C1106.2,166.1,1107.9,164.2,1110.2,164.2z M1110.3,172.6c1.5,0,2.9-1.1,2.9-3.7c0-1.8-0.9-3.6-2.9-3.6
		c-1.6,0-2.9,1.4-2.9,3.6C1107.4,171.2,1108.6,172.6,1110.3,172.6z"/>
</g>
<g>
	<path d="M830.2,194.5h1.2v0.9c0,0.4,0,0.7,0,0.7h0c0,0,0.7-1.8,3.1-1.8c2.4,0,3.9,1.9,3.9,4.8c0,2.9-1.7,4.7-4.1,4.7
		c-2.2,0-3-1.7-3-1.7h0c0,0,0,0.3,0,0.8v4.3h-1.2V194.5z M834.2,202.6c1.6,0,2.9-1.4,2.9-3.7c0-2.2-1.2-3.6-2.9-3.6
		c-1.5,0-2.9,1.1-2.9,3.7C831.4,200.8,832.4,202.6,834.2,202.6z"/>
	<path d="M840.8,194.5h1.2v1.6c0,0.4,0,0.7,0,0.7h0c0.4-1.4,1.4-2.4,2.9-2.4c0.3,0,0.5,0.1,0.5,0.1v1.2c0,0-0.2,0-0.5,0
		c-1.3,0-2.2,1-2.6,2.3c-0.2,0.6-0.3,1.2-0.3,1.8v3.8h-1.2V194.5z"/>
	<path d="M851.3,194.2c2.6,0,4.8,2,4.8,4.7c0,2.7-2.1,4.8-4.8,4.8s-4.8-2.1-4.8-4.8C846.5,196.3,848.7,194.2,851.3,194.2z
		 M851.3,202.6c1.9,0,3.5-1.6,3.5-3.7c0-2.1-1.6-3.6-3.5-3.6s-3.5,1.5-3.5,3.6C847.8,201,849.4,202.6,851.3,202.6z"/>
	<path d="M861.5,206.2c1.8,0,3.2-0.8,3.2-2.8v-0.8c0-0.3,0-0.6,0-0.6h0c-0.5,1-1.5,1.6-2.9,1.6c-2.4,0-4-1.9-4-4.6s1.5-4.6,3.9-4.6
		c2.4,0,3,1.5,3,1.5h0c0,0,0-0.1,0-0.3v-1h1.2v8.8c0,2.9-2.1,4-4.3,4c-1,0-2.1-0.3-3-0.7l0.5-1C859.1,205.6,860.2,206.2,861.5,206.2
		z M864.7,198.8c0-2.6-1.3-3.5-2.9-3.5c-1.8,0-2.8,1.3-2.8,3.4c0,2.2,1.2,3.6,3,3.6C863.4,202.4,864.7,201.5,864.7,198.8z"/>
	<path d="M868.9,194.5h1.2v1.6c0,0.4,0,0.7,0,0.7h0c0.4-1.4,1.4-2.4,2.9-2.4c0.3,0,0.5,0.1,0.5,0.1v1.2c0,0-0.2,0-0.5,0
		c-1.3,0-2.2,1-2.6,2.3c-0.2,0.6-0.3,1.2-0.3,1.8v3.8h-1.2V194.5z"/>
	<path d="M880.1,197.9h0.5v-0.2c0-1.7-1-2.3-2.3-2.3c-1.5,0-2.6,0.9-2.6,0.9l-0.6-0.9c0,0,1.2-1,3.2-1c2.2,0,3.4,1.2,3.4,3.5v5.8
		h-1.2v-1c0-0.5,0-0.8,0-0.8h0c0,0-0.8,2-3,2c-1.5,0-3.1-0.9-3.1-2.7C874.5,198,878.5,197.9,880.1,197.9z M877.8,202.7
		c1.7,0,2.8-1.8,2.8-3.4v-0.4h-0.5c-1.4,0-4.3,0.1-4.3,2.1C875.8,201.8,876.5,202.7,877.8,202.7z"/>
	<path d="M884.6,194.5h1.2v1.4c0,0.4,0,0.7,0,0.7h0c0.4-1.2,1.9-2.3,3.3-2.3c1.7,0,2.5,0.8,2.8,2.3h0c0.5-1.2,1.8-2.3,3.3-2.3
		c2.2,0,3,1.3,3,3.5v5.8h-1.2v-5.5c0-1.5-0.3-2.7-2-2.7c-1.4,0-2.5,1.2-2.9,2.6c-0.1,0.4-0.2,0.8-0.2,1.3v4.3h-1.2v-5.5
		c0-1.4-0.2-2.7-1.9-2.7c-1.5,0-2.6,1.3-3,2.7c-0.1,0.4-0.1,0.8-0.1,1.2v4.3h-1.2V194.5z"/>
	<path d="M901.1,194.5h1.2v1.4c0,0.4,0,0.7,0,0.7h0c0.4-1.2,1.9-2.3,3.3-2.3c1.7,0,2.5,0.8,2.8,2.3h0c0.5-1.2,1.8-2.3,3.3-2.3
		c2.2,0,3,1.3,3,3.5v5.8h-1.2v-5.5c0-1.5-0.3-2.7-2-2.7c-1.4,0-2.5,1.2-2.9,2.6c-0.1,0.4-0.2,0.8-0.2,1.3v4.3h-1.2v-5.5
		c0-1.4-0.2-2.7-1.9-2.7c-1.5,0-2.6,1.3-3,2.7c-0.1,0.4-0.1,0.8-0.1,1.2v4.3h-1.2V194.5z"/>
	<path d="M922.4,197.9h0.5v-0.2c0-1.7-1-2.3-2.3-2.3c-1.5,0-2.6,0.9-2.6,0.9l-0.6-0.9c0,0,1.2-1,3.2-1c2.2,0,3.4,1.2,3.4,3.5v5.8
		H923v-1c0-0.5,0-0.8,0-0.8h0c0,0-0.8,2-3,2c-1.5,0-3.1-0.9-3.1-2.7C916.9,198,920.8,197.9,922.4,197.9z M920.1,202.7
		c1.7,0,2.8-1.8,2.8-3.4v-0.4h-0.5c-1.4,0-4.3,0.1-4.3,2.1C918.1,201.8,918.8,202.7,920.1,202.7z"/>
	<path d="M927.3,195.6h-1.2v-1h1.2v-2.6h1.2v2.6h2.3v1h-2.3v4.5c0,2.1,1.4,2.4,2,2.4c0.3,0,0.4,0,0.4,0v1.1c0,0-0.2,0-0.5,0
		c-1,0-3.2-0.3-3.2-3.4V195.6z"/>
	<path d="M933,190.8h1.3v1.5H933V190.8z M933,194.5h1.2v9.1H933V194.5z"/>
	<path d="M941.3,194.2c2.2,0,3.3,1.3,3.3,1.3l-0.6,0.9c0,0-1-1.1-2.6-1.1c-2,0-3.5,1.5-3.5,3.6c0,2.1,1.6,3.6,3.6,3.6
		c1.8,0,2.9-1.3,2.9-1.3l0.6,1c0,0-1.2,1.4-3.5,1.4c-2.7,0-4.8-1.9-4.8-4.7C936.5,196.2,938.6,194.2,941.3,194.2z"/>
	<path d="M951.9,197.9h0.5v-0.2c0-1.7-1-2.3-2.3-2.3c-1.5,0-2.6,0.9-2.6,0.9l-0.6-0.9c0,0,1.2-1,3.2-1c2.2,0,3.4,1.2,3.4,3.5v5.8
		h-1.2v-1c0-0.5,0-0.8,0-0.8h0c0,0-0.8,2-3,2c-1.5,0-3.1-0.9-3.1-2.7C946.3,198,950.3,197.9,951.9,197.9z M949.6,202.7
		c1.7,0,2.8-1.8,2.8-3.4v-0.4h-0.5c-1.4,0-4.3,0.1-4.3,2.1C947.6,201.8,948.2,202.7,949.6,202.7z"/>
	<path d="M956.3,190.8h1.2v10.2c0,1.2,0.5,1.4,1,1.4c0.2,0,0.3,0,0.3,0v1.1c0,0-0.2,0-0.5,0c-0.8,0-2.1-0.2-2.1-2.2V190.8z"/>
	<path d="M960.8,190.8h1.2v10.2c0,1.2,0.5,1.4,1,1.4c0.2,0,0.3,0,0.3,0v1.1c0,0-0.2,0-0.5,0c-0.8,0-2.1-0.2-2.1-2.2V190.8z"/>
	<path d="M964.4,205.8c0,0,0.5,0.4,1.1,0.4c0.8,0,1.4-0.6,1.7-1.5l0.6-1.3l-3.8-9h1.4l2.7,6.6c0.2,0.5,0.3,1,0.3,1h0
		c0,0,0.1-0.5,0.3-1l2.6-6.6h1.3l-4.5,10.9c-0.5,1.2-1.4,1.9-2.6,1.9c-0.9,0-1.6-0.5-1.6-0.5L964.4,205.8z"/>
	<path d="M979.5,195.6h-1.2v-1h1.2v-2.6h1.2v2.6h2.3v1h-2.3v4.5c0,2.1,1.4,2.4,2,2.4c0.3,0,0.4,0,0.4,0v1.1c0,0-0.2,0-0.5,0
		c-1,0-3.2-0.3-3.2-3.4V195.6z"/>
	<path d="M990,197.9h0.5v-0.2c0-1.7-1-2.3-2.3-2.3c-1.5,0-2.6,0.9-2.6,0.9l-0.6-0.9c0,0,1.2-1,3.2-1c2.2,0,3.4,1.2,3.4,3.5v5.8h-1.2
		v-1c0-0.5,0-0.8,0-0.8h0c0,0-0.8,2-3,2c-1.5,0-3.1-0.9-3.1-2.7C984.4,198,988.4,197.9,990,197.9z M987.7,202.7
		c1.7,0,2.8-1.8,2.8-3.4v-0.4h-0.5c-1.4,0-4.3,0.1-4.3,2.1C985.7,201.8,986.3,202.7,987.7,202.7z"/>
	<path d="M994.5,194.5h1.2v1.6c0,0.4,0,0.7,0,0.7h0c0.4-1.4,1.4-2.4,2.9-2.4c0.3,0,0.5,0.1,0.5,0.1v1.2c0,0-0.2,0-0.5,0
		c-1.3,0-2.2,1-2.6,2.3c-0.2,0.6-0.3,1.2-0.3,1.8v3.8h-1.2V194.5z"/>
	<path d="M1004.1,206.2c1.8,0,3.2-0.8,3.2-2.8v-0.8c0-0.3,0-0.6,0-0.6h0c-0.5,1-1.5,1.6-2.9,1.6c-2.4,0-4-1.9-4-4.6s1.5-4.6,3.9-4.6
		c2.4,0,3,1.5,3,1.5h0c0,0,0-0.1,0-0.3v-1h1.2v8.8c0,2.9-2.1,4-4.3,4c-1,0-2.1-0.3-3-0.7l0.5-1
		C1001.6,205.6,1002.7,206.2,1004.1,206.2z M1007.2,198.8c0-2.6-1.3-3.5-2.9-3.5c-1.8,0-2.8,1.3-2.8,3.4c0,2.2,1.2,3.6,3,3.6
		C1006,202.4,1007.2,201.5,1007.2,198.8z"/>
	<path d="M1015.2,194.2c2.5,0,3.8,1.9,3.8,4.2c0,0.2,0,0.6,0,0.6h-7c0.1,2.3,1.6,3.6,3.5,3.6c1.7,0,2.8-1.1,2.8-1.1l0.6,0.9
		c0,0-1.3,1.3-3.3,1.3c-2.7,0-4.7-1.9-4.7-4.7C1010.8,196,1012.8,194.2,1015.2,194.2z M1017.8,198c-0.1-1.9-1.2-2.8-2.6-2.8
		c-1.5,0-2.8,1-3.1,2.8H1017.8z"/>
	<path d="M1021.7,195.6h-1.2v-1h1.2v-2.6h1.2v2.6h2.3v1h-2.3v4.5c0,2.1,1.4,2.4,2,2.4c0.3,0,0.4,0,0.4,0v1.1c0,0-0.2,0-0.5,0
		c-1,0-3.2-0.3-3.2-3.4V195.6z"/>
	<path d="M1027.3,190.8h1.3v1.5h-1.3V190.8z M1027.4,194.5h1.2v9.1h-1.2V194.5z"/>
	<path d="M1031.6,194.5h1.2v1.4c0,0.4,0,0.7,0,0.7h0c0.3-0.8,1.5-2.3,3.6-2.3c2.2,0,3,1.3,3,3.5v5.8h-1.2v-5.4c0-1.4-0.2-2.7-2-2.7
		c-1.5,0-2.9,1.1-3.3,2.6c-0.1,0.4-0.1,0.8-0.1,1.2v4.3h-1.2V194.5z"/>
	<path d="M1045.4,206.2c1.8,0,3.2-0.8,3.2-2.8v-0.8c0-0.3,0-0.6,0-0.6h0c-0.5,1-1.5,1.6-2.9,1.6c-2.4,0-4-1.9-4-4.6s1.5-4.6,3.9-4.6
		c2.4,0,3,1.5,3,1.5h0c0,0,0-0.1,0-0.3v-1h1.2v8.8c0,2.9-2.1,4-4.3,4c-1,0-2.1-0.3-3-0.7l0.5-1
		C1042.9,205.6,1044,206.2,1045.4,206.2z M1048.6,198.8c0-2.6-1.3-3.5-2.9-3.5c-1.8,0-2.8,1.3-2.8,3.4c0,2.2,1.2,3.6,3,3.6
		C1047.3,202.4,1048.6,201.5,1048.6,198.8z"/>
	<path d="M1056.7,205.8c0,0,0.5,0.4,1.1,0.4c0.8,0,1.4-0.6,1.7-1.5l0.6-1.3l-3.8-9h1.4l2.7,6.6c0.2,0.5,0.3,1,0.3,1h0
		c0,0,0.1-0.5,0.3-1l2.6-6.6h1.3l-4.5,10.9c-0.5,1.2-1.4,1.9-2.6,1.9c-0.9,0-1.6-0.5-1.6-0.5L1056.7,205.8z"/>
	<path d="M1070.7,194.2c2.6,0,4.8,2,4.8,4.7c0,2.7-2.1,4.8-4.8,4.8s-4.8-2.1-4.8-4.8C1065.9,196.3,1068,194.2,1070.7,194.2z
		 M1070.7,202.6c1.9,0,3.5-1.6,3.5-3.7c0-2.1-1.6-3.6-3.5-3.6s-3.5,1.5-3.5,3.6C1067.1,201,1068.7,202.6,1070.7,202.6z"/>
	<path d="M1077.6,194.5h1.2v5.4c0,1.4,0.2,2.7,2,2.7c2.1,0,3.3-1.8,3.3-3.8v-4.3h1.2v9.1h-1.2v-1.4c0-0.4,0-0.7,0-0.7h0
		c-0.4,0.9-1.5,2.3-3.5,2.3c-2.1,0-3-1.2-3-3.5V194.5z"/>
	<path d="M1088.3,194.5h1.2v1.6c0,0.4,0,0.7,0,0.7h0c0.4-1.4,1.4-2.4,2.9-2.4c0.3,0,0.5,0.1,0.5,0.1v1.2c0,0-0.2,0-0.5,0
		c-1.3,0-2.2,1-2.6,2.3c-0.2,0.6-0.3,1.2-0.3,1.8v3.8h-1.2V194.5z"/>
</g>
<g>
	<path d="M834,224.2c2.5,0,3.8,1.9,3.8,4.2c0,0.2,0,0.6,0,0.6h-7c0.1,2.3,1.6,3.6,3.5,3.6c1.7,0,2.8-1.1,2.8-1.1l0.6,0.9
		c0,0-1.3,1.3-3.3,1.3c-2.7,0-4.7-1.9-4.7-4.7C829.5,226,831.6,224.2,834,224.2z M836.6,228c-0.1-1.9-1.2-2.8-2.6-2.8
		c-1.5,0-2.8,1-3.1,2.8H836.6z"/>
	<path d="M840.1,224.5h1.2v1.4c0,0.4,0,0.7,0,0.7h0c0.3-0.8,1.5-2.3,3.6-2.3c2.2,0,3,1.3,3,3.5v5.8h-1.2v-5.4c0-1.4-0.2-2.7-2-2.7
		c-1.5,0-2.9,1.1-3.3,2.6c-0.1,0.4-0.1,0.8-0.1,1.2v4.3h-1.2V224.5z"/>
	<path d="M851.1,225.6H850v-1h1.2v-2.6h1.2v2.6h2.3v1h-2.3v4.5c0,2.1,1.4,2.4,2,2.4c0.3,0,0.4,0,0.4,0v1.1c0,0-0.2,0-0.5,0
		c-1,0-3.2-0.3-3.2-3.4V225.6z"/>
	<path d="M856.8,220.8h1.3v1.5h-1.3V220.8z M856.8,224.5h1.2v9.1h-1.2V224.5z"/>
	<path d="M861,224.5h1.2v1.6c0,0.4,0,0.7,0,0.7h0c0.4-1.4,1.4-2.4,2.9-2.4c0.3,0,0.5,0.1,0.5,0.1v1.2c0,0-0.2,0-0.5,0
		c-1.3,0-2.2,1-2.6,2.3c-0.2,0.6-0.3,1.2-0.3,1.8v3.8H861V224.5z"/>
	<path d="M871.3,224.2c2.5,0,3.8,1.9,3.8,4.2c0,0.2,0,0.6,0,0.6h-7c0.1,2.3,1.6,3.6,3.5,3.6c1.7,0,2.8-1.1,2.8-1.1l0.6,0.9
		c0,0-1.3,1.3-3.3,1.3c-2.7,0-4.7-1.9-4.7-4.7C866.8,226,868.8,224.2,871.3,224.2z M873.8,228c-0.1-1.9-1.2-2.8-2.6-2.8
		c-1.5,0-2.8,1-3.1,2.8H873.8z"/>
	<path d="M882.1,231.5c0,0,1,1.1,2.7,1.1c1,0,1.8-0.5,1.8-1.4c0-2-4.9-1.5-4.9-4.4c0-1.6,1.5-2.5,3.1-2.5c1.9,0,2.8,1,2.8,1
		l-0.6,0.9c0,0-0.8-0.8-2.3-0.8c-0.9,0-1.8,0.4-1.8,1.4c0,2,4.9,1.5,4.9,4.4c0,1.5-1.3,2.5-3.1,2.5c-2.2,0-3.3-1.3-3.3-1.3
		L882.1,231.5z"/>
	<path d="M895,227.9h0.5v-0.2c0-1.7-1-2.3-2.3-2.3c-1.5,0-2.6,0.9-2.6,0.9l-0.6-0.9c0,0,1.2-1,3.2-1c2.2,0,3.4,1.2,3.4,3.5v5.8h-1.2
		v-1c0-0.5,0-0.8,0-0.8h0c0,0-0.8,2-3,2c-1.5,0-3.1-0.9-3.1-2.7C889.5,228,893.4,227.9,895,227.9z M892.7,232.7
		c1.7,0,2.8-1.8,2.8-3.4v-0.4H895c-1.4,0-4.3,0.1-4.3,2.1C890.7,231.8,891.4,232.7,892.7,232.7z"/>
	<path d="M899.5,220.8h1.2v10.2c0,1.2,0.5,1.4,1,1.4c0.2,0,0.3,0,0.3,0v1.1c0,0-0.2,0-0.5,0c-0.8,0-2.1-0.2-2.1-2.2V220.8z"/>
	<path d="M907.8,224.2c2.5,0,3.8,1.9,3.8,4.2c0,0.2,0,0.6,0,0.6h-7c0.1,2.3,1.6,3.6,3.5,3.6c1.7,0,2.8-1.1,2.8-1.1l0.6,0.9
		c0,0-1.3,1.3-3.3,1.3c-2.7,0-4.7-1.9-4.7-4.7C903.4,226,905.4,224.2,907.8,224.2z M910.4,228c-0.1-1.9-1.2-2.8-2.6-2.8
		c-1.5,0-2.8,1-3.1,2.8H910.4z"/>
	<path d="M913.9,231.5c0,0,1,1.1,2.7,1.1c1,0,1.8-0.5,1.8-1.4c0-2-4.9-1.5-4.9-4.4c0-1.6,1.5-2.5,3.1-2.5c1.9,0,2.8,1,2.8,1
		l-0.6,0.9c0,0-0.8-0.8-2.3-0.8c-0.9,0-1.8,0.4-1.8,1.4c0,2,4.9,1.5,4.9,4.4c0,1.5-1.3,2.5-3.1,2.5c-2.2,0-3.3-1.3-3.3-1.3
		L913.9,231.5z"/>
	<path d="M927.2,225.6H926v-1h1.1v-0.4c0-3,2.1-3.4,3.1-3.4c0.3,0,0.6,0,0.6,0v1.1c0,0-0.2,0-0.4,0c-0.7,0-2,0.3-2,2.3v0.4h2.3v1
		h-2.3v7.9h-1.2V225.6z"/>
	<path d="M932.4,224.5h1.2v5.4c0,1.4,0.2,2.7,2,2.7c2.1,0,3.3-1.8,3.3-3.8v-4.3h1.2v9.1H939v-1.4c0-0.4,0-0.7,0-0.7h0
		c-0.4,0.9-1.5,2.3-3.5,2.3c-2.1,0-3-1.2-3-3.5V224.5z"/>
	<path d="M943.1,224.5h1.2v1.4c0,0.4,0,0.7,0,0.7h0c0.3-0.8,1.5-2.3,3.6-2.3c2.2,0,3,1.3,3,3.5v5.8h-1.2v-5.4c0-1.4-0.2-2.7-2-2.7
		c-1.5,0-2.9,1.1-3.3,2.6c-0.1,0.4-0.1,0.8-0.1,1.2v4.3h-1.2V224.5z"/>
	<path d="M953.8,224.5h1.2v1.4c0,0.4,0,0.7,0,0.7h0c0.3-0.8,1.5-2.3,3.6-2.3c2.2,0,3,1.3,3,3.5v5.8h-1.2v-5.4c0-1.4-0.2-2.7-2-2.7
		c-1.5,0-2.9,1.1-3.3,2.6c-0.1,0.4-0.1,0.8-0.1,1.2v4.3h-1.2V224.5z"/>
	<path d="M968.3,224.2c2.5,0,3.8,1.9,3.8,4.2c0,0.2,0,0.6,0,0.6h-7c0.1,2.3,1.6,3.6,3.5,3.6c1.7,0,2.8-1.1,2.8-1.1l0.6,0.9
		c0,0-1.3,1.3-3.3,1.3c-2.7,0-4.7-1.9-4.7-4.7C963.8,226,965.8,224.2,968.3,224.2z M970.8,228c-0.1-1.9-1.2-2.8-2.6-2.8
		c-1.5,0-2.8,1-3.1,2.8H970.8z"/>
	<path d="M974.3,220.8h1.2v10.2c0,1.2,0.5,1.4,1,1.4c0.2,0,0.3,0,0.3,0v1.1c0,0-0.2,0-0.5,0c-0.8,0-2.1-0.2-2.1-2.2V220.8z"/>
	<path d="M984,225.6h-1.2v-1h1.2v-2.6h1.2v2.6h2.3v1h-2.3v4.5c0,2.1,1.4,2.4,2,2.4c0.3,0,0.4,0,0.4,0v1.1c0,0-0.2,0-0.5,0
		c-1,0-3.2-0.3-3.2-3.4V225.6z"/>
	<path d="M993.9,224.2c2.6,0,4.8,2,4.8,4.7c0,2.7-2.1,4.8-4.8,4.8s-4.8-2.1-4.8-4.8C989.1,226.3,991.2,224.2,993.9,224.2z
		 M993.9,232.6c1.9,0,3.5-1.6,3.5-3.7c0-2.1-1.6-3.6-3.5-3.6s-3.5,1.5-3.5,3.6C990.3,231,991.9,232.6,993.9,232.6z"/>
	<path d="M1009.9,224.2c2.2,0,3.3,1.3,3.3,1.3l-0.6,0.9c0,0-1-1.1-2.6-1.1c-2,0-3.5,1.5-3.5,3.6c0,2.1,1.6,3.6,3.6,3.6
		c1.8,0,2.9-1.3,2.9-1.3l0.6,1c0,0-1.2,1.4-3.5,1.4c-2.7,0-4.8-1.9-4.8-4.7C1005.1,226.2,1007.2,224.2,1009.9,224.2z"/>
	<path d="M1015.6,224.5h1.2v1.6c0,0.4,0,0.7,0,0.7h0c0.4-1.4,1.4-2.4,2.9-2.4c0.3,0,0.5,0.1,0.5,0.1v1.2c0,0-0.2,0-0.5,0
		c-1.3,0-2.2,1-2.6,2.3c-0.2,0.6-0.3,1.2-0.3,1.8v3.8h-1.2V224.5z"/>
	<path d="M1025.9,224.2c2.5,0,3.8,1.9,3.8,4.2c0,0.2,0,0.6,0,0.6h-7c0.1,2.3,1.6,3.6,3.5,3.6c1.7,0,2.8-1.1,2.8-1.1l0.6,0.9
		c0,0-1.3,1.3-3.3,1.3c-2.7,0-4.7-1.9-4.7-4.7C1021.4,226,1023.4,224.2,1025.9,224.2z M1028.4,228c-0.1-1.9-1.2-2.8-2.6-2.8
		c-1.5,0-2.8,1-3.1,2.8H1028.4z"/>
	<path d="M1036.8,227.9h0.5v-0.2c0-1.7-1-2.3-2.3-2.3c-1.5,0-2.6,0.9-2.6,0.9l-0.6-0.9c0,0,1.2-1,3.2-1c2.2,0,3.4,1.2,3.4,3.5v5.8
		h-1.2v-1c0-0.5,0-0.8,0-0.8h0c0,0-0.8,2-3,2c-1.5,0-3.1-0.9-3.1-2.7C1031.3,228,1035.3,227.9,1036.8,227.9z M1034.5,232.7
		c1.7,0,2.8-1.8,2.8-3.4v-0.4h-0.5c-1.4,0-4.3,0.1-4.3,2.1C1032.5,231.8,1033.2,232.7,1034.5,232.7z"/>
	<path d="M1041.7,225.6h-1.2v-1h1.2v-2.6h1.2v2.6h2.3v1h-2.3v4.5c0,2.1,1.4,2.4,2,2.4c0.3,0,0.4,0,0.4,0v1.1c0,0-0.2,0-0.5,0
		c-1,0-3.2-0.3-3.2-3.4V225.6z"/>
	<path d="M1051.2,224.2c2.5,0,3.8,1.9,3.8,4.2c0,0.2,0,0.6,0,0.6h-7c0.1,2.3,1.6,3.6,3.5,3.6c1.7,0,2.8-1.1,2.8-1.1l0.6,0.9
		c0,0-1.3,1.3-3.3,1.3c-2.7,0-4.7-1.9-4.7-4.7C1046.8,226,1048.8,224.2,1051.2,224.2z M1053.8,228c-0.1-1.9-1.2-2.8-2.6-2.8
		c-1.5,0-2.8,1-3.1,2.8H1053.8z"/>
	<path d="M1062.2,224.5h1.2v1.4c0,0.4,0,0.7,0,0.7h0c0.4-1.2,1.9-2.3,3.3-2.3c1.7,0,2.5,0.8,2.8,2.3h0c0.5-1.2,1.8-2.3,3.3-2.3
		c2.2,0,3,1.3,3,3.5v5.8h-1.2v-5.5c0-1.5-0.3-2.7-2-2.7c-1.4,0-2.5,1.2-2.9,2.6c-0.1,0.4-0.2,0.8-0.2,1.3v4.3h-1.2v-5.5
		c0-1.4-0.2-2.7-1.9-2.7c-1.5,0-2.6,1.3-3,2.7c-0.1,0.4-0.1,0.8-0.1,1.2v4.3h-1.2V224.5z"/>
	<path d="M1082.8,224.2c2.6,0,4.8,2,4.8,4.7c0,2.7-2.1,4.8-4.8,4.8s-4.8-2.1-4.8-4.8C1078,226.3,1080.2,224.2,1082.8,224.2z
		 M1082.8,232.6c1.9,0,3.5-1.6,3.5-3.7c0-2.1-1.6-3.6-3.5-3.6s-3.5,1.5-3.5,3.6C1079.3,231,1080.9,232.6,1082.8,232.6z"/>
	<path d="M1089.9,224.5h1.2v1.6c0,0.4,0,0.7,0,0.7h0c0.4-1.4,1.4-2.4,2.9-2.4c0.3,0,0.5,0.1,0.5,0.1v1.2c0,0-0.2,0-0.5,0
		c-1.3,0-2.2,1-2.6,2.3c-0.2,0.6-0.3,1.2-0.3,1.8v3.8h-1.2V224.5z"/>
	<path d="M1100.1,224.2c2.5,0,3.8,1.9,3.8,4.2c0,0.2,0,0.6,0,0.6h-7c0.1,2.3,1.6,3.6,3.5,3.6c1.7,0,2.8-1.1,2.8-1.1l0.6,0.9
		c0,0-1.3,1.3-3.3,1.3c-2.7,0-4.7-1.9-4.7-4.7C1095.7,226,1097.7,224.2,1100.1,224.2z M1102.7,228c-0.1-1.9-1.2-2.8-2.6-2.8
		c-1.5,0-2.8,1-3.1,2.8H1102.7z"/>
</g>
<g>
	<path d="M830.1,250.8h1.3v1.5h-1.3V250.8z M830.2,254.5h1.2v9.1h-1.2V254.5z"/>
	<path d="M834.4,254.5h1.2v1.4c0,0.4,0,0.7,0,0.7h0c0.3-0.8,1.5-2.3,3.6-2.3c2.2,0,3,1.3,3,3.5v5.8H841v-5.4c0-1.4-0.2-2.7-2-2.7
		c-1.5,0-2.9,1.1-3.3,2.6c-0.1,0.4-0.1,0.8-0.1,1.2v4.3h-1.2V254.5z"/>
	<path d="M845.4,257.8h5.1v1.1h-5.1V257.8z"/>
	<path d="M853.9,254.5h1.2v1.4c0,0.4,0,0.7,0,0.7h0c0.4-1.2,1.9-2.3,3.3-2.3c1.7,0,2.5,0.8,2.8,2.3h0c0.5-1.2,1.8-2.3,3.3-2.3
		c2.2,0,3,1.3,3,3.5v5.8h-1.2v-5.5c0-1.5-0.3-2.7-2-2.7c-1.4,0-2.5,1.2-2.9,2.6c-0.1,0.4-0.2,0.8-0.2,1.3v4.3h-1.2v-5.5
		c0-1.4-0.2-2.7-1.9-2.7c-1.5,0-2.6,1.3-3,2.7c-0.1,0.4-0.1,0.8-0.1,1.2v4.3h-1.2V254.5z"/>
	<path d="M875.2,257.9h0.5v-0.2c0-1.7-1-2.3-2.3-2.3c-1.5,0-2.6,0.9-2.6,0.9l-0.6-0.9c0,0,1.2-1,3.2-1c2.2,0,3.4,1.2,3.4,3.5v5.8
		h-1.2v-1c0-0.5,0-0.8,0-0.8h0c0,0-0.8,2-3,2c-1.5,0-3.1-0.9-3.1-2.7C869.6,258,873.6,257.9,875.2,257.9z M872.9,262.7
		c1.7,0,2.8-1.8,2.8-3.4v-0.4h-0.5c-1.4,0-4.3,0.1-4.3,2.1C870.9,261.8,871.6,262.7,872.9,262.7z"/>
	<path d="M879.7,254.5h1.2v1.6c0,0.4,0,0.7,0,0.7h0c0.4-1.4,1.4-2.4,2.9-2.4c0.3,0,0.5,0.1,0.5,0.1v1.2c0,0-0.2,0-0.5,0
		c-1.3,0-2.2,1-2.6,2.3c-0.2,0.6-0.3,1.2-0.3,1.8v3.8h-1.2V254.5z"/>
	<path d="M886.1,250.8h1.2v7.1h1.4l2.7-3.5h1.5l-3.2,3.9v0l3.5,5.1h-1.5l-3-4.5h-1.5v4.5h-1.2V250.8z"/>
	<path d="M899,254.2c2.5,0,3.8,1.9,3.8,4.2c0,0.2,0,0.6,0,0.6h-7c0.1,2.3,1.6,3.6,3.5,3.6c1.7,0,2.8-1.1,2.8-1.1l0.6,0.9
		c0,0-1.3,1.3-3.3,1.3c-2.7,0-4.7-1.9-4.7-4.7C894.5,256,896.6,254.2,899,254.2z M901.6,258c-0.1-1.9-1.2-2.8-2.6-2.8
		c-1.5,0-2.8,1-3.1,2.8H901.6z"/>
	<path d="M905.5,255.6h-1.2v-1h1.2v-2.6h1.2v2.6h2.3v1h-2.3v4.5c0,2.1,1.4,2.4,2,2.4c0.3,0,0.4,0,0.4,0v1.1c0,0-0.2,0-0.5,0
		c-1,0-3.2-0.3-3.2-3.4V255.6z"/>
	<path d="M920.1,254.2c2.2,0,3.3,1.3,3.3,1.3l-0.6,0.9c0,0-1-1.1-2.6-1.1c-2,0-3.5,1.5-3.5,3.6c0,2.1,1.6,3.6,3.6,3.6
		c1.8,0,2.9-1.3,2.9-1.3l0.6,1c0,0-1.2,1.4-3.5,1.4c-2.7,0-4.8-1.9-4.8-4.7C915.4,256.2,917.5,254.2,920.1,254.2z"/>
	<path d="M925.8,254.5h1.2v5.4c0,1.4,0.2,2.7,2,2.7c2.1,0,3.3-1.8,3.3-3.8v-4.3h1.2v9.1h-1.2v-1.4c0-0.4,0-0.7,0-0.7h0
		c-0.4,0.9-1.5,2.3-3.5,2.3c-2.1,0-3-1.2-3-3.5V254.5z"/>
	<path d="M936.4,261.5c0,0,1,1.1,2.7,1.1c1,0,1.8-0.5,1.8-1.4c0-2-4.9-1.5-4.9-4.4c0-1.6,1.5-2.5,3.1-2.5c1.9,0,2.8,1,2.8,1
		l-0.6,0.9c0,0-0.8-0.8-2.3-0.8c-0.9,0-1.8,0.4-1.8,1.4c0,2,4.9,1.5,4.9,4.4c0,1.5-1.3,2.5-3.1,2.5c-2.2,0-3.3-1.3-3.3-1.3
		L936.4,261.5z"/>
	<path d="M944.8,255.6h-1.2v-1h1.2v-2.6h1.2v2.6h2.3v1H946v4.5c0,2.1,1.4,2.4,2,2.4c0.3,0,0.4,0,0.4,0v1.1c0,0-0.2,0-0.5,0
		c-1,0-3.2-0.3-3.2-3.4V255.6z"/>
	<path d="M954.6,254.2c2.6,0,4.8,2,4.8,4.7c0,2.7-2.1,4.8-4.8,4.8s-4.8-2.1-4.8-4.8C949.8,256.3,951.9,254.2,954.6,254.2z
		 M954.6,262.6c1.9,0,3.5-1.6,3.5-3.7c0-2.1-1.6-3.6-3.5-3.6s-3.5,1.5-3.5,3.6C951.1,261,952.7,262.6,954.6,262.6z"/>
	<path d="M961.7,254.5h1.2v1.4c0,0.4,0,0.7,0,0.7h0c0.4-1.2,1.9-2.3,3.3-2.3c1.7,0,2.5,0.8,2.8,2.3h0c0.5-1.2,1.8-2.3,3.3-2.3
		c2.2,0,3,1.3,3,3.5v5.8h-1.2v-5.5c0-1.5-0.3-2.7-2-2.7c-1.4,0-2.5,1.2-2.9,2.6c-0.1,0.4-0.2,0.8-0.2,1.3v4.3h-1.2v-5.5
		c0-1.4-0.2-2.7-1.9-2.7c-1.5,0-2.6,1.3-3,2.7c-0.1,0.4-0.1,0.8-0.1,1.2v4.3h-1.2V254.5z"/>
	<path d="M982,254.2c2.5,0,3.8,1.9,3.8,4.2c0,0.2,0,0.6,0,0.6h-7c0.1,2.3,1.6,3.6,3.5,3.6c1.7,0,2.8-1.1,2.8-1.1l0.6,0.9
		c0,0-1.3,1.3-3.3,1.3c-2.7,0-4.7-1.9-4.7-4.7C977.5,256,979.5,254.2,982,254.2z M984.5,258c-0.1-1.9-1.2-2.8-2.6-2.8
		c-1.5,0-2.8,1-3.1,2.8H984.5z"/>
	<path d="M988.1,254.5h1.2v1.6c0,0.4,0,0.7,0,0.7h0c0.4-1.4,1.4-2.4,2.9-2.4c0.3,0,0.5,0.1,0.5,0.1v1.2c0,0-0.2,0-0.5,0
		c-1.3,0-2.2,1-2.6,2.3c-0.2,0.6-0.3,1.2-0.3,1.8v3.8h-1.2V254.5z"/>
	<path d="M994.4,261.5c0,0,1,1.1,2.7,1.1c1,0,1.8-0.5,1.8-1.4c0-2-4.9-1.5-4.9-4.4c0-1.6,1.5-2.5,3.1-2.5c1.9,0,2.8,1,2.8,1
		l-0.6,0.9c0,0-0.8-0.8-2.3-0.8c-0.9,0-1.8,0.4-1.8,1.4c0,2,4.9,1.5,4.9,4.4c0,1.5-1.3,2.5-3.1,2.5c-2.2,0-3.3-1.3-3.3-1.3
		L994.4,261.5z"/>
	<path d="M1002.5,262.1h1.4v1.4h-1.4V262.1z"/>
</g>
<polyline class="st1" points="740.4,140.3 828.7,40 992.4,40 "/>
<path class="st2" d="M746,185c0,94.4-76.6,171-171,171c-94.4,0-171-76.6-171-171c0-94.4,76.6-171,171-171C669.4,14,746,90.6,746,185
	"/>
<path class="st3" d="M641,156H447.4v98.4H641V156z M544.2,272.9c-28.2,0-54.7-1-74.6-2.7c-31.6-2.8-31.6-6.1-31.6-7.3V146.6h212.3
	v116.4c0,1.2,0,4.5-31.6,7.3C598.9,272,572.4,272.9,544.2,272.9"/>
<path class="st4" d="M448.2,156.8h192v96.8h-192V156.8z M651.2,145.8h-1.6H438.8h-1.6v1.6v115.6c0,2.2,2.8,3.7,9.5,5.1
	c5.4,1.1,13,2.1,22.8,3c19.9,1.7,46.5,2.7,74.7,2.7s54.7-1,74.7-2.7c9.7-0.9,17.4-1.8,22.8-3c6.8-1.4,9.5-2.9,9.5-5.1V147.4V145.8z
	 M446.6,255.1h195.2v-100H446.6V255.1z M649.6,147.4v115.6c0,5.1-47.2,9.2-105.4,9.2c-58.2,0-105.4-4.1-105.4-9.2V147.4H649.6"/>
<rect x="443.9" y="152.5" class="st5" width="200.6" height="102.7"/>
<path class="st3" d="M616,294.8c-0.4,0-0.8,0-1.2-0.1l-66.2-10h-0.2l0,0c-1.3-0.1-2.7-0.1-4.1-0.1c-1.6,0-3.2,0-4.7,0.1l-66.1,10
	c-0.4,0.1-0.8,0.1-1.2,0.1c-1.9,0-2.4-1.2-2.5-1.9c-0.2-1.1,0.2-2.5,2.9-3l66-14.7c0.1-0.5,0.2-1,0.2-1.6l0-0.7c0,0,3.7,0,5.1,0
	c1.5,0,5.1,0,5.1,0l0,0.7c0,0.6,0.1,1.1,0.2,1.6l66.1,14.7c2.7,0.5,3.1,1.9,2.9,3C618.4,293.6,618,294.8,616,294.8"/>
<path class="st4" d="M550.1,272.1l-1.5,0c-1.5,0-2.9,0-4.4,0c-1.5,0-2.9,0-4.4,0l-1.5,0l-0.1,1.5c0,0.3-0.1,0.7-0.1,1l-65.5,14.5
	c-3.6,0.7-3.7,2.9-3.5,3.9c0.3,1.6,1.5,2.6,3.3,2.6c0.4,0,0.8,0,1.3-0.1l66-10c1.4-0.1,3-0.1,4.6-0.1c1.4,0,2.7,0,3.9,0.1l0,0l0.4,0
	l66.2,10c0.5,0.1,0.9,0.1,1.3,0.1c1.8,0,3.1-1,3.3-2.6c0.1-0.9,0.1-3.2-3.5-3.9l-65.5-14.5c0-0.3-0.1-0.6-0.1-1L550.1,272.1z
	 M548.6,273.7c0.1,0.8,0.2,1.5,0.3,2.2l66.5,14.8c1.4,0.3,2.5,0.8,2.3,2.1c-0.1,0.9-0.8,1.2-1.8,1.2c-0.3,0-0.7,0-1.1-0.1l-66.3-10
	c0,0,0,0,0,0c-1.3-0.1-2.8-0.1-4.4-0.1c-1.7,0-3.3,0.1-4.7,0.2l-66.1,10c-0.4,0.1-0.7,0.1-1.1,0.1c-0.9,0-1.6-0.3-1.8-1.2
	c-0.2-1.3,0.9-1.8,2.3-2.1l66.5-14.8c0.2-0.7,0.3-1.4,0.3-2.2c1.5,0,2.9,0,4.4,0C545.7,273.7,547.1,273.7,548.6,273.7"/>
<path class="st2" d="M475.2,283.3l2.2-7l3-9.2l5.5-17l2.3-7.2l6.9-21.4c0.7-2.3-0.5-4.8-2.8-5.7c0,0-0.1,0-0.1,0l-23-9
	c-2.4-0.9-5.1,0.2-6.1,2.3l-9.5,20.3l-3.2,6.8l-7.6,16.1l-4.1,8.7l-3.1,6.7c-1,2.2,0.6,4.9,3.6,6.1l29.3,11.6
	C471.5,286.5,474.5,285.6,475.2,283.3"/>
<path class="st6" d="M475.2,283.3l2.2-7l3-9.2l5.5-17l2.3-7.2l6.9-21.4c0.7-2.3-0.5-4.8-2.8-5.7c0,0-0.1,0-0.1,0l-23-9
	c-2.4-0.9-5.1,0.2-6.1,2.3l-9.5,20.3l-3.2,6.8l-7.6,16.1l-4.1,8.7l-3.1,6.7c-1,2.2,0.6,4.9,3.6,6.1l29.3,11.6
	C471.5,286.5,474.5,285.6,475.2,283.3L475.2,283.3z"/>
<path class="st3" d="M457.1,271.2c-3.3-1.3-6-3.4-7.8-6c-0.2-0.3-0.3-0.5-0.5-0.8c-1.7-2.9-1.9-6-0.7-8.7c0.2-0.4,0.4-0.7,0.6-1.1
	c1.3-2.2,3.6-3.8,6.4-4.7c3.2-1,6.9-0.9,10.3,0.5c3.4,1.3,6.2,3.6,7.9,6.5c1.5,2.6,2,5.3,1.5,7.9c-0.1,0.4-0.2,0.7-0.3,1.1
	c-1,2.8-3.3,5-6.5,6c-0.3,0.1-0.6,0.2-1,0.3C463.8,272.8,460.4,272.5,457.1,271.2 M459.5,237.5c1.4,0.5,2.3,1.9,2.1,3.1
	c0,0.2-0.1,0.4-0.2,0.5c-0.6,1.4-2.4,2-4.1,1.3c-1.7-0.6-2.5-2.3-1.9-3.6c0.1-0.2,0.2-0.4,0.3-0.5
	C456.5,237.3,458.1,236.9,459.5,237.5 M458.9,230.9c0.6-1.4,2.4-2,4-1.4c1.6,0.6,2.4,2.2,1.8,3.6c-0.1,0.2-0.2,0.4-0.3,0.5
	c-0.8,1-2.3,1.4-3.7,0.8c-1.4-0.5-2.2-1.8-2-3.1C458.8,231.2,458.9,231.1,458.9,230.9 M462.5,223c0.6-1.4,2.4-2,3.9-1.4
	c1.5,0.6,2.3,2.2,1.7,3.6c-0.6,1.4-2.3,2-3.9,1.4C462.7,225.9,461.9,224.4,462.5,223 M467.1,213.6c0.5-1.1,1.9-1.6,3.2-1.2
	c1.3,0.5,1.9,1.8,1.4,2.9c-0.5,1.1-1.9,1.7-3.2,1.2C467.2,216.1,466.6,214.7,467.1,213.6 M472.2,233c1.6,0.6,2.5,2.2,1.9,3.6
	c-0.1,0.2-0.2,0.5-0.4,0.7c-0.8,0.9-2.2,1.3-3.5,0.8c-1.4-0.5-2.2-1.8-2.1-3c0-0.2,0.1-0.4,0.2-0.7C468.8,233,470.6,232.4,472.2,233
	 M475.3,224.9c1.5,0.6,2.4,2.2,1.8,3.6c-0.5,1.4-2.2,2.1-3.8,1.5c-1.6-0.6-2.4-2.2-1.8-3.6C472.1,225,473.8,224.3,475.3,224.9
	 M484.3,228.3c1.5,0.6,2.4,2.2,1.9,3.6c-0.5,1.4-2.2,2.1-3.7,1.5c-1.6-0.6-2.4-2.2-1.9-3.6C481.1,228.4,482.7,227.7,484.3,228.3
	 M482.9,240.9c-0.7,0.9-2.1,1.2-3.4,0.7c-1.3-0.5-2.2-1.7-2.1-2.9c0-0.3,0.1-0.5,0.1-0.8c0.5-1.4,2.2-2.1,3.8-1.5
	c1.6,0.6,2.5,2.2,2,3.7C483.3,240.4,483.1,240.7,482.9,240.9 M471,244.8c-0.5,1.4-2.3,2-4,1.4c-1.7-0.6-2.6-2.3-2-3.7
	c0.1-0.2,0.1-0.3,0.2-0.4c0.7-1.1,2.3-1.5,3.8-0.9c1.5,0.6,2.3,2,2.1,3.3C471.1,244.5,471,244.6,471,244.8 M480.5,248.4
	c-0.5,1.4-2.2,2.1-3.9,1.4c-1.7-0.6-2.6-2.3-2.1-3.7c0-0.1,0.1-0.2,0.2-0.4c0.7-1.2,2.2-1.6,3.7-1.1c1.5,0.6,2.4,2,2.2,3.4
	C480.6,248.2,480.6,248.3,480.5,248.4 M477.5,276.3l3-9.2l5.5-17l2.3-7.2l6.9-21.4c0.7-2.3-0.5-4.8-2.8-5.7c0,0-0.1,0-0.1,0l-23-9
	c-2.4-0.9-5.1,0.2-6.1,2.3l-9.5,20.3l-3.2,6.8l-7.6,16.1l-4.1,8.7l-3.1,6.7c-1,2.2,0.6,4.9,3.6,6.1l29.3,11.6c3,1.2,6,0.3,6.8-2
	L477.5,276.3z"/>
<path class="st3" d="M470.8,264.5c0.1-0.4,0.2-0.7,0.3-1.1c0.7-4-2.2-8.4-6.9-10.2c-4.7-1.8-9.7-0.5-12,2.8
	c-0.2,0.3-0.4,0.7-0.6,1.1c-1.8,4.1,1.2,9.2,6.6,11.3C463.6,270.5,469.2,268.8,470.8,264.5"/>
<path class="st2" d="M474.8,199.1c-1.1,0.5-1.6,1.7-1.1,2.8c0.5,1.1,1.7,1.6,2.8,1.1c2.4-1,5.1-1.1,7.5-0.1c2.4,1,4.3,2.8,5.4,5.2
	c0.2,0.5,0.7,0.9,1.2,1.1c0.5,0.2,1.1,0.2,1.6,0c1.1-0.5,1.6-1.7,1.1-2.8c-1.5-3.4-4.2-6.1-7.7-7.5
	C482.1,197.6,478.2,197.6,474.8,199.1"/>
<path class="st2" d="M497.1,203.6c0.5,0.2,1.1,0.2,1.6,0c1.1-0.5,1.6-1.7,1.1-2.8c-2.1-4.9-6-8.7-11-10.6c-5-2-10.4-1.9-15.3,0.3
	c-1.1,0.5-1.6,1.7-1.1,2.8c0.5,1.1,1.7,1.6,2.8,1.1c3.8-1.7,8.1-1.7,12-0.2c3.9,1.5,7,4.5,8.6,8.3
	C496.2,203,496.6,203.4,497.1,203.6"/>
<g>
	<path class="st2" d="M512,189.8c0.3,0,0.6,0.2,0.7,0.5l1.6,5.4l1.2,4.6h0.2l1.2-4.6l1.6-5.4c0.1-0.3,0.4-0.5,0.7-0.5h1.3
		c0.5,0,0.7,0.4,0.6,0.8l-4.1,13v8.2c0,0.4-0.2,0.7-0.7,0.7h-1.3c-0.4,0-0.7-0.3-0.7-0.7v-8.2l-4.1-13c-0.2-0.4,0.1-0.8,0.6-0.8H512
		z"/>
</g>
<g>
	<path class="st2" d="M529.1,198.6v10.3c0,2.4-0.9,3.7-3.9,3.7s-3.9-1.3-3.9-3.7v-10.3c0-2.4,0.9-3.7,3.9-3.7
		S529.1,196.2,529.1,198.6z M523.7,198.6v10.2c0,1.3,0.5,1.8,1.5,1.8c1.1,0,1.5-0.4,1.5-1.8v-10.2c0-1.3-0.5-1.8-1.5-1.8
		C524.2,196.9,523.7,197.3,523.7,198.6z"/>
	<path class="st2" d="M531.6,195.7c0-0.4,0.3-0.7,0.7-0.7h1c0.4,0,0.7,0.2,0.7,0.7v13.1c0,1.3,0.3,1.8,1.4,1.8
		c1.1,0,1.7-0.5,1.7-1.8v-13c0-0.4,0.2-0.7,0.7-0.7h1.1c0.4,0,0.7,0.2,0.7,0.7v16.1c0,0.4-0.2,0.7-0.7,0.7h-1.1
		c-0.4,0-0.7-0.3-0.7-0.7v-0.4c-0.8,0.8-1.9,1.2-2.9,1.2c-1.4,0-2.6-0.9-2.6-2.9V195.7z"/>
	<path class="st2" d="M549.8,202.2c0,0.4-0.2,0.7-0.7,0.7h-1.1c-0.4,0-0.7-0.3-0.7-0.7v-3.5c0-1.3-0.4-1.8-1.4-1.8
		c-1.1,0-1.6,0.6-1.6,1.9v13c0,0.4-0.3,0.7-0.7,0.7h-1c-0.4,0-0.7-0.3-0.7-0.7v-16.1c0-0.4,0.3-0.7,0.7-0.7h1c0.4,0,0.7,0.2,0.7,0.7
		v0.4c0.8-0.8,1.9-1.2,2.9-1.2c1.4,0,2.6,0.9,2.6,2.9V202.2z"/>
	<path class="st2" d="M565.1,211.8l-0.7-4.3h-4.4l-0.6,4.3c-0.1,0.4-0.3,0.6-0.7,0.6h-1.3c-0.4,0-0.7-0.3-0.6-0.8l3.3-21.2
		c0.1-0.5,0.3-0.7,0.8-0.7h2.8c0.4,0,0.7,0.2,0.7,0.7l3.3,21.2c0.1,0.5-0.2,0.8-0.6,0.8h-1.3C565.4,212.5,565.1,212.2,565.1,211.8z
		 M560.4,205.3h3.8l-1.1-7.3l-0.7-6.1h-0.2l-0.7,6.1L560.4,205.3z"/>
	<path class="st2" d="M577.1,211.8c0,0.4-0.2,0.7-0.7,0.7h-1.1c-0.4,0-0.7-0.3-0.7-0.7v-0.4c-0.8,0.8-1.9,1.2-2.9,1.2
		c-1.4,0-2.6-0.9-2.6-2.9v-12c0-2,1.2-2.9,2.6-2.9c1,0,2.1,0.4,2.9,1.2V188c0-0.4,0.2-0.7,0.7-0.7h1.1c0.4,0,0.7,0.2,0.7,0.7V211.8z
		 M571.7,208.8c0,1.3,0.3,1.8,1.4,1.8c1.1,0,1.7-0.5,1.7-1.8v-9.8c0-1.3-0.6-1.9-1.7-1.9c-1,0-1.4,0.4-1.4,1.8V208.8z"/>
</g>
<path class="st3" d="M649.4,129.2V44.9c0-3.2-2.6-5.8-5.8-5.8H506.2c-3.2,0-5.8,2.6-5.8,5.8v84.3H649.4z"/>
<path class="st7" d="M649.4,129.2V44.9c0-3.2-2.6-5.8-5.8-5.8H506.2c-3.2,0-5.8,2.6-5.8,5.8v84.3H649.4L649.4,129.2z"/>
<rect x="505.8" y="52.4" class="st2" width="138.3" height="71.6"/>
<rect x="505.8" y="44.5" class="st5" width="138.3" height="63.6"/>
<rect x="573.9" y="114.4" class="st8" width="38.8" height="3.3"/>
<rect x="531.2" y="114.4" class="st5" width="51.8" height="3.3"/>
<path class="st3" d="M587.2,116c0-1.9-1.5-3.4-3.3-3.4c-1.8,0-3.3,1.5-3.3,3.4c0,1.9,1.5,3.4,3.3,3.4
	C585.7,119.4,587.2,117.9,587.2,116"/>
<rect x="487.3" y="128.3" class="st4" width="175.2" height="4.2"/>
<path class="st9" d="M574.8,132.5h-87.5c1.4,1.9,6.1,1.9,7.8,1.9h79.6h79.9c1.7,0,6.5,0,7.8-1.9H574.8z"/>
<path class="st9" d="M561.9,128.3c0,1.4,1.1,2.5,2.5,2.5h20.7c1.4,0,2.5-1.1,2.5-2.5H561.9z"/>
<path class="st2" d="M624.4,66.6c-0.3-0.2-0.7-0.2-1,0l-5,2.7V82l5,2.7c0.1,0.1,0.3,0.1,0.5,0.1c0.2,0,0.4,0,0.5-0.1
	c0.3-0.2,0.6-0.6,0.6-1v-16C625,67.2,624.8,66.8,624.4,66.6"/>
<path class="st2" d="M612.7,63.6h-16.6c-2,0-3.7,1.6-3.7,3.7v16.6c0,2,1.6,3.7,3.7,3.7h16.6c2,0,3.7-1.6,3.7-3.7V67.3
	C616.3,65.3,614.7,63.6,612.7,63.6 M611.2,75.6c0,3.8-3.1,6.8-6.8,6.8c-3.8,0-6.8-3.1-6.8-6.8c0-3.8,3.1-6.8,6.8-6.8
	C608.2,68.7,611.2,71.8,611.2,75.6"/>
<path class="st2" d="M604.4,71.2c-2.4,0-4.4,2-4.4,4.4s2,4.4,4.4,4.4c2.4,0,4.4-2,4.4-4.4S606.8,71.2,604.4,71.2"/>
<g>
	<path class="st2" d="M524.8,66.3c0.3,0,0.5,0.1,0.6,0.4l1.5,4.9l1.1,4.2h0.1l1.1-4.2l1.4-4.9c0.1-0.3,0.3-0.4,0.6-0.4h1.2
		c0.4,0,0.6,0.4,0.5,0.8l-3.7,11.8v7.4c0,0.4-0.2,0.6-0.6,0.6h-1.2c-0.4,0-0.6-0.2-0.6-0.6v-7.4l-3.7-11.8c-0.1-0.4,0.1-0.8,0.5-0.8
		H524.8z"/>
</g>
<g>
	<path class="st2" d="M540.4,74.4v9.3c0,2.2-0.8,3.4-3.6,3.4s-3.6-1.2-3.6-3.4v-9.3c0-2.2,0.8-3.4,3.6-3.4S540.4,72.2,540.4,74.4z
		 M535.5,74.4v9.3c0,1.2,0.4,1.6,1.4,1.6c1,0,1.4-0.4,1.4-1.6v-9.3c0-1.2-0.4-1.6-1.4-1.6C535.9,72.8,535.5,73.2,535.5,74.4z"/>
	<path class="st2" d="M542.7,71.7c0-0.4,0.2-0.6,0.6-0.6h0.9c0.4,0,0.6,0.2,0.6,0.6v11.9c0,1.2,0.3,1.6,1.3,1.6c1,0,1.5-0.5,1.5-1.7
		V71.7c0-0.4,0.2-0.6,0.6-0.6h1c0.4,0,0.6,0.2,0.6,0.6v14.7c0,0.4-0.2,0.6-0.6,0.6h-1c-0.4,0-0.6-0.2-0.6-0.6V86
		c-0.7,0.7-1.7,1.1-2.6,1.1c-1.3,0-2.3-0.8-2.3-2.6V71.7z"/>
	<path class="st2" d="M559.3,77.7c0,0.4-0.2,0.6-0.6,0.6h-1c-0.4,0-0.6-0.2-0.6-0.6v-3.2c0-1.2-0.3-1.6-1.3-1.6
		c-1,0-1.5,0.5-1.5,1.7v11.8c0,0.4-0.2,0.6-0.6,0.6h-0.9c-0.4,0-0.6-0.2-0.6-0.6V71.7c0-0.4,0.2-0.6,0.6-0.6h0.9
		c0.4,0,0.6,0.2,0.6,0.6v0.4c0.7-0.7,1.7-1.1,2.6-1.1c1.3,0,2.3,0.8,2.3,2.6V77.7z"/>
	<path class="st2" d="M573.1,86.4l-0.6-3.9h-4l-0.6,3.9c-0.1,0.4-0.3,0.6-0.6,0.6h-1.2c-0.4,0-0.6-0.3-0.5-0.7l3-19.3
		c0.1-0.4,0.3-0.6,0.7-0.6h2.6c0.4,0,0.6,0.2,0.7,0.6l3,19.3c0.1,0.4-0.1,0.7-0.5,0.7h-1.2C573.4,87,573.2,86.8,573.1,86.4z
		 M568.8,80.5h3.4l-1-6.6l-0.7-5.5h-0.1l-0.7,5.5L568.8,80.5z"/>
	<path class="st2" d="M584.1,86.4c0,0.4-0.2,0.6-0.6,0.6h-1c-0.4,0-0.6-0.2-0.6-0.6V86c-0.7,0.7-1.7,1.1-2.6,1.1
		c-1.3,0-2.3-0.8-2.3-2.6V73.6c0-1.8,1.1-2.6,2.3-2.6c0.9,0,1.9,0.4,2.6,1.1v-7.3c0-0.4,0.2-0.6,0.6-0.6h1c0.4,0,0.6,0.2,0.6,0.6
		V86.4z M579.1,83.6c0,1.2,0.3,1.6,1.3,1.6c1,0,1.5-0.5,1.5-1.7v-9c0-1.2-0.5-1.7-1.5-1.7c-0.9,0-1.3,0.4-1.3,1.6V83.6z"/>
</g>
<path class="st4" d="M634.4,93.2h58.2c2,0,3.5,1.6,3.5,3.5v117.8c0,1.9-1.6,3.5-3.5,3.5h-58.2c-1.9,0-3.5-1.6-3.5-3.5V96.7
	C630.9,94.8,632.5,93.2,634.4,93.2"/>
<path class="st4" d="M700.6,96.7v117.8c0,1.9-1.6,3.5-3.5,3.5h-61.4c-1.3,0-2.4-0.7-3-1.7c-0.3-0.5-0.5-1.1-0.5-1.7
	c0-0.1,0-0.1,0-0.1V96.7c0-1.9,1.6-3.5,3.5-3.5H697C699,93.2,700.6,94.8,700.6,96.7"/>
<path class="st3" d="M697,95.3h-61.3c-0.9,0-1.7,0.8-1.7,1.7v116.4c0,1.5,1.2,2.7,2.7,2.7H696c1.5,0,2.7-1.2,2.7-2.7V97
	C698.7,96.1,697.9,95.3,697,95.3"/>
<path class="st10" d="M631.6,122.2c-0.4,0-0.8-0.4-0.8-0.8v-18.2c0-0.4,0.4-0.8,0.8-0.8h0.2c0.4,0,0.8,0.4,0.8,0.8v18.2
	c0,0.4-0.4,0.8-0.8,0.8H631.6z"/>
<path class="st3" d="M631.9,102.3h-0.2c-0.5,0-1,0.4-1,1v18.2c0,0.5,0.4,1,1,1h0.2c0.5,0,1-0.4,1-1v-18.2
	C632.8,102.8,632.4,102.3,631.9,102.3"/>
<path class="st3" d="M630.4,103.3v18.2c0,0.3,0.3,0.6,0.6,0.6h0.2c0.3,0,0.6-0.3,0.6-0.6v-18.2c0-0.3-0.3-0.6-0.6-0.6H631
	C630.7,102.7,630.4,103,630.4,103.3"/>
<path class="st10" d="M631.6,132.1c-0.4,0-0.8-0.4-0.8-0.8v-4.7c0-0.4,0.4-0.8,0.8-0.8h0.2c0.4,0,0.8,0.4,0.8,0.8v4.7
	c0,0.4-0.4,0.8-0.8,0.8H631.6z"/>
<path class="st3" d="M631.9,125.6h-0.2c-0.5,0-1,0.4-1,1v4.7c0,0.5,0.4,1,1,1h0.2c0.5,0,1-0.4,1-1v-4.7
	C632.8,126,632.4,125.6,631.9,125.6"/>
<path class="st3" d="M630.4,126.6v4.7c0,0.3,0.3,0.6,0.6,0.6h0.2c0.3,0,0.6-0.3,0.6-0.6v-4.7c0-0.3-0.3-0.6-0.6-0.6H631
	C630.7,125.9,630.4,126.2,630.4,126.6"/>
<rect x="638.8" y="100.3" class="st2" width="55.8" height="112.2"/>
<rect x="638.8" y="100.3" class="st11" width="55.8" height="112.2"/>
<rect x="638.8" y="100.3" class="st5" width="55.9" height="82.7"/>
<line class="st12" x1="646.3" y1="190.8" x2="687.1" y2="190.8"/>
<rect x="654.5" y="199.2" class="st5" width="24.4" height="8.5"/>
<g>
	<path class="st2" d="M650.2,117.6c0.3,0,0.5,0.1,0.6,0.4l1.5,4.9l1.1,4.2h0.1l1.1-4.2l1.4-4.9c0.1-0.3,0.3-0.4,0.6-0.4h1.2
		c0.4,0,0.6,0.4,0.5,0.8l-3.7,11.8v7.4c0,0.4-0.2,0.6-0.6,0.6h-1.2c-0.4,0-0.6-0.2-0.6-0.6v-7.4l-3.7-11.8c-0.1-0.4,0.1-0.8,0.5-0.8
		H650.2z"/>
</g>
<g>
	<path class="st2" d="M665.8,125.6v9.3c0,2.2-0.8,3.4-3.6,3.4s-3.6-1.2-3.6-3.4v-9.3c0-2.2,0.8-3.4,3.6-3.4S665.8,123.4,665.8,125.6
		z M660.9,125.7v9.3c0,1.2,0.4,1.6,1.4,1.6c1,0,1.4-0.4,1.4-1.6v-9.3c0-1.2-0.4-1.6-1.4-1.6C661.3,124.1,660.9,124.4,660.9,125.7z"
		/>
	<path class="st2" d="M668.1,123c0-0.4,0.2-0.6,0.6-0.6h0.9c0.4,0,0.6,0.2,0.6,0.6v11.9c0,1.2,0.3,1.6,1.3,1.6c1,0,1.5-0.5,1.5-1.7
		V123c0-0.4,0.2-0.6,0.6-0.6h1c0.4,0,0.6,0.2,0.6,0.6v14.7c0,0.4-0.2,0.6-0.6,0.6h-1c-0.4,0-0.6-0.2-0.6-0.6v-0.4
		c-0.7,0.7-1.7,1.1-2.6,1.1c-1.3,0-2.3-0.8-2.3-2.6V123z"/>
	<path class="st2" d="M684.6,128.9c0,0.4-0.2,0.6-0.6,0.6h-1c-0.4,0-0.6-0.2-0.6-0.6v-3.2c0-1.2-0.3-1.6-1.3-1.6
		c-1,0-1.5,0.5-1.5,1.7v11.8c0,0.4-0.2,0.6-0.6,0.6h-0.9c-0.4,0-0.6-0.2-0.6-0.6V123c0-0.4,0.2-0.6,0.6-0.6h0.9
		c0.4,0,0.6,0.2,0.6,0.6v0.4c0.7-0.7,1.7-1.1,2.6-1.1c1.3,0,2.3,0.8,2.3,2.6V128.9z"/>
</g>
<g>
	<path class="st2" d="M664.6,166.2l-0.6-3.9h-4l-0.6,3.9c-0.1,0.4-0.3,0.6-0.6,0.6h-1.2c-0.4,0-0.6-0.3-0.5-0.7l3-19.3
		c0.1-0.4,0.3-0.6,0.7-0.6h2.6c0.4,0,0.6,0.2,0.7,0.6l3,19.3c0.1,0.4-0.1,0.7-0.5,0.7h-1.2C664.8,166.7,664.6,166.5,664.6,166.2z
		 M660.3,160.3h3.4l-1-6.6l-0.7-5.5h-0.1l-0.7,5.5L660.3,160.3z"/>
	<path class="st2" d="M675.5,166.1c0,0.4-0.2,0.6-0.6,0.6h-1c-0.4,0-0.6-0.2-0.6-0.6v-0.4c-0.7,0.7-1.7,1.1-2.6,1.1
		c-1.3,0-2.3-0.8-2.3-2.6v-10.9c0-1.8,1.1-2.6,2.3-2.6c0.9,0,1.9,0.4,2.6,1.1v-7.3c0-0.4,0.2-0.6,0.6-0.6h1c0.4,0,0.6,0.2,0.6,0.6
		V166.1z M670.5,163.4c0,1.2,0.3,1.6,1.3,1.6c1,0,1.5-0.5,1.5-1.7v-9c0-1.2-0.5-1.7-1.5-1.7c-0.9,0-1.3,0.4-1.3,1.6V163.4z"/>
</g>
<polygon class="st13" points="589.3,288.8 599,283.2 599.7,282.9 600.5,282.8 601.2,282.6 602,282.6 602.8,282.6 603.6,282.6 
	604.5,282.7 605.3,282.9 606.2,283.1 607.1,283.4 608.1,283.7 609,284.1 609.9,284.6 610.9,285.1 611.8,285.7 612.8,286.3 
	613.7,287 614.6,287.7 615.5,288.5 616.4,289.3 617.3,290.1 618.1,291 619,291.9 619.8,292.8 620.6,293.8 621.3,294.8 622,295.8 
	622.7,296.9 623.4,297.9 624.1,299 624.7,300.1 625.3,301.2 625.8,302.4 626.3,303.5 626.8,304.7 627.3,305.8 627.7,307 
	628.1,308.2 628.4,309.3 628.7,310.5 628.9,311.7 629.2,312.8 629.3,314 629.4,315.1 629.5,316.3 629.5,317.4 629.5,318.5 
	629.4,319.5 629.3,320.5 629.2,321.5 628.9,322.4 628.7,323.3 628.4,324.1 628.1,324.9 627.7,325.7 627.3,326.3 626.8,327 
	626.3,327.6 625.8,328.1 625.3,328.6 615.5,334.2 616.1,333.8 616.6,333.2 617.1,332.6 617.5,332 617.9,331.3 618.3,330.5 
	618.6,329.8 618.9,328.9 619.2,328.1 619.4,327.1 619.6,326.2 619.7,325.2 619.8,324.1 619.8,323 619.8,321.9 619.7,320.8 
	619.6,319.6 619.4,318.5 619.2,317.3 618.9,316.1 618.6,315 618.3,313.8 617.9,312.6 617.5,311.5 617.1,310.3 616.6,309.1 
	616.1,308 615.5,306.9 614.9,305.7 614.3,304.6 613.7,303.6 613,302.5 612.3,301.4 611.6,300.4 610.8,299.4 610,298.5 609.2,297.5 
	608.4,296.6 607.5,295.7 606.7,294.9 605.8,294.1 604.9,293.3 604,292.6 603,291.9 602.1,291.3 601.1,290.7 600.2,290.2 
	599.2,289.7 598.3,289.3 597.4,289 596.5,288.7 595.6,288.5 594.7,288.3 593.9,288.2 593.1,288.2 592.3,288.2 591.5,288.3 
	590.7,288.4 590,288.6 "/>
<path class="st14" d="M601.1,333.8c-10.3-5.9-18.6-20.4-18.6-32.3c0-11.9,8.3-16.7,18.6-10.8c10.3,5.9,18.6,20.4,18.6,32.3
	C619.8,334.9,611.4,339.7,601.1,333.8"/>
<polygon class="st15" points="655.8,248 666.3,242 667.1,241.7 667.9,241.5 668.7,241.4 669.5,241.3 670.4,241.3 671.3,241.4 
	672.2,241.5 673.1,241.6 674.1,241.9 675.1,242.2 676.1,242.5 677.1,243 678.1,243.5 679.1,244 680.2,244.7 681.2,245.3 
	682.2,246.1 683.2,246.9 684.1,247.7 685.1,248.5 686,249.4 686.9,250.4 687.8,251.4 688.7,252.4 689.5,253.4 690.3,254.5 
	691.1,255.6 691.9,256.7 692.6,257.9 693.3,259 694,260.2 694.6,261.4 695.2,262.6 695.8,263.9 696.3,265.1 696.8,266.4 
	697.2,267.6 697.6,268.9 698,270.1 698.3,271.4 698.6,272.7 698.8,273.9 699,275.2 699.1,276.4 699.2,277.6 699.2,278.8 699.2,280 
	699.1,281.1 699,282.2 698.8,283.3 698.6,284.3 698.3,285.2 698,286.1 697.6,286.9 697.2,287.7 696.8,288.5 696.3,289.2 
	695.8,289.8 695.2,290.4 694.6,290.9 684.1,297 684.7,296.5 685.3,295.9 685.8,295.2 686.3,294.5 686.7,293.8 687.1,293 
	687.5,292.2 687.8,291.3 688.1,290.3 688.3,289.3 688.5,288.3 688.6,287.2 688.7,286.1 688.7,284.9 688.7,283.7 688.6,282.5 
	688.5,281.2 688.3,280 688.1,278.7 687.8,277.5 687.5,276.2 687.1,275 686.7,273.7 686.3,272.4 685.8,271.2 685.3,269.9 
	684.7,268.7 684.1,267.5 683.5,266.3 682.8,265.1 682.1,263.9 681.4,262.8 680.6,261.7 679.8,260.6 679,259.5 678.2,258.4 
	677.3,257.4 676.4,256.4 675.5,255.5 674.6,254.6 673.6,253.7 672.7,252.9 671.7,252.1 670.7,251.4 669.6,250.7 668.6,250.1 
	667.6,249.5 666.6,249 665.6,248.6 664.6,248.2 663.6,247.9 662.6,247.7 661.7,247.5 660.8,247.4 659.9,247.4 659,247.4 
	658.2,247.5 657.4,247.6 656.6,247.8 "/>
<path class="st16" d="M668.6,296.5c-11.1-6.4-20.1-22-20.1-34.8c0-12.8,9-18,20.1-11.6c11.1,6.4,20.1,22,20.1,34.8
	C688.7,297.7,679.7,302.9,668.6,296.5"/>
<polygon class="st15" points="583.8,289.7 594.3,283.6 595,283.3 595.8,283.1 596.6,283 597.5,282.9 598.3,282.9 599.2,283 
	600.1,283.1 601.1,283.3 602,283.5 603,283.8 604,284.2 605,284.6 606,285.1 607,285.7 608.1,286.3 609.1,287 610.1,287.7 
	611.1,288.5 612,289.3 613,290.2 613.9,291.1 614.8,292 615.7,293 616.6,294 617.4,295 618.3,296.1 619,297.2 619.8,298.3 
	620.5,299.5 621.2,300.7 621.9,301.8 622.5,303 623.1,304.3 623.7,305.5 624.2,306.7 624.7,308 625.1,309.2 625.5,310.5 
	625.9,311.8 626.2,313 626.5,314.3 626.7,315.5 626.9,316.8 627,318 627.1,319.2 627.1,320.4 627.1,321.6 627,322.8 626.9,323.8 
	626.7,324.9 626.5,325.9 626.2,326.8 625.9,327.7 625.5,328.6 625.1,329.4 624.7,330.1 624.2,330.8 623.7,331.4 623.1,332 
	622.5,332.5 612,338.6 612.6,338.1 613.2,337.5 613.7,336.9 614.2,336.2 614.6,335.4 615,334.6 615.4,333.8 615.7,332.9 616,331.9 
	616.2,330.9 616.4,329.9 616.5,328.8 616.6,327.7 616.6,326.5 616.6,325.3 616.5,324.1 616.4,322.8 616.2,321.6 616,320.4 
	615.7,319.1 615.4,317.8 615,316.6 614.6,315.3 614.2,314.1 613.7,312.8 613.2,311.6 612.6,310.3 612,309.1 611.4,307.9 
	610.7,306.7 610,305.5 609.3,304.4 608.5,303.3 607.8,302.2 606.9,301.1 606.1,300.1 605.2,299 604.3,298.1 603.4,297.1 
	602.5,296.2 601.5,295.4 600.6,294.5 599.6,293.8 598.6,293 597.6,292.4 596.5,291.7 595.5,291.2 594.5,290.7 593.5,290.2 
	592.5,289.9 591.5,289.6 590.6,289.3 589.6,289.2 588.7,289 587.8,289 587,289 586.1,289.1 585.3,289.2 584.5,289.4 "/>
<path class="st16" d="M596.5,338.1c-11.1-6.4-20.1-22-20.1-34.8c0-12.8,9-18,20.1-11.6c11.1,6.4,20.1,22,20.1,34.8
	C616.6,339.3,607.6,344.5,596.5,338.1"/>
<path class="st17" d="M660.4,225.5l-0.4-1.5l-0.5-1.4l-0.6-1.3l-0.6-1.2l-0.7-1.2l-0.8-1.1l-0.8-1l-0.3-0.3h0
	c7.4,1.7,12.5,8.3,13.3,18.8c0.1,1,0.1,9.7,0.1,10.8c0,1.4-0.1,2.6-0.2,4.1l0,0l0,0.1l-0.4-0.2c-2.8-1.6-5.4-2.5-7.9-2.7l0,0
	C661.9,242.4,661.5,230.7,660.4,225.5"/>
<path class="st17" d="M630.2,207.6l2-1.1l1.9-1l1.9-0.8l1.9-0.7l1.9-0.6l1.8-0.5l1.8-0.3l1.7-0.2l1.7-0.1l1.7,0l1.6,0.1l1.6,0.3
	l1.5,0.4l1.5,0.5l1.4,0.6l1.3,0.7l7.8,4.5l-1.3-0.7l-1.4-0.6l-1.4-0.5l-1.5-0.4l-1.6-0.3l-1.6-0.1l-1.7,0L653,207l-1.7,0.2l-1.8,0.3
	l-1.8,0.5l-1.9,0.6l-1.9,0.7l-1.9,0.8l-1.9,1l-2,1.1l-2,1.2l-1.9,1.3l-1.9,1.4l-1.9,1.5l-1.9,1.6l-1.8,1.6l-1.8,1.7l-1.7,1.8
	l-1.7,1.9l-1.7,1.9l-1.6,2l-1.6,2.1l-1.5,2.1l-1.4,2.2l-1.4,2.2l-1.3,2.2l-1.3,2.3l-1.2,2.3l-1.1,2.3l-1.1,2.4l-1,2.4l-0.9,2.4
	l-0.8,2.4l-0.8,2.4L602,262l-0.6,2.4l-0.5,2.4l-0.4,2.4l-0.3,2.4l-0.2,2.4l-0.1,10.1l0,2.3l0,0.6l0,0.6l0,0.6l0,0.5l0,0.5l0,0.5
	c-2.8-1.6-5.4-2.5-7.8-2.7l0-2.4l0-0.5l0-0.5l0-0.6l0-0.6l0-0.6l0-10l0.1-2.3l0.2-2.4l0.3-2.4l0.4-2.4l0.5-2.4l0.6-2.4l0.7-2.4
	l0.8-2.4l0.8-2.4l0.9-2.4l1-2.4l1.1-2.4l1.1-2.3l1.2-2.3l1.3-2.3l1.3-2.2l1.4-2.2l1.4-2.2l1.5-2.1l1.6-2.1l1.6-2l1.7-1.9l1.7-1.9
	l1.7-1.8l1.8-1.7l1.8-1.6l1.9-1.6l1.9-1.5l1.9-1.4l1.9-1.3L630.2,207.6z"/>
<polygon class="st18" points="654.4,251.9 656.7,250.6 657.4,250.4 658.1,250.2 658.8,250.1 659.6,250 660.4,250 661.2,250.1 
	662,250.2 662.8,250.3 663.7,250.5 664.6,250.8 665.5,251.1 666.4,251.5 667.3,252 668.3,252.5 669.2,253.1 670.1,253.7 671,254.3 
	671.9,255 672.8,255.8 673.7,256.6 674.5,257.4 675.3,258.2 676.1,259.1 676.9,260 677.7,261 678.4,262 679.1,262.9 679.8,264 
	680.5,265 681.1,266.1 681.7,267.1 682.3,268.2 682.8,269.3 683.3,270.5 683.8,271.6 684.3,272.7 684.7,273.9 685,275 685.3,276.1 
	685.6,277.3 685.9,278.4 686.1,279.6 686.2,280.7 686.4,281.8 686.4,282.9 686.5,284 686.4,285.1 686.4,286.1 686.2,287.1 
	686.1,288 685.9,288.9 685.6,289.8 685.3,290.6 685,291.4 684.7,292.1 684.3,292.7 683.8,293.4 683.3,294 682.8,294.5 682.3,295 
	680,296.3 680.6,295.8 681.1,295.3 681.6,294.7 682,294.1 682.4,293.4 682.8,292.7 683.1,291.9 683.4,291.1 683.6,290.2 
	683.8,289.3 684,288.4 684.1,287.4 684.2,286.4 684.2,285.3 684.2,284.2 684.1,283.1 684,282 683.8,280.9 683.6,279.7 683.4,278.6 
	683.1,277.5 682.8,276.3 682.4,275.2 682,274 681.6,272.9 681.1,271.8 680.6,270.7 680,269.5 679.5,268.5 678.9,267.4 678.2,266.3 
	677.6,265.3 676.9,264.3 676.2,263.3 675.4,262.3 674.7,261.3 673.9,260.4 673.1,259.5 672.2,258.7 671.4,257.9 670.5,257.1 
	669.7,256.3 668.8,255.6 667.9,255 666.9,254.4 666,253.8 665.1,253.3 664.1,252.8 663.2,252.4 662.3,252.1 661.4,251.8 
	660.6,251.6 659.7,251.5 658.9,251.4 658.1,251.3 657.3,251.3 656.6,251.4 655.8,251.5 655.1,251.7 "/>
<path class="st17" d="M666,295.8c-10-5.8-18.2-19.9-18.2-31.5c0-11.6,8.1-16.3,18.2-10.5c10,5.8,18.2,19.9,18.2,31.5
	C684.2,296.9,676,301.6,666,295.8"/>
<path class="st18" d="M666,290.3c-7.4-4.3-13.4-14.7-13.4-23.2c0-8.6,6-12,13.4-7.8c7.4,4.3,13.4,14.7,13.4,23.2
	C679.4,291.1,673.4,294.6,666,290.3"/>
<polygon class="st17" points="655.5,259.1 655.6,259 655,259.8 654.5,260.8 654,262 653.7,263.3 653.5,264.7 653.4,266.2 653.4,267 
	653.5,267.9 653.6,268.7 653.7,269.5 653.8,270.3 654,271.2 654.2,272 654.5,272.9 654.7,273.7 655,274.5 655.4,275.4 655.7,276.2 
	656.1,277 656.5,277.9 656.9,278.7 657.3,279.5 657.8,280.2 658.3,281 658.8,281.8 659.3,282.5 659.9,283.2 660.4,283.9 661,284.6 
	661.6,285.2 662.2,285.9 662.8,286.5 663.5,287 664.1,287.6 664.8,288.1 665.5,288.6 666.1,289 666.8,289.5 668.2,290.2 
	669.5,290.7 670.8,291.1 672.1,291.3 673.2,291.3 674.3,291.1 675.4,290.9 676.3,290.4 677.2,289.8 677.3,289.7 677.1,289.9 
	676.3,290.6 675.5,291.2 674.5,291.7 673.5,292 672.4,292.1 671.2,292.1 670,291.9 668.7,291.5 667.4,291 666,290.3 665.3,289.9 
	664.6,289.4 663.9,288.9 663.3,288.4 662.6,287.9 662,287.3 661.4,286.7 660.8,286.1 660.2,285.4 659.6,284.7 659,284 658.5,283.3 
	658,282.6 657.5,281.8 657,281.1 656.5,280.3 656.1,279.5 655.6,278.7 655.2,277.9 654.9,277.1 654.5,276.2 654.2,275.4 
	653.9,274.5 653.6,273.7 653.4,272.9 653.2,272 653,271.2 652.8,270.3 652.7,269.5 652.6,268.7 652.6,267.9 652.6,267.1 
	652.6,265.5 652.8,264.1 653.2,262.8 653.6,261.6 654.2,260.6 654.9,259.7 "/>
<path class="st18" d="M638,212.1c21.2-12.2,38.4-2.3,38.4,22.2l0,9.4c0,0.9-0.1,1.6-0.1,2.5l-7.3,4.2c0.1-1.5,0.2-2.7,0.2-4.2
	c0-1,0-9.8-0.1-10.8c-1.4-17.6-14.7-24.4-31-15c-16.6,9.6-30.1,32.3-31.1,51.7c0,0.8-0.1,9.2-0.1,10c0,1.2,0.1,2.4,0.2,3.5l-0.5,0.4
	l-6.7,3.6c-0.1-1.1-0.1-2.2-0.1-3.3c0-1.2,0-10.2,0.1-11.4C601.4,251.2,617.9,223.7,638,212.1"/>
<polygon class="st18" points="585.6,298.2 586.6,297.7 587.1,297.4 587.6,297.2 588.1,297 588.7,296.9 589.2,296.8 589.8,296.7 
	590.4,296.7 591.1,296.8 591.7,296.8 592.4,297 593,297.1 593.7,297.3 594.4,297.6 595.1,297.9 595.8,298.3 596.5,298.7 
	597.3,299.1 598,299.6 598.7,300.1 599.4,300.6 600,301.2 600.7,301.8 601.4,302.4 602,303.1 602.6,303.8 603.2,304.5 603.8,305.2 
	604.4,306 604.9,306.7 605.5,307.5 606,308.3 606.5,309.1 606.9,310 607.4,310.8 607.8,311.7 608.2,312.5 608.6,313.4 608.9,314.3 
	609.2,315.2 609.5,316 609.7,316.9 610,317.8 610.2,318.7 610.3,319.6 610.4,320.4 610.5,321.3 610.6,322.2 610.6,323 610.6,323.8 
	610.5,324.6 610.4,325.4 610.3,326.1 610.2,326.8 610,327.5 609.7,328.1 609.5,328.7 609.2,329.2 608.9,329.8 608.6,330.2 
	608.2,330.7 607.8,331.1 607.4,331.5 606.9,331.8 606.5,332.1 605.5,332.7 605.9,332.4 606.4,332 606.8,331.7 607.2,331.3 
	607.6,330.8 607.9,330.3 608.2,329.8 608.5,329.3 608.7,328.7 609,328 609.2,327.4 609.3,326.7 609.4,326 609.5,325.2 609.6,324.4 
	609.6,323.6 609.6,322.7 609.5,321.9 609.4,321 609.3,320.1 609.2,319.3 609,318.4 608.7,317.5 608.5,316.6 608.2,315.7 
	607.9,314.9 607.6,314 607.2,313.1 606.8,312.3 606.4,311.4 605.9,310.6 605.5,309.7 605,308.9 604.5,308.1 603.9,307.3 
	603.4,306.5 602.8,305.8 602.2,305.1 601.6,304.3 601,303.7 600.4,303 599.7,302.4 599,301.8 598.4,301.2 597.7,300.7 597,300.1 
	596.3,299.7 595.5,299.2 594.8,298.8 594.1,298.5 593.4,298.2 592.7,297.9 592,297.7 591.4,297.5 590.7,297.4 590.1,297.3 
	589.4,297.3 588.8,297.3 588.2,297.4 587.7,297.5 587.1,297.6 586.6,297.8 586.1,298 "/>
<path class="st19" d="M595.5,331.7c-7.8-4.5-14.1-15.4-14.1-24.3c0-9,6.3-12.6,14.1-8.1c7.8,4.5,14.1,15.4,14.1,24.4
	C609.6,332.5,603.3,336.2,595.5,331.7"/>
<path class="st20" d="M657,272.9c-1.9,2.9-2,6.8,0,9.8c2,3,5.5,4.3,8.9,3.6"/>
<g>
	<defs>
		<rect id="SVGID_1_" x="403" y="13" width="344" height="344"/>
	</defs>
	<clipPath id="SVGID_2_">
		<use xlink:href="#SVGID_1_"  style="overflow:visible;"/>
	</clipPath>
	<path class="st21" d="M645,271.4c-3.4,6.3-3.3,14.2,1,20.5c4.3,6.2,11.5,9.2,18.5,8.4 M633.1,317c4.2-5.8,5.1-13.7,1.6-20.5
		c-3.4-6.7-10.2-10.6-17.2-10.7"/>
	<path class="st22" d="M746,185c0,94.4-76.6,171-171,171c-94.4,0-171-76.6-171-171c0-94.4,76.6-171,171-171
		C669.4,14,746,90.6,746,185L746,185z"/>
</g>
</svg>
