<?xml version="1.0" encoding="utf-8"?>
<!-- Generator: Adobe Illustrator 24.2.3, SVG Export Plug-In . SVG Version: 6.00 Build 0)  -->
<svg version="1.1" id="Layer_1" xmlns="http://www.w3.org/2000/svg" xmlns:xlink="http://www.w3.org/1999/xlink" x="0px" y="0px"
	 viewBox="0 0 1150 370" style="enable-background:new 0 0 1150 370;" xml:space="preserve">
<style type="text/css">
	.st0{fill:#004D71;}
	.st1{fill:#5B6670;}
	.st2{fill:none;stroke:#5B6670;}
	.st3{fill:#FFFFFF;}
	.st4{fill:#455057;}
	.st5{fill:none;stroke:#CCC4C2;stroke-width:2.034;stroke-miterlimit:10;}
	.st6{fill:#EF5224;}
	.st7{fill:#D6D9DB;}
	.st8{fill:#CCC4C2;}
	.st9{fill:#A39E9D;}
	.st10{fill:none;stroke:#ADB2B7;stroke-width:2.8528;stroke-miterlimit:10;}
	.st11{fill:#CA7A53;}
	.st12{fill:#DB8F67;}
	.st13{fill:#82C836;}
	.st14{fill:none;stroke:#FFFFFF;stroke-width:2.4075;stroke-miterlimit:10;}
	.st15{clip-path:url(#SVGID_2_);fill:#ED8B74;}
	.st16{clip-path:url(#SVGID_2_);fill:#FAA488;}
	.st17{clip-path:url(#SVGID_2_);fill:#EF5224;}
	.st18{clip-path:url(#SVGID_2_);fill:#FFFFFF;}
	.st19{clip-path:url(#SVGID_2_);fill:#231F20;}
	.st20{clip-path:url(#SVGID_2_);fill:#004D71;}
	.st21{clip-path:url(#SVGID_2_);fill:#BA694B;}
	.st22{clip-path:url(#SVGID_2_);fill:#CF8061;}
	.st23{clip-path:url(#SVGID_2_);fill:#455057;}
	.st24{clip-path:url(#SVGID_2_);fill:#F5957A;}
	.st25{clip-path:url(#SVGID_2_);fill:#FDA381;}
	.st26{clip-path:url(#SVGID_4_);fill:none;stroke:#F05325;stroke-width:1.9971;stroke-miterlimit:10;}
</style>
<g>
	<g>
		<path class="st0" d="M21,62.9h5c1.7,0,2.5,0.1,3.1,0.4c1.6,0.7,2.6,2.2,2.6,4.3c0,1.9-1,3.6-2.6,4.3v0c0,0,0.2,0.2,0.5,0.8
			l3.2,5.8h-3.2l-3.1-5.8h-2.7v5.8H21V62.9z M26.4,70.2c1.5,0,2.5-0.9,2.5-2.5c0-1.5-0.6-2.4-2.9-2.4h-2.2v4.9H26.4z"/>
		<path class="st0" d="M35.5,62.9h9.4v2.4h-6.5v4.1h5.3v2.4h-5.3v4.2h6.9v2.4h-9.7V62.9z"/>
		<path class="st0" d="M55.9,74.5h-5.5l-1.3,4h-2.9l5.5-15.6h3l5.5,15.6h-2.9L55.9,74.5z M53.1,65.6c0,0-0.4,1.5-0.7,2.4l-1.4,4.2
			h4.1L53.8,68C53.5,67.1,53.2,65.6,53.1,65.6L53.1,65.6z"/>
		<path class="st0" d="M62.1,62.9H65v13.2h6.8v2.4h-9.6V62.9z"/>
		<path class="st0" d="M82.6,65.3h-5.1v-2.4h13.1v2.4h-5.1v13.2h-2.8V65.3z"/>
		<path class="st0" d="M92.6,62.9h2.8v15.6h-2.8V62.9z"/>
		<path class="st0" d="M100.2,62.9h3l3.1,7.7c0.4,0.9,0.8,2.3,0.8,2.3h0c0,0,0.4-1.4,0.8-2.3l3.1-7.7h3l1.3,15.6h-2.8l-0.7-8.7
			c-0.1-1,0-2.4,0-2.4h0c0,0-0.5,1.5-0.8,2.4l-2.5,6.1h-2.5l-2.5-6.1c-0.4-0.9-0.9-2.4-0.9-2.4h0c0,0,0,1.4,0,2.4l-0.7,8.7h-2.8
			L100.2,62.9z"/>
		<path class="st0" d="M118.7,62.9h9.4v2.4h-6.5v4.1h5.3v2.4h-5.3v4.2h6.9v2.4h-9.7V62.9z"/>
		<path class="st0" d="M136.7,62.9h5.6c2.8,0,4.8,1.5,4.8,4c0,1.5-0.7,2.7-1.9,3.3v0c1.7,0.5,2.5,2.1,2.5,3.7c0,3.1-2.5,4.5-5.4,4.5
			h-5.7V62.9z M142.3,69.3c1.2,0,1.9-0.9,1.9-2s-0.7-1.9-2-1.9h-2.7v3.9H142.3z M142.6,76.1c1.5,0,2.3-0.9,2.3-2.3
			c0-1.3-0.8-2.2-2.3-2.2h-3v4.5H142.6z"/>
		<path class="st0" d="M150.8,62.9h2.8v15.6h-2.8V62.9z"/>
		<path class="st0" d="M157.6,62.9h5.3c4.8,0,8,2.9,8,7.8s-3.1,7.8-8,7.8h-5.3V62.9z M162.8,76.1c3.2,0,5.2-1.9,5.2-5.4
			c0-3.5-2.1-5.3-5.2-5.3h-2.3v10.7H162.8z"/>
		<path class="st0" d="M173.9,62.9h5.3c4.8,0,8,2.9,8,7.8s-3.1,7.8-8,7.8h-5.3V62.9z M179,76.1c3.2,0,5.2-1.9,5.2-5.4
			c0-3.5-2.1-5.3-5.2-5.3h-2.3v10.7H179z"/>
		<path class="st0" d="M190.1,62.9h2.8v15.6h-2.8V62.9z"/>
		<path class="st0" d="M196.9,62.9h2.8l5.9,9c0.6,0.9,1.3,2.4,1.3,2.4h0c0,0-0.2-1.5-0.2-2.4v-9h2.8v15.6h-2.8l-5.9-9
			c-0.6-0.9-1.3-2.4-1.3-2.4h0c0,0,0.2,1.5,0.2,2.4v9h-2.8V62.9z"/>
		<path class="st0" d="M220.7,62.6c3.8,0,5.8,2,5.8,2l-1.4,2.1c0,0-1.7-1.5-4.2-1.5c-3.5,0-5.4,2.4-5.4,5.4c0,3.4,2.3,5.6,5.2,5.6
			c2.4,0,3.9-1.6,3.9-1.6v-1.8h-2.4v-2.4h5v8.2h-2.4v-0.7c0-0.3,0-0.7,0-0.7h0c0,0-1.6,1.7-4.5,1.7c-4.1,0-7.7-3.2-7.7-8.1
			C212.6,66.1,216,62.6,220.7,62.6z"/>
		<path class="st0" d="M243.5,74.5H238l-1.3,4h-2.9l5.5-15.6h3l5.5,15.6h-2.9L243.5,74.5z M240.7,65.6c0,0-0.4,1.5-0.7,2.4l-1.4,4.2
			h4.1l-1.4-4.2C241.1,67.1,240.8,65.6,240.7,65.6L240.7,65.6z"/>
		<path class="st0" d="M249.5,62.9h2.8v10c0,2.1,1.4,3.3,3.5,3.3s3.5-1.2,3.5-3.3v-10h2.8v10c0,3.5-2.5,5.9-6.3,5.9
			c-3.8,0-6.3-2.4-6.3-5.9V62.9z"/>
		<path class="st0" d="M272.8,62.6c3.8,0,5.8,2.1,5.8,2.1l-1.4,2.1c0,0-1.8-1.7-4.3-1.7c-3.3,0-5.2,2.5-5.2,5.4c0,3,2,5.6,5.3,5.6
			c2.7,0,4.5-2,4.5-2l1.5,2c0,0-2.2,2.5-6.1,2.5c-4.8,0-8.1-3.5-8.1-8.1C264.8,66.1,268.2,62.6,272.8,62.6z"/>
		<path class="st0" d="M284.8,65.3h-5.1v-2.4h13.1v2.4h-5.1v13.2h-2.8V65.3z"/>
		<path class="st0" d="M294.9,62.9h2.8v15.6h-2.8V62.9z"/>
		<path class="st0" d="M308.7,62.6c4.6,0,8.1,3.5,8.1,8c0,4.6-3.5,8.2-8.1,8.2c-4.6,0-8.1-3.6-8.1-8.2
			C300.6,66.1,304.1,62.6,308.7,62.6z M308.7,76.2c2.9,0,5.1-2.4,5.1-5.6c0-3.1-2.3-5.4-5.1-5.4c-2.9,0-5.1,2.3-5.1,5.4
			C303.5,73.8,305.8,76.2,308.7,76.2z"/>
		<path class="st0" d="M319.6,62.9h2.8l5.9,9c0.6,0.9,1.3,2.4,1.3,2.4h0c0,0-0.2-1.5-0.2-2.4v-9h2.8v15.6h-2.8l-5.9-9
			c-0.6-0.9-1.3-2.4-1.3-2.4h0c0,0,0.2,1.5,0.2,2.4v9h-2.8V62.9z"/>
	</g>
	<g>
		<path d="M46,109.5h-5.1l-1.4,4h-1.3l4.6-12.7h1.3l4.6,12.7h-1.3L46,109.5z M43.4,102.2c0,0-0.3,1-0.5,1.6l-1.7,4.6h4.4l-1.7-4.6
			C43.7,103.2,43.5,102.2,43.4,102.2L43.4,102.2z"/>
		<path d="M50.5,104.5h1.2v1.4c0,0.4,0,0.7,0,0.7h0c0.3-0.8,1.5-2.3,3.6-2.3c2.2,0,3,1.3,3,3.5v5.8h-1.2v-5.4c0-1.4-0.2-2.7-2-2.7
			c-1.5,0-2.9,1.1-3.3,2.6c-0.1,0.4-0.1,0.8-0.1,1.2v4.3h-1.2V104.5z"/>
		<path d="M70.8,107.9h0.5v-0.2c0-1.7-1-2.3-2.3-2.3c-1.5,0-2.6,0.9-2.6,0.9l-0.6-0.9c0,0,1.2-1,3.2-1c2.2,0,3.4,1.2,3.4,3.5v5.8
			h-1.2v-1c0-0.5,0-0.8,0-0.8h0c0,0-0.8,2-3,2c-1.5,0-3.1-0.9-3.1-2.7C65.3,108,69.2,107.9,70.8,107.9z M68.5,112.7
			c1.7,0,2.8-1.8,2.8-3.4v-0.4h-0.5c-1.4,0-4.3,0.1-4.3,2.1C66.5,111.8,67.2,112.7,68.5,112.7z"/>
		<path d="M75.2,104.5h1.2v5.4c0,1.4,0.2,2.7,2,2.7c2.1,0,3.3-1.8,3.3-3.8v-4.3H83v9.1h-1.2v-1.4c0-0.4,0-0.7,0-0.7h0
			c-0.4,0.9-1.5,2.3-3.5,2.3c-2.1,0-3-1.2-3-3.5V104.5z"/>
		<path d="M90.1,104.2c2.2,0,3.3,1.3,3.3,1.3l-0.6,0.9c0,0-1-1.1-2.6-1.1c-2,0-3.5,1.5-3.5,3.6c0,2.1,1.6,3.6,3.6,3.6
			c1.8,0,2.9-1.3,2.9-1.3l0.6,1c0,0-1.2,1.4-3.5,1.4c-2.7,0-4.8-1.9-4.8-4.7C85.3,106.2,87.4,104.2,90.1,104.2z"/>
		<path d="M96.2,105.6H95v-1h1.2v-2.6h1.2v2.6h2.3v1h-2.3v4.5c0,2.1,1.4,2.4,2,2.4c0.3,0,0.4,0,0.4,0v1.1c0,0-0.2,0-0.5,0
			c-1,0-3.2-0.3-3.2-3.4V105.6z"/>
		<path d="M101.8,100.9h1.3v1.5h-1.3V100.9z M101.8,104.5h1.2v9.1h-1.2V104.5z"/>
		<path d="M110.1,104.2c2.6,0,4.8,2,4.8,4.7c0,2.7-2.1,4.8-4.8,4.8s-4.8-2.1-4.8-4.8C105.4,106.3,107.5,104.2,110.1,104.2z
			 M110.1,112.6c1.9,0,3.5-1.6,3.5-3.7c0-2.1-1.6-3.6-3.5-3.6c-1.9,0-3.5,1.5-3.5,3.6C106.6,111,108.2,112.6,110.1,112.6z"/>
		<path d="M117.2,104.5h1.2v1.4c0,0.4,0,0.7,0,0.7h0c0.3-0.8,1.5-2.3,3.6-2.3c2.2,0,3,1.3,3,3.5v5.8h-1.2v-5.4c0-1.4-0.2-2.7-2-2.7
			c-1.5,0-2.9,1.1-3.3,2.6c-0.1,0.4-0.1,0.8-0.1,1.2v4.3h-1.2V104.5z"/>
		<path d="M132.7,100.9h1.3v1.5h-1.3V100.9z M132.7,104.5h1.2v9.1h-1.2V104.5z"/>
		<path d="M136.8,111.5c0,0,1,1.1,2.7,1.1c1,0,1.8-0.5,1.8-1.4c0-2-4.9-1.5-4.9-4.4c0-1.6,1.5-2.5,3.1-2.5c1.9,0,2.8,1,2.8,1
			l-0.6,0.9c0,0-0.8-0.8-2.3-0.8c-0.9,0-1.8,0.4-1.8,1.4c0,2,4.9,1.5,4.9,4.4c0,1.5-1.3,2.5-3.1,2.5c-2.2,0-3.3-1.3-3.3-1.3
			L136.8,111.5z"/>
		<path d="M149.7,100.9h1.3v1.5h-1.3V100.9z M149.7,104.5h1.2v9.1h-1.2V104.5z"/>
		<path d="M153.9,104.5h1.2v1.4c0,0.4,0,0.7,0,0.7h0c0.3-0.8,1.5-2.3,3.6-2.3c2.2,0,3,1.3,3,3.5v5.8h-1.2v-5.4c0-1.4-0.2-2.7-2-2.7
			c-1.5,0-2.9,1.1-3.3,2.6c-0.1,0.4-0.1,0.8-0.1,1.2v4.3h-1.2V104.5z"/>
		<path d="M164.5,100.9h1.3v1.5h-1.3V100.9z M164.6,104.5h1.2v9.1h-1.2V104.5z"/>
		<path d="M169.1,105.6h-1.2v-1h1.2v-2.6h1.2v2.6h2.3v1h-2.3v4.5c0,2.1,1.4,2.4,2,2.4c0.3,0,0.4,0,0.4,0v1.1c0,0-0.2,0-0.5,0
			c-1,0-3.2-0.3-3.2-3.4V105.6z"/>
		<path d="M174.7,100.9h1.3v1.5h-1.3V100.9z M174.8,104.5h1.2v9.1h-1.2V104.5z"/>
		<path d="M183.8,107.9h0.5v-0.2c0-1.7-1-2.3-2.3-2.3c-1.5,0-2.6,0.9-2.6,0.9l-0.6-0.9c0,0,1.2-1,3.2-1c2.2,0,3.4,1.2,3.4,3.5v5.8
			h-1.2v-1c0-0.5,0-0.8,0-0.8h0c0,0-0.8,2-3,2c-1.5,0-3.1-0.9-3.1-2.7C178.2,108,182.2,107.9,183.8,107.9z M181.5,112.7
			c1.7,0,2.8-1.8,2.8-3.4v-0.4h-0.5c-1.4,0-4.3,0.1-4.3,2.1C179.5,111.8,180.1,112.7,181.5,112.7z"/>
		<path d="M188.7,105.6h-1.2v-1h1.2v-2.6h1.2v2.6h2.3v1h-2.3v4.5c0,2.1,1.4,2.4,2,2.4c0.3,0,0.4,0,0.4,0v1.1c0,0-0.2,0-0.5,0
			c-1,0-3.2-0.3-3.2-3.4V105.6z"/>
		<path d="M198.2,104.2c2.5,0,3.8,1.9,3.8,4.2c0,0.2,0,0.6,0,0.6h-7c0.1,2.3,1.6,3.6,3.5,3.6c1.7,0,2.8-1.1,2.8-1.1l0.6,0.9
			c0,0-1.3,1.3-3.3,1.3c-2.7,0-4.7-1.9-4.7-4.7C193.7,106,195.7,104.2,198.2,104.2z M200.7,108c-0.1-1.9-1.2-2.8-2.6-2.8
			c-1.5,0-2.8,1-3.1,2.8H200.7z"/>
		<path d="M207.8,104.2c2.2,0,3,1.7,3,1.7h0c0,0,0-0.3,0-0.7v-4.4h1.2v12.7h-1.2v-1c0-0.4,0-0.6,0-0.6h0c0,0-0.7,1.8-3.1,1.8
			c-2.4,0-3.9-1.9-3.9-4.8C203.7,106.1,205.4,104.2,207.8,104.2z M207.8,112.6c1.5,0,2.9-1.1,2.9-3.7c0-1.8-0.9-3.6-2.9-3.6
			c-1.6,0-2.9,1.4-2.9,3.6C205,111.2,206.1,112.6,207.8,112.6z"/>
		<path d="M220.1,105.6h-1.2v-1h1.2v-2.6h1.2v2.6h2.3v1h-2.3v4.5c0,2.1,1.4,2.4,2,2.4c0.3,0,0.4,0,0.4,0v1.1c0,0-0.2,0-0.5,0
			c-1,0-3.2-0.3-3.2-3.4V105.6z"/>
		<path d="M229.9,104.2c2.6,0,4.8,2,4.8,4.7c0,2.7-2.1,4.8-4.8,4.8c-2.6,0-4.8-2.1-4.8-4.8C225.1,106.3,227.3,104.2,229.9,104.2z
			 M229.9,112.6c1.9,0,3.5-1.6,3.5-3.7c0-2.1-1.6-3.6-3.5-3.6c-1.9,0-3.5,1.5-3.5,3.6C226.4,111,228,112.6,229.9,112.6z"/>
		<path d="M241.8,104.5h1.2v0.9c0,0.4,0,0.7,0,0.7h0c0,0,0.7-1.8,3.1-1.8c2.4,0,3.9,1.9,3.9,4.8c0,2.9-1.7,4.7-4.1,4.7
			c-2.2,0-3-1.7-3-1.7h0c0,0,0,0.3,0,0.8v4.3h-1.2V104.5z M245.9,112.6c1.6,0,2.9-1.4,2.9-3.7c0-2.2-1.2-3.6-2.9-3.6
			c-1.5,0-2.9,1.1-2.9,3.7C243,110.8,244,112.6,245.9,112.6z"/>
		<path d="M252.3,100.9h1.2v10.2c0,1.2,0.5,1.4,1,1.4c0.2,0,0.3,0,0.3,0v1.1c0,0-0.2,0-0.5,0c-0.8,0-2.1-0.2-2.1-2.2V100.9z"/>
		<path d="M261.7,107.9h0.5v-0.2c0-1.7-1-2.3-2.3-2.3c-1.5,0-2.6,0.9-2.6,0.9l-0.6-0.9c0,0,1.2-1,3.2-1c2.2,0,3.4,1.2,3.4,3.5v5.8
			h-1.2v-1c0-0.5,0-0.8,0-0.8h0c0,0-0.8,2-3,2c-1.5,0-3.1-0.9-3.1-2.7C256.1,108,260.1,107.9,261.7,107.9z M259.4,112.7
			c1.7,0,2.8-1.8,2.8-3.4v-0.4h-0.5c-1.4,0-4.3,0.1-4.3,2.1C257.4,111.8,258.1,112.7,259.4,112.7z"/>
		<path d="M270.3,104.2c2.2,0,3.3,1.3,3.3,1.3l-0.6,0.9c0,0-1-1.1-2.6-1.1c-2,0-3.5,1.5-3.5,3.6c0,2.1,1.6,3.6,3.6,3.6
			c1.8,0,2.9-1.3,2.9-1.3l0.6,1c0,0-1.2,1.4-3.5,1.4c-2.7,0-4.8-1.9-4.8-4.7C265.6,106.2,267.7,104.2,270.3,104.2z"/>
		<path d="M279.9,104.2c2.5,0,3.8,1.9,3.8,4.2c0,0.2,0,0.6,0,0.6h-7c0.1,2.3,1.6,3.6,3.5,3.6c1.7,0,2.8-1.1,2.8-1.1l0.6,0.9
			c0,0-1.3,1.3-3.3,1.3c-2.7,0-4.7-1.9-4.7-4.7C275.5,106,277.5,104.2,279.9,104.2z M282.5,108c-0.1-1.9-1.2-2.8-2.6-2.8
			c-1.5,0-2.8,1-3.1,2.8H282.5z"/>
		<path d="M295.7,107.9h0.5v-0.2c0-1.7-1-2.3-2.3-2.3c-1.5,0-2.6,0.9-2.6,0.9l-0.6-0.9c0,0,1.2-1,3.2-1c2.2,0,3.4,1.2,3.4,3.5v5.8
			h-1.2v-1c0-0.5,0-0.8,0-0.8h0c0,0-0.8,2-3,2c-1.5,0-3.1-0.9-3.1-2.7C290.2,108,294.1,107.9,295.7,107.9z M293.4,112.7
			c1.7,0,2.8-1.8,2.8-3.4v-0.4h-0.5c-1.4,0-4.3,0.1-4.3,2.1C291.4,111.8,292.1,112.7,293.4,112.7z"/>
		<path d="M300.3,104.5h1.2v1.4c0,0.4,0,0.7,0,0.7h0c0.3-0.8,1.5-2.3,3.6-2.3c2.2,0,3,1.3,3,3.5v5.8h-1.2v-5.4c0-1.4-0.2-2.7-2-2.7
			c-1.5,0-2.9,1.1-3.3,2.6c-0.1,0.4-0.1,0.8-0.1,1.2v4.3h-1.2V104.5z"/>
		<path d="M320.6,107.9h0.5v-0.2c0-1.7-1-2.3-2.3-2.3c-1.5,0-2.6,0.9-2.6,0.9l-0.6-0.9c0,0,1.2-1,3.2-1c2.2,0,3.4,1.2,3.4,3.5v5.8
			h-1.2v-1c0-0.5,0-0.8,0-0.8h0c0,0-0.8,2-3,2c-1.5,0-3.1-0.9-3.1-2.7C315,108,319,107.9,320.6,107.9z M318.3,112.7
			c1.7,0,2.8-1.8,2.8-3.4v-0.4h-0.5c-1.4,0-4.3,0.1-4.3,2.1C316.3,111.8,317,112.7,318.3,112.7z"/>
		<path d="M328.6,104.2c2.2,0,3,1.7,3,1.7h0c0,0,0-0.3,0-0.7v-4.4h1.2v12.7h-1.2v-1c0-0.4,0-0.6,0-0.6h0c0,0-0.7,1.8-3.1,1.8
			c-2.4,0-3.9-1.9-3.9-4.8C324.5,106.1,326.2,104.2,328.6,104.2z M328.7,112.6c1.5,0,2.9-1.1,2.9-3.7c0-1.8-0.9-3.6-2.9-3.6
			c-1.6,0-2.9,1.4-2.9,3.6C325.8,111.2,327,112.6,328.7,112.6z"/>
	</g>
	<g>
		<path d="M38.3,130.9h1.3v1.5h-1.3V130.9z M38.3,134.5h1.2v9.1h-1.2V134.5z"/>
		<path d="M42.5,134.5h1.2v1.4c0,0.4,0,0.7,0,0.7h0c0.3-0.8,1.5-2.3,3.6-2.3c2.2,0,3,1.3,3,3.5v5.8h-1.2v-5.4c0-1.4-0.2-2.7-2-2.7
			c-1.5,0-2.9,1.1-3.3,2.6c-0.1,0.4-0.1,0.8-0.1,1.2v4.3h-1.2V134.5z"/>
		<path d="M58.4,135.6h-1.1v-1h1.1v-0.4c0-3,2.1-3.4,3.1-3.4c0.3,0,0.6,0,0.6,0v1.1c0,0-0.2,0-0.4,0c-0.7,0-2,0.3-2,2.3v0.4H62v1
			h-2.3v7.9h-1.2V135.6z"/>
		<path d="M63.8,134.5H65v1.6c0,0.4,0,0.7,0,0.7h0c0.4-1.4,1.4-2.4,2.9-2.4c0.3,0,0.5,0.1,0.5,0.1v1.2c0,0-0.2,0-0.5,0
			c-1.3,0-2.2,1-2.6,2.3c-0.2,0.6-0.3,1.2-0.3,1.8v3.8h-1.2V134.5z"/>
		<path d="M74.3,134.2c2.6,0,4.8,2,4.8,4.7c0,2.7-2.1,4.8-4.8,4.8c-2.6,0-4.8-2.1-4.8-4.8C69.5,136.3,71.7,134.2,74.3,134.2z
			 M74.3,142.6c1.9,0,3.5-1.6,3.5-3.7c0-2.1-1.6-3.6-3.5-3.6c-1.9,0-3.5,1.5-3.5,3.6C70.8,141,72.4,142.6,74.3,142.6z"/>
		<path d="M81.4,134.5h1.2v1.4c0,0.4,0,0.7,0,0.7h0c0.3-0.8,1.5-2.3,3.6-2.3c2.2,0,3,1.3,3,3.5v5.8H88v-5.4c0-1.4-0.2-2.7-2-2.7
			c-1.5,0-2.9,1.1-3.3,2.6c-0.1,0.4-0.1,0.8-0.1,1.2v4.3h-1.2V134.5z"/>
		<path d="M92.4,135.6h-1.2v-1h1.2v-2.6h1.2v2.6h2.3v1h-2.3v4.5c0,2.1,1.4,2.4,2,2.4c0.3,0,0.4,0,0.4,0v1.1c0,0-0.2,0-0.5,0
			c-1,0-3.2-0.3-3.2-3.4V135.6z"/>
		<path d="M107.1,134.2c2.6,0,4.8,2,4.8,4.7c0,2.7-2.1,4.8-4.8,4.8c-2.6,0-4.8-2.1-4.8-4.8C102.3,136.3,104.4,134.2,107.1,134.2z
			 M107.1,142.6c1.9,0,3.5-1.6,3.5-3.7c0-2.1-1.6-3.6-3.5-3.6c-1.9,0-3.5,1.5-3.5,3.6C103.5,141,105.1,142.6,107.1,142.6z"/>
		<path d="M114.5,135.6h-1.1v-1h1.1v-0.4c0-3,2.1-3.4,3.1-3.4c0.3,0,0.6,0,0.6,0v1.1c0,0-0.2,0-0.4,0c-0.7,0-2,0.3-2,2.3v0.4h2.3v1
			h-2.3v7.9h-1.2V135.6z"/>
		<path d="M129.5,137.9h0.5v-0.2c0-1.7-1-2.3-2.3-2.3c-1.5,0-2.6,0.9-2.6,0.9l-0.6-0.9c0,0,1.2-1,3.2-1c2.2,0,3.4,1.2,3.4,3.5v5.8
			h-1.2v-1c0-0.5,0-0.8,0-0.8h0c0,0-0.8,2-3,2c-1.5,0-3.1-0.9-3.1-2.7C124,138,128,137.9,129.5,137.9z M127.3,142.7
			c1.7,0,2.8-1.8,2.8-3.4v-0.4h-0.5c-1.4,0-4.3,0.1-4.3,2.1C125.2,141.8,125.9,142.7,127.3,142.7z"/>
		<path d="M143.1,134.2c2.2,0,3.3,1.3,3.3,1.3l-0.6,0.9c0,0-1-1.1-2.6-1.1c-2,0-3.5,1.5-3.5,3.6c0,2.1,1.6,3.6,3.6,3.6
			c1.8,0,2.9-1.3,2.9-1.3l0.6,1c0,0-1.2,1.4-3.5,1.4c-2.7,0-4.8-1.9-4.8-4.7C138.3,136.2,140.4,134.2,143.1,134.2z"/>
		<path d="M148.7,134.5h1.2v5.4c0,1.4,0.2,2.7,2,2.7c2.1,0,3.3-1.8,3.3-3.8v-4.3h1.2v9.1h-1.2v-1.4c0-0.4,0-0.7,0-0.7h0
			c-0.4,0.9-1.5,2.3-3.5,2.3c-2.1,0-3-1.2-3-3.5V134.5z"/>
		<path d="M159.4,134.5h1.2v1.6c0,0.4,0,0.7,0,0.7h0c0.4-1.4,1.4-2.4,2.9-2.4c0.3,0,0.5,0.1,0.5,0.1v1.2c0,0-0.2,0-0.5,0
			c-1.3,0-2.2,1-2.6,2.3c-0.2,0.6-0.3,1.2-0.3,1.8v3.8h-1.2V134.5z"/>
		<path d="M165.8,134.5h1.2v1.6c0,0.4,0,0.7,0,0.7h0c0.4-1.4,1.4-2.4,2.9-2.4c0.3,0,0.5,0.1,0.5,0.1v1.2c0,0-0.2,0-0.5,0
			c-1.3,0-2.2,1-2.6,2.3c-0.2,0.6-0.3,1.2-0.3,1.8v3.8h-1.2V134.5z"/>
		<path d="M176,134.2c2.5,0,3.8,1.9,3.8,4.2c0,0.2,0,0.6,0,0.6h-7c0.1,2.3,1.6,3.6,3.5,3.6c1.7,0,2.8-1.1,2.8-1.1l0.6,0.9
			c0,0-1.3,1.3-3.3,1.3c-2.7,0-4.7-1.9-4.7-4.7C171.6,136,173.6,134.2,176,134.2z M178.6,138c-0.1-1.9-1.2-2.8-2.6-2.8
			c-1.5,0-2.8,1-3.1,2.8H178.6z"/>
		<path d="M182.2,134.5h1.2v1.4c0,0.4,0,0.7,0,0.7h0c0.3-0.8,1.5-2.3,3.6-2.3c2.2,0,3,1.3,3,3.5v5.8h-1.2v-5.4c0-1.4-0.2-2.7-2-2.7
			c-1.5,0-2.9,1.1-3.3,2.6c-0.1,0.4-0.1,0.8-0.1,1.2v4.3h-1.2V134.5z"/>
		<path d="M193.2,135.6H192v-1h1.2v-2.6h1.2v2.6h2.3v1h-2.3v4.5c0,2.1,1.4,2.4,2,2.4c0.3,0,0.4,0,0.4,0v1.1c0,0-0.2,0-0.5,0
			c-1,0-3.2-0.3-3.2-3.4V135.6z"/>
		<path d="M203.6,134.5h1.2v5.4c0,1.4,0.2,2.7,2,2.7c2.1,0,3.3-1.8,3.3-3.8v-4.3h1.2v9.1h-1.2v-1.4c0-0.4,0-0.7,0-0.7h0
			c-0.4,0.9-1.5,2.3-3.5,2.3c-2.1,0-3-1.2-3-3.5V134.5z"/>
		<path d="M214.2,141.5c0,0,1,1.1,2.7,1.1c1,0,1.8-0.5,1.8-1.4c0-2-4.9-1.5-4.9-4.4c0-1.6,1.5-2.5,3.1-2.5c1.9,0,2.8,1,2.8,1
			l-0.6,0.9c0,0-0.8-0.8-2.3-0.8c-0.9,0-1.8,0.4-1.8,1.4c0,2,4.9,1.5,4.9,4.4c0,1.5-1.3,2.5-3.1,2.5c-2.2,0-3.3-1.3-3.3-1.3
			L214.2,141.5z"/>
		<path d="M226.1,134.2c2.5,0,3.8,1.9,3.8,4.2c0,0.2,0,0.6,0,0.6h-7c0.1,2.3,1.6,3.6,3.5,3.6c1.7,0,2.8-1.1,2.8-1.1l0.6,0.9
			c0,0-1.3,1.3-3.3,1.3c-2.7,0-4.7-1.9-4.7-4.7C221.6,136,223.7,134.2,226.1,134.2z M228.6,138c-0.1-1.9-1.2-2.8-2.6-2.8
			c-1.5,0-2.8,1-3.1,2.8H228.6z"/>
		<path d="M232.2,134.5h1.2v1.6c0,0.4,0,0.7,0,0.7h0c0.4-1.4,1.4-2.4,2.9-2.4c0.3,0,0.5,0.1,0.5,0.1v1.2c0,0-0.2,0-0.5,0
			c-1.3,0-2.2,1-2.6,2.3c-0.2,0.6-0.3,1.2-0.3,1.8v3.8h-1.2V134.5z"/>
		<path d="M248.3,137.9h0.5v-0.2c0-1.7-1-2.3-2.3-2.3c-1.5,0-2.6,0.9-2.6,0.9l-0.6-0.9c0,0,1.2-1,3.2-1c2.2,0,3.4,1.2,3.4,3.5v5.8
			h-1.2v-1c0-0.5,0-0.8,0-0.8h0c0,0-0.8,2-3,2c-1.5,0-3.1-0.9-3.1-2.7C242.7,138,246.7,137.9,248.3,137.9z M246,142.7
			c1.7,0,2.8-1.8,2.8-3.4v-0.4h-0.5c-1.4,0-4.3,0.1-4.3,2.1C244,141.8,244.7,142.7,246,142.7z"/>
		<path d="M252.8,134.5h1.2v1.4c0,0.4,0,0.7,0,0.7h0c0.3-0.8,1.5-2.3,3.6-2.3c2.2,0,3,1.3,3,3.5v5.8h-1.2v-5.4c0-1.4-0.2-2.7-2-2.7
			c-1.5,0-2.9,1.1-3.3,2.6c-0.1,0.4-0.1,0.8-0.1,1.2v4.3h-1.2V134.5z"/>
		<path d="M267,134.2c2.2,0,3,1.7,3,1.7h0c0,0,0-0.3,0-0.7v-4.4h1.2v12.7H270v-1c0-0.4,0-0.6,0-0.6h0c0,0-0.7,1.8-3.1,1.8
			c-2.4,0-3.9-1.9-3.9-4.8C262.9,136.1,264.6,134.2,267,134.2z M267,142.6c1.5,0,2.9-1.1,2.9-3.7c0-1.8-0.9-3.6-2.9-3.6
			c-1.6,0-2.9,1.4-2.9,3.6C264.2,141.2,265.3,142.6,267,142.6z"/>
		<path d="M284.8,130.6c2.9,0,4.5,1.5,4.5,1.5l-0.7,0.9c0,0-1.5-1.3-3.8-1.3c-3.1,0-5.1,2.4-5.1,5.4c0,3.1,2.1,5.4,5,5.4
			c2.5,0,4-1.9,4-1.9v-2.1h-2.2v-1.1h3.3v6h-1.2v-1c0-0.3,0-0.5,0-0.5h0c0,0-1.5,1.7-4.1,1.7c-3.5,0-6.2-2.8-6.2-6.6
			C278.5,133.5,281.2,130.6,284.8,130.6z"/>
		<path d="M296.4,134.2c2.5,0,3.8,1.9,3.8,4.2c0,0.2,0,0.6,0,0.6h-7c0.1,2.3,1.6,3.6,3.5,3.6c1.7,0,2.8-1.1,2.8-1.1l0.6,0.9
			c0,0-1.3,1.3-3.3,1.3c-2.7,0-4.7-1.9-4.7-4.7C292,136,294,134.2,296.4,134.2z M299,138c-0.1-1.9-1.2-2.8-2.6-2.8
			c-1.5,0-2.8,1-3.1,2.8H299z"/>
		<path d="M302.5,134.5h1.2v1.4c0,0.4,0,0.7,0,0.7h0c0.3-0.8,1.5-2.3,3.6-2.3c2.2,0,3,1.3,3,3.5v5.8h-1.2v-5.4c0-1.4-0.2-2.7-2-2.7
			c-1.5,0-2.9,1.1-3.3,2.6c-0.1,0.4-0.1,0.8-0.1,1.2v4.3h-1.2V134.5z"/>
		<path d="M313.2,130.9h1.3v1.5h-1.3V130.9z M313.2,134.5h1.2v9.1h-1.2V134.5z"/>
		<path d="M317.3,134.5h1.2v5.4c0,1.4,0.2,2.7,2,2.7c2.1,0,3.3-1.8,3.3-3.8v-4.3h1.2v9.1h-1.2v-1.4c0-0.4,0-0.7,0-0.7h0
			c-0.4,0.9-1.5,2.3-3.5,2.3c-2.1,0-3-1.2-3-3.5V134.5z"/>
		<path d="M327.9,141.5c0,0,1,1.1,2.7,1.1c1,0,1.8-0.5,1.8-1.4c0-2-4.9-1.5-4.9-4.4c0-1.6,1.5-2.5,3.1-2.5c1.9,0,2.8,1,2.8,1
			l-0.6,0.9c0,0-0.8-0.8-2.3-0.8c-0.9,0-1.8,0.4-1.8,1.4c0,2,4.9,1.5,4.9,4.4c0,1.5-1.3,2.5-3.1,2.5c-2.2,0-3.3-1.3-3.3-1.3
			L327.9,141.5z"/>
	</g>
	<g>
		<path d="M43.2,160.9h1.3l3.3,7.4c0.3,0.6,0.6,1.5,0.6,1.5h0c0,0,0.3-0.9,0.6-1.5l3.3-7.4h1.3l1,12.7h-1.2l-0.7-8.9
			c-0.1-0.7,0-1.8,0-1.8h0c0,0-0.4,1.1-0.7,1.8l-3,6.5h-1.2l-3-6.5c-0.3-0.6-0.7-1.8-0.7-1.8h0c0,0,0,1.1,0,1.8l-0.7,8.9h-1.2
			L43.2,160.9z"/>
		<path d="M61.7,164.2c2.6,0,4.8,2,4.8,4.7c0,2.7-2.1,4.8-4.8,4.8s-4.8-2.1-4.8-4.8C56.9,166.3,59.1,164.2,61.7,164.2z M61.7,172.6
			c1.9,0,3.5-1.6,3.5-3.7c0-2.1-1.6-3.6-3.5-3.6c-1.9,0-3.5,1.5-3.5,3.6C58.2,171,59.8,172.6,61.7,172.6z"/>
		<path d="M68.8,164.5H70v1.4c0,0.4,0,0.7,0,0.7h0c0.3-0.8,1.5-2.3,3.6-2.3c2.2,0,3,1.3,3,3.5v5.8h-1.2v-5.4c0-1.4-0.2-2.7-2-2.7
			c-1.5,0-2.9,1.1-3.3,2.6c-0.1,0.4-0.1,0.8-0.1,1.2v4.3h-1.2V164.5z"/>
		<path d="M79.5,160.9h1.2v7.1h1.4l2.7-3.5h1.5l-3.2,3.9v0l3.5,5.1h-1.5l-3-4.5h-1.5v4.5h-1.2V160.9z"/>
		<path d="M92.3,164.2c2.5,0,3.8,1.9,3.8,4.2c0,0.2,0,0.6,0,0.6h-7c0.1,2.3,1.6,3.6,3.5,3.6c1.7,0,2.8-1.1,2.8-1.1l0.6,0.9
			c0,0-1.3,1.3-3.3,1.3c-2.7,0-4.7-1.9-4.7-4.7C87.9,166,89.9,164.2,92.3,164.2z M94.9,168c-0.1-1.9-1.2-2.8-2.6-2.8
			c-1.5,0-2.8,1-3.1,2.8H94.9z"/>
		<path d="M97.6,175.8c0,0,0.5,0.4,1.1,0.4c0.8,0,1.4-0.6,1.7-1.5l0.6-1.3l-3.8-9h1.4l2.7,6.6c0.2,0.5,0.3,1,0.3,1h0
			c0,0,0.1-0.5,0.3-1l2.6-6.6h1.3l-4.5,10.9c-0.5,1.2-1.4,1.9-2.6,1.9c-0.9,0-1.6-0.5-1.6-0.5L97.6,175.8z"/>
		<path d="M112.2,171.5c0,0,1,1.1,2.7,1.1c1,0,1.8-0.5,1.8-1.4c0-2-4.9-1.5-4.9-4.4c0-1.6,1.5-2.5,3.1-2.5c1.9,0,2.8,1,2.8,1
			l-0.6,0.9c0,0-0.8-0.8-2.3-0.8c-0.9,0-1.8,0.4-1.8,1.4c0,2,4.9,1.5,4.9,4.4c0,1.5-1.3,2.5-3.1,2.5c-2.2,0-3.3-1.3-3.3-1.3
			L112.2,171.5z"/>
		<path d="M120.6,165.6h-1.2v-1h1.2v-2.6h1.2v2.6h2.3v1h-2.3v4.5c0,2.1,1.4,2.4,2,2.4c0.3,0,0.4,0,0.4,0v1.1c0,0-0.2,0-0.5,0
			c-1,0-3.2-0.3-3.2-3.4V165.6z"/>
		<path d="M126.3,164.5h1.2v1.6c0,0.4,0,0.7,0,0.7h0c0.4-1.4,1.4-2.4,2.9-2.4c0.3,0,0.5,0.1,0.5,0.1v1.2c0,0-0.2,0-0.5,0
			c-1.3,0-2.2,1-2.6,2.3c-0.2,0.6-0.3,1.2-0.3,1.8v3.8h-1.2V164.5z"/>
		<path d="M137.5,167.9h0.5v-0.2c0-1.7-1-2.3-2.3-2.3c-1.5,0-2.6,0.9-2.6,0.9l-0.6-0.9c0,0,1.2-1,3.2-1c2.2,0,3.4,1.2,3.4,3.5v5.8
			h-1.2v-1c0-0.5,0-0.8,0-0.8h0c0,0-0.8,2-3,2c-1.5,0-3.1-0.9-3.1-2.7C131.9,168,135.9,167.9,137.5,167.9z M135.2,172.7
			c1.7,0,2.8-1.8,2.8-3.4v-0.4h-0.5c-1.4,0-4.3,0.1-4.3,2.1C133.2,171.8,133.9,172.7,135.2,172.7z"/>
		<path d="M142.4,165.6h-1.2v-1h1.2v-2.6h1.2v2.6h2.3v1h-2.3v4.5c0,2.1,1.4,2.4,2,2.4c0.3,0,0.4,0,0.4,0v1.1c0,0-0.2,0-0.5,0
			c-1,0-3.2-0.3-3.2-3.4V165.6z"/>
		<path d="M151.9,164.2c2.5,0,3.8,1.9,3.8,4.2c0,0.2,0,0.6,0,0.6h-7c0.1,2.3,1.6,3.6,3.5,3.6c1.7,0,2.8-1.1,2.8-1.1l0.6,0.9
			c0,0-1.3,1.3-3.3,1.3c-2.7,0-4.7-1.9-4.7-4.7C147.4,166,149.5,164.2,151.9,164.2z M154.4,168c-0.1-1.9-1.2-2.8-2.6-2.8
			c-1.5,0-2.8,1-3.1,2.8H154.4z"/>
		<path d="M161.2,176.2c1.8,0,3.2-0.8,3.2-2.8v-0.8c0-0.3,0-0.6,0-0.6h0c-0.5,1-1.5,1.6-2.9,1.6c-2.4,0-4-1.9-4-4.6s1.5-4.6,3.9-4.6
			c2.4,0,3,1.5,3,1.5h0c0,0,0-0.1,0-0.3v-1h1.2v8.8c0,2.9-2.1,4-4.3,4c-1,0-2.1-0.3-3-0.7l0.5-1
			C158.7,175.6,159.8,176.2,161.2,176.2z M164.3,168.8c0-2.6-1.3-3.5-2.9-3.5c-1.8,0-2.8,1.3-2.8,3.4s1.2,3.6,3,3.6
			C163.1,172.4,164.3,171.5,164.3,168.8z"/>
		<path d="M168.5,160.9h1.3v1.5h-1.3V160.9z M168.5,164.5h1.2v9.1h-1.2V164.5z"/>
		<path d="M176.8,164.2c2.2,0,3.3,1.3,3.3,1.3l-0.6,0.9c0,0-1-1.1-2.6-1.1c-2,0-3.5,1.5-3.5,3.6c0,2.1,1.6,3.6,3.6,3.6
			c1.8,0,2.9-1.3,2.9-1.3l0.6,1c0,0-1.2,1.4-3.5,1.4c-2.7,0-4.8-1.9-4.8-4.7C172.1,166.2,174.1,164.2,176.8,164.2z"/>
		<path d="M187.4,167.9h0.5v-0.2c0-1.7-1-2.3-2.3-2.3c-1.5,0-2.6,0.9-2.6,0.9l-0.6-0.9c0,0,1.2-1,3.2-1c2.2,0,3.4,1.2,3.4,3.5v5.8
			h-1.2v-1c0-0.5,0-0.8,0-0.8h0c0,0-0.8,2-3,2c-1.5,0-3.1-0.9-3.1-2.7C181.8,168,185.8,167.9,187.4,167.9z M185.1,172.7
			c1.7,0,2.8-1.8,2.8-3.4v-0.4h-0.5c-1.4,0-4.3,0.1-4.3,2.1C183.1,171.8,183.8,172.7,185.1,172.7z"/>
		<path d="M191.8,160.9h1.2v10.2c0,1.2,0.5,1.4,1,1.4c0.2,0,0.3,0,0.3,0v1.1c0,0-0.2,0-0.5,0c-0.8,0-2.1-0.2-2.1-2.2V160.9z"/>
		<path d="M196.3,160.9h1.2v10.2c0,1.2,0.5,1.4,1,1.4c0.2,0,0.3,0,0.3,0v1.1c0,0-0.2,0-0.5,0c-0.8,0-2.1-0.2-2.1-2.2V160.9z"/>
		<path d="M199.9,175.8c0,0,0.5,0.4,1.1,0.4c0.8,0,1.4-0.6,1.7-1.5l0.6-1.3l-3.8-9h1.4l2.7,6.6c0.2,0.5,0.3,1,0.3,1h0
			c0,0,0.1-0.5,0.3-1l2.6-6.6h1.3l-4.5,10.9c-0.5,1.2-1.4,1.9-2.6,1.9c-0.9,0-1.6-0.5-1.6-0.5L199.9,175.8z"/>
		<path d="M214.6,164.5h1.2v1.4c0,0.4,0,0.7,0,0.7h0c0.3-0.8,1.5-2.3,3.6-2.3c2.2,0,3,1.3,3,3.5v5.8h-1.2v-5.4c0-1.4-0.2-2.7-2-2.7
			c-1.5,0-2.9,1.1-3.3,2.6c-0.1,0.4-0.1,0.8-0.1,1.2v4.3h-1.2V164.5z"/>
		<path d="M229.1,164.2c2.5,0,3.8,1.9,3.8,4.2c0,0.2,0,0.6,0,0.6h-7c0.1,2.3,1.6,3.6,3.5,3.6c1.7,0,2.8-1.1,2.8-1.1l0.6,0.9
			c0,0-1.3,1.3-3.3,1.3c-2.7,0-4.7-1.9-4.7-4.7C224.7,166,226.7,164.2,229.1,164.2z M231.7,168c-0.1-1.9-1.2-2.8-2.6-2.8
			c-1.5,0-2.8,1-3.1,2.8H231.7z"/>
		<path d="M238.4,176.2c1.8,0,3.2-0.8,3.2-2.8v-0.8c0-0.3,0-0.6,0-0.6h0c-0.5,1-1.5,1.6-2.9,1.6c-2.4,0-4-1.9-4-4.6s1.5-4.6,3.9-4.6
			c2.4,0,3,1.5,3,1.5h0c0,0,0-0.1,0-0.3v-1h1.2v8.8c0,2.9-2.1,4-4.3,4c-1,0-2.1-0.3-3-0.7l0.5-1
			C235.9,175.6,237.1,176.2,238.4,176.2z M241.6,168.8c0-2.6-1.3-3.5-2.9-3.5c-1.8,0-2.8,1.3-2.8,3.4s1.2,3.6,3,3.6
			C240.3,172.4,241.6,171.5,241.6,168.8z"/>
		<path d="M249.9,164.2c2.6,0,4.8,2,4.8,4.7c0,2.7-2.1,4.8-4.8,4.8c-2.6,0-4.8-2.1-4.8-4.8C245.1,166.3,247.2,164.2,249.9,164.2z
			 M249.9,172.6c1.9,0,3.5-1.6,3.5-3.7c0-2.1-1.6-3.6-3.5-3.6c-1.9,0-3.5,1.5-3.5,3.6C246.3,171,247.9,172.6,249.9,172.6z"/>
		<path d="M257.3,165.6h-1.2v-1h1.2v-2.6h1.2v2.6h2.3v1h-2.3v4.5c0,2.1,1.4,2.4,2,2.4c0.3,0,0.4,0,0.4,0v1.1c0,0-0.2,0-0.5,0
			c-1,0-3.2-0.3-3.2-3.4V165.6z"/>
		<path d="M262.9,160.9h1.3v1.5h-1.3V160.9z M263,164.5h1.2v9.1H263V164.5z"/>
		<path d="M272,167.9h0.5v-0.2c0-1.7-1-2.3-2.3-2.3c-1.5,0-2.6,0.9-2.6,0.9l-0.6-0.9c0,0,1.2-1,3.2-1c2.2,0,3.4,1.2,3.4,3.5v5.8
			h-1.2v-1c0-0.5,0-0.8,0-0.8h0c0,0-0.8,2-3,2c-1.5,0-3.1-0.9-3.1-2.7C266.4,168,270.4,167.9,272,167.9z M269.7,172.7
			c1.7,0,2.8-1.8,2.8-3.4v-0.4h-0.5c-1.4,0-4.3,0.1-4.3,2.1C267.7,171.8,268.3,172.7,269.7,172.7z"/>
		<path d="M276.8,165.6h-1.2v-1h1.2v-2.6h1.2v2.6h2.3v1h-2.3v4.5c0,2.1,1.4,2.4,2,2.4c0.3,0,0.4,0,0.4,0v1.1c0,0-0.2,0-0.5,0
			c-1,0-3.2-0.3-3.2-3.4V165.6z"/>
		<path d="M286.4,164.2c2.5,0,3.8,1.9,3.8,4.2c0,0.2,0,0.6,0,0.6h-7c0.1,2.3,1.6,3.6,3.5,3.6c1.7,0,2.8-1.1,2.8-1.1l0.6,0.9
			c0,0-1.3,1.3-3.3,1.3c-2.7,0-4.7-1.9-4.7-4.7C281.9,166,283.9,164.2,286.4,164.2z M288.9,168c-0.1-1.9-1.2-2.8-2.6-2.8
			c-1.5,0-2.8,1-3.1,2.8H288.9z"/>
		<path d="M292.4,171.5c0,0,1,1.1,2.7,1.1c1,0,1.8-0.5,1.8-1.4c0-2-4.9-1.5-4.9-4.4c0-1.6,1.5-2.5,3.1-2.5c1.9,0,2.8,1,2.8,1
			l-0.6,0.9c0,0-0.8-0.8-2.3-0.8c-0.9,0-1.8,0.4-1.8,1.4c0,2,4.9,1.5,4.9,4.4c0,1.5-1.3,2.5-3.1,2.5c-2.2,0-3.3-1.3-3.3-1.3
			L292.4,171.5z"/>
		<path d="M310.1,167.9h0.5v-0.2c0-1.7-1-2.3-2.3-2.3c-1.5,0-2.6,0.9-2.6,0.9l-0.6-0.9c0,0,1.2-1,3.2-1c2.2,0,3.4,1.2,3.4,3.5v5.8
			h-1.2v-1c0-0.5,0-0.8,0-0.8h0c0,0-0.8,2-3,2c-1.5,0-3.1-0.9-3.1-2.7C304.6,168,308.5,167.9,310.1,167.9z M307.8,172.7
			c1.7,0,2.8-1.8,2.8-3.4v-0.4h-0.5c-1.4,0-4.3,0.1-4.3,2.1C305.8,171.8,306.5,172.7,307.8,172.7z"/>
		<path d="M314.7,164.5h1.2v1.4c0,0.4,0,0.7,0,0.7h0c0.3-0.8,1.5-2.3,3.6-2.3c2.2,0,3,1.3,3,3.5v5.8h-1.2v-5.4c0-1.4-0.2-2.7-2-2.7
			c-1.5,0-2.9,1.1-3.3,2.6c-0.1,0.4-0.1,0.8-0.1,1.2v4.3h-1.2V164.5z"/>
		<path d="M328.8,164.2c2.2,0,3,1.7,3,1.7h0c0,0,0-0.3,0-0.7v-4.4h1.2v12.7h-1.2v-1c0-0.4,0-0.6,0-0.6h0c0,0-0.7,1.8-3.1,1.8
			c-2.4,0-3.9-1.9-3.9-4.8C324.7,166.1,326.4,164.2,328.8,164.2z M328.9,172.6c1.5,0,2.9-1.1,2.9-3.7c0-1.8-0.9-3.6-2.9-3.6
			c-1.6,0-2.9,1.4-2.9,3.6C326,171.2,327.2,172.6,328.9,172.6z"/>
	</g>
	<g>
		<path d="M51.2,194.5h1.2v0.9c0,0.4,0,0.7,0,0.7h0c0,0,0.7-1.8,3.1-1.8c2.4,0,3.9,1.9,3.9,4.8c0,2.9-1.7,4.7-4.1,4.7
			c-2.2,0-3-1.7-3-1.7h0c0,0,0,0.3,0,0.8v4.3h-1.2V194.5z M55.2,202.6c1.6,0,2.9-1.4,2.9-3.7c0-2.2-1.2-3.6-2.9-3.6
			c-1.5,0-2.9,1.1-2.9,3.7C52.4,200.8,53.4,202.6,55.2,202.6z"/>
		<path d="M61.7,190.8h1.2v10.2c0,1.2,0.5,1.4,1,1.4c0.2,0,0.3,0,0.3,0v1.1c0,0-0.2,0-0.5,0c-0.8,0-2.1-0.2-2.1-2.2V190.8z"/>
		<path d="M71,197.9h0.5v-0.2c0-1.7-1-2.3-2.3-2.3c-1.5,0-2.6,0.9-2.6,0.9l-0.6-0.9c0,0,1.2-1,3.2-1c2.2,0,3.4,1.2,3.4,3.5v5.8h-1.2
			v-1c0-0.5,0-0.8,0-0.8h0c0,0-0.8,2-3,2c-1.5,0-3.1-0.9-3.1-2.7C65.5,198,69.5,197.9,71,197.9z M68.8,202.7c1.7,0,2.8-1.8,2.8-3.4
			v-0.4H71c-1.4,0-4.3,0.1-4.3,2.1C66.7,201.8,67.4,202.7,68.8,202.7z"/>
		<path d="M79.7,194.2c2.2,0,3.3,1.3,3.3,1.3l-0.6,0.9c0,0-1-1.1-2.6-1.1c-2,0-3.5,1.5-3.5,3.6c0,2.1,1.6,3.6,3.6,3.6
			c1.8,0,2.9-1.3,2.9-1.3l0.6,1c0,0-1.2,1.4-3.5,1.4c-2.7,0-4.8-1.9-4.8-4.7C74.9,196.2,77,194.2,79.7,194.2z"/>
		<path d="M89.3,194.2c2.5,0,3.8,1.9,3.8,4.2c0,0.2,0,0.6,0,0.6h-7c0.1,2.3,1.6,3.6,3.5,3.6c1.7,0,2.8-1.1,2.8-1.1l0.6,0.9
			c0,0-1.3,1.3-3.3,1.3c-2.7,0-4.7-1.9-4.7-4.7C84.8,196,86.8,194.2,89.3,194.2z M91.8,198c-0.1-1.9-1.2-2.8-2.6-2.8
			c-1.5,0-2.8,1-3.1,2.8H91.8z"/>
		<path d="M95.3,201.5c0,0,1,1.1,2.7,1.1c1,0,1.8-0.5,1.8-1.4c0-2-4.9-1.5-4.9-4.4c0-1.6,1.5-2.5,3.1-2.5c1.9,0,2.8,1,2.8,1
			l-0.6,0.9c0,0-0.8-0.8-2.3-0.8c-0.9,0-1.8,0.4-1.8,1.4c0,2,4.9,1.5,4.9,4.4c0,1.5-1.3,2.5-3.1,2.5c-2.2,0-3.3-1.3-3.3-1.3
			L95.3,201.5z"/>
		<path d="M108.6,195.6h-1.2v-1h1.2v-2.6h1.2v2.6h2.3v1h-2.3v4.5c0,2.1,1.4,2.4,2,2.4c0.3,0,0.4,0,0.4,0v1.1c0,0-0.2,0-0.5,0
			c-1,0-3.2-0.3-3.2-3.4V195.6z"/>
		<path d="M114.3,190.8h1.2v4.9c0,0.4,0,0.7,0,0.7h0c0.3-0.9,1.5-2.2,3.6-2.2c2.2,0,3,1.3,3,3.5v5.8h-1.2v-5.4c0-1.4-0.2-2.7-2-2.7
			c-1.5,0-2.9,1.1-3.3,2.6c-0.1,0.4-0.1,0.8-0.1,1.2v4.3h-1.2V190.8z"/>
		<path d="M128.8,194.2c2.5,0,3.8,1.9,3.8,4.2c0,0.2,0,0.6,0,0.6h-7c0.1,2.3,1.6,3.6,3.5,3.6c1.7,0,2.8-1.1,2.8-1.1l0.6,0.9
			c0,0-1.3,1.3-3.3,1.3c-2.7,0-4.7-1.9-4.7-4.7C124.3,196,126.3,194.2,128.8,194.2z M131.3,198c-0.1-1.9-1.2-2.8-2.6-2.8
			c-1.5,0-2.8,1-3.1,2.8H131.3z"/>
		<path d="M138.6,194.5h1.3l2.2,6.8c0.1,0.4,0.3,1,0.3,1h0c0,0,0.1-0.5,0.3-1l2.2-6.7h1.2l2.2,6.7c0.1,0.4,0.3,1,0.3,1h0
			c0,0,0.1-0.5,0.3-1l2.2-6.8h1.3l-3.1,9.1H148l-2.2-6.4c-0.2-0.5-0.3-1-0.3-1h0c0,0-0.1,0.5-0.3,1l-2.2,6.4h-1.3L138.6,194.5z"/>
		<path d="M154.1,190.8h1.3v1.5h-1.3V190.8z M154.1,194.5h1.2v9.1h-1.2V194.5z"/>
		<path d="M158.3,194.5h1.2v1.4c0,0.4,0,0.7,0,0.7h0c0.3-0.8,1.5-2.3,3.6-2.3c2.2,0,3,1.3,3,3.5v5.8h-1.2v-5.4c0-1.4-0.2-2.7-2-2.7
			c-1.5,0-2.9,1.1-3.3,2.6c-0.1,0.4-0.1,0.8-0.1,1.2v4.3h-1.2V194.5z"/>
		<path d="M169,194.5h1.2v1.4c0,0.4,0,0.7,0,0.7h0c0.3-0.8,1.5-2.3,3.6-2.3c2.2,0,3,1.3,3,3.5v5.8h-1.2v-5.4c0-1.4-0.2-2.7-2-2.7
			c-1.5,0-2.9,1.1-3.3,2.6c-0.1,0.4-0.1,0.8-0.1,1.2v4.3H169V194.5z"/>
		<path d="M179.6,190.8h1.3v1.5h-1.3V190.8z M179.7,194.5h1.2v9.1h-1.2V194.5z"/>
		<path d="M183.8,194.5h1.2v1.4c0,0.4,0,0.7,0,0.7h0c0.3-0.8,1.5-2.3,3.6-2.3c2.2,0,3,1.3,3,3.5v5.8h-1.2v-5.4c0-1.4-0.2-2.7-2-2.7
			c-1.5,0-2.9,1.1-3.3,2.6c-0.1,0.4-0.1,0.8-0.1,1.2v4.3h-1.2V194.5z"/>
		<path d="M197.6,206.2c1.8,0,3.2-0.8,3.2-2.8v-0.8c0-0.3,0-0.6,0-0.6h0c-0.5,1-1.5,1.6-2.9,1.6c-2.4,0-4-1.9-4-4.6s1.5-4.6,3.9-4.6
			c2.4,0,3,1.5,3,1.5h0c0,0,0-0.1,0-0.3v-1h1.2v8.8c0,2.9-2.1,4-4.3,4c-1,0-2.1-0.3-3-0.7l0.5-1
			C195.2,205.6,196.3,206.2,197.6,206.2z M200.8,198.8c0-2.6-1.3-3.5-2.9-3.5c-1.8,0-2.8,1.3-2.8,3.4c0,2.2,1.2,3.6,3,3.6
			C199.6,202.4,200.8,201.5,200.8,198.8z"/>
		<path d="M209.8,190.8h1.2v4.4c0,0.4,0,0.7,0,0.7h0c0,0,0.8-1.7,3.1-1.7c2.4,0,3.9,1.9,3.9,4.8c0,2.9-1.7,4.7-4.1,4.7
			c-2.2,0-3-1.8-3-1.8h0c0,0,0,0.3,0,0.7v0.8h-1.2V190.8z M213.9,202.6c1.6,0,2.9-1.4,2.9-3.7c0-2.2-1.2-3.6-2.9-3.6
			c-1.5,0-2.9,1.1-2.9,3.7C211,200.8,212,202.6,213.9,202.6z"/>
		<path d="M220.4,190.8h1.3v1.5h-1.3V190.8z M220.4,194.5h1.2v9.1h-1.2V194.5z"/>
		<path d="M228.1,194.2c2.2,0,3,1.7,3,1.7h0c0,0,0-0.3,0-0.7v-4.4h1.2v12.7h-1.2v-1c0-0.4,0-0.6,0-0.6h0c0,0-0.7,1.8-3.1,1.8
			c-2.4,0-3.9-1.9-3.9-4.8C224,196.1,225.7,194.2,228.1,194.2z M228.1,202.6c1.5,0,2.9-1.1,2.9-3.7c0-1.8-0.9-3.6-2.9-3.6
			c-1.6,0-2.9,1.4-2.9,3.6C225.3,201.2,226.4,202.6,228.1,202.6z"/>
		<path d="M240,190.8h1.3v1.5H240V190.8z M240.1,194.5h1.2v9.1h-1.2V194.5z"/>
		<path d="M244.2,194.5h1.2v1.4c0,0.4,0,0.7,0,0.7h0c0.3-0.8,1.5-2.3,3.6-2.3c2.2,0,3,1.3,3,3.5v5.8h-1.2v-5.4c0-1.4-0.2-2.7-2-2.7
			c-1.5,0-2.9,1.1-3.3,2.6c-0.1,0.4-0.1,0.8-0.1,1.2v4.3h-1.2V194.5z"/>
		<path d="M259.7,194.5h1.2v1.6c0,0.4,0,0.7,0,0.7h0c0.4-1.4,1.4-2.4,2.9-2.4c0.3,0,0.5,0.1,0.5,0.1v1.2c0,0-0.2,0-0.5,0
			c-1.3,0-2.2,1-2.6,2.3c-0.2,0.6-0.3,1.2-0.3,1.8v3.8h-1.2V194.5z"/>
		<path d="M270,194.2c2.5,0,3.8,1.9,3.8,4.2c0,0.2,0,0.6,0,0.6h-7c0.1,2.3,1.6,3.6,3.5,3.6c1.7,0,2.8-1.1,2.8-1.1l0.6,0.9
			c0,0-1.3,1.3-3.3,1.3c-2.7,0-4.7-1.9-4.7-4.7C265.5,196,267.5,194.2,270,194.2z M272.5,198c-0.1-1.9-1.2-2.8-2.6-2.8
			c-1.5,0-2.8,1-3.1,2.8H272.5z"/>
		<path d="M280.9,197.9h0.5v-0.2c0-1.7-1-2.3-2.3-2.3c-1.5,0-2.6,0.9-2.6,0.9l-0.6-0.9c0,0,1.2-1,3.2-1c2.2,0,3.4,1.2,3.4,3.5v5.8
			h-1.2v-1c0-0.5,0-0.8,0-0.8h0c0,0-0.8,2-3,2c-1.5,0-3.1-0.9-3.1-2.7C275.4,198,279.3,197.9,280.9,197.9z M278.6,202.7
			c1.7,0,2.8-1.8,2.8-3.4v-0.4h-0.5c-1.4,0-4.3,0.1-4.3,2.1C276.6,201.8,277.3,202.7,278.6,202.7z"/>
		<path d="M285.4,190.8h1.2v10.2c0,1.2,0.5,1.4,1,1.4c0.2,0,0.3,0,0.3,0v1.1c0,0-0.2,0-0.5,0c-0.8,0-2.1-0.2-2.1-2.2V190.8z"/>
		<path d="M295.1,195.6h-1.2v-1h1.2v-2.6h1.2v2.6h2.3v1h-2.3v4.5c0,2.1,1.4,2.4,2,2.4c0.3,0,0.4,0,0.4,0v1.1c0,0-0.2,0-0.5,0
			c-1,0-3.2-0.3-3.2-3.4V195.6z"/>
		<path d="M300.7,190.8h1.3v1.5h-1.3V190.8z M300.8,194.5h1.2v9.1h-1.2V194.5z"/>
		<path d="M305,194.5h1.2v1.4c0,0.4,0,0.7,0,0.7h0c0.4-1.2,1.9-2.3,3.3-2.3c1.7,0,2.5,0.8,2.8,2.3h0c0.5-1.2,1.8-2.3,3.3-2.3
			c2.2,0,3,1.3,3,3.5v5.8h-1.2v-5.5c0-1.5-0.3-2.7-2-2.7c-1.4,0-2.5,1.2-2.9,2.6c-0.1,0.4-0.2,0.8-0.2,1.3v4.3h-1.2v-5.5
			c0-1.4-0.2-2.7-1.9-2.7c-1.5,0-2.6,1.3-3,2.7c-0.1,0.4-0.1,0.8-0.1,1.2v4.3H305V194.5z"/>
		<path d="M325.3,194.2c2.5,0,3.8,1.9,3.8,4.2c0,0.2,0,0.6,0,0.6h-7c0.1,2.3,1.6,3.6,3.5,3.6c1.7,0,2.8-1.1,2.8-1.1l0.6,0.9
			c0,0-1.3,1.3-3.3,1.3c-2.7,0-4.7-1.9-4.7-4.7C320.8,196,322.8,194.2,325.3,194.2z M327.8,198c-0.1-1.9-1.2-2.8-2.6-2.8
			c-1.5,0-2.8,1-3.1,2.8H327.8z"/>
		<path d="M331.6,202h1.4l-1.3,3.2h-1L331.6,202z"/>
	</g>
	<g>
		<path d="M71.6,227.9h0.5v-0.2c0-1.7-1-2.3-2.3-2.3c-1.5,0-2.6,0.9-2.6,0.9l-0.6-0.9c0,0,1.2-1,3.2-1c2.2,0,3.4,1.2,3.4,3.5v5.8
			h-1.2v-1c0-0.5,0-0.8,0-0.8h0c0,0-0.8,2-3,2c-1.5,0-3.1-0.9-3.1-2.7C66.1,228,70,227.9,71.6,227.9z M69.3,232.7
			c1.7,0,2.8-1.8,2.8-3.4v-0.4h-0.5c-1.4,0-4.3,0.1-4.3,2.1C67.3,231.8,68,232.7,69.3,232.7z"/>
		<path d="M76.1,224.5h1.2v1.4c0,0.4,0,0.7,0,0.7h0c0.3-0.8,1.5-2.3,3.6-2.3c2.2,0,3,1.3,3,3.5v5.8h-1.2v-5.4c0-1.4-0.2-2.7-2-2.7
			c-1.5,0-2.9,1.1-3.3,2.6c-0.1,0.4-0.1,0.8-0.1,1.2v4.3h-1.2V224.5z"/>
		<path d="M90.3,224.2c2.2,0,3,1.7,3,1.7h0c0,0,0-0.3,0-0.7v-4.4h1.2v12.7h-1.2v-1c0-0.4,0-0.6,0-0.6h0c0,0-0.7,1.8-3.1,1.8
			c-2.4,0-3.9-1.9-3.9-4.8C86.2,226.1,87.9,224.2,90.3,224.2z M90.4,232.6c1.5,0,2.9-1.1,2.9-3.7c0-1.8-0.9-3.6-2.9-3.6
			c-1.6,0-2.9,1.4-2.9,3.6C87.5,231.2,88.7,232.6,90.4,232.6z"/>
		<path d="M102.6,225.6h-1.2v-1h1.2v-2.6h1.2v2.6h2.3v1h-2.3v4.5c0,2.1,1.4,2.4,2,2.4c0.3,0,0.4,0,0.4,0v1.1c0,0-0.2,0-0.5,0
			c-1,0-3.2-0.3-3.2-3.4V225.6z"/>
		<path d="M108.3,220.8h1.2v4.9c0,0.4,0,0.7,0,0.7h0c0.3-0.9,1.5-2.2,3.6-2.2c2.2,0,3,1.3,3,3.5v5.8h-1.2v-5.4c0-1.4-0.2-2.7-2-2.7
			c-1.5,0-2.9,1.1-3.3,2.6c-0.1,0.4-0.1,0.8-0.1,1.2v4.3h-1.2V220.8z"/>
		<path d="M122.8,224.2c2.5,0,3.8,1.9,3.8,4.2c0,0.2,0,0.6,0,0.6h-7c0.1,2.3,1.6,3.6,3.5,3.6c1.7,0,2.8-1.1,2.8-1.1l0.6,0.9
			c0,0-1.3,1.3-3.3,1.3c-2.7,0-4.7-1.9-4.7-4.7C118.3,226,120.4,224.2,122.8,224.2z M125.3,228c-0.1-1.9-1.2-2.8-2.6-2.8
			c-1.5,0-2.8,1-3.1,2.8H125.3z"/>
		<path d="M128.9,224.5h1.2v1.6c0,0.4,0,0.7,0,0.7h0c0.4-1.4,1.4-2.4,2.9-2.4c0.3,0,0.5,0.1,0.5,0.1v1.2c0,0-0.2,0-0.5,0
			c-1.3,0-2.2,1-2.6,2.3c-0.2,0.6-0.3,1.2-0.3,1.8v3.8h-1.2V224.5z"/>
		<path d="M139.2,224.2c2.5,0,3.8,1.9,3.8,4.2c0,0.2,0,0.6,0,0.6h-7c0.1,2.3,1.6,3.6,3.5,3.6c1.7,0,2.8-1.1,2.8-1.1l0.6,0.9
			c0,0-1.3,1.3-3.3,1.3c-2.7,0-4.7-1.9-4.7-4.7C134.7,226,136.7,224.2,139.2,224.2z M141.7,228c-0.1-1.9-1.2-2.8-2.6-2.8
			c-1.5,0-2.8,1-3.1,2.8H141.7z"/>
		<path d="M145.7,225.6h-1.1v-1h1.1v-0.4c0-3,2.1-3.4,3.1-3.4c0.3,0,0.6,0,0.6,0v1.1c0,0-0.2,0-0.4,0c-0.7,0-2,0.3-2,2.3v0.4h2.3v1
			h-2.3v7.9h-1.2V225.6z"/>
		<path d="M155.2,224.2c2.6,0,4.8,2,4.8,4.7c0,2.7-2.1,4.8-4.8,4.8s-4.8-2.1-4.8-4.8C150.4,226.3,152.5,224.2,155.2,224.2z
			 M155.2,232.6c1.9,0,3.5-1.6,3.5-3.7c0-2.1-1.6-3.6-3.5-3.6c-1.9,0-3.5,1.5-3.5,3.6C151.6,231,153.2,232.6,155.2,232.6z"/>
		<path d="M162.2,224.5h1.2v1.6c0,0.4,0,0.7,0,0.7h0c0.4-1.4,1.4-2.4,2.9-2.4c0.3,0,0.5,0.1,0.5,0.1v1.2c0,0-0.2,0-0.5,0
			c-1.3,0-2.2,1-2.6,2.3c-0.2,0.6-0.3,1.2-0.3,1.8v3.8h-1.2V224.5z"/>
		<path d="M172.5,224.2c2.5,0,3.8,1.9,3.8,4.2c0,0.2,0,0.6,0,0.6h-7c0.1,2.3,1.6,3.6,3.5,3.6c1.7,0,2.8-1.1,2.8-1.1l0.6,0.9
			c0,0-1.3,1.3-3.3,1.3c-2.7,0-4.7-1.9-4.7-4.7C168,226,170,224.2,172.5,224.2z M175,228c-0.1-1.9-1.2-2.8-2.6-2.8
			c-1.5,0-2.8,1-3.1,2.8H175z"/>
		<path d="M178.8,232h1.4l-1.3,3.2h-1L178.8,232z"/>
		<path d="M188.2,225.6H187v-1h1.2v-2.6h1.2v2.6h2.3v1h-2.3v4.5c0,2.1,1.4,2.4,2,2.4c0.3,0,0.4,0,0.4,0v1.1c0,0-0.2,0-0.5,0
			c-1,0-3.2-0.3-3.2-3.4V225.6z"/>
		<path d="M193.9,220.8h1.2v4.9c0,0.4,0,0.7,0,0.7h0c0.3-0.9,1.5-2.2,3.6-2.2c2.2,0,3,1.3,3,3.5v5.8h-1.2v-5.4c0-1.4-0.2-2.7-2-2.7
			c-1.5,0-2.9,1.1-3.3,2.6c-0.1,0.4-0.1,0.8-0.1,1.2v4.3h-1.2V220.8z"/>
		<path d="M208.4,224.2c2.5,0,3.8,1.9,3.8,4.2c0,0.2,0,0.6,0,0.6h-7c0.1,2.3,1.6,3.6,3.5,3.6c1.7,0,2.8-1.1,2.8-1.1l0.6,0.9
			c0,0-1.3,1.3-3.3,1.3c-2.7,0-4.7-1.9-4.7-4.7C203.9,226,205.9,224.2,208.4,224.2z M210.9,228c-0.1-1.9-1.2-2.8-2.6-2.8
			c-1.5,0-2.8,1-3.1,2.8H210.9z"/>
		<path d="M224.1,227.9h0.5v-0.2c0-1.7-1-2.3-2.3-2.3c-1.5,0-2.6,0.9-2.6,0.9l-0.6-0.9c0,0,1.2-1,3.2-1c2.2,0,3.4,1.2,3.4,3.5v5.8
			h-1.2v-1c0-0.5,0-0.8,0-0.8h0c0,0-0.8,2-3,2c-1.5,0-3.1-0.9-3.1-2.7C218.6,228,222.6,227.9,224.1,227.9z M221.9,232.7
			c1.7,0,2.8-1.8,2.8-3.4v-0.4h-0.5c-1.4,0-4.3,0.1-4.3,2.1C219.9,231.8,220.5,232.7,221.9,232.7z"/>
		<path d="M232.2,224.2c2.2,0,3,1.7,3,1.7h0c0,0,0-0.3,0-0.7v-4.4h1.2v12.7h-1.2v-1c0-0.4,0-0.6,0-0.6h0c0,0-0.7,1.8-3.1,1.8
			c-2.4,0-3.9-1.9-3.9-4.8C228.1,226.1,229.8,224.2,232.2,224.2z M232.2,232.6c1.5,0,2.9-1.1,2.9-3.7c0-1.8-0.9-3.6-2.9-3.6
			c-1.6,0-2.9,1.4-2.9,3.6C229.4,231.2,230.5,232.6,232.2,232.6z"/>
		<path d="M244.1,224.5h1.2v0.9c0,0.4,0,0.7,0,0.7h0c0,0,0.7-1.8,3.1-1.8c2.4,0,3.9,1.9,3.9,4.8c0,2.9-1.7,4.7-4.1,4.7
			c-2.2,0-3-1.7-3-1.7h0c0,0,0,0.3,0,0.8v4.3h-1.2V224.5z M248.2,232.6c1.6,0,2.9-1.4,2.9-3.7c0-2.2-1.2-3.6-2.9-3.6
			c-1.5,0-2.9,1.1-2.9,3.7C245.3,230.8,246.3,232.6,248.2,232.6z"/>
		<path d="M254.7,220.8h1.2v10.2c0,1.2,0.5,1.4,1,1.4c0.2,0,0.3,0,0.3,0v1.1c0,0-0.2,0-0.5,0c-0.8,0-2.1-0.2-2.1-2.2V220.8z"/>
		<path d="M264,227.9h0.5v-0.2c0-1.7-1-2.3-2.3-2.3c-1.5,0-2.6,0.9-2.6,0.9l-0.6-0.9c0,0,1.2-1,3.2-1c2.2,0,3.4,1.2,3.4,3.5v5.8
			h-1.2v-1c0-0.5,0-0.8,0-0.8h0c0,0-0.8,2-3,2c-1.5,0-3.1-0.9-3.1-2.7C258.4,228,262.4,227.9,264,227.9z M261.7,232.7
			c1.7,0,2.8-1.8,2.8-3.4v-0.4H264c-1.4,0-4.3,0.1-4.3,2.1C259.7,231.8,260.4,232.7,261.7,232.7z"/>
		<path d="M272.7,224.2c2.2,0,3.3,1.3,3.3,1.3l-0.6,0.9c0,0-1-1.1-2.6-1.1c-2,0-3.5,1.5-3.5,3.6c0,2.1,1.6,3.6,3.6,3.6
			c1.8,0,2.9-1.3,2.9-1.3l0.6,1c0,0-1.2,1.4-3.5,1.4c-2.7,0-4.8-1.9-4.8-4.7C267.9,226.2,270,224.2,272.7,224.2z"/>
		<path d="M282.3,224.2c2.5,0,3.8,1.9,3.8,4.2c0,0.2,0,0.6,0,0.6h-7c0.1,2.3,1.6,3.6,3.5,3.6c1.7,0,2.8-1.1,2.8-1.1l0.6,0.9
			c0,0-1.3,1.3-3.3,1.3c-2.7,0-4.7-1.9-4.7-4.7C277.8,226,279.8,224.2,282.3,224.2z M284.8,228c-0.1-1.9-1.2-2.8-2.6-2.8
			c-1.5,0-2.8,1-3.1,2.8H284.8z"/>
		<path d="M288.4,224.5h1.2v1.4c0,0.4,0,0.7,0,0.7h0c0.4-1.2,1.9-2.3,3.3-2.3c1.7,0,2.5,0.8,2.8,2.3h0c0.5-1.2,1.8-2.3,3.3-2.3
			c2.2,0,3,1.3,3,3.5v5.8h-1.2v-5.5c0-1.5-0.3-2.7-2-2.7c-1.4,0-2.5,1.2-2.9,2.6c-0.1,0.4-0.2,0.8-0.2,1.3v4.3h-1.2v-5.5
			c0-1.4-0.2-2.7-1.9-2.7c-1.5,0-2.6,1.3-3,2.7c-0.1,0.4-0.1,0.8-0.1,1.2v4.3h-1.2V224.5z"/>
		<path d="M308.7,224.2c2.5,0,3.8,1.9,3.8,4.2c0,0.2,0,0.6,0,0.6h-7c0.1,2.3,1.6,3.6,3.5,3.6c1.7,0,2.8-1.1,2.8-1.1l0.6,0.9
			c0,0-1.3,1.3-3.3,1.3c-2.7,0-4.7-1.9-4.7-4.7C304.2,226,306.3,224.2,308.7,224.2z M311.2,228c-0.1-1.9-1.2-2.8-2.6-2.8
			c-1.5,0-2.8,1-3.1,2.8H311.2z"/>
		<path d="M314.8,224.5h1.2v1.4c0,0.4,0,0.7,0,0.7h0c0.3-0.8,1.5-2.3,3.6-2.3c2.2,0,3,1.3,3,3.5v5.8h-1.2v-5.4c0-1.4-0.2-2.7-2-2.7
			c-1.5,0-2.9,1.1-3.3,2.6c-0.1,0.4-0.1,0.8-0.1,1.2v4.3h-1.2V224.5z"/>
		<path d="M325.8,225.6h-1.2v-1h1.2v-2.6h1.2v2.6h2.3v1h-2.3v4.5c0,2.1,1.4,2.4,2,2.4c0.3,0,0.4,0,0.4,0v1.1c0,0-0.2,0-0.5,0
			c-1,0-3.2-0.3-3.2-3.4V225.6z"/>
		<path d="M331.6,232.1h1.4v1.4h-1.4V232.1z"/>
	</g>
	<g>
		<path class="st1" d="M822.5,147.7H818L817,151h-2.4l4.5-12.8h2.4L826,151h-2.4L822.5,147.7z M820.3,140.4c0,0-0.3,1.3-0.5,2
			l-1.1,3.4h3.3l-1.1-3.4C820.6,141.7,820.3,140.4,820.3,140.4L820.3,140.4z"/>
		<path class="st1" d="M827.6,138.2h4.4c3.9,0,6.5,2.3,6.5,6.4s-2.6,6.4-6.5,6.4h-4.4V138.2z M831.9,149c2.6,0,4.2-1.5,4.2-4.4
			c0-2.8-1.7-4.4-4.2-4.4h-1.9v8.8H831.9z"/>
		<path class="st1" d="M845.3,138.2h4.4c3.9,0,6.5,2.3,6.5,6.4s-2.6,6.4-6.5,6.4h-4.4V138.2z M849.5,149c2.6,0,4.2-1.5,4.2-4.4
			c0-2.8-1.7-4.4-4.2-4.4h-1.9v8.8H849.5z"/>
		<path class="st1" d="M858.6,138.2h7.7v2h-5.3v3.3h4.3v2h-4.3v3.4h5.6v2h-7.9V138.2z"/>
		<path class="st1" d="M869,138.2h2.3V149h5.5v2H869V138.2z"/>
		<path class="st1" d="M878.7,138.2h2.3V151h-2.3V138.2z"/>
		<path class="st1" d="M882.6,138.2h2.5l2.8,8.3c0.3,0.7,0.5,1.9,0.5,1.9h0c0,0,0.2-1.1,0.5-1.9l2.8-8.3h2.5l-4.7,12.8h-2.3
			L882.6,138.2z"/>
		<path class="st1" d="M895.8,138.2h7.7v2h-5.3v3.3h4.3v2h-4.3v3.4h5.6v2h-7.9V138.2z"/>
		<path class="st1" d="M906.2,138.2h4.1c1.4,0,2,0.1,2.6,0.4c1.3,0.6,2.1,1.8,2.1,3.5c0,1.5-0.8,3-2.2,3.5v0c0,0,0.2,0.2,0.4,0.6
			l2.6,4.8h-2.6l-2.5-4.8h-2.2v4.8h-2.3V138.2z M910.6,144.2c1.2,0,2-0.7,2-2c0-1.2-0.5-2-2.3-2h-1.8v4H910.6z"/>
	</g>
	<g>
		<path class="st1" d="M920.4,145.7l-4.2-7.4h2.6l2,3.8c0.4,0.8,0.8,1.7,0.8,1.7h0c0,0,0.4-0.9,0.8-1.7l2-3.8h2.6l-4.2,7.4v5.3h-2.3
			V145.7z"/>
	</g>
	<g>
		<path d="M819.2,174.5h-4.6v-1.1H825v1.1h-4.5V186h-1.2V174.5z"/>
		<path d="M826.6,173.4h1.2v4.9c0,0.4,0,0.7,0,0.7h0c0.3-0.9,1.5-2.3,3.6-2.3c2.2,0,3,1.3,3,3.5v5.8h-1.2v-5.4c0-1.4-0.2-2.7-2-2.7
			c-1.5,0-2.9,1.1-3.3,2.6c-0.1,0.4-0.1,0.8-0.1,1.2v4.3h-1.2V173.4z"/>
		<path d="M841.1,176.7c2.5,0,3.8,1.9,3.8,4.2c0,0.2,0,0.6,0,0.6h-7c0.1,2.3,1.6,3.6,3.5,3.6c1.7,0,2.8-1.1,2.8-1.1l0.6,0.9
			c0,0-1.3,1.3-3.3,1.3c-2.7,0-4.7-1.9-4.7-4.7C836.6,178.5,838.7,176.7,841.1,176.7z M843.6,180.5c-0.1-1.9-1.2-2.8-2.6-2.8
			c-1.5,0-2.8,1-3.1,2.8H843.6z"/>
		<path d="M856.9,180.4h0.5v-0.2c0-1.7-1-2.3-2.3-2.3c-1.5,0-2.6,0.9-2.6,0.9l-0.6-0.9c0,0,1.2-1,3.2-1c2.2,0,3.4,1.2,3.4,3.5v5.8
			h-1.2v-1c0-0.5,0-0.8,0-0.8h0c0,0-0.8,2-3,2c-1.5,0-3.1-0.9-3.1-2.7C851.3,180.5,855.3,180.4,856.9,180.4z M854.6,185.2
			c1.7,0,2.8-1.8,2.8-3.4v-0.4h-0.5c-1.4,0-4.3,0.1-4.3,2.1C852.6,184.3,853.3,185.2,854.6,185.2z"/>
		<path d="M864.9,176.7c2.2,0,3,1.7,3,1.7h0c0,0,0-0.3,0-0.7v-4.4h1.2V186h-1.2v-1c0-0.4,0-0.6,0-0.6h0c0,0-0.7,1.8-3.1,1.8
			c-2.4,0-3.9-1.9-3.9-4.8C860.8,178.6,862.5,176.7,864.9,176.7z M865,185.1c1.5,0,2.9-1.1,2.9-3.7c0-1.8-0.9-3.6-2.9-3.6
			c-1.6,0-2.9,1.4-2.9,3.6C862.1,183.7,863.3,185.1,865,185.1z"/>
		<path d="M872.2,184.5h1.4l-1.3,3.2h-1L872.2,184.5z"/>
		<path d="M880.1,177h1.3l2.2,6.8c0.1,0.4,0.3,1,0.3,1h0c0,0,0.1-0.5,0.3-1l2.2-6.7h1.2l2.2,6.7c0.1,0.4,0.3,1,0.3,1h0
			c0,0,0.1-0.5,0.3-1l2.2-6.8h1.3l-3.1,9.1h-1.3l-2.2-6.4c-0.2-0.5-0.3-1-0.3-1h0c0,0-0.1,0.5-0.3,1l-2.2,6.4h-1.3L880.1,177z"/>
		<path d="M895.7,173.4h1.2v4.9c0,0.4,0,0.7,0,0.7h0c0.3-0.9,1.5-2.3,3.6-2.3c2.2,0,3,1.3,3,3.5v5.8h-1.2v-5.4c0-1.4-0.2-2.7-2-2.7
			c-1.5,0-2.9,1.1-3.3,2.6c-0.1,0.4-0.1,0.8-0.1,1.2v4.3h-1.2V173.4z"/>
		<path d="M906.3,173.4h1.3v1.5h-1.3V173.4z M906.4,177h1.2v9.1h-1.2V177z"/>
		<path d="M914.7,176.7c2.2,0,3.3,1.3,3.3,1.3l-0.6,0.9c0,0-1-1.1-2.6-1.1c-2,0-3.5,1.5-3.5,3.6c0,2.1,1.6,3.6,3.6,3.6
			c1.8,0,2.9-1.3,2.9-1.3l0.6,1c0,0-1.2,1.4-3.5,1.4c-2.7,0-4.8-1.9-4.8-4.7C909.9,178.7,912,176.7,914.7,176.7z"/>
		<path d="M920.4,173.4h1.2v4.9c0,0.4,0,0.7,0,0.7h0c0.3-0.9,1.5-2.3,3.6-2.3c2.2,0,3,1.3,3,3.5v5.8H927v-5.4c0-1.4-0.2-2.7-2-2.7
			c-1.5,0-2.9,1.1-3.3,2.6c-0.1,0.4-0.1,0.8-0.1,1.2v4.3h-1.2V173.4z"/>
		<path d="M934.9,176.7c2.5,0,3.8,1.9,3.8,4.2c0,0.2,0,0.6,0,0.6h-7c0.1,2.3,1.6,3.6,3.5,3.6c1.7,0,2.8-1.1,2.8-1.1l0.6,0.9
			c0,0-1.3,1.3-3.3,1.3c-2.7,0-4.7-1.9-4.7-4.7C930.5,178.5,932.5,176.7,934.9,176.7z M937.5,180.5c-0.1-1.9-1.2-2.8-2.6-2.8
			c-1.5,0-2.8,1-3.1,2.8H937.5z"/>
		<path d="M939.8,177h1.3l2.5,6.6c0.2,0.5,0.3,1.1,0.3,1.1h0c0,0,0.1-0.6,0.3-1.1l2.5-6.6h1.3l-3.5,9.1h-1.3L939.8,177z"/>
		<path d="M953.6,176.7c2.5,0,3.8,1.9,3.8,4.2c0,0.2,0,0.6,0,0.6h-7c0.1,2.3,1.6,3.6,3.5,3.6c1.7,0,2.8-1.1,2.8-1.1l0.6,0.9
			c0,0-1.3,1.3-3.3,1.3c-2.7,0-4.7-1.9-4.7-4.7C949.1,178.5,951.2,176.7,953.6,176.7z M956.1,180.5c-0.1-1.9-1.2-2.8-2.6-2.8
			c-1.5,0-2.8,1-3.1,2.8H956.1z"/>
		<path d="M959.7,177h1.2v1.6c0,0.4,0,0.7,0,0.7h0c0.4-1.4,1.4-2.4,2.9-2.4c0.3,0,0.5,0.1,0.5,0.1v1.2c0,0-0.2,0-0.5,0
			c-1.3,0-2.2,1-2.6,2.3c-0.2,0.6-0.3,1.2-0.3,1.8v3.8h-1.2V177z"/>
		<path d="M971.4,178.1h-1.1v-1h1.1v-0.4c0-3,2.1-3.4,3.1-3.4c0.3,0,0.6,0,0.6,0v1.1c0,0-0.2,0-0.4,0c-0.7,0-2,0.3-2,2.3v0.4h2.3v1
			h-2.3v7.9h-1.2V178.1z"/>
		<path d="M980.9,176.7c2.6,0,4.8,2,4.8,4.7c0,2.7-2.1,4.8-4.8,4.8s-4.8-2.1-4.8-4.8C976.1,178.8,978.2,176.7,980.9,176.7z
			 M980.9,185.1c1.9,0,3.5-1.6,3.5-3.7c0-2.1-1.6-3.6-3.5-3.6s-3.5,1.5-3.5,3.6C977.3,183.5,978.9,185.1,980.9,185.1z"/>
		<path d="M987.9,177h1.2v1.6c0,0.4,0,0.7,0,0.7h0c0.4-1.4,1.4-2.4,2.9-2.4c0.3,0,0.5,0.1,0.5,0.1v1.2c0,0-0.2,0-0.5,0
			c-1.3,0-2.2,1-2.6,2.3c-0.2,0.6-0.3,1.2-0.3,1.8v3.8h-1.2V177z"/>
		<path d="M994.3,177h1.2v1.4c0,0.4,0,0.7,0,0.7h0c0.4-1.2,1.9-2.3,3.3-2.3c1.7,0,2.5,0.8,2.8,2.3h0c0.5-1.2,1.8-2.3,3.3-2.3
			c2.2,0,3,1.3,3,3.5v5.8h-1.2v-5.5c0-1.5-0.3-2.7-2-2.7c-1.4,0-2.5,1.2-2.9,2.6c-0.1,0.4-0.2,0.8-0.2,1.3v4.3h-1.2v-5.5
			c0-1.4-0.2-2.7-1.9-2.7c-1.5,0-2.6,1.3-3,2.7c-0.1,0.4-0.1,0.8-0.1,1.2v4.3h-1.2V177z"/>
		<path d="M1015.6,180.4h0.5v-0.2c0-1.7-1-2.3-2.3-2.3c-1.5,0-2.6,0.9-2.6,0.9l-0.6-0.9c0,0,1.2-1,3.2-1c2.2,0,3.4,1.2,3.4,3.5v5.8
			h-1.2v-1c0-0.5,0-0.8,0-0.8h0c0,0-0.8,2-3,2c-1.5,0-3.1-0.9-3.1-2.7C1010.1,180.5,1014.1,180.4,1015.6,180.4z M1013.4,185.2
			c1.7,0,2.8-1.8,2.8-3.4v-0.4h-0.5c-1.4,0-4.3,0.1-4.3,2.1C1011.3,184.3,1012,185.2,1013.4,185.2z"/>
		<path d="M1020.5,178.1h-1.2v-1h1.2v-2.6h1.2v2.6h2.3v1h-2.3v4.5c0,2.1,1.4,2.4,2,2.4c0.3,0,0.4,0,0.4,0v1.1c0,0-0.2,0-0.5,0
			c-1,0-3.2-0.3-3.2-3.4V178.1z"/>
		<path d="M1031,173.4h1.3v1.5h-1.3V173.4z M1031.1,177h1.2v9.1h-1.2V177z"/>
		<path d="M1035.6,178.1h-1.2v-1h1.2v-2.6h1.2v2.6h2.3v1h-2.3v4.5c0,2.1,1.4,2.4,2,2.4c0.3,0,0.4,0,0.4,0v1.1c0,0-0.2,0-0.5,0
			c-1,0-3.2-0.3-3.2-3.4V178.1z"/>
		<path d="M1046.1,177h1.2v1.4c0,0.4,0,0.7,0,0.7h0c0.4-1.2,1.9-2.3,3.3-2.3c1.7,0,2.5,0.8,2.8,2.3h0c0.5-1.2,1.8-2.3,3.3-2.3
			c2.2,0,3,1.3,3,3.5v5.8h-1.2v-5.5c0-1.5-0.3-2.7-2-2.7c-1.4,0-2.5,1.2-2.9,2.6c-0.1,0.4-0.2,0.8-0.2,1.3v4.3h-1.2v-5.5
			c0-1.4-0.2-2.7-1.9-2.7c-1.5,0-2.6,1.3-3,2.7c-0.1,0.4-0.1,0.8-0.1,1.2v4.3h-1.2V177z"/>
		<path d="M1067.4,180.4h0.5v-0.2c0-1.7-1-2.3-2.3-2.3c-1.5,0-2.6,0.9-2.6,0.9l-0.6-0.9c0,0,1.2-1,3.2-1c2.2,0,3.4,1.2,3.4,3.5v5.8
			h-1.2v-1c0-0.5,0-0.8,0-0.8h0c0,0-0.8,2-3,2c-1.5,0-3.1-0.9-3.1-2.7C1061.9,180.5,1065.8,180.4,1067.4,180.4z M1065.1,185.2
			c1.7,0,2.8-1.8,2.8-3.4v-0.4h-0.5c-1.4,0-4.3,0.1-4.3,2.1C1063.1,184.3,1063.8,185.2,1065.1,185.2z"/>
		<path d="M1071.1,188.3c0,0,0.5,0.4,1.1,0.4c0.8,0,1.4-0.6,1.7-1.5l0.6-1.3l-3.8-9h1.4l2.7,6.6c0.2,0.5,0.3,1,0.3,1h0
			c0,0,0.1-0.5,0.3-1l2.6-6.6h1.3l-4.5,10.9c-0.5,1.2-1.4,1.9-2.6,1.9c-0.9,0-1.6-0.5-1.6-0.5L1071.1,188.3z"/>
		<path d="M1085.8,173.4h1.2v4.4c0,0.4,0,0.7,0,0.7h0c0,0,0.8-1.7,3.1-1.7c2.4,0,3.9,1.9,3.9,4.8c0,2.9-1.7,4.7-4.1,4.7
			c-2.2,0-3-1.8-3-1.8h0c0,0,0,0.3,0,0.7v0.8h-1.2V173.4z M1089.8,185.1c1.6,0,2.9-1.4,2.9-3.7c0-2.2-1.2-3.6-2.9-3.6
			c-1.5,0-2.9,1.1-2.9,3.7C1087,183.3,1087.9,185.1,1089.8,185.1z"/>
		<path d="M1100.2,176.7c2.5,0,3.8,1.9,3.8,4.2c0,0.2,0,0.6,0,0.6h-7c0.1,2.3,1.6,3.6,3.5,3.6c1.7,0,2.8-1.1,2.8-1.1l0.6,0.9
			c0,0-1.3,1.3-3.3,1.3c-2.7,0-4.7-1.9-4.7-4.7C1095.7,178.5,1097.8,176.7,1100.2,176.7z M1102.8,180.5c-0.1-1.9-1.2-2.8-2.6-2.8
			c-1.5,0-2.8,1-3.1,2.8H1102.8z"/>
	</g>
	<g>
		<path d="M816,209.9c0-2.6,0.7-5,2-7.1h1.1c-1.3,2.2-2,4.6-2,7.1c0,2.7,0.7,5.3,2,7.8H818C816.8,215.6,816,212.8,816,209.9z"/>
		<path d="M824.7,206.7c2.2,0,3,1.7,3,1.7h0c0,0,0-0.3,0-0.7v-4.4h1.2V216h-1.2v-1c0-0.4,0-0.6,0-0.6h0c0,0-0.7,1.8-3.1,1.8
			c-2.4,0-3.9-1.9-3.9-4.8C820.6,208.6,822.3,206.7,824.7,206.7z M824.8,215.1c1.5,0,2.9-1.1,2.9-3.7c0-1.8-0.9-3.6-2.9-3.6
			c-1.6,0-2.9,1.4-2.9,3.6C821.9,213.7,823.1,215.1,824.8,215.1z"/>
		<path d="M831.8,203.3h1.3v1.5h-1.3V203.3z M831.8,207h1.2v9.1h-1.2V207z"/>
		<path d="M835.9,214c0,0,1,1.1,2.7,1.1c1,0,1.8-0.5,1.8-1.4c0-2-4.9-1.5-4.9-4.4c0-1.6,1.5-2.5,3.1-2.5c1.9,0,2.8,1,2.8,1l-0.6,0.9
			c0,0-0.8-0.8-2.3-0.8c-0.9,0-1.8,0.4-1.8,1.4c0,2,4.9,1.5,4.9,4.4c0,1.5-1.3,2.5-3.1,2.5c-2.2,0-3.3-1.3-3.3-1.3L835.9,214z"/>
		<path d="M844,207h1.2v0.9c0,0.4,0,0.7,0,0.7h0c0,0,0.7-1.8,3.1-1.8c2.4,0,3.9,1.9,3.9,4.8c0,2.9-1.7,4.7-4.1,4.7
			c-2.2,0-3-1.7-3-1.7h0c0,0,0,0.3,0,0.8v4.3H844V207z M848.1,215.1c1.6,0,2.9-1.4,2.9-3.7c0-2.2-1.2-3.6-2.9-3.6
			c-1.5,0-2.9,1.1-2.9,3.7C845.2,213.3,846.2,215.1,848.1,215.1z"/>
		<path d="M854.5,203.3h1.2v10.2c0,1.2,0.5,1.4,1,1.4c0.2,0,0.3,0,0.3,0v1.1c0,0-0.2,0-0.5,0c-0.8,0-2.1-0.2-2.1-2.2V203.3z"/>
		<path d="M863.8,210.4h0.5v-0.2c0-1.7-1-2.3-2.3-2.3c-1.5,0-2.6,0.9-2.6,0.9l-0.6-0.9c0,0,1.2-1,3.2-1c2.2,0,3.4,1.2,3.4,3.5v5.8
			h-1.2v-1c0-0.5,0-0.8,0-0.8h0c0,0-0.8,2-3,2c-1.5,0-3.1-0.9-3.1-2.7C858.3,210.5,862.3,210.4,863.8,210.4z M861.6,215.2
			c1.7,0,2.8-1.8,2.8-3.4v-0.4h-0.5c-1.4,0-4.3,0.1-4.3,2.1C859.6,214.3,860.2,215.2,861.6,215.2z"/>
		<path d="M867.5,218.3c0,0,0.5,0.4,1.1,0.4c0.8,0,1.4-0.6,1.7-1.5l0.6-1.3l-3.8-9h1.4l2.7,6.6c0.2,0.5,0.3,1,0.3,1h0
			c0,0,0.1-0.5,0.3-1l2.6-6.6h1.3l-4.5,10.9c-0.5,1.2-1.4,1.9-2.6,1.9c-0.9,0-1.6-0.5-1.6-0.5L867.5,218.3z"/>
	</g>
	<g>
		<path d="M877.1,214.5h1.4l-1.3,3.2h-1L877.1,214.5z"/>
		<path d="M884.9,207h1.3l2.5,6.6c0.2,0.5,0.3,1.1,0.3,1.1h0c0,0,0.1-0.6,0.3-1.1l2.5-6.6h1.3l-3.5,9.1h-1.3L884.9,207z"/>
		<path d="M894.8,203.3h1.3v1.5h-1.3V203.3z M894.9,207h1.2v9.1h-1.2V207z"/>
		<path d="M902.5,206.7c2.2,0,3,1.7,3,1.7h0c0,0,0-0.3,0-0.7v-4.4h1.2V216h-1.2v-1c0-0.4,0-0.6,0-0.6h0c0,0-0.7,1.8-3.1,1.8
			c-2.4,0-3.9-1.9-3.9-4.8C898.5,208.6,900.1,206.7,902.5,206.7z M902.6,215.1c1.5,0,2.9-1.1,2.9-3.7c0-1.8-0.9-3.6-2.9-3.6
			c-1.6,0-2.9,1.4-2.9,3.6C899.7,213.7,900.9,215.1,902.6,215.1z"/>
		<path d="M913.5,206.7c2.5,0,3.8,1.9,3.8,4.2c0,0.2,0,0.6,0,0.6h-7c0.1,2.3,1.6,3.6,3.5,3.6c1.7,0,2.8-1.1,2.8-1.1l0.6,0.9
			c0,0-1.3,1.3-3.3,1.3c-2.7,0-4.7-1.9-4.7-4.7C909,208.5,911,206.7,913.5,206.7z M916,210.5c-0.1-1.9-1.2-2.8-2.6-2.8
			c-1.5,0-2.8,1-3.1,2.8H916z"/>
		<path d="M923.7,206.7c2.6,0,4.8,2,4.8,4.7c0,2.7-2.1,4.8-4.8,4.8s-4.8-2.1-4.8-4.8C918.9,208.8,921.1,206.7,923.7,206.7z
			 M923.7,215.1c1.9,0,3.5-1.6,3.5-3.7c0-2.1-1.6-3.6-3.5-3.6s-3.5,1.5-3.5,3.6C920.2,213.5,921.8,215.1,923.7,215.1z"/>
		<path d="M931,214.5h1.4l-1.3,3.2h-1L931,214.5z"/>
	</g>
	<g>
		<path d="M946,203.1c3.6,0,6.4,2.8,6.4,6.5c0,3.7-2.9,6.6-6.4,6.6s-6.4-2.9-6.4-6.6C939.5,206,942.4,203.1,946,203.1z M946,215.1
			c2.8,0,5.1-2.4,5.1-5.5c0-3-2.3-5.3-5.1-5.3c-2.9,0-5.1,2.3-5.1,5.3C940.8,212.7,943.1,215.1,946,215.1z"/>
		<path d="M957.8,204.5h-4.6v-1.1h10.3v1.1H959V216h-1.2V204.5z"/>
	</g>
	<g>
		<path d="M968.8,204.5h-4.6v-1.1h10.3v1.1H970V216h-1.2V204.5z"/>
		<path d="M980,202.6h1.1l-4.6,14.1h-1.2L980,202.6z"/>
		<path d="M989.1,203.1c3,0,4.6,1.6,4.6,1.6l-0.7,0.9c0,0-1.5-1.4-3.9-1.4c-3,0-5.1,2.3-5.1,5.3c0,3,2.1,5.5,5.1,5.5
			c2.6,0,4.1-1.7,4.1-1.7l0.7,0.9c0,0-1.7,2-4.8,2c-3.7,0-6.4-2.9-6.4-6.6C982.7,205.9,985.5,203.1,989.1,203.1z"/>
		<path d="M999.5,204.5H995v-1.1h10.3v1.1h-4.5V216h-1.2V204.5z"/>
	</g>
	<g>
		<path d="M1005.9,203.3h1.3l3.5,9.6c0.2,0.6,0.5,1.6,0.5,1.6h0c0,0,0.3-1,0.5-1.6l3.5-9.6h1.3l-4.7,12.7h-1.3L1005.9,203.3z"/>
		<path d="M1017.5,214.5h1.4l-1.3,3.2h-1L1017.5,214.5z"/>
	</g>
	<g>
		<path d="M1030.7,206.7c2.6,0,4.8,2,4.8,4.7c0,2.7-2.1,4.8-4.8,4.8s-4.8-2.1-4.8-4.8C1025.9,208.8,1028,206.7,1030.7,206.7z
			 M1030.7,215.1c1.9,0,3.5-1.6,3.5-3.7c0-2.1-1.6-3.6-3.5-3.6s-3.5,1.5-3.5,3.6C1027.1,213.5,1028.7,215.1,1030.7,215.1z"/>
		<path d="M1037.7,207h1.2v1.6c0,0.4,0,0.7,0,0.7h0c0.4-1.4,1.4-2.4,2.9-2.4c0.3,0,0.5,0.1,0.5,0.1v1.2c0,0-0.2,0-0.5,0
			c-1.3,0-2.2,1-2.6,2.3c-0.2,0.6-0.3,1.2-0.3,1.8v3.8h-1.2V207z"/>
		<path d="M1055.6,212h-5.1l-1.4,4h-1.3l4.6-12.7h1.3l4.6,12.7h-1.3L1055.6,212z M1053,204.7c0,0-0.3,1-0.5,1.6l-1.7,4.6h4.4
			l-1.7-4.6C1053.3,205.7,1053.1,204.7,1053,204.7L1053,204.7z"/>
		<path d="M1060,207h1.2v5.4c0,1.4,0.2,2.7,2,2.7c2.1,0,3.3-1.8,3.3-3.8V207h1.2v9.1h-1.2v-1.4c0-0.4,0-0.7,0-0.7h0
			c-0.4,0.9-1.5,2.3-3.5,2.3c-2.1,0-3-1.2-3-3.5V207z"/>
		<path d="M1074.1,206.7c2.2,0,3,1.7,3,1.7h0c0,0,0-0.3,0-0.7v-4.4h1.2V216h-1.2v-1c0-0.4,0-0.6,0-0.6h0c0,0-0.7,1.8-3.1,1.8
			c-2.4,0-3.9-1.9-3.9-4.8C1070.1,208.6,1071.8,206.7,1074.1,206.7z M1074.2,215.1c1.5,0,2.9-1.1,2.9-3.7c0-1.8-0.9-3.6-2.9-3.6
			c-1.6,0-2.9,1.4-2.9,3.6C1071.3,213.7,1072.5,215.1,1074.2,215.1z"/>
		<path d="M1081.2,203.3h1.3v1.5h-1.3V203.3z M1081.3,207h1.2v9.1h-1.2V207z"/>
		<path d="M1089.6,206.7c2.6,0,4.8,2,4.8,4.7c0,2.7-2.1,4.8-4.8,4.8s-4.8-2.1-4.8-4.8C1084.8,208.8,1086.9,206.7,1089.6,206.7z
			 M1089.6,215.1c1.9,0,3.5-1.6,3.5-3.7c0-2.1-1.6-3.6-3.5-3.6s-3.5,1.5-3.5,3.6C1086,213.5,1087.6,215.1,1089.6,215.1z"/>
		<path d="M1095.8,217.7c1.4-2.4,2-5.1,2-7.8c0-2.5-0.7-4.9-2-7.1h1.1c1.3,2.1,2,4.5,2,7.1c0,2.8-0.8,5.6-2,7.8H1095.8z"/>
		<path d="M1102,214.5h1.4l-1.3,3.2h-1L1102,214.5z"/>
		<path d="M1111,203.3h1.3v1.5h-1.3V203.3z M1111.1,207h1.2v9.1h-1.2V207z"/>
		<path d="M1115.2,214c0,0,1,1.1,2.7,1.1c1,0,1.8-0.5,1.8-1.4c0-2-4.9-1.5-4.9-4.4c0-1.6,1.5-2.5,3.1-2.5c1.9,0,2.8,1,2.8,1
			l-0.6,0.9c0,0-0.8-0.8-2.3-0.8c-0.9,0-1.8,0.4-1.8,1.4c0,2,4.9,1.5,4.9,4.4c0,1.5-1.3,2.5-3.1,2.5c-2.2,0-3.3-1.3-3.3-1.3
			L1115.2,214z"/>
	</g>
	<g>
		<path d="M816.4,238.1h-1.2v-1h1.2v-2.6h1.2v2.6h2.3v1h-2.3v4.5c0,2.1,1.4,2.4,2,2.4c0.3,0,0.4,0,0.4,0v1.1c0,0-0.2,0-0.5,0
			c-1,0-3.2-0.3-3.2-3.4V238.1z"/>
		<path d="M822,233.3h1.2v4.9c0,0.4,0,0.7,0,0.7h0c0.3-0.9,1.5-2.2,3.6-2.2c2.2,0,3,1.3,3,3.5v5.8h-1.2v-5.4c0-1.4-0.2-2.7-2-2.7
			c-1.5,0-2.9,1.1-3.3,2.6c-0.1,0.4-0.1,0.8-0.1,1.2v4.3H822V233.3z"/>
		<path d="M836.6,236.7c2.5,0,3.8,1.9,3.8,4.2c0,0.2,0,0.6,0,0.6h-7c0.1,2.3,1.6,3.6,3.5,3.6c1.7,0,2.8-1.1,2.8-1.1l0.6,0.9
			c0,0-1.3,1.3-3.3,1.3c-2.7,0-4.7-1.9-4.7-4.7C832.1,238.5,834.1,236.7,836.6,236.7z M839.1,240.5c-0.1-1.9-1.2-2.8-2.6-2.8
			c-1.5,0-2.8,1-3.1,2.8H839.1z"/>
		<path d="M842.7,237h1.2v1.4c0,0.4,0,0.7,0,0.7h0c0.3-0.8,1.5-2.3,3.6-2.3c2.2,0,3,1.3,3,3.5v5.8h-1.2v-5.4c0-1.4-0.2-2.7-2-2.7
			c-1.5,0-2.9,1.1-3.3,2.6c-0.1,0.4-0.1,0.8-0.1,1.2v4.3h-1.2V237z"/>
		<path d="M858.2,237h1.2v0.9c0,0.4,0,0.7,0,0.7h0c0,0,0.7-1.8,3.1-1.8c2.4,0,3.9,1.9,3.9,4.8c0,2.9-1.7,4.7-4.1,4.7
			c-2.2,0-3-1.7-3-1.7h0c0,0,0,0.3,0,0.8v4.3h-1.2V237z M862.3,245.1c1.6,0,2.9-1.4,2.9-3.7c0-2.2-1.2-3.6-2.9-3.6
			c-1.5,0-2.9,1.1-2.9,3.7C859.4,243.3,860.4,245.1,862.3,245.1z"/>
		<path d="M868.7,233.3h1.2v10.2c0,1.2,0.5,1.4,1,1.4c0.2,0,0.3,0,0.3,0v1.1c0,0-0.2,0-0.5,0c-0.8,0-2.1-0.2-2.1-2.2V233.3z"/>
		<path d="M878,240.4h0.5v-0.2c0-1.7-1-2.3-2.3-2.3c-1.5,0-2.6,0.9-2.6,0.9l-0.6-0.9c0,0,1.2-1,3.2-1c2.2,0,3.4,1.2,3.4,3.5v5.8
			h-1.2v-1c0-0.5,0-0.8,0-0.8h0c0,0-0.8,2-3,2c-1.5,0-3.1-0.9-3.1-2.7C872.5,240.5,876.5,240.4,878,240.4z M875.8,245.2
			c1.7,0,2.8-1.8,2.8-3.4v-0.4H878c-1.4,0-4.3,0.1-4.3,2.1C873.8,244.3,874.4,245.2,875.8,245.2z"/>
		<path d="M886.7,236.7c2.2,0,3.3,1.3,3.3,1.3l-0.6,0.9c0,0-1-1.1-2.6-1.1c-2,0-3.5,1.5-3.5,3.6c0,2.1,1.6,3.6,3.6,3.6
			c1.8,0,2.9-1.3,2.9-1.3l0.6,1c0,0-1.2,1.4-3.5,1.4c-2.7,0-4.8-1.9-4.8-4.7C882,238.7,884.1,236.7,886.7,236.7z"/>
		<path d="M896.3,236.7c2.5,0,3.8,1.9,3.8,4.2c0,0.2,0,0.6,0,0.6h-7c0.1,2.3,1.6,3.6,3.5,3.6c1.7,0,2.8-1.1,2.8-1.1l0.6,0.9
			c0,0-1.3,1.3-3.3,1.3c-2.7,0-4.7-1.9-4.7-4.7C891.8,238.5,893.9,236.7,896.3,236.7z M898.9,240.5c-0.1-1.9-1.2-2.8-2.6-2.8
			c-1.5,0-2.8,1-3.1,2.8H898.9z"/>
		<path d="M905.9,236.7c2.2,0,3,1.7,3,1.7h0c0,0,0-0.3,0-0.7v-4.4h1.2V246h-1.2v-1c0-0.4,0-0.6,0-0.6h0c0,0-0.7,1.8-3.1,1.8
			c-2.4,0-3.9-1.9-3.9-4.8C901.8,238.6,903.5,236.7,905.9,236.7z M906,245.1c1.5,0,2.9-1.1,2.9-3.7c0-1.8-0.9-3.6-2.9-3.6
			c-1.6,0-2.9,1.4-2.9,3.6C903.1,243.7,904.3,245.1,906,245.1z"/>
		<path d="M922,236.7c2.6,0,4.8,2,4.8,4.7c0,2.7-2.1,4.8-4.8,4.8s-4.8-2.1-4.8-4.8C917.2,238.8,919.4,236.7,922,236.7z M922,245.1
			c1.9,0,3.5-1.6,3.5-3.7c0-2.1-1.6-3.6-3.5-3.6s-3.5,1.5-3.5,3.6C918.5,243.5,920.1,245.1,922,245.1z"/>
		<path d="M929.1,237h1.2v1.6c0,0.4,0,0.7,0,0.7h0c0.4-1.4,1.4-2.4,2.9-2.4c0.3,0,0.5,0.1,0.5,0.1v1.2c0,0-0.2,0-0.5,0
			c-1.3,0-2.2,1-2.6,2.3c-0.2,0.6-0.3,1.2-0.3,1.8v3.8h-1.2V237z"/>
		<path d="M940.3,237h1.2v0.9c0,0.4,0,0.7,0,0.7h0c0,0,0.7-1.8,3.1-1.8c2.4,0,3.9,1.9,3.9,4.8c0,2.9-1.7,4.7-4.1,4.7
			c-2.2,0-3-1.7-3-1.7h0c0,0,0,0.3,0,0.8v4.3h-1.2V237z M944.4,245.1c1.6,0,2.9-1.4,2.9-3.7c0-2.2-1.2-3.6-2.9-3.6
			c-1.5,0-2.9,1.1-2.9,3.7C941.5,243.3,942.5,245.1,944.4,245.1z"/>
		<path d="M950.8,233.3h1.2v10.2c0,1.2,0.5,1.4,1,1.4c0.2,0,0.3,0,0.3,0v1.1c0,0-0.2,0-0.5,0c-0.8,0-2.1-0.2-2.1-2.2V233.3z"/>
		<path d="M960.2,240.4h0.5v-0.2c0-1.7-1-2.3-2.3-2.3c-1.5,0-2.6,0.9-2.6,0.9l-0.6-0.9c0,0,1.2-1,3.2-1c2.2,0,3.4,1.2,3.4,3.5v5.8
			h-1.2v-1c0-0.5,0-0.8,0-0.8h0c0,0-0.8,2-3,2c-1.5,0-3.1-0.9-3.1-2.7C954.6,240.5,958.6,240.4,960.2,240.4z M957.9,245.2
			c1.7,0,2.8-1.8,2.8-3.4v-0.4h-0.5c-1.4,0-4.3,0.1-4.3,2.1C955.9,244.3,956.6,245.2,957.9,245.2z"/>
		<path d="M963.8,248.3c0,0,0.5,0.4,1.1,0.4c0.8,0,1.3-0.6,1.7-1.5l0.6-1.3l-3.8-9h1.4l2.7,6.6c0.2,0.5,0.3,1,0.3,1h0
			c0,0,0.1-0.5,0.3-1l2.6-6.6h1.3l-4.5,10.9c-0.5,1.2-1.4,1.9-2.6,1.9c-0.9,0-1.6-0.5-1.6-0.5L963.8,248.3z"/>
		<path d="M977.5,236.7c2.5,0,3.8,1.9,3.8,4.2c0,0.2,0,0.6,0,0.6h-7c0.1,2.3,1.6,3.6,3.5,3.6c1.7,0,2.8-1.1,2.8-1.1l0.6,0.9
			c0,0-1.3,1.3-3.3,1.3c-2.7,0-4.7-1.9-4.7-4.7C973.1,238.5,975.1,236.7,977.5,236.7z M980.1,240.5c-0.1-1.9-1.2-2.8-2.6-2.8
			c-1.5,0-2.8,1-3.1,2.8H980.1z"/>
		<path d="M987.1,236.7c2.2,0,3,1.7,3,1.7h0c0,0,0-0.3,0-0.7v-4.4h1.2V246h-1.2v-1c0-0.4,0-0.6,0-0.6h0c0,0-0.7,1.8-3.1,1.8
			c-2.4,0-3.9-1.9-3.9-4.8C983.1,238.6,984.8,236.7,987.1,236.7z M987.2,245.1c1.5,0,2.9-1.1,2.9-3.7c0-1.8-0.9-3.6-2.9-3.6
			c-1.6,0-2.9,1.4-2.9,3.6C984.3,243.7,985.5,245.1,987.2,245.1z"/>
		<path d="M999.1,233.3h1.3v1.5h-1.3V233.3z M999.1,237h1.2v9.1h-1.2V237z"/>
		<path d="M1003.3,237h1.2v1.4c0,0.4,0,0.7,0,0.7h0c0.3-0.8,1.5-2.3,3.6-2.3c2.2,0,3,1.3,3,3.5v5.8h-1.2v-5.4c0-1.4-0.2-2.7-2-2.7
			c-1.5,0-2.9,1.1-3.3,2.6c-0.1,0.4-0.1,0.8-0.1,1.2v4.3h-1.2V237z"/>
		<path d="M1019.2,238.1h-1.1v-1h1.1v-0.4c0-3,2.1-3.4,3.1-3.4c0.3,0,0.6,0,0.6,0v1.1c0,0-0.2,0-0.4,0c-0.7,0-2,0.3-2,2.3v0.4h2.3v1
			h-2.3v7.9h-1.2V238.1z"/>
		<path d="M1024.6,237h1.2v1.6c0,0.4,0,0.7,0,0.7h0c0.4-1.4,1.4-2.4,2.9-2.4c0.3,0,0.5,0.1,0.5,0.1v1.2c0,0-0.2,0-0.5,0
			c-1.3,0-2.2,1-2.6,2.3c-0.2,0.6-0.3,1.2-0.3,1.8v3.8h-1.2V237z"/>
		<path d="M1035.1,236.7c2.6,0,4.8,2,4.8,4.7c0,2.7-2.1,4.8-4.8,4.8s-4.8-2.1-4.8-4.8C1030.3,238.8,1032.4,236.7,1035.1,236.7z
			 M1035.1,245.1c1.9,0,3.5-1.6,3.5-3.7c0-2.1-1.6-3.6-3.5-3.6s-3.5,1.5-3.5,3.6C1031.6,243.5,1033.1,245.1,1035.1,245.1z"/>
		<path d="M1042.2,237h1.2v1.4c0,0.4,0,0.7,0,0.7h0c0.3-0.8,1.5-2.3,3.6-2.3c2.2,0,3,1.3,3,3.5v5.8h-1.2v-5.4c0-1.4-0.2-2.7-2-2.7
			c-1.5,0-2.9,1.1-3.3,2.6c-0.1,0.4-0.1,0.8-0.1,1.2v4.3h-1.2V237z"/>
		<path d="M1053.2,238.1h-1.2v-1h1.2v-2.6h1.2v2.6h2.3v1h-2.3v4.5c0,2.1,1.4,2.4,2,2.4c0.3,0,0.4,0,0.4,0v1.1c0,0-0.2,0-0.5,0
			c-1,0-3.2-0.3-3.2-3.4V238.1z"/>
		<path d="M1067.8,236.7c2.6,0,4.8,2,4.8,4.7c0,2.7-2.1,4.8-4.8,4.8s-4.8-2.1-4.8-4.8C1063,238.8,1065.2,236.7,1067.8,236.7z
			 M1067.8,245.1c1.9,0,3.5-1.6,3.5-3.7c0-2.1-1.6-3.6-3.5-3.6s-3.5,1.5-3.5,3.6C1064.3,243.5,1065.9,245.1,1067.8,245.1z"/>
		<path d="M1075.3,238.1h-1.1v-1h1.1v-0.4c0-3,2.1-3.4,3.1-3.4c0.3,0,0.6,0,0.6,0v1.1c0,0-0.2,0-0.4,0c-0.7,0-2,0.3-2,2.3v0.4h2.3v1
			h-2.3v7.9h-1.2V238.1z"/>
		<path d="M1085.8,238.1h-1.2v-1h1.2v-2.6h1.2v2.6h2.3v1h-2.3v4.5c0,2.1,1.4,2.4,2,2.4c0.3,0,0.4,0,0.4,0v1.1c0,0-0.2,0-0.5,0
			c-1,0-3.2-0.3-3.2-3.4V238.1z"/>
		<path d="M1091.5,233.3h1.2v4.9c0,0.4,0,0.7,0,0.7h0c0.3-0.9,1.5-2.2,3.6-2.2c2.2,0,3,1.3,3,3.5v5.8h-1.2v-5.4c0-1.4-0.2-2.7-2-2.7
			c-1.5,0-2.9,1.1-3.3,2.6c-0.1,0.4-0.1,0.8-0.1,1.2v4.3h-1.2V233.3z"/>
		<path d="M1106,236.7c2.5,0,3.8,1.9,3.8,4.2c0,0.2,0,0.6,0,0.6h-7c0.1,2.3,1.6,3.6,3.5,3.6c1.7,0,2.8-1.1,2.8-1.1l0.6,0.9
			c0,0-1.3,1.3-3.3,1.3c-2.7,0-4.7-1.9-4.7-4.7C1101.6,238.5,1103.6,236.7,1106,236.7z M1108.6,240.5c-0.1-1.9-1.2-2.8-2.6-2.8
			c-1.5,0-2.8,1-3.1,2.8H1108.6z"/>
	</g>
	<g>
		<path d="M816.4,268.1h-1.2v-1h1.2v-2.6h1.2v2.6h2.3v1h-2.3v4.5c0,2.1,1.4,2.4,2,2.4c0.3,0,0.4,0,0.4,0v1.1c0,0-0.2,0-0.5,0
			c-1,0-3.2-0.3-3.2-3.4V268.1z"/>
		<path d="M826.9,270.4h0.5v-0.2c0-1.7-1-2.3-2.3-2.3c-1.5,0-2.6,0.9-2.6,0.9l-0.6-0.9c0,0,1.2-1,3.2-1c2.2,0,3.4,1.2,3.4,3.5v5.8
			h-1.2v-1c0-0.5,0-0.8,0-0.8h0c0,0-0.8,2-3,2c-1.5,0-3.1-0.9-3.1-2.7C821.3,270.5,825.3,270.4,826.9,270.4z M824.6,275.2
			c1.7,0,2.8-1.8,2.8-3.4v-0.4h-0.5c-1.4,0-4.3,0.1-4.3,2.1C822.6,274.3,823.2,275.2,824.6,275.2z"/>
		<path d="M831.4,267h1.2v1.6c0,0.4,0,0.7,0,0.7h0c0.4-1.4,1.4-2.4,2.9-2.4c0.3,0,0.5,0.1,0.5,0.1v1.2c0,0-0.2,0-0.5,0
			c-1.3,0-2.2,1-2.6,2.3c-0.2,0.6-0.3,1.2-0.3,1.8v3.8h-1.2V267z"/>
		<path d="M840.9,278.7c1.8,0,3.2-0.8,3.2-2.8V275c0-0.3,0-0.6,0-0.6h0c-0.5,1-1.5,1.6-2.9,1.6c-2.4,0-4-1.9-4-4.6s1.5-4.6,3.9-4.6
			c2.4,0,3,1.5,3,1.5h0c0,0,0-0.1,0-0.3v-1h1.2v8.8c0,2.9-2.1,4-4.3,4c-1,0-2.1-0.3-3-0.7l0.5-1
			C838.5,278.1,839.6,278.7,840.9,278.7z M844.1,271.3c0-2.6-1.3-3.5-2.9-3.5c-1.8,0-2.8,1.3-2.8,3.4c0,2.2,1.2,3.6,3,3.6
			C842.9,274.9,844.1,274,844.1,271.3z"/>
		<path d="M852.1,266.7c2.5,0,3.8,1.9,3.8,4.2c0,0.2,0,0.6,0,0.6h-7c0.1,2.3,1.6,3.6,3.5,3.6c1.7,0,2.8-1.1,2.8-1.1l0.6,0.9
			c0,0-1.3,1.3-3.3,1.3c-2.7,0-4.7-1.9-4.7-4.7C847.7,268.5,849.7,266.7,852.1,266.7z M854.7,270.5c-0.1-1.9-1.2-2.8-2.6-2.8
			c-1.5,0-2.8,1-3.1,2.8H854.7z"/>
		<path d="M858.6,268.1h-1.2v-1h1.2v-2.6h1.2v2.6h2.3v1h-2.3v4.5c0,2.1,1.4,2.4,2,2.4c0.3,0,0.4,0,0.4,0v1.1c0,0-0.2,0-0.5,0
			c-1,0-3.2-0.3-3.2-3.4V268.1z"/>
		<path d="M868.1,266.7c2.5,0,3.8,1.9,3.8,4.2c0,0.2,0,0.6,0,0.6h-7c0.1,2.3,1.6,3.6,3.5,3.6c1.7,0,2.8-1.1,2.8-1.1l0.6,0.9
			c0,0-1.3,1.3-3.3,1.3c-2.7,0-4.7-1.9-4.7-4.7C863.6,268.5,865.7,266.7,868.1,266.7z M870.6,270.5c-0.1-1.9-1.2-2.8-2.6-2.8
			c-1.5,0-2.8,1-3.1,2.8H870.6z"/>
		<path d="M877.7,266.7c2.2,0,3,1.7,3,1.7h0c0,0,0-0.3,0-0.7v-4.4h1.2V276h-1.2v-1c0-0.4,0-0.6,0-0.6h0c0,0-0.7,1.8-3.1,1.8
			c-2.4,0-3.9-1.9-3.9-4.8C873.6,268.6,875.3,266.7,877.7,266.7z M877.8,275.1c1.5,0,2.9-1.1,2.9-3.7c0-1.8-0.9-3.6-2.9-3.6
			c-1.6,0-2.9,1.4-2.9,3.6C874.9,273.7,876.1,275.1,877.8,275.1z"/>
		<path d="M889.5,267h1.2v5.4c0,1.4,0.2,2.7,2,2.7c2.1,0,3.3-1.8,3.3-3.8V267h1.2v9.1h-1.2v-1.4c0-0.4,0-0.7,0-0.7h0
			c-0.4,0.9-1.5,2.3-3.5,2.3c-2.1,0-3-1.2-3-3.5V267z"/>
		<path d="M900.2,274c0,0,1,1.1,2.7,1.1c1,0,1.8-0.5,1.8-1.4c0-2-4.9-1.5-4.9-4.4c0-1.6,1.5-2.5,3.1-2.5c1.9,0,2.8,1,2.8,1l-0.6,0.9
			c0,0-0.8-0.8-2.3-0.8c-0.9,0-1.8,0.4-1.8,1.4c0,2,4.9,1.5,4.9,4.4c0,1.5-1.3,2.5-3.1,2.5c-2.2,0-3.3-1.3-3.3-1.3L900.2,274z"/>
		<path d="M912.1,266.7c2.5,0,3.8,1.9,3.8,4.2c0,0.2,0,0.6,0,0.6h-7c0.1,2.3,1.6,3.6,3.5,3.6c1.7,0,2.8-1.1,2.8-1.1l0.6,0.9
			c0,0-1.3,1.3-3.3,1.3c-2.7,0-4.7-1.9-4.7-4.7C907.6,268.5,909.6,266.7,912.1,266.7z M914.6,270.5c-0.1-1.9-1.2-2.8-2.6-2.8
			c-1.5,0-2.8,1-3.1,2.8H914.6z"/>
		<path d="M918.2,267h1.2v1.6c0,0.4,0,0.7,0,0.7h0c0.4-1.4,1.4-2.4,2.9-2.4c0.3,0,0.5,0.1,0.5,0.1v1.2c0,0-0.2,0-0.5,0
			c-1.3,0-2.2,1-2.6,2.3c-0.2,0.6-0.3,1.2-0.3,1.8v3.8h-1.2V267z"/>
	</g>
	<g>
		<path d="M923.9,274.6h1.4v1.4h-1.4V274.6z"/>
		<path d="M933.6,263.3h1.2V276h-1.2V263.3z"/>
		<path d="M938.5,268.1h-1.1v-1h1.1v-0.4c0-3,2.1-3.4,3.1-3.4c0.3,0,0.6,0,0.6,0v1.1c0,0-0.2,0-0.4,0c-0.7,0-2,0.3-2,2.3v0.4h2.3v1
			h-2.3v7.9h-1.2V268.1z"/>
		<path d="M949.1,268.1h-1.2v-1h1.2v-2.6h1.2v2.6h2.3v1h-2.3v4.5c0,2.1,1.4,2.4,2,2.4c0.3,0,0.4,0,0.4,0v1.1c0,0-0.2,0-0.5,0
			c-1,0-3.2-0.3-3.2-3.4V268.1z"/>
		<path d="M954.7,263.3h1.2v4.9c0,0.4,0,0.7,0,0.7h0c0.3-0.9,1.5-2.2,3.6-2.2c2.2,0,3,1.3,3,3.5v5.8h-1.2v-5.4c0-1.4-0.2-2.7-2-2.7
			c-1.5,0-2.9,1.1-3.3,2.6c-0.1,0.4-0.1,0.8-0.1,1.2v4.3h-1.2V263.3z"/>
		<path d="M969.2,266.7c2.5,0,3.8,1.9,3.8,4.2c0,0.2,0,0.6,0,0.6h-7c0.1,2.3,1.6,3.6,3.5,3.6c1.7,0,2.8-1.1,2.8-1.1l0.6,0.9
			c0,0-1.3,1.3-3.3,1.3c-2.7,0-4.7-1.9-4.7-4.7C964.8,268.5,966.8,266.7,969.2,266.7z M971.8,270.5c-0.1-1.9-1.2-2.8-2.6-2.8
			c-1.5,0-2.8,1-3.1,2.8H971.8z"/>
		<path d="M974.5,278.3c0,0,0.5,0.4,1.1,0.4c0.8,0,1.4-0.6,1.7-1.5l0.6-1.3l-3.8-9h1.4l2.7,6.6c0.2,0.5,0.3,1,0.3,1h0
			c0,0,0.1-0.5,0.3-1l2.6-6.6h1.3l-4.5,10.9c-0.5,1.2-1.4,1.9-2.6,1.9c-0.9,0-1.6-0.5-1.6-0.5L974.5,278.3z"/>
		<path d="M992.7,266.7c2.2,0,3,1.7,3,1.7h0c0,0,0-0.3,0-0.7v-4.4h1.2V276h-1.2v-1c0-0.4,0-0.6,0-0.6h0c0,0-0.7,1.8-3.1,1.8
			c-2.4,0-3.9-1.9-3.9-4.8C988.6,268.6,990.3,266.7,992.7,266.7z M992.7,275.1c1.5,0,2.9-1.1,2.9-3.7c0-1.8-0.9-3.6-2.9-3.6
			c-1.6,0-2.9,1.4-2.9,3.6C989.9,273.7,991,275.1,992.7,275.1z"/>
		<path d="M1003.9,266.7c2.6,0,4.8,2,4.8,4.7c0,2.7-2.1,4.8-4.8,4.8s-4.8-2.1-4.8-4.8C999.1,268.8,1001.3,266.7,1003.9,266.7z
			 M1003.9,275.1c1.9,0,3.5-1.6,3.5-3.7c0-2.1-1.6-3.6-3.5-3.6s-3.5,1.5-3.5,3.6C1000.4,273.5,1002,275.1,1003.9,275.1z"/>
		<path d="M1015.8,267h1.2v1.4c0,0.4,0,0.7,0,0.7h0c0.3-0.8,1.5-2.3,3.6-2.3c2.2,0,3,1.3,3,3.5v5.8h-1.2v-5.4c0-1.4-0.2-2.7-2-2.7
			c-1.5,0-2.9,1.1-3.3,2.6c-0.1,0.4-0.1,0.8-0.1,1.2v4.3h-1.2V267z"/>
		<path d="M1030.6,266.7c2.6,0,4.8,2,4.8,4.7c0,2.7-2.1,4.8-4.8,4.8s-4.8-2.1-4.8-4.8C1025.8,268.8,1028,266.7,1030.6,266.7z
			 M1030.6,275.1c1.9,0,3.5-1.6,3.5-3.7c0-2.1-1.6-3.6-3.5-3.6s-3.5,1.5-3.5,3.6C1027.1,273.5,1028.7,275.1,1030.6,275.1z"/>
		<path d="M1038,268.1h-1.2v-1h1.2v-2.6h1.2v2.6h2.3v1h-2.3v4.5c0,2.1,1.4,2.4,2,2.4c0.3,0,0.4,0,0.4,0v1.1c0,0-0.2,0-0.5,0
			c-1,0-3.2-0.3-3.2-3.4V268.1z"/>
		<path d="M1052.7,266.7c2.2,0,3.3,1.3,3.3,1.3l-0.6,0.9c0,0-1-1.1-2.6-1.1c-2,0-3.5,1.5-3.5,3.6c0,2.1,1.6,3.6,3.6,3.6
			c1.8,0,2.9-1.3,2.9-1.3l0.6,1c0,0-1.2,1.4-3.5,1.4c-2.7,0-4.8-1.9-4.8-4.7C1047.9,268.7,1050,266.7,1052.7,266.7z"/>
		<path d="M1058.4,263.3h1.2v10.2c0,1.2,0.5,1.4,1,1.4c0.2,0,0.3,0,0.3,0v1.1c0,0-0.2,0-0.5,0c-0.8,0-2.1-0.2-2.1-2.2V263.3z"/>
		<path d="M1062.9,263.3h1.3v1.5h-1.3V263.3z M1062.9,267h1.2v9.1h-1.2V267z"/>
		<path d="M1071.2,266.7c2.2,0,3.3,1.3,3.3,1.3l-0.6,0.9c0,0-1-1.1-2.6-1.1c-2,0-3.5,1.5-3.5,3.6c0,2.1,1.6,3.6,3.6,3.6
			c1.8,0,2.9-1.3,2.9-1.3l0.6,1c0,0-1.2,1.4-3.5,1.4c-2.7,0-4.8-1.9-4.8-4.7C1066.4,268.7,1068.5,266.7,1071.2,266.7z"/>
		<path d="M1077,263.3h1.2v7.1h1.4l2.7-3.5h1.5l-3.2,3.9v0l3.5,5.1h-1.5l-3-4.5h-1.5v4.5h-1.2V263.3z"/>
		<path d="M1086.2,274.5h1.4l-1.3,3.2h-1L1086.2,274.5z"/>
		<path d="M1094.3,278.3c0,0,0.5,0.4,1.1,0.4c0.8,0,1.3-0.6,1.7-1.5l0.6-1.3l-3.8-9h1.4l2.7,6.6c0.2,0.5,0.3,1,0.3,1h0
			c0,0,0.1-0.5,0.3-1l2.6-6.6h1.3l-4.5,10.9c-0.5,1.2-1.4,1.9-2.6,1.9c-0.9,0-1.6-0.5-1.6-0.5L1094.3,278.3z"/>
		<path d="M1108.3,266.7c2.6,0,4.8,2,4.8,4.7c0,2.7-2.1,4.8-4.8,4.8s-4.8-2.1-4.8-4.8C1103.5,268.8,1105.7,266.7,1108.3,266.7z
			 M1108.3,275.1c1.9,0,3.5-1.6,3.5-3.7c0-2.1-1.6-3.6-3.5-3.6s-3.5,1.5-3.5,3.6C1104.8,273.5,1106.4,275.1,1108.3,275.1z"/>
		<path d="M1115.3,267h1.2v5.4c0,1.4,0.2,2.7,2,2.7c2.1,0,3.3-1.8,3.3-3.8V267h1.2v9.1h-1.2v-1.4c0-0.4,0-0.7,0-0.7h0
			c-0.4,0.9-1.5,2.3-3.5,2.3c-2.1,0-3-1.2-3-3.5V267z"/>
	</g>
	<g>
		<path d="M819.5,296.7c2.2,0,3,1.7,3,1.7h0c0,0,0-0.3,0-0.7v-4.4h1.2V306h-1.2v-1c0-0.4,0-0.6,0-0.6h0c0,0-0.7,1.8-3.1,1.8
			c-2.4,0-3.9-1.9-3.9-4.8C815.4,298.6,817.1,296.7,819.5,296.7z M819.5,305.1c1.5,0,2.9-1.1,2.9-3.7c0-1.8-0.9-3.6-2.9-3.6
			c-1.6,0-2.9,1.4-2.9,3.6C816.7,303.7,817.9,305.1,819.5,305.1z"/>
		<path d="M830.7,296.7c2.6,0,4.8,2,4.8,4.7c0,2.7-2.1,4.8-4.8,4.8s-4.8-2.1-4.8-4.8C826,298.8,828.1,296.7,830.7,296.7z
			 M830.7,305.1c1.9,0,3.5-1.6,3.5-3.7c0-2.1-1.6-3.6-3.5-3.6s-3.5,1.5-3.5,3.6C827.2,303.5,828.8,305.1,830.7,305.1z"/>
		<path d="M842.7,297h1.2v1.4c0,0.4,0,0.7,0,0.7h0c0.3-0.8,1.5-2.3,3.6-2.3c2.2,0,3,1.3,3,3.5v5.8h-1.2v-5.4c0-1.4-0.2-2.7-2-2.7
			c-1.5,0-2.9,1.1-3.3,2.6c-0.1,0.4-0.1,0.8-0.1,1.2v4.3h-1.2V297z"/>
		<path d="M857.5,296.7c2.6,0,4.8,2,4.8,4.7c0,2.7-2.1,4.8-4.8,4.8s-4.8-2.1-4.8-4.8C852.7,298.8,854.8,296.7,857.5,296.7z
			 M857.5,305.1c1.9,0,3.5-1.6,3.5-3.7c0-2.1-1.6-3.6-3.5-3.6s-3.5,1.5-3.5,3.6C853.9,303.5,855.5,305.1,857.5,305.1z"/>
		<path d="M864.9,298.1h-1.2v-1h1.2v-2.6h1.2v2.6h2.3v1h-2.3v4.5c0,2.1,1.4,2.4,2,2.4c0.3,0,0.4,0,0.4,0v1.1c0,0-0.2,0-0.5,0
			c-1,0-3.2-0.3-3.2-3.4V298.1z"/>
		<path d="M875.4,297h1.2v0.9c0,0.4,0,0.7,0,0.7h0c0,0,0.7-1.8,3.1-1.8c2.4,0,3.9,1.9,3.9,4.8c0,2.9-1.7,4.7-4.1,4.7
			c-2.2,0-3-1.7-3-1.7h0c0,0,0,0.3,0,0.8v4.3h-1.2V297z M879.5,305.1c1.6,0,2.9-1.4,2.9-3.7c0-2.2-1.2-3.6-2.9-3.6
			c-1.5,0-2.9,1.1-2.9,3.7C876.6,303.3,877.6,305.1,879.5,305.1z"/>
		<path d="M890.8,300.4h0.5v-0.2c0-1.7-1-2.3-2.3-2.3c-1.5,0-2.6,0.9-2.6,0.9l-0.6-0.9c0,0,1.2-1,3.2-1c2.2,0,3.4,1.2,3.4,3.5v5.8
			h-1.2v-1c0-0.5,0-0.8,0-0.8h0c0,0-0.8,2-3,2c-1.5,0-3.1-0.9-3.1-2.7C885.3,300.5,889.2,300.4,890.8,300.4z M888.5,305.2
			c1.7,0,2.8-1.8,2.8-3.4v-0.4h-0.5c-1.4,0-4.3,0.1-4.3,2.1C886.5,304.3,887.2,305.2,888.5,305.2z"/>
		<path d="M894.5,308.3c0,0,0.5,0.4,1.1,0.4c0.8,0,1.3-0.6,1.7-1.5l0.6-1.3l-3.8-9h1.4l2.7,6.6c0.2,0.5,0.3,1,0.3,1h0
			c0,0,0.1-0.5,0.3-1l2.6-6.6h1.3l-4.5,10.9c-0.5,1.2-1.4,1.9-2.6,1.9c-0.9,0-1.6-0.5-1.6-0.5L894.5,308.3z"/>
	</g>
	<g>
		<path d="M903.9,304.6h1.4v1.4h-1.4V304.6z"/>
	</g>
	<path class="st2" d="M422.5,140.3L334.2,40H170.5 M757.5,172.5l55-55.5h206"/>
	<path class="st3" d="M755.5,184.8c0,94.3-76.4,170.8-170.8,170.8c-94.3,0-170.8-76.4-170.8-170.8C414,90.4,490.5,14,584.8,14
		C679.1,14,755.5,90.4,755.5,184.8"/>
	<path class="st4" d="M691,190V69.8c0-4.5-3.7-8.3-8.3-8.3H486.7c-4.5,0-8.3,3.7-8.3,8.3V190H691z"/>
	<path class="st5" d="M691,190V69.8c0-4.5-3.7-8.3-8.3-8.3H486.7c-4.5,0-8.3,3.7-8.3,8.3V190H691L691,190z"/>
	<rect x="485.7" y="70.3" class="st3" width="197.3" height="112.3"/>
	<rect x="602.4" y="77.7" class="st6" width="73.7" height="97.3"/>
	<rect x="494.2" y="77.7" class="st7" width="99.9" height="44.5"/>
	<rect x="459.7" y="188.8" class="st8" width="250" height="5.9"/>
	<path class="st9" d="M584.5,194.8H459.7c2,2.8,8.8,2.8,11.2,2.8h113.6h114c2.4,0,9.2,0,11.2-2.8H584.5z"/>
	<path class="st9" d="M566.2,188.8c0,1.9,1.6,3.5,3.6,3.5h29.5c2,0,3.6-1.6,3.6-3.5H566.2z"/>
	<g>
		<path class="st3" d="M615.7,93.8c0.4,0,0.8,0.2,0.9,0.6l2.1,7l1.5,6h0.2l1.5-6l2-7c0.1-0.4,0.5-0.6,0.9-0.6h1.7
			c0.6,0,0.9,0.5,0.7,1.1l-5.3,16.9v10.6c0,0.6-0.3,0.9-0.9,0.9h-1.7c-0.6,0-0.9-0.3-0.9-0.9v-10.6l-5.3-16.9
			c-0.2-0.6,0.1-1.1,0.7-1.1H615.7z"/>
	</g>
	<g>
		<path class="st3" d="M638,105.2v13.3c0,3.1-1.1,4.8-5.1,4.8c-3.9,0-5.1-1.7-5.1-4.8v-13.3c0-3.1,1.1-4.8,5.1-4.8
			C636.9,100.4,638,102.1,638,105.2z M631,105.3v13.3c0,1.7,0.6,2.3,2,2.3c1.4,0,2-0.6,2-2.3v-13.3c0-1.7-0.6-2.3-2-2.3
			C631.6,103,631,103.5,631,105.3z"/>
		<path class="st3" d="M641.2,101.4c0-0.6,0.3-0.9,0.9-0.9h1.3c0.6,0,0.9,0.3,0.9,0.9v17c0,1.7,0.4,2.3,1.8,2.3
			c1.4,0,2.2-0.7,2.2-2.4v-16.8c0-0.6,0.3-0.9,0.9-0.9h1.4c0.6,0,0.9,0.3,0.9,0.9v20.9c0,0.5-0.3,0.9-0.9,0.9h-1.4
			c-0.6,0-0.9-0.3-0.9-0.9v-0.5c-1.1,1-2.5,1.6-3.7,1.6c-1.8,0-3.3-1.1-3.3-3.7V101.4z"/>
		<path class="st3" d="M664.8,109.9c0,0.5-0.3,0.9-0.9,0.9h-1.4c-0.6,0-0.9-0.3-0.9-0.9v-4.6c0-1.7-0.5-2.3-1.8-2.3
			c-1.4,0-2.1,0.7-2.1,2.4v16.8c0,0.5-0.3,0.9-0.9,0.9h-1.3c-0.6,0-0.9-0.3-0.9-0.9v-20.9c0-0.6,0.3-0.9,0.9-0.9h1.3
			c0.6,0,0.9,0.3,0.9,0.9v0.5c1-1,2.4-1.6,3.7-1.6c1.8,0,3.3,1.1,3.3,3.7V109.9z"/>
	</g>
	<g>
		<path class="st3" d="M636.2,159.5l-0.9-5.6h-5.7l-0.8,5.6c-0.1,0.5-0.4,0.8-0.9,0.8h-1.7c-0.6,0-0.9-0.4-0.8-1l4.2-27.5
			c0.1-0.6,0.4-0.9,1-0.9h3.7c0.6,0,0.9,0.3,0.9,0.9l4.2,27.5c0.1,0.6-0.2,1-0.8,1h-1.7C636.6,160.3,636.2,160,636.2,159.5z
			 M630.1,151.1h4.9l-1.4-9.5l-0.9-7.9h-0.2l-0.9,7.9L630.1,151.1z"/>
		<path class="st3" d="M651.8,159.4c0,0.5-0.3,0.9-0.9,0.9h-1.4c-0.6,0-0.9-0.3-0.9-0.9v-0.5c-1.1,1-2.5,1.6-3.7,1.6
			c-1.8,0-3.3-1.1-3.3-3.7v-15.5c0-2.6,1.5-3.7,3.3-3.7c1.3,0,2.7,0.6,3.7,1.6v-10.5c0-0.6,0.3-0.9,0.9-0.9h1.4
			c0.6,0,0.9,0.3,0.9,0.9V159.4z M644.7,155.5c0,1.7,0.4,2.3,1.8,2.3c1.4,0,2.2-0.7,2.2-2.4v-12.8c0-1.7-0.8-2.4-2.2-2.4
			c-1.3,0-1.8,0.6-1.8,2.3V155.5z"/>
	</g>
	<line class="st7" x1="494.2" y1="130.1" x2="594.1" y2="130.1"/>
	<line class="st10" x1="494.2" y1="130.1" x2="594.1" y2="130.1"/>
	<line class="st7" x1="494.2" y1="120.8" x2="594.1" y2="120.8"/>
	<line class="st7" x1="494.2" y1="139.5" x2="594.1" y2="139.5"/>
	<line class="st10" x1="494.2" y1="139.5" x2="594.1" y2="139.5"/>
	<line class="st7" x1="494.2" y1="148.9" x2="594.1" y2="148.9"/>
	<line class="st10" x1="494.2" y1="148.9" x2="594.1" y2="148.9"/>
	<path class="st11" d="M599.8,274.4c0,0-5.2,2.2-4.2,6.3c0.9,4.1,6.2,2.1,6.2,2.1l0.6-3.6L599.8,274.4z"/>
	<path class="st11" d="M602,281.7c0,0-5.2,2.2-4.2,6.3c0.9,4.1,6.2,2.1,6.2,2.1l0.6-3.6L602,281.7z"/>
	<path class="st12" d="M607.8,255.7c-1.5-1.3-3.3-1.4-4.6,0.5c-1.3,1.9-1.5,6-2.4,8.9c-0.9,2.9-2.4,5.1-2.1,6.1
		c0.3,1,8.6,2.4,8.6,2.4S610,257.7,607.8,255.7"/>
	<path class="st6" d="M624.2,179.5c-19.9-2.3-37.9,12-40.2,32c-1.9,16.5,7.6,31.7,22.2,37.7c1.2,0.5,1.9,1.7,1.8,3l-5.2,45.6
		c-0.5,4.3,2.6,8.2,6.9,8.7c4.3,0.5,8.2-2.6,8.7-6.9l5.2-45.6c0.1-1.3,1.1-2.3,2.4-2.5c15.6-2.6,28.3-15.2,30.2-31.7
		C658.4,199.8,644.1,181.8,624.2,179.5"/>
	<path class="st13" d="M645.7,227.2c-6.3,14.1-22.9,20.4-37,14.1c-14.1-6.3-20.4-22.9-14.1-37c6.3-14.1,22.9-20.4,37-14.1
		C645.8,196.5,652.1,213.1,645.7,227.2"/>
	<path class="st14" d="M645.7,227.2c-6.3,14.1-22.9,20.4-37,14.1c-14.1-6.3-20.4-22.9-14.1-37c6.3-14.1,22.9-20.4,37-14.1
		C645.8,196.5,652.1,213.1,645.7,227.2L645.7,227.2z"/>
	<path class="st12" d="M620.6,309.6l-17.9-7.6c0,0-3.2-5.9-3.2-12c0-2.5,0.1-4.6,0.5-6.2c0.1-0.6,0.2-1.4,0.2-1.4s-3.7-9.2-1-13.1
		c2.1-3,7-3.7,7-3.7s0.2,5.4,6.9,5.8c6.6,0.4,9.2-6.6,9.2-6.6s3.9,0.8,5.1,3.6c1.2,2.8,0,6.1,0,6.1s2.9,0.6,3.4,4.4
		c0.5,3.8-1,5.6-1,5.6s1.8,0.8,2,3.4c0,0.1,0,0.1,0,0.2c0.1,2.7-2.1,5.8-2.1,5.8s0.6,1.2-0.3,4.8
		C628.5,302.3,620.6,309.6,620.6,309.6"/>
	<path class="st11" d="M620.6,309.6l-17.1-4.2c0,0-4.3-9.6-4.3-15.6c0-2.5,0.4-4.5,0.8-6c0.6,3.4,2.6,8.3,9.1,10.3
		c8.2,2.4,19.2-3.8,22.8-6c0,0.1,0,0.1,0,0.2c0.1,2.7-2.1,5.8-2.1,5.8s0.6,1.2-0.3,4.8C628.5,302.3,620.6,309.6,620.6,309.6"/>
	<path class="st3" d="M600.6,313.1l1.6-9.1c0,0,3.4-4.2,10.1-2.9c9.3,1.8,9.7,10.9,9.7,10.9l0,7.4L600.6,313.1z"/>
	<path class="st3" d="M609.4,212.6c1.4,0.1,2-0.6,2.1-1.8l0.2-2.9c0.1-1.2-0.4-2-1.8-2.1l-1.3-0.1l-0.6,6.8L609.4,212.6z
		 M608.5,222.7c1.4,0.1,2-0.6,2.1-1.8l0.2-3c0.1-1.2-0.4-2-1.8-2.1l-1.3-0.1l-0.6,7L608.5,222.7z M604,225.5c-0.7-0.1-1.1-0.5-1-1.2
		l1.7-21c0.1-0.7,0.5-1.1,1.2-1l4.3,0.4c4.2,0.3,5.9,2.2,5.6,5.6l-0.1,1.7c-0.2,2.4-1.2,3.9-3.3,4.4l0,0.3c2,0.9,2.7,2.5,2.5,4.9
		l-0.1,1.7c-0.3,3.5-2.3,5-6.5,4.6L604,225.5z"/>
	<path class="st3" d="M620.9,225.8c-0.1,0.7-0.5,1.1-1.2,1l-1.8-0.2c-0.7-0.1-1.1-0.5-1-1.2l1.7-21c0.1-0.7,0.5-1.1,1.2-1l1.8,0.1
		c0.7,0.1,1.1,0.5,1,1.2L620.9,225.8z"/>
	<path class="st3" d="M629.3,224.4c1.4,0.1,2-0.6,2.1-1.8l1.1-13c0.1-1.2-0.4-2-1.8-2.1l-1.6-0.1l-1.4,16.9L629.3,224.4z
		 M624.5,227.2c-0.7-0.1-1.1-0.5-1-1.2l1.7-21c0.1-0.7,0.5-1.1,1.2-1l4.6,0.4c4.1,0.3,5.9,2.2,5.6,5.6l-1.1,13
		c-0.3,3.5-2.3,5-6.4,4.6L624.5,227.2z"/>
	<g>
		<defs>
			<path id="SVGID_1_" d="M414,184.8c0,94.3,76.4,170.8,170.8,170.8c94.3,0,170.8-76.4,170.8-170.8C755.5,90.4,679.1,14,584.8,14
				C490.5,14,414,90.4,414,184.8"/>
		</defs>
		<clipPath id="SVGID_2_">
			<use xlink:href="#SVGID_1_"  style="overflow:visible;"/>
		</clipPath>
		<path class="st15" d="M473.9,228c0,0,2.1,5.2-1.6,7.4c-3.6,2.2-5.8-3-5.8-3l2.1-2.9L473.9,228z"/>
		<path class="st15" d="M467.1,231.5c0,0,2.1,5.2-1.6,7.4c-3.6,2.2-5.8-3-5.8-3l2.1-2.9L467.1,231.5z"/>
		<path class="st16" d="M481.9,209.2c2,0.1,3.3,1.4,2.8,3.6c-0.5,2.2-3.3,5.3-4.7,8c-1.5,2.7-2,5.2-2.9,5.7
			c-0.9,0.5-7.7-4.6-7.7-4.6S478.8,209,481.9,209.2"/>
		<path class="st17" d="M525.2,144.5c15.5,12.7,17.7,35.6,5,51.1c-10.6,12.8-28.1,16.6-42.6,10.2c-1.2-0.5-2.6-0.2-3.4,0.8
			l-29.2,35.5c-2.8,3.4-7.7,3.8-11.1,1.1c-3.4-2.8-3.8-7.7-1.1-11.1l29.2-35.5c0.8-1,0.9-2.4,0.1-3.5c-9-13-8.7-30.9,1.8-43.7
			C486.8,134,509.7,131.8,525.2,144.5"/>
		<path class="st18" d="M476,162.1c-5.7,14.4,1.2,30.6,15.6,36.4c14.4,5.7,30.6-1.2,36.4-15.6c5.7-14.4-1.2-30.6-15.6-36.4
			C498,140.8,481.7,147.8,476,162.1"/>
		<path class="st16" d="M434.2,237.5l17.9,7.6c0,0,6.5-1.8,10.8-6c1.8-1.7,3.2-3.3,4.1-4.7c0.3-0.5,0.8-1.1,0.8-1.1
			s9.2-3.7,10.1-8.4c0.7-3.6-2.2-7.6-2.2-7.6s-4,3.6-9-0.9c-4.9-4.5-1.7-11.2-1.7-11.2s-3.3-2.3-6.2-1.2c-2.9,1.1-4.3,4.2-4.3,4.2
			s-2.4-1.6-5.6,0.6c-3.1,2.3-3.4,4.6-3.4,4.6s-1.8-0.7-3.8,0.9c-0.1,0-0.1,0.1-0.2,0.1c-2.1,1.8-2.7,5.6-2.7,5.6s-1.3,0.4-3.2,3.6
			C433.9,226.7,434.2,237.5,434.2,237.5"/>
		<path class="st15" d="M434.2,237.5l17.9,7.6c0,0,6.8-1.8,11.2-6c1.8-1.7,3-3.4,3.7-4.7c-2.8,1.9-7.8,3.9-13.7,0.6
			c-7.5-4.2-10.6-16.4-11.5-20.6c-0.1,0-0.1,0.1-0.2,0.1c-2.1,1.8-2.7,5.6-2.7,5.6s-1.3,0.4-3.2,3.6
			C433.9,226.7,434.2,237.5,434.2,237.5"/>
		<path class="st18" d="M450.1,250.9l5.4-7.5c0,0,1.1-6-4.9-9.2c-6-3.3-14.6,0.6-14.6,0.6l-5.4,5.1L450.1,250.9z"/>
		<path class="st19" d="M452.6,250.6l-49.5,75.2l-6-51.2l34.3-37.1c0,0,0.8-0.2,2.1-0.3c0.2,0,0.5,0,0.8,0c1.8,0,4.2,0.2,7,1.2
			c1.4,0.5,2.9,1.2,4.4,2.2c1.4,0.9,2.6,2.1,3.5,3.3c0.3,0.4,0.6,0.8,0.8,1.1c0.8,1.3,1.4,2.5,1.8,3.5
			C452.4,249.7,452.6,250.6,452.6,250.6"/>
		<path class="st20" d="M495.2,164.6c1.1,1,2,0.7,2.8-0.2l1.9-2.2c0.8-0.9,0.9-1.8-0.2-2.8l-1-0.9l-4.5,5.1L495.2,164.6z
			 M488.4,172.2c1.1,1,2,0.7,2.8-0.2l2-2.2c0.8-0.9,0.9-1.8-0.2-2.8l-1-0.9l-4.6,5.2L488.4,172.2z M483.1,171.7
			c-0.5-0.5-0.6-1.1-0.1-1.6l13.9-15.8c0.5-0.5,1-0.5,1.6-0.1l3.2,2.9c3.1,2.8,3.4,5.3,1.2,7.8l-1.1,1.3c-1.6,1.8-3.3,2.4-5.3,1.6
			l-0.2,0.2c1.1,1.9,0.7,3.7-0.9,5.4l-1.1,1.3c-2.3,2.6-4.8,2.6-7.9-0.1L483.1,171.7z"/>
		<path class="st20" d="M496.5,182.1c-0.5,0.5-1.1,0.6-1.6,0.1l-1.4-1.2c-0.5-0.5-0.6-1.1-0.1-1.6l13.9-15.8c0.5-0.5,1-0.5,1.6-0.1
			l1.4,1.2c0.5,0.5,0.6,1,0.1,1.6L496.5,182.1z"/>
		<path class="st20" d="M504.1,186c1.1,0.9,2,0.7,2.8-0.2l8.6-9.8c0.8-0.9,0.9-1.8-0.2-2.8l-1.2-1.1l-11.2,12.7L504.1,186z
			 M498.6,185.3c-0.5-0.5-0.6-1.1-0.1-1.6l13.9-15.8c0.5-0.5,1-0.5,1.6-0.1l3.4,3c3.1,2.7,3.4,5.2,1.1,7.8l-8.6,9.8
			c-2.3,2.6-4.8,2.6-7.9-0.1L498.6,185.3z"/>
		<path class="st21" d="M500.4,295.9c0,0-5.6,0.2-6.2,4.4c-0.6,4.2,5,4.2,5,4.2l1.9-3.1L500.4,295.9z"/>
		<path class="st21" d="M499.8,303.5c0,0-5.6,0.2-6.2,4.4c-0.6,4.2,5,4.2,5,4.2l1.9-3.1L499.8,303.5z"/>
		<path class="st22" d="M514.6,281.3c-0.9-1.8-2.6-2.5-4.5-1.2c-1.9,1.3-3.6,5.1-5.5,7.5c-1.9,2.4-4,3.9-4.1,4.9
			c-0.1,1,7.2,5.3,7.2,5.3S515.9,284,514.6,281.3"/>
		<path class="st17" d="M557.1,216.1c-17.8-9.3-39.7-2.4-49,15.4c-7.7,14.7-4.3,32.3,7.2,43.2c0.9,0.9,1.2,2.3,0.6,3.4l-21.2,40.7
			c-2,3.9-0.5,8.6,3.3,10.6c3.9,2,8.6,0.5,10.6-3.3l21.2-40.7c0.6-1.1,1.9-1.7,3.1-1.5c15.5,3.2,31.9-4.1,39.5-18.8
			C581.8,247.3,574.9,225.3,557.1,216.1"/>
		<path class="st18" d="M560.2,268.3c-11,10.9-28.7,10.8-39.6-0.1c-10.9-11-10.8-28.7,0.1-39.6c11-10.9,28.7-10.8,39.6,0.1
			C571.2,239.7,571.1,257.4,560.2,268.3"/>
		<path class="st22" d="M507.2,336.2l-14-13.5c0,0-0.9-6.7,1.3-12.3c0.9-2.3,1.8-4.3,2.7-5.6c0.4-0.5,0.7-1.2,0.7-1.2
			s-0.2-9.9,3.8-12.6c3.1-2,7.9-0.9,7.9-0.9s-1.7,5.1,4.4,7.9c6,2.8,11-2.8,11-2.8s3.4,2.1,3.5,5.2c0.1,3-2.2,5.6-2.2,5.6
			s2.5,1.6,1.6,5.4c-0.9,3.8-2.9,4.9-2.9,4.9s1.4,1.4,0.6,3.8c0,0.1,0,0.1-0.1,0.2c-0.9,2.6-4.1,4.6-4.1,4.6s0.1,1.3-2,4.3
			C517.2,332.3,507.2,336.2,507.2,336.2"/>
		<path class="st21" d="M507.2,336.2l-14.4-10c0,0-0.6-10.5,1.6-16.1c0.9-2.3,1.9-4.1,2.9-5.3c-0.7,3.3-0.5,8.7,4.9,12.9
			c6.8,5.2,19.3,3.3,23.4,2.5c0,0.1,0,0.1-0.1,0.2c-0.9,2.6-4.1,4.6-4.1,4.6s0.1,1.3-2,4.3C517.2,332.3,507.2,336.2,507.2,336.2"/>
		<path class="st18" d="M487.3,332.3l4.8-8c0,0,4.7-2.7,10.4,0.9c8,5,5.2,13.6,5.2,13.6l-2.6,6.9L487.3,332.3z"/>
		<path class="st23" d="M507,344.3L495.8,372h-32l22.9-42.1c0,0,0.9-0.1,2.2-0.1c2.4,0.1,6.4,0.5,9.8,2.6c4.8,2.9,7,7.4,7.8,9.9v0
			C506.8,343.5,507,344.3,507,344.3"/>
		<path class="st20" d="M531.6,242.9c1.3,0.6,2.1,0.2,2.6-0.9l1.3-2.6c0.5-1,0.4-2-0.9-2.6l-1.2-0.6l-3,6.2L531.6,242.9z
			 M527.2,252.1c1.3,0.6,2.1,0.1,2.6-0.9l1.3-2.7c0.5-1.1,0.4-2-0.9-2.6l-1.2-0.6l-3,6.3L527.2,252.1z M522,253
			c-0.6-0.3-0.8-0.9-0.5-1.5l9.1-19c0.3-0.6,0.9-0.8,1.5-0.5l3.9,1.9c3.8,1.8,4.7,4.1,3.2,7.2l-0.7,1.5c-1,2.2-2.5,3.2-4.7,2.9
			l-0.1,0.3c1.5,1.5,1.7,3.3,0.6,5.5l-0.8,1.6c-1.5,3.1-3.9,3.8-7.7,2L522,253z"/>
		<path class="st20" d="M537.7,259.3c-0.3,0.6-0.9,0.8-1.5,0.5l-1.7-0.8c-0.6-0.3-0.8-0.9-0.5-1.5l9.1-19c0.3-0.6,0.9-0.8,1.5-0.5
			l1.7,0.8c0.6,0.3,0.8,0.8,0.5,1.5L537.7,259.3z"/>
		<path class="st20" d="M546,261.1c1.3,0.6,2.1,0.1,2.6-0.9l5.6-11.8c0.5-1,0.4-2-0.9-2.6l-1.4-0.7l-7.4,15.3L546,261.1z M540.6,262
			c-0.6-0.3-0.8-0.9-0.5-1.5l9.1-19c0.3-0.6,0.9-0.8,1.5-0.5l4.1,2c3.7,1.8,4.7,4.1,3.2,7.2l-5.6,11.7c-1.5,3.1-3.9,3.8-7.7,2
			L540.6,262z"/>
		<path class="st20" d="M623.4,403.9h-38.2l13.8-92.9c0,0,0.8-0.4,2.1-0.9c2.3-0.8,6.1-1.8,10.1-1.1c5.5,1,9.1,4.4,10.9,6.5l0,0
			c0.8,1,1.2,1.7,1.2,1.7L623.4,403.9z"/>
		<path class="st24" d="M702.5,270.4c0,0-4.1,3.8-1.8,7.4c2.3,3.6,6.6-0.2,6.6-0.2l-0.7-3.6L702.5,270.4z"/>
		<path class="st24" d="M707.2,276.4c0,0-4.1,3.8-1.8,7.4c2.3,3.6,6.6-0.2,6.6-0.2l-0.7-3.6L707.2,276.4z"/>
		<path class="st25" d="M703.4,250c-1.8-0.7-3.6-0.2-4.1,2.1c-0.5,2.2,0.7,6.2,0.9,9.2c0.2,3.1-0.4,5.6,0.2,6.4
			c0.6,0.8,8.9-0.8,8.9-0.8S706.3,251.1,703.4,250"/>
		<path class="st17" d="M692,172.9c-19.5,4.9-31.3,24.6-26.4,44c4,16.1,18.2,27,34,27.5c1.3,0,2.4,0.9,2.7,2.2l11.1,44.6
			c1.1,4.2,5.3,6.8,9.5,5.7c4.2-1.1,6.8-5.3,5.7-9.5l-11.1-44.6c-0.3-1.2,0.2-2.5,1.4-3.2c13.7-7.9,21.1-24.2,17.1-40.3
			C731.2,179.9,711.5,168.1,692,172.9"/>
		<path class="st18" d="M729,210c-1,15.4-14.3,27.1-29.7,26.2c-15.4-1-27.1-14.3-26.2-29.7c1-15.4,14.3-27.1,29.7-26.2
			C718.2,181.3,730,194.6,729,210"/>
		<path class="st25" d="M734.3,296l-19.4-0.8c0,0-5.1-4.4-7.2-10.1c-0.9-2.3-1.5-4.4-1.7-6c-0.1-0.6-0.2-1.4-0.2-1.4
			s-6.7-7.3-5.5-11.9c0.9-3.6,5.3-5.9,5.3-5.9s2.1,5,8.5,3c6.4-1.9,6.3-9.4,6.3-9.4s4-0.6,6.1,1.5c2.1,2.2,2.1,5.7,2.1,5.7
			s2.9-0.4,4.7,3c1.8,3.4,1.1,5.6,1.1,5.6s1.9,0.1,3,2.5c0,0.1,0.1,0.1,0.1,0.2c1.1,2.5,0,6.2,0,6.2s1,0.9,1.4,4.6
			C739.2,286.4,734.3,296,734.3,296"/>
		<path class="st24" d="M734.3,296l-17.5,2.1c0,0-7.4-7.5-9.5-13.1c-0.9-2.3-1.2-4.3-1.4-5.9c1.7,2.9,5.4,6.9,12.2,6.4
			c8.6-0.6,16.6-10.3,19.2-13.7c0,0.1,0.1,0.1,0.1,0.2c1.1,2.5,0,6.2,0,6.2s1,0.9,1.4,4.6C739.2,286.4,734.3,296,734.3,296"/>
		<path class="st18" d="M716.9,306.3l-1.7-9.1c0,0,1.7-5.1,8.4-6.2c9.4-1.6,12.9,6.8,12.9,6.8l2.6,6.9L716.9,306.3z"/>
		<path class="st19" d="M745.3,318.5l-26.4,4.6l-4.2-18.1c0,0,0.6-0.6,1.6-1.5l0,0c1.9-1.6,5.1-3.8,9-4.6c5.5-1,10.1,0.9,12.4,2.2
			l0,0c1.1,0.6,1.7,1.1,1.7,1.1L745.3,318.5z"/>
		<path class="st20" d="M693,218.7c1.4-0.4,1.7-1.3,1.4-2.4l-0.8-2.9c-0.3-1.1-1-1.8-2.4-1.4l-1.3,0.4l1.8,6.7L693,218.7z
			 M690.3,209c1.4-0.4,1.7-1.3,1.4-2.4l-0.8-2.8c-0.3-1.1-1-1.8-2.4-1.4l-1.3,0.4l1.8,6.6L690.3,209z M689.6,222.9
			c-0.7,0.2-1.2-0.1-1.4-0.8l-5.5-20.4c-0.2-0.7,0.1-1.2,0.8-1.3l4.2-1.1c4-1.1,6.3,0,7.2,3.4l0.4,1.6c0.6,2.3,0.2,4.1-1.6,5.3
			l0.1,0.3c2.1,0.2,3.4,1.4,4,3.7l0.5,1.7c0.9,3.4-0.5,5.5-4.5,6.5L689.6,222.9z"/>
		<path class="st20" d="M705.6,217.4c0.2,0.7-0.1,1.2-0.8,1.4l-1.8,0.5c-0.7,0.2-1.2-0.1-1.4-0.8l-5.5-20.4
			c-0.2-0.7,0.1-1.2,0.8-1.4l1.8-0.5c0.7-0.2,1.2,0.1,1.4,0.8L705.6,217.4z"/>
		<path class="st20" d="M713.1,213.3c1.4-0.4,1.7-1.3,1.4-2.4l-3.4-12.6c-0.3-1.1-1-1.8-2.4-1.4l-1.6,0.4l4.4,16.4L713.1,213.3z
			 M709.5,217.6c-0.7,0.2-1.2-0.1-1.4-0.8l-5.5-20.4c-0.2-0.7,0.1-1.2,0.8-1.3l4.4-1.2c4-1.1,6.2,0,7.1,3.4l3.4,12.6
			c0.9,3.4-0.5,5.5-4.5,6.5L709.5,217.6z"/>
	</g>
	<g>
		<defs>
			<rect id="SVGID_3_" x="412.5" y="13" width="344" height="344"/>
		</defs>
		<clipPath id="SVGID_4_">
			<use xlink:href="#SVGID_3_"  style="overflow:visible;"/>
		</clipPath>
		<path class="st26" d="M755.5,184.8c0,94.3-76.4,170.8-170.8,170.8c-94.3,0-170.8-76.4-170.8-170.8C414,90.4,490.5,14,584.8,14
			C679.1,14,755.5,90.4,755.5,184.8L755.5,184.8z"/>
	</g>
</g>
</svg>
