<?xml version="1.0" encoding="utf-8"?>
<!-- Generator: Adobe Illustrator 24.3.0, SVG Export Plug-In . SVG Version: 6.00 Build 0)  -->
<svg version="1.1" id="Layer_1" xmlns="http://www.w3.org/2000/svg" xmlns:xlink="http://www.w3.org/1999/xlink" x="0px" y="0px"
	 viewBox="0 0 219.7 357.1" style="enable-background:new 0 0 219.7 357.1;" xml:space="preserve">
<style type="text/css">
	.st0{clip-path:url(#SVGID_2_);fill:none;stroke:#FFFFFF;stroke-width:2.2574;stroke-miterlimit:10;}
	.st1{fill:#FFFFFF;}
	.st2{fill:#93D500;}
	.st3{clip-path:url(#SVGID_4_);fill:none;stroke:#FFFFFF;stroke-width:2.4994;stroke-miterlimit:10;}
	.st4{clip-path:url(#SVGID_6_);fill:none;stroke:#FFFFFF;stroke-width:2.2574;stroke-miterlimit:10;}
	.st5{fill:#00A0DF;}
	.st6{clip-path:url(#SVGID_8_);fill:none;stroke:#FFFFFF;stroke-width:2.4994;stroke-miterlimit:10;}
	.st7{fill:none;stroke:#FFFFFF;stroke-width:2.2574;stroke-miterlimit:10;}
	.st8{fill:#F5A800;}
	.st9{clip-path:url(#SVGID_10_);fill:none;stroke:#FFFFFF;stroke-width:2.4994;stroke-miterlimit:10;}
	.st10{clip-path:url(#SVGID_12_);fill:none;stroke:#FFFFFF;stroke-width:0.4764;stroke-miterlimit:10;}
	.st11{clip-path:url(#SVGID_14_);fill:none;stroke:#FFFFFF;stroke-width:0.4764;stroke-miterlimit:10;}
	.st12{clip-path:url(#SVGID_16_);fill:none;stroke:#FFFFFF;stroke-width:0.4764;stroke-miterlimit:10;}
	.st13{clip-path:url(#SVGID_18_);fill:none;stroke:#FFFFFF;stroke-width:0.4764;stroke-miterlimit:10;}
	.st14{clip-path:url(#SVGID_20_);fill:none;stroke:#FFFFFF;stroke-width:0.4764;stroke-miterlimit:10;}
	.st15{clip-path:url(#SVGID_22_);fill:none;stroke:#FFFFFF;stroke-width:0.4764;stroke-miterlimit:10;}
	.st16{clip-path:url(#SVGID_24_);fill:none;stroke:#FFFFFF;stroke-width:0.4764;stroke-miterlimit:10;}
	.st17{clip-path:url(#SVGID_26_);fill:none;stroke:#FFFFFF;stroke-width:0.4764;stroke-miterlimit:10;}
	.st18{fill:#8F4899;}
	.st19{clip-path:url(#SVGID_28_);fill:none;stroke:#FFFFFF;stroke-width:2.4994;stroke-miterlimit:10;}
</style>
<g>
	<g>
		<defs>
			<rect id="SVGID_1_" x="9.3" width="210.1" height="65.8"/>
		</defs>
		<clipPath id="SVGID_2_">
			<use xlink:href="#SVGID_1_"  style="overflow:visible;"/>
		</clipPath>
		<line class="st0" x1="87.2" y1="38.9" x2="11.9" y2="38.9"/>
	</g>
	<g>
		<path class="st1" d="M24.4,2.2c6.9,0,12.4,5.5,12.4,12.5c0,7.2-5.5,12.8-12.4,12.8c-6.9,0-12.4-5.6-12.4-12.8
			C11.9,7.7,17.5,2.2,24.4,2.2z M24.4,25.2c5.5,0,9.9-4.6,9.9-10.6c0-5.8-4.4-10.2-9.9-10.2c-5.5,0-9.9,4.4-9.9,10.2
			C14.4,20.7,18.9,25.2,24.4,25.2z"/>
	</g>
	<g>
		<path class="st1" d="M39.4,2.6h8.4c4.4,0,7.5,2.8,7.5,7.4c0,4.5-3.2,7.5-7.5,7.5h-6v9.6h-2.4V2.6z M47.6,15.3c3.3,0,5.4-2,5.4-5.3
			c0-3.3-2.1-5.2-5.3-5.2h-5.8v10.5H47.6z"/>
		<path class="st1" d="M64.7,4.8h-8.8V2.6h19.9v2.2H67v22.3h-2.4V4.8z"/>
	</g>
	<g>
		<path class="st1" d="M78.5,2.6h2.4v24.4h-2.4V2.6z"/>
		<path class="st1" d="M86.4,2.6h2.5L95.3,17c0.6,1.2,1.2,3,1.2,3h0.1c0,0,0.7-1.7,1.2-3l6.4-14.3h2.5l1.9,24.4h-2.4L104.8,10
			c-0.1-1.3-0.1-3.4-0.1-3.4h-0.1c0,0-0.7,2.2-1.3,3.4l-5.7,12.5h-2.3L89.7,10c-0.6-1.2-1.3-3.5-1.3-3.5h-0.1c0,0,0,2.2-0.1,3.5
			l-1.4,17.1h-2.4L86.4,2.6z"/>
		<path class="st1" d="M112.1,2.6h2.4v24.4h-2.4V2.6z"/>
	</g>
	<g>
		<path class="st1" d="M118.5,25.4L131.1,7c0.9-1.3,1.7-2.2,1.7-2.2V4.7c0,0-0.6,0.1-1.8,0.1h-11.9V2.6h16.6v1.7l-12.6,18.3
			c-0.9,1.3-1.7,2.2-1.7,2.2V25c0,0,0.6-0.1,1.8-0.1h12.6v2.2h-17.4V25.4z"/>
		<path class="st1" d="M139.5,2.6h13.8v2.2h-11.4v8.9h9.3v2.2h-9.3v9.1h12v2.2h-14.4V2.6z"/>
	</g>
	<g>
		<path class="st2" d="M100,56.7c0,0.4-0.2,0.7-0.7,0.7h-1.1c-0.5,0-0.7-0.3-0.7-0.7v-0.4c-0.9,0.8-2,1.3-3,1.3
			c-1.5,0-2.7-0.9-2.7-3V41.9c0-2.1,1.3-3,2.7-3c1,0,2.2,0.5,3,1.3v-8.5c0-0.5,0.2-0.7,0.7-0.7h1.1c0.5,0,0.7,0.2,0.7,0.7V56.7z
			 M94.3,53.5c0,1.4,0.4,1.8,1.5,1.8c1.1,0,1.8-0.6,1.8-1.9V43.1c0-1.4-0.6-2-1.8-2c-1.1,0-1.5,0.5-1.5,1.9V53.5z"/>
		<path class="st2" d="M103.9,33.4c1,0,1.6,0.7,1.6,1.6c0,0.9-0.7,1.6-1.6,1.6c-0.9,0-1.6-0.7-1.6-1.6C102.3,34,103,33.4,103.9,33.4
			z M105.2,56.7c0,0.5-0.3,0.7-0.7,0.7h-1.1c-0.5,0-0.7-0.3-0.7-0.7V39.8c0-0.5,0.3-0.7,0.7-0.7h1.1c0.5,0,0.7,0.2,0.7,0.7V56.7z"/>
		<path class="st2" d="M111.9,57.6c-3.2,0-4.1-1.4-4.1-3.9v-2.1c0-0.5,0.2-0.7,0.7-0.7h1.1c0.5,0,0.7,0.3,0.7,0.7v2.1
			c0,1.4,0.5,1.8,1.6,1.8c1.1,0,1.6-0.5,1.6-1.8c0-2-0.3-2.2-1.5-3.4l-2.5-2.4c-1.2-1.2-1.8-2.1-1.8-5c0-2.5,0.9-3.9,4.1-3.9
			c3.2,0,4.1,1.4,4.1,3.9v2.1c0,0.5-0.3,0.7-0.7,0.7h-1.1c-0.5,0-0.7-0.2-0.7-0.7v-2.1c0-1.4-0.5-1.9-1.6-1.9
			c-1.1,0-1.6,0.4-1.6,1.9c0,2,0.3,2.2,1.5,3.4l2.5,2.4c1.2,1.2,1.8,2.1,1.8,5C116,56.2,115.1,57.6,111.9,57.6z"/>
		<path class="st2" d="M118.6,39.8c0-0.5,0.3-0.7,0.7-0.7h1.1c0.5,0,0.7,0.2,0.7,0.7v0.4c0.8-0.8,2-1.3,3-1.3c1.5,0,2.7,0.9,2.7,3
			v12.6c0,2.1-1.3,3-2.7,3c-1,0-2.2-0.5-3-1.3v7c0,0.5-0.3,0.7-0.7,0.7h-1.1c-0.5,0-0.7-0.2-0.7-0.7V39.8z M124.3,42.9
			c0-1.4-0.4-1.9-1.5-1.9c-1.1,0-1.7,0.6-1.7,2v10.4c0,1.4,0.6,1.9,1.7,1.9c1.1,0,1.5-0.4,1.5-1.8V42.9z"/>
		<path class="st2" d="M132,56.7c0,0.5-0.3,0.7-0.7,0.7h-1.1c-0.5,0-0.7-0.3-0.7-0.7v-25c0-0.5,0.3-0.7,0.7-0.7h1.1
			c0.5,0,0.7,0.2,0.7,0.7V56.7z"/>
		<path class="st2" d="M140.4,47.1v-4.3c0-1.4-0.5-1.9-1.6-1.9c-1.1,0-1.6,0.4-1.6,1.9v1.4c0,0.5-0.3,0.7-0.7,0.7h-1.1
			c-0.5,0-0.7-0.2-0.7-0.7v-1.5c0-2.5,0.9-3.9,4.1-3.9c3.2,0,4.1,1.4,4.1,3.9v13.9c0,0.4-0.2,0.7-0.7,0.7h-1.1
			c-0.5,0-0.7-0.3-0.7-0.7v-0.4c-0.9,0.8-2,1.3-3,1.3c-1.5,0-2.7-0.9-2.7-3v-3.5c0-2.5,0.9-3.9,4.1-3.9H140.4z M138.8,49.2
			c-1.1,0-1.6,0.5-1.6,1.8v2.5c0,1.4,0.4,1.8,1.5,1.8c1.1,0,1.8-0.6,1.8-1.9v-4.2H138.8z"/>
		<path class="st2" d="M146.9,39.8l1.3,9.3l0.6,5.8h0.2l0.6-5.8l1.3-9.3c0.1-0.5,0.3-0.7,0.8-0.7h1.1c0.5,0,0.8,0.3,0.7,0.9
			L150,63.3c-0.1,0.5-0.3,0.7-0.8,0.7h-1.1c-0.5,0-0.8-0.3-0.7-0.9l1-5.7h-0.6c-0.5,0-0.7-0.2-0.8-0.7l-2.6-16.8
			c-0.1-0.6,0.2-0.9,0.7-0.9h1.1C146.7,39.1,146.9,39.3,146.9,39.8z"/>
	</g>
	<path class="st2" d="M217.2,29.9c0,14.6-11.9,26.5-26.5,26.5c-14.6,0-26.5-11.9-26.5-26.5c0-14.6,11.9-26.5,26.5-26.5
		C205.4,3.4,217.2,15.3,217.2,29.9"/>
	<g>
		<defs>
			<rect id="SVGID_3_" x="9.3" width="210.1" height="65.8"/>
		</defs>
		<clipPath id="SVGID_4_">
			<use xlink:href="#SVGID_3_"  style="overflow:visible;"/>
		</clipPath>
		<path class="st3" d="M217.2,29.9c0,14.6-11.9,26.5-26.5,26.5c-14.6,0-26.5-11.9-26.5-26.5c0-14.6,11.9-26.5,26.5-26.5
			C205.4,3.4,217.2,15.3,217.2,29.9L217.2,29.9z"/>
	</g>
	<path class="st1" d="M188.2,16.4h-7.8c-1.9,0-3.5,1.5-3.5,3.5v7.9h2.9v-7.9c0-0.3,0.2-0.5,0.5-0.5h7.8V16.4z"/>
	<path class="st1" d="M201,16.4h-7.8v2.9h7.9c0.3,0,0.5,0.2,0.5,0.5v7.9h3v-7.8C204.4,17.9,202.9,16.4,201,16.4"/>
	<path class="st1" d="M179.9,40v-7.9h-2.9V40c0,1.9,1.5,3.5,3.5,3.5h7.8v-3h-7.8C180.1,40.4,179.9,40.2,179.9,40"/>
	<path class="st1" d="M201.5,40c0,0.3-0.2,0.5-0.5,0.5h-7.8v3h7.9c1.9,0,3.5-1.5,3.5-3.5v-7.9h-2.9L201.5,40z"/>
	<path class="st1" d="M195.3,26.7c0-2.6-2-4.6-4.6-4.6c-2.6,0-4.6,2-4.6,4.6c0,1.5,0.8,3,2,3.9c-1.6,0.1-2.9,1.2-3.3,2.7l-0.3,1.4
		c-0.3,1.1,0.4,2.3,1.6,2.7c0.2,0.1,0.5,0.1,0.7,0.1h7.8c1.2,0.1,2.2-0.8,2.3-2c0-0.2,0-0.5-0.1-0.7l-0.3-1.5
		c-0.3-1.5-1.7-2.7-3.3-2.7C194.5,29.7,195.3,28.2,195.3,26.7"/>
	<g>
		<defs>
			<rect id="SVGID_5_" x="9.3" y="96.2" width="210" height="63.7"/>
		</defs>
		<clipPath id="SVGID_6_">
			<use xlink:href="#SVGID_5_"  style="overflow:visible;"/>
		</clipPath>
		<line class="st4" x1="101.6" y1="137.7" x2="11.8" y2="137.7"/>
	</g>
	<g>
		<path class="st1" d="M24.3,101.1c6.9,0,12.4,5.5,12.4,12.5c0,7.2-5.5,12.8-12.4,12.8c-6.9,0-12.4-5.6-12.4-12.8
			C11.9,106.5,17.4,101.1,24.3,101.1z M24.3,124.1c5.5,0,9.9-4.6,9.9-10.6c0-5.8-4.4-10.2-9.9-10.2c-5.5,0-9.9,4.4-9.9,10.2
			C14.4,119.5,18.8,124.1,24.3,124.1z"/>
	</g>
	<g>
		<path class="st1" d="M39.4,101.5h8.4c4.4,0,7.5,2.8,7.5,7.4c0,4.5-3.2,7.5-7.5,7.5h-6v9.6h-2.4V101.5z M47.5,114.2
			c3.3,0,5.4-2,5.4-5.3c0-3.3-2.1-5.2-5.3-5.2h-5.8v10.5H47.5z"/>
		<path class="st1" d="M64.6,103.6h-8.8v-2.2h19.9v2.2H67v22.3h-2.4V103.6z"/>
	</g>
	<g>
		<path class="st1" d="M78.5,101.5h2.4v24.4h-2.4V101.5z"/>
		<path class="st1" d="M86.4,101.5h2.5l6.4,14.3c0.6,1.2,1.2,3,1.2,3h0.1c0,0,0.7-1.7,1.2-3l6.4-14.3h2.5l1.9,24.4h-2.4l-1.4-17.1
			c-0.1-1.3-0.1-3.4-0.1-3.4h-0.1c0,0-0.7,2.2-1.3,3.4l-5.7,12.5h-2.3l-5.7-12.5c-0.6-1.2-1.3-3.5-1.3-3.5h-0.1c0,0,0,2.2-0.1,3.5
			l-1.4,17.1h-2.4L86.4,101.5z"/>
		<path class="st1" d="M112.1,101.5h2.4v24.4h-2.4V101.5z"/>
	</g>
	<g>
		<path class="st1" d="M118.5,124.2l12.6-18.3c0.9-1.3,1.7-2.2,1.7-2.2v-0.1c0,0-0.6,0.1-1.8,0.1h-11.9v-2.2h16.6v1.7l-12.6,18.3
			c-0.9,1.3-1.7,2.2-1.7,2.2v0.1c0,0,0.6-0.1,1.8-0.1h12.6v2.2h-17.4V124.2z"/>
		<path class="st1" d="M139.4,101.5h13.8v2.2h-11.4v8.9h9.3v2.2h-9.3v9.1h12v2.2h-14.4V101.5z"/>
	</g>
	<g>
		<path class="st5" d="M108.7,138.6l1.3,9.3l0.6,5.8h0.2l0.6-5.8l1.3-9.3c0.1-0.5,0.3-0.7,0.8-0.7h1.1c0.4,0,0.8,0.3,0.7,0.9
			l-2.6,16.8c-0.1,0.5-0.3,0.7-0.8,0.7h-2.3c-0.5,0-0.7-0.2-0.8-0.7l-2.6-16.8c-0.1-0.6,0.2-0.9,0.7-0.9h1.1
			C108.4,137.9,108.6,138.1,108.7,138.6z"/>
		<path class="st5" d="M118,132.2c1,0,1.6,0.7,1.6,1.6c0,0.9-0.7,1.6-1.6,1.6c-0.9,0-1.6-0.7-1.6-1.6
			C116.4,132.9,117.1,132.2,118,132.2z M119.3,155.6c0,0.5-0.3,0.7-0.7,0.7h-1.1c-0.5,0-0.7-0.3-0.7-0.7v-16.9
			c0-0.5,0.3-0.7,0.7-0.7h1.1c0.5,0,0.7,0.2,0.7,0.7V155.6z"/>
		<path class="st5" d="M130.2,155.6c0,0.4-0.2,0.7-0.7,0.7h-1.1c-0.5,0-0.7-0.3-0.7-0.7v-0.4c-0.9,0.8-2,1.3-3,1.3
			c-1.5,0-2.7-0.9-2.7-3v-12.6c0-2.1,1.3-3,2.7-3c1,0,2.2,0.5,3,1.3v-8.5c0-0.5,0.2-0.7,0.7-0.7h1.1c0.5,0,0.7,0.2,0.7,0.7V155.6z
			 M124.5,152.4c0,1.4,0.4,1.8,1.5,1.8c1.1,0,1.8-0.6,1.8-1.9v-10.4c0-1.4-0.6-2-1.8-2c-1.1,0-1.5,0.5-1.5,1.9V152.4z"/>
		<path class="st5" d="M141.1,147.4c0,0.5-0.3,0.8-0.8,0.8h-5v4.4c0,1.4,0.5,1.8,1.6,1.8c1.1,0,1.6-0.5,1.6-1.8v-1.2
			c0-0.5,0.2-0.7,0.7-0.7h1.1c0.5,0,0.7,0.2,0.7,0.7v1.2c0,2.5-0.9,3.9-4.1,3.9c-3.2,0-4.1-1.4-4.1-3.9v-10.8c0-2.5,0.9-3.9,4.1-3.9
			c3.2,0,4.1,1.4,4.1,3.9V147.4z M135.4,146h3.2v-4.3c0-1.4-0.5-1.9-1.6-1.9c-1.1,0-1.6,0.4-1.6,1.9V146z"/>
		<path class="st5" d="M152,141.7v10.8c0,2.5-0.9,3.9-4.1,3.9c-3.2,0-4.1-1.4-4.1-3.9v-10.8c0-2.5,0.9-3.9,4.1-3.9
			C151.1,137.7,152,139.1,152,141.7z M146.3,141.7v10.8c0,1.4,0.5,1.8,1.6,1.8c1.1,0,1.6-0.5,1.6-1.8v-10.8c0-1.4-0.5-1.9-1.6-1.9
			C146.8,139.9,146.3,140.3,146.3,141.7z"/>
	</g>
	<path class="st5" d="M217.2,128.8c0,14.6-11.9,26.5-26.5,26.5s-26.5-11.9-26.5-26.5s11.9-26.5,26.5-26.5S217.2,114.1,217.2,128.8"
		/>
	<g>
		<defs>
			<rect id="SVGID_7_" x="9.3" y="96.2" width="210" height="63.7"/>
		</defs>
		<clipPath id="SVGID_8_">
			<use xlink:href="#SVGID_7_"  style="overflow:visible;"/>
		</clipPath>
		<path class="st6" d="M217.2,128.8c0,14.6-11.9,26.5-26.5,26.5s-26.5-11.9-26.5-26.5s11.9-26.5,26.5-26.5S217.2,114.1,217.2,128.8
			L217.2,128.8z"/>
	</g>
	<polygon class="st1" points="183.2,139.1 183.2,117.6 201.8,128.3 	"/>
	<path class="st1" d="M186,122.3v12l10.3-6L186,122.3z M183.2,141.9c-1.5,0-2.8-1.2-2.8-2.8v-21.6c0-1.5,1.2-2.8,2.8-2.8
		c0.5,0,1,0.1,1.4,0.4l18.7,10.8c1.3,0.8,1.8,2.4,1,3.8v0.1c-0.3,0.4-0.6,0.8-1,1l-18.7,10.7C184.1,141.8,183.6,141.9,183.2,141.9"
		/>
	<line class="st7" x1="81.5" y1="236" x2="12.2" y2="236"/>
	<g>
		<path class="st1" d="M24.7,199.3c6.9,0,12.4,5.5,12.4,12.5c0,7.2-5.5,12.8-12.4,12.8c-6.9,0-12.4-5.6-12.4-12.8
			C12.3,204.8,17.8,199.3,24.7,199.3z M24.7,222.3c5.5,0,9.9-4.6,9.9-10.6c0-5.8-4.4-10.2-9.9-10.2c-5.5,0-9.9,4.4-9.9,10.2
			C14.8,217.7,19.2,222.3,24.7,222.3z"/>
	</g>
	<g>
		<path class="st1" d="M39.8,199.7h8.4c4.4,0,7.5,2.8,7.5,7.4c0,4.5-3.2,7.5-7.5,7.5h-6v9.6h-2.4V199.7z M47.9,212.4
			c3.3,0,5.4-2,5.4-5.3c0-3.3-2.1-5.2-5.3-5.2h-5.8v10.5H47.9z"/>
		<path class="st1" d="M65,201.9h-8.8v-2.2h19.9v2.2h-8.8v22.3H65V201.9z"/>
	</g>
	<g>
		<path class="st1" d="M78.9,199.7h2.4v24.4h-2.4V199.7z"/>
		<path class="st1" d="M86.8,199.7h2.5l6.4,14.3c0.6,1.2,1.2,3,1.2,3h0.1c0,0,0.7-1.7,1.2-3l6.4-14.3h2.5l1.9,24.4h-2.4l-1.4-17.1
			c-0.1-1.3-0.1-3.4-0.1-3.4H105c0,0-0.7,2.2-1.3,3.4L98,219.6h-2.3L90,207c-0.6-1.2-1.3-3.5-1.3-3.5h-0.1c0,0,0,2.2-0.1,3.5
			l-1.4,17.1h-2.4L86.8,199.7z"/>
		<path class="st1" d="M112.5,199.7h2.4v24.4h-2.4V199.7z"/>
	</g>
	<g>
		<path class="st1" d="M118.8,222.4l12.6-18.3c0.9-1.3,1.7-2.2,1.7-2.2v-0.1c0,0-0.6,0.1-1.8,0.1h-11.9v-2.2h16.6v1.7l-12.6,18.3
			c-0.9,1.3-1.7,2.2-1.7,2.2v0.1c0,0,0.6-0.1,1.8-0.1h12.6v2.2h-17.4V222.4z"/>
		<path class="st1" d="M139.8,199.7h13.8v2.2h-11.4v8.9h9.3v2.2h-9.3v9.1h12v2.2h-14.4V199.7z"/>
	</g>
	<g>
		<path class="st8" d="M94.3,239.9v10.8c0,2.5-0.9,3.9-4.1,3.9c-3.2,0-4.1-1.4-4.1-3.9v-10.8c0-2.5,0.9-3.9,4.1-3.9
			C93.4,236,94.3,237.4,94.3,239.9z M88.6,239.9v10.8c0,1.4,0.5,1.8,1.6,1.8c1.1,0,1.6-0.5,1.6-1.8v-10.8c0-1.4-0.5-1.9-1.6-1.9
			C89.1,238.1,88.6,238.5,88.6,239.9z"/>
		<path class="st8" d="M98,236.1v-4.9c0-0.5,0.3-0.7,0.7-0.7h1.1c0.5,0,0.7,0.2,0.7,0.7v4.9h2.1c0.5,0,0.7,0.2,0.7,0.7v0.7
			c0,0.5-0.3,0.7-0.7,0.7h-2.1v11.9c0,1.4,0.4,2.2,1.9,2.2h0.8c0.5,0,0.7,0.2,0.7,0.7v0.7c0,0.5-0.3,0.7-0.7,0.7h-0.8
			c-3.5,0-4.5-1.5-4.5-4.3v-12h-1.4c-0.5,0-0.7-0.3-0.7-0.7v-0.7c0-0.5,0.3-0.7,0.7-0.7H98z"/>
		<path class="st8" d="M106.4,236.1v-4.9c0-0.5,0.3-0.7,0.7-0.7h1.1c0.5,0,0.7,0.2,0.7,0.7v4.9h2.1c0.5,0,0.7,0.2,0.7,0.7v0.7
			c0,0.5-0.3,0.7-0.7,0.7H109v11.9c0,1.4,0.4,2.2,2,2.2h0.8c0.5,0,0.7,0.2,0.7,0.7v0.7c0,0.5-0.3,0.7-0.7,0.7h-0.8
			c-3.5,0-4.5-1.5-4.5-4.3v-12H105c-0.5,0-0.7-0.3-0.7-0.7v-0.7c0-0.5,0.3-0.7,0.7-0.7H106.4z"/>
	</g>
	<g>
		<path class="st8" d="M119.4,243.6h3.8c0.5,0,0.7,0.2,0.7,0.7v0.9c0,0.5-0.2,0.7-0.7,0.7h-3.8v3.7c0,0.5-0.2,0.7-0.7,0.7h-0.9
			c-0.5,0-0.7-0.3-0.7-0.7v-3.7h-3.7c-0.5,0-0.7-0.3-0.7-0.7v-0.9c0-0.5,0.3-0.7,0.7-0.7h3.7v-3.8c0-0.5,0.3-0.7,0.7-0.7h0.9
			c0.5,0,0.7,0.2,0.7,0.7V243.6z"/>
	</g>
	<g>
		<path class="st8" d="M134.8,242.5c0,0.5-0.2,0.7-0.7,0.7h-1.1c-0.5,0-0.7-0.2-0.7-0.7v-2.6c0-1.4-0.5-1.9-1.6-1.9
			c-1.1,0-1.6,0.4-1.6,1.9v10.8c0,1.4,0.5,1.8,1.6,1.8c1.1,0,1.6-0.5,1.6-1.8v-2.6c0-0.5,0.2-0.7,0.7-0.7h1.1c0.5,0,0.7,0.3,0.7,0.7
			v2.6c0,2.5-0.9,3.9-4.1,3.9c-3.2,0-4.1-1.4-4.1-3.9v-10.8c0-2.5,0.9-3.9,4.1-3.9c3.2,0,4.1,1.4,4.1,3.9V242.5z"/>
		<path class="st8" d="M138.4,236.1v-4.9c0-0.5,0.3-0.7,0.7-0.7h1.1c0.5,0,0.7,0.2,0.7,0.7v4.9h2.1c0.5,0,0.7,0.2,0.7,0.7v0.7
			c0,0.5-0.3,0.7-0.7,0.7h-2.1v11.9c0,1.4,0.4,2.2,1.9,2.2h0.8c0.5,0,0.7,0.2,0.7,0.7v0.7c0,0.5-0.3,0.7-0.7,0.7h-0.8
			c-3.5,0-4.5-1.5-4.5-4.3v-12H137c-0.5,0-0.7-0.3-0.7-0.7v-0.7c0-0.5,0.3-0.7,0.7-0.7H138.4z"/>
		<path class="st8" d="M147.3,236.8l1.3,9.3l0.6,5.8h0.2l0.6-5.8l1.3-9.3c0.1-0.5,0.3-0.7,0.8-0.7h1.1c0.4,0,0.8,0.3,0.7,0.9
			l-2.6,16.8c-0.1,0.5-0.3,0.7-0.8,0.7h-2.3c-0.5,0-0.7-0.2-0.8-0.7l-2.6-16.8c-0.1-0.6,0.2-0.9,0.7-0.9h1.1
			C147,236.1,147.2,236.3,147.3,236.8z"/>
	</g>
	<path class="st8" d="M217.5,227c0,14.6-11.9,26.5-26.5,26.5s-26.5-11.9-26.5-26.5c0-14.6,11.9-26.5,26.5-26.5
		S217.5,212.4,217.5,227"/>
	<g>
		<defs>
			<rect id="SVGID_9_" x="0" y="195.5" width="219.7" height="63.7"/>
		</defs>
		<clipPath id="SVGID_10_">
			<use xlink:href="#SVGID_9_"  style="overflow:visible;"/>
		</clipPath>
		<path class="st9" d="M217.5,227c0,14.6-11.9,26.5-26.5,26.5s-26.5-11.9-26.5-26.5c0-14.6,11.9-26.5,26.5-26.5
			S217.5,212.4,217.5,227L217.5,227z"/>
	</g>
	<polygon class="st1" points="193.5,238.3 188.6,238.3 189.7,229.9 192.3,229.9 	"/>
	<path class="st1" d="M199.4,238.7h-17.7c-0.1,0-0.1-0.1-0.1-0.1v-0.2c0-1.2,1-2.2,2.2-2.2h15.7c0.6,0,1.1,0.5,1.1,1.1v0.2
		C200.6,238.2,200.1,238.7,199.4,238.7"/>
	<path class="st1" d="M195.4,225.8c-0.1,0.1-0.2,0.2-0.3,0.3l-5.6,3.2c-0.1,0.1-0.3,0.1-0.4,0.1c-0.5,0-0.8-0.4-0.8-0.8v-6.5
		c0-0.5,0.4-0.8,0.8-0.8c0.1,0,0.3,0,0.4,0.1l5.6,3.2C195.5,225,195.6,225.5,195.4,225.8 M175.2,234.3h31.7v-17.8h-31.7V234.3z"/>
	<line class="st7" x1="101.9" y1="337.7" x2="12.2" y2="337.7"/>
	<g>
		<path class="st1" d="M24.7,301c6.9,0,12.4,5.5,12.4,12.5c0,7.2-5.5,12.8-12.4,12.8c-6.9,0-12.4-5.6-12.4-12.8
			C12.3,306.5,17.8,301,24.7,301z M24.7,324c5.5,0,9.9-4.6,9.9-10.6c0-5.8-4.4-10.2-9.9-10.2c-5.5,0-9.9,4.4-9.9,10.2
			C14.8,319.5,19.2,324,24.7,324z"/>
	</g>
	<g>
		<defs>
			<rect id="SVGID_11_" y="299.9" width="219.7" height="57.2"/>
		</defs>
		<clipPath id="SVGID_12_">
			<use xlink:href="#SVGID_11_"  style="overflow:visible;"/>
		</clipPath>
		<path class="st10" d="M12.3,313.5c0,7.2,5.5,12.8,12.4,12.8c6.9,0,12.4-5.6,12.4-12.8c0-7-5.5-12.5-12.4-12.5
			C17.8,301,12.3,306.5,12.3,313.5L12.3,313.5z M14.8,313.5c0-5.8,4.4-10.2,9.9-10.2c5.5,0,9.9,4.4,9.9,10.2c0,6-4.4,10.6-9.9,10.6
			C19.2,324,14.8,319.4,14.8,313.5L14.8,313.5z"/>
	</g>
	<g>
		<path class="st1" d="M39.8,301.4h8.4c4.4,0,7.5,2.8,7.5,7.4c0,4.5-3.2,7.5-7.5,7.5h-6v9.6h-2.4V301.4z M47.9,314.1
			c3.3,0,5.4-2,5.4-5.3c0-3.3-2.1-5.2-5.3-5.2h-5.8v10.5H47.9z"/>
	</g>
	<g>
		<defs>
			<rect id="SVGID_13_" y="299.9" width="219.7" height="57.2"/>
		</defs>
		<clipPath id="SVGID_14_">
			<use xlink:href="#SVGID_13_"  style="overflow:visible;"/>
		</clipPath>
		<path class="st11" d="M39.8,325.8h2.4v-9.6h6c4.4,0,7.5-2.9,7.5-7.5c0-4.5-3.2-7.4-7.5-7.4h-8.4V325.8z M42.2,314.1v-10.5h5.8
			c3.2,0,5.3,1.9,5.3,5.2c0,3.3-2.1,5.3-5.4,5.3H42.2z"/>
	</g>
	<g>
		<path class="st1" d="M65,303.6h-8.8v-2.2h19.9v2.2h-8.8v22.3H65V303.6z"/>
	</g>
	<g>
		<defs>
			<rect id="SVGID_15_" y="299.9" width="219.7" height="57.2"/>
		</defs>
		<clipPath id="SVGID_16_">
			<use xlink:href="#SVGID_15_"  style="overflow:visible;"/>
		</clipPath>
		<polygon class="st12" points="65,325.8 67.4,325.8 67.4,303.6 76.1,303.6 76.1,301.4 56.2,301.4 56.2,303.6 65,303.6 		"/>
	</g>
	<g>
		<path class="st1" d="M78.9,301.4h2.4v24.4h-2.4V301.4z"/>
	</g>
	<g>
		<defs>
			<rect id="SVGID_17_" y="299.9" width="219.7" height="57.2"/>
		</defs>
		<clipPath id="SVGID_18_">
			<use xlink:href="#SVGID_17_"  style="overflow:visible;"/>
		</clipPath>
		<rect x="78.9" y="301.4" class="st13" width="2.4" height="24.4"/>
	</g>
	<g>
		<path class="st1" d="M86.7,301.4h2.5l6.4,14.3c0.6,1.2,1.2,3,1.2,3h0.1c0,0,0.7-1.7,1.2-3l6.4-14.3h2.5l1.9,24.4h-2.4l-1.4-17.1
			c-0.1-1.3-0.1-3.4-0.1-3.4H105c0,0-0.7,2.2-1.3,3.4L98,321.3h-2.3L90,308.8c-0.6-1.2-1.3-3.5-1.3-3.5h-0.1c0,0,0,2.2-0.1,3.5
			l-1.4,17.1h-2.4L86.7,301.4z"/>
	</g>
	<g>
		<defs>
			<rect id="SVGID_19_" y="299.9" width="219.7" height="57.2"/>
		</defs>
		<clipPath id="SVGID_20_">
			<use xlink:href="#SVGID_19_"  style="overflow:visible;"/>
		</clipPath>
		<path class="st14" d="M84.8,325.8h2.4l1.4-17.1c0.1-1.3,0.1-3.5,0.1-3.5h0.1c0,0,0.8,2.3,1.3,3.5l5.7,12.5H98l5.7-12.5
			c0.6-1.3,1.3-3.4,1.3-3.4h0.1c0,0,0,2.1,0.1,3.4l1.4,17.1h2.4l-1.9-24.4h-2.5l-6.4,14.3c-0.6,1.2-1.2,3-1.2,3h-0.1
			c0,0-0.6-1.7-1.2-3l-6.4-14.3h-2.5L84.8,325.8z"/>
	</g>
	<g>
		<path class="st1" d="M112.4,301.4h2.4v24.4h-2.4V301.4z"/>
	</g>
	<g>
		<defs>
			<rect id="SVGID_21_" y="299.9" width="219.7" height="57.2"/>
		</defs>
		<clipPath id="SVGID_22_">
			<use xlink:href="#SVGID_21_"  style="overflow:visible;"/>
		</clipPath>
		<rect x="112.4" y="301.4" class="st15" width="2.4" height="24.4"/>
	</g>
	<g>
		<path class="st1" d="M118.8,324.1l12.6-18.3c0.9-1.3,1.7-2.2,1.7-2.2v-0.1c0,0-0.6,0.1-1.8,0.1h-11.9v-2.2h16.6v1.7l-12.6,18.3
			c-0.9,1.3-1.7,2.2-1.7,2.2v0.1c0,0,0.6-0.1,1.8-0.1h12.6v2.2h-17.4V324.1z"/>
	</g>
	<g>
		<defs>
			<rect id="SVGID_23_" y="299.9" width="219.7" height="57.2"/>
		</defs>
		<clipPath id="SVGID_24_">
			<use xlink:href="#SVGID_23_"  style="overflow:visible;"/>
		</clipPath>
		<path class="st16" d="M118.8,325.8h17.4v-2.2h-12.6c-1.2,0-1.8,0.1-1.8,0.1v-0.1c0,0,0.8-0.9,1.7-2.2l12.6-18.3v-1.7h-16.6v2.2
			h11.9c1.2,0,1.8-0.1,1.8-0.1v0.1c0,0-0.8,0.9-1.7,2.2l-12.6,18.3V325.8z"/>
	</g>
	<g>
		<path class="st1" d="M139.8,301.4h13.8v2.2h-11.4v8.9h9.3v2.2h-9.3v9.1h12v2.2h-14.4V301.4z"/>
	</g>
	<g>
		<defs>
			<rect id="SVGID_25_" y="299.9" width="219.7" height="57.2"/>
		</defs>
		<clipPath id="SVGID_26_">
			<use xlink:href="#SVGID_25_"  style="overflow:visible;"/>
		</clipPath>
		<polygon class="st17" points="139.8,325.8 154.2,325.8 154.2,323.7 142.2,323.7 142.2,314.6 151.5,314.6 151.5,312.5 142.2,312.5 
			142.2,303.6 153.6,303.6 153.6,301.4 139.8,301.4 		"/>
	</g>
	<g>
		<path class="st18" d="M112.3,345.9v-4.3c0-1.4-0.5-1.9-1.6-1.9c-1.1,0-1.6,0.4-1.6,1.9v1.4c0,0.5-0.3,0.7-0.7,0.7h-1.1
			c-0.5,0-0.7-0.2-0.7-0.7v-1.5c0-2.5,0.9-3.9,4.1-3.9c3.2,0,4.1,1.4,4.1,3.9v13.9c0,0.4-0.2,0.7-0.7,0.7H113
			c-0.5,0-0.7-0.3-0.7-0.7v-0.4c-0.9,0.8-2,1.3-3,1.3c-1.5,0-2.7-0.9-2.7-3v-3.5c0-2.5,0.9-3.9,4.1-3.9H112.3z M110.7,348
			c-1.1,0-1.6,0.5-1.6,1.8v2.5c0,1.4,0.4,1.9,1.5,1.9c1.1,0,1.8-0.6,1.8-1.9V348H110.7z"/>
		<path class="st18" d="M117.5,338.5c0-0.5,0.3-0.7,0.7-0.7h1.1c0.5,0,0.7,0.2,0.7,0.7v13.8c0,1.4,0.4,1.9,1.5,1.9
			c1.1,0,1.8-0.6,1.8-1.9v-13.7c0-0.5,0.2-0.7,0.7-0.7h1.1c0.5,0,0.7,0.2,0.7,0.7v17c0,0.4-0.2,0.7-0.7,0.7h-1.1
			c-0.5,0-0.7-0.3-0.7-0.7v-0.4c-0.9,0.8-2,1.3-3,1.3c-1.5,0-2.7-0.9-2.7-3V338.5z"/>
		<path class="st18" d="M136.6,355.5c0,0.4-0.2,0.7-0.7,0.7h-1.1c-0.5,0-0.7-0.3-0.7-0.7v-0.4c-0.9,0.8-2,1.3-3,1.3
			c-1.5,0-2.7-0.9-2.7-3v-12.6c0-2.1,1.3-3,2.7-3c1,0,2.2,0.5,3,1.3v-8.5c0-0.5,0.2-0.7,0.7-0.7h1.1c0.5,0,0.7,0.2,0.7,0.7V355.5z
			 M130.9,352.3c0,1.4,0.4,1.9,1.5,1.9c1.1,0,1.8-0.6,1.8-1.9v-10.4c0-1.4-0.6-2-1.8-2c-1.1,0-1.5,0.5-1.5,1.8V352.3z"/>
		<path class="st18" d="M140.5,332.2c1,0,1.6,0.7,1.6,1.6c0,0.9-0.7,1.6-1.6,1.6c-0.9,0-1.6-0.7-1.6-1.6
			C138.9,332.8,139.6,332.2,140.5,332.2z M141.8,355.5c0,0.5-0.3,0.7-0.7,0.7H140c-0.5,0-0.7-0.3-0.7-0.7v-16.9
			c0-0.5,0.3-0.7,0.7-0.7h1.1c0.5,0,0.7,0.2,0.7,0.7V355.5z"/>
		<path class="st18" d="M152.7,341.6v10.8c0,2.5-0.9,3.9-4.1,3.9c-3.2,0-4.1-1.4-4.1-3.9v-10.8c0-2.5,0.9-3.9,4.1-3.9
			C151.8,337.7,152.7,339.1,152.7,341.6z M147,341.6v10.8c0,1.4,0.5,1.8,1.6,1.8c1.1,0,1.6-0.5,1.6-1.8v-10.8c0-1.4-0.5-1.9-1.6-1.9
			C147.5,339.8,147,340.2,147,341.6z"/>
	</g>
	<path class="st18" d="M217.5,328.7c0,14.6-11.9,26.5-26.5,26.5s-26.5-11.9-26.5-26.5c0-14.6,11.9-26.5,26.5-26.5
		S217.5,314.1,217.5,328.7"/>
	<g>
		<defs>
			<rect id="SVGID_27_" y="299.9" width="219.7" height="57.2"/>
		</defs>
		<clipPath id="SVGID_28_">
			<use xlink:href="#SVGID_27_"  style="overflow:visible;"/>
		</clipPath>
		<path class="st19" d="M217.5,328.7c0,14.6-11.9,26.5-26.5,26.5s-26.5-11.9-26.5-26.5c0-14.6,11.9-26.5,26.5-26.5
			S217.5,314.1,217.5,328.7L217.5,328.7z"/>
	</g>
	<path class="st1" d="M187.5,331.1c3-0.2,5.4-2.7,5.4-5.8c0-3.2-2.6-5.8-5.8-5.8c-0.3,0-0.7,0-1,0.1l-3.1-6.1
		c0.3-0.2,0.6-0.3,0.8-0.4c4.4-1.7,9.7-0.6,12.5,0.9c1.5,0.8,3.8,3,4.5,4.3c0.8,1.4,2,5.5,1.9,6c-0.1,0.4-0.6,1.2-0.4,1.6
		c0.5,1.2,2.8,4,2.8,4.6c0,0.8-1.5,0.9-1.7,1.2c-0.3,0.3-0.2,1-0.2,1s0.3,0.7,0.3,0.9c0,0.4-0.7,0.8-0.7,0.8s0.6,0.3,0.6,0.9
		c0,0.2-0.7,1-0.8,1.2c-0.1,0.6,0.5,1.7,0.2,2.2c-0.1,0.3-0.2,2.3-4.4,1.7c-0.5-0.1-2.2-0.4-2.2-0.4c-0.5,1.1,0.2,1.4-1.2,3.6
		c-0.4,0.7-0.8,2.7-0.8,2.7l-7.9-5.6l-0.3-0.2l-3.6-2.6c0,0,0-3.7-1.4-5.5c-2.6-3.4-3.7-7.7-3.6-10.4c0.1-2.9,1.4-5,2.9-6.5l2.9,5.5
		c-1,1-1.7,2.5-1.7,4.1c0,2.9,2.2,5.4,5.1,5.7C186.4,331,187.1,331.1,187.5,331.1"/>
</g>
</svg>
