<?xml version="1.0" encoding="utf-8"?>
<!-- Generator: Adobe Illustrator 24.3.0, SVG Export Plug-In . SVG Version: 6.00 Build 0)  -->
<svg version="1.1" id="Layer_1" xmlns="http://www.w3.org/2000/svg" xmlns:xlink="http://www.w3.org/1999/xlink" x="0px" y="0px"
	 viewBox="0 0 716.4 160.1" style="enable-background:new 0 0 716.4 160.1;" xml:space="preserve">
<style type="text/css">
	.st0{fill:none;stroke:#000000;stroke-width:0.65;stroke-miterlimit:10;}
	.st1{fill:#FFFFFF;}
	.st2{fill:#F05325;}
	.st3{fill:none;stroke:#000000;stroke-width:1.2016;stroke-miterlimit:10;}
</style>
<g>
	<path class="st0" d="M315.1,29"/>
	<path class="st1" d="M509.7,57.3v52.5c0,12.3-4.5,19-20,19s-20-6.7-20-19V57.3c0-12.3,4.5-19,20-19S509.7,45,509.7,57.3z
		 M482.1,57.4v52.2c0,6.7,2.4,9,7.7,9c5.4,0,7.8-2.2,7.8-9V57.5c0-6.9-2.4-9-7.8-9C484.5,48.5,482.1,50.6,482.1,57.4z"/>
	<path class="st1" d="M561.3,124.6c0,2.1-1.1,3.4-3.4,3.4h-5.4c-2.2,0-3.4-1.3-3.4-3.4V57.8c0-6.7-1.9-9-7.2-9
		c-5.4,0-8.3,2.9-8.3,9.6v66.2c0,2.1-1.3,3.4-3.5,3.4h-5.3c-2.2,0-3.5-1.3-3.5-3.4V42.4c0-2.2,1.3-3.4,3.5-3.4h5.3
		c2.2,0,3.5,1.1,3.5,3.4v2.1c4-4,9.6-6.2,14.6-6.2c7,0,13.1,4.5,13.1,14.7L561.3,124.6L561.3,124.6z"/>
	<path class="st1" d="M585.3,77.6h0.8l18.1-36.5c0.6-1.3,1.6-2.1,3.4-2.1h6.2c2.7,0,3.4,2.7,2.6,4.6l-19.8,39.7l19.8,40
		c0.8,1.9,0.2,4.6-2.6,4.6h-6.2c-1.8,0-2.7-0.8-3.4-2.2l-18.1-36.5h-0.8v35.2c0,2.2-1.3,3.5-3.5,3.5h-5.3c-2.2,0-3.5-1.3-3.5-3.5
		V3.4c0-2.2,1.3-3.4,3.5-3.4h5.3c2.2,0,3.5,1.1,3.5,3.4V77.6z"/>
	<path class="st1" d="M681.6,42.5l6.4,44.9l3,28h0.8l3-28l6.2-44.9c0.3-2.4,1.4-3.4,4-3.4h5.1c2.2,0,3.7,1.3,3.2,4.2L696,156.7
		c-0.3,2.2-1.3,3.4-3.8,3.4h-5.1c-2.2,0-3.7-1.3-3.2-4.2l4.6-27.8h-2.7c-2.4,0-3.5-1.1-4-3.4l-12.5-81.4c-0.5-2.9,1.1-4.2,3.2-4.2
		h5.1C680.3,39.1,681.3,40.1,681.6,42.5z"/>
	<g>
		<path class="st1" d="M401.5,94.8l-1.1,0.9c-0.3,5.7-4.2,10.4-9.4,11.9v17c0,2.1,1.3,3.4,3.5,3.4h5.3c2.2,0,3.5-1.3,3.5-3.4V93
			C402.8,93.6,402.2,94.2,401.5,94.8z"/>
		<path class="st1" d="M445.7,38.3c-6.6,0-12,2.4-16.5,6.7c-2.2-4.6-6.6-6.7-11.4-6.7c-5,0-10.6,2.2-14.6,6.2v-2.1
			c0-2.2-1.3-3.4-3.5-3.4h-5.3c-2.2,0-3.5,1.1-3.5,3.4v21.8c5.8,2.5,9.7,5.3,12.3,8V58.5c0-6.7,2.9-9.6,8.3-9.6c5.3,0,7.2,2.2,7.2,9
			v66.7c0,2.1,1.1,3.4,3.4,3.4h5.4c2.2,0,3.4-1.3,3.4-3.4V58.4c0-7,3.2-9.6,8.3-9.6c5.4,0,7.2,2.2,7.2,9v66.8c0,2.1,1.3,3.4,3.5,3.4
			h5.3c2.2,0,3.5-1.3,3.5-3.4V53C458.9,42.7,452.8,38.3,445.7,38.3z"/>
	</g>
	<path class="st2" d="M339.5,60.2c-35.2,0-63.7,10-63.7,22.4s28.5,22.4,63.7,22.4c9.6,0,18.7-0.8,26.9-2.1c-0.3-1.1-0.8-2.1-1.5-3
		c-7.6,1.4-16.3,2.3-25.4,2.3c-30.1,0-54.4-8.8-54.4-19.5c0-10.8,24.4-19.6,54.4-19.6c30.1,0,54.4,8.8,54.4,19.5
		c0,0.9-0.2,1.7-0.5,2.5c2.3,1.4,4.1,3.5,5,6c3.1-2.6,4.8-5.5,4.8-8.5C403.2,70.2,374.7,60.2,339.5,60.2z"/>
	<path class="st2" d="M358.3,70.6c-4.5-7-9.3-13.5-14.1-19.1c-0.7,0.4-1.4,1-2,1.6c-0.1,0.1-0.3,0.3-0.4,0.5
		c4.8,5.3,9.6,11.6,14.1,18.6c16.2,25.3,21.9,50.6,12.8,56.4c-9.1,5.8-29.6-10-45.8-35.4c-16.2-25.3-21.9-50.6-12.8-56.4
		c1.2-0.8,2.6-1.2,4.2-1.2c0.5-2.4,1.7-4.5,3.4-6.1c-5.1-2.2-9.5-2.5-12.6-0.5c-10.4,6.7-3.5,36.1,15.4,65.8s42.7,48.3,53.2,41.7
		C384.2,129.7,377.3,100.2,358.3,70.6z"/>
	<circle class="st2" cx="339.5" cy="82.6" r="10.9"/>
	<path class="st2" d="M311,95.4c2.9-7.4,6.9-15.3,12-23.3c16.1-25.4,36.6-41.2,45.7-35.4s3.4,31.1-12.7,56.4
		c-16.1,25.4-36.6,41.2-45.7,35.4c-0.3-0.2-0.5-0.4-0.7-0.6c-1.6,1-3.5,1.6-5.6,1.7c-1,0-2-0.1-3-0.3c0.7,3.2,2.1,5.5,4.3,6.9
		c10.4,6.6,34.2-12.1,53.1-41.8s25.7-59.2,15.3-65.8c-10.4-6.6-34.2,12.1-53.1,41.8c-5.2,8.1-9.4,16.3-12.7,23.9L311,95.4z"/>
	<circle class="st2" cx="303.5" cy="118.1" r="8.7"/>
	<circle class="st2" cx="387.5" cy="95.1" r="8.7"/>
	<g>
		<path class="st1" d="M716.4,122.3c0,3-2.4,5.4-5.5,5.4s-5.5-2.4-5.5-5.4s2.5-5.3,5.5-5.3C714,117,716.4,119.4,716.4,122.3z
			 M706.9,122.4c0,2.3,1.7,4.1,4,4.1s4-1.8,4-4.1c0-2.3-1.7-4.1-4-4.1C708.6,118.2,706.9,120.1,706.9,122.4z M710.1,125h-1.4v-5.1
			c0.4-0.1,1.2-0.2,2.1-0.2c1.1,0,1.6,0.2,1.9,0.4c0.3,0.2,0.6,0.6,0.6,1.1s-0.5,1-1.1,1.2v0.1c0.5,0.2,0.8,0.6,1,1.3
			c0.2,0.8,0.3,1,0.4,1.2H712c-0.2-0.2-0.3-0.6-0.4-1.2c-0.1-0.5-0.4-0.8-1-0.8h-0.5V125z M710.2,122.1h0.5c0.6,0,1-0.2,1-0.7
			c0-0.4-0.3-0.7-1-0.7c-0.3,0-0.4,0-0.6,0L710.2,122.1L710.2,122.1z"/>
	</g>
	<path class="st3" d="M312.6,42.3"/>
	<path class="st3" d="M661.7,110.7"/>
	<path class="st1" d="M616.3,74V56l-13.7,27.4l13.6,27.5V93"/>
	<path class="st1" d="M659.5,88.5c2.4,0,3.7-1.3,3.7-3.7V57.3c0-12.3-4.5-19-20-19s-20,6.7-20,19v21.4h-13.5v9.6h13.5v21.5
		c0,12.3,4.5,19,20,19s20-6.7,20-19v-5.9c0-2.2-1.1-3.4-3.4-3.4h-5.4c-2.2,0-3.4,1.1-3.4,3.4v5.8c0,6.7-2.4,9-7.8,9
		c-5.3,0-7.7-2.2-7.7-9V88.6L659.5,88.5L659.5,88.5z M635.5,57.5c0-6.9,2.4-9,7.7-9c5.4,0,7.8,2.1,7.8,9v20.9h-15.5V57.5z"/>
	<circle class="st2" cx="326.1" cy="38" r="8.7"/>
	<circle class="st1" cx="167.3" cy="47" r="8.7"/>
	<path class="st1" d="M0,98.6"/>
	<path class="st1" d="M45.3,139.3c0,13.3-4.8,20.6-21.6,20.6h-7.8c-2.2,0-3.5-1.1-3.5-3.4v-3.4c0-2.2,1.3-3.5,3.5-3.5h7.8
		c7.5,0,9.4-3.8,9.4-10.6v-16.6c-4.2,4-9.8,6.2-14.7,6.2c-7,0-13.1-4.5-13.1-14.7V52.8c0-10.2,6.1-14.7,13.1-14.7
		c5,0,10.6,2.2,14.7,6.2v-2.1c0-2.2,1.1-3.4,3.4-3.4h5.4c2.2,0,3.4,1.1,3.4,3.4C45.3,42.2,45.3,139.3,45.3,139.3z M17.7,109.1
		c0,6.9,1.8,9,7,9c5.4,0,8.5-2.7,8.5-9.4V58.5c0-6.7-3-9.6-8.5-9.6c-5.3,0-7,2.2-7,9V109.1z"/>
	<path class="st1" d="M96.7,84.8c0,2.4-1.3,3.7-3.7,3.7H69v21.1c0,6.7,2.4,9,7.7,9c5.4,0,7.8-2.2,7.8-9v-5.8c0-2.2,1.1-3.4,3.4-3.4
		h5.4c2.2,0,3.4,1.1,3.4,3.4v5.9c0,12.3-4.5,19-20,19s-20-6.7-20-19V57.2c0-12.3,4.5-19,20-19s20,6.7,20,19L96.7,84.8L96.7,84.8z
		 M69,78.4h15.5V57.5c0-6.9-2.4-9-7.8-9c-5.3,0-7.7,2.1-7.7,9V78.4z"/>
	<path class="st1" d="M148.4,124.6c0,2.1-1.1,3.4-3.4,3.4h-5.4c-2.2,0-3.4-1.3-3.4-3.4V57.8c0-6.7-1.9-9-7.2-9
		c-5.4,0-8.3,2.9-8.3,9.6v66.2c0,2.1-1.3,3.4-3.5,3.4h-5.3c-2.2,0-3.5-1.3-3.5-3.4V42.4c0-2.2,1.3-3.4,3.5-3.4h5.3
		c2.2,0,3.5,1.1,3.5,3.4v2.1c4-4,9.6-6.2,14.6-6.2c7,0,13.1,4.5,13.1,14.7L148.4,124.6L148.4,124.6z"/>
	<path class="st1" d="M173.5,124.5c0,2.2-1.3,3.5-3.5,3.5h-5.3c-2.2,0-3.5-1.3-3.5-3.5v-58c0-2.2,1.3-3.4,3.5-3.4h5.3
		c2.2,0,3.5,1.1,3.5,3.4V124.5z"/>
	<path class="st1" d="M186.3,42.4c0-2.2,1.3-3.4,3.5-3.4h5.3c2.2,0,3.5,1.1,3.5,3.4v66.7c0,6.9,1.8,9,7,9c5.4,0,8.5-2.7,8.5-9.4
		V42.5c0-2.2,1.1-3.4,3.4-3.4h5.4c2.2,0,3.4,1.1,3.4,3.4v82.1c0,2.1-1.1,3.4-3.4,3.4h-5.4c-2.2,0-3.4-1.3-3.4-3.4v-2.1
		c-4.2,4-9.8,6.2-14.7,6.2c-7,0-13.1-4.5-13.1-14.7V42.4L186.3,42.4z"/>
	<path class="st1" d="M257.6,128.8c-15.5,0-20-6.7-20-19V99.6c0-2.2,1.1-3.5,3.4-3.5h5.4c2.2,0,3.4,1.3,3.4,3.5v10
		c0,6.7,2.4,9,7.8,9c5.3,0,7.7-2.2,7.7-9c0-9.9-1.3-10.7-7-16.5l-12.2-11.8c-5.8-5.6-8.5-10.4-8.5-24c0-12.3,4.5-19,20-19
		c15.4,0,20,6.7,20,19v10.2c0,2.2-1.3,3.4-3.5,3.4h-5.3c-2.2,0-3.5-1.1-3.5-3.4V57.4c0-6.9-2.4-9-7.7-9c-5.4,0-7.8,2.1-7.8,9
		c0,9.9,1.3,10.6,7,16.5L269,85.7c5.8,5.6,8.6,10.4,8.6,24C277.6,122.1,272.9,128.8,257.6,128.8z"/>
</g>
</svg>
