<?xml version="1.0" encoding="UTF-8" standalone="no"?>
<svg
   xmlns:dc="http://purl.org/dc/elements/1.1/"
   xmlns:cc="http://creativecommons.org/ns#"
   xmlns:rdf="http://www.w3.org/1999/02/22-rdf-syntax-ns#"
   xmlns:svg="http://www.w3.org/2000/svg"
   xmlns="http://www.w3.org/2000/svg"
   xmlns:sodipodi="http://sodipodi.sourceforge.net/DTD/sodipodi-0.dtd"
   xmlns:inkscape="http://www.inkscape.org/namespaces/inkscape"
   inkscape:version="1.0 (4035a4fb49, 2020-05-01)"
   height="71"
   width="71"
   sodipodi:docname="linkedin.svg"
   xml:space="preserve"
   viewBox="0 0 71 71"
   y="0px"
   x="0px"
   id="Layer_1"
   version="1.1"><metadata
   id="metadata21"><rdf:RDF><cc:Work
       rdf:about=""><dc:format>image/svg+xml</dc:format><dc:type
         rdf:resource="http://purl.org/dc/dcmitype/StillImage" /><dc:title></dc:title></cc:Work></rdf:RDF></metadata><defs
   id="defs19" /><sodipodi:namedview
   inkscape:current-layer="Layer_1"
   inkscape:window-maximized="0"
   inkscape:window-y="782"
   inkscape:window-x="2166"
   inkscape:cy="35.6"
   inkscape:cx="35.6"
   inkscape:zoom="3.575"
   fit-margin-bottom="0"
   fit-margin-right="0"
   fit-margin-left="0"
   fit-margin-top="0"
   showgrid="false"
   id="namedview17"
   inkscape:window-height="2115"
   inkscape:window-width="2094"
   inkscape:pageshadow="2"
   inkscape:pageopacity="0"
   guidetolerance="10"
   gridtolerance="10"
   objecttolerance="10"
   borderopacity="1"
   bordercolor="#666666"
   pagecolor="#ffffff" />
<style
   id="style2"
   type="text/css">
	.st0{fill:#FFFFFF;}
</style>
<g
   transform="translate(-64.4,-64.4)"
   id="g14">
	<g
   id="g12">
		<g
   id="g6">
			<path
   id="path4"
   d="m 99.9,66.1 c 18.6,0 33.8,15.2 33.8,33.8 0,18.6 -15.2,33.8 -33.8,33.8 -18.6,0 -33.8,-15.2 -33.8,-33.8 0,-18.6 15.1,-33.8 33.8,-33.8 m 0,-1.7 c -19.6,0 -35.5,15.9 -35.5,35.5 0,19.6 15.9,35.5 35.5,35.5 19.6,0 35.5,-15.9 35.5,-35.5 0,-19.6 -15.9,-35.5 -35.5,-35.5 z"
   class="st0" />
		</g>
		<g
   id="g10">
			<path
   id="path8"
   d="M 90.5,116.5 V 93.3 h -7.7 v 23.2 z M 86.7,90.1 c 2.7,0 4.4,-1.8 4.4,-4 -0.1,-2.3 -1.7,-4 -4.3,-4 -2.6,0 -4.4,1.7 -4.4,4 0,2.3 1.6,4 4.3,4 z m 8.1,26.4 h 7.7 v -12.9 c 0,-0.7 0.1,-1.4 0.3,-1.9 0.6,-1.4 1.8,-2.8 4,-2.8 2.8,0 3.9,2.1 3.9,5.2 v 12.4 h 7.7 v -13.3 c 0,-7.1 -3.8,-10.4 -8.9,-10.4 -4.2,0 -6,2.3 -7,3.9 h 0.1 v -3.4 h -7.7 c 0,2.2 -0.1,23.2 -0.1,23.2 z"
   class="st0" />
		</g>
	</g>
</g>
</svg>
