<?xml version="1.0" encoding="UTF-8" standalone="no"?>
<svg
   xmlns:dc="http://purl.org/dc/elements/1.1/"
   xmlns:cc="http://creativecommons.org/ns#"
   xmlns:rdf="http://www.w3.org/1999/02/22-rdf-syntax-ns#"
   xmlns:svg="http://www.w3.org/2000/svg"
   xmlns="http://www.w3.org/2000/svg"
   xmlns:sodipodi="http://sodipodi.sourceforge.net/DTD/sodipodi-0.dtd"
   xmlns:inkscape="http://www.inkscape.org/namespaces/inkscape"
   inkscape:version="1.0 (4035a4fb49, 2020-05-01)"
   height="90"
   width="90"
   sodipodi:docname="twitter.svg"
   xml:space="preserve"
   viewBox="0 0 90 90"
   y="0px"
   x="0px"
   id="Layer_1"
   version="1.1"><metadata
   id="metadata19"><rdf:RDF><cc:Work
       rdf:about=""><dc:format>image/svg+xml</dc:format><dc:type
         rdf:resource="http://purl.org/dc/dcmitype/StillImage" /><dc:title></dc:title></cc:Work></rdf:RDF></metadata><defs
   id="defs17" /><sodipodi:namedview
   inkscape:current-layer="Layer_1"
   inkscape:window-maximized="0"
   inkscape:window-y="782"
   inkscape:window-x="2166"
   inkscape:cy="35.6"
   inkscape:cx="45.1"
   inkscape:zoom="3.575"
   fit-margin-bottom="0"
   fit-margin-right="0"
   fit-margin-left="0"
   fit-margin-top="0"
   showgrid="false"
   id="namedview15"
   inkscape:window-height="2115"
   inkscape:window-width="2094"
   inkscape:pageshadow="2"
   inkscape:pageopacity="0"
   guidetolerance="10"
   gridtolerance="10"
   objecttolerance="10"
   borderopacity="1"
   bordercolor="#666666"
   pagecolor="#ffffff" />
<style
   id="style2"
   type="text/css">
	.st0{fill:#FFFFFF;}
</style>
<g
   transform="translate(-54.9,-64.4)"
   id="g12">
	<g
   id="g10">
		<g
   id="g6">
			<path
   id="path4"
   d="m 99.9,66.6 c 23.6,0 42.8,19.2 42.8,42.8 0,23.6 -19.2,42.8 -42.8,42.8 -23.6,0 -42.8,-19.2 -42.8,-42.8 0,-23.6 19.2,-42.8 42.8,-42.8 m 0,-2.2 c -24.9,0 -45,20.1 -45,45 0,24.9 20.1,45 45,45 24.9,0 45,-20.1 45,-45 0,-24.9 -20.2,-45 -45,-45 z"
   class="st0" />
		</g>
		<path
   id="path8"
   d="m 124.2,94.3 c -1.8,0.8 -3.7,1.3 -5.7,1.6 2.1,-1.2 3.6,-3.2 4.4,-5.5 -1.9,1.1 -4.1,2 -6.3,2.4 -1.8,-1.9 -4.4,-3.2 -7.3,-3.2 -5.5,0 -10,4.5 -10,10 0,0.8 0.1,1.5 0.3,2.3 -8.3,-0.4 -15.7,-4.4 -20.6,-10.4 -0.9,1.5 -1.4,3.2 -1.4,5 0,3.5 1.8,6.5 4.4,8.3 -1.6,-0.1 -3.2,-0.5 -4.5,-1.2 0,0 0,0.1 0,0.1 0,4.8 3.4,8.9 8,9.8 -0.8,0.2 -1.7,0.4 -2.6,0.4 -0.6,0 -1.3,-0.1 -1.9,-0.2 1.3,4 5,6.9 9.3,6.9 -3.4,2.7 -7.7,4.3 -12.4,4.3 -0.8,0 -1.6,0 -2.4,-0.1 4.4,2.8 9.7,4.5 15.3,4.5 18.4,0 28.4,-15.2 28.4,-28.4 0,-0.4 0,-0.9 0,-1.3 2,-1.6 3.7,-3.3 5,-5.3 z"
   class="st0" />
	</g>
</g>
</svg>
