<?xml version="1.0" encoding="utf-8"?>
<!-- Generator: Adobe Illustrator 25.2.3, SVG Export Plug-In . SVG Version: 6.00 Build 0)  -->
<svg version="1.1" id="Layer_1" xmlns="http://www.w3.org/2000/svg" xmlns:xlink="http://www.w3.org/1999/xlink" x="0px" y="0px"
	 viewBox="0 0 1600 1000" style="enable-background:new 0 0 1600 1000;" xml:space="preserve">
<style type="text/css">
	.st0{fill:#D55034;}
</style>
<g>
	<path class="st0" d="M961.8,411.3c28.8-80.3,30.8-144.5-0.7-164.5c-43.4-27.6-135.7,37.8-217.9,149.8c-31.6,2.1-61.5,6-88.7,11.3
		c-18.6-60.5-17.5-107.9,7.6-123.9c5.7-3.6,12.4-5.4,19.8-5.6c2.3-11.2,8.1-21.2,16.2-28.8c-24-10.5-44.7-12-59.5-2.5
		c-31.4,20.1-29.4,84.1-0.5,164.2c-83.1,18.8-138.2,51.5-138.2,88.8c0,51.4,104.8,94.2,243.4,103.5c15.1,20.5,30.6,39.5,46.1,56.6
		c-51.2,49.9-99.8,73.4-126.9,56.2c-1.2-0.8-2.3-1.7-3.4-2.6c-7.7,4.8-16.6,7.7-26.3,8.2c-4.8,0.2-9.5-0.3-14-1.3
		c3.4,14.9,10,26.1,20.2,32.6c33.6,21.3,96.4-13,161.2-81.4c64.9,68.3,127.9,102.6,161.4,81.2c42.4-27.1,23.9-134.3-39.5-253.1
		c13.3-25.1,24.6-49.6,33.8-73c61.1,16.8,100.5,43.3,100.5,73.1c0,4-0.8,7.9-2.2,11.8c10.7,6.4,19.1,16.4,23.4,28.3
		c14.5-12.4,22.5-25.9,22.5-40.1C1100.2,462.8,1045,430.1,961.8,411.3z M937.6,283.8c25.2,16,26.4,63.5,7.8,124.1
		c-27.2-5.3-57-9.2-88.6-11.3c-11.3-15.3-22.7-29.6-34.2-43.1c-3.3,2.1-6.4,4.5-9.3,7.4c-0.7,0.7-1.3,1.4-1.9,2.2
		c9.2,10.1,18.3,21,27.4,32.5c-12.7-0.6-25.6-0.9-38.7-0.9c-13.2,0-26.1,0.3-38.8,0.9C828.6,309.4,901.7,261,937.6,283.8z
		 M849.5,409.8c9.6,12.9,19,26.5,28.1,40.8c10.6,16.6,20.2,33.1,28.8,49.5c-8.6,16.3-18.2,32.9-28.8,49.5
		c-9.1,14.3-18.5,28-28.1,40.9c-16.1,1.1-32.6,1.7-49.6,1.7c-16.9,0-33.5-0.6-49.5-1.7c-9.6-12.9-19-26.5-28.1-40.8
		c-10.6-16.6-20.2-33.1-28.8-49.5c8.6-16.3,18.2-32.9,28.7-49.5c9.1-14.3,18.5-28,28.1-41c16.1-1.1,32.6-1.7,49.6-1.7
		C816.9,408.1,833.5,408.7,849.5,409.8z M732.6,411.3c-7.3,10.4-14.5,21.2-21.6,32.3c-8.9,14-17.3,28.1-25,42
		c-10.7-21.6-19.6-42.6-26.6-62.4C681.7,417.9,706.3,413.9,732.6,411.3z M543.6,500.2c0-29.8,39.3-56.2,100.3-73.1
		c9.2,23.4,20.6,48.1,34,73.2c-10.1,19-19.1,37.8-26.8,55.9l14.7,4.3c5.8-14.7,12.5-30,20.2-45.6c7.8,13.9,16.2,27.9,25.1,41.9
		c7.1,11.1,14.3,21.8,21.6,32.2C623.7,578.4,543.6,542.7,543.6,500.2z M800,605.6c13.2,0,26.1-0.3,38.8-0.9
		c-12.8,16.4-25.8,31.4-38.7,44.8c-13-13.4-26-28.4-38.8-44.8C774,605.3,786.9,605.6,800,605.6z M938,716.3
		c-27.1,17.3-75.7-6.2-127-55.9c15.4-17.1,30.8-36.1,45.9-56.6c24.5-1.7,47.9-4.4,69.9-8c-1.6-5.1-3.9-9.9-6.9-14.2
		c-16.5,3.1-34.1,5.6-52.5,7.5c7.3-10.4,14.5-21.2,21.6-32.3c8.9-14,17.3-28.1,25-42C961.3,610,973.1,693.9,938,716.3z M914,485.3
		c-7.8-13.9-16.2-27.9-25.1-41.9c-7.1-11.1-14.3-21.8-21.6-32.2c26.3,2.6,50.9,6.6,73.1,11.8C933.5,442.9,924.6,463.8,914,485.3z"/>
	
		<ellipse transform="matrix(0.7071 -0.7071 0.7071 0.7071 -119.3554 712.1816)" class="st0" cx="800" cy="500.2" rx="51.2" ry="51.2"/>
	
		<ellipse transform="matrix(0.3049 -0.9524 0.9524 0.3049 -197.6414 1064.3658)" class="st0" cx="630.3" cy="667.6" rx="40.9" ry="40.9"/>
	
		<ellipse transform="matrix(0.9871 -0.1602 0.1602 0.9871 -76.263 171.6295)" class="st0" cx="1026.4" cy="558.8" rx="40.9" ry="40.9"/>
	
		<ellipse transform="matrix(0.9871 -0.1602 0.1602 0.9871 -36.9308 121.8344)" class="st0" cx="737.2" cy="290" rx="40.9" ry="40.9"/>
</g>
</svg>
