<?xml version="1.0" encoding="utf-8"?>
<!-- Generator: Adobe Illustrator 25.2.3, SVG Export Plug-In . SVG Version: 6.00 Build 0)  -->
<svg version="1.1" id="Layer_1" xmlns="http://www.w3.org/2000/svg" xmlns:xlink="http://www.w3.org/1999/xlink" x="0px" y="0px"
	 viewBox="0 0 206.5 81.3" style="enable-background:new 0 0 206.5 81.3;" xml:space="preserve">
<style type="text/css">
	.st0{fill:#004C6E;}
	.st1{fill:#004C6E;stroke:#004C6E;stroke-width:2.938956e-02;stroke-miterlimit:10;}
	.st2{fill:#004C6E;stroke:#004C6E;stroke-width:4.679715e-02;stroke-miterlimit:10;}
	.st3{fill:#004C6E;stroke:#004C6E;stroke-width:0.15;stroke-miterlimit:10;}
	.st4{fill:#004C6E;stroke:#FFFFFF;stroke-width:3.277131e-02;stroke-miterlimit:10;}
	.st5{fill:#004C6E;stroke:#FFFFFF;stroke-width:5.218193e-02;stroke-miterlimit:10;}
</style>
<g>
	<g>
		<g>
			<g>
				<g>
					<g>
						<path class="st0" d="M109,50.8L109,50.8c-4.1,0-7.8-2.5-9.3-6.2c-1-2.5-1-5.2,0-7.7c1-2.5,3-4.4,5.5-5.5
							c1.2-0.5,2.5-0.8,3.9-0.8c4.1,0,7.8,2.5,9.3,6.2c1,2.5,1,5.2,0,7.7c-1,2.5-3,4.4-5.5,5.5C111.7,50.5,110.4,50.8,109,50.8z
							 M109,32.5c-1.1,0-2.1,0.2-3.1,0.6c-2,0.8-3.6,2.4-4.4,4.4c-0.8,2-0.8,4.2,0,6.2c1.3,3,4.2,5,7.5,5h0c1.1,0,2.1-0.2,3.1-0.6
							c2-0.8,3.6-2.4,4.4-4.4c0.8-2,0.8-4.2,0-6.2C115.3,34.5,112.3,32.5,109,32.5z"/>
					</g>
				</g>
				<g>
					<g>
						<path class="st0" d="M114.9,65.7l-2.9-4.9c-2,0.3-3.9,0.3-5.9,0l-2.9,4.9l-7.7-3.2l1.4-5.6c-1.6-1.2-3-2.6-4.1-4.2l-5.6,1.4
							l-3.2-7.7l4.9-2.9c-0.3-2-0.3-3.9,0-5.9l-4.9-2.9l3.2-7.7l5.6,1.4c1.2-1.6,2.6-3,4.2-4.1l-1.4-5.6l7.7-3.2l2.9,4.9
							c1.9-0.3,3.9-0.3,5.9,0l2.9-4.9l7.7,3.2l-1.4,5.6c1.6,1.2,3,2.6,4.1,4.1l5.6-1.4l3.2,7.7l-4.9,2.9c0.3,1.9,0.3,3.9,0,5.9
							l4.9,2.9l-3.2,7.7l-5.6-1.4c-1.2,1.6-2.6,3-4.2,4.1l1.4,5.6L114.9,65.7z M113,58.6l2.7,4.6l4.5-1.9l-1.3-5.2l0.6-0.4
							c1.8-1.2,3.4-2.8,4.6-4.6l0.4-0.6l5.2,1.3l1.9-4.5l-4.6-2.7l0.1-0.7c0.4-2.2,0.4-4.4,0-6.5l-0.1-0.7l4.6-2.7l-1.9-4.5
							l-5.1,1.3l-0.5-0.6c-1.3-1.8-2.8-3.4-4.6-4.6l-0.6-0.4l1.3-5.2l-4.5-1.9l-2.7,4.6l-0.7-0.1c-2.1-0.4-4.4-0.4-6.5,0l-0.7,0.1
							l-2.7-4.6L97.8,20l1.3,5.2l-0.6,0.4c-1.8,1.2-3.4,2.8-4.6,4.6l-0.4,0.6l-5.2-1.3l-1.9,4.5l4.6,2.7L91,37.4
							c-0.4,2.2-0.4,4.4,0,6.5l0.1,0.7l-4.6,2.7l1.9,4.5l5.2-1.3l0.4,0.6c1.3,1.8,2.8,3.4,4.6,4.6l0.6,0.4l-1.3,5.2l4.5,1.9l2.7-4.6
							l0.7,0.1c2.1,0.4,4.4,0.4,6.5,0L113,58.6z"/>
					</g>
				</g>
			</g>
			<g>
				<g>
					<g>
						<g>
							<path class="st0" d="M140.8,45.3c-2.6,0-4.6-2.1-4.6-4.6c0-2.6,2.1-4.6,4.6-4.6c2.6,0,4.6,2.1,4.6,4.6
								C145.4,43.2,143.4,45.3,140.8,45.3z M140.8,38c-1.4,0-2.6,1.2-2.6,2.6c0,1.4,1.2,2.6,2.6,2.6c1.4,0,2.6-1.2,2.6-2.6
								C143.4,39.2,142.2,38,140.8,38z"/>
						</g>
					</g>
					<g>
						<g>
							<path class="st0" d="M153.2,44.1c-0.3,1-0.7,2-1.2,2.9l2.2,2.9L150,54l-2.9-2.2c-0.9,0.5-1.9,0.9-2.9,1.2l-0.5,3.6h-5.8
								l-0.5-3.6c-1.1-0.3-2.1-0.7-3.1-1.3l0.8-1.9c1,0.7,2.2,1.1,3.4,1.4l0.7,0.1l0.5,3.2h2.3l0.5-3.2l0.7-0.1
								c1.3-0.3,2.5-0.8,3.6-1.5l0.6-0.4l2.6,1.9l1.6-1.6l-1.9-2.6l0.4-0.6c0.7-1.1,1.2-2.3,1.5-3.6l0.1-0.7l3.2-0.5v-2.3l-3.2-0.5
								l-0.2-0.7c-0.3-1.3-0.8-2.5-1.5-3.6l-0.4-0.6l1.9-2.6l-1.6-1.6l-2.6,1.9l-0.6-0.4c-1.1-0.7-2.3-1.2-3.6-1.5l-0.7-0.1
								l-0.5-3.2h-2.3l-0.5,3.2l-0.7,0.1c-1.2,0.3-2.4,0.7-3.4,1.4l-0.8-1.9c1-0.6,2-1,3.1-1.3l0.5-3.6h5.8l0.5,3.6
								c1,0.3,2,0.7,2.9,1.2l2.9-2.2l4.1,4.1l-2.2,2.9c0.5,0.9,0.9,1.9,1.2,2.9l3.6,0.5v5.8L153.2,44.1z"/>
						</g>
					</g>
				</g>
				<g>
					<g>
						<g>
							<path class="st0" d="M77.3,45.3c-2.6,0-4.6-2.1-4.6-4.6c0-2.6,2.1-4.6,4.6-4.6c2.6,0,4.6,2.1,4.6,4.6
								C81.9,43.2,79.8,45.3,77.3,45.3z M77.3,38c-1.4,0-2.6,1.2-2.6,2.6c0,1.4,1.2,2.6,2.6,2.6c1.4,0,2.6-1.2,2.6-2.6
								C79.9,39.2,78.7,38,77.3,38z"/>
						</g>
					</g>
					<g>
						<g>
							<path class="st0" d="M83.8,51.7c-1,0.6-2,1-3.1,1.3l-0.5,3.6h-5.8l-0.5-3.6c-1-0.3-2-0.7-2.9-1.2L68,54l-4.1-4.1l2.2-2.9
								c-0.5-0.9-0.9-1.9-1.2-2.9l-3.6-0.5v-5.8l3.6-0.5c0.3-1,0.7-2,1.2-2.9l-2.2-2.9l4.1-4.1l2.9,2.2c0.9-0.5,1.9-0.9,2.9-1.2
								l0.5-3.6h5.8l0.5,3.6c1.1,0.3,2.2,0.7,3.1,1.3l-0.8,1.9c-1.1-0.7-2.2-1.2-3.5-1.4l-0.7-0.1l-0.5-3.2h-2.3l-0.5,3.2L75,30
								c-1.3,0.3-2.5,0.8-3.6,1.5l-0.6,0.4L68.2,30l-1.6,1.6l1.9,2.6l-0.4,0.6c-0.7,1.1-1.2,2.3-1.5,3.6l-0.1,0.2L66.4,39l-3.1,0.4
								v2.3l3.2,0.5l0.1,0.7c0.3,1.3,0.8,2.5,1.5,3.6l0.4,0.6l-1.9,2.6l1.6,1.6l2.6-1.9l0.6,0.4c1.1,0.7,2.3,1.2,3.6,1.5l0.7,0.1
								l0.5,3.2h2.3l0.5-3.2l0.7-0.1c1.2-0.3,2.4-0.7,3.5-1.4L83.8,51.7z"/>
						</g>
					</g>
				</g>
			</g>
		</g>
		<g>
			<g>
				<polygon class="st0" points="141,69 140.3,63.3 134.5,64 134.3,62 142.1,61 143,68.8 				"/>
			</g>
			<g>
				<path class="st0" d="M108.4,81.3c-13.2,0-25.5-6.6-32.8-17.6l1.7-1.1c6.9,10.5,18.5,16.7,31.1,16.7c12.5,0,24.1-6.2,31.1-16.7
					l1.7,1.1C133.8,74.7,121.6,81.3,108.4,81.3z"/>
			</g>
		</g>
		<g>
			<g>
				<g>
					<polygon class="st0" points="76,20.3 75,12.5 77,12.3 77.7,18.1 83.5,17.4 83.8,19.4 					"/>
				</g>
			</g>
			<g>
				<path class="st0" d="M140.8,18.7C133.9,8.3,122.2,2,109.7,2C97.2,2,85.6,8.3,78.6,18.7L77,17.6C84.3,6.6,96.5,0,109.7,0
					c13.2,0,25.5,6.6,32.8,17.6L140.8,18.7z"/>
			</g>
		</g>
	</g>
	<g>
		<g>
			<rect x="43.4" y="44.9" class="st1" width="5.1" height="3.3"/>
			<rect x="29" y="44.9" class="st2" width="13" height="3.3"/>
			<path class="st0" d="M29.1,25.3v18.3h19.5V25.3H29.1z M47.1,40.4H30.5V26.8h16.6V40.4z"/>
		</g>
		<path class="st0" d="M54.6,53.9v-4.4v-5.7V24.2c0-1.7-1.4-3.1-3.1-3.1h-2.7h-1.3h-40c-1.7,0-3.1,1.4-3.1,3.1v29.7H0V57
			c0,1.7,1.4,3.1,3.1,3.1h52.7c1.7,0,3.1-1.4,3.1-3.1v-3.1H54.6z M5.6,24.6L5.6,24.6l0-0.4c0-1,0.8-1.9,1.9-1.9h44
			c1,0,1.9,0.8,1.9,1.9v1.4h0v0.6h0v27.7H5.7V26.8h0V24.6z M57.8,57c0,1-0.8,1.9-1.9,1.9H3.1c-1,0-1.9-0.8-1.9-1.9v-1.9h24.5h7.5
			h24.5V57z"/>
	</g>
	<g>
		<g>
			<g>
				<path class="st3" d="M198.9,8.2h-17.8c-2.9,0-5.3,2.4-5.3,5.3v39.7c0,0.2,0,0.4,0,0.7c0.2,0.8,0.6,1.9,0.7,2l0,0.1
					c1,1.6,2.7,2.6,4.6,2.6h17.8c2.9,0,5.3-2.4,5.3-5.3V13.5C204.2,10.6,201.8,8.2,198.9,8.2z M202.5,53.2c0,2-1.6,3.6-3.6,3.6
					h-17.8c-2,0-3.6-1.6-3.6-3.6v-3.4h25V53.2z M202.5,13.6v35.5h-25V13.6v-0.1c0-2,1.6-3.6,3.6-3.6h17.8
					C200.8,9.9,202.5,11.6,202.5,13.6L202.5,13.6z"/>
				<path class="st0" d="M190,50.9c-1.3,0-2.4,1.1-2.4,2.4c0,1.3,1.1,2.4,2.4,2.4c1.3,0,2.4-1.1,2.4-2.4
					C192.4,51.9,191.3,50.9,190,50.9z M190,54.6c-0.7,0-1.3-0.6-1.3-1.3c0-0.7,0.6-1.3,1.3-1.3c0.7,0,1.3,0.6,1.3,1.3
					C191.2,54,190.7,54.6,190,54.6z"/>
				<rect x="187.1" y="11.4" class="st0" width="5.7" height="1.1"/>
			</g>
			<g>
				<rect x="194.5" y="41.1" class="st4" width="5.1" height="4.2"/>
				<rect x="180.3" y="41.1" class="st5" width="12.8" height="4.2"/>
				<path class="st0" d="M180.3,16.4v23.1h19.2V16.4H180.3z M198.1,35.3h-16.3v-17h16.3V35.3z"/>
			</g>
		</g>
		<g id="XMLID_19_">
			<path id="XMLID_22_" class="st0" d="M168.5,52.8c-0.8,0-1.5,0.7-1.5,1.5v17.4c0,0.8,0.7,1.5,1.5,1.5c0.8,0,1.5-0.7,1.5-1.5V54.2
				C169.9,53.4,169.3,52.8,168.5,52.8z"/>
			<path id="XMLID_21_" class="st0" d="M197.1,52.8c-0.8,0-1.5,0.7-1.5,1.5v17.4c0,0.8,0.7,1.5,1.5,1.5s1.5-0.7,1.5-1.5V54.2
				C198.6,53.4,197.9,52.8,197.1,52.8z"/>
			<path id="XMLID_20_" class="st0" d="M205.9,58.3l-1.4-0.7v-0.1c0-1.6-1-2.9-2.4-3.4V52c0-10.7-8.7-19.3-19.3-19.3
				c-10.7,0-19.3,8.7-19.3,19.3v2.1c-1.4,0.5-2.4,1.8-2.4,3.4v0.1l-1.4,0.7c-0.4,0.2-0.6,0.5-0.6,0.9v7.4c0,0.4,0.2,0.7,0.6,0.9
				l1.4,0.7v0.1c0,2,1.6,3.6,3.6,3.6h1.4v-0.3l0-19.7c0-9.3,7.5-16.8,16.8-16.8c9.3,0,16.8,7.5,16.8,16.8l0,19.7v0.3h1.4
				c2,0,3.6-1.6,3.6-3.6v-0.1l1.4-0.7c0.4-0.2,0.6-0.5,0.6-0.9v-7.4C206.5,58.8,206.3,58.5,205.9,58.3z"/>
		</g>
	</g>
</g>
</svg>
