<?xml version="1.0" encoding="utf-8"?>
<!-- Generator: Adobe Illustrator 25.2.3, SVG Export Plug-In . SVG Version: 6.00 Build 0)  -->
<svg version="1.1" id="Layer_1" xmlns="http://www.w3.org/2000/svg" xmlns:xlink="http://www.w3.org/1999/xlink" x="0px" y="0px"
	 viewBox="0 0 85 85" style="enable-background:new 0 0 85 85;" xml:space="preserve">
<style type="text/css">
	.st0{enable-background:new    ;}
	.st1{clip-path:url(#SVGID_2_);enable-background:new    ;}
	.st2{fill:#3E444C;}
	.st3{fill:#004C6E;}
	.st4{fill:#FFFFFF;stroke:#004C6E;stroke-width:0.5595;stroke-miterlimit:10;}
	.st5{clip-path:url(#SVGID_4_);enable-background:new    ;}
	.st6{clip-path:url(#SVGID_6_);enable-background:new    ;}
	.st7{fill:#FFFFFF;}
</style>
<g>
	<g>
		<g class="st0">
			<g class="st0">
				<defs>
					<path id="SVGID_1_" class="st0" d="M75,53.5v14.4c0,7.4-14.6,13.4-32.5,13.4c-18,0-32.5-6-32.5-13.4V53.5
						c0,7.4,14.5,13.4,32.5,13.4C60.4,66.9,75,60.9,75,53.5z"/>
				</defs>
				<use xlink:href="#SVGID_1_"  style="overflow:visible;fill:#004C6E;"/>
				<clipPath id="SVGID_2_">
					<use xlink:href="#SVGID_1_"  style="overflow:visible;"/>
				</clipPath>
				<g class="st1">
					<path class="st2" d="M75,53.5v14.4c0,0.4,0,0.7-0.1,1.1V54.6C75,54.2,75,53.9,75,53.5"/>
					<path class="st3" d="M74.9,54.6v14.4c-0.1,0.4-0.2,0.8-0.4,1.2V55.8C74.7,55.4,74.8,55,74.9,54.6"/>
					<path class="st3" d="M74.5,55.8v14.4c-0.2,0.5-0.5,1-0.9,1.5V57.3C74,56.8,74.3,56.3,74.5,55.8"/>
					<path class="st3" d="M73.7,57.3v14.4c-4,5.5-16.4,9.6-31.2,9.6c-18,0-32.5-6-32.5-13.4V53.5c0,7.4,14.5,13.4,32.5,13.4
						C57.2,66.9,69.7,62.8,73.7,57.3"/>
				</g>
			</g>
			<g>
				<path class="st4" d="M42.5,40.1c17.9,0,32.5,6,32.5,13.4S60.4,66.9,42.5,66.9c-18,0-32.5-6-32.5-13.4S24.5,40.1,42.5,40.1z"/>
			</g>
		</g>
		<g class="st0">
			<g class="st0">
				<defs>
					<path id="SVGID_3_" class="st0" d="M75,35.7v14.4c0,7.4-14.6,13.4-32.5,13.4c-18,0-32.5-6-32.5-13.4V35.7
						c0,7.4,14.5,13.4,32.5,13.4C60.4,49.1,75,43.1,75,35.7z"/>
				</defs>
				<clipPath id="SVGID_4_">
					<use xlink:href="#SVGID_3_"  style="overflow:visible;"/>
				</clipPath>
				<g class="st5">
					<path class="st2" d="M75,35.7v14.4c0,0.4,0,0.7-0.1,1.1V36.8C75,36.5,75,36.1,75,35.7"/>
					<path class="st3" d="M74.9,36.8v14.4c-0.1,0.4-0.2,0.8-0.4,1.2V38C74.7,37.6,74.8,37.2,74.9,36.8"/>
					<path class="st3" d="M74.5,38v14.4c-0.2,0.5-0.5,1-0.9,1.5V39.6C74,39.1,74.3,38.6,74.5,38"/>
					<path class="st3" d="M73.7,39.6v14.4c-4,5.5-16.4,9.6-31.2,9.6c-18,0-32.5-6-32.5-13.4V35.7c0,7.4,14.5,13.4,32.5,13.4
						C57.2,49.1,69.7,45.1,73.7,39.6"/>
				</g>
			</g>
			<g>
				<path class="st4" d="M42.5,22.4c17.9,0,32.5,6,32.5,13.4S60.4,49.1,42.5,49.1c-18,0-32.5-6-32.5-13.4S24.5,22.4,42.5,22.4z"/>
			</g>
		</g>
		<g class="st0">
			<g class="st0">
				<defs>
					<path id="SVGID_5_" class="st0" d="M75,17.1v14.4c0,7.4-14.6,13.4-32.5,13.4c-18,0-32.5-6-32.5-13.4V17.1
						c0,7.4,14.5,13.4,32.5,13.4C60.4,30.5,75,24.5,75,17.1z"/>
				</defs>
				<use xlink:href="#SVGID_5_"  style="overflow:visible;fill:#004C6E;"/>
				<clipPath id="SVGID_6_">
					<use xlink:href="#SVGID_5_"  style="overflow:visible;"/>
				</clipPath>
				<g class="st6">
					<path class="st2" d="M75,17.1v14.4c0,0.4,0,0.7-0.1,1.1V18.2C75,17.8,75,17.5,75,17.1"/>
					<path class="st3" d="M74.9,18.2v14.4c-0.1,0.4-0.2,0.8-0.4,1.2V19.4C74.7,19,74.8,18.6,74.9,18.2"/>
					<path class="st3" d="M74.5,19.4v14.4c-0.2,0.5-0.5,1-0.9,1.5V20.9C74,20.4,74.3,19.9,74.5,19.4"/>
					<path class="st3" d="M73.7,20.9v14.4c-4,5.5-16.4,9.6-31.2,9.6c-18,0-32.5-6-32.5-13.4V17.1c0,7.4,14.5,13.4,32.5,13.4
						C57.2,30.5,69.7,26.5,73.7,20.9"/>
				</g>
			</g>
			<g>
				<path class="st4" d="M42.5,3.8c17.9,0,32.5,6,32.5,13.4S60.4,30.5,42.5,30.5c-18,0-32.5-6-32.5-13.4S24.5,3.8,42.5,3.8z"/>
			</g>
		</g>
	</g>
	<circle class="st7" cx="14.5" cy="30.6" r="1.5"/>
	<circle class="st7" cx="19.1" cy="33" r="1.5"/>
	<circle class="st7" cx="24.4" cy="34.8" r="1.5"/>
	<circle class="st7" cx="14.9" cy="49.5" r="1.5"/>
	<circle class="st7" cx="19.5" cy="51.9" r="1.5"/>
	<circle class="st7" cx="24.8" cy="53.7" r="1.5"/>
	<circle class="st7" cx="15.6" cy="68" r="1.5"/>
	<circle class="st7" cx="20.2" cy="70.3" r="1.5"/>
	<path class="st7" d="M27,72.2c0,0.8-0.7,1.5-1.5,1.5c-0.8,0-1.5-0.7-1.5-1.5c0-0.8,0.7-1.5,1.5-1.5C26.3,70.7,27,71.4,27,72.2z"/>
</g>
</svg>
