<?xml version="1.0" encoding="utf-8"?>
<!-- Generator: Adobe Illustrator 25.2.3, SVG Export Plug-In . SVG Version: 6.00 Build 0)  -->
<svg version="1.1" id="Layer_1" xmlns="http://www.w3.org/2000/svg" xmlns:xlink="http://www.w3.org/1999/xlink" x="0px" y="0px"
	 viewBox="0 0 85 85" style="enable-background:new 0 0 85 85;" xml:space="preserve">
<style type="text/css">
	.st0{fill:#FFFFFF;stroke:#004C6E;stroke-width:1.9837;stroke-miterlimit:10;}
	.st1{fill:#5D666F;}
	.st2{fill:#526885;}
	.st3{fill:#DFE1E3;}
	.st4{fill:#004C6E;stroke:#004C6E;stroke-width:1.5401;stroke-linecap:round;stroke-linejoin:round;stroke-miterlimit:10;}
	.st5{fill:#FFFFFF;stroke:#004C6E;stroke-width:1.5401;stroke-linecap:round;stroke-linejoin:round;stroke-miterlimit:10;}
</style>
<g>
	<circle class="st0" cx="42.5" cy="42.5" r="41.2"/>
	<g>
		<polygon class="st1" points="33.2,57.9 47.2,72 57.3,72 57.3,72.6 47,72.6 32.8,58.3 		"/>
		<path class="st1" d="M60.1,72.4h-0.3c0-0.7-0.6-1.3-1.3-1.3c-0.7,0-1.3,0.6-1.3,1.3c0,0.7,0.6,1.3,1.3,1.3c0.7,0,1.3-0.6,1.3-1.3
			H60.1h0.3c0,1-0.8,1.9-1.9,1.9c-1,0-1.9-0.8-1.9-1.9c0-1,0.8-1.9,1.9-1.9c1,0,1.9,0.8,1.9,1.9H60.1z"/>
		<polygon class="st2" points="35.6,34.3 26.7,24.9 16.7,24.9 16.7,24.3 27,24.3 36.1,33.8 		"/>
		<path class="st2" d="M13.9,24.6h0.3c0,0.7,0.6,1.3,1.3,1.3c0.7,0,1.3-0.6,1.3-1.3c0-0.7-0.6-1.3-1.3-1.3c-0.7,0-1.3,0.6-1.3,1.3
			H13.9h-0.3c0-1,0.8-1.9,1.9-1.9c1,0,1.9,0.8,1.9,1.9c0,1-0.8,1.9-1.9,1.9c-1,0-1.9-0.8-1.9-1.9H13.9z"/>
		<rect x="54.9" y="21.8" class="st2" width="6.6" height="1.4"/>
		<rect x="54.9" y="24.8" class="st2" width="8.1" height="1.4"/>
		<polygon class="st3" points="58.9,14.4 58.9,14.1 55.2,14.1 55.2,12.6 58.6,12.6 58.6,14.4 58.9,14.4 58.9,14.1 58.9,14.4 
			59.2,14.4 59.2,12 54.6,12 54.6,14.7 59.2,14.7 59.2,14.4 		"/>
		<polygon class="st3" points="58.9,18.7 58.9,18.4 55.2,18.4 55.2,16.9 58.6,16.9 58.6,18.7 58.9,18.7 58.9,18.4 58.9,18.7 
			59.2,18.7 59.2,16.3 54.6,16.3 54.6,19 59.2,19 59.2,18.7 		"/>
		<rect x="19.7" y="42.6" class="st4" width="44.7" height="21.6"/>
		<path class="st4" d="M62.8,39.5c0-2.6-2.1-4.6-4.6-4.6c-2.6,0-4.6,2.1-4.6,4.6H62.8z"/>
		<line class="st4" x1="56.7" y1="31.8" x2="59.7" y2="31.8"/>
		<line class="st4" x1="58.2" y1="31.8" x2="58.2" y2="34.9"/>
		<circle class="st4" cx="42" cy="21.8" r="5.4"/>
		<path class="st4" d="M39.7,30.3c-3.4,0-6.2,2.8-6.2,6.2v3.1h16.9v-3.1c0-3.4-2.8-6.2-6.2-6.2L42,33.4L39.7,30.3z"/>
		<rect x="17.2" y="39.5" class="st5" width="49.7" height="6"/>
	</g>
</g>
</svg>
