<?xml version="1.0" encoding="utf-8"?>
<!-- Generator: Adobe Illustrator 25.2.3, SVG Export Plug-In . SVG Version: 6.00 Build 0)  -->
<svg version="1.1" id="Layer_1" xmlns="http://www.w3.org/2000/svg" xmlns:xlink="http://www.w3.org/1999/xlink" x="0px" y="0px"
	 viewBox="0 0 35 35" style="enable-background:new 0 0 35 35;" xml:space="preserve">
<style type="text/css">
	.st0{fill:#221F20;stroke:#221F20;stroke-width:2.6025;stroke-miterlimit:10;}
	.st1{fill:#F2C954;}
	.st2{opacity:0.4;fill:#FFFFFF;}
	.st3{fill:#F3C046;}
	.st4{fill:#BC890F;}
	.st5{opacity:0.21;fill:#FFFFFF;}
	.st6{fill:#73644E;}
	.st7{fill:#221F20;}
</style>
<g>
	<circle class="st0" cx="17.5" cy="17.5" r="16.1"/>
	<g>
		<g>
			<g>
				<circle class="st1" cx="17.5" cy="17.5" r="16.1"/>
				<g>
					<path class="st2" d="M25.7,3.7L3.4,25.3c0.4,0.6,0.8,1.3,1.2,1.9L27.6,5C27,4.5,26.4,4.1,25.7,3.7z"/>
					<path class="st2" d="M29.8,7.2L6.7,29.4c0.6,0.5,1.2,1,1.8,1.4L31.1,9C30.7,8.4,30.3,7.7,29.8,7.2z"/>
					<path class="st2" d="M31.4,9.5L9,31.1c0.7,0.4,1.4,0.8,2.1,1.1l21.4-20.6C32.2,10.9,31.8,10.2,31.4,9.5z"/>
					<path class="st2" d="M33.2,14.2L13.6,33.1c0.9,0.2,1.9,0.4,2.8,0.4L33.6,17C33.5,16.1,33.4,15.1,33.2,14.2z"/>
				</g>
				<g>
					
						<ellipse transform="matrix(0.996 -8.961285e-02 8.961285e-02 0.996 -1.4978 1.6386)" class="st3" cx="17.5" cy="17.5" rx="13.1" ry="13.1"/>
					<path class="st4" d="M17.5,4.4c-7.2,0-13.1,5.9-13.1,13.1s5.9,13.1,13.1,13.1s13.1-5.9,13.1-13.1S24.7,4.4,17.5,4.4z
						 M17.8,30.2c-6.8,0-12.3-5.5-12.3-12.3S11,5.5,17.8,5.5S30.1,11,30.1,17.8S24.6,30.2,17.8,30.2z"/>
				</g>
			</g>
			<path class="st5" d="M29.4,6.7c-2.9-3.2-7.2-5.3-11.9-5.3C8.6,1.4,1.4,8.6,1.4,17.5c0,4.2,1.6,8.1,4.3,10.9c0,0,4.8-7,10.2-12.2
				C22.1,10.2,29.4,6.7,29.4,6.7z"/>
		</g>
		<g>
			<path class="st6" d="M21,13.8c-0.1,0.1-0.3,0.1-0.4,0c-0.4-0.3-0.7-0.6-1.1-0.7c-0.4-0.2-0.9-0.3-1.4-0.3c-0.6,0-1,0.1-1.3,0.4
				c-0.3,0.2-0.5,0.6-0.5,1.2c0,0.4,0.2,0.7,0.5,1c0.3,0.3,0.7,0.5,1.2,0.8c0.5,0.2,1,0.5,1.6,0.8c0.6,0.3,1.1,0.6,1.6,1
				c0.5,0.4,0.9,0.8,1.2,1.4c0.3,0.5,0.5,1.2,0.5,2c0,1.2-0.3,2.2-1,3c-0.6,0.8-1.5,1.3-2.7,1.6c-0.1,0-0.2,0.1-0.2,0.3v2
				c0,0.2-0.1,0.3-0.3,0.3h-1.8c-0.2,0-0.3-0.1-0.3-0.3v-1.9c0-0.1-0.1-0.3-0.2-0.3c-0.6-0.1-1.3-0.3-2-0.6
				c-0.7-0.3-1.3-0.6-1.9-1.1c-0.1-0.1-0.1-0.2-0.1-0.4l1.3-2c0.1-0.1,0.3-0.2,0.4-0.1c0.5,0.4,1,0.7,1.5,0.9
				c0.6,0.2,1.1,0.4,1.7,0.4c0.7,0,1.2-0.1,1.5-0.4c0.3-0.3,0.5-0.7,0.5-1.3c0-0.4-0.2-0.8-0.5-1.1c-0.3-0.3-0.7-0.6-1.2-0.8
				c-0.5-0.3-1-0.5-1.6-0.8c-0.6-0.3-1.1-0.6-1.6-1c-0.5-0.4-0.9-0.8-1.2-1.3c-0.3-0.5-0.5-1.1-0.5-1.9c0-1.2,0.3-2.2,1-3
				c0.6-0.7,1.5-1.2,2.5-1.5c0.1,0,0.2-0.1,0.2-0.3v-2c0-0.2,0.1-0.3,0.3-0.3h1.8c0.2,0,0.3,0.1,0.3,0.3v2c0,0.1,0.1,0.2,0.2,0.3
				c0.7,0.1,1.3,0.3,1.8,0.7c0.5,0.3,1,0.7,1.4,1.1c0.1,0.1,0.1,0.3,0,0.4L21,13.8z"/>
		</g>
		<path class="st7" d="M20.5,13.5c-0.1,0.1-0.3,0.1-0.4,0c-0.4-0.3-0.7-0.6-1.1-0.7c-0.4-0.2-0.9-0.3-1.4-0.3c-0.6,0-1,0.1-1.3,0.4
			c-0.3,0.2-0.5,0.6-0.5,1.2c0,0.4,0.2,0.7,0.5,1c0.3,0.3,0.7,0.5,1.2,0.8c0.5,0.2,1,0.5,1.6,0.8c0.6,0.3,1.1,0.6,1.6,1
			c0.5,0.4,0.9,0.8,1.2,1.4c0.3,0.5,0.5,1.2,0.5,2c0,1.2-0.3,2.2-1,3c-0.6,0.8-1.5,1.3-2.7,1.6c-0.1,0-0.2,0.1-0.2,0.3v2
			c0,0.2-0.1,0.3-0.3,0.3h-1.8c-0.2,0-0.3-0.1-0.3-0.3v-1.9c0-0.1-0.1-0.3-0.2-0.3c-0.6-0.1-1.3-0.3-2-0.6c-0.7-0.3-1.3-0.6-1.9-1.1
			c-0.1-0.1-0.1-0.2-0.1-0.4l1.3-2c0.1-0.1,0.3-0.2,0.4-0.1c0.5,0.4,1,0.7,1.5,0.9c0.6,0.2,1.1,0.4,1.7,0.4c0.7,0,1.2-0.1,1.5-0.4
			c0.3-0.3,0.5-0.7,0.5-1.3c0-0.4-0.2-0.8-0.5-1.1c-0.3-0.3-0.7-0.6-1.2-0.8c-0.5-0.3-1-0.5-1.6-0.8c-0.6-0.3-1.1-0.6-1.6-1
			c-0.5-0.4-0.9-0.8-1.2-1.3c-0.3-0.5-0.5-1.1-0.5-1.9c0-1.2,0.3-2.2,1-3c0.6-0.7,1.5-1.2,2.5-1.5c0.1,0,0.2-0.1,0.2-0.3v-2
			c0-0.2,0.1-0.3,0.3-0.3h1.8c0.2,0,0.3,0.1,0.3,0.3v2c0,0.1,0.1,0.2,0.2,0.3c0.7,0.1,1.3,0.3,1.8,0.7c0.5,0.3,1,0.7,1.4,1.1
			c0.1,0.1,0.1,0.3,0,0.4L20.5,13.5z"/>
	</g>
</g>
</svg>
