<?xml version="1.0" encoding="utf-8"?>
<!-- Generator: Adobe Illustrator 25.2.3, SVG Export Plug-In . SVG Version: 6.00 Build 0)  -->
<svg version="1.1" id="Layer_1" xmlns="http://www.w3.org/2000/svg" xmlns:xlink="http://www.w3.org/1999/xlink" x="0px" y="0px"
	 viewBox="0 0 85 85" style="enable-background:new 0 0 85 85;" xml:space="preserve">
<style type="text/css">
	.st0{fill:#FFFFFF;stroke:#004C6E;stroke-width:1.9837;stroke-miterlimit:10;}
	.st1{fill:#004C6E;}
</style>
<g>
	<circle class="st0" cx="42.5" cy="42.5" r="41.2"/>
	<g>
		<g>
			<path class="st1" d="M37.7,41.8c-1.4,0-2.5,1.1-2.5,2.5l0,8.5c0,1.4,1.1,2.5,2.5,2.5l17.2,0c1.4,0,2.5,1.1,2.5,2.5l0,5.4
				c0,1.4,0.8,1.7,1.8,0.7L73,50.1c1-1,1-2.5,0-3.5L59.2,32.7c-1-1-1.8-0.6-1.8,0.7l0,5.9c0,1.4-1.1,2.5-2.5,2.5L37.7,41.8z"/>
			<g>
				<path class="st1" d="M50.6,30.7c0.6,0.6,1,1.5,1,2.4c0,0.5-0.4,0.9-0.9,0.9c-0.5,0-0.9-0.4-0.9-0.9c0-0.9-0.7-1.6-1.6-1.6
					l-17.2,0c-0.9,0-1.7-0.4-2.4-1c-0.6-0.6-1-1.5-1-2.4l0-5.4c0-0.1,0-0.2,0-0.3c-0.1,0-0.1,0.1-0.2,0.2L13.5,36.4
					c-0.6,0.6-0.6,1.6,0,2.3l13.9,13.9c0.1,0.1,0.2,0.2,0.2,0.2c0-0.1,0-0.2,0-0.3l0-5.9c0-0.5,0.4-0.9,0.9-0.9
					c0.5,0,0.9,0.4,0.9,0.9l0,5.9c0,1.4-0.7,1.9-1.1,2.1c-0.4,0.2-1.2,0.3-2.2-0.7L12.2,40c-1.3-1.3-1.3-3.4,0-4.8l13.9-13.9
					c1-1,1.8-0.9,2.2-0.7c0.4,0.2,1.1,0.6,1.1,2.1v5.4c0,0.4,0.2,0.8,0.5,1.1c0.3,0.3,0.7,0.5,1.1,0.5l17.2,0
					C49.1,29.7,50,30.1,50.6,30.7z"/>
			</g>
		</g>
		<g>
			<path class="st1" d="M52.5,25.8h-1.5c-0.5,0-0.9-0.4-0.9-0.9c0-0.5,0.4-0.9,0.9-0.9h1.5c0.5,0,0.9,0.4,0.9,0.9
				C53.4,25.4,53,25.8,52.5,25.8z"/>
		</g>
		<g>
			<path class="st1" d="M46.6,25.8h-2.7c-0.5,0-0.9-0.4-0.9-0.9c0-0.5,0.4-0.9,0.9-0.9h2.7c0.5,0,0.9,0.4,0.9,0.9
				C47.5,25.4,47.1,25.8,46.6,25.8z"/>
		</g>
		<g>
			<path class="st1" d="M39.2,25.8h-4c-0.5,0-0.9-0.4-0.9-0.9c0-0.5,0.4-0.9,0.9-0.9h4c0.5,0,0.9,0.4,0.9,0.9
				C40.1,25.4,39.7,25.8,39.2,25.8z"/>
		</g>
		<g>
			<path class="st1" d="M60.6,25.8h-4c-0.5,0-0.9-0.4-0.9-0.9c0-0.5,0.4-0.9,0.9-0.9h4c0.5,0,0.9,0.4,0.9,0.9
				C61.5,25.4,61.1,25.8,60.6,25.8z"/>
		</g>
		<g>
			<path class="st1" d="M52.5,60.7h-1.9c-0.5,0-0.9-0.4-0.9-0.9c0-0.5,0.4-0.9,0.9-0.9h1.9c0.5,0,0.9,0.4,0.9,0.9
				C53.4,60.3,53,60.7,52.5,60.7z"/>
		</g>
		<g>
			<path class="st1" d="M27.4,60.7h-1.9c-0.5,0-0.9-0.4-0.9-0.9c0-0.5,0.4-0.9,0.9-0.9h1.9c0.5,0,0.9,0.4,0.9,0.9
				C28.2,60.3,27.8,60.7,27.4,60.7z"/>
		</g>
		<g>
			<path class="st1" d="M31.4,60.7L31.4,60.7c-0.5,0-0.9-0.4-0.9-0.9c0-0.5,0.4-0.9,0.9-0.9h0.1c0.5,0,0.9,0.4,0.9,0.9
				C32.3,60.3,31.9,60.7,31.4,60.7z"/>
		</g>
		<g>
			<path class="st1" d="M47.3,60.7h-2.1c-0.5,0-0.9-0.4-0.9-0.9c0-0.5,0.4-0.9,0.9-0.9h2.1c0.5,0,0.9,0.4,0.9,0.9
				C48.2,60.3,47.8,60.7,47.3,60.7z"/>
		</g>
		<g>
			<path class="st1" d="M41.2,60.7h-6c-0.5,0-0.9-0.4-0.9-0.9c0-0.5,0.4-0.9,0.9-0.9h6c0.5,0,0.9,0.4,0.9,0.9
				C42,60.3,41.6,60.7,41.2,60.7z"/>
		</g>
	</g>
</g>
</svg>
