<?xml version="1.0" encoding="utf-8"?>
<!-- Generator: Adobe Illustrator 25.2.3, SVG Export Plug-In . SVG Version: 6.00 Build 0)  -->
<svg version="1.1" id="Layer_1" xmlns="http://www.w3.org/2000/svg" xmlns:xlink="http://www.w3.org/1999/xlink" x="0px" y="0px"
	 viewBox="0 0 80 80" style="enable-background:new 0 0 80 80;" xml:space="preserve">
<style type="text/css">
	.st0{fill:#269FDA;stroke:#FFFFFF;stroke-width:3.5231;stroke-miterlimit:10;}
	.st1{fill:#FFFFFF;}
</style>
<g>
	<circle class="st0" cx="39.6" cy="40.5" r="37.4"/>
	<g>
		<polygon class="st1" points="29,55.1 29,24.7 55.3,39.9 		"/>
		<path class="st1" d="M29,59c-2.1,0-3.9-1.7-3.9-3.9l0,0V24.7c0-2.1,1.7-3.9,3.9-3.9c0.7,0,1.4,0.2,2,0.6l26.3,15.2
			c1.8,1.1,2.5,3.4,1.5,5.3c0,0,0,0,0,0.1c-0.4,0.6-0.9,1.1-1.5,1.5L31,58.5C30.4,58.8,29.7,59,29,59z M33,31.4v16.9l14.6-8.5
			L33,31.4z"/>
	</g>
</g>
</svg>
