<?xml version="1.0" encoding="utf-8"?>
<!-- Generator: Adobe Illustrator 25.2.3, SVG Export Plug-In . SVG Version: 6.00 Build 0)  -->
<svg version="1.1" id="Layer_1" xmlns="http://www.w3.org/2000/svg" xmlns:xlink="http://www.w3.org/1999/xlink" x="0px" y="0px"
	 viewBox="0 0 80 80" style="enable-background:new 0 0 80 80;" xml:space="preserve">
<style type="text/css">
	.st0{fill:#854D95;stroke:#FFFFFF;stroke-width:3.5231;stroke-miterlimit:10;}
	.st1{fill:#FFFFFF;}
</style>
<g>
	<circle class="st0" cx="39.6" cy="40.5" r="37.4"/>
	<g>
		<path class="st1" d="M34.6,43.8c4.3-0.3,7.6-3.8,7.6-8.1c0-4.5-3.6-8.1-8.1-8.1c-0.5,0-1,0-1.4,0.1l-4.4-8.5
			c0.5-0.3,0.9-0.4,1.1-0.5c6.2-2.4,13.7-0.9,17.6,1.3c2.1,1.2,5.4,4.3,6.4,6c1.1,1.9,2.9,7.7,2.7,8.5c-0.2,0.6-0.9,1.7-0.6,2.3
			c0.8,1.7,3.9,5.6,3.9,6.4c0,1.1-2.1,1.3-2.4,1.7c-0.4,0.4-0.2,1.4-0.2,1.4s0.5,1,0.4,1.3c-0.1,0.6-1,1.1-1,1.1s0.8,0.4,0.8,1.2
			c0,0.3-1,1.4-1.1,1.7c-0.1,0.8,0.6,2.4,0.3,3.2C56,55.1,55.9,58,50,57.1c-0.7-0.1-3.1-0.5-3.1-0.5c-0.6,1.5,0.3,2-1.7,5.1
			c-0.6,0.9-1.2,3.9-1.2,3.9l-11.1-7.9l-0.5-0.3l-5.1-3.6c0,0,0-5.2-2-7.7c-3.7-4.7-5.2-10.8-5.1-14.7c0.1-4.1,2-7.1,4-9.2l4,7.8
			c-1.5,1.5-2.4,3.5-2.4,5.7c0,4.2,3.1,7.6,7.1,8.1C33.1,43.8,34,43.9,34.6,43.8z"/>
	</g>
</g>
</svg>
