<?xml version="1.0" encoding="utf-8"?>
<!-- Generator: Adobe Illustrator 25.2.3, SVG Export Plug-In . SVG Version: 6.00 Build 0)  -->
<svg version="1.1" id="Layer_1" xmlns="http://www.w3.org/2000/svg" xmlns:xlink="http://www.w3.org/1999/xlink" x="0px" y="0px"
	 viewBox="0 0 80 80" style="enable-background:new 0 0 80 80;" xml:space="preserve">
<style type="text/css">
	.st0{fill:#EBAA32;stroke:#FFFFFF;stroke-width:3.5231;stroke-miterlimit:10;}
	.st1{fill:#FFFFFF;}
</style>
<g>
	<circle class="st0" cx="39.6" cy="40.5" r="37.4"/>
	<g>
		<g>
			<polygon class="st1" points="43,56.4 36.1,56.4 37.7,44.5 41.4,44.5 			"/>
			<path class="st1" d="M51.4,57h-25c-0.1,0-0.1-0.1-0.1-0.1v-0.3c0-1.7,1.4-3,3-3h22.2c0.9,0,1.6,0.7,1.6,1.6v0.3
				C53.1,56.3,52.3,57,51.4,57z"/>
		</g>
		<path class="st1" d="M17.2,25.7v25.1h44.7V25.7H17.2z M45.8,38.8c-0.1,0.1-0.3,0.3-0.4,0.4l-7.9,4.6C37.2,43.9,37,44,36.8,44
			c-0.7,0-1.2-0.5-1.2-1.2v-9.1c0-0.7,0.5-1.2,1.2-1.2c0.1,0,0.4,0,0.6,0.1l7.9,4.6C45.8,37.6,46,38.3,45.8,38.8z"/>
	</g>
</g>
</svg>
