<?xml version="1.0" encoding="utf-8"?>
<!-- Generator: Adobe Illustrator 25.2.3, SVG Export Plug-In . SVG Version: 6.00 Build 0)  -->
<svg version="1.1" id="Layer_1" xmlns="http://www.w3.org/2000/svg" xmlns:xlink="http://www.w3.org/1999/xlink" x="0px" y="0px"
	 viewBox="0 0 80 80" style="enable-background:new 0 0 80 80;" xml:space="preserve">
<style type="text/css">
	.st0{fill:#A2D23F;stroke:#FFFFFF;stroke-width:3.5231;stroke-miterlimit:10;}
	.st1{fill:#FFFFFF;}
</style>
<g>
	<circle class="st0" cx="39.6" cy="40.5" r="37.4"/>
	<g>
		<path class="st1" d="M36.1,21.4H25c-2.6,0-4.9,2.2-4.9,4.9v11.1h4.2V26.3c0-0.4,0.3-0.7,0.7-0.7l0,0h11V21.4z"/>
		<path class="st1" d="M54.1,21.4H43v4.2h11.1c0.4,0,0.7,0.3,0.7,0.6l0,0v11.1H59v-11C58.9,23.6,56.8,21.4,54.1,21.4z"/>
		<path class="st1" d="M24.3,54.7V43.6h-4.2v11.1c0,2.6,2.2,4.9,4.9,4.9h11v-4.2H25C24.6,55.3,24.3,55,24.3,54.7z"/>
		<path class="st1" d="M54.8,54.7c0,0.4-0.3,0.7-0.7,0.7H43v4.2h11.1c2.6,0,4.9-2.2,4.9-4.9V43.6h-4.2L54.8,54.7z"/>
		<path class="st1" d="M46.1,35.9c0-3.6-2.9-6.5-6.5-6.5s-6.5,2.9-6.5,6.5c0,2.2,1.1,4.2,2.9,5.4c-2.2,0.1-4.2,1.7-4.6,3.8l-0.4,2
			c-0.4,1.6,0.6,3.3,2.2,3.8c0.3,0.1,0.6,0.1,1,0.1h11c1.7,0.1,3.1-1.2,3.2-2.9c0-0.3,0-0.6-0.1-1l-0.5-2.1
			c-0.5-2.2-2.4-3.8-4.6-3.8C44.9,40.1,46.1,38,46.1,35.9z"/>
	</g>
</g>
</svg>
