<?xml version="1.0" encoding="utf-8"?>
<!-- Generator: Adobe Illustrator 25.2.3, SVG Export Plug-In . SVG Version: 6.00 Build 0)  -->
<svg version="1.1" id="Layer_1" xmlns="http://www.w3.org/2000/svg" xmlns:xlink="http://www.w3.org/1999/xlink" x="0px" y="0px"
	 viewBox="0 0 40.3 40.3" style="enable-background:new 0 0 40.3 40.3;" xml:space="preserve">
<style type="text/css">
	.st0{fill:#FFFFFF;}
</style>
<g>
	<path id="XMLID_38_" class="st0" d="M23.5,20.2l5.1-5.1c0.9-0.9,0.9-2.4,0-3.4l0,0c-0.9-0.9-2.4-0.9-3.4,0l-5.1,5.1l-5.1-5.1
		c-0.9-0.9-2.4-0.9-3.4,0l0,0c-0.9,0.9-0.9,2.4,0,3.4l5.1,5.1l-5.1,5.1c-0.9,0.9-0.9,2.4,0,3.4l0,0c0.9,0.9,2.4,0.9,3.4,0l5.1-5.1
		l5.1,5.1c0.9,0.9,2.4,0.9,3.4,0l0,0c0.9-0.9,0.9-2.4,0-3.4L23.5,20.2z"/>
	<g id="XMLID_34_">
		<path id="XMLID_35_" class="st0" d="M20.2,40.3L20.2,40.3C9,40.3,0,31.3,0,20.2v0C0,9,9,0,20.2,0h0c11.1,0,20.2,9,20.2,20.2v0
			C40.3,31.3,31.3,40.3,20.2,40.3z M20.2,3.3c-9.3,0-16.8,7.5-16.8,16.8v0c0,9.3,7.5,16.8,16.8,16.8h0C29.5,37,37,29.5,37,20.2v0
			C37,10.9,29.5,3.3,20.2,3.3L20.2,3.3z"/>
	</g>
</g>
</svg>
